solid OpenSCAD_Model
  facet normal 0.678598 0.281085 -0.678598
    outer loop
      vertex 0.382683 7 -0.92388
      vertex 0.653282 7.65328 -0.382683
      vertex 0.92388 7 -0.382683
    endloop
  endfacet
  facet normal -0.678599 -0.281084 0.678598
    outer loop
      vertex -0.270598 -0.270598 0.92388
      vertex -0.382683 0 0.92388
      vertex -0.653282 -0.653282 0.382683
    endloop
  endfacet
  facet normal -0.923879 0.382684 0
    outer loop
      vertex -0.92388 7 0.382683
      vertex -0.653282 7.65328 -0.382683
      vertex -0.92388 7 -0.382683
    endloop
  endfacet
  facet normal 1 0 0
    outer loop
      vertex 0.92388 0 -0.382683
      vertex 0.92388 7 0.382683
      vertex 0.92388 0 0.382683
    endloop
  endfacet
  facet normal 0 0 1
    outer loop
      vertex 0 -0.382683 0.92388
      vertex -0.270598 7.2706 0.92388
      vertex -0.270598 -0.270598 0.92388
    endloop
  endfacet
  facet normal -0.678598 0.281085 0.678598
    outer loop
      vertex -0.653282 7.65328 0.382683
      vertex -0.92388 7 0.382683
      vertex -0.382683 7 0.92388
    endloop
  endfacet
  facet normal 0.923879 0.382684 0
    outer loop
      vertex 0.92388 7 0.382683
      vertex 0.653282 7.65328 -0.382683
      vertex 0.653282 7.65328 0.382683
    endloop
  endfacet
  facet normal -0.707107 0 0.707107
    outer loop
      vertex -0.92388 7 0.382683
      vertex -0.92388 0 0.382683
      vertex -0.382683 7 0.92388
    endloop
  endfacet
  facet normal 0 0 -1
    outer loop
      vertex 0 -0.382683 -0.92388
      vertex -0.270598 -0.270598 -0.92388
      vertex 0.270598 -0.270598 -0.92388
    endloop
  endfacet
  facet normal 1 0 -0
    outer loop
      vertex 0.92388 7 -0.382683
      vertex 0.92388 7 0.382683
      vertex 0.92388 0 -0.382683
    endloop
  endfacet
  facet normal -0.382683 -0.92388 -0
    outer loop
      vertex 0 -0.92388 0.382683
      vertex -0.653282 -0.653282 -0.382683
      vertex 0 -0.92388 -0.382683
    endloop
  endfacet
  facet normal 0.678599 -0.281084 -0.678598
    outer loop
      vertex 0.653282 -0.653282 -0.382683
      vertex 0.270598 -0.270598 -0.92388
      vertex 0.382683 0 -0.92388
    endloop
  endfacet
  facet normal 0.678598 0.281085 0.678598
    outer loop
      vertex 0.653282 7.65328 0.382683
      vertex 0.382683 7 0.92388
      vertex 0.92388 7 0.382683
    endloop
  endfacet
  facet normal 0.923879 0.382684 -0
    outer loop
      vertex 0.92388 7 -0.382683
      vertex 0.653282 7.65328 -0.382683
      vertex 0.92388 7 0.382683
    endloop
  endfacet
  facet normal 0.281084 -0.678599 -0.678598
    outer loop
      vertex 0 -0.382683 -0.92388
      vertex 0.270598 -0.270598 -0.92388
      vertex 0.653282 -0.653282 -0.382683
    endloop
  endfacet
  facet normal 0.678598 -0.281084 0.678598
    outer loop
      vertex 0.382683 0 0.92388
      vertex 0.653282 -0.653282 0.382683
      vertex 0.92388 0 0.382683
    endloop
  endfacet
  facet normal 0.678601 0.281083 0.678597
    outer loop
      vertex 0.653282 7.65328 0.382683
      vertex 0.270598 7.2706 0.92388
      vertex 0.382683 7 0.92388
    endloop
  endfacet
  facet normal 0.92388 -0.382683 0
    outer loop
      vertex 0.653282 -0.653282 0.382683
      vertex 0.653282 -0.653282 -0.382683
      vertex 0.92388 0 0.382683
    endloop
  endfacet
  facet normal 0.382683 -0.92388 0
    outer loop
      vertex 0 -0.92388 0.382683
      vertex 0.653282 -0.653282 -0.382683
      vertex 0.653282 -0.653282 0.382683
    endloop
  endfacet
  facet normal 0.678599 -0.281084 0.678598
    outer loop
      vertex 0.382683 0 0.92388
      vertex 0.270598 -0.270598 0.92388
      vertex 0.653282 -0.653282 0.382683
    endloop
  endfacet
  facet normal -0.678601 0.281083 0.678597
    outer loop
      vertex -0.382683 7 0.92388
      vertex -0.270598 7.2706 0.92388
      vertex -0.653282 7.65328 0.382683
    endloop
  endfacet
  facet normal -0.281084 -0.678598 -0.678598
    outer loop
      vertex 0 -0.92388 -0.382683
      vertex -0.653282 -0.653282 -0.382683
      vertex 0 -0.382683 -0.92388
    endloop
  endfacet
  facet normal 0.678598 -0.281084 -0.678598
    outer loop
      vertex 0.92388 0 -0.382683
      vertex 0.653282 -0.653282 -0.382683
      vertex 0.382683 0 -0.92388
    endloop
  endfacet
  facet normal 0.92388 -0.382683 0
    outer loop
      vertex 0.92388 0 0.382683
      vertex 0.653282 -0.653282 -0.382683
      vertex 0.92388 0 -0.382683
    endloop
  endfacet
  facet normal 0.707107 0 -0.707107
    outer loop
      vertex 0.92388 0 -0.382683
      vertex 0.382683 7 -0.92388
      vertex 0.92388 7 -0.382683
    endloop
  endfacet
  facet normal 0.707107 0 -0.707107
    outer loop
      vertex 0.382683 0 -0.92388
      vertex 0.382683 7 -0.92388
      vertex 0.92388 0 -0.382683
    endloop
  endfacet
  facet normal 0.707107 0 0.707107
    outer loop
      vertex 0.92388 0 0.382683
      vertex 0.382683 7 0.92388
      vertex 0.382683 0 0.92388
    endloop
  endfacet
  facet normal 0.707107 0 0.707107
    outer loop
      vertex 0.92388 7 0.382683
      vertex 0.382683 7 0.92388
      vertex 0.92388 0 0.382683
    endloop
  endfacet
  facet normal -0.923879 0.382684 0
    outer loop
      vertex -0.653282 7.65328 0.382683
      vertex -0.653282 7.65328 -0.382683
      vertex -0.92388 7 0.382683
    endloop
  endfacet
  facet normal -1 0 0
    outer loop
      vertex -0.92388 0 -0.382683
      vertex -0.92388 0 0.382683
      vertex -0.92388 7 -0.382683
    endloop
  endfacet
  facet normal -0.281084 -0.678598 0.678598
    outer loop
      vertex 0 -0.92388 0.382683
      vertex 0 -0.382683 0.92388
      vertex -0.653282 -0.653282 0.382683
    endloop
  endfacet
  facet normal 0.281084 -0.678598 0.678598
    outer loop
      vertex 0.653282 -0.653282 0.382683
      vertex 0 -0.382683 0.92388
      vertex 0 -0.92388 0.382683
    endloop
  endfacet
  facet normal -0.678598 -0.281084 -0.678598
    outer loop
      vertex -0.382683 0 -0.92388
      vertex -0.653282 -0.653282 -0.382683
      vertex -0.92388 0 -0.382683
    endloop
  endfacet
  facet normal 0.281086 0.678596 -0.6786
    outer loop
      vertex 0.653282 7.65328 -0.382683
      vertex 0 7.38268 -0.92388
      vertex 0 7.92388 -0.382683
    endloop
  endfacet
  facet normal 0.382686 0.923879 -0
    outer loop
      vertex 0.653282 7.65328 -0.382683
      vertex 0 7.92388 0.382683
      vertex 0.653282 7.65328 0.382683
    endloop
  endfacet
  facet normal 0 0 1
    outer loop
      vertex 0.382683 7 0.92388
      vertex -0.270598 7.2706 0.92388
      vertex 0.382683 0 0.92388
    endloop
  endfacet
  facet normal 0.382683 -0.92388 0
    outer loop
      vertex 0 -0.92388 -0.382683
      vertex 0.653282 -0.653282 -0.382683
      vertex 0 -0.92388 0.382683
    endloop
  endfacet
  facet normal -0.382686 0.923879 0
    outer loop
      vertex -0.653282 7.65328 0.382683
      vertex 0 7.92388 0.382683
      vertex -0.653282 7.65328 -0.382683
    endloop
  endfacet
  facet normal -0.281075 0.678608 0.678593
    outer loop
      vertex -0.653282 7.65328 0.382683
      vertex -0.270598 7.2706 0.92388
      vertex 0 7.38268 0.92388
    endloop
  endfacet
  facet normal -0.281084 -0.678599 0.678598
    outer loop
      vertex -0.653282 -0.653282 0.382683
      vertex 0 -0.382683 0.92388
      vertex -0.270598 -0.270598 0.92388
    endloop
  endfacet
  facet normal -0.678598 0.281085 -0.678598
    outer loop
      vertex -0.92388 7 -0.382683
      vertex -0.653282 7.65328 -0.382683
      vertex -0.382683 7 -0.92388
    endloop
  endfacet
  facet normal 0.382686 0.923879 -0
    outer loop
      vertex 0 7.92388 -0.382683
      vertex 0 7.92388 0.382683
      vertex 0.653282 7.65328 -0.382683
    endloop
  endfacet
  facet normal -0.707107 0 -0.707107
    outer loop
      vertex -0.382683 0 -0.92388
      vertex -0.92388 7 -0.382683
      vertex -0.382683 7 -0.92388
    endloop
  endfacet
  facet normal -0.707107 0 -0.707107
    outer loop
      vertex -0.92388 0 -0.382683
      vertex -0.92388 7 -0.382683
      vertex -0.382683 0 -0.92388
    endloop
  endfacet
  facet normal 0.281084 -0.678598 -0.678598
    outer loop
      vertex 0 -0.92388 -0.382683
      vertex 0 -0.382683 -0.92388
      vertex 0.653282 -0.653282 -0.382683
    endloop
  endfacet
  facet normal 0 0 -1
    outer loop
      vertex 0.270598 -0.270598 -0.92388
      vertex -0.270598 -0.270598 -0.92388
      vertex 0.382683 0 -0.92388
    endloop
  endfacet
  facet normal 0.281084 -0.678599 0.678598
    outer loop
      vertex 0.270598 -0.270598 0.92388
      vertex 0 -0.382683 0.92388
      vertex 0.653282 -0.653282 0.382683
    endloop
  endfacet
  facet normal 0 0 1
    outer loop
      vertex 0 7.38268 0.92388
      vertex -0.270598 7.2706 0.92388
      vertex 0.270598 7.2706 0.92388
    endloop
  endfacet
  facet normal 0 0 1
    outer loop
      vertex 0.270598 7.2706 0.92388
      vertex -0.270598 7.2706 0.92388
      vertex 0.382683 7 0.92388
    endloop
  endfacet
  facet normal 0.281075 0.678608 0.678593
    outer loop
      vertex 0 7.38268 0.92388
      vertex 0.270598 7.2706 0.92388
      vertex 0.653282 7.65328 0.382683
    endloop
  endfacet
  facet normal 0.281075 0.678608 -0.678593
    outer loop
      vertex 0.653282 7.65328 -0.382683
      vertex 0.270598 7.2706 -0.92388
      vertex 0 7.38268 -0.92388
    endloop
  endfacet
  facet normal -0.382686 0.923879 0
    outer loop
      vertex -0.653282 7.65328 -0.382683
      vertex 0 7.92388 0.382683
      vertex 0 7.92388 -0.382683
    endloop
  endfacet
  facet normal -0.281075 0.678608 -0.678593
    outer loop
      vertex 0 7.38268 -0.92388
      vertex -0.270598 7.2706 -0.92388
      vertex -0.653282 7.65328 -0.382683
    endloop
  endfacet
  facet normal -0.678599 -0.281084 -0.678598
    outer loop
      vertex -0.382683 0 -0.92388
      vertex -0.270598 -0.270598 -0.92388
      vertex -0.653282 -0.653282 -0.382683
    endloop
  endfacet
  facet normal -1 0 0
    outer loop
      vertex -0.92388 7 -0.382683
      vertex -0.92388 0 0.382683
      vertex -0.92388 7 0.382683
    endloop
  endfacet
  facet normal -0.92388 -0.382683 -0
    outer loop
      vertex -0.653282 -0.653282 0.382683
      vertex -0.92388 0 0.382683
      vertex -0.653282 -0.653282 -0.382683
    endloop
  endfacet
  facet normal -0.281086 0.678596 -0.6786
    outer loop
      vertex 0 7.38268 -0.92388
      vertex -0.653282 7.65328 -0.382683
      vertex 0 7.92388 -0.382683
    endloop
  endfacet
  facet normal 0 0 -1
    outer loop
      vertex -0.382683 7 -0.92388
      vertex -0.270598 -0.270598 -0.92388
      vertex -0.382683 0 -0.92388
    endloop
  endfacet
  facet normal -0.382683 -0.92388 -0
    outer loop
      vertex -0.653282 -0.653282 0.382683
      vertex -0.653282 -0.653282 -0.382683
      vertex 0 -0.92388 0.382683
    endloop
  endfacet
  facet normal -0.92388 -0.382683 0
    outer loop
      vertex -0.653282 -0.653282 -0.382683
      vertex -0.92388 0 0.382683
      vertex -0.92388 0 -0.382683
    endloop
  endfacet
  facet normal -0.678601 0.281083 -0.678597
    outer loop
      vertex -0.653282 7.65328 -0.382683
      vertex -0.270598 7.2706 -0.92388
      vertex -0.382683 7 -0.92388
    endloop
  endfacet
  facet normal -0.281084 -0.678599 -0.678598
    outer loop
      vertex -0.653282 -0.653282 -0.382683
      vertex -0.270598 -0.270598 -0.92388
      vertex 0 -0.382683 -0.92388
    endloop
  endfacet
  facet normal 0 0 1
    outer loop
      vertex -0.382683 0 0.92388
      vertex -0.270598 7.2706 0.92388
      vertex -0.382683 7 0.92388
    endloop
  endfacet
  facet normal 0 -0 1
    outer loop
      vertex -0.270598 -0.270598 0.92388
      vertex -0.270598 7.2706 0.92388
      vertex -0.382683 0 0.92388
    endloop
  endfacet
  facet normal -0.281086 0.678596 0.6786
    outer loop
      vertex 0 7.38268 0.92388
      vertex 0 7.92388 0.382683
      vertex -0.653282 7.65328 0.382683
    endloop
  endfacet
  facet normal 0.281086 0.678596 0.6786
    outer loop
      vertex 0.653282 7.65328 0.382683
      vertex 0 7.92388 0.382683
      vertex 0 7.38268 0.92388
    endloop
  endfacet
  facet normal 0 0 1
    outer loop
      vertex 0.270598 -0.270598 0.92388
      vertex -0.270598 7.2706 0.92388
      vertex 0 -0.382683 0.92388
    endloop
  endfacet
  facet normal 0 0 1
    outer loop
      vertex 0.382683 0 0.92388
      vertex -0.270598 7.2706 0.92388
      vertex 0.270598 -0.270598 0.92388
    endloop
  endfacet
  facet normal 0.678601 0.281083 -0.678597
    outer loop
      vertex 0.382683 7 -0.92388
      vertex 0.270598 7.2706 -0.92388
      vertex 0.653282 7.65328 -0.382683
    endloop
  endfacet
  facet normal -0 0 -1
    outer loop
      vertex 0.270598 7.2706 -0.92388
      vertex -0.270598 -0.270598 -0.92388
      vertex 0 7.38268 -0.92388
    endloop
  endfacet
  facet normal -0.678598 -0.281084 0.678598
    outer loop
      vertex -0.382683 0 0.92388
      vertex -0.92388 0 0.382683
      vertex -0.653282 -0.653282 0.382683
    endloop
  endfacet
  facet normal -0.707107 0 0.707107
    outer loop
      vertex -0.382683 7 0.92388
      vertex -0.92388 0 0.382683
      vertex -0.382683 0 0.92388
    endloop
  endfacet
  facet normal 0 0 -1
    outer loop
      vertex 0 7.38268 -0.92388
      vertex -0.270598 -0.270598 -0.92388
      vertex -0.270598 7.2706 -0.92388
    endloop
  endfacet
  facet normal 0 -0 -1
    outer loop
      vertex -0.270598 7.2706 -0.92388
      vertex -0.270598 -0.270598 -0.92388
      vertex -0.382683 7 -0.92388
    endloop
  endfacet
  facet normal -0 0 -1
    outer loop
      vertex 0.382683 7 -0.92388
      vertex -0.270598 -0.270598 -0.92388
      vertex 0.270598 7.2706 -0.92388
    endloop
  endfacet
  facet normal -0 0 -1
    outer loop
      vertex 0.382683 0 -0.92388
      vertex -0.270598 -0.270598 -0.92388
      vertex 0.382683 7 -0.92388
    endloop
  endfacet
endsolid OpenSCAD_Model
