solid OpenSCAD_Model
  facet normal 0.923881 0.38268 0
    outer loop
      vertex 6.22218 9.22218 2.9
      vertex 5.9 10 0
      vertex 5.9 10 2.9
    endloop
  endfacet
  facet normal 0.923881 0.38268 0
    outer loop
      vertex 5.9 10 0
      vertex 6.22218 9.22218 2.9
      vertex 6.22218 9.22218 0
    endloop
  endfacet
  facet normal -0.3827 -0.923873 0
    outer loop
      vertex 7 11.1 0
      vertex 7.77782 10.7778 2.9
      vertex 7 11.1 2.9
    endloop
  endfacet
  facet normal -0.3827 -0.923873 -0
    outer loop
      vertex 7.77782 10.7778 2.9
      vertex 7 11.1 0
      vertex 7.77782 10.7778 0
    endloop
  endfacet
  facet normal -0.923878 -0.382688 0
    outer loop
      vertex 8.1 10 0
      vertex 7.77782 10.7778 2.9
      vertex 7.77782 10.7778 0
    endloop
  endfacet
  facet normal -0.923878 -0.382688 0
    outer loop
      vertex 7.77782 10.7778 2.9
      vertex 8.1 10 0
      vertex 8.1 10 2.9
    endloop
  endfacet
  facet normal 0.38268 0.923881 -0
    outer loop
      vertex 7 8.9 0
      vertex 6.22218 9.22218 2.9
      vertex 7 8.9 2.9
    endloop
  endfacet
  facet normal 0.38268 0.923881 0
    outer loop
      vertex 6.22218 9.22218 2.9
      vertex 7 8.9 0
      vertex 6.22218 9.22218 0
    endloop
  endfacet
  facet normal 0.3827 -0.923873 0
    outer loop
      vertex 6.22218 10.7778 0
      vertex 7 11.1 2.9
      vertex 6.22218 10.7778 2.9
    endloop
  endfacet
  facet normal 0.3827 -0.923873 0
    outer loop
      vertex 7 11.1 2.9
      vertex 6.22218 10.7778 0
      vertex 7 11.1 0
    endloop
  endfacet
  facet normal 0.923878 -0.382688 0
    outer loop
      vertex 5.9 10 2.9
      vertex 6.22218 10.7778 0
      vertex 6.22218 10.7778 2.9
    endloop
  endfacet
  facet normal 0.923878 -0.382688 0
    outer loop
      vertex 6.22218 10.7778 0
      vertex 5.9 10 2.9
      vertex 5.9 10 0
    endloop
  endfacet
  facet normal 0 0 -1
    outer loop
      vertex 7.77782 9.22218 2.9
      vertex 7.77782 10.7778 2.9
      vertex 8.1 10 2.9
    endloop
  endfacet
  facet normal 0 0 -1
    outer loop
      vertex 7 8.9 2.9
      vertex 7.77782 10.7778 2.9
      vertex 7.77782 9.22218 2.9
    endloop
  endfacet
  facet normal 0 0 -1
    outer loop
      vertex 7 8.9 2.9
      vertex 7 11.1 2.9
      vertex 7.77782 10.7778 2.9
    endloop
  endfacet
  facet normal 0 0 -1
    outer loop
      vertex 6.22218 9.22218 2.9
      vertex 7 11.1 2.9
      vertex 7 8.9 2.9
    endloop
  endfacet
  facet normal 0 0 -1
    outer loop
      vertex 6.22218 9.22218 2.9
      vertex 6.22218 10.7778 2.9
      vertex 7 11.1 2.9
    endloop
  endfacet
  facet normal 0 -0 -1
    outer loop
      vertex 6.22218 10.7778 2.9
      vertex 6.22218 9.22218 2.9
      vertex 5.9 10 2.9
    endloop
  endfacet
  facet normal -0.923881 0.38268 0
    outer loop
      vertex 7.77782 9.22218 0
      vertex 8.1 10 2.9
      vertex 8.1 10 0
    endloop
  endfacet
  facet normal -0.923881 0.38268 0
    outer loop
      vertex 8.1 10 2.9
      vertex 7.77782 9.22218 0
      vertex 7.77782 9.22218 2.9
    endloop
  endfacet
  facet normal -0.38268 0.923881 0
    outer loop
      vertex 7.77782 9.22218 0
      vertex 7 8.9 2.9
      vertex 7.77782 9.22218 2.9
    endloop
  endfacet
  facet normal -0.38268 0.923881 0
    outer loop
      vertex 7 8.9 2.9
      vertex 7.77782 9.22218 0
      vertex 7 8.9 0
    endloop
  endfacet
  facet normal 0.923957 0.382497 0
    outer loop
      vertex 126.222 9.22218 2.9
      vertex 125.9 10 0
      vertex 125.9 10 2.9
    endloop
  endfacet
  facet normal 0.923957 0.382497 0
    outer loop
      vertex 125.9 10 0
      vertex 126.222 9.22218 2.9
      vertex 126.222 9.22218 0
    endloop
  endfacet
  facet normal -0.382624 -0.923904 0
    outer loop
      vertex 127 11.1 0
      vertex 127.778 10.7778 2.9
      vertex 127 11.1 2.9
    endloop
  endfacet
  facet normal -0.382624 -0.923904 -0
    outer loop
      vertex 127.778 10.7778 2.9
      vertex 127 11.1 0
      vertex 127.778 10.7778 0
    endloop
  endfacet
  facet normal -0.923953 -0.382506 0
    outer loop
      vertex 128.1 10 0
      vertex 127.778 10.7778 2.9
      vertex 127.778 10.7778 0
    endloop
  endfacet
  facet normal -0.923953 -0.382506 0
    outer loop
      vertex 127.778 10.7778 2.9
      vertex 128.1 10 0
      vertex 128.1 10 2.9
    endloop
  endfacet
  facet normal -0.923957 0.382497 0
    outer loop
      vertex 127.778 9.22218 0
      vertex 128.1 10 2.9
      vertex 128.1 10 0
    endloop
  endfacet
  facet normal -0.923957 0.382497 0
    outer loop
      vertex 128.1 10 2.9
      vertex 127.778 9.22218 0
      vertex 127.778 9.22218 2.9
    endloop
  endfacet
  facet normal 0.382604 0.923912 -0
    outer loop
      vertex 127 8.9 0
      vertex 126.222 9.22218 2.9
      vertex 127 8.9 2.9
    endloop
  endfacet
  facet normal 0.382604 0.923912 0
    outer loop
      vertex 126.222 9.22218 2.9
      vertex 127 8.9 0
      vertex 126.222 9.22218 0
    endloop
  endfacet
  facet normal 0.923953 -0.382506 0
    outer loop
      vertex 125.9 10 2.9
      vertex 126.222 10.7778 0
      vertex 126.222 10.7778 2.9
    endloop
  endfacet
  facet normal 0.923953 -0.382506 0
    outer loop
      vertex 126.222 10.7778 0
      vertex 125.9 10 2.9
      vertex 125.9 10 0
    endloop
  endfacet
  facet normal -0.382604 0.923912 0
    outer loop
      vertex 127.778 9.22218 0
      vertex 127 8.9 2.9
      vertex 127.778 9.22218 2.9
    endloop
  endfacet
  facet normal -0.382604 0.923912 0
    outer loop
      vertex 127 8.9 2.9
      vertex 127.778 9.22218 0
      vertex 127 8.9 0
    endloop
  endfacet
  facet normal 0 0 -1
    outer loop
      vertex 127.778 9.22218 2.9
      vertex 127.778 10.7778 2.9
      vertex 128.1 10 2.9
    endloop
  endfacet
  facet normal 0 0 -1
    outer loop
      vertex 127 8.9 2.9
      vertex 127.778 10.7778 2.9
      vertex 127.778 9.22218 2.9
    endloop
  endfacet
  facet normal 0 0 -1
    outer loop
      vertex 127 8.9 2.9
      vertex 127 11.1 2.9
      vertex 127.778 10.7778 2.9
    endloop
  endfacet
  facet normal 0 0 -1
    outer loop
      vertex 126.222 9.22218 2.9
      vertex 127 11.1 2.9
      vertex 127 8.9 2.9
    endloop
  endfacet
  facet normal 0 0 -1
    outer loop
      vertex 126.222 9.22218 2.9
      vertex 126.222 10.7778 2.9
      vertex 127 11.1 2.9
    endloop
  endfacet
  facet normal 0 -0 -1
    outer loop
      vertex 126.222 10.7778 2.9
      vertex 126.222 9.22218 2.9
      vertex 125.9 10 2.9
    endloop
  endfacet
  facet normal 0.382624 -0.923904 0
    outer loop
      vertex 126.222 10.7778 0
      vertex 127 11.1 2.9
      vertex 126.222 10.7778 2.9
    endloop
  endfacet
  facet normal 0.382624 -0.923904 0
    outer loop
      vertex 127 11.1 2.9
      vertex 126.222 10.7778 0
      vertex 127 11.1 0
    endloop
  endfacet
  facet normal -0.382624 -0.923904 0
    outer loop
      vertex 127 76.1 0
      vertex 127.778 75.7778 2.9
      vertex 127 76.1 2.9
    endloop
  endfacet
  facet normal -0.382624 -0.923904 -0
    outer loop
      vertex 127.778 75.7778 2.9
      vertex 127 76.1 0
      vertex 127.778 75.7778 0
    endloop
  endfacet
  facet normal -0.923953 -0.382506 0
    outer loop
      vertex 128.1 75 0
      vertex 127.778 75.7778 2.9
      vertex 127.778 75.7778 0
    endloop
  endfacet
  facet normal -0.923953 -0.382506 0
    outer loop
      vertex 127.778 75.7778 2.9
      vertex 128.1 75 0
      vertex 128.1 75 2.9
    endloop
  endfacet
  facet normal 0.382624 -0.923904 0
    outer loop
      vertex 126.222 75.7778 0
      vertex 127 76.1 2.9
      vertex 126.222 75.7778 2.9
    endloop
  endfacet
  facet normal 0.382624 -0.923904 0
    outer loop
      vertex 127 76.1 2.9
      vertex 126.222 75.7778 0
      vertex 127 76.1 0
    endloop
  endfacet
  facet normal 0 0 -1
    outer loop
      vertex 127.778 74.2222 2.9
      vertex 127.778 75.7778 2.9
      vertex 128.1 75 2.9
    endloop
  endfacet
  facet normal 0 0 -1
    outer loop
      vertex 127 73.9 2.9
      vertex 127.778 75.7778 2.9
      vertex 127.778 74.2222 2.9
    endloop
  endfacet
  facet normal 0 0 -1
    outer loop
      vertex 127 73.9 2.9
      vertex 127 76.1 2.9
      vertex 127.778 75.7778 2.9
    endloop
  endfacet
  facet normal 0 0 -1
    outer loop
      vertex 126.222 74.2222 2.9
      vertex 127 76.1 2.9
      vertex 127 73.9 2.9
    endloop
  endfacet
  facet normal 0 0 -1
    outer loop
      vertex 126.222 74.2222 2.9
      vertex 126.222 75.7778 2.9
      vertex 127 76.1 2.9
    endloop
  endfacet
  facet normal 0 -0 -1
    outer loop
      vertex 126.222 75.7778 2.9
      vertex 126.222 74.2222 2.9
      vertex 125.9 75 2.9
    endloop
  endfacet
  facet normal -0.923953 0.382506 0
    outer loop
      vertex 127.778 74.2222 0
      vertex 128.1 75 2.9
      vertex 128.1 75 0
    endloop
  endfacet
  facet normal -0.923953 0.382506 0
    outer loop
      vertex 128.1 75 2.9
      vertex 127.778 74.2222 0
      vertex 127.778 74.2222 2.9
    endloop
  endfacet
  facet normal 0.923953 -0.382506 0
    outer loop
      vertex 125.9 75 2.9
      vertex 126.222 75.7778 0
      vertex 126.222 75.7778 2.9
    endloop
  endfacet
  facet normal 0.923953 -0.382506 0
    outer loop
      vertex 126.222 75.7778 0
      vertex 125.9 75 2.9
      vertex 125.9 75 0
    endloop
  endfacet
  facet normal 0.382624 0.923904 -0
    outer loop
      vertex 127 73.9 0
      vertex 126.222 74.2222 2.9
      vertex 127 73.9 2.9
    endloop
  endfacet
  facet normal 0.382624 0.923904 0
    outer loop
      vertex 126.222 74.2222 2.9
      vertex 127 73.9 0
      vertex 126.222 74.2222 0
    endloop
  endfacet
  facet normal -0.382624 0.923904 0
    outer loop
      vertex 127.778 74.2222 0
      vertex 127 73.9 2.9
      vertex 127.778 74.2222 2.9
    endloop
  endfacet
  facet normal -0.382624 0.923904 0
    outer loop
      vertex 127 73.9 2.9
      vertex 127.778 74.2222 0
      vertex 127 73.9 0
    endloop
  endfacet
  facet normal 0.923953 0.382506 0
    outer loop
      vertex 126.222 74.2222 2.9
      vertex 125.9 75 0
      vertex 125.9 75 2.9
    endloop
  endfacet
  facet normal 0.923953 0.382506 0
    outer loop
      vertex 125.9 75 0
      vertex 126.222 74.2222 2.9
      vertex 126.222 74.2222 0
    endloop
  endfacet
  facet normal -0.3827 -0.923873 0
    outer loop
      vertex 7 76.1 0
      vertex 7.77782 75.7778 2.9
      vertex 7 76.1 2.9
    endloop
  endfacet
  facet normal -0.3827 -0.923873 -0
    outer loop
      vertex 7.77782 75.7778 2.9
      vertex 7 76.1 0
      vertex 7.77782 75.7778 0
    endloop
  endfacet
  facet normal -0.923878 -0.382688 0
    outer loop
      vertex 8.1 75 0
      vertex 7.77782 75.7778 2.9
      vertex 7.77782 75.7778 0
    endloop
  endfacet
  facet normal -0.923878 -0.382688 0
    outer loop
      vertex 7.77782 75.7778 2.9
      vertex 8.1 75 0
      vertex 8.1 75 2.9
    endloop
  endfacet
  facet normal 0.3827 -0.923873 0
    outer loop
      vertex 6.22218 75.7778 0
      vertex 7 76.1 2.9
      vertex 6.22218 75.7778 2.9
    endloop
  endfacet
  facet normal 0.3827 -0.923873 0
    outer loop
      vertex 7 76.1 2.9
      vertex 6.22218 75.7778 0
      vertex 7 76.1 0
    endloop
  endfacet
  facet normal 0 0 -1
    outer loop
      vertex 7.77782 74.2222 2.9
      vertex 7.77782 75.7778 2.9
      vertex 8.1 75 2.9
    endloop
  endfacet
  facet normal 0 0 -1
    outer loop
      vertex 7 73.9 2.9
      vertex 7.77782 75.7778 2.9
      vertex 7.77782 74.2222 2.9
    endloop
  endfacet
  facet normal 0 0 -1
    outer loop
      vertex 7 73.9 2.9
      vertex 7 76.1 2.9
      vertex 7.77782 75.7778 2.9
    endloop
  endfacet
  facet normal 0 0 -1
    outer loop
      vertex 6.22218 74.2222 2.9
      vertex 7 76.1 2.9
      vertex 7 73.9 2.9
    endloop
  endfacet
  facet normal 0 0 -1
    outer loop
      vertex 6.22218 74.2222 2.9
      vertex 6.22218 75.7778 2.9
      vertex 7 76.1 2.9
    endloop
  endfacet
  facet normal 0 -0 -1
    outer loop
      vertex 6.22218 75.7778 2.9
      vertex 6.22218 74.2222 2.9
      vertex 5.9 75 2.9
    endloop
  endfacet
  facet normal -0.923878 0.382688 0
    outer loop
      vertex 7.77782 74.2222 0
      vertex 8.1 75 2.9
      vertex 8.1 75 0
    endloop
  endfacet
  facet normal -0.923878 0.382688 0
    outer loop
      vertex 8.1 75 2.9
      vertex 7.77782 74.2222 0
      vertex 7.77782 74.2222 2.9
    endloop
  endfacet
  facet normal 0.923878 -0.382688 0
    outer loop
      vertex 5.9 75 2.9
      vertex 6.22218 75.7778 0
      vertex 6.22218 75.7778 2.9
    endloop
  endfacet
  facet normal 0.923878 -0.382688 0
    outer loop
      vertex 6.22218 75.7778 0
      vertex 5.9 75 2.9
      vertex 5.9 75 0
    endloop
  endfacet
  facet normal 0.3827 0.923873 -0
    outer loop
      vertex 7 73.9 0
      vertex 6.22218 74.2222 2.9
      vertex 7 73.9 2.9
    endloop
  endfacet
  facet normal 0.3827 0.923873 0
    outer loop
      vertex 6.22218 74.2222 2.9
      vertex 7 73.9 0
      vertex 6.22218 74.2222 0
    endloop
  endfacet
  facet normal -0.3827 0.923873 0
    outer loop
      vertex 7.77782 74.2222 0
      vertex 7 73.9 2.9
      vertex 7.77782 74.2222 2.9
    endloop
  endfacet
  facet normal -0.3827 0.923873 0
    outer loop
      vertex 7 73.9 2.9
      vertex 7.77782 74.2222 0
      vertex 7 73.9 0
    endloop
  endfacet
  facet normal 0.923878 0.382688 0
    outer loop
      vertex 6.22218 74.2222 2.9
      vertex 5.9 75 0
      vertex 5.9 75 2.9
    endloop
  endfacet
  facet normal 0.923878 0.382688 0
    outer loop
      vertex 5.9 75 0
      vertex 6.22218 74.2222 2.9
      vertex 6.22218 74.2222 0
    endloop
  endfacet
  facet normal 1 -0 0
    outer loop
      vertex 135 0 1
      vertex 135 90 0
      vertex 135 90 1
    endloop
  endfacet
  facet normal 1 0 0
    outer loop
      vertex 135 90 0
      vertex 135 0 1
      vertex 135 0 0
    endloop
  endfacet
  facet normal -1 0 0
    outer loop
      vertex 0 0 0
      vertex 0 90 1
      vertex 0 90 0
    endloop
  endfacet
  facet normal -1 -0 0
    outer loop
      vertex 0 90 1
      vertex 0 0 0
      vertex 0 0 1
    endloop
  endfacet
  facet normal -0.707107 0 0.707107
    outer loop
      vertex 0 90 1
      vertex 5 5 6
      vertex 5 85 6
    endloop
  endfacet
  facet normal -0.707107 0 0.707107
    outer loop
      vertex 5 5 6
      vertex 0 90 1
      vertex 0 0 1
    endloop
  endfacet
  facet normal 0 0 -1
    outer loop
      vertex 7.77782 74.2222 0
      vertex 126.222 74.2222 0
      vertex 7.77782 10.7778 0
    endloop
  endfacet
  facet normal 0 0 -1
    outer loop
      vertex 126.222 74.2222 0
      vertex 7.77782 74.2222 0
      vertex 8.1 75 0
    endloop
  endfacet
  facet normal 0 0 -1
    outer loop
      vertex 7 11.1 0
      vertex 7.77782 74.2222 0
      vertex 7.77782 10.7778 0
    endloop
  endfacet
  facet normal 0 0 -1
    outer loop
      vertex 7 11.1 0
      vertex 7 73.9 0
      vertex 7.77782 74.2222 0
    endloop
  endfacet
  facet normal 0 0 -1
    outer loop
      vertex 6.22218 10.7778 0
      vertex 7 73.9 0
      vertex 7 11.1 0
    endloop
  endfacet
  facet normal 0 0 -1
    outer loop
      vertex 6.22218 10.7778 0
      vertex 6.22218 74.2222 0
      vertex 7 73.9 0
    endloop
  endfacet
  facet normal 0 0 -1
    outer loop
      vertex 0 0 0
      vertex 6.22218 10.7778 0
      vertex 5.9 10 0
    endloop
  endfacet
  facet normal -0 0 -1
    outer loop
      vertex 6.22218 10.7778 0
      vertex 0 0 0
      vertex 6.22218 74.2222 0
    endloop
  endfacet
  facet normal 0 0 -1
    outer loop
      vertex 127.778 74.2222 0
      vertex 135 0 0
      vertex 127.778 10.7778 0
    endloop
  endfacet
  facet normal 0 0 -1
    outer loop
      vertex 135 0 0
      vertex 127.778 74.2222 0
      vertex 128.1 75 0
    endloop
  endfacet
  facet normal 0 0 -1
    outer loop
      vertex 127 11.1 0
      vertex 127.778 74.2222 0
      vertex 127.778 10.7778 0
    endloop
  endfacet
  facet normal 0 0 -1
    outer loop
      vertex 127 11.1 0
      vertex 127 73.9 0
      vertex 127.778 74.2222 0
    endloop
  endfacet
  facet normal 0 0 -1
    outer loop
      vertex 126.222 10.7778 0
      vertex 127 73.9 0
      vertex 127 11.1 0
    endloop
  endfacet
  facet normal 0 0 -1
    outer loop
      vertex 126.222 10.7778 0
      vertex 126.222 74.2222 0
      vertex 127 73.9 0
    endloop
  endfacet
  facet normal 0 0 -1
    outer loop
      vertex 8.1 10 0
      vertex 126.222 10.7778 0
      vertex 125.9 10 0
    endloop
  endfacet
  facet normal 0 0 -1
    outer loop
      vertex 7.77782 10.7778 0
      vertex 126.222 10.7778 0
      vertex 8.1 10 0
    endloop
  endfacet
  facet normal 0 0 -1
    outer loop
      vertex 127.778 10.7778 0
      vertex 135 0 0
      vertex 128.1 10 0
    endloop
  endfacet
  facet normal 0 0 -1
    outer loop
      vertex 135 0 0
      vertex 127.778 9.22218 0
      vertex 128.1 10 0
    endloop
  endfacet
  facet normal 0 0 -1
    outer loop
      vertex 135 0 0
      vertex 127 8.9 0
      vertex 127.778 9.22218 0
    endloop
  endfacet
  facet normal 0 0 -1
    outer loop
      vertex 135 0 0
      vertex 126.222 9.22218 0
      vertex 127 8.9 0
    endloop
  endfacet
  facet normal 0 0 -1
    outer loop
      vertex 126.222 10.7778 0
      vertex 7.77782 10.7778 0
      vertex 126.222 74.2222 0
    endloop
  endfacet
  facet normal 0 0 -1
    outer loop
      vertex 126.222 9.22218 0
      vertex 8.1 10 0
      vertex 125.9 10 0
    endloop
  endfacet
  facet normal 0 0 -1
    outer loop
      vertex 0 0 0
      vertex 126.222 9.22218 0
      vertex 135 0 0
    endloop
  endfacet
  facet normal 0 0 -1
    outer loop
      vertex 126.222 9.22218 0
      vertex 7.77782 9.22218 0
      vertex 8.1 10 0
    endloop
  endfacet
  facet normal -0 0 -1
    outer loop
      vertex 126.222 9.22218 0
      vertex 0 0 0
      vertex 7.77782 9.22218 0
    endloop
  endfacet
  facet normal -0 0 -1
    outer loop
      vertex 6.22218 74.2222 0
      vertex 0 0 0
      vertex 5.9 75 0
    endloop
  endfacet
  facet normal -0 0 -1
    outer loop
      vertex 6.22218 9.22218 0
      vertex 0 0 0
      vertex 5.9 10 0
    endloop
  endfacet
  facet normal -0 0 -1
    outer loop
      vertex 7 8.9 0
      vertex 0 0 0
      vertex 6.22218 9.22218 0
    endloop
  endfacet
  facet normal 0 0 -1
    outer loop
      vertex 7.77782 9.22218 0
      vertex 0 0 0
      vertex 7 8.9 0
    endloop
  endfacet
  facet normal 0 0 -1
    outer loop
      vertex 135 0 0
      vertex 128.1 75 0
      vertex 135 90 0
    endloop
  endfacet
  facet normal 0 0 -1
    outer loop
      vertex 127.778 75.7778 0
      vertex 135 90 0
      vertex 128.1 75 0
    endloop
  endfacet
  facet normal 0 0 -1
    outer loop
      vertex 127 76.1 0
      vertex 135 90 0
      vertex 127.778 75.7778 0
    endloop
  endfacet
  facet normal 0 0 -1
    outer loop
      vertex 126.222 75.7778 0
      vertex 135 90 0
      vertex 127 76.1 0
    endloop
  endfacet
  facet normal 0 0 -1
    outer loop
      vertex 126.222 74.2222 0
      vertex 8.1 75 0
      vertex 125.9 75 0
    endloop
  endfacet
  facet normal 0 0 -1
    outer loop
      vertex 125.9 75 0
      vertex 8.1 75 0
      vertex 126.222 75.7778 0
    endloop
  endfacet
  facet normal 0 0 -1
    outer loop
      vertex 7.77782 75.7778 0
      vertex 126.222 75.7778 0
      vertex 8.1 75 0
    endloop
  endfacet
  facet normal 0 0 -1
    outer loop
      vertex 0 90 0
      vertex 126.222 75.7778 0
      vertex 7.77782 75.7778 0
    endloop
  endfacet
  facet normal 0 0 -1
    outer loop
      vertex 0 90 0
      vertex 7.77782 75.7778 0
      vertex 7 76.1 0
    endloop
  endfacet
  facet normal 0 0 -1
    outer loop
      vertex 126.222 75.7778 0
      vertex 0 90 0
      vertex 135 90 0
    endloop
  endfacet
  facet normal 0 0 -1
    outer loop
      vertex 6.22218 75.7778 0
      vertex 0 90 0
      vertex 7 76.1 0
    endloop
  endfacet
  facet normal 0 0 -1
    outer loop
      vertex 5.9 75 0
      vertex 0 90 0
      vertex 6.22218 75.7778 0
    endloop
  endfacet
  facet normal 0 0 -1
    outer loop
      vertex 0 90 0
      vertex 5.9 75 0
      vertex 0 0 0
    endloop
  endfacet
  facet normal 0 1 -0
    outer loop
      vertex 135 90 0
      vertex 0 90 1
      vertex 135 90 1
    endloop
  endfacet
  facet normal 0 1 0
    outer loop
      vertex 0 90 1
      vertex 135 90 0
      vertex 0 90 0
    endloop
  endfacet
  facet normal -0 0 1
    outer loop
      vertex 5 85 6
      vertex 130 5 6
      vertex 130 85 6
    endloop
  endfacet
  facet normal 0 0 1
    outer loop
      vertex 130 5 6
      vertex 5 85 6
      vertex 5 5 6
    endloop
  endfacet
  facet normal 0 -0.707107 0.707107
    outer loop
      vertex 0 0 1
      vertex 130 5 6
      vertex 5 5 6
    endloop
  endfacet
  facet normal 0 -0.707107 0.707107
    outer loop
      vertex 130 5 6
      vertex 0 0 1
      vertex 135 0 1
    endloop
  endfacet
  facet normal 0 -1 0
    outer loop
      vertex 0 0 0
      vertex 135 0 1
      vertex 0 0 1
    endloop
  endfacet
  facet normal 0 -1 -0
    outer loop
      vertex 135 0 1
      vertex 0 0 0
      vertex 135 0 0
    endloop
  endfacet
  facet normal 0 0.707107 0.707107
    outer loop
      vertex 135 90 1
      vertex 5 85 6
      vertex 130 85 6
    endloop
  endfacet
  facet normal 0 0.707107 0.707107
    outer loop
      vertex 5 85 6
      vertex 135 90 1
      vertex 0 90 1
    endloop
  endfacet
  facet normal 0.707107 -0 0.707107
    outer loop
      vertex 130 5 6
      vertex 135 90 1
      vertex 130 85 6
    endloop
  endfacet
  facet normal 0.707107 0 0.707107
    outer loop
      vertex 135 90 1
      vertex 130 5 6
      vertex 135 0 1
    endloop
  endfacet
endsolid OpenSCAD_Model
