solid OpenSCAD_Model
  facet normal 0.923878 0.382688 0
    outer loop
      vertex 7.11612 9.11612 2
      vertex 6.75 10 0
      vertex 6.75 10 2
    endloop
  endfacet
  facet normal 0.923878 0.382688 0
    outer loop
      vertex 6.75 10 0
      vertex 7.11612 9.11612 2
      vertex 7.11612 9.11612 0
    endloop
  endfacet
  facet normal -0.38267 -0.923885 0
    outer loop
      vertex 8 11.25 0
      vertex 8.88388 10.8839 2
      vertex 8 11.25 2
    endloop
  endfacet
  facet normal -0.38267 -0.923885 -0
    outer loop
      vertex 8.88388 10.8839 2
      vertex 8 11.25 0
      vertex 8.88388 10.8839 0
    endloop
  endfacet
  facet normal -0.923881 -0.38268 0
    outer loop
      vertex 9.25 10 0
      vertex 8.88388 10.8839 2
      vertex 8.88388 10.8839 0
    endloop
  endfacet
  facet normal -0.923881 -0.38268 0
    outer loop
      vertex 8.88388 10.8839 2
      vertex 9.25 10 0
      vertex 9.25 10 2
    endloop
  endfacet
  facet normal -0.923878 0.382688 0
    outer loop
      vertex 8.88388 9.11612 0
      vertex 9.25 10 2
      vertex 9.25 10 0
    endloop
  endfacet
  facet normal -0.923878 0.382688 0
    outer loop
      vertex 9.25 10 2
      vertex 8.88388 9.11612 0
      vertex 8.88388 9.11612 2
    endloop
  endfacet
  facet normal 0.382688 0.923878 -0
    outer loop
      vertex 8 8.75 0
      vertex 7.11612 9.11612 2
      vertex 8 8.75 2
    endloop
  endfacet
  facet normal 0.382688 0.923878 0
    outer loop
      vertex 7.11612 9.11612 2
      vertex 8 8.75 0
      vertex 7.11612 9.11612 0
    endloop
  endfacet
  facet normal 0.923881 -0.38268 0
    outer loop
      vertex 6.75 10 2
      vertex 7.11612 10.8839 0
      vertex 7.11612 10.8839 2
    endloop
  endfacet
  facet normal 0.923881 -0.38268 0
    outer loop
      vertex 7.11612 10.8839 0
      vertex 6.75 10 2
      vertex 6.75 10 0
    endloop
  endfacet
  facet normal -0.382688 0.923878 0
    outer loop
      vertex 8.88388 9.11612 0
      vertex 8 8.75 2
      vertex 8.88388 9.11612 2
    endloop
  endfacet
  facet normal -0.382688 0.923878 0
    outer loop
      vertex 8 8.75 2
      vertex 8.88388 9.11612 0
      vertex 8 8.75 0
    endloop
  endfacet
  facet normal 0.38267 -0.923885 0
    outer loop
      vertex 7.11612 10.8839 0
      vertex 8 11.25 2
      vertex 7.11612 10.8839 2
    endloop
  endfacet
  facet normal 0.38267 -0.923885 0
    outer loop
      vertex 8 11.25 2
      vertex 7.11612 10.8839 0
      vertex 8 11.25 0
    endloop
  endfacet
  facet normal -0.382626 -0.923903 0
    outer loop
      vertex 128 11.25 0
      vertex 128.884 10.8839 2
      vertex 128 11.25 2
    endloop
  endfacet
  facet normal -0.382626 -0.923903 -0
    outer loop
      vertex 128.884 10.8839 2
      vertex 128 11.25 0
      vertex 128.884 10.8839 0
    endloop
  endfacet
  facet normal -0.923925 -0.382573 0
    outer loop
      vertex 129.25 10 0
      vertex 128.884 10.8839 2
      vertex 128.884 10.8839 0
    endloop
  endfacet
  facet normal -0.923925 -0.382573 0
    outer loop
      vertex 128.884 10.8839 2
      vertex 129.25 10 0
      vertex 129.25 10 2
    endloop
  endfacet
  facet normal 0.382626 -0.923903 0
    outer loop
      vertex 127.116 10.8839 0
      vertex 128 11.25 2
      vertex 127.116 10.8839 2
    endloop
  endfacet
  facet normal 0.382626 -0.923903 0
    outer loop
      vertex 128 11.25 2
      vertex 127.116 10.8839 0
      vertex 128 11.25 0
    endloop
  endfacet
  facet normal -0.923922 0.382581 0
    outer loop
      vertex 128.884 9.11612 0
      vertex 129.25 10 2
      vertex 129.25 10 0
    endloop
  endfacet
  facet normal -0.923922 0.382581 0
    outer loop
      vertex 129.25 10 2
      vertex 128.884 9.11612 0
      vertex 128.884 9.11612 2
    endloop
  endfacet
  facet normal 0.923925 -0.382573 0
    outer loop
      vertex 126.75 10 2
      vertex 127.116 10.8839 0
      vertex 127.116 10.8839 2
    endloop
  endfacet
  facet normal 0.923925 -0.382573 0
    outer loop
      vertex 127.116 10.8839 0
      vertex 126.75 10 2
      vertex 126.75 10 0
    endloop
  endfacet
  facet normal 0.382643 0.923896 -0
    outer loop
      vertex 128 8.75 0
      vertex 127.116 9.11612 2
      vertex 128 8.75 2
    endloop
  endfacet
  facet normal 0.382643 0.923896 0
    outer loop
      vertex 127.116 9.11612 2
      vertex 128 8.75 0
      vertex 127.116 9.11612 0
    endloop
  endfacet
  facet normal -0.382643 0.923896 0
    outer loop
      vertex 128.884 9.11612 0
      vertex 128 8.75 2
      vertex 128.884 9.11612 2
    endloop
  endfacet
  facet normal -0.382643 0.923896 0
    outer loop
      vertex 128 8.75 2
      vertex 128.884 9.11612 0
      vertex 128 8.75 0
    endloop
  endfacet
  facet normal 0.923922 0.382581 0
    outer loop
      vertex 127.116 9.11612 2
      vertex 126.75 10 0
      vertex 126.75 10 2
    endloop
  endfacet
  facet normal 0.923922 0.382581 0
    outer loop
      vertex 126.75 10 0
      vertex 127.116 9.11612 2
      vertex 127.116 9.11612 0
    endloop
  endfacet
  facet normal 0.382626 0.923903 -0
    outer loop
      vertex 128 73.75 0
      vertex 127.116 74.1161 2
      vertex 128 73.75 2
    endloop
  endfacet
  facet normal 0.382626 0.923903 0
    outer loop
      vertex 127.116 74.1161 2
      vertex 128 73.75 0
      vertex 127.116 74.1161 0
    endloop
  endfacet
  facet normal -0.382626 -0.923903 0
    outer loop
      vertex 128 76.25 0
      vertex 128.884 75.8839 2
      vertex 128 76.25 2
    endloop
  endfacet
  facet normal -0.382626 -0.923903 -0
    outer loop
      vertex 128.884 75.8839 2
      vertex 128 76.25 0
      vertex 128.884 75.8839 0
    endloop
  endfacet
  facet normal -0.923925 -0.382573 0
    outer loop
      vertex 129.25 75 0
      vertex 128.884 75.8839 2
      vertex 128.884 75.8839 0
    endloop
  endfacet
  facet normal -0.923925 -0.382573 0
    outer loop
      vertex 128.884 75.8839 2
      vertex 129.25 75 0
      vertex 129.25 75 2
    endloop
  endfacet
  facet normal 0.382626 -0.923903 0
    outer loop
      vertex 127.116 75.8839 0
      vertex 128 76.25 2
      vertex 127.116 75.8839 2
    endloop
  endfacet
  facet normal 0.382626 -0.923903 0
    outer loop
      vertex 128 76.25 2
      vertex 127.116 75.8839 0
      vertex 128 76.25 0
    endloop
  endfacet
  facet normal -0.382626 0.923903 0
    outer loop
      vertex 128.884 74.1161 0
      vertex 128 73.75 2
      vertex 128.884 74.1161 2
    endloop
  endfacet
  facet normal -0.382626 0.923903 0
    outer loop
      vertex 128 73.75 2
      vertex 128.884 74.1161 0
      vertex 128 73.75 0
    endloop
  endfacet
  facet normal -0.923925 0.382573 0
    outer loop
      vertex 128.884 74.1161 0
      vertex 129.25 75 2
      vertex 129.25 75 0
    endloop
  endfacet
  facet normal -0.923925 0.382573 0
    outer loop
      vertex 129.25 75 2
      vertex 128.884 74.1161 0
      vertex 128.884 74.1161 2
    endloop
  endfacet
  facet normal 0.923925 0.382573 0
    outer loop
      vertex 127.116 74.1161 2
      vertex 126.75 75 0
      vertex 126.75 75 2
    endloop
  endfacet
  facet normal 0.923925 0.382573 0
    outer loop
      vertex 126.75 75 0
      vertex 127.116 74.1161 2
      vertex 127.116 74.1161 0
    endloop
  endfacet
  facet normal 0.923925 -0.382573 0
    outer loop
      vertex 126.75 75 2
      vertex 127.116 75.8839 0
      vertex 127.116 75.8839 2
    endloop
  endfacet
  facet normal 0.923925 -0.382573 0
    outer loop
      vertex 127.116 75.8839 0
      vertex 126.75 75 2
      vertex 126.75 75 0
    endloop
  endfacet
  facet normal 0.38267 0.923885 -0
    outer loop
      vertex 8 73.75 0
      vertex 7.11612 74.1161 2
      vertex 8 73.75 2
    endloop
  endfacet
  facet normal 0.38267 0.923885 0
    outer loop
      vertex 7.11612 74.1161 2
      vertex 8 73.75 0
      vertex 7.11612 74.1161 0
    endloop
  endfacet
  facet normal -0.38267 -0.923885 0
    outer loop
      vertex 8 76.25 0
      vertex 8.88388 75.8839 2
      vertex 8 76.25 2
    endloop
  endfacet
  facet normal -0.38267 -0.923885 -0
    outer loop
      vertex 8.88388 75.8839 2
      vertex 8 76.25 0
      vertex 8.88388 75.8839 0
    endloop
  endfacet
  facet normal -0.923881 -0.38268 0
    outer loop
      vertex 9.25 75 0
      vertex 8.88388 75.8839 2
      vertex 8.88388 75.8839 0
    endloop
  endfacet
  facet normal -0.923881 -0.38268 0
    outer loop
      vertex 8.88388 75.8839 2
      vertex 9.25 75 0
      vertex 9.25 75 2
    endloop
  endfacet
  facet normal 0.38267 -0.923885 0
    outer loop
      vertex 7.11612 75.8839 0
      vertex 8 76.25 2
      vertex 7.11612 75.8839 2
    endloop
  endfacet
  facet normal 0.38267 -0.923885 0
    outer loop
      vertex 8 76.25 2
      vertex 7.11612 75.8839 0
      vertex 8 76.25 0
    endloop
  endfacet
  facet normal -0.38267 0.923885 0
    outer loop
      vertex 8.88388 74.1161 0
      vertex 8 73.75 2
      vertex 8.88388 74.1161 2
    endloop
  endfacet
  facet normal -0.38267 0.923885 0
    outer loop
      vertex 8 73.75 2
      vertex 8.88388 74.1161 0
      vertex 8 73.75 0
    endloop
  endfacet
  facet normal -0.923881 0.38268 0
    outer loop
      vertex 8.88388 74.1161 0
      vertex 9.25 75 2
      vertex 9.25 75 0
    endloop
  endfacet
  facet normal -0.923881 0.38268 0
    outer loop
      vertex 9.25 75 2
      vertex 8.88388 74.1161 0
      vertex 8.88388 74.1161 2
    endloop
  endfacet
  facet normal 0.923881 0.38268 0
    outer loop
      vertex 7.11612 74.1161 2
      vertex 6.75 75 0
      vertex 6.75 75 2
    endloop
  endfacet
  facet normal 0.923881 0.38268 0
    outer loop
      vertex 6.75 75 0
      vertex 7.11612 74.1161 2
      vertex 7.11612 74.1161 0
    endloop
  endfacet
  facet normal 0.923881 -0.38268 0
    outer loop
      vertex 6.75 75 2
      vertex 7.11612 75.8839 0
      vertex 7.11612 75.8839 2
    endloop
  endfacet
  facet normal 0.923881 -0.38268 0
    outer loop
      vertex 7.11612 75.8839 0
      vertex 6.75 75 2
      vertex 6.75 75 0
    endloop
  endfacet
  facet normal 1 -0 0
    outer loop
      vertex 135 0 2
      vertex 135 80 0
      vertex 135 80 2
    endloop
  endfacet
  facet normal 1 0 0
    outer loop
      vertex 135 80 0
      vertex 135 0 2
      vertex 135 0 0
    endloop
  endfacet
  facet normal -0 0 1
    outer loop
      vertex 8 73.75 2
      vertex 13 72 2
      vertex 8.88388 74.1161 2
    endloop
  endfacet
  facet normal 0 0 1
    outer loop
      vertex 13 72 2
      vertex 8.88388 10.8839 2
      vertex 9.25 10 2
    endloop
  endfacet
  facet normal 0 0 1
    outer loop
      vertex 8 11.25 2
      vertex 13 72 2
      vertex 8 73.75 2
    endloop
  endfacet
  facet normal 0 0 1
    outer loop
      vertex 13 72 2
      vertex 8 11.25 2
      vertex 8.88388 10.8839 2
    endloop
  endfacet
  facet normal 0 0 1
    outer loop
      vertex 7.11612 74.1161 2
      vertex 8 11.25 2
      vertex 8 73.75 2
    endloop
  endfacet
  facet normal 0 0 1
    outer loop
      vertex 7.11612 74.1161 2
      vertex 7.11612 10.8839 2
      vertex 8 11.25 2
    endloop
  endfacet
  facet normal 0 0 1
    outer loop
      vertex 0 80 2
      vertex 7.11612 74.1161 2
      vertex 6.75 75 2
    endloop
  endfacet
  facet normal 0 0 1
    outer loop
      vertex 7.11612 74.1161 2
      vertex 0 80 2
      vertex 7.11612 10.8839 2
    endloop
  endfacet
  facet normal 0 0 1
    outer loop
      vertex 128.884 10.8839 2
      vertex 135 80 2
      vertex 128.884 74.1161 2
    endloop
  endfacet
  facet normal 0 0 1
    outer loop
      vertex 135 80 2
      vertex 128.884 10.8839 2
      vertex 129.25 10 2
    endloop
  endfacet
  facet normal -0 0 1
    outer loop
      vertex 128 73.75 2
      vertex 128.884 10.8839 2
      vertex 128.884 74.1161 2
    endloop
  endfacet
  facet normal 0 0 1
    outer loop
      vertex 128 73.75 2
      vertex 128 11.25 2
      vertex 128.884 10.8839 2
    endloop
  endfacet
  facet normal 0 0 1
    outer loop
      vertex 123 72 2
      vertex 128 73.75 2
      vertex 127.116 74.1161 2
    endloop
  endfacet
  facet normal 0 0 1
    outer loop
      vertex 128 73.75 2
      vertex 123 72 2
      vertex 128 11.25 2
    endloop
  endfacet
  facet normal 0 0 1
    outer loop
      vertex 123 72 2
      vertex 127.116 74.1161 2
      vertex 126.75 75 2
    endloop
  endfacet
  facet normal 0 0 1
    outer loop
      vertex 128 11.25 2
      vertex 123 72 2
      vertex 127.116 10.8839 2
    endloop
  endfacet
  facet normal 0 0 1
    outer loop
      vertex 128.884 74.1161 2
      vertex 135 80 2
      vertex 129.25 75 2
    endloop
  endfacet
  facet normal 0 0 1
    outer loop
      vertex 135 80 2
      vertex 128.884 75.8839 2
      vertex 129.25 75 2
    endloop
  endfacet
  facet normal 0 0 1
    outer loop
      vertex 135 80 2
      vertex 128 76.25 2
      vertex 128.884 75.8839 2
    endloop
  endfacet
  facet normal 0 0 1
    outer loop
      vertex 135 80 2
      vertex 127.116 75.8839 2
      vertex 128 76.25 2
    endloop
  endfacet
  facet normal 0 0 1
    outer loop
      vertex 123 7 2
      vertex 127.116 10.8839 2
      vertex 123 72 2
    endloop
  endfacet
  facet normal 0 0 1
    outer loop
      vertex 127.116 75.8839 2
      vertex 123 72 2
      vertex 126.75 75 2
    endloop
  endfacet
  facet normal 0 0 1
    outer loop
      vertex 127.116 75.8839 2
      vertex 13 72 2
      vertex 123 72 2
    endloop
  endfacet
  facet normal 0 0 1
    outer loop
      vertex 8.88388 75.8839 2
      vertex 127.116 75.8839 2
      vertex 135 80 2
    endloop
  endfacet
  facet normal -0 0 1
    outer loop
      vertex 8.88388 74.1161 2
      vertex 13 72 2
      vertex 9.25 75 2
    endloop
  endfacet
  facet normal 0 0 1
    outer loop
      vertex 127.116 75.8839 2
      vertex 8.88388 75.8839 2
      vertex 13 72 2
    endloop
  endfacet
  facet normal 0 0 1
    outer loop
      vertex 13 72 2
      vertex 8.88388 75.8839 2
      vertex 9.25 75 2
    endloop
  endfacet
  facet normal -0 0 1
    outer loop
      vertex 0 80 2
      vertex 8.88388 75.8839 2
      vertex 135 80 2
    endloop
  endfacet
  facet normal 0 0 1
    outer loop
      vertex 0 0 2
      vertex 7.11612 10.8839 2
      vertex 0 80 2
    endloop
  endfacet
  facet normal 0 0 1
    outer loop
      vertex 7.11612 75.8839 2
      vertex 0 80 2
      vertex 6.75 75 2
    endloop
  endfacet
  facet normal 0 0 1
    outer loop
      vertex 8 76.25 2
      vertex 0 80 2
      vertex 7.11612 75.8839 2
    endloop
  endfacet
  facet normal 0 0 1
    outer loop
      vertex 8.88388 75.8839 2
      vertex 0 80 2
      vertex 8 76.25 2
    endloop
  endfacet
  facet normal 0 0 1
    outer loop
      vertex 135 80 2
      vertex 129.25 10 2
      vertex 135 0 2
    endloop
  endfacet
  facet normal -0 0 1
    outer loop
      vertex 128.884 9.11612 2
      vertex 135 0 2
      vertex 129.25 10 2
    endloop
  endfacet
  facet normal -0 0 1
    outer loop
      vertex 128 8.75 2
      vertex 135 0 2
      vertex 128.884 9.11612 2
    endloop
  endfacet
  facet normal 0 0 1
    outer loop
      vertex 123 7 2
      vertex 128 8.75 2
      vertex 127.116 9.11612 2
    endloop
  endfacet
  facet normal 0 0 1
    outer loop
      vertex 127.116 10.8839 2
      vertex 123 7 2
      vertex 126.75 10 2
    endloop
  endfacet
  facet normal 0 0 1
    outer loop
      vertex 123 7 2
      vertex 127.116 9.11612 2
      vertex 126.75 10 2
    endloop
  endfacet
  facet normal 0 0 1
    outer loop
      vertex 128 8.75 2
      vertex 123 7 2
      vertex 135 0 2
    endloop
  endfacet
  facet normal -0 0 1
    outer loop
      vertex 13 7 2
      vertex 135 0 2
      vertex 123 7 2
    endloop
  endfacet
  facet normal 0 0 1
    outer loop
      vertex 13 72 2
      vertex 9.25 10 2
      vertex 13 7 2
    endloop
  endfacet
  facet normal -0 0 1
    outer loop
      vertex 8.88388 9.11612 2
      vertex 13 7 2
      vertex 9.25 10 2
    endloop
  endfacet
  facet normal -0 0 1
    outer loop
      vertex 8 8.75 2
      vertex 13 7 2
      vertex 8.88388 9.11612 2
    endloop
  endfacet
  facet normal 0 0 1
    outer loop
      vertex 13 7 2
      vertex 0 0 2
      vertex 135 0 2
    endloop
  endfacet
  facet normal 0 0 1
    outer loop
      vertex 8 8.75 2
      vertex 0 0 2
      vertex 13 7 2
    endloop
  endfacet
  facet normal 0 0 1
    outer loop
      vertex 7.11612 9.11612 2
      vertex 0 0 2
      vertex 8 8.75 2
    endloop
  endfacet
  facet normal 0 0 1
    outer loop
      vertex 6.75 10 2
      vertex 0 0 2
      vertex 7.11612 9.11612 2
    endloop
  endfacet
  facet normal 0 0 1
    outer loop
      vertex 7.11612 10.8839 2
      vertex 0 0 2
      vertex 6.75 10 2
    endloop
  endfacet
  facet normal 0 0 -1
    outer loop
      vertex 8 11.25 0
      vertex 13 72 0
      vertex 8.88388 10.8839 0
    endloop
  endfacet
  facet normal 0 0 -1
    outer loop
      vertex 13 72 0
      vertex 8.88388 74.1161 0
      vertex 9.25 75 0
    endloop
  endfacet
  facet normal 0 0 -1
    outer loop
      vertex 8 73.75 0
      vertex 13 72 0
      vertex 8 11.25 0
    endloop
  endfacet
  facet normal 0 0 -1
    outer loop
      vertex 13 72 0
      vertex 8 73.75 0
      vertex 8.88388 74.1161 0
    endloop
  endfacet
  facet normal 0 0 -1
    outer loop
      vertex 7.11612 10.8839 0
      vertex 8 73.75 0
      vertex 8 11.25 0
    endloop
  endfacet
  facet normal 0 0 -1
    outer loop
      vertex 7.11612 10.8839 0
      vertex 7.11612 74.1161 0
      vertex 8 73.75 0
    endloop
  endfacet
  facet normal 0 0 -1
    outer loop
      vertex 0 0 0
      vertex 7.11612 10.8839 0
      vertex 6.75 10 0
    endloop
  endfacet
  facet normal 0 0 -1
    outer loop
      vertex 7.11612 10.8839 0
      vertex 0 80 0
      vertex 7.11612 74.1161 0
    endloop
  endfacet
  facet normal 0 0 -1
    outer loop
      vertex 128.884 74.1161 0
      vertex 135 80 0
      vertex 128.884 10.8839 0
    endloop
  endfacet
  facet normal 0 0 -1
    outer loop
      vertex 135 80 0
      vertex 128.884 74.1161 0
      vertex 129.25 75 0
    endloop
  endfacet
  facet normal 0 0 -1
    outer loop
      vertex 128 11.25 0
      vertex 128.884 74.1161 0
      vertex 128.884 10.8839 0
    endloop
  endfacet
  facet normal 0 0 -1
    outer loop
      vertex 128 11.25 0
      vertex 128 73.75 0
      vertex 128.884 74.1161 0
    endloop
  endfacet
  facet normal 0 0 -1
    outer loop
      vertex 123 72 0
      vertex 128 11.25 0
      vertex 127.116 10.8839 0
    endloop
  endfacet
  facet normal 0 0 -1
    outer loop
      vertex 128 11.25 0
      vertex 123 72 0
      vertex 128 73.75 0
    endloop
  endfacet
  facet normal 0 0 -1
    outer loop
      vertex 123 7 0
      vertex 127.116 10.8839 0
      vertex 126.75 10 0
    endloop
  endfacet
  facet normal -0 0 -1
    outer loop
      vertex 128 73.75 0
      vertex 123 72 0
      vertex 127.116 74.1161 0
    endloop
  endfacet
  facet normal 0 0 -1
    outer loop
      vertex 128.884 10.8839 0
      vertex 135 0 0
      vertex 129.25 10 0
    endloop
  endfacet
  facet normal 0 0 -1
    outer loop
      vertex 135 0 0
      vertex 128.884 9.11612 0
      vertex 129.25 10 0
    endloop
  endfacet
  facet normal 0 0 -1
    outer loop
      vertex 135 0 0
      vertex 128 8.75 0
      vertex 128.884 9.11612 0
    endloop
  endfacet
  facet normal 0 0 -1
    outer loop
      vertex 123 7 0
      vertex 128 8.75 0
      vertex 135 0 0
    endloop
  endfacet
  facet normal -0 0 -1
    outer loop
      vertex 127.116 10.8839 0
      vertex 123 7 0
      vertex 123 72 0
    endloop
  endfacet
  facet normal -0 0 -1
    outer loop
      vertex 127.116 9.11612 0
      vertex 123 7 0
      vertex 126.75 10 0
    endloop
  endfacet
  facet normal -0 0 -1
    outer loop
      vertex 128 8.75 0
      vertex 123 7 0
      vertex 127.116 9.11612 0
    endloop
  endfacet
  facet normal 0 0 -1
    outer loop
      vertex 135 0 0
      vertex 13 7 0
      vertex 123 7 0
    endloop
  endfacet
  facet normal 0 0 -1
    outer loop
      vertex 8.88388 10.8839 0
      vertex 13 7 0
      vertex 9.25 10 0
    endloop
  endfacet
  facet normal 0 0 -1
    outer loop
      vertex 13 7 0
      vertex 8.88388 9.11612 0
      vertex 9.25 10 0
    endloop
  endfacet
  facet normal 0 0 -1
    outer loop
      vertex 13 7 0
      vertex 8 8.75 0
      vertex 8.88388 9.11612 0
    endloop
  endfacet
  facet normal -0 0 -1
    outer loop
      vertex 7.11612 10.8839 0
      vertex 0 0 0
      vertex 0 80 0
    endloop
  endfacet
  facet normal -0 0 -1
    outer loop
      vertex 7.11612 9.11612 0
      vertex 0 0 0
      vertex 6.75 10 0
    endloop
  endfacet
  facet normal -0 0 -1
    outer loop
      vertex 8 8.75 0
      vertex 0 0 0
      vertex 7.11612 9.11612 0
    endloop
  endfacet
  facet normal -0 0 -1
    outer loop
      vertex 13 7 0
      vertex 0 0 0
      vertex 8 8.75 0
    endloop
  endfacet
  facet normal 0 0 -1
    outer loop
      vertex 0 0 0
      vertex 13 7 0
      vertex 135 0 0
    endloop
  endfacet
  facet normal 0 0 -1
    outer loop
      vertex 135 0 0
      vertex 128.884 10.8839 0
      vertex 135 80 0
    endloop
  endfacet
  facet normal 0 0 -1
    outer loop
      vertex 128.884 75.8839 0
      vertex 135 80 0
      vertex 129.25 75 0
    endloop
  endfacet
  facet normal 0 0 -1
    outer loop
      vertex 128 76.25 0
      vertex 135 80 0
      vertex 128.884 75.8839 0
    endloop
  endfacet
  facet normal 0 0 -1
    outer loop
      vertex 127.116 75.8839 0
      vertex 135 80 0
      vertex 128 76.25 0
    endloop
  endfacet
  facet normal -0 0 -1
    outer loop
      vertex 127.116 74.1161 0
      vertex 123 72 0
      vertex 126.75 75 0
    endloop
  endfacet
  facet normal 0 0 -1
    outer loop
      vertex 123 72 0
      vertex 127.116 75.8839 0
      vertex 126.75 75 0
    endloop
  endfacet
  facet normal 0 0 -1
    outer loop
      vertex 13 72 0
      vertex 127.116 75.8839 0
      vertex 123 72 0
    endloop
  endfacet
  facet normal 0 0 -1
    outer loop
      vertex 8.88388 75.8839 0
      vertex 127.116 75.8839 0
      vertex 13 72 0
    endloop
  endfacet
  facet normal 0 0 -1
    outer loop
      vertex 13 7 0
      vertex 8.88388 10.8839 0
      vertex 13 72 0
    endloop
  endfacet
  facet normal 0 0 -1
    outer loop
      vertex 8.88388 75.8839 0
      vertex 13 72 0
      vertex 9.25 75 0
    endloop
  endfacet
  facet normal 0 0 -1
    outer loop
      vertex 127.116 75.8839 0
      vertex 8.88388 75.8839 0
      vertex 135 80 0
    endloop
  endfacet
  facet normal 0 0 -1
    outer loop
      vertex 0 80 0
      vertex 8.88388 75.8839 0
      vertex 8 76.25 0
    endloop
  endfacet
  facet normal 0 0 -1
    outer loop
      vertex 8.88388 75.8839 0
      vertex 0 80 0
      vertex 135 80 0
    endloop
  endfacet
  facet normal 0 0 -1
    outer loop
      vertex 7.11612 75.8839 0
      vertex 0 80 0
      vertex 8 76.25 0
    endloop
  endfacet
  facet normal 0 0 -1
    outer loop
      vertex 6.75 75 0
      vertex 0 80 0
      vertex 7.11612 75.8839 0
    endloop
  endfacet
  facet normal 0 0 -1
    outer loop
      vertex 7.11612 74.1161 0
      vertex 0 80 0
      vertex 6.75 75 0
    endloop
  endfacet
  facet normal -1 0 0
    outer loop
      vertex 0 0 0
      vertex 0 80 2
      vertex 0 80 0
    endloop
  endfacet
  facet normal -1 -0 0
    outer loop
      vertex 0 80 2
      vertex 0 0 0
      vertex 0 0 2
    endloop
  endfacet
  facet normal 0 1 -0
    outer loop
      vertex 135 80 0
      vertex 0 80 2
      vertex 135 80 2
    endloop
  endfacet
  facet normal 0 1 0
    outer loop
      vertex 0 80 2
      vertex 135 80 0
      vertex 0 80 0
    endloop
  endfacet
  facet normal 0 -1 0
    outer loop
      vertex 0 0 0
      vertex 135 0 2
      vertex 0 0 2
    endloop
  endfacet
  facet normal 0 -1 -0
    outer loop
      vertex 135 0 2
      vertex 0 0 0
      vertex 135 0 0
    endloop
  endfacet
  facet normal -1 0 0
    outer loop
      vertex 123 7 0
      vertex 123 72 2
      vertex 123 72 0
    endloop
  endfacet
  facet normal -1 -0 0
    outer loop
      vertex 123 72 2
      vertex 123 7 0
      vertex 123 7 2
    endloop
  endfacet
  facet normal 1 -0 0
    outer loop
      vertex 13 7 2
      vertex 13 72 0
      vertex 13 72 2
    endloop
  endfacet
  facet normal 1 0 0
    outer loop
      vertex 13 72 0
      vertex 13 7 2
      vertex 13 7 0
    endloop
  endfacet
  facet normal 0 -1 0
    outer loop
      vertex 13 72 0
      vertex 123 72 2
      vertex 13 72 2
    endloop
  endfacet
  facet normal 0 -1 -0
    outer loop
      vertex 123 72 2
      vertex 13 72 0
      vertex 123 72 0
    endloop
  endfacet
  facet normal 0 1 -0
    outer loop
      vertex 123 7 0
      vertex 13 7 2
      vertex 123 7 2
    endloop
  endfacet
  facet normal 0 1 0
    outer loop
      vertex 13 7 2
      vertex 123 7 0
      vertex 13 7 0
    endloop
  endfacet
endsolid OpenSCAD_Model
