solid OpenSCAD_Model
  facet normal -1 0 0
    outer loop
      vertex 18 3 2
      vertex 18 18 12
      vertex 18 18 2
    endloop
  endfacet
  facet normal -1 -0 0
    outer loop
      vertex 18 18 12
      vertex 18 3 2
      vertex 18 3 12
    endloop
  endfacet
  facet normal -0 0 1
    outer loop
      vertex 3 18 2
      vertex 18 3 2
      vertex 18 18 2
    endloop
  endfacet
  facet normal 0 0 1
    outer loop
      vertex 18 3 2
      vertex 3 18 2
      vertex 3 3 2
    endloop
  endfacet
  facet normal 1 -0 0
    outer loop
      vertex 3 3 12
      vertex 3 18 2
      vertex 3 18 12
    endloop
  endfacet
  facet normal 1 0 0
    outer loop
      vertex 3 18 2
      vertex 3 3 12
      vertex 3 3 2
    endloop
  endfacet
  facet normal 0 -1 0
    outer loop
      vertex 3 18 2
      vertex 18 18 12
      vertex 3 18 12
    endloop
  endfacet
  facet normal 0 -1 -0
    outer loop
      vertex 18 18 12
      vertex 3 18 2
      vertex 18 18 2
    endloop
  endfacet
  facet normal 0 1 -0
    outer loop
      vertex 18 3 2
      vertex 3 3 12
      vertex 18 3 12
    endloop
  endfacet
  facet normal 0 1 0
    outer loop
      vertex 3 3 12
      vertex 18 3 2
      vertex 3 3 2
    endloop
  endfacet
  facet normal -1 0 0
    outer loop
      vertex 36 3 2
      vertex 36 18 12
      vertex 36 18 2
    endloop
  endfacet
  facet normal -1 -0 0
    outer loop
      vertex 36 18 12
      vertex 36 3 2
      vertex 36 3 12
    endloop
  endfacet
  facet normal -0 0 1
    outer loop
      vertex 21 18 2
      vertex 36 3 2
      vertex 36 18 2
    endloop
  endfacet
  facet normal 0 0 1
    outer loop
      vertex 36 3 2
      vertex 21 18 2
      vertex 21 3 2
    endloop
  endfacet
  facet normal 1 -0 0
    outer loop
      vertex 21 3 12
      vertex 21 18 2
      vertex 21 18 12
    endloop
  endfacet
  facet normal 1 0 0
    outer loop
      vertex 21 18 2
      vertex 21 3 12
      vertex 21 3 2
    endloop
  endfacet
  facet normal 0 -1 0
    outer loop
      vertex 21 18 2
      vertex 36 18 12
      vertex 21 18 12
    endloop
  endfacet
  facet normal 0 -1 -0
    outer loop
      vertex 36 18 12
      vertex 21 18 2
      vertex 36 18 2
    endloop
  endfacet
  facet normal 0 1 -0
    outer loop
      vertex 36 3 2
      vertex 21 3 12
      vertex 36 3 12
    endloop
  endfacet
  facet normal 0 1 0
    outer loop
      vertex 21 3 12
      vertex 36 3 2
      vertex 21 3 2
    endloop
  endfacet
  facet normal -1 0 0
    outer loop
      vertex 54 3 2
      vertex 54 18 12
      vertex 54 18 2
    endloop
  endfacet
  facet normal -1 -0 0
    outer loop
      vertex 54 18 12
      vertex 54 3 2
      vertex 54 3 12
    endloop
  endfacet
  facet normal -0 0 1
    outer loop
      vertex 39 18 2
      vertex 54 3 2
      vertex 54 18 2
    endloop
  endfacet
  facet normal 0 0 1
    outer loop
      vertex 54 3 2
      vertex 39 18 2
      vertex 39 3 2
    endloop
  endfacet
  facet normal 1 -0 0
    outer loop
      vertex 39 3 12
      vertex 39 18 2
      vertex 39 18 12
    endloop
  endfacet
  facet normal 1 0 0
    outer loop
      vertex 39 18 2
      vertex 39 3 12
      vertex 39 3 2
    endloop
  endfacet
  facet normal 0 -1 0
    outer loop
      vertex 39 18 2
      vertex 54 18 12
      vertex 39 18 12
    endloop
  endfacet
  facet normal 0 -1 -0
    outer loop
      vertex 54 18 12
      vertex 39 18 2
      vertex 54 18 2
    endloop
  endfacet
  facet normal 0 1 -0
    outer loop
      vertex 54 3 2
      vertex 39 3 12
      vertex 54 3 12
    endloop
  endfacet
  facet normal 0 1 0
    outer loop
      vertex 39 3 12
      vertex 54 3 2
      vertex 39 3 2
    endloop
  endfacet
  facet normal -1 0 0
    outer loop
      vertex 18 20 2
      vertex 18 35 12
      vertex 18 35 2
    endloop
  endfacet
  facet normal -1 -0 0
    outer loop
      vertex 18 35 12
      vertex 18 20 2
      vertex 18 20 12
    endloop
  endfacet
  facet normal -0 0 1
    outer loop
      vertex 3 35 2
      vertex 18 20 2
      vertex 18 35 2
    endloop
  endfacet
  facet normal 0 0 1
    outer loop
      vertex 18 20 2
      vertex 3 35 2
      vertex 3 20 2
    endloop
  endfacet
  facet normal 1 -0 0
    outer loop
      vertex 3 20 12
      vertex 3 35 2
      vertex 3 35 12
    endloop
  endfacet
  facet normal 1 0 0
    outer loop
      vertex 3 35 2
      vertex 3 20 12
      vertex 3 20 2
    endloop
  endfacet
  facet normal 0 -1 0
    outer loop
      vertex 3 35 2
      vertex 18 35 12
      vertex 3 35 12
    endloop
  endfacet
  facet normal 0 -1 -0
    outer loop
      vertex 18 35 12
      vertex 3 35 2
      vertex 18 35 2
    endloop
  endfacet
  facet normal 0 1 -0
    outer loop
      vertex 18 20 2
      vertex 3 20 12
      vertex 18 20 12
    endloop
  endfacet
  facet normal 0 1 0
    outer loop
      vertex 3 20 12
      vertex 18 20 2
      vertex 3 20 2
    endloop
  endfacet
  facet normal -1 0 0
    outer loop
      vertex 36 20 2
      vertex 36 35 12
      vertex 36 35 2
    endloop
  endfacet
  facet normal -1 -0 0
    outer loop
      vertex 36 35 12
      vertex 36 20 2
      vertex 36 20 12
    endloop
  endfacet
  facet normal -0 0 1
    outer loop
      vertex 21 35 2
      vertex 36 20 2
      vertex 36 35 2
    endloop
  endfacet
  facet normal 0 0 1
    outer loop
      vertex 36 20 2
      vertex 21 35 2
      vertex 21 20 2
    endloop
  endfacet
  facet normal 1 -0 0
    outer loop
      vertex 21 20 12
      vertex 21 35 2
      vertex 21 35 12
    endloop
  endfacet
  facet normal 1 0 0
    outer loop
      vertex 21 35 2
      vertex 21 20 12
      vertex 21 20 2
    endloop
  endfacet
  facet normal 0 -1 0
    outer loop
      vertex 21 35 2
      vertex 36 35 12
      vertex 21 35 12
    endloop
  endfacet
  facet normal 0 -1 -0
    outer loop
      vertex 36 35 12
      vertex 21 35 2
      vertex 36 35 2
    endloop
  endfacet
  facet normal 0 1 -0
    outer loop
      vertex 36 20 2
      vertex 21 20 12
      vertex 36 20 12
    endloop
  endfacet
  facet normal 0 1 0
    outer loop
      vertex 21 20 12
      vertex 36 20 2
      vertex 21 20 2
    endloop
  endfacet
  facet normal -1 0 0
    outer loop
      vertex 54 20 2
      vertex 54 35 12
      vertex 54 35 2
    endloop
  endfacet
  facet normal -1 -0 0
    outer loop
      vertex 54 35 12
      vertex 54 20 2
      vertex 54 20 12
    endloop
  endfacet
  facet normal -0 0 1
    outer loop
      vertex 39 35 2
      vertex 54 20 2
      vertex 54 35 2
    endloop
  endfacet
  facet normal 0 0 1
    outer loop
      vertex 54 20 2
      vertex 39 35 2
      vertex 39 20 2
    endloop
  endfacet
  facet normal 1 -0 0
    outer loop
      vertex 39 20 12
      vertex 39 35 2
      vertex 39 35 12
    endloop
  endfacet
  facet normal 1 0 0
    outer loop
      vertex 39 35 2
      vertex 39 20 12
      vertex 39 20 2
    endloop
  endfacet
  facet normal 0 -1 0
    outer loop
      vertex 39 35 2
      vertex 54 35 12
      vertex 39 35 12
    endloop
  endfacet
  facet normal 0 -1 -0
    outer loop
      vertex 54 35 12
      vertex 39 35 2
      vertex 54 35 2
    endloop
  endfacet
  facet normal 0 1 -0
    outer loop
      vertex 54 20 2
      vertex 39 20 12
      vertex 54 20 12
    endloop
  endfacet
  facet normal 0 1 0
    outer loop
      vertex 39 20 12
      vertex 54 20 2
      vertex 39 20 2
    endloop
  endfacet
  facet normal -1 0 0
    outer loop
      vertex 18 37 2
      vertex 18 52 12
      vertex 18 52 2
    endloop
  endfacet
  facet normal -1 -0 0
    outer loop
      vertex 18 52 12
      vertex 18 37 2
      vertex 18 37 12
    endloop
  endfacet
  facet normal -0 0 1
    outer loop
      vertex 3 52 2
      vertex 18 37 2
      vertex 18 52 2
    endloop
  endfacet
  facet normal 0 0 1
    outer loop
      vertex 18 37 2
      vertex 3 52 2
      vertex 3 37 2
    endloop
  endfacet
  facet normal 1 -0 0
    outer loop
      vertex 3 37 12
      vertex 3 52 2
      vertex 3 52 12
    endloop
  endfacet
  facet normal 1 0 0
    outer loop
      vertex 3 52 2
      vertex 3 37 12
      vertex 3 37 2
    endloop
  endfacet
  facet normal 0 -1 0
    outer loop
      vertex 3 52 2
      vertex 18 52 12
      vertex 3 52 12
    endloop
  endfacet
  facet normal 0 -1 -0
    outer loop
      vertex 18 52 12
      vertex 3 52 2
      vertex 18 52 2
    endloop
  endfacet
  facet normal 0 1 -0
    outer loop
      vertex 18 37 2
      vertex 3 37 12
      vertex 18 37 12
    endloop
  endfacet
  facet normal 0 1 0
    outer loop
      vertex 3 37 12
      vertex 18 37 2
      vertex 3 37 2
    endloop
  endfacet
  facet normal -1 0 0
    outer loop
      vertex 36 37 2
      vertex 36 52 12
      vertex 36 52 2
    endloop
  endfacet
  facet normal -1 -0 0
    outer loop
      vertex 36 52 12
      vertex 36 37 2
      vertex 36 37 12
    endloop
  endfacet
  facet normal -0 0 1
    outer loop
      vertex 21 52 2
      vertex 36 37 2
      vertex 36 52 2
    endloop
  endfacet
  facet normal 0 0 1
    outer loop
      vertex 36 37 2
      vertex 21 52 2
      vertex 21 37 2
    endloop
  endfacet
  facet normal 1 -0 0
    outer loop
      vertex 21 37 12
      vertex 21 52 2
      vertex 21 52 12
    endloop
  endfacet
  facet normal 1 0 0
    outer loop
      vertex 21 52 2
      vertex 21 37 12
      vertex 21 37 2
    endloop
  endfacet
  facet normal 0 -1 0
    outer loop
      vertex 21 52 2
      vertex 36 52 12
      vertex 21 52 12
    endloop
  endfacet
  facet normal 0 -1 -0
    outer loop
      vertex 36 52 12
      vertex 21 52 2
      vertex 36 52 2
    endloop
  endfacet
  facet normal 0 1 -0
    outer loop
      vertex 36 37 2
      vertex 21 37 12
      vertex 36 37 12
    endloop
  endfacet
  facet normal 0 1 0
    outer loop
      vertex 21 37 12
      vertex 36 37 2
      vertex 21 37 2
    endloop
  endfacet
  facet normal -1 0 0
    outer loop
      vertex 54 37 2
      vertex 54 52 12
      vertex 54 52 2
    endloop
  endfacet
  facet normal -1 -0 0
    outer loop
      vertex 54 52 12
      vertex 54 37 2
      vertex 54 37 12
    endloop
  endfacet
  facet normal -0 0 1
    outer loop
      vertex 39 52 2
      vertex 54 37 2
      vertex 54 52 2
    endloop
  endfacet
  facet normal 0 0 1
    outer loop
      vertex 54 37 2
      vertex 39 52 2
      vertex 39 37 2
    endloop
  endfacet
  facet normal 1 -0 0
    outer loop
      vertex 39 37 12
      vertex 39 52 2
      vertex 39 52 12
    endloop
  endfacet
  facet normal 1 0 0
    outer loop
      vertex 39 52 2
      vertex 39 37 12
      vertex 39 37 2
    endloop
  endfacet
  facet normal 0 -1 0
    outer loop
      vertex 39 52 2
      vertex 54 52 12
      vertex 39 52 12
    endloop
  endfacet
  facet normal 0 -1 -0
    outer loop
      vertex 54 52 12
      vertex 39 52 2
      vertex 54 52 2
    endloop
  endfacet
  facet normal 0 1 -0
    outer loop
      vertex 54 37 2
      vertex 39 37 12
      vertex 54 37 12
    endloop
  endfacet
  facet normal 0 1 0
    outer loop
      vertex 39 37 12
      vertex 54 37 2
      vertex 39 37 2
    endloop
  endfacet
  facet normal 1 -0 0
    outer loop
      vertex 110 0 12
      vertex 110 133 0
      vertex 110 133 12
    endloop
  endfacet
  facet normal 1 0 0
    outer loop
      vertex 110 133 0
      vertex 110 0 12
      vertex 110 0 0
    endloop
  endfacet
  facet normal -0 0 1
    outer loop
      vertex 3 20 12
      vertex 18 18 12
      vertex 18 20 12
    endloop
  endfacet
  facet normal 0 0 1
    outer loop
      vertex 18 18 12
      vertex 3 20 12
      vertex 3 18 12
    endloop
  endfacet
  facet normal -0 0 1
    outer loop
      vertex 3 37 12
      vertex 18 35 12
      vertex 18 37 12
    endloop
  endfacet
  facet normal 0 0 1
    outer loop
      vertex 18 35 12
      vertex 3 37 12
      vertex 3 35 12
    endloop
  endfacet
  facet normal -0 0 1
    outer loop
      vertex 21 20 12
      vertex 36 18 12
      vertex 36 20 12
    endloop
  endfacet
  facet normal 0 0 1
    outer loop
      vertex 36 18 12
      vertex 21 20 12
      vertex 21 18 12
    endloop
  endfacet
  facet normal -0 0 1
    outer loop
      vertex 21 37 12
      vertex 36 35 12
      vertex 36 37 12
    endloop
  endfacet
  facet normal 0 0 1
    outer loop
      vertex 36 35 12
      vertex 21 37 12
      vertex 21 35 12
    endloop
  endfacet
  facet normal -0 0 1
    outer loop
      vertex 39 20 12
      vertex 54 18 12
      vertex 54 20 12
    endloop
  endfacet
  facet normal 0 0 1
    outer loop
      vertex 54 18 12
      vertex 39 20 12
      vertex 39 18 12
    endloop
  endfacet
  facet normal -0 0 1
    outer loop
      vertex 39 37 12
      vertex 54 35 12
      vertex 54 37 12
    endloop
  endfacet
  facet normal 0 0 1
    outer loop
      vertex 54 35 12
      vertex 39 37 12
      vertex 39 35 12
    endloop
  endfacet
  facet normal -0 0 1
    outer loop
      vertex 57 28.5 12
      vertex 107 26.5 12
      vertex 107 28.5 12
    endloop
  endfacet
  facet normal 0 0 1
    outer loop
      vertex 107 26.5 12
      vertex 57 28.5 12
      vertex 57 26.5 12
    endloop
  endfacet
  facet normal -0 0 1
    outer loop
      vertex 57 60 12
      vertex 107 52 12
      vertex 107 60 12
    endloop
  endfacet
  facet normal 0 0 1
    outer loop
      vertex 107 52 12
      vertex 57 60 12
      vertex 57 52 12
    endloop
  endfacet
  facet normal 0 0 1
    outer loop
      vertex 107 60 12
      vertex 110 133 12
      vertex 107 130 12
    endloop
  endfacet
  facet normal 0 0 1
    outer loop
      vertex 110 133 12
      vertex 57 130 12
      vertex 107 130 12
    endloop
  endfacet
  facet normal 0 0 1
    outer loop
      vertex 53 60 12
      vertex 57 60 12
      vertex 57 130 12
    endloop
  endfacet
  facet normal 0 -0 1
    outer loop
      vertex 54 52 12
      vertex 57 60 12
      vertex 53 60 12
    endloop
  endfacet
  facet normal 0 0 1
    outer loop
      vertex 54 37 12
      vertex 57 52 12
      vertex 54 52 12
    endloop
  endfacet
  facet normal 0 0 1
    outer loop
      vertex 57 52 12
      vertex 54 37 12
      vertex 57 28.5 12
    endloop
  endfacet
  facet normal -0 0 1
    outer loop
      vertex 54 35 12
      vertex 57 28.5 12
      vertex 54 37 12
    endloop
  endfacet
  facet normal 0 0 1
    outer loop
      vertex 53 60 12
      vertex 57 130 12
      vertex 53 130 12
    endloop
  endfacet
  facet normal 0 0 1
    outer loop
      vertex 110 133 12
      vertex 53 130 12
      vertex 57 130 12
    endloop
  endfacet
  facet normal -0 0 1
    outer loop
      vertex 0 133 12
      vertex 53 130 12
      vertex 110 133 12
    endloop
  endfacet
  facet normal 0 0 1
    outer loop
      vertex 0 133 12
      vertex 3 60 12
      vertex 3 130 12
    endloop
  endfacet
  facet normal 0 0 1
    outer loop
      vertex 0 0 12
      vertex 3 60 12
      vertex 0 133 12
    endloop
  endfacet
  facet normal 0 0 1
    outer loop
      vertex 3 60 12
      vertex 0 0 12
      vertex 3 52 12
    endloop
  endfacet
  facet normal 0 0 1
    outer loop
      vertex 3 52 12
      vertex 0 0 12
      vertex 3 37 12
    endloop
  endfacet
  facet normal 0 0 1
    outer loop
      vertex 3 37 12
      vertex 0 0 12
      vertex 3 35 12
    endloop
  endfacet
  facet normal 0 0 1
    outer loop
      vertex 3 35 12
      vertex 0 0 12
      vertex 3 20 12
    endloop
  endfacet
  facet normal 0 0 1
    outer loop
      vertex 3 20 12
      vertex 0 0 12
      vertex 3 18 12
    endloop
  endfacet
  facet normal 0 0 1
    outer loop
      vertex 53 130 12
      vertex 0 133 12
      vertex 3 130 12
    endloop
  endfacet
  facet normal 0 0 1
    outer loop
      vertex 110 133 12
      vertex 107 60 12
      vertex 110 0 12
    endloop
  endfacet
  facet normal -0 0 1
    outer loop
      vertex 107 52 12
      vertex 110 0 12
      vertex 107 60 12
    endloop
  endfacet
  facet normal -0 0 1
    outer loop
      vertex 107 28.5 12
      vertex 110 0 12
      vertex 107 52 12
    endloop
  endfacet
  facet normal -0 0 1
    outer loop
      vertex 107 26.5 12
      vertex 110 0 12
      vertex 107 28.5 12
    endloop
  endfacet
  facet normal -0 0 1
    outer loop
      vertex 107 3 12
      vertex 110 0 12
      vertex 107 26.5 12
    endloop
  endfacet
  facet normal -0 0 1
    outer loop
      vertex 57 3 12
      vertex 110 0 12
      vertex 107 3 12
    endloop
  endfacet
  facet normal 0 0 1
    outer loop
      vertex 57 28.5 12
      vertex 54 35 12
      vertex 57 26.5 12
    endloop
  endfacet
  facet normal 0 0 1
    outer loop
      vertex 54 20 12
      vertex 57 26.5 12
      vertex 54 35 12
    endloop
  endfacet
  facet normal 0 0 1
    outer loop
      vertex 54 18 12
      vertex 57 26.5 12
      vertex 54 20 12
    endloop
  endfacet
  facet normal 0 0 1
    outer loop
      vertex 57 26.5 12
      vertex 54 18 12
      vertex 57 3 12
    endloop
  endfacet
  facet normal 0 0 1
    outer loop
      vertex 54 3 12
      vertex 57 3 12
      vertex 54 18 12
    endloop
  endfacet
  facet normal -0 0 1
    outer loop
      vertex 54 3 12
      vertex 110 0 12
      vertex 57 3 12
    endloop
  endfacet
  facet normal 0 0 1
    outer loop
      vertex 0 0 12
      vertex 54 3 12
      vertex 39 3 12
    endloop
  endfacet
  facet normal 0 0 1
    outer loop
      vertex 36 20 12
      vertex 39 20 12
      vertex 36 35 12
    endloop
  endfacet
  facet normal 0 0 1
    outer loop
      vertex 39 20 12
      vertex 36 20 12
      vertex 39 18 12
    endloop
  endfacet
  facet normal 0 0 1
    outer loop
      vertex 36 18 12
      vertex 39 18 12
      vertex 36 20 12
    endloop
  endfacet
  facet normal 0 0 1
    outer loop
      vertex 39 18 12
      vertex 36 18 12
      vertex 39 3 12
    endloop
  endfacet
  facet normal 0 0 1
    outer loop
      vertex 36 3 12
      vertex 39 3 12
      vertex 36 18 12
    endloop
  endfacet
  facet normal 0 0 1
    outer loop
      vertex 0 0 12
      vertex 39 3 12
      vertex 36 3 12
    endloop
  endfacet
  facet normal 0 0 1
    outer loop
      vertex 0 0 12
      vertex 36 3 12
      vertex 21 3 12
    endloop
  endfacet
  facet normal 0 0 1
    outer loop
      vertex 18 20 12
      vertex 21 20 12
      vertex 18 35 12
    endloop
  endfacet
  facet normal 0 0 1
    outer loop
      vertex 21 20 12
      vertex 18 20 12
      vertex 21 18 12
    endloop
  endfacet
  facet normal 0 0 1
    outer loop
      vertex 18 18 12
      vertex 21 18 12
      vertex 18 20 12
    endloop
  endfacet
  facet normal 0 0 1
    outer loop
      vertex 21 18 12
      vertex 18 18 12
      vertex 21 3 12
    endloop
  endfacet
  facet normal 0 0 1
    outer loop
      vertex 18 3 12
      vertex 21 3 12
      vertex 18 18 12
    endloop
  endfacet
  facet normal 0 0 1
    outer loop
      vertex 0 0 12
      vertex 21 3 12
      vertex 18 3 12
    endloop
  endfacet
  facet normal 0 0 1
    outer loop
      vertex 0 0 12
      vertex 18 3 12
      vertex 3 3 12
    endloop
  endfacet
  facet normal 0 0 1
    outer loop
      vertex 54 3 12
      vertex 0 0 12
      vertex 110 0 12
    endloop
  endfacet
  facet normal 0 0 1
    outer loop
      vertex 3 18 12
      vertex 0 0 12
      vertex 3 3 12
    endloop
  endfacet
  facet normal 0 0 1
    outer loop
      vertex 57 60 12
      vertex 54 52 12
      vertex 57 52 12
    endloop
  endfacet
  facet normal 0 0 1
    outer loop
      vertex 53 60 12
      vertex 39 52 12
      vertex 54 52 12
    endloop
  endfacet
  facet normal -0 0 1
    outer loop
      vertex 36 52 12
      vertex 39 37 12
      vertex 39 52 12
    endloop
  endfacet
  facet normal 0 0 1
    outer loop
      vertex 36 37 12
      vertex 39 37 12
      vertex 36 52 12
    endloop
  endfacet
  facet normal 0 0 1
    outer loop
      vertex 39 37 12
      vertex 36 37 12
      vertex 39 35 12
    endloop
  endfacet
  facet normal 0 0 1
    outer loop
      vertex 36 35 12
      vertex 39 35 12
      vertex 36 37 12
    endloop
  endfacet
  facet normal 0 0 1
    outer loop
      vertex 39 35 12
      vertex 36 35 12
      vertex 39 20 12
    endloop
  endfacet
  facet normal 0 0 1
    outer loop
      vertex 53 60 12
      vertex 36 52 12
      vertex 39 52 12
    endloop
  endfacet
  facet normal 0 0 1
    outer loop
      vertex 53 60 12
      vertex 21 52 12
      vertex 36 52 12
    endloop
  endfacet
  facet normal -0 0 1
    outer loop
      vertex 18 52 12
      vertex 21 37 12
      vertex 21 52 12
    endloop
  endfacet
  facet normal 0 0 1
    outer loop
      vertex 18 37 12
      vertex 21 37 12
      vertex 18 52 12
    endloop
  endfacet
  facet normal 0 0 1
    outer loop
      vertex 21 37 12
      vertex 18 37 12
      vertex 21 35 12
    endloop
  endfacet
  facet normal 0 0 1
    outer loop
      vertex 18 35 12
      vertex 21 35 12
      vertex 18 37 12
    endloop
  endfacet
  facet normal 0 0 1
    outer loop
      vertex 21 35 12
      vertex 18 35 12
      vertex 21 20 12
    endloop
  endfacet
  facet normal -0 0 1
    outer loop
      vertex 3 60 12
      vertex 21 52 12
      vertex 53 60 12
    endloop
  endfacet
  facet normal 0 0 1
    outer loop
      vertex 21 52 12
      vertex 3 60 12
      vertex 18 52 12
    endloop
  endfacet
  facet normal 0 0 1
    outer loop
      vertex 18 52 12
      vertex 3 60 12
      vertex 3 52 12
    endloop
  endfacet
  facet normal 0 0 -1
    outer loop
      vertex 0 0 0
      vertex 110 133 0
      vertex 110 0 0
    endloop
  endfacet
  facet normal -0 0 -1
    outer loop
      vertex 110 133 0
      vertex 0 0 0
      vertex 0 133 0
    endloop
  endfacet
  facet normal -1 0 0
    outer loop
      vertex 0 0 0
      vertex 0 133 12
      vertex 0 133 0
    endloop
  endfacet
  facet normal -1 -0 0
    outer loop
      vertex 0 133 12
      vertex 0 0 0
      vertex 0 0 12
    endloop
  endfacet
  facet normal 0 1 -0
    outer loop
      vertex 110 133 0
      vertex 0 133 12
      vertex 110 133 12
    endloop
  endfacet
  facet normal 0 1 0
    outer loop
      vertex 0 133 12
      vertex 110 133 0
      vertex 0 133 0
    endloop
  endfacet
  facet normal 0 -1 0
    outer loop
      vertex 0 0 0
      vertex 110 0 12
      vertex 0 0 12
    endloop
  endfacet
  facet normal 0 -1 -0
    outer loop
      vertex 110 0 12
      vertex 0 0 0
      vertex 110 0 0
    endloop
  endfacet
  facet normal -1 0 0
    outer loop
      vertex 53 60 2
      vertex 53 130 12
      vertex 53 130 2
    endloop
  endfacet
  facet normal -1 -0 0
    outer loop
      vertex 53 130 12
      vertex 53 60 2
      vertex 53 60 12
    endloop
  endfacet
  facet normal -0 0 1
    outer loop
      vertex 3 130 2
      vertex 53 60 2
      vertex 53 130 2
    endloop
  endfacet
  facet normal 0 0 1
    outer loop
      vertex 53 60 2
      vertex 3 130 2
      vertex 3 60 2
    endloop
  endfacet
  facet normal 1 -0 0
    outer loop
      vertex 3 60 12
      vertex 3 130 2
      vertex 3 130 12
    endloop
  endfacet
  facet normal 1 0 0
    outer loop
      vertex 3 130 2
      vertex 3 60 12
      vertex 3 60 2
    endloop
  endfacet
  facet normal 0 -1 0
    outer loop
      vertex 3 130 2
      vertex 53 130 12
      vertex 3 130 12
    endloop
  endfacet
  facet normal 0 -1 -0
    outer loop
      vertex 53 130 12
      vertex 3 130 2
      vertex 53 130 2
    endloop
  endfacet
  facet normal 0 1 -0
    outer loop
      vertex 53 60 2
      vertex 3 60 12
      vertex 53 60 12
    endloop
  endfacet
  facet normal 0 1 0
    outer loop
      vertex 3 60 12
      vertex 53 60 2
      vertex 3 60 2
    endloop
  endfacet
  facet normal -1 0 0
    outer loop
      vertex 107 60 2
      vertex 107 130 12
      vertex 107 130 2
    endloop
  endfacet
  facet normal -1 -0 0
    outer loop
      vertex 107 130 12
      vertex 107 60 2
      vertex 107 60 12
    endloop
  endfacet
  facet normal -0 0 1
    outer loop
      vertex 57 130 2
      vertex 107 60 2
      vertex 107 130 2
    endloop
  endfacet
  facet normal 0 0 1
    outer loop
      vertex 107 60 2
      vertex 57 130 2
      vertex 57 60 2
    endloop
  endfacet
  facet normal 1 -0 0
    outer loop
      vertex 57 60 12
      vertex 57 130 2
      vertex 57 130 12
    endloop
  endfacet
  facet normal 1 0 0
    outer loop
      vertex 57 130 2
      vertex 57 60 12
      vertex 57 60 2
    endloop
  endfacet
  facet normal 0 -1 0
    outer loop
      vertex 57 130 2
      vertex 107 130 12
      vertex 57 130 12
    endloop
  endfacet
  facet normal 0 -1 -0
    outer loop
      vertex 107 130 12
      vertex 57 130 2
      vertex 107 130 2
    endloop
  endfacet
  facet normal 0 1 -0
    outer loop
      vertex 107 60 2
      vertex 57 60 12
      vertex 107 60 12
    endloop
  endfacet
  facet normal 0 1 0
    outer loop
      vertex 57 60 12
      vertex 107 60 2
      vertex 57 60 2
    endloop
  endfacet
  facet normal -1 0 0
    outer loop
      vertex 107 28.5 2
      vertex 107 52 12
      vertex 107 52 2
    endloop
  endfacet
  facet normal -1 -0 0
    outer loop
      vertex 107 52 12
      vertex 107 28.5 2
      vertex 107 28.5 12
    endloop
  endfacet
  facet normal -0 0 1
    outer loop
      vertex 57 52 2
      vertex 107 28.5 2
      vertex 107 52 2
    endloop
  endfacet
  facet normal 0 0 1
    outer loop
      vertex 107 28.5 2
      vertex 57 52 2
      vertex 57 28.5 2
    endloop
  endfacet
  facet normal 1 -0 0
    outer loop
      vertex 57 28.5 12
      vertex 57 52 2
      vertex 57 52 12
    endloop
  endfacet
  facet normal 1 0 0
    outer loop
      vertex 57 52 2
      vertex 57 28.5 12
      vertex 57 28.5 2
    endloop
  endfacet
  facet normal 0 -1 0
    outer loop
      vertex 57 52 2
      vertex 107 52 12
      vertex 57 52 12
    endloop
  endfacet
  facet normal 0 -1 -0
    outer loop
      vertex 107 52 12
      vertex 57 52 2
      vertex 107 52 2
    endloop
  endfacet
  facet normal 0 1 -0
    outer loop
      vertex 107 28.5 2
      vertex 57 28.5 12
      vertex 107 28.5 12
    endloop
  endfacet
  facet normal 0 1 0
    outer loop
      vertex 57 28.5 12
      vertex 107 28.5 2
      vertex 57 28.5 2
    endloop
  endfacet
  facet normal -1 0 0
    outer loop
      vertex 107 3 2
      vertex 107 26.5 12
      vertex 107 26.5 2
    endloop
  endfacet
  facet normal -1 -0 0
    outer loop
      vertex 107 26.5 12
      vertex 107 3 2
      vertex 107 3 12
    endloop
  endfacet
  facet normal -0 0 1
    outer loop
      vertex 57 26.5 2
      vertex 107 3 2
      vertex 107 26.5 2
    endloop
  endfacet
  facet normal 0 0 1
    outer loop
      vertex 107 3 2
      vertex 57 26.5 2
      vertex 57 3 2
    endloop
  endfacet
  facet normal 1 -0 0
    outer loop
      vertex 57 3 12
      vertex 57 26.5 2
      vertex 57 26.5 12
    endloop
  endfacet
  facet normal 1 0 0
    outer loop
      vertex 57 26.5 2
      vertex 57 3 12
      vertex 57 3 2
    endloop
  endfacet
  facet normal 0 -1 0
    outer loop
      vertex 57 26.5 2
      vertex 107 26.5 12
      vertex 57 26.5 12
    endloop
  endfacet
  facet normal 0 -1 -0
    outer loop
      vertex 107 26.5 12
      vertex 57 26.5 2
      vertex 107 26.5 2
    endloop
  endfacet
  facet normal 0 1 -0
    outer loop
      vertex 107 3 2
      vertex 57 3 12
      vertex 107 3 12
    endloop
  endfacet
  facet normal 0 1 0
    outer loop
      vertex 57 3 12
      vertex 107 3 2
      vertex 57 3 2
    endloop
  endfacet
endsolid OpenSCAD_Model
