solid OpenSCAD_Model
  facet normal 1 0 0
    outer loop
      vertex 30 15 60
      vertex 30 11 30
      vertex 30 15 0
    endloop
  endfacet
  facet normal 1 0 0
    outer loop
      vertex 30 15 60
      vertex 30 4 30
      vertex 30 11 30
    endloop
  endfacet
  facet normal 1 -0 0
    outer loop
      vertex 30 0 60
      vertex 30 4 30
      vertex 30 15 60
    endloop
  endfacet
  facet normal 1 0 0
    outer loop
      vertex 30 0 0
      vertex 30 4 30
      vertex 30 0 60
    endloop
  endfacet
  facet normal 1 0 0
    outer loop
      vertex 30 4 30
      vertex 30 0 0
      vertex 30 4 0
    endloop
  endfacet
  facet normal 1 0 0
    outer loop
      vertex 30 15 0
      vertex 30 11 30
      vertex 30 11 0
    endloop
  endfacet
  facet normal 0 0 1
    outer loop
      vertex 30 15 60
      vertex 17 8 60
      vertex 30 0 60
    endloop
  endfacet
  facet normal 0 0 1
    outer loop
      vertex 30 15 60
      vertex 15 8 60
      vertex 17 8 60
    endloop
  endfacet
  facet normal 0 0 1
    outer loop
      vertex 15 8 60
      vertex 14 8 60
      vertex 15 6 60
    endloop
  endfacet
  facet normal -0 0 1
    outer loop
      vertex 0 15 60
      vertex 15 8 60
      vertex 30 15 60
    endloop
  endfacet
  facet normal 0 0 1
    outer loop
      vertex 15 8 60
      vertex 0 15 60
      vertex 14 8 60
    endloop
  endfacet
  facet normal 0 0 1
    outer loop
      vertex 0 0 60
      vertex 12 8 60
      vertex 0 15 60
    endloop
  endfacet
  facet normal 0 0 1
    outer loop
      vertex 14 8 60
      vertex 0 15 60
      vertex 12 8 60
    endloop
  endfacet
  facet normal -0 0 1
    outer loop
      vertex 17 6 60
      vertex 30 0 60
      vertex 17 8 60
    endloop
  endfacet
  facet normal -0 0 1
    outer loop
      vertex 15 6 60
      vertex 30 0 60
      vertex 17 6 60
    endloop
  endfacet
  facet normal 0 0 1
    outer loop
      vertex 14 6 60
      vertex 15 6 60
      vertex 14 8 60
    endloop
  endfacet
  facet normal 0 0 1
    outer loop
      vertex 0 0 60
      vertex 15 6 60
      vertex 14 6 60
    endloop
  endfacet
  facet normal 0 0 1
    outer loop
      vertex 0 0 60
      vertex 14 6 60
      vertex 12 6 60
    endloop
  endfacet
  facet normal 0 0 1
    outer loop
      vertex 15 6 60
      vertex 0 0 60
      vertex 30 0 60
    endloop
  endfacet
  facet normal 0 0 1
    outer loop
      vertex 12 8 60
      vertex 0 0 60
      vertex 12 6 60
    endloop
  endfacet
  facet normal 0 0 -1
    outer loop
      vertex 0 0 0
      vertex 30 4 0
      vertex 30 0 0
    endloop
  endfacet
  facet normal -0 0 -1
    outer loop
      vertex 30 4 0
      vertex 0 0 0
      vertex 30 11 0
    endloop
  endfacet
  facet normal 0 0 -1
    outer loop
      vertex 0 15 0
      vertex 30 11 0
      vertex 0 0 0
    endloop
  endfacet
  facet normal 0 0 -1
    outer loop
      vertex 30 11 0
      vertex 0 15 0
      vertex 30 15 0
    endloop
  endfacet
  facet normal 0 0 -1
    outer loop
      vertex 30 4 0
      vertex 36 11 0
      vertex 36 4 0
    endloop
  endfacet
  facet normal -0 0 -1
    outer loop
      vertex 36 11 0
      vertex 30 4 0
      vertex 30 11 0
    endloop
  endfacet
  facet normal -1 0 0
    outer loop
      vertex 0 0 0
      vertex 0 15 60
      vertex 0 15 0
    endloop
  endfacet
  facet normal -1 -0 0
    outer loop
      vertex 0 15 60
      vertex 0 0 0
      vertex 0 0 60
    endloop
  endfacet
  facet normal 0 1 -0
    outer loop
      vertex 30 15 0
      vertex 0 15 60
      vertex 30 15 60
    endloop
  endfacet
  facet normal 0 1 0
    outer loop
      vertex 0 15 60
      vertex 30 15 0
      vertex 0 15 0
    endloop
  endfacet
  facet normal 0 -1 0
    outer loop
      vertex 0 0 0
      vertex 30 0 60
      vertex 0 0 60
    endloop
  endfacet
  facet normal 0 -1 -0
    outer loop
      vertex 30 0 60
      vertex 0 0 0
      vertex 30 0 0
    endloop
  endfacet
  facet normal 1 -0 0
    outer loop
      vertex 36 4 30
      vertex 36 11 0
      vertex 36 11 30
    endloop
  endfacet
  facet normal 1 0 0
    outer loop
      vertex 36 11 0
      vertex 36 4 30
      vertex 36 4 0
    endloop
  endfacet
  facet normal -0 0 1
    outer loop
      vertex 30 11 30
      vertex 36 4 30
      vertex 36 11 30
    endloop
  endfacet
  facet normal 0 0 1
    outer loop
      vertex 36 4 30
      vertex 30 11 30
      vertex 30 4 30
    endloop
  endfacet
  facet normal 0 1 -0
    outer loop
      vertex 36 11 0
      vertex 30 11 30
      vertex 36 11 30
    endloop
  endfacet
  facet normal 0 1 0
    outer loop
      vertex 30 11 30
      vertex 36 11 0
      vertex 30 11 0
    endloop
  endfacet
  facet normal 0 -1 0
    outer loop
      vertex 30 4 0
      vertex 36 4 30
      vertex 30 4 30
    endloop
  endfacet
  facet normal 0 -1 -0
    outer loop
      vertex 36 4 30
      vertex 30 4 0
      vertex 36 4 0
    endloop
  endfacet
  facet normal 1 -0 0
    outer loop
      vertex 14 6 65
      vertex 14 8 60
      vertex 14 8 65
    endloop
  endfacet
  facet normal 1 0 0
    outer loop
      vertex 14 8 60
      vertex 14 6 65
      vertex 14 6 60
    endloop
  endfacet
  facet normal -0 0 1
    outer loop
      vertex 12 8 65
      vertex 14 6 65
      vertex 14 8 65
    endloop
  endfacet
  facet normal 0 0 1
    outer loop
      vertex 14 6 65
      vertex 12 8 65
      vertex 12 6 65
    endloop
  endfacet
  facet normal -1 0 0
    outer loop
      vertex 12 6 60
      vertex 12 8 63.434
      vertex 12 8 60
    endloop
  endfacet
  facet normal -1 -0 0
    outer loop
      vertex 12 8 63.434
      vertex 12 6 60
      vertex 12 6 63.434
    endloop
  endfacet
  facet normal 1 -0 0
    outer loop
      vertex 12 6 65.166
      vertex 12 8 65
      vertex 12 8 65.166
    endloop
  endfacet
  facet normal 1 0 0
    outer loop
      vertex 12 8 65
      vertex 12 6 65.166
      vertex 12 6 65
    endloop
  endfacet
  facet normal 0 1 0
    outer loop
      vertex 12 8 63.434
      vertex 12 8 65
      vertex 14 8 65
    endloop
  endfacet
  facet normal 0 1 0
    outer loop
      vertex 12 8 65
      vertex 12 8 63.434
      vertex 10.5 8 64.3
    endloop
  endfacet
  facet normal 0 1 -0
    outer loop
      vertex 14 8 60
      vertex 12 8 63.434
      vertex 14 8 65
    endloop
  endfacet
  facet normal 0 1 0
    outer loop
      vertex 12 8 63.434
      vertex 14 8 60
      vertex 12 8 60
    endloop
  endfacet
  facet normal 0 1 0
    outer loop
      vertex 12 8 65.166
      vertex 12 8 65
      vertex 10.5 8 64.3
    endloop
  endfacet
  facet normal 0 -1 0
    outer loop
      vertex 10.5 6 64.3
      vertex 12 6 65
      vertex 12 6 65.166
    endloop
  endfacet
  facet normal 0 -1 0
    outer loop
      vertex 12 6 63.434
      vertex 12 6 65
      vertex 10.5 6 64.3
    endloop
  endfacet
  facet normal 0 -1 0
    outer loop
      vertex 12 6 65
      vertex 12 6 63.434
      vertex 14 6 65
    endloop
  endfacet
  facet normal 0 -1 0
    outer loop
      vertex 14 6 60
      vertex 12 6 63.434
      vertex 12 6 60
    endloop
  endfacet
  facet normal 0 -1 0
    outer loop
      vertex 12 6 63.434
      vertex 14 6 60
      vertex 14 6 65
    endloop
  endfacet
  facet normal -1 0 0
    outer loop
      vertex 17 6 65
      vertex 17 8 65.166
      vertex 17 8 65
    endloop
  endfacet
  facet normal -1 -0 0
    outer loop
      vertex 17 8 65.166
      vertex 17 6 65
      vertex 17 6 65.166
    endloop
  endfacet
  facet normal 1 -0 0
    outer loop
      vertex 17 6 63.434
      vertex 17 8 60
      vertex 17 8 63.434
    endloop
  endfacet
  facet normal 1 0 0
    outer loop
      vertex 17 8 60
      vertex 17 6 63.434
      vertex 17 6 60
    endloop
  endfacet
  facet normal -0 0 1
    outer loop
      vertex 15 8 65
      vertex 17 6 65
      vertex 17 8 65
    endloop
  endfacet
  facet normal 0 0 1
    outer loop
      vertex 17 6 65
      vertex 15 8 65
      vertex 15 6 65
    endloop
  endfacet
  facet normal -1 0 0
    outer loop
      vertex 15 6 60
      vertex 15 8 65
      vertex 15 8 60
    endloop
  endfacet
  facet normal -1 -0 0
    outer loop
      vertex 15 8 65
      vertex 15 6 60
      vertex 15 6 65
    endloop
  endfacet
  facet normal 0 1 0
    outer loop
      vertex 18.5 8 64.3
      vertex 17 8 65
      vertex 17 8 65.166
    endloop
  endfacet
  facet normal 0 1 0
    outer loop
      vertex 17 8 63.434
      vertex 17 8 65
      vertex 18.5 8 64.3
    endloop
  endfacet
  facet normal 0 1 0
    outer loop
      vertex 17 8 65
      vertex 17 8 63.434
      vertex 15 8 65
    endloop
  endfacet
  facet normal 0 1 0
    outer loop
      vertex 15 8 60
      vertex 17 8 63.434
      vertex 17 8 60
    endloop
  endfacet
  facet normal 0 1 0
    outer loop
      vertex 17 8 63.434
      vertex 15 8 60
      vertex 15 8 65
    endloop
  endfacet
  facet normal 0 -1 0
    outer loop
      vertex 17 6 63.434
      vertex 17 6 65
      vertex 15 6 65
    endloop
  endfacet
  facet normal 0 -1 0
    outer loop
      vertex 17 6 65
      vertex 17 6 63.434
      vertex 18.5 6 64.3
    endloop
  endfacet
  facet normal 0 -1 0
    outer loop
      vertex 15 6 60
      vertex 17 6 63.434
      vertex 15 6 65
    endloop
  endfacet
  facet normal 0 -1 -0
    outer loop
      vertex 17 6 63.434
      vertex 15 6 60
      vertex 17 6 60
    endloop
  endfacet
  facet normal 0 -1 0
    outer loop
      vertex 17 6 65.166
      vertex 17 6 65
      vertex 18.5 6 64.3
    endloop
  endfacet
  facet normal -0.499989 0 0.866032
    outer loop
      vertex 10.5 8 64.3
      vertex 12 6 65.166
      vertex 12 8 65.166
    endloop
  endfacet
  facet normal -0.499989 0 0.866032
    outer loop
      vertex 12 6 65.166
      vertex 10.5 8 64.3
      vertex 10.5 6 64.3
    endloop
  endfacet
  facet normal -0.499989 0 -0.866032
    outer loop
      vertex 10.5 6 64.3
      vertex 12 8 63.434
      vertex 12 6 63.434
    endloop
  endfacet
  facet normal -0.499989 0 -0.866032
    outer loop
      vertex 12 8 63.434
      vertex 10.5 6 64.3
      vertex 10.5 8 64.3
    endloop
  endfacet
  facet normal 0.499989 0 -0.866032
    outer loop
      vertex 17 6 63.434
      vertex 18.5 8 64.3
      vertex 18.5 6 64.3
    endloop
  endfacet
  facet normal 0.499989 0 -0.866032
    outer loop
      vertex 18.5 8 64.3
      vertex 17 6 63.434
      vertex 17 8 63.434
    endloop
  endfacet
  facet normal 0.499989 0 0.866032
    outer loop
      vertex 17 8 65.166
      vertex 18.5 6 64.3
      vertex 18.5 8 64.3
    endloop
  endfacet
  facet normal 0.499989 0 0.866032
    outer loop
      vertex 18.5 6 64.3
      vertex 17 8 65.166
      vertex 17 6 65.166
    endloop
  endfacet
endsolid OpenSCAD_Model
