solid OpenSCAD_Model
  facet normal -0.122416 -0.992479 0
    outer loop
      vertex 44.0677 81.3002 0
      vertex 45.6454 81.1056 100
      vertex 44.0677 81.3002 100
    endloop
  endfacet
  facet normal -0.122416 -0.992479 -0
    outer loop
      vertex 45.6454 81.1056 100
      vertex 44.0677 81.3002 0
      vertex 45.6454 81.1056 0
    endloop
  endfacet
  facet normal -0.0735426 -0.997292 0
    outer loop
      vertex 42.0363 81.45 0
      vertex 44.0677 81.3002 100
      vertex 42.0363 81.45 100
    endloop
  endfacet
  facet normal -0.0735426 -0.997292 -0
    outer loop
      vertex 44.0677 81.3002 100
      vertex 42.0363 81.45 0
      vertex 44.0677 81.3002 0
    endloop
  endfacet
  facet normal -0.219038 -0.975716 0
    outer loop
      vertex 49.7995 80.3201 0
      vertex 50.0837 80.2563 100
      vertex 49.7995 80.3201 100
    endloop
  endfacet
  facet normal -0.219038 -0.975716 -0
    outer loop
      vertex 50.0837 80.2563 100
      vertex 49.7995 80.3201 0
      vertex 50.0837 80.2563 0
    endloop
  endfacet
  facet normal -0.313667 -0.949533 0
    outer loop
      vertex 52.0468 79.713 0
      vertex 53.4269 79.2571 100
      vertex 52.0468 79.713 100
    endloop
  endfacet
  facet normal -0.313667 -0.949533 -0
    outer loop
      vertex 53.4269 79.2571 100
      vertex 52.0468 79.713 0
      vertex 53.4269 79.2571 0
    endloop
  endfacet
  facet normal 0.653149 -0.757229 0
    outer loop
      vertex 12.1303 70.7495 0
      vertex 13.6727 72.0799 100
      vertex 12.1303 70.7495 100
    endloop
  endfacet
  facet normal 0.653149 -0.757229 0
    outer loop
      vertex 13.6727 72.0799 100
      vertex 12.1303 70.7495 0
      vertex 13.6727 72.0799 0
    endloop
  endfacet
  facet normal -0.26673 -0.963771 0
    outer loop
      vertex 50.0837 80.2563 0
      vertex 52.0468 79.713 100
      vertex 50.0837 80.2563 100
    endloop
  endfacet
  facet normal -0.26673 -0.963771 -0
    outer loop
      vertex 52.0468 79.713 100
      vertex 50.0837 80.2563 0
      vertex 52.0468 79.713 0
    endloop
  endfacet
  facet normal 0.534981 -0.844864 0
    outer loop
      vertex 16.9438 74.506 0
      vertex 18.6647 75.5957 100
      vertex 16.9438 74.506 100
    endloop
  endfacet
  facet normal 0.534981 -0.844864 0
    outer loop
      vertex 18.6647 75.5957 100
      vertex 16.9438 74.506 0
      vertex 18.6647 75.5957 0
    endloop
  endfacet
  facet normal 0.689564 -0.724224 0
    outer loop
      vertex 10.6551 69.3449 0
      vertex 12.1303 70.7495 100
      vertex 10.6551 69.3449 100
    endloop
  endfacet
  facet normal 0.689564 -0.724224 0
    outer loop
      vertex 12.1303 70.7495 100
      vertex 10.6551 69.3449 0
      vertex 12.1303 70.7495 0
    endloop
  endfacet
  facet normal -0.02453 -0.999699 0
    outer loop
      vertex 40.3287 81.4919 0
      vertex 42.0363 81.45 100
      vertex 40.3287 81.4919 100
    endloop
  endfacet
  facet normal -0.02453 -0.999699 -0
    outer loop
      vertex 42.0363 81.45 100
      vertex 40.3287 81.4919 0
      vertex 42.0363 81.45 0
    endloop
  endfacet
  facet normal 0.724226 -0.689563 0
    outer loop
      vertex 10.1319 68.7954 100
      vertex 10.6551 69.3449 0
      vertex 10.6551 69.3449 100
    endloop
  endfacet
  facet normal 0.724226 -0.689563 0
    outer loop
      vertex 10.6551 69.3449 0
      vertex 10.1319 68.7954 100
      vertex 10.1319 68.7954 0
    endloop
  endfacet
  facet normal 0.492912 -0.870079 0
    outer loop
      vertex 18.6647 75.5957 0
      vertex 20.1095 76.4142 100
      vertex 18.6647 75.5957 100
    endloop
  endfacet
  facet normal 0.492912 -0.870079 0
    outer loop
      vertex 20.1095 76.4142 100
      vertex 18.6647 75.5957 0
      vertex 20.1095 76.4142 0
    endloop
  endfacet
  facet normal 0.615238 -0.788341 0
    outer loop
      vertex 13.6727 72.0799 0
      vertex 15.2785 73.3331 100
      vertex 13.6727 72.0799 100
    endloop
  endfacet
  facet normal 0.615238 -0.788341 0
    outer loop
      vertex 15.2785 73.3331 100
      vertex 13.6727 72.0799 0
      vertex 15.2785 73.3331 0
    endloop
  endfacet
  facet normal 0.575829 -0.81757 0
    outer loop
      vertex 15.2785 73.3331 0
      vertex 16.9438 74.506 100
      vertex 15.2785 73.3331 100
    endloop
  endfacet
  facet normal 0.575829 -0.81757 0
    outer loop
      vertex 16.9438 74.506 100
      vertex 15.2785 73.3331 0
      vertex 16.9438 74.506 0
    endloop
  endfacet
  facet normal -0.689534 0.724253 0
    outer loop
      vertex 15.4881 67.0447 0
      vertex 14.1906 65.8094 100
      vertex 15.4881 67.0447 100
    endloop
  endfacet
  facet normal -0.689534 0.724253 0
    outer loop
      vertex 14.1906 65.8094 100
      vertex 15.4881 67.0447 0
      vertex 14.1906 65.8094 0
    endloop
  endfacet
  facet normal 0.313648 0.949539 -0
    outer loop
      vertex 52.2965 74.3664 0
      vertex 50.5954 74.9283 100
      vertex 52.2965 74.3664 100
    endloop
  endfacet
  facet normal 0.313648 0.949539 0
    outer loop
      vertex 50.5954 74.9283 100
      vertex 52.2965 74.3664 0
      vertex 50.5954 74.9283 0
    endloop
  endfacet
  facet normal 0.0245599 0.999698 -0
    outer loop
      vertex 41.791 76.456 0
      vertex 40 76.5 100
      vertex 41.791 76.456 100
    endloop
  endfacet
  facet normal 0.0245599 0.999698 0
    outer loop
      vertex 40 76.5 100
      vertex 41.791 76.456 0
      vertex 40 76.5 0
    endloop
  endfacet
  facet normal 0.405227 0.914216 -0
    outer loop
      vertex 55.6058 72.9956 0
      vertex 53.9679 73.7216 100
      vertex 55.6058 72.9956 100
    endloop
  endfacet
  facet normal 0.405227 0.914216 0
    outer loop
      vertex 53.9679 73.7216 100
      vertex 55.6058 72.9956 0
      vertex 53.9679 73.7216 0
    endloop
  endfacet
  facet normal -0.405192 0.914231 0
    outer loop
      vertex 24.9233 73.2301 0
      vertex 24.3942 72.9956 100
      vertex 24.9233 73.2301 100
    endloop
  endfacet
  facet normal -0.405192 0.914231 0
    outer loop
      vertex 24.3942 72.9956 100
      vertex 24.9233 73.2301 0
      vertex 24.3942 72.9956 0
    endloop
  endfacet
  facet normal -0.724253 0.689534 0
    outer loop
      vertex 12.9553 64.5119 0
      vertex 14.1906 65.8094 100
      vertex 14.1906 65.8094 0
    endloop
  endfacet
  facet normal -0.724253 0.689534 0
    outer loop
      vertex 14.1906 65.8094 100
      vertex 12.9553 64.5119 0
      vertex 12.9553 64.5119 100
    endloop
  endfacet
  facet normal 0.449901 0.893079 -0
    outer loop
      vertex 55.7785 72.9086 0
      vertex 55.6058 72.9956 100
      vertex 55.7785 72.9086 100
    endloop
  endfacet
  facet normal 0.449901 0.893079 0
    outer loop
      vertex 55.6058 72.9956 100
      vertex 55.7785 72.9086 0
      vertex 55.6058 72.9956 0
    endloop
  endfacet
  facet normal -0.0245599 0.999698 0
    outer loop
      vertex 40 76.5 0
      vertex 38.209 76.456 100
      vertex 40 76.5 100
    endloop
  endfacet
  facet normal -0.0245599 0.999698 0
    outer loop
      vertex 38.209 76.456 100
      vertex 40 76.5 0
      vertex 38.209 76.456 0
    endloop
  endfacet
  facet normal 0.170922 0.985285 -1.15413e-06
    outer loop
      vertex 47.1208 75.7987 100
      vertex 46.4059 75.9227 85.5
      vertex 45.3557 76.1049 100
    endloop
  endfacet
  facet normal 0.170899 0.985289 0
    outer loop
      vertex 47.1208 75.7987 100
      vertex 46.4059 75.9227 84.5
      vertex 46.4059 75.9227 85.5
    endloop
  endfacet
  facet normal 0.170972 0.985276 0
    outer loop
      vertex 46.4059 75.9227 84.5
      vertex 46.4059 75.9227 15.5
      vertex 45.6965 76.0458 84.5
    endloop
  endfacet
  facet normal 0.170899 0.985289 0
    outer loop
      vertex 47.1208 75.7987 100
      vertex 46.4059 75.9227 15.5
      vertex 46.4059 75.9227 84.5
    endloop
  endfacet
  facet normal 0.170899 0.985289 -0
    outer loop
      vertex 47.1208 75.7987 0
      vertex 46.4059 75.9227 15.5
      vertex 47.1208 75.7987 100
    endloop
  endfacet
  facet normal 0.170922 0.985285 1.15413e-06
    outer loop
      vertex 45.3557 76.1049 0
      vertex 46.4059 75.9227 14.5
      vertex 47.1208 75.7987 0
    endloop
  endfacet
  facet normal 0.170899 0.985289 0
    outer loop
      vertex 46.4059 75.9227 15.5
      vertex 47.1208 75.7987 0
      vertex 46.4059 75.9227 14.5
    endloop
  endfacet
  facet normal 0.170972 0.985276 2.58045e-06
    outer loop
      vertex 45.6965 76.0458 85.5
      vertex 45.3557 76.1049 100
      vertex 46.4059 75.9227 85.5
    endloop
  endfacet
  facet normal 0.170865 0.985294 -0
    outer loop
      vertex 45.6965 76.0458 84.5
      vertex 45.3557 76.1049 100
      vertex 45.6965 76.0458 85.5
    endloop
  endfacet
  facet normal 0.170972 0.985276 -0
    outer loop
      vertex 45.6965 76.0458 15.5
      vertex 45.6965 76.0458 84.5
      vertex 46.4059 75.9227 15.5
    endloop
  endfacet
  facet normal 0.170865 0.985294 0
    outer loop
      vertex 45.6965 76.0458 84.5
      vertex 45.6965 76.0458 15.5
      vertex 45.3557 76.1049 100
    endloop
  endfacet
  facet normal 0.170865 0.985294 0
    outer loop
      vertex 45.3557 76.1049 0
      vertex 45.6965 76.0458 15.5
      vertex 45.6965 76.0458 14.5
    endloop
  endfacet
  facet normal 0.170865 0.985294 0
    outer loop
      vertex 45.6965 76.0458 15.5
      vertex 45.3557 76.1049 0
      vertex 45.3557 76.1049 100
    endloop
  endfacet
  facet normal 0.170972 0.985276 -2.58045e-06
    outer loop
      vertex 46.4059 75.9227 14.5
      vertex 45.3557 76.1049 0
      vertex 45.6965 76.0458 14.5
    endloop
  endfacet
  facet normal -0.756952 0.65347 0
    outer loop
      vertex 12.8871 64.4329 0
      vertex 12.9553 64.5119 100
      vertex 12.9553 64.5119 0
    endloop
  endfacet
  facet normal -0.756952 0.65347 0
    outer loop
      vertex 12.9553 64.5119 100
      vertex 12.8871 64.4329 0
      vertex 12.8871 64.4329 100
    endloop
  endfacet
  facet normal 0.0735715 0.99729 -0
    outer loop
      vertex 43.5776 76.3242 0
      vertex 41.791 76.456 100
      vertex 43.5776 76.3242 100
    endloop
  endfacet
  facet normal 0.0735715 0.99729 0
    outer loop
      vertex 41.791 76.456 100
      vertex 43.5776 76.3242 0
      vertex 41.791 76.456 0
    endloop
  endfacet
  facet normal -0.653197 0.757188 0
    outer loop
      vertex 16.8446 68.2149 0
      vertex 15.4881 67.0447 100
      vertex 16.8446 68.2149 100
    endloop
  endfacet
  facet normal -0.653197 0.757188 0
    outer loop
      vertex 15.4881 67.0447 100
      vertex 16.8446 68.2149 0
      vertex 15.4881 67.0447 0
    endloop
  endfacet
  facet normal -0.492901 0.870085 0
    outer loop
      vertex 22.794 72.1901 0
      vertex 21.2353 71.3071 100
      vertex 22.794 72.1901 100
    endloop
  endfacet
  facet normal -0.492901 0.870085 0
    outer loop
      vertex 21.2353 71.3071 100
      vertex 22.794 72.1901 0
      vertex 21.2353 71.3071 0
    endloop
  endfacet
  facet normal -0.535007 0.844848 0
    outer loop
      vertex 21.2353 71.3071 0
      vertex 19.7217 70.3486 100
      vertex 21.2353 71.3071 100
    endloop
  endfacet
  facet normal -0.535007 0.844848 0
    outer loop
      vertex 19.7217 70.3486 100
      vertex 21.2353 71.3071 0
      vertex 19.7217 70.3486 0
    endloop
  endfacet
  facet normal -0.0735715 0.99729 0
    outer loop
      vertex 38.209 76.456 0
      vertex 36.4224 76.3242 100
      vertex 38.209 76.456 100
    endloop
  endfacet
  facet normal -0.0735715 0.99729 0
    outer loop
      vertex 36.4224 76.3242 100
      vertex 38.209 76.456 0
      vertex 36.4224 76.3242 0
    endloop
  endfacet
  facet normal -0.121959 0.992535 0
    outer loop
      vertex 36.4224 76.3242 0
      vertex 36.2694 76.3054 100
      vertex 36.4224 76.3242 100
    endloop
  endfacet
  facet normal -0.121959 0.992535 0
    outer loop
      vertex 36.2694 76.3054 100
      vertex 36.4224 76.3242 0
      vertex 36.2694 76.3054 0
    endloop
  endfacet
  facet normal 0.122406 0.99248 -0
    outer loop
      vertex 45.3557 76.1049 0
      vertex 43.5776 76.3242 100
      vertex 45.3557 76.1049 100
    endloop
  endfacet
  facet normal 0.122406 0.99248 0
    outer loop
      vertex 43.5776 76.3242 100
      vertex 45.3557 76.1049 0
      vertex 43.5776 76.3242 0
    endloop
  endfacet
  facet normal 0.266705 0.963778 -0
    outer loop
      vertex 50.5954 74.9283 0
      vertex 48.8688 75.4061 100
      vertex 50.5954 74.9283 100
    endloop
  endfacet
  facet normal 0.266705 0.963778 0
    outer loop
      vertex 48.8688 75.4061 100
      vertex 50.5954 74.9283 0
      vertex 48.8688 75.4061 0
    endloop
  endfacet
  facet normal -0.449623 0.893218 0
    outer loop
      vertex 24.3942 72.9956 0
      vertex 22.794 72.1901 100
      vertex 24.3942 72.9956 100
    endloop
  endfacet
  facet normal -0.449623 0.893218 0
    outer loop
      vertex 22.794 72.1901 100
      vertex 24.3942 72.9956 0
      vertex 22.794 72.1901 0
    endloop
  endfacet
  facet normal 0.359929 0.93298 -0
    outer loop
      vertex 53.9679 73.7216 0
      vertex 52.2965 74.3664 100
      vertex 53.9679 73.7216 100
    endloop
  endfacet
  facet normal 0.359929 0.93298 0
    outer loop
      vertex 52.2965 74.3664 100
      vertex 53.9679 73.7216 0
      vertex 52.2965 74.3664 0
    endloop
  endfacet
  facet normal 0.21914 0.975693 -0
    outer loop
      vertex 48.8688 75.4061 0
      vertex 47.1208 75.7987 100
      vertex 48.8688 75.4061 100
    endloop
  endfacet
  facet normal 0.21914 0.975693 0
    outer loop
      vertex 47.1208 75.7987 100
      vertex 48.8688 75.4061 0
      vertex 47.1208 75.7987 0
    endloop
  endfacet
  facet normal -0.615215 0.788359 0
    outer loop
      vertex 18.257 69.3171 0
      vertex 16.8446 68.2149 100
      vertex 18.257 69.3171 100
    endloop
  endfacet
  facet normal -0.615215 0.788359 0
    outer loop
      vertex 16.8446 68.2149 100
      vertex 18.257 69.3171 0
      vertex 16.8446 68.2149 0
    endloop
  endfacet
  facet normal -0.575796 0.817594 3.66204e-06
    outer loop
      vertex 18.8536 69.7373 85.5
      vertex 19.7217 70.3486 100
      vertex 19.6712 70.3131 85.5
    endloop
  endfacet
  facet normal -0.575092 0.818089 0
    outer loop
      vertex 19.7217 70.3486 100
      vertex 19.6712 70.3131 84.5
      vertex 19.6712 70.3131 85.5
    endloop
  endfacet
  facet normal -0.575796 0.817594 0
    outer loop
      vertex 19.6712 70.3131 84.5
      vertex 19.6712 70.3131 15.5
      vertex 18.8536 69.7373 84.5
    endloop
  endfacet
  facet normal -0.575092 0.818089 0
    outer loop
      vertex 19.7217 70.3486 100
      vertex 19.6712 70.3131 15.5
      vertex 19.6712 70.3131 84.5
    endloop
  endfacet
  facet normal -0.575092 0.818089 0
    outer loop
      vertex 19.7217 70.3486 100
      vertex 19.6712 70.3131 14.5
      vertex 19.6712 70.3131 15.5
    endloop
  endfacet
  facet normal -0.575796 0.817594 -3.66204e-06
    outer loop
      vertex 19.6712 70.3131 14.5
      vertex 19.7217 70.3486 0
      vertex 18.8536 69.7373 14.5
    endloop
  endfacet
  facet normal -0.575092 0.818089 0
    outer loop
      vertex 19.7217 70.3486 0
      vertex 19.6712 70.3131 14.5
      vertex 19.7217 70.3486 100
    endloop
  endfacet
  facet normal -0.575787 0.8176 2.8503e-06
    outer loop
      vertex 19.7217 70.3486 100
      vertex 18.8536 69.7373 85.5
      vertex 18.257 69.3171 100
    endloop
  endfacet
  facet normal -0.575833 0.817567 0
    outer loop
      vertex 18.8536 69.7373 84.5
      vertex 18.257 69.3171 100
      vertex 18.8536 69.7373 85.5
    endloop
  endfacet
  facet normal -0.575796 0.817594 0
    outer loop
      vertex 18.8536 69.7373 15.5
      vertex 18.8536 69.7373 84.5
      vertex 19.6712 70.3131 15.5
    endloop
  endfacet
  facet normal -0.575833 0.817567 0
    outer loop
      vertex 18.8536 69.7373 84.5
      vertex 18.8536 69.7373 15.5
      vertex 18.257 69.3171 100
    endloop
  endfacet
  facet normal -0.575833 0.817567 0
    outer loop
      vertex 18.257 69.3171 0
      vertex 18.8536 69.7373 15.5
      vertex 18.8536 69.7373 14.5
    endloop
  endfacet
  facet normal -0.575833 0.817567 0
    outer loop
      vertex 18.8536 69.7373 15.5
      vertex 18.257 69.3171 0
      vertex 18.257 69.3171 100
    endloop
  endfacet
  facet normal -0.575787 0.8176 -2.8503e-06
    outer loop
      vertex 18.257 69.3171 0
      vertex 18.8536 69.7373 14.5
      vertex 19.7217 70.3486 0
    endloop
  endfacet
  facet normal 0 0 -1
    outer loop
      vertex 22.794 72.1901 0
      vertex 27.6772 72.2278 0
      vertex 24.4209 63.2812 0
    endloop
  endfacet
  facet normal 0 0 -1
    outer loop
      vertex 27.6772 72.2278 0
      vertex 24.3942 72.9956 0
      vertex 24.9233 73.2301 0
    endloop
  endfacet
  facet normal -0 0 -1
    outer loop
      vertex 27.6772 72.2278 0
      vertex 22.794 72.1901 0
      vertex 24.3942 72.9956 0
    endloop
  endfacet
  facet normal 0 0 -1
    outer loop
      vertex 22.2605 64.0675 0
      vertex 22.794 72.1901 0
      vertex 24.4209 63.2812 0
    endloop
  endfacet
  facet normal 0 0 -1
    outer loop
      vertex 20.0347 63.2033 0
      vertex 22.2605 64.0675 0
      vertex 21.7224 62.5891 0
    endloop
  endfacet
  facet normal 0 0 -1
    outer loop
      vertex 22.2605 64.0675 0
      vertex 21.2353 71.3071 0
      vertex 22.794 72.1901 0
    endloop
  endfacet
  facet normal 0 0 -1
    outer loop
      vertex 18.257 69.3171 0
      vertex 22.2605 64.0675 0
      vertex 20.0347 63.2033 0
    endloop
  endfacet
  facet normal 0 0 -1
    outer loop
      vertex 22.2605 64.0675 0
      vertex 19.7217 70.3486 0
      vertex 21.2353 71.3071 0
    endloop
  endfacet
  facet normal 0 0 -1
    outer loop
      vertex 13.7091 64.3914 0
      vertex 20.0347 63.2033 0
      vertex 19.6766 62.2194 0
    endloop
  endfacet
  facet normal 0 0 -1
    outer loop
      vertex 22.2605 64.0675 0
      vertex 18.257 69.3171 0
      vertex 19.7217 70.3486 0
    endloop
  endfacet
  facet normal 0 0 -1
    outer loop
      vertex 20.0347 63.2033 0
      vertex 16.8446 68.2149 0
      vertex 18.257 69.3171 0
    endloop
  endfacet
  facet normal 0 0 -1
    outer loop
      vertex 20.0347 63.2033 0
      vertex 15.4881 67.0447 0
      vertex 16.8446 68.2149 0
    endloop
  endfacet
  facet normal 0 0 -1
    outer loop
      vertex 20.0347 63.2033 0
      vertex 14.1906 65.8094 0
      vertex 15.4881 67.0447 0
    endloop
  endfacet
  facet normal 0 0 -1
    outer loop
      vertex 20.0347 63.2033 0
      vertex 13.7091 64.3914 0
      vertex 14.1906 65.8094 0
    endloop
  endfacet
  facet normal 0 0 -1
    outer loop
      vertex 12.9553 64.5119 0
      vertex 13.7091 64.3914 0
      vertex 13.6263 64.1638 0
    endloop
  endfacet
  facet normal 0 0 -1
    outer loop
      vertex 13.7091 64.3914 0
      vertex 12.9553 64.5119 0
      vertex 14.1906 65.8094 0
    endloop
  endfacet
  facet normal 0 -0 -1
    outer loop
      vertex 12.9553 64.5119 0
      vertex 13.6263 64.1638 0
      vertex 12.8871 64.4329 0
    endloop
  endfacet
  facet normal -0 0 -1
    outer loop
      vertex 10.6551 69.3449 0
      vertex 10.1319 68.7954 0
      vertex 10.3824 69.4837 0
    endloop
  endfacet
  facet normal 0 0 -1
    outer loop
      vertex 18.6647 75.5957 0
      vertex 15.1551 78.2175 0
      vertex 20.1095 76.4142 0
    endloop
  endfacet
  facet normal 0 0 -1
    outer loop
      vertex 16.9438 74.506 0
      vertex 15.1551 78.2175 0
      vertex 18.6647 75.5957 0
    endloop
  endfacet
  facet normal 0 0 -1
    outer loop
      vertex 14.0774 75.2565 0
      vertex 16.9438 74.506 0
      vertex 15.2785 73.3331 0
    endloop
  endfacet
  facet normal 0 0 -1
    outer loop
      vertex 16.9438 74.506 0
      vertex 14.0774 75.2565 0
      vertex 15.1551 78.2175 0
    endloop
  endfacet
  facet normal 0 0 -1
    outer loop
      vertex 13.6727 72.0799 0
      vertex 14.0774 75.2565 0
      vertex 15.2785 73.3331 0
    endloop
  endfacet
  facet normal 0 0 -1
    outer loop
      vertex 11.0236 73.8216 0
      vertex 13.6727 72.0799 0
      vertex 12.1303 70.7495 0
    endloop
  endfacet
  facet normal 0 0 -1
    outer loop
      vertex 13.6727 72.0799 0
      vertex 11.0236 73.8216 0
      vertex 14.0774 75.2565 0
    endloop
  endfacet
  facet normal -0 0 -1
    outer loop
      vertex 14.0774 75.2565 0
      vertex 11.0236 73.8216 0
      vertex 11.842 76.0701 0
    endloop
  endfacet
  facet normal 0 0 -1
    outer loop
      vertex 9.26145 69.8917 0
      vertex 11.0236 73.8216 0
      vertex 12.1303 70.7495 0
    endloop
  endfacet
  facet normal 0 0 -1
    outer loop
      vertex 10.3824 69.4837 0
      vertex 12.1303 70.7495 0
      vertex 10.6551 69.3449 0
    endloop
  endfacet
  facet normal 0 0 -1
    outer loop
      vertex 9.26145 69.8917 0
      vertex 12.1303 70.7495 0
      vertex 10.3824 69.4837 0
    endloop
  endfacet
  facet normal -0 0 -1
    outer loop
      vertex 11.0236 73.8216 0
      vertex 9.26145 69.8917 0
      vertex 10.7306 73.9282 0
    endloop
  endfacet
  facet normal -0 0 1
    outer loop
      vertex 24.3942 72.9956 100
      vertex 27.6772 72.2278 100
      vertex 24.9233 73.2301 100
    endloop
  endfacet
  facet normal 0 0 1
    outer loop
      vertex 22.794 72.1901 100
      vertex 27.6772 72.2278 100
      vertex 24.3942 72.9956 100
    endloop
  endfacet
  facet normal 0 0 1
    outer loop
      vertex 27.6772 72.2278 100
      vertex 22.794 72.1901 100
      vertex 24.4209 63.2812 100
    endloop
  endfacet
  facet normal 0 0 1
    outer loop
      vertex 22.794 72.1901 100
      vertex 22.2605 64.0675 100
      vertex 24.4209 63.2812 100
    endloop
  endfacet
  facet normal -0 0 1
    outer loop
      vertex 21.2353 71.3071 100
      vertex 22.2605 64.0675 100
      vertex 22.794 72.1901 100
    endloop
  endfacet
  facet normal -0 0 1
    outer loop
      vertex 19.7217 70.3486 100
      vertex 22.2605 64.0675 100
      vertex 21.2353 71.3071 100
    endloop
  endfacet
  facet normal -0 0 1
    outer loop
      vertex 18.257 69.3171 100
      vertex 22.2605 64.0675 100
      vertex 19.7217 70.3486 100
    endloop
  endfacet
  facet normal 0 0 1
    outer loop
      vertex 22.2605 64.0675 100
      vertex 20.0347 63.2033 100
      vertex 21.7224 62.5891 100
    endloop
  endfacet
  facet normal 0 0 1
    outer loop
      vertex 22.2605 64.0675 100
      vertex 18.257 69.3171 100
      vertex 20.0347 63.2033 100
    endloop
  endfacet
  facet normal -0 0 1
    outer loop
      vertex 16.8446 68.2149 100
      vertex 20.0347 63.2033 100
      vertex 18.257 69.3171 100
    endloop
  endfacet
  facet normal -0 0 1
    outer loop
      vertex 15.4881 67.0447 100
      vertex 20.0347 63.2033 100
      vertex 16.8446 68.2149 100
    endloop
  endfacet
  facet normal -0 0 1
    outer loop
      vertex 14.1906 65.8094 100
      vertex 20.0347 63.2033 100
      vertex 15.4881 67.0447 100
    endloop
  endfacet
  facet normal -0 0 1
    outer loop
      vertex 13.7091 64.3914 100
      vertex 20.0347 63.2033 100
      vertex 14.1906 65.8094 100
    endloop
  endfacet
  facet normal 0 0 1
    outer loop
      vertex 20.0347 63.2033 100
      vertex 13.7091 64.3914 100
      vertex 19.6766 62.2194 100
    endloop
  endfacet
  facet normal -0 0 1
    outer loop
      vertex 12.9553 64.5119 100
      vertex 13.7091 64.3914 100
      vertex 14.1906 65.8094 100
    endloop
  endfacet
  facet normal 0 0 1
    outer loop
      vertex 13.7091 64.3914 100
      vertex 12.9553 64.5119 100
      vertex 13.6263 64.1638 100
    endloop
  endfacet
  facet normal 0 0 1
    outer loop
      vertex 13.6263 64.1638 100
      vertex 12.9553 64.5119 100
      vertex 12.8871 64.4329 100
    endloop
  endfacet
  facet normal 0 0 1
    outer loop
      vertex 15.1551 78.2175 100
      vertex 18.6647 75.5957 100
      vertex 20.1095 76.4142 100
    endloop
  endfacet
  facet normal 0 0 1
    outer loop
      vertex 15.1551 78.2175 100
      vertex 16.9438 74.506 100
      vertex 18.6647 75.5957 100
    endloop
  endfacet
  facet normal -0 0 1
    outer loop
      vertex 14.0774 75.2565 100
      vertex 16.9438 74.506 100
      vertex 15.1551 78.2175 100
    endloop
  endfacet
  facet normal 0 0 1
    outer loop
      vertex 16.9438 74.506 100
      vertex 14.0774 75.2565 100
      vertex 15.2785 73.3331 100
    endloop
  endfacet
  facet normal 0 0 1
    outer loop
      vertex 14.0774 75.2565 100
      vertex 13.6727 72.0799 100
      vertex 15.2785 73.3331 100
    endloop
  endfacet
  facet normal -0 0 1
    outer loop
      vertex 11.0236 73.8216 100
      vertex 13.6727 72.0799 100
      vertex 14.0774 75.2565 100
    endloop
  endfacet
  facet normal 0 0 1
    outer loop
      vertex 11.0236 73.8216 100
      vertex 14.0774 75.2565 100
      vertex 11.842 76.0701 100
    endloop
  endfacet
  facet normal 0 0 1
    outer loop
      vertex 13.6727 72.0799 100
      vertex 11.0236 73.8216 100
      vertex 12.1303 70.7495 100
    endloop
  endfacet
  facet normal 0 0 1
    outer loop
      vertex 9.26145 69.8917 100
      vertex 11.0236 73.8216 100
      vertex 10.7306 73.9282 100
    endloop
  endfacet
  facet normal 0 0 1
    outer loop
      vertex 11.0236 73.8216 100
      vertex 9.26145 69.8917 100
      vertex 12.1303 70.7495 100
    endloop
  endfacet
  facet normal 0 0 1
    outer loop
      vertex 12.1303 70.7495 100
      vertex 10.3824 69.4837 100
      vertex 10.6551 69.3449 100
    endloop
  endfacet
  facet normal 0 0 1
    outer loop
      vertex 12.1303 70.7495 100
      vertex 9.26145 69.8917 100
      vertex 10.3824 69.4837 100
    endloop
  endfacet
  facet normal 0 0 1
    outer loop
      vertex 10.6551 69.3449 100
      vertex 10.3824 69.4837 100
      vertex 10.1319 68.7954 100
    endloop
  endfacet
  facet normal -0.342021 -0.939692 0
    outer loop
      vertex 13.7091 64.3914 0
      vertex 19.6766 62.2194 100
      vertex 13.7091 64.3914 100
    endloop
  endfacet
  facet normal -0.342021 -0.939692 -0
    outer loop
      vertex 19.6766 62.2194 100
      vertex 13.7091 64.3914 0
      vertex 19.6766 62.2194 0
    endloop
  endfacet
  facet normal 0.939696 -0.342011 0
    outer loop
      vertex 19.6766 62.2194 100
      vertex 20.0347 63.2033 0
      vertex 20.0347 63.2033 100
    endloop
  endfacet
  facet normal 0.939696 -0.342011 0
    outer loop
      vertex 20.0347 63.2033 0
      vertex 19.6766 62.2194 100
      vertex 19.6766 62.2194 0
    endloop
  endfacet
  facet normal -0.341984 -0.939706 0
    outer loop
      vertex 20.0347 63.2033 0
      vertex 21.7224 62.5891 100
      vertex 20.0347 63.2033 100
    endloop
  endfacet
  facet normal -0.341984 -0.939706 -0
    outer loop
      vertex 21.7224 62.5891 100
      vertex 20.0347 63.2033 0
      vertex 21.7224 62.5891 0
    endloop
  endfacet
  facet normal 0.939691 -0.342024 0
    outer loop
      vertex 21.7224 62.5891 100
      vertex 22.2605 64.0675 0
      vertex 22.2605 64.0675 100
    endloop
  endfacet
  facet normal 0.939691 -0.342024 0
    outer loop
      vertex 22.2605 64.0675 0
      vertex 21.7224 62.5891 100
      vertex 21.7224 62.5891 0
    endloop
  endfacet
  facet normal -0.342012 -0.939696 0
    outer loop
      vertex 22.2605 64.0675 0
      vertex 24.4209 63.2812 100
      vertex 22.2605 64.0675 100
    endloop
  endfacet
  facet normal -0.342012 -0.939696 -0
    outer loop
      vertex 24.4209 63.2812 100
      vertex 22.2605 64.0675 0
      vertex 24.4209 63.2812 0
    endloop
  endfacet
  facet normal 0.939692 -0.342021 0
    outer loop
      vertex 24.4209 63.2812 100
      vertex 27.6772 72.2278 0
      vertex 27.6772 72.2278 100
    endloop
  endfacet
  facet normal 0.939692 -0.342021 0
    outer loop
      vertex 27.6772 72.2278 0
      vertex 24.4209 63.2812 100
      vertex 24.4209 63.2812 0
    endloop
  endfacet
  facet normal 0.342009 0.939697 -0
    outer loop
      vertex 27.6772 72.2278 0
      vertex 24.9233 73.2301 100
      vertex 27.6772 72.2278 100
    endloop
  endfacet
  facet normal 0.342009 0.939697 0
    outer loop
      vertex 24.9233 73.2301 100
      vertex 27.6772 72.2278 0
      vertex 24.9233 73.2301 0
    endloop
  endfacet
  facet normal 0.342028 0.93969 -0
    outer loop
      vertex 20.1095 76.4142 0
      vertex 15.1551 78.2175 100
      vertex 20.1095 76.4142 100
    endloop
  endfacet
  facet normal 0.342028 0.93969 0
    outer loop
      vertex 15.1551 78.2175 100
      vertex 20.1095 76.4142 0
      vertex 15.1551 78.2175 0
    endloop
  endfacet
  facet normal -0.939694 0.342016 0
    outer loop
      vertex 14.0774 75.2565 0
      vertex 15.1551 78.2175 100
      vertex 15.1551 78.2175 0
    endloop
  endfacet
  facet normal -0.939694 0.342016 0
    outer loop
      vertex 15.1551 78.2175 100
      vertex 14.0774 75.2565 0
      vertex 14.0774 75.2565 100
    endloop
  endfacet
  facet normal 0.342013 0.939695 -0
    outer loop
      vertex 14.0774 75.2565 0
      vertex 11.842 76.0701 100
      vertex 14.0774 75.2565 100
    endloop
  endfacet
  facet normal 0.342013 0.939695 0
    outer loop
      vertex 11.842 76.0701 100
      vertex 14.0774 75.2565 0
      vertex 11.842 76.0701 0
    endloop
  endfacet
  facet normal -0.939691 0.342025 0
    outer loop
      vertex 11.0236 73.8216 0
      vertex 11.842 76.0701 100
      vertex 11.842 76.0701 0
    endloop
  endfacet
  facet normal -0.939691 0.342025 0
    outer loop
      vertex 11.842 76.0701 100
      vertex 11.0236 73.8216 0
      vertex 11.0236 73.8216 100
    endloop
  endfacet
  facet normal 0.341898 0.939737 -0
    outer loop
      vertex 11.0236 73.8216 0
      vertex 10.7306 73.9282 100
      vertex 11.0236 73.8216 100
    endloop
  endfacet
  facet normal 0.341898 0.939737 0
    outer loop
      vertex 10.7306 73.9282 100
      vertex 11.0236 73.8216 0
      vertex 10.7306 73.9282 0
    endloop
  endfacet
  facet normal -0.939694 0.342017 0
    outer loop
      vertex 9.26145 69.8917 0
      vertex 10.7306 73.9282 100
      vertex 10.7306 73.9282 0
    endloop
  endfacet
  facet normal -0.939694 0.342017 0
    outer loop
      vertex 10.7306 73.9282 100
      vertex 9.26145 69.8917 0
      vertex 9.26145 69.8917 100
    endloop
  endfacet
  facet normal -0.342026 -0.939691 0
    outer loop
      vertex 9.26145 69.8917 0
      vertex 10.3824 69.4837 100
      vertex 9.26145 69.8917 100
    endloop
  endfacet
  facet normal -0.342026 -0.939691 -0
    outer loop
      vertex 10.3824 69.4837 100
      vertex 9.26145 69.8917 0
      vertex 10.3824 69.4837 0
    endloop
  endfacet
  facet normal -0.939702 0.341995 0
    outer loop
      vertex 10.1319 68.7954 0
      vertex 10.3824 69.4837 100
      vertex 10.3824 69.4837 0
    endloop
  endfacet
  facet normal -0.939702 0.341995 0
    outer loop
      vertex 10.3824 69.4837 100
      vertex 10.1319 68.7954 0
      vertex 10.1319 68.7954 100
    endloop
  endfacet
  facet normal -0.34208 -0.939671 0
    outer loop
      vertex 12.8871 64.4329 0
      vertex 13.6263 64.1638 100
      vertex 12.8871 64.4329 100
    endloop
  endfacet
  facet normal -0.34208 -0.939671 -0
    outer loop
      vertex 13.6263 64.1638 100
      vertex 12.8871 64.4329 0
      vertex 13.6263 64.1638 0
    endloop
  endfacet
  facet normal 0.939745 -0.341876 0
    outer loop
      vertex 13.6263 64.1638 100
      vertex 13.7091 64.3914 0
      vertex 13.7091 64.3914 100
    endloop
  endfacet
  facet normal 0.939745 -0.341876 0
    outer loop
      vertex 13.7091 64.3914 0
      vertex 13.6263 64.1638 100
      vertex 13.6263 64.1638 0
    endloop
  endfacet
  facet normal 0 0 -1
    outer loop
      vertex 50.2312 68.2539 0
      vertex 55.6058 72.9956 0
      vertex 55.7785 72.9086 0
    endloop
  endfacet
  facet normal -0 0 -1
    outer loop
      vertex 55.6058 72.9956 0
      vertex 50.2312 68.2539 0
      vertex 53.9679 73.7216 0
    endloop
  endfacet
  facet normal -0 0 -1
    outer loop
      vertex 53.9679 73.7216 0
      vertex 50.2312 68.2539 0
      vertex 52.2965 74.3664 0
    endloop
  endfacet
  facet normal 0 0 -1
    outer loop
      vertex 52.2965 74.3664 0
      vertex 50.2312 68.2539 0
      vertex 48.7534 70.015 0
    endloop
  endfacet
  facet normal -0 0 -1
    outer loop
      vertex 52.2965 74.3664 0
      vertex 48.7534 70.015 0
      vertex 50.5954 74.9283 0
    endloop
  endfacet
  facet normal -0 0 -1
    outer loop
      vertex 50.5954 74.9283 0
      vertex 48.7534 70.015 0
      vertex 48.8688 75.4061 0
    endloop
  endfacet
  facet normal 0 0 -1
    outer loop
      vertex 48.0409 69.9249 0
      vertex 48.7534 70.015 0
      vertex 48.2909 69.627 0
    endloop
  endfacet
  facet normal -0 0 -1
    outer loop
      vertex 48.7534 70.015 0
      vertex 48.0409 69.9249 0
      vertex 48.8688 75.4061 0
    endloop
  endfacet
  facet normal 0 0 -1
    outer loop
      vertex 48.0409 69.9249 0
      vertex 47.1208 75.7987 0
      vertex 48.8688 75.4061 0
    endloop
  endfacet
  facet normal 0 0 -1
    outer loop
      vertex 48.0409 69.9249 0
      vertex 45.3557 76.1049 0
      vertex 47.1208 75.7987 0
    endloop
  endfacet
  facet normal 0 0 -1
    outer loop
      vertex 44.2195 68.5551 0
      vertex 48.0409 69.9249 0
      vertex 45.1239 67.4773 0
    endloop
  endfacet
  facet normal -0 0 -1
    outer loop
      vertex 48.0409 69.9249 0
      vertex 44.2195 68.5551 0
      vertex 45.3557 76.1049 0
    endloop
  endfacet
  facet normal 0 0 -1
    outer loop
      vertex 41.9421 69.3721 0
      vertex 45.3557 76.1049 0
      vertex 44.2195 68.5551 0
    endloop
  endfacet
  facet normal 0 0 -1
    outer loop
      vertex 41.9421 69.3721 0
      vertex 44.2195 68.5551 0
      vertex 43.2854 67.7713 0
    endloop
  endfacet
  facet normal -0 0 -1
    outer loop
      vertex 45.3557 76.1049 0
      vertex 41.9421 69.3721 0
      vertex 43.5776 76.3242 0
    endloop
  endfacet
  facet normal 0 0 -1
    outer loop
      vertex 40.394 70.8274 0
      vertex 43.5776 76.3242 0
      vertex 41.9421 69.3721 0
    endloop
  endfacet
  facet normal 0 0 -1
    outer loop
      vertex 40.394 70.8274 0
      vertex 41.9421 69.3721 0
      vertex 41.7502 69.2111 0
    endloop
  endfacet
  facet normal -0 0 -1
    outer loop
      vertex 43.5776 76.3242 0
      vertex 40.394 70.8274 0
      vertex 41.791 76.456 0
    endloop
  endfacet
  facet normal 0 0 -1
    outer loop
      vertex 40.394 70.8274 0
      vertex 40 76.5 0
      vertex 41.791 76.456 0
    endloop
  endfacet
  facet normal 0 0 -1
    outer loop
      vertex 38.209 76.456 0
      vertex 40.394 70.8274 0
      vertex 39.8994 70.4124 0
    endloop
  endfacet
  facet normal 0 0 -1
    outer loop
      vertex 40.394 70.8274 0
      vertex 38.209 76.456 0
      vertex 40 76.5 0
    endloop
  endfacet
  facet normal 0 0 -1
    outer loop
      vertex 35.4979 75.658 0
      vertex 38.209 76.456 0
      vertex 39.8994 70.4124 0
    endloop
  endfacet
  facet normal 0 0 -1
    outer loop
      vertex 38.209 76.456 0
      vertex 35.4979 75.658 0
      vertex 36.4224 76.3242 0
    endloop
  endfacet
  facet normal 0 0 -1
    outer loop
      vertex 36.4224 76.3242 0
      vertex 35.4979 75.658 0
      vertex 36.2694 76.3054 0
    endloop
  endfacet
  facet normal 0 0 -1
    outer loop
      vertex 52.0468 79.713 0
      vertex 51.4047 81.6671 0
      vertex 53.4269 79.2571 0
    endloop
  endfacet
  facet normal 0 0 -1
    outer loop
      vertex 50.0837 80.2563 0
      vertex 51.4047 81.6671 0
      vertex 52.0468 79.713 0
    endloop
  endfacet
  facet normal 0 0 -1
    outer loop
      vertex 51.4047 81.6671 0
      vertex 50.0837 80.2563 0
      vertex 49.7995 80.3201 0
    endloop
  endfacet
  facet normal 0 0 -1
    outer loop
      vertex 44.0677 81.3002 0
      vertex 43.2584 83.9502 0
      vertex 45.6454 81.1056 0
    endloop
  endfacet
  facet normal 0 0 -1
    outer loop
      vertex 42.0363 81.45 0
      vertex 43.2584 83.9502 0
      vertex 44.0677 81.3002 0
    endloop
  endfacet
  facet normal 0 0 -1
    outer loop
      vertex 43.2584 83.9502 0
      vertex 42.0363 81.45 0
      vertex 40.3287 81.4919 0
    endloop
  endfacet
  facet normal 0 0 1
    outer loop
      vertex 50.2312 68.2539 100
      vertex 55.6058 72.9956 100
      vertex 53.9679 73.7216 100
    endloop
  endfacet
  facet normal 0 0 1
    outer loop
      vertex 50.2312 68.2539 100
      vertex 53.9679 73.7216 100
      vertex 52.2965 74.3664 100
    endloop
  endfacet
  facet normal 0 0 1
    outer loop
      vertex 48.7534 70.015 100
      vertex 52.2965 74.3664 100
      vertex 50.5954 74.9283 100
    endloop
  endfacet
  facet normal 0 -0 1
    outer loop
      vertex 50.2312 68.2539 100
      vertex 52.2965 74.3664 100
      vertex 48.7534 70.015 100
    endloop
  endfacet
  facet normal 0 0 1
    outer loop
      vertex 48.7534 70.015 100
      vertex 50.5954 74.9283 100
      vertex 48.8688 75.4061 100
    endloop
  endfacet
  facet normal 0 0 1
    outer loop
      vertex 55.6058 72.9956 100
      vertex 50.2312 68.2539 100
      vertex 55.7785 72.9086 100
    endloop
  endfacet
  facet normal 0 0 1
    outer loop
      vertex 48.0409 69.9249 100
      vertex 48.7534 70.015 100
      vertex 48.8688 75.4061 100
    endloop
  endfacet
  facet normal 0 0 1
    outer loop
      vertex 48.7534 70.015 100
      vertex 48.0409 69.9249 100
      vertex 48.2909 69.627 100
    endloop
  endfacet
  facet normal 0 0 1
    outer loop
      vertex 47.1208 75.7987 100
      vertex 48.0409 69.9249 100
      vertex 48.8688 75.4061 100
    endloop
  endfacet
  facet normal 0 0 1
    outer loop
      vertex 45.3557 76.1049 100
      vertex 48.0409 69.9249 100
      vertex 47.1208 75.7987 100
    endloop
  endfacet
  facet normal 0 0 1
    outer loop
      vertex 44.2195 68.5551 100
      vertex 48.0409 69.9249 100
      vertex 45.3557 76.1049 100
    endloop
  endfacet
  facet normal 0 0 1
    outer loop
      vertex 48.0409 69.9249 100
      vertex 44.2195 68.5551 100
      vertex 45.1239 67.4773 100
    endloop
  endfacet
  facet normal 0 0 1
    outer loop
      vertex 41.9421 69.3721 100
      vertex 45.3557 76.1049 100
      vertex 43.5776 76.3242 100
    endloop
  endfacet
  facet normal 0 0 1
    outer loop
      vertex 45.3557 76.1049 100
      vertex 41.9421 69.3721 100
      vertex 44.2195 68.5551 100
    endloop
  endfacet
  facet normal 0 0 1
    outer loop
      vertex 44.2195 68.5551 100
      vertex 41.9421 69.3721 100
      vertex 43.2854 67.7713 100
    endloop
  endfacet
  facet normal 0 0 1
    outer loop
      vertex 40.394 70.8274 100
      vertex 43.5776 76.3242 100
      vertex 41.791 76.456 100
    endloop
  endfacet
  facet normal 0 0 1
    outer loop
      vertex 43.5776 76.3242 100
      vertex 40.394 70.8274 100
      vertex 41.9421 69.3721 100
    endloop
  endfacet
  facet normal 0 0 1
    outer loop
      vertex 41.9421 69.3721 100
      vertex 40.394 70.8274 100
      vertex 41.7502 69.2111 100
    endloop
  endfacet
  facet normal 0 0 1
    outer loop
      vertex 40 76.5 100
      vertex 40.394 70.8274 100
      vertex 41.791 76.456 100
    endloop
  endfacet
  facet normal -0 0 1
    outer loop
      vertex 38.209 76.456 100
      vertex 40.394 70.8274 100
      vertex 40 76.5 100
    endloop
  endfacet
  facet normal 0 0 1
    outer loop
      vertex 40.394 70.8274 100
      vertex 38.209 76.456 100
      vertex 39.8994 70.4124 100
    endloop
  endfacet
  facet normal 0 0 1
    outer loop
      vertex 35.4979 75.658 100
      vertex 38.209 76.456 100
      vertex 36.4224 76.3242 100
    endloop
  endfacet
  facet normal 0 0 1
    outer loop
      vertex 35.4979 75.658 100
      vertex 36.4224 76.3242 100
      vertex 36.2694 76.3054 100
    endloop
  endfacet
  facet normal 0 0 1
    outer loop
      vertex 38.209 76.456 100
      vertex 35.4979 75.658 100
      vertex 39.8994 70.4124 100
    endloop
  endfacet
  facet normal 0 0 1
    outer loop
      vertex 51.4047 81.6671 100
      vertex 52.0468 79.713 100
      vertex 53.4269 79.2571 100
    endloop
  endfacet
  facet normal 0 0 1
    outer loop
      vertex 51.4047 81.6671 100
      vertex 50.0837 80.2563 100
      vertex 52.0468 79.713 100
    endloop
  endfacet
  facet normal 0 -0 1
    outer loop
      vertex 50.0837 80.2563 100
      vertex 51.4047 81.6671 100
      vertex 49.7995 80.3201 100
    endloop
  endfacet
  facet normal 0 0 1
    outer loop
      vertex 43.2584 83.9502 100
      vertex 44.0677 81.3002 100
      vertex 45.6454 81.1056 100
    endloop
  endfacet
  facet normal 0 0 1
    outer loop
      vertex 43.2584 83.9502 100
      vertex 42.0363 81.45 100
      vertex 44.0677 81.3002 100
    endloop
  endfacet
  facet normal 0 -0 1
    outer loop
      vertex 42.0363 81.45 100
      vertex 43.2584 83.9502 100
      vertex 40.3287 81.4919 100
    endloop
  endfacet
  facet normal -0.766053 -0.642777 0
    outer loop
      vertex 41.7502 69.2111 0
      vertex 40.394 70.8274 100
      vertex 40.394 70.8274 0
    endloop
  endfacet
  facet normal -0.766053 -0.642777 0
    outer loop
      vertex 40.394 70.8274 100
      vertex 41.7502 69.2111 0
      vertex 41.7502 69.2111 100
    endloop
  endfacet
  facet normal 0.642733 -0.76609 0
    outer loop
      vertex 41.7502 69.2111 0
      vertex 41.9421 69.3721 100
      vertex 41.7502 69.2111 100
    endloop
  endfacet
  facet normal 0.642733 -0.76609 0
    outer loop
      vertex 41.9421 69.3721 100
      vertex 41.7502 69.2111 0
      vertex 41.9421 69.3721 0
    endloop
  endfacet
  facet normal -0.766028 -0.642807 0
    outer loop
      vertex 43.2854 67.7713 0
      vertex 41.9421 69.3721 100
      vertex 41.9421 69.3721 0
    endloop
  endfacet
  facet normal -0.766028 -0.642807 0
    outer loop
      vertex 41.9421 69.3721 100
      vertex 43.2854 67.7713 0
      vertex 43.2854 67.7713 100
    endloop
  endfacet
  facet normal 0.642786 -0.766046 0
    outer loop
      vertex 43.2854 67.7713 0
      vertex 44.2195 68.5551 100
      vertex 43.2854 67.7713 100
    endloop
  endfacet
  facet normal 0.642786 -0.766046 0
    outer loop
      vertex 44.2195 68.5551 100
      vertex 43.2854 67.7713 0
      vertex 44.2195 68.5551 0
    endloop
  endfacet
  facet normal -0.766038 -0.642795 0
    outer loop
      vertex 45.1239 67.4773 0
      vertex 44.2195 68.5551 100
      vertex 44.2195 68.5551 0
    endloop
  endfacet
  facet normal -0.766038 -0.642795 0
    outer loop
      vertex 44.2195 68.5551 100
      vertex 45.1239 67.4773 0
      vertex 45.1239 67.4773 100
    endloop
  endfacet
  facet normal 0.642779 -0.766051 0
    outer loop
      vertex 45.1239 67.4773 0
      vertex 48.0409 69.9249 100
      vertex 45.1239 67.4773 100
    endloop
  endfacet
  facet normal 0.642779 -0.766051 0
    outer loop
      vertex 48.0409 69.9249 100
      vertex 45.1239 67.4773 0
      vertex 48.0409 69.9249 0
    endloop
  endfacet
  facet normal -0.766004 -0.642836 0
    outer loop
      vertex 48.2909 69.627 0
      vertex 48.0409 69.9249 100
      vertex 48.0409 69.9249 0
    endloop
  endfacet
  facet normal -0.766004 -0.642836 0
    outer loop
      vertex 48.0409 69.9249 100
      vertex 48.2909 69.627 0
      vertex 48.2909 69.627 100
    endloop
  endfacet
  facet normal 0.642706 -0.766113 0
    outer loop
      vertex 48.2909 69.627 0
      vertex 48.7534 70.015 100
      vertex 48.2909 69.627 100
    endloop
  endfacet
  facet normal 0.642706 -0.766113 0
    outer loop
      vertex 48.7534 70.015 100
      vertex 48.2909 69.627 0
      vertex 48.7534 70.015 0
    endloop
  endfacet
  facet normal -0.766031 -0.642803 0
    outer loop
      vertex 50.2312 68.2539 0
      vertex 48.7534 70.015 100
      vertex 48.7534 70.015 0
    endloop
  endfacet
  facet normal -0.766031 -0.642803 0
    outer loop
      vertex 48.7534 70.015 100
      vertex 50.2312 68.2539 0
      vertex 50.2312 68.2539 100
    endloop
  endfacet
  facet normal 0.642785 -0.766047 0
    outer loop
      vertex 50.2312 68.2539 0
      vertex 55.7785 72.9086 100
      vertex 50.2312 68.2539 100
    endloop
  endfacet
  facet normal 0.642785 -0.766047 0
    outer loop
      vertex 55.7785 72.9086 100
      vertex 50.2312 68.2539 0
      vertex 55.7785 72.9086 0
    endloop
  endfacet
  facet normal 0.766049 0.642782 0
    outer loop
      vertex 53.4269 79.2571 100
      vertex 51.4047 81.6671 0
      vertex 51.4047 81.6671 100
    endloop
  endfacet
  facet normal 0.766049 0.642782 0
    outer loop
      vertex 51.4047 81.6671 0
      vertex 53.4269 79.2571 100
      vertex 53.4269 79.2571 0
    endloop
  endfacet
  facet normal -0.642809 0.766026 0
    outer loop
      vertex 51.4047 81.6671 0
      vertex 49.7995 80.3201 100
      vertex 51.4047 81.6671 100
    endloop
  endfacet
  facet normal -0.642809 0.766026 0
    outer loop
      vertex 49.7995 80.3201 100
      vertex 51.4047 81.6671 0
      vertex 49.7995 80.3201 0
    endloop
  endfacet
  facet normal 0.766032 0.642803 0
    outer loop
      vertex 45.6454 81.1056 100
      vertex 43.2584 83.9502 0
      vertex 43.2584 83.9502 100
    endloop
  endfacet
  facet normal 0.766032 0.642803 0
    outer loop
      vertex 43.2584 83.9502 0
      vertex 45.6454 81.1056 100
      vertex 45.6454 81.1056 0
    endloop
  endfacet
  facet normal -0.642786 0.766046 0
    outer loop
      vertex 43.2584 83.9502 0
      vertex 40.3287 81.4919 100
      vertex 43.2584 83.9502 100
    endloop
  endfacet
  facet normal -0.642786 0.766046 0
    outer loop
      vertex 40.3287 81.4919 100
      vertex 43.2584 83.9502 0
      vertex 40.3287 81.4919 0
    endloop
  endfacet
  facet normal -0.642808 0.766028 0
    outer loop
      vertex 36.2694 76.3054 0
      vertex 35.4979 75.658 100
      vertex 36.2694 76.3054 100
    endloop
  endfacet
  facet normal -0.642808 0.766028 0
    outer loop
      vertex 35.4979 75.658 100
      vertex 36.2694 76.3054 0
      vertex 35.4979 75.658 0
    endloop
  endfacet
  facet normal -0.76605 -0.642781 0
    outer loop
      vertex 39.8994 70.4124 0
      vertex 35.4979 75.658 100
      vertex 35.4979 75.658 0
    endloop
  endfacet
  facet normal -0.76605 -0.642781 0
    outer loop
      vertex 35.4979 75.658 100
      vertex 39.8994 70.4124 0
      vertex 39.8994 70.4124 100
    endloop
  endfacet
  facet normal 0.642771 -0.766059 0
    outer loop
      vertex 39.8994 70.4124 0
      vertex 40.394 70.8274 100
      vertex 39.8994 70.4124 100
    endloop
  endfacet
  facet normal 0.642771 -0.766059 0
    outer loop
      vertex 40.394 70.8274 100
      vertex 39.8994 70.4124 0
      vertex 40.394 70.8274 0
    endloop
  endfacet
  facet normal 0.98481 -0.173637 0
    outer loop
      vertex 46.4059 75.9227 15.5
      vertex 46.5792 76.9056 14.5
      vertex 46.5792 76.9056 15.5
    endloop
  endfacet
  facet normal 0.98481 -0.173637 0
    outer loop
      vertex 46.5792 76.9056 14.5
      vertex 46.4059 75.9227 15.5
      vertex 46.4059 75.9227 14.5
    endloop
  endfacet
  facet normal 0 0 1
    outer loop
      vertex 46.5792 76.9056 15.5
      vertex 45.6965 76.0458 15.5
      vertex 46.4059 75.9227 15.5
    endloop
  endfacet
  facet normal 0 0 1
    outer loop
      vertex 45.5944 77.0792 15.5
      vertex 45.6965 76.0458 15.5
      vertex 46.5792 76.9056 15.5
    endloop
  endfacet
  facet normal 0 0 1
    outer loop
      vertex 45.6965 76.0458 15.5
      vertex 45.5944 77.0792 15.5
      vertex 45.4208 76.0944 15.5
    endloop
  endfacet
  facet normal 0 0 -1
    outer loop
      vertex 45.6965 76.0458 14.5
      vertex 46.5792 76.9056 14.5
      vertex 46.4059 75.9227 14.5
    endloop
  endfacet
  facet normal 0 0 -1
    outer loop
      vertex 45.6965 76.0458 14.5
      vertex 45.5944 77.0792 14.5
      vertex 46.5792 76.9056 14.5
    endloop
  endfacet
  facet normal 0 -0 -1
    outer loop
      vertex 45.5944 77.0792 14.5
      vertex 45.6965 76.0458 14.5
      vertex 45.4208 76.0944 14.5
    endloop
  endfacet
  facet normal -0.984816 0.173603 0
    outer loop
      vertex 45.4208 76.0944 14.5
      vertex 45.5944 77.0792 15.5
      vertex 45.5944 77.0792 14.5
    endloop
  endfacet
  facet normal -0.984816 0.173603 0
    outer loop
      vertex 45.5944 77.0792 15.5
      vertex 45.4208 76.0944 14.5
      vertex 45.4208 76.0944 15.5
    endloop
  endfacet
  facet normal 0.173603 0.984816 -0
    outer loop
      vertex 46.5792 76.9056 14.5
      vertex 45.5944 77.0792 15.5
      vertex 46.5792 76.9056 15.5
    endloop
  endfacet
  facet normal 0.173603 0.984816 0
    outer loop
      vertex 45.5944 77.0792 15.5
      vertex 46.5792 76.9056 14.5
      vertex 45.5944 77.0792 14.5
    endloop
  endfacet
  facet normal -0.173602 -0.984816 0
    outer loop
      vertex 45.4208 76.0944 14.5
      vertex 45.6965 76.0458 15.5
      vertex 45.4208 76.0944 15.5
    endloop
  endfacet
  facet normal -0.173602 -0.984816 -0
    outer loop
      vertex 45.6965 76.0458 15.5
      vertex 45.4208 76.0944 14.5
      vertex 45.6965 76.0458 14.5
    endloop
  endfacet
  facet normal 0.98481 -0.173637 0
    outer loop
      vertex 46.4059 75.9227 85.5
      vertex 46.5792 76.9056 84.5
      vertex 46.5792 76.9056 85.5
    endloop
  endfacet
  facet normal 0.98481 -0.173637 0
    outer loop
      vertex 46.5792 76.9056 84.5
      vertex 46.4059 75.9227 85.5
      vertex 46.4059 75.9227 84.5
    endloop
  endfacet
  facet normal 0 0 1
    outer loop
      vertex 46.5792 76.9056 85.5
      vertex 45.6965 76.0458 85.5
      vertex 46.4059 75.9227 85.5
    endloop
  endfacet
  facet normal 0 0 1
    outer loop
      vertex 45.5944 77.0792 85.5
      vertex 45.6965 76.0458 85.5
      vertex 46.5792 76.9056 85.5
    endloop
  endfacet
  facet normal 0 0 1
    outer loop
      vertex 45.6965 76.0458 85.5
      vertex 45.5944 77.0792 85.5
      vertex 45.4208 76.0944 85.5
    endloop
  endfacet
  facet normal 0 0 -1
    outer loop
      vertex 45.6965 76.0458 84.5
      vertex 46.5792 76.9056 84.5
      vertex 46.4059 75.9227 84.5
    endloop
  endfacet
  facet normal 0 0 -1
    outer loop
      vertex 45.6965 76.0458 84.5
      vertex 45.5944 77.0792 84.5
      vertex 46.5792 76.9056 84.5
    endloop
  endfacet
  facet normal 0 -0 -1
    outer loop
      vertex 45.5944 77.0792 84.5
      vertex 45.6965 76.0458 84.5
      vertex 45.4208 76.0944 84.5
    endloop
  endfacet
  facet normal -0.984816 0.173603 0
    outer loop
      vertex 45.4208 76.0944 84.5
      vertex 45.5944 77.0792 85.5
      vertex 45.5944 77.0792 84.5
    endloop
  endfacet
  facet normal -0.984816 0.173603 0
    outer loop
      vertex 45.5944 77.0792 85.5
      vertex 45.4208 76.0944 84.5
      vertex 45.4208 76.0944 85.5
    endloop
  endfacet
  facet normal 0.173603 0.984816 -0
    outer loop
      vertex 46.5792 76.9056 84.5
      vertex 45.5944 77.0792 85.5
      vertex 46.5792 76.9056 85.5
    endloop
  endfacet
  facet normal 0.173603 0.984816 0
    outer loop
      vertex 45.5944 77.0792 85.5
      vertex 46.5792 76.9056 84.5
      vertex 45.5944 77.0792 84.5
    endloop
  endfacet
  facet normal -0.173602 -0.984816 0
    outer loop
      vertex 45.4208 76.0944 84.5
      vertex 45.6965 76.0458 85.5
      vertex 45.4208 76.0944 85.5
    endloop
  endfacet
  facet normal -0.173602 -0.984816 -0
    outer loop
      vertex 45.6965 76.0458 85.5
      vertex 45.4208 76.0944 84.5
      vertex 45.6965 76.0458 84.5
    endloop
  endfacet
  facet normal 0 0 1
    outer loop
      vertex 19.1228 71.0964 15.5
      vertex 18.8536 69.7373 15.5
      vertex 19.6712 70.3131 15.5
    endloop
  endfacet
  facet normal 0 -0 1
    outer loop
      vertex 18.8536 69.7373 15.5
      vertex 19.1228 71.0964 15.5
      vertex 18.3036 70.5228 15.5
    endloop
  endfacet
  facet normal -0.819158 -0.573567 0
    outer loop
      vertex 18.8536 69.7373 14.5
      vertex 18.3036 70.5228 15.5
      vertex 18.3036 70.5228 14.5
    endloop
  endfacet
  facet normal -0.819158 -0.573567 0
    outer loop
      vertex 18.3036 70.5228 15.5
      vertex 18.8536 69.7373 14.5
      vertex 18.8536 69.7373 15.5
    endloop
  endfacet
  facet normal -0.57357 0.819157 0
    outer loop
      vertex 19.1228 71.0964 14.5
      vertex 18.3036 70.5228 15.5
      vertex 19.1228 71.0964 15.5
    endloop
  endfacet
  facet normal -0.57357 0.819157 0
    outer loop
      vertex 18.3036 70.5228 15.5
      vertex 19.1228 71.0964 14.5
      vertex 18.3036 70.5228 14.5
    endloop
  endfacet
  facet normal 0 0 -1
    outer loop
      vertex 18.8536 69.7373 14.5
      vertex 19.1228 71.0964 14.5
      vertex 19.6712 70.3131 14.5
    endloop
  endfacet
  facet normal 0 0 -1
    outer loop
      vertex 19.1228 71.0964 14.5
      vertex 18.8536 69.7373 14.5
      vertex 18.3036 70.5228 14.5
    endloop
  endfacet
  facet normal 0.819188 0.573526 0
    outer loop
      vertex 19.6712 70.3131 15.5
      vertex 19.1228 71.0964 14.5
      vertex 19.1228 71.0964 15.5
    endloop
  endfacet
  facet normal 0.819188 0.573526 0
    outer loop
      vertex 19.1228 71.0964 14.5
      vertex 19.6712 70.3131 15.5
      vertex 19.6712 70.3131 14.5
    endloop
  endfacet
  facet normal 0 0 1
    outer loop
      vertex 19.1228 71.0964 85.5
      vertex 18.8536 69.7373 85.5
      vertex 19.6712 70.3131 85.5
    endloop
  endfacet
  facet normal 0 -0 1
    outer loop
      vertex 18.8536 69.7373 85.5
      vertex 19.1228 71.0964 85.5
      vertex 18.3036 70.5228 85.5
    endloop
  endfacet
  facet normal -0.819158 -0.573567 0
    outer loop
      vertex 18.8536 69.7373 84.5
      vertex 18.3036 70.5228 85.5
      vertex 18.3036 70.5228 84.5
    endloop
  endfacet
  facet normal -0.819158 -0.573567 0
    outer loop
      vertex 18.3036 70.5228 85.5
      vertex 18.8536 69.7373 84.5
      vertex 18.8536 69.7373 85.5
    endloop
  endfacet
  facet normal -0.57357 0.819157 0
    outer loop
      vertex 19.1228 71.0964 84.5
      vertex 18.3036 70.5228 85.5
      vertex 19.1228 71.0964 85.5
    endloop
  endfacet
  facet normal -0.57357 0.819157 0
    outer loop
      vertex 18.3036 70.5228 85.5
      vertex 19.1228 71.0964 84.5
      vertex 18.3036 70.5228 84.5
    endloop
  endfacet
  facet normal 0 0 -1
    outer loop
      vertex 18.8536 69.7373 84.5
      vertex 19.1228 71.0964 84.5
      vertex 19.6712 70.3131 84.5
    endloop
  endfacet
  facet normal 0 0 -1
    outer loop
      vertex 19.1228 71.0964 84.5
      vertex 18.8536 69.7373 84.5
      vertex 18.3036 70.5228 84.5
    endloop
  endfacet
  facet normal 0.819188 0.573526 0
    outer loop
      vertex 19.6712 70.3131 85.5
      vertex 19.1228 71.0964 84.5
      vertex 19.1228 71.0964 85.5
    endloop
  endfacet
  facet normal 0.819188 0.573526 0
    outer loop
      vertex 19.1228 71.0964 84.5
      vertex 19.6712 70.3131 85.5
      vertex 19.6712 70.3131 84.5
    endloop
  endfacet
endsolid OpenSCAD_Model
