solid OpenSCAD_Model
  facet normal 0 0 1
    outer loop
      vertex -8 -2 2.5
      vertex -11.0984 -3 2.5
      vertex -8 -3 2.5
    endloop
  endfacet
  facet normal 0 0 1
    outer loop
      vertex -8 -2 2.5
      vertex -11.1554 -2.79427 2.5
      vertex -11.0984 -3 2.5
    endloop
  endfacet
  facet normal 0 0 1
    outer loop
      vertex -8 -2 2.5
      vertex -11.279 -2.24354 2.5
      vertex -11.1554 -2.79427 2.5
    endloop
  endfacet
  facet normal 0 -0 1
    outer loop
      vertex -11.279 -2.24354 2.5
      vertex -8 -2 2.5
      vertex -11.3213 -2 2.5
    endloop
  endfacet
  facet normal 0 0 1
    outer loop
      vertex -8.52094 7.72293 2.5
      vertex -8 8 2.5
      vertex -8.25714 8 2.5
    endloop
  endfacet
  facet normal 0 0 1
    outer loop
      vertex -8 8 2.5
      vertex -8.52094 7.72293 2.5
      vertex -8 7 2.5
    endloop
  endfacet
  facet normal -0 0 1
    outer loop
      vertex -8.88962 7.29552 2.5
      vertex -8 7 2.5
      vertex -8.52094 7.72293 2.5
    endloop
  endfacet
  facet normal 0 0 1
    outer loop
      vertex -8 7 2.5
      vertex -8.88962 7.29552 2.5
      vertex -9.12025 7 2.5
    endloop
  endfacet
  facet normal -0 0 1
    outer loop
      vertex -7.29552 8.88962 2.5
      vertex -7 8 2.5
      vertex -7 9.12025 2.5
    endloop
  endfacet
  facet normal -0 0 1
    outer loop
      vertex -7.72293 8.52094 2.5
      vertex -7 8 2.5
      vertex -7.29552 8.88962 2.5
    endloop
  endfacet
  facet normal 0 0 1
    outer loop
      vertex -7 7 2.5
      vertex -8 7 2.5
      vertex -7 -2 2.5
    endloop
  endfacet
  facet normal 0 0 1
    outer loop
      vertex -8 -2 2.5
      vertex -7 -2 2.5
      vertex -8 7 2.5
    endloop
  endfacet
  facet normal 0 0 1
    outer loop
      vertex -8 8 2.5
      vertex -7 8 2.5
      vertex -7.72293 8.52094 2.5
    endloop
  endfacet
  facet normal 0 0 1
    outer loop
      vertex -8 -3 2.5
      vertex -7 -3 2.5
      vertex -8 -2 2.5
    endloop
  endfacet
  facet normal 0 0 1
    outer loop
      vertex -7 8 2.5
      vertex -8 8 2.5
      vertex -7 7 2.5
    endloop
  endfacet
  facet normal 0 0 1
    outer loop
      vertex -8 -8.25714 2.5
      vertex -7 -3 2.5
      vertex -8 -3 2.5
    endloop
  endfacet
  facet normal 0 0 1
    outer loop
      vertex -8 8 2.5
      vertex -7.72293 8.52094 2.5
      vertex -8 8.25714 2.5
    endloop
  endfacet
  facet normal 0 0 1
    outer loop
      vertex -7 7 2.5
      vertex -8 8 2.5
      vertex -8 7 2.5
    endloop
  endfacet
  facet normal 0 0 1
    outer loop
      vertex -7 -2 2.5
      vertex -8 -2 2.5
      vertex -7 -3 2.5
    endloop
  endfacet
  facet normal 0 0 1
    outer loop
      vertex -7 -3 2.5
      vertex -7.29552 -8.88962 2.5
      vertex -7 -9.12025 2.5
    endloop
  endfacet
  facet normal 0 0 1
    outer loop
      vertex -7 -3 2.5
      vertex -7.72293 -8.52094 2.5
      vertex -7.29552 -8.88962 2.5
    endloop
  endfacet
  facet normal 0 0 1
    outer loop
      vertex -7 -3 2.5
      vertex -8 -8.25714 2.5
      vertex -7.72293 -8.52094 2.5
    endloop
  endfacet
  facet normal -0 0 1
    outer loop
      vertex -7 -2 2.5
      vertex 2 -3 2.5
      vertex 2 -2 2.5
    endloop
  endfacet
  facet normal 0 0 1
    outer loop
      vertex 2 -3 2.5
      vertex -7 -2 2.5
      vertex -7 -3 2.5
    endloop
  endfacet
  facet normal -0 0 1
    outer loop
      vertex -7 8 2.5
      vertex 2 7 2.5
      vertex 2 8 2.5
    endloop
  endfacet
  facet normal 0 0 1
    outer loop
      vertex 2 7 2.5
      vertex -7 8 2.5
      vertex -7 7 2.5
    endloop
  endfacet
  facet normal 0 0 1
    outer loop
      vertex 2 8 2.5
      vertex 3 8 2.5
      vertex 3 11.0984 2.5
    endloop
  endfacet
  facet normal 0 0 1
    outer loop
      vertex 3 8 2.5
      vertex 2 8 2.5
      vertex 3 7 2.5
    endloop
  endfacet
  facet normal 0 0 1
    outer loop
      vertex 3 7 2.5
      vertex 2 7 2.5
      vertex 3 -2 2.5
    endloop
  endfacet
  facet normal 0 0 1
    outer loop
      vertex 2 -2 2.5
      vertex 3 -2 2.5
      vertex 2 7 2.5
    endloop
  endfacet
  facet normal 0 0 1
    outer loop
      vertex 2 8 2.5
      vertex 3 11.0984 2.5
      vertex 2.79427 11.1554 2.5
    endloop
  endfacet
  facet normal 0 0 1
    outer loop
      vertex 2 -3 2.5
      vertex 3 -3 2.5
      vertex 2 -2 2.5
    endloop
  endfacet
  facet normal 0 0 1
    outer loop
      vertex 2 8 2.5
      vertex 2.79427 11.1554 2.5
      vertex 2.24354 11.279 2.5
    endloop
  endfacet
  facet normal 0 0 1
    outer loop
      vertex 3 -3 2.5
      vertex 2 -3 2.5
      vertex 3 -11.0984 2.5
    endloop
  endfacet
  facet normal 0 0 1
    outer loop
      vertex 2 8 2.5
      vertex 2.24354 11.279 2.5
      vertex 2 11.3213 2.5
    endloop
  endfacet
  facet normal 0 0 1
    outer loop
      vertex 3 7 2.5
      vertex 2 8 2.5
      vertex 2 7 2.5
    endloop
  endfacet
  facet normal 0 0 1
    outer loop
      vertex 3 -2 2.5
      vertex 2 -2 2.5
      vertex 3 -3 2.5
    endloop
  endfacet
  facet normal 0 0 1
    outer loop
      vertex 3 -11.0984 2.5
      vertex 2 -3 2.5
      vertex 2.79427 -11.1554 2.5
    endloop
  endfacet
  facet normal 0 0 1
    outer loop
      vertex 2.79427 -11.1554 2.5
      vertex 2 -3 2.5
      vertex 2.24354 -11.279 2.5
    endloop
  endfacet
  facet normal 0 0 1
    outer loop
      vertex 2.24354 -11.279 2.5
      vertex 2 -3 2.5
      vertex 2 -11.3213 2.5
    endloop
  endfacet
  facet normal 0 0 1
    outer loop
      vertex 3 7 2.5
      vertex 8.88962 7.29552 2.5
      vertex 8.52094 7.72293 2.5
    endloop
  endfacet
  facet normal 0 0 1
    outer loop
      vertex 3 7 2.5
      vertex 8.52094 7.72293 2.5
      vertex 8.25714 8 2.5
    endloop
  endfacet
  facet normal 0 0 1
    outer loop
      vertex 3 7 2.5
      vertex 8.25714 8 2.5
      vertex 3 8 2.5
    endloop
  endfacet
  facet normal 0 0 1
    outer loop
      vertex 8.88962 7.29552 2.5
      vertex 3 7 2.5
      vertex 9.12025 7 2.5
    endloop
  endfacet
  facet normal -0 0 1
    outer loop
      vertex 3 -2 2.5
      vertex 11.279 -2.24354 2.5
      vertex 11.3213 -2 2.5
    endloop
  endfacet
  facet normal 0 0 1
    outer loop
      vertex 11.279 -2.24354 2.5
      vertex 3 -2 2.5
      vertex 11.1554 -2.79427 2.5
    endloop
  endfacet
  facet normal 0 0 1
    outer loop
      vertex 11.1554 -2.79427 2.5
      vertex 3 -2 2.5
      vertex 11.0984 -3 2.5
    endloop
  endfacet
  facet normal 0 0 1
    outer loop
      vertex 11.0984 -3 2.5
      vertex 3 -2 2.5
      vertex 3 -3 2.5
    endloop
  endfacet
  facet normal 0 -1 0
    outer loop
      vertex -8.25714 8 2.5
      vertex -8 8 3
      vertex -8.25714 8 3
    endloop
  endfacet
  facet normal 0 -1 -0
    outer loop
      vertex -8 8 3
      vertex -8.25714 8 2.5
      vertex -8 8 2.5
    endloop
  endfacet
  facet normal 0 -1 0
    outer loop
      vertex 3 8 2.5
      vertex 8.25714 8 3
      vertex 3 8 3
    endloop
  endfacet
  facet normal 0 -1 -0
    outer loop
      vertex 8.25714 8 3
      vertex 3 8 2.5
      vertex 8.25714 8 2.5
    endloop
  endfacet
  facet normal 0 -1 0
    outer loop
      vertex -7 8 2.5
      vertex 2 8 3
      vertex -7 8 3
    endloop
  endfacet
  facet normal 0 -1 -0
    outer loop
      vertex 2 8 3
      vertex -7 8 2.5
      vertex 2 8 2.5
    endloop
  endfacet
  facet normal 0 1 -0
    outer loop
      vertex -8 7 2.5
      vertex -9.12025 7 3
      vertex -8 7 3
    endloop
  endfacet
  facet normal 0 1 0
    outer loop
      vertex -9.12025 7 3
      vertex -8 7 2.5
      vertex -9.12025 7 2.5
    endloop
  endfacet
  facet normal 0 1 -0
    outer loop
      vertex 9.12025 7 2.5
      vertex 3 7 3
      vertex 9.12025 7 3
    endloop
  endfacet
  facet normal 0 1 0
    outer loop
      vertex 3 7 3
      vertex 9.12025 7 2.5
      vertex 3 7 2.5
    endloop
  endfacet
  facet normal 0 1 -0
    outer loop
      vertex 2 7 2.5
      vertex -7 7 3
      vertex 2 7 3
    endloop
  endfacet
  facet normal 0 1 0
    outer loop
      vertex -7 7 3
      vertex 2 7 2.5
      vertex -7 7 2.5
    endloop
  endfacet
  facet normal 0 -1 0
    outer loop
      vertex -11.3213 -2 2.5
      vertex -8 -2 3
      vertex -11.3213 -2 3
    endloop
  endfacet
  facet normal 0 -1 -0
    outer loop
      vertex -8 -2 3
      vertex -11.3213 -2 2.5
      vertex -8 -2 2.5
    endloop
  endfacet
  facet normal 0 -1 0
    outer loop
      vertex 3 -2 2.5
      vertex 11.3213 -2 3
      vertex 3 -2 3
    endloop
  endfacet
  facet normal 0 -1 -0
    outer loop
      vertex 11.3213 -2 3
      vertex 3 -2 2.5
      vertex 11.3213 -2 2.5
    endloop
  endfacet
  facet normal 0 -1 0
    outer loop
      vertex -7 -2 2.5
      vertex 2 -2 3
      vertex -7 -2 3
    endloop
  endfacet
  facet normal 0 -1 -0
    outer loop
      vertex 2 -2 3
      vertex -7 -2 2.5
      vertex 2 -2 2.5
    endloop
  endfacet
  facet normal 0 1 -0
    outer loop
      vertex -8 -3 2.5
      vertex -11.0984 -3 3
      vertex -8 -3 3
    endloop
  endfacet
  facet normal 0 1 0
    outer loop
      vertex -11.0984 -3 3
      vertex -8 -3 2.5
      vertex -11.0984 -3 2.5
    endloop
  endfacet
  facet normal 0 1 -0
    outer loop
      vertex 11.0984 -3 2.5
      vertex 3 -3 3
      vertex 11.0984 -3 3
    endloop
  endfacet
  facet normal 0 1 0
    outer loop
      vertex 3 -3 3
      vertex 11.0984 -3 2.5
      vertex 3 -3 2.5
    endloop
  endfacet
  facet normal 0 1 -0
    outer loop
      vertex 2 -3 2.5
      vertex -7 -3 3
      vertex 2 -3 3
    endloop
  endfacet
  facet normal 0 1 0
    outer loop
      vertex -7 -3 3
      vertex 2 -3 2.5
      vertex -7 -3 2.5
    endloop
  endfacet
  facet normal 1 -0 0
    outer loop
      vertex -8 -8.25714 3
      vertex -8 -3 2.5
      vertex -8 -3 3
    endloop
  endfacet
  facet normal 1 0 0
    outer loop
      vertex -8 -3 2.5
      vertex -8 -8.25714 3
      vertex -8 -8.25714 2.5
    endloop
  endfacet
  facet normal 1 -0 0
    outer loop
      vertex -8 8 3
      vertex -8 8.25714 2.5
      vertex -8 8.25714 3
    endloop
  endfacet
  facet normal 1 0 0
    outer loop
      vertex -8 8.25714 2.5
      vertex -8 8 3
      vertex -8 8 2.5
    endloop
  endfacet
  facet normal 1 -0 0
    outer loop
      vertex -8 -2 3
      vertex -8 7 2.5
      vertex -8 7 3
    endloop
  endfacet
  facet normal 1 0 0
    outer loop
      vertex -8 7 2.5
      vertex -8 -2 3
      vertex -8 -2 2.5
    endloop
  endfacet
  facet normal -1 0 0
    outer loop
      vertex -7 -9.12025 2.5
      vertex -7 -3 3
      vertex -7 -3 2.5
    endloop
  endfacet
  facet normal -1 -0 0
    outer loop
      vertex -7 -3 3
      vertex -7 -9.12025 2.5
      vertex -7 -9.12025 3
    endloop
  endfacet
  facet normal -1 0 0
    outer loop
      vertex -7 8 2.5
      vertex -7 9.12025 3
      vertex -7 9.12025 2.5
    endloop
  endfacet
  facet normal -1 -0 0
    outer loop
      vertex -7 9.12025 3
      vertex -7 8 2.5
      vertex -7 8 3
    endloop
  endfacet
  facet normal -1 0 0
    outer loop
      vertex -7 -2 2.5
      vertex -7 7 3
      vertex -7 7 2.5
    endloop
  endfacet
  facet normal -1 -0 0
    outer loop
      vertex -7 7 3
      vertex -7 -2 2.5
      vertex -7 -2 3
    endloop
  endfacet
  facet normal 1 -0 0
    outer loop
      vertex 2 -11.3213 3
      vertex 2 -3 2.5
      vertex 2 -3 3
    endloop
  endfacet
  facet normal 1 0 0
    outer loop
      vertex 2 -3 2.5
      vertex 2 -11.3213 3
      vertex 2 -11.3213 2.5
    endloop
  endfacet
  facet normal 1 -0 0
    outer loop
      vertex 2 8 3
      vertex 2 11.3213 2.5
      vertex 2 11.3213 3
    endloop
  endfacet
  facet normal 1 0 0
    outer loop
      vertex 2 11.3213 2.5
      vertex 2 8 3
      vertex 2 8 2.5
    endloop
  endfacet
  facet normal 1 -0 0
    outer loop
      vertex 2 -2 3
      vertex 2 7 2.5
      vertex 2 7 3
    endloop
  endfacet
  facet normal 1 0 0
    outer loop
      vertex 2 7 2.5
      vertex 2 -2 3
      vertex 2 -2 2.5
    endloop
  endfacet
  facet normal -1 0 0
    outer loop
      vertex 3 -11.0984 2.5
      vertex 3 -3 3
      vertex 3 -3 2.5
    endloop
  endfacet
  facet normal -1 -0 0
    outer loop
      vertex 3 -3 3
      vertex 3 -11.0984 2.5
      vertex 3 -11.0984 3
    endloop
  endfacet
  facet normal -1 0 0
    outer loop
      vertex 3 8 2.5
      vertex 3 11.0984 3
      vertex 3 11.0984 2.5
    endloop
  endfacet
  facet normal -1 -0 0
    outer loop
      vertex 3 11.0984 3
      vertex 3 8 2.5
      vertex 3 8 3
    endloop
  endfacet
  facet normal -1 0 0
    outer loop
      vertex 3 -2 2.5
      vertex 3 7 3
      vertex 3 7 2.5
    endloop
  endfacet
  facet normal -1 -0 0
    outer loop
      vertex 3 7 3
      vertex 3 -2 2.5
      vertex 3 -2 3
    endloop
  endfacet
  facet normal 0.997294 0.0735229 0
    outer loop
      vertex 11.4861 0.564278 3
      vertex 11.4446 1.1272 0
      vertex 11.4446 1.1272 3
    endloop
  endfacet
  facet normal 0.997294 0.0735229 0
    outer loop
      vertex 11.4446 1.1272 0
      vertex 11.4861 0.564278 3
      vertex 11.4861 0.564278 0
    endloop
  endfacet
  facet normal -0.359982 0.932959 0
    outer loop
      vertex -3.87423 10.8278 0
      vertex -4.40086 10.6246 3
      vertex -3.87423 10.8278 3
    endloop
  endfacet
  facet normal -0.359982 0.932959 0
    outer loop
      vertex -4.40086 10.6246 3
      vertex -3.87423 10.8278 0
      vertex -4.40086 10.6246 0
    endloop
  endfacet
  facet normal 0.999697 0.0246258 0
    outer loop
      vertex 11.5 0 3
      vertex 11.4861 0.564278 0
      vertex 11.4861 0.564278 3
    endloop
  endfacet
  facet normal 0.999697 0.0246258 0
    outer loop
      vertex 11.4861 0.564278 0
      vertex 11.5 0 3
      vertex 11.5 0 0
    endloop
  endfacet
  facet normal -0.405188 -0.914233 0
    outer loop
      vertex -4.91688 -10.3959 0
      vertex -4.40086 -10.6246 3
      vertex -4.91688 -10.3959 3
    endloop
  endfacet
  facet normal -0.405188 -0.914233 -0
    outer loop
      vertex -4.40086 -10.6246 3
      vertex -4.91688 -10.3959 0
      vertex -4.40086 -10.6246 0
    endloop
  endfacet
  facet normal 0 0 -1
    outer loop
      vertex 11.4861 -0.564278 0
      vertex 11.4861 0.564278 0
      vertex 11.5 0 0
    endloop
  endfacet
  facet normal 0 0 -1
    outer loop
      vertex 11.4446 -1.1272 0
      vertex 11.4861 0.564278 0
      vertex 11.4861 -0.564278 0
    endloop
  endfacet
  facet normal 0 0 -1
    outer loop
      vertex 11.4446 -1.1272 0
      vertex 11.4446 1.1272 0
      vertex 11.4861 0.564278 0
    endloop
  endfacet
  facet normal 0 0 -1
    outer loop
      vertex 11.3755 -1.6874 0
      vertex 11.4446 1.1272 0
      vertex 11.4446 -1.1272 0
    endloop
  endfacet
  facet normal 0 0 -1
    outer loop
      vertex 11.3755 -1.6874 0
      vertex 11.3755 1.6874 0
      vertex 11.4446 1.1272 0
    endloop
  endfacet
  facet normal 0 0 -1
    outer loop
      vertex 11.279 -2.24354 0
      vertex 11.3755 1.6874 0
      vertex 11.3755 -1.6874 0
    endloop
  endfacet
  facet normal 0 0 -1
    outer loop
      vertex 11.279 -2.24354 0
      vertex 11.279 2.24354 0
      vertex 11.3755 1.6874 0
    endloop
  endfacet
  facet normal 0 0 -1
    outer loop
      vertex 11.1554 -2.79427 0
      vertex 11.279 2.24354 0
      vertex 11.279 -2.24354 0
    endloop
  endfacet
  facet normal 0 0 -1
    outer loop
      vertex 11.1554 -2.79427 0
      vertex 11.1554 2.79427 0
      vertex 11.279 2.24354 0
    endloop
  endfacet
  facet normal 0 0 -1
    outer loop
      vertex 11.0048 -3.33827 0
      vertex 11.1554 2.79427 0
      vertex 11.1554 -2.79427 0
    endloop
  endfacet
  facet normal 0 0 -1
    outer loop
      vertex 11.0048 -3.33827 0
      vertex 11.0048 3.33827 0
      vertex 11.1554 2.79427 0
    endloop
  endfacet
  facet normal 0 0 -1
    outer loop
      vertex 10.8278 -3.87423 0
      vertex 11.0048 3.33827 0
      vertex 11.0048 -3.33827 0
    endloop
  endfacet
  facet normal 0 0 -1
    outer loop
      vertex 10.8278 -3.87423 0
      vertex 10.8278 3.87423 0
      vertex 11.0048 3.33827 0
    endloop
  endfacet
  facet normal 0 0 -1
    outer loop
      vertex 10.6246 -4.40086 0
      vertex 10.8278 3.87423 0
      vertex 10.8278 -3.87423 0
    endloop
  endfacet
  facet normal 0 0 -1
    outer loop
      vertex 10.6246 -4.40086 0
      vertex 10.6246 4.40086 0
      vertex 10.8278 3.87423 0
    endloop
  endfacet
  facet normal 0 0 -1
    outer loop
      vertex 10.3959 -4.91688 0
      vertex 10.6246 4.40086 0
      vertex 10.6246 -4.40086 0
    endloop
  endfacet
  facet normal 0 0 -1
    outer loop
      vertex 10.3959 -4.91688 0
      vertex 10.3959 4.91688 0
      vertex 10.6246 4.40086 0
    endloop
  endfacet
  facet normal 0 0 -1
    outer loop
      vertex 10.1421 -5.42106 0
      vertex 10.3959 4.91688 0
      vertex 10.3959 -4.91688 0
    endloop
  endfacet
  facet normal 0 0 -1
    outer loop
      vertex 10.1421 -5.42106 0
      vertex 10.1421 5.42106 0
      vertex 10.3959 4.91688 0
    endloop
  endfacet
  facet normal 0 0 -1
    outer loop
      vertex 9.86388 -5.91218 0
      vertex 10.1421 5.42106 0
      vertex 10.1421 -5.42106 0
    endloop
  endfacet
  facet normal 0 0 -1
    outer loop
      vertex 9.86388 -5.91218 0
      vertex 9.86388 5.91218 0
      vertex 10.1421 5.42106 0
    endloop
  endfacet
  facet normal 0 0 -1
    outer loop
      vertex 9.5619 -6.38906 0
      vertex 9.86388 5.91218 0
      vertex 9.86388 -5.91218 0
    endloop
  endfacet
  facet normal 0 0 -1
    outer loop
      vertex 9.5619 -6.38906 0
      vertex 9.5619 6.38906 0
      vertex 9.86388 5.91218 0
    endloop
  endfacet
  facet normal 0 0 -1
    outer loop
      vertex 9.23689 -6.85054 0
      vertex 9.5619 6.38906 0
      vertex 9.5619 -6.38906 0
    endloop
  endfacet
  facet normal 0 0 -1
    outer loop
      vertex 9.23689 -6.85054 0
      vertex 9.23689 6.85054 0
      vertex 9.5619 6.38906 0
    endloop
  endfacet
  facet normal 0 0 -1
    outer loop
      vertex 8.88962 -7.29552 0
      vertex 9.23689 6.85054 0
      vertex 9.23689 -6.85054 0
    endloop
  endfacet
  facet normal 0 0 -1
    outer loop
      vertex 8.88962 -7.29552 0
      vertex 8.88962 7.29552 0
      vertex 9.23689 6.85054 0
    endloop
  endfacet
  facet normal 0 0 -1
    outer loop
      vertex 8.52094 -7.72293 0
      vertex 8.88962 7.29552 0
      vertex 8.88962 -7.29552 0
    endloop
  endfacet
  facet normal 0 0 -1
    outer loop
      vertex 8.52094 -7.72293 0
      vertex 8.52094 7.72293 0
      vertex 8.88962 7.29552 0
    endloop
  endfacet
  facet normal 0 0 -1
    outer loop
      vertex 8.13173 -8.13173 0
      vertex 8.52094 7.72293 0
      vertex 8.52094 -7.72293 0
    endloop
  endfacet
  facet normal 0 0 -1
    outer loop
      vertex 8.13173 -8.13173 0
      vertex 8.13173 8.13173 0
      vertex 8.52094 7.72293 0
    endloop
  endfacet
  facet normal 0 0 -1
    outer loop
      vertex 7.72293 -8.52094 0
      vertex 8.13173 8.13173 0
      vertex 8.13173 -8.13173 0
    endloop
  endfacet
  facet normal 0 0 -1
    outer loop
      vertex 7.72293 -8.52094 0
      vertex 7.72293 8.52094 0
      vertex 8.13173 8.13173 0
    endloop
  endfacet
  facet normal 0 0 -1
    outer loop
      vertex 7.29552 -8.88962 0
      vertex 7.72293 8.52094 0
      vertex 7.72293 -8.52094 0
    endloop
  endfacet
  facet normal 0 0 -1
    outer loop
      vertex 7.29552 -8.88962 0
      vertex 7.29552 8.88962 0
      vertex 7.72293 8.52094 0
    endloop
  endfacet
  facet normal 0 0 -1
    outer loop
      vertex 6.85054 -9.23689 0
      vertex 7.29552 8.88962 0
      vertex 7.29552 -8.88962 0
    endloop
  endfacet
  facet normal 0 0 -1
    outer loop
      vertex 6.85054 -9.23689 0
      vertex 6.85054 9.23689 0
      vertex 7.29552 8.88962 0
    endloop
  endfacet
  facet normal 0 0 -1
    outer loop
      vertex 6.38906 -9.5619 0
      vertex 6.85054 9.23689 0
      vertex 6.85054 -9.23689 0
    endloop
  endfacet
  facet normal 0 0 -1
    outer loop
      vertex 6.38906 -9.5619 0
      vertex 6.38906 9.5619 0
      vertex 6.85054 9.23689 0
    endloop
  endfacet
  facet normal 0 0 -1
    outer loop
      vertex 5.91218 -9.86388 0
      vertex 6.38906 9.5619 0
      vertex 6.38906 -9.5619 0
    endloop
  endfacet
  facet normal 0 0 -1
    outer loop
      vertex 5.91218 -9.86388 0
      vertex 5.91218 9.86388 0
      vertex 6.38906 9.5619 0
    endloop
  endfacet
  facet normal 0 0 -1
    outer loop
      vertex 5.42106 -10.1421 0
      vertex 5.91218 9.86388 0
      vertex 5.91218 -9.86388 0
    endloop
  endfacet
  facet normal 0 0 -1
    outer loop
      vertex 5.42106 -10.1421 0
      vertex 5.42106 10.1421 0
      vertex 5.91218 9.86388 0
    endloop
  endfacet
  facet normal 0 0 -1
    outer loop
      vertex 4.91688 -10.3959 0
      vertex 5.42106 10.1421 0
      vertex 5.42106 -10.1421 0
    endloop
  endfacet
  facet normal 0 0 -1
    outer loop
      vertex 4.91688 -10.3959 0
      vertex 4.91688 10.3959 0
      vertex 5.42106 10.1421 0
    endloop
  endfacet
  facet normal 0 0 -1
    outer loop
      vertex 4.40086 -10.6246 0
      vertex 4.91688 10.3959 0
      vertex 4.91688 -10.3959 0
    endloop
  endfacet
  facet normal 0 0 -1
    outer loop
      vertex 4.40086 -10.6246 0
      vertex 4.40086 10.6246 0
      vertex 4.91688 10.3959 0
    endloop
  endfacet
  facet normal 0 0 -1
    outer loop
      vertex 3.87423 -10.8278 0
      vertex 4.40086 10.6246 0
      vertex 4.40086 -10.6246 0
    endloop
  endfacet
  facet normal 0 0 -1
    outer loop
      vertex 3.87423 -10.8278 0
      vertex 3.87423 10.8278 0
      vertex 4.40086 10.6246 0
    endloop
  endfacet
  facet normal 0 0 -1
    outer loop
      vertex 3.33827 -11.0048 0
      vertex 3.87423 10.8278 0
      vertex 3.87423 -10.8278 0
    endloop
  endfacet
  facet normal 0 0 -1
    outer loop
      vertex 3.33827 -11.0048 0
      vertex 3.33827 11.0048 0
      vertex 3.87423 10.8278 0
    endloop
  endfacet
  facet normal 0 0 -1
    outer loop
      vertex 2.79427 -11.1554 0
      vertex 3.33827 11.0048 0
      vertex 3.33827 -11.0048 0
    endloop
  endfacet
  facet normal 0 0 -1
    outer loop
      vertex 2.79427 -11.1554 0
      vertex 2.79427 11.1554 0
      vertex 3.33827 11.0048 0
    endloop
  endfacet
  facet normal 0 0 -1
    outer loop
      vertex 2.24354 -11.279 0
      vertex 2.79427 11.1554 0
      vertex 2.79427 -11.1554 0
    endloop
  endfacet
  facet normal 0 0 -1
    outer loop
      vertex 2.24354 -11.279 0
      vertex 2.24354 11.279 0
      vertex 2.79427 11.1554 0
    endloop
  endfacet
  facet normal 0 0 -1
    outer loop
      vertex 1.6874 -11.3755 0
      vertex 2.24354 11.279 0
      vertex 2.24354 -11.279 0
    endloop
  endfacet
  facet normal 0 0 -1
    outer loop
      vertex 1.6874 -11.3755 0
      vertex 1.6874 11.3755 0
      vertex 2.24354 11.279 0
    endloop
  endfacet
  facet normal 0 0 -1
    outer loop
      vertex 1.1272 -11.4446 0
      vertex 1.6874 11.3755 0
      vertex 1.6874 -11.3755 0
    endloop
  endfacet
  facet normal 0 0 -1
    outer loop
      vertex 1.1272 -11.4446 0
      vertex 1.1272 11.4446 0
      vertex 1.6874 11.3755 0
    endloop
  endfacet
  facet normal 0 0 -1
    outer loop
      vertex 0.564278 -11.4861 0
      vertex 1.1272 11.4446 0
      vertex 1.1272 -11.4446 0
    endloop
  endfacet
  facet normal 0 0 -1
    outer loop
      vertex 0.564278 -11.4861 0
      vertex 0.564278 11.4861 0
      vertex 1.1272 11.4446 0
    endloop
  endfacet
  facet normal 0 0 -1
    outer loop
      vertex 0 -11.5 0
      vertex 0.564278 11.4861 0
      vertex 0.564278 -11.4861 0
    endloop
  endfacet
  facet normal 0 0 -1
    outer loop
      vertex 0 -11.5 0
      vertex 0 11.5 0
      vertex 0.564278 11.4861 0
    endloop
  endfacet
  facet normal 0 0 -1
    outer loop
      vertex -0.564278 -11.4861 0
      vertex 0 11.5 0
      vertex 0 -11.5 0
    endloop
  endfacet
  facet normal 0 0 -1
    outer loop
      vertex -0.564278 -11.4861 0
      vertex -0.564278 11.4861 0
      vertex 0 11.5 0
    endloop
  endfacet
  facet normal 0 0 -1
    outer loop
      vertex -1.1272 -11.4446 0
      vertex -0.564278 11.4861 0
      vertex -0.564278 -11.4861 0
    endloop
  endfacet
  facet normal 0 0 -1
    outer loop
      vertex -1.1272 -11.4446 0
      vertex -1.1272 11.4446 0
      vertex -0.564278 11.4861 0
    endloop
  endfacet
  facet normal 0 0 -1
    outer loop
      vertex -1.6874 -11.3755 0
      vertex -1.1272 11.4446 0
      vertex -1.1272 -11.4446 0
    endloop
  endfacet
  facet normal 0 0 -1
    outer loop
      vertex -1.6874 -11.3755 0
      vertex -1.6874 11.3755 0
      vertex -1.1272 11.4446 0
    endloop
  endfacet
  facet normal 0 0 -1
    outer loop
      vertex -2.24354 -11.279 0
      vertex -1.6874 11.3755 0
      vertex -1.6874 -11.3755 0
    endloop
  endfacet
  facet normal 0 0 -1
    outer loop
      vertex -2.24354 -11.279 0
      vertex -2.24354 11.279 0
      vertex -1.6874 11.3755 0
    endloop
  endfacet
  facet normal 0 0 -1
    outer loop
      vertex -2.79427 -11.1554 0
      vertex -2.24354 11.279 0
      vertex -2.24354 -11.279 0
    endloop
  endfacet
  facet normal 0 0 -1
    outer loop
      vertex -2.79427 -11.1554 0
      vertex -2.79427 11.1554 0
      vertex -2.24354 11.279 0
    endloop
  endfacet
  facet normal 0 0 -1
    outer loop
      vertex -3.33827 -11.0048 0
      vertex -2.79427 11.1554 0
      vertex -2.79427 -11.1554 0
    endloop
  endfacet
  facet normal 0 0 -1
    outer loop
      vertex -3.33827 -11.0048 0
      vertex -3.33827 11.0048 0
      vertex -2.79427 11.1554 0
    endloop
  endfacet
  facet normal 0 0 -1
    outer loop
      vertex -3.87423 -10.8278 0
      vertex -3.33827 11.0048 0
      vertex -3.33827 -11.0048 0
    endloop
  endfacet
  facet normal 0 0 -1
    outer loop
      vertex -3.87423 -10.8278 0
      vertex -3.87423 10.8278 0
      vertex -3.33827 11.0048 0
    endloop
  endfacet
  facet normal 0 0 -1
    outer loop
      vertex -4.40086 -10.6246 0
      vertex -3.87423 10.8278 0
      vertex -3.87423 -10.8278 0
    endloop
  endfacet
  facet normal 0 0 -1
    outer loop
      vertex -4.40086 -10.6246 0
      vertex -4.40086 10.6246 0
      vertex -3.87423 10.8278 0
    endloop
  endfacet
  facet normal 0 0 -1
    outer loop
      vertex -4.91688 -10.3959 0
      vertex -4.40086 10.6246 0
      vertex -4.40086 -10.6246 0
    endloop
  endfacet
  facet normal 0 0 -1
    outer loop
      vertex -4.91688 -10.3959 0
      vertex -4.91688 10.3959 0
      vertex -4.40086 10.6246 0
    endloop
  endfacet
  facet normal 0 0 -1
    outer loop
      vertex -5.42106 -10.1421 0
      vertex -4.91688 10.3959 0
      vertex -4.91688 -10.3959 0
    endloop
  endfacet
  facet normal 0 0 -1
    outer loop
      vertex -5.42106 -10.1421 0
      vertex -5.42106 10.1421 0
      vertex -4.91688 10.3959 0
    endloop
  endfacet
  facet normal 0 0 -1
    outer loop
      vertex -5.91218 -9.86388 0
      vertex -5.42106 10.1421 0
      vertex -5.42106 -10.1421 0
    endloop
  endfacet
  facet normal 0 0 -1
    outer loop
      vertex -5.91218 -9.86388 0
      vertex -5.91218 9.86388 0
      vertex -5.42106 10.1421 0
    endloop
  endfacet
  facet normal 0 0 -1
    outer loop
      vertex -6.38906 -9.5619 0
      vertex -5.91218 9.86388 0
      vertex -5.91218 -9.86388 0
    endloop
  endfacet
  facet normal 0 0 -1
    outer loop
      vertex -6.38906 -9.5619 0
      vertex -6.38906 9.5619 0
      vertex -5.91218 9.86388 0
    endloop
  endfacet
  facet normal 0 0 -1
    outer loop
      vertex -6.85054 -9.23689 0
      vertex -6.38906 9.5619 0
      vertex -6.38906 -9.5619 0
    endloop
  endfacet
  facet normal 0 0 -1
    outer loop
      vertex -6.85054 -9.23689 0
      vertex -6.85054 9.23689 0
      vertex -6.38906 9.5619 0
    endloop
  endfacet
  facet normal 0 0 -1
    outer loop
      vertex -7.29552 -8.88962 0
      vertex -6.85054 9.23689 0
      vertex -6.85054 -9.23689 0
    endloop
  endfacet
  facet normal 0 0 -1
    outer loop
      vertex -7.29552 -8.88962 0
      vertex -7.29552 8.88962 0
      vertex -6.85054 9.23689 0
    endloop
  endfacet
  facet normal 0 0 -1
    outer loop
      vertex -7.72293 -8.52094 0
      vertex -7.29552 8.88962 0
      vertex -7.29552 -8.88962 0
    endloop
  endfacet
  facet normal 0 0 -1
    outer loop
      vertex -7.72293 -8.52094 0
      vertex -7.72293 8.52094 0
      vertex -7.29552 8.88962 0
    endloop
  endfacet
  facet normal 0 0 -1
    outer loop
      vertex -8.13173 -8.13173 0
      vertex -7.72293 8.52094 0
      vertex -7.72293 -8.52094 0
    endloop
  endfacet
  facet normal 0 0 -1
    outer loop
      vertex -8.13173 -8.13173 0
      vertex -8.13173 8.13173 0
      vertex -7.72293 8.52094 0
    endloop
  endfacet
  facet normal 0 0 -1
    outer loop
      vertex -8.52094 -7.72293 0
      vertex -8.13173 8.13173 0
      vertex -8.13173 -8.13173 0
    endloop
  endfacet
  facet normal 0 0 -1
    outer loop
      vertex -8.52094 -7.72293 0
      vertex -8.52094 7.72293 0
      vertex -8.13173 8.13173 0
    endloop
  endfacet
  facet normal 0 0 -1
    outer loop
      vertex -8.88962 -7.29552 0
      vertex -8.52094 7.72293 0
      vertex -8.52094 -7.72293 0
    endloop
  endfacet
  facet normal 0 0 -1
    outer loop
      vertex -8.88962 -7.29552 0
      vertex -8.88962 7.29552 0
      vertex -8.52094 7.72293 0
    endloop
  endfacet
  facet normal 0 0 -1
    outer loop
      vertex -9.23689 -6.85054 0
      vertex -8.88962 7.29552 0
      vertex -8.88962 -7.29552 0
    endloop
  endfacet
  facet normal 0 0 -1
    outer loop
      vertex -9.23689 -6.85054 0
      vertex -9.23689 6.85054 0
      vertex -8.88962 7.29552 0
    endloop
  endfacet
  facet normal 0 0 -1
    outer loop
      vertex -9.5619 -6.38906 0
      vertex -9.23689 6.85054 0
      vertex -9.23689 -6.85054 0
    endloop
  endfacet
  facet normal 0 0 -1
    outer loop
      vertex -9.5619 -6.38906 0
      vertex -9.5619 6.38906 0
      vertex -9.23689 6.85054 0
    endloop
  endfacet
  facet normal 0 0 -1
    outer loop
      vertex -9.86388 -5.91218 0
      vertex -9.5619 6.38906 0
      vertex -9.5619 -6.38906 0
    endloop
  endfacet
  facet normal 0 0 -1
    outer loop
      vertex -9.86388 -5.91218 0
      vertex -9.86388 5.91218 0
      vertex -9.5619 6.38906 0
    endloop
  endfacet
  facet normal 0 0 -1
    outer loop
      vertex -10.1421 -5.42106 0
      vertex -9.86388 5.91218 0
      vertex -9.86388 -5.91218 0
    endloop
  endfacet
  facet normal 0 0 -1
    outer loop
      vertex -10.1421 -5.42106 0
      vertex -10.1421 5.42106 0
      vertex -9.86388 5.91218 0
    endloop
  endfacet
  facet normal 0 0 -1
    outer loop
      vertex -10.3959 -4.91688 0
      vertex -10.1421 5.42106 0
      vertex -10.1421 -5.42106 0
    endloop
  endfacet
  facet normal 0 0 -1
    outer loop
      vertex -10.3959 -4.91688 0
      vertex -10.3959 4.91688 0
      vertex -10.1421 5.42106 0
    endloop
  endfacet
  facet normal 0 0 -1
    outer loop
      vertex -10.6246 -4.40086 0
      vertex -10.3959 4.91688 0
      vertex -10.3959 -4.91688 0
    endloop
  endfacet
  facet normal 0 0 -1
    outer loop
      vertex -10.6246 -4.40086 0
      vertex -10.6246 4.40086 0
      vertex -10.3959 4.91688 0
    endloop
  endfacet
  facet normal 0 0 -1
    outer loop
      vertex -10.8278 -3.87423 0
      vertex -10.6246 4.40086 0
      vertex -10.6246 -4.40086 0
    endloop
  endfacet
  facet normal 0 0 -1
    outer loop
      vertex -10.8278 -3.87423 0
      vertex -10.8278 3.87423 0
      vertex -10.6246 4.40086 0
    endloop
  endfacet
  facet normal 0 0 -1
    outer loop
      vertex -11.0048 -3.33827 0
      vertex -10.8278 3.87423 0
      vertex -10.8278 -3.87423 0
    endloop
  endfacet
  facet normal 0 0 -1
    outer loop
      vertex -11.0048 -3.33827 0
      vertex -11.0048 3.33827 0
      vertex -10.8278 3.87423 0
    endloop
  endfacet
  facet normal 0 0 -1
    outer loop
      vertex -11.1554 -2.79427 0
      vertex -11.0048 3.33827 0
      vertex -11.0048 -3.33827 0
    endloop
  endfacet
  facet normal 0 0 -1
    outer loop
      vertex -11.1554 -2.79427 0
      vertex -11.1554 2.79427 0
      vertex -11.0048 3.33827 0
    endloop
  endfacet
  facet normal 0 0 -1
    outer loop
      vertex -11.279 -2.24354 0
      vertex -11.1554 2.79427 0
      vertex -11.1554 -2.79427 0
    endloop
  endfacet
  facet normal 0 0 -1
    outer loop
      vertex -11.279 -2.24354 0
      vertex -11.279 2.24354 0
      vertex -11.1554 2.79427 0
    endloop
  endfacet
  facet normal 0 0 -1
    outer loop
      vertex -11.3755 -1.6874 0
      vertex -11.279 2.24354 0
      vertex -11.279 -2.24354 0
    endloop
  endfacet
  facet normal 0 0 -1
    outer loop
      vertex -11.3755 -1.6874 0
      vertex -11.3755 1.6874 0
      vertex -11.279 2.24354 0
    endloop
  endfacet
  facet normal 0 0 -1
    outer loop
      vertex -11.4446 -1.1272 0
      vertex -11.3755 1.6874 0
      vertex -11.3755 -1.6874 0
    endloop
  endfacet
  facet normal 0 0 -1
    outer loop
      vertex -11.4446 -1.1272 0
      vertex -11.4446 1.1272 0
      vertex -11.3755 1.6874 0
    endloop
  endfacet
  facet normal 0 0 -1
    outer loop
      vertex -11.4861 -0.564278 0
      vertex -11.4446 1.1272 0
      vertex -11.4446 -1.1272 0
    endloop
  endfacet
  facet normal 0 0 -1
    outer loop
      vertex -11.4861 -0.564278 0
      vertex -11.4861 0.564278 0
      vertex -11.4446 1.1272 0
    endloop
  endfacet
  facet normal 0 -0 -1
    outer loop
      vertex -11.4861 0.564278 0
      vertex -11.4861 -0.564278 0
      vertex -11.5 0 0
    endloop
  endfacet
  facet normal 0.218982 0.975729 -0
    outer loop
      vertex 2.79427 11.1554 0
      vertex 2.24354 11.279 2.5
      vertex 2.79427 11.1554 2.5
    endloop
  endfacet
  facet normal 0.218982 0.975729 0
    outer loop
      vertex 2.24354 11.279 2.5
      vertex 2.79427 11.1554 0
      vertex 2.24354 11.279 0
    endloop
  endfacet
  facet normal -0.997294 0.0735229 0
    outer loop
      vertex -11.4861 0.564278 0
      vertex -11.4446 1.1272 3
      vertex -11.4446 1.1272 0
    endloop
  endfacet
  facet normal -0.997294 0.0735229 0
    outer loop
      vertex -11.4446 1.1272 3
      vertex -11.4861 0.564278 0
      vertex -11.4861 0.564278 3
    endloop
  endfacet
  facet normal 0.757214 -0.653166 0
    outer loop
      vertex 8.52094 -7.72293 3
      vertex 8.88962 -7.29552 0
      vertex 8.88962 -7.29552 3
    endloop
  endfacet
  facet normal 0.757214 -0.653166 0
    outer loop
      vertex 8.88962 -7.29552 0
      vertex 8.52094 -7.72293 3
      vertex 8.52094 -7.72293 0
    endloop
  endfacet
  facet normal 0.615236 -0.788343 0
    outer loop
      vertex 6.85054 -9.23689 0
      vertex 7.29552 -8.88962 3
      vertex 6.85054 -9.23689 3
    endloop
  endfacet
  facet normal 0.615236 -0.788343 0
    outer loop
      vertex 7.29552 -8.88962 3
      vertex 6.85054 -9.23689 0
      vertex 7.29552 -8.88962 0
    endloop
  endfacet
  facet normal -0.170963 -0.985277 0
    outer loop
      vertex -2.24354 -11.279 0
      vertex -1.6874 -11.3755 3
      vertex -2.24354 -11.279 3
    endloop
  endfacet
  facet normal -0.170963 -0.985277 -0
    outer loop
      vertex -1.6874 -11.3755 3
      vertex -2.24354 -11.279 0
      vertex -1.6874 -11.3755 0
    endloop
  endfacet
  facet normal 0.817586 -0.575807 0
    outer loop
      vertex 9.23689 -6.85054 3
      vertex 9.5619 -6.38906 0
      vertex 9.5619 -6.38906 3
    endloop
  endfacet
  facet normal 0.817586 -0.575807 0
    outer loop
      vertex 9.5619 -6.38906 0
      vertex 9.23689 -6.85054 3
      vertex 9.23689 -6.85054 0
    endloop
  endfacet
  facet normal -0.992478 0.122421 0
    outer loop
      vertex -11.4446 1.1272 0
      vertex -11.3755 1.6874 3
      vertex -11.3755 1.6874 0
    endloop
  endfacet
  facet normal -0.992478 0.122421 0
    outer loop
      vertex -11.3755 1.6874 3
      vertex -11.4446 1.1272 0
      vertex -11.4446 1.1272 3
    endloop
  endfacet
  facet normal -0.844854 0.534996 0
    outer loop
      vertex -9.86388 5.91218 0
      vertex -9.5619 6.38906 3
      vertex -9.5619 6.38906 0
    endloop
  endfacet
  facet normal -0.844854 0.534996 0
    outer loop
      vertex -9.5619 6.38906 3
      vertex -9.86388 5.91218 0
      vertex -9.86388 5.91218 3
    endloop
  endfacet
  facet normal 0.949558 0.31359 0
    outer loop
      vertex 11.0048 3.33827 3
      vertex 10.8278 3.87423 0
      vertex 10.8278 3.87423 3
    endloop
  endfacet
  facet normal 0.949558 0.31359 0
    outer loop
      vertex 10.8278 3.87423 0
      vertex 11.0048 3.33827 3
      vertex 11.0048 3.33827 0
    endloop
  endfacet
  facet normal 0.0735229 -0.997294 0
    outer loop
      vertex 0.564278 -11.4861 0
      vertex 1.1272 -11.4446 3
      vertex 0.564278 -11.4861 3
    endloop
  endfacet
  facet normal 0.0735229 -0.997294 0
    outer loop
      vertex 1.1272 -11.4446 3
      vertex 0.564278 -11.4861 0
      vertex 1.1272 -11.4446 0
    endloop
  endfacet
  facet normal -0.949558 0.31359 0
    outer loop
      vertex -11.0048 3.33827 0
      vertex -10.8278 3.87423 3
      vertex -10.8278 3.87423 0
    endloop
  endfacet
  facet normal -0.949558 0.31359 0
    outer loop
      vertex -10.8278 3.87423 3
      vertex -11.0048 3.33827 0
      vertex -11.0048 3.33827 3
    endloop
  endfacet
  facet normal 0.9853 -0.170836 0
    outer loop
      vertex 11.3213 -2 2.5
      vertex 11.3755 -1.6874 3
      vertex 11.3213 -2 3
    endloop
  endfacet
  facet normal 0.9853 -0.170836 0
    outer loop
      vertex 11.3755 -1.6874 3
      vertex 11.3213 -2 2.5
      vertex 11.3755 -1.6874 0
    endloop
  endfacet
  facet normal 0.985249 -0.171126 0
    outer loop
      vertex 11.279 -2.24354 0
      vertex 11.3213 -2 2.5
      vertex 11.279 -2.24354 2.5
    endloop
  endfacet
  facet normal 0.985277 -0.170963 -1.63784e-05
    outer loop
      vertex 11.3213 -2 2.5
      vertex 11.279 -2.24354 0
      vertex 11.3755 -1.6874 0
    endloop
  endfacet
  facet normal -0.893212 -0.449636 0
    outer loop
      vertex -10.1421 -5.42106 0
      vertex -10.3959 -4.91688 3
      vertex -10.3959 -4.91688 0
    endloop
  endfacet
  facet normal -0.893212 -0.449636 0
    outer loop
      vertex -10.3959 -4.91688 3
      vertex -10.1421 -5.42106 0
      vertex -10.1421 -5.42106 3
    endloop
  endfacet
  facet normal -0.266803 -0.963751 0
    outer loop
      vertex -3.33827 -11.0048 0
      vertex -2.79427 -11.1554 3
      vertex -3.33827 -11.0048 3
    endloop
  endfacet
  facet normal -0.266803 -0.963751 -0
    outer loop
      vertex -2.79427 -11.1554 3
      vertex -3.33827 -11.0048 0
      vertex -2.79427 -11.1554 0
    endloop
  endfacet
  facet normal -0.788343 -0.615236 0
    outer loop
      vertex -8.88962 -7.29552 0
      vertex -9.23689 -6.85054 3
      vertex -9.23689 -6.85054 0
    endloop
  endfacet
  facet normal -0.788343 -0.615236 0
    outer loop
      vertex -9.23689 -6.85054 3
      vertex -8.88962 -7.29552 0
      vertex -8.88962 -7.29552 3
    endloop
  endfacet
  facet normal 0.534996 0.844854 -0
    outer loop
      vertex 6.38906 9.5619 0
      vertex 5.91218 9.86388 3
      vertex 6.38906 9.5619 3
    endloop
  endfacet
  facet normal 0.534996 0.844854 0
    outer loop
      vertex 5.91218 9.86388 3
      vertex 6.38906 9.5619 0
      vertex 5.91218 9.86388 0
    endloop
  endfacet
  facet normal -0.999697 -0.0246258 0
    outer loop
      vertex -11.4861 -0.564278 0
      vertex -11.5 0 3
      vertex -11.5 0 0
    endloop
  endfacet
  facet normal -0.999697 -0.0246258 0
    outer loop
      vertex -11.5 0 3
      vertex -11.4861 -0.564278 0
      vertex -11.4861 -0.564278 3
    endloop
  endfacet
  facet normal -0.914233 -0.405188 0
    outer loop
      vertex -10.3959 -4.91688 0
      vertex -10.6246 -4.40086 3
      vertex -10.6246 -4.40086 0
    endloop
  endfacet
  facet normal -0.914233 -0.405188 0
    outer loop
      vertex -10.6246 -4.40086 3
      vertex -10.3959 -4.91688 0
      vertex -10.3959 -4.91688 3
    endloop
  endfacet
  facet normal 0.122421 -0.992478 0
    outer loop
      vertex 1.1272 -11.4446 0
      vertex 1.6874 -11.3755 3
      vertex 1.1272 -11.4446 3
    endloop
  endfacet
  facet normal 0.122421 -0.992478 0
    outer loop
      vertex 1.6874 -11.3755 3
      vertex 1.1272 -11.4446 0
      vertex 1.6874 -11.3755 0
    endloop
  endfacet
  facet normal 0.724247 -0.689541 0
    outer loop
      vertex 8.13173 -8.13173 3
      vertex 8.52094 -7.72293 0
      vertex 8.52094 -7.72293 3
    endloop
  endfacet
  facet normal 0.724247 -0.689541 0
    outer loop
      vertex 8.52094 -7.72293 0
      vertex 8.13173 -8.13173 3
      vertex 8.13173 -8.13173 0
    endloop
  endfacet
  facet normal 0.170836 -0.9853 0
    outer loop
      vertex 1.6874 -11.3755 3
      vertex 2 -11.3213 2.5
      vertex 2 -11.3213 3
    endloop
  endfacet
  facet normal 0.170836 -0.9853 0
    outer loop
      vertex 1.6874 -11.3755 0
      vertex 2 -11.3213 2.5
      vertex 1.6874 -11.3755 3
    endloop
  endfacet
  facet normal 0.170963 -0.985277 -1.63784e-05
    outer loop
      vertex 2.24354 -11.279 0
      vertex 2 -11.3213 2.5
      vertex 1.6874 -11.3755 0
    endloop
  endfacet
  facet normal 0.171126 -0.985249 0
    outer loop
      vertex 2 -11.3213 2.5
      vertex 2.24354 -11.279 0
      vertex 2.24354 -11.279 2.5
    endloop
  endfacet
  facet normal -0.218982 0.975729 0
    outer loop
      vertex -2.24354 11.279 0
      vertex -2.79427 11.1554 3
      vertex -2.24354 11.279 3
    endloop
  endfacet
  facet normal -0.218982 0.975729 0
    outer loop
      vertex -2.79427 11.1554 3
      vertex -2.24354 11.279 0
      vertex -2.79427 11.1554 0
    endloop
  endfacet
  facet normal 0.575807 0.817586 -0
    outer loop
      vertex 6.85054 9.23689 0
      vertex 6.38906 9.5619 3
      vertex 6.85054 9.23689 3
    endloop
  endfacet
  facet normal 0.575807 0.817586 0
    outer loop
      vertex 6.38906 9.5619 3
      vertex 6.85054 9.23689 0
      vertex 6.38906 9.5619 0
    endloop
  endfacet
  facet normal -0.0735229 0.997294 0
    outer loop
      vertex -0.564278 11.4861 0
      vertex -1.1272 11.4446 3
      vertex -0.564278 11.4861 3
    endloop
  endfacet
  facet normal -0.0735229 0.997294 0
    outer loop
      vertex -1.1272 11.4446 3
      vertex -0.564278 11.4861 0
      vertex -1.1272 11.4446 0
    endloop
  endfacet
  facet normal 0.266681 0.963785 0
    outer loop
      vertex 3.33827 11.0048 3
      vertex 3 11.0984 2.5
      vertex 3 11.0984 3
    endloop
  endfacet
  facet normal 0.266681 0.963785 -0
    outer loop
      vertex 3.33827 11.0048 0
      vertex 3 11.0984 2.5
      vertex 3.33827 11.0048 3
    endloop
  endfacet
  facet normal 0.266803 0.963751 1.77599e-05
    outer loop
      vertex 2.79427 11.1554 0
      vertex 3 11.0984 2.5
      vertex 3.33827 11.0048 0
    endloop
  endfacet
  facet normal 0.267004 0.963696 0
    outer loop
      vertex 3 11.0984 2.5
      vertex 2.79427 11.1554 0
      vertex 2.79427 11.1554 2.5
    endloop
  endfacet
  facet normal -0.757214 0.653166 0
    outer loop
      vertex -8.88962 7.29552 0
      vertex -8.52094 7.72293 2.5
      vertex -8.52094 7.72293 0
    endloop
  endfacet
  facet normal -0.757214 0.653166 0
    outer loop
      vertex -8.52094 7.72293 2.5
      vertex -8.88962 7.29552 0
      vertex -8.88962 7.29552 2.5
    endloop
  endfacet
  facet normal -0.949558 -0.31359 0
    outer loop
      vertex -10.8278 -3.87423 0
      vertex -11.0048 -3.33827 3
      vertex -11.0048 -3.33827 0
    endloop
  endfacet
  facet normal -0.949558 -0.31359 0
    outer loop
      vertex -11.0048 -3.33827 3
      vertex -10.8278 -3.87423 0
      vertex -10.8278 -3.87423 3
    endloop
  endfacet
  facet normal -0.689519 -0.724267 0
    outer loop
      vertex -8.13173 -8.13173 3
      vertex -8 -8.25714 2.5
      vertex -8 -8.25714 3
    endloop
  endfacet
  facet normal -0.689519 -0.724267 0
    outer loop
      vertex -8.13173 -8.13173 0
      vertex -8 -8.25714 2.5
      vertex -8.13173 -8.13173 3
    endloop
  endfacet
  facet normal -0.689541 -0.724247 2.1439e-06
    outer loop
      vertex -7.72293 -8.52094 0
      vertex -8 -8.25714 2.5
      vertex -8.13173 -8.13173 0
    endloop
  endfacet
  facet normal -0.689551 -0.724237 0
    outer loop
      vertex -8 -8.25714 2.5
      vertex -7.72293 -8.52094 0
      vertex -7.72293 -8.52094 2.5
    endloop
  endfacet
  facet normal 0.492903 -0.870084 0
    outer loop
      vertex 5.42106 -10.1421 0
      vertex 5.91218 -9.86388 3
      vertex 5.42106 -10.1421 3
    endloop
  endfacet
  facet normal 0.492903 -0.870084 0
    outer loop
      vertex 5.91218 -9.86388 3
      vertex 5.42106 -10.1421 0
      vertex 5.91218 -9.86388 0
    endloop
  endfacet
  facet normal 0.992478 -0.122421 0
    outer loop
      vertex 11.3755 -1.6874 3
      vertex 11.4446 -1.1272 0
      vertex 11.4446 -1.1272 3
    endloop
  endfacet
  facet normal 0.992478 -0.122421 0
    outer loop
      vertex 11.4446 -1.1272 0
      vertex 11.3755 -1.6874 3
      vertex 11.3755 -1.6874 0
    endloop
  endfacet
  facet normal 0.405188 -0.914233 0
    outer loop
      vertex 4.40086 -10.6246 0
      vertex 4.91688 -10.3959 3
      vertex 4.40086 -10.6246 3
    endloop
  endfacet
  facet normal 0.405188 -0.914233 0
    outer loop
      vertex 4.91688 -10.3959 3
      vertex 4.40086 -10.6246 0
      vertex 4.91688 -10.3959 0
    endloop
  endfacet
  facet normal 0.405188 0.914233 -0
    outer loop
      vertex 4.91688 10.3959 0
      vertex 4.40086 10.6246 3
      vertex 4.91688 10.3959 3
    endloop
  endfacet
  facet normal 0.405188 0.914233 0
    outer loop
      vertex 4.40086 10.6246 3
      vertex 4.91688 10.3959 0
      vertex 4.40086 10.6246 0
    endloop
  endfacet
  facet normal 0.870084 0.492903 0
    outer loop
      vertex 10.1421 5.42106 3
      vertex 9.86388 5.91218 0
      vertex 9.86388 5.91218 3
    endloop
  endfacet
  facet normal 0.870084 0.492903 0
    outer loop
      vertex 9.86388 5.91218 0
      vertex 10.1421 5.42106 3
      vertex 10.1421 5.42106 0
    endloop
  endfacet
  facet normal -0.975729 -0.218982 0
    outer loop
      vertex -11.1554 -2.79427 0
      vertex -11.279 -2.24354 2.5
      vertex -11.279 -2.24354 0
    endloop
  endfacet
  facet normal -0.975729 -0.218982 0
    outer loop
      vertex -11.279 -2.24354 2.5
      vertex -11.1554 -2.79427 0
      vertex -11.1554 -2.79427 2.5
    endloop
  endfacet
  facet normal 0.492903 0.870084 -0
    outer loop
      vertex 5.91218 9.86388 0
      vertex 5.42106 10.1421 3
      vertex 5.91218 9.86388 3
    endloop
  endfacet
  facet normal 0.492903 0.870084 0
    outer loop
      vertex 5.42106 10.1421 3
      vertex 5.91218 9.86388 0
      vertex 5.42106 10.1421 0
    endloop
  endfacet
  facet normal -0.615238 -0.788341 -0
    outer loop
      vertex -7.29552 -8.88962 2.5
      vertex -7.29552 -8.88962 0
      vertex -7 -9.12025 2.5
    endloop
  endfacet
  facet normal -0.615232 -0.788346 0
    outer loop
      vertex -7 -9.12025 2.5
      vertex -6.85054 -9.23689 3
      vertex -7 -9.12025 3
    endloop
  endfacet
  facet normal -0.615236 -0.788343 -3.59288e-07
    outer loop
      vertex -6.85054 -9.23689 0
      vertex -7 -9.12025 2.5
      vertex -7.29552 -8.88962 0
    endloop
  endfacet
  facet normal -0.615232 -0.788346 0
    outer loop
      vertex -7 -9.12025 2.5
      vertex -6.85054 -9.23689 0
      vertex -6.85054 -9.23689 3
    endloop
  endfacet
  facet normal 0.689541 0.724247 -0
    outer loop
      vertex 8.13173 8.13173 0
      vertex 7.72293 8.52094 3
      vertex 8.13173 8.13173 3
    endloop
  endfacet
  facet normal 0.689541 0.724247 0
    outer loop
      vertex 7.72293 8.52094 3
      vertex 8.13173 8.13173 0
      vertex 7.72293 8.52094 0
    endloop
  endfacet
  facet normal -0.817586 -0.575807 0
    outer loop
      vertex -9.23689 -6.85054 0
      vertex -9.5619 -6.38906 3
      vertex -9.5619 -6.38906 0
    endloop
  endfacet
  facet normal -0.817586 -0.575807 0
    outer loop
      vertex -9.5619 -6.38906 3
      vertex -9.23689 -6.85054 0
      vertex -9.23689 -6.85054 3
    endloop
  endfacet
  facet normal -0.870084 0.492903 0
    outer loop
      vertex -10.1421 5.42106 0
      vertex -9.86388 5.91218 3
      vertex -9.86388 5.91218 0
    endloop
  endfacet
  facet normal -0.870084 0.492903 0
    outer loop
      vertex -9.86388 5.91218 3
      vertex -10.1421 5.42106 0
      vertex -10.1421 5.42106 3
    endloop
  endfacet
  facet normal 0.914233 -0.405188 0
    outer loop
      vertex 10.3959 -4.91688 3
      vertex 10.6246 -4.40086 0
      vertex 10.6246 -4.40086 3
    endloop
  endfacet
  facet normal 0.914233 -0.405188 0
    outer loop
      vertex 10.6246 -4.40086 0
      vertex 10.3959 -4.91688 3
      vertex 10.3959 -4.91688 0
    endloop
  endfacet
  facet normal 0.997294 -0.0735229 0
    outer loop
      vertex 11.4446 -1.1272 3
      vertex 11.4861 -0.564278 0
      vertex 11.4861 -0.564278 3
    endloop
  endfacet
  facet normal 0.997294 -0.0735229 0
    outer loop
      vertex 11.4861 -0.564278 0
      vertex 11.4446 -1.1272 3
      vertex 11.4446 -1.1272 0
    endloop
  endfacet
  facet normal 0.932959 -0.359982 0
    outer loop
      vertex 10.6246 -4.40086 3
      vertex 10.8278 -3.87423 0
      vertex 10.8278 -3.87423 3
    endloop
  endfacet
  facet normal 0.932959 -0.359982 0
    outer loop
      vertex 10.8278 -3.87423 0
      vertex 10.6246 -4.40086 3
      vertex 10.6246 -4.40086 0
    endloop
  endfacet
  facet normal 0.449636 -0.893212 0
    outer loop
      vertex 4.91688 -10.3959 0
      vertex 5.42106 -10.1421 3
      vertex 4.91688 -10.3959 3
    endloop
  endfacet
  facet normal 0.449636 -0.893212 0
    outer loop
      vertex 5.42106 -10.1421 3
      vertex 4.91688 -10.3959 0
      vertex 5.42106 -10.1421 0
    endloop
  endfacet
  facet normal 0.893212 0.449636 0
    outer loop
      vertex 10.3959 4.91688 3
      vertex 10.1421 5.42106 0
      vertex 10.1421 5.42106 3
    endloop
  endfacet
  facet normal 0.893212 0.449636 0
    outer loop
      vertex 10.1421 5.42106 0
      vertex 10.3959 4.91688 3
      vertex 10.3959 4.91688 0
    endloop
  endfacet
  facet normal -0.359982 -0.932959 0
    outer loop
      vertex -4.40086 -10.6246 0
      vertex -3.87423 -10.8278 3
      vertex -4.40086 -10.6246 3
    endloop
  endfacet
  facet normal -0.359982 -0.932959 -0
    outer loop
      vertex -3.87423 -10.8278 3
      vertex -4.40086 -10.6246 0
      vertex -3.87423 -10.8278 0
    endloop
  endfacet
  facet normal 0.788343 -0.615236 0
    outer loop
      vertex 8.88962 -7.29552 3
      vertex 9.23689 -6.85054 0
      vertex 9.23689 -6.85054 3
    endloop
  endfacet
  facet normal 0.788343 -0.615236 0
    outer loop
      vertex 9.23689 -6.85054 0
      vertex 8.88962 -7.29552 3
      vertex 8.88962 -7.29552 0
    endloop
  endfacet
  facet normal -0.31359 0.949558 0
    outer loop
      vertex -3.33827 11.0048 0
      vertex -3.87423 10.8278 3
      vertex -3.33827 11.0048 3
    endloop
  endfacet
  facet normal -0.31359 0.949558 0
    outer loop
      vertex -3.87423 10.8278 3
      vertex -3.33827 11.0048 0
      vertex -3.87423 10.8278 0
    endloop
  endfacet
  facet normal -0.575807 -0.817586 0
    outer loop
      vertex -6.85054 -9.23689 0
      vertex -6.38906 -9.5619 3
      vertex -6.85054 -9.23689 3
    endloop
  endfacet
  facet normal -0.575807 -0.817586 -0
    outer loop
      vertex -6.38906 -9.5619 3
      vertex -6.85054 -9.23689 0
      vertex -6.38906 -9.5619 0
    endloop
  endfacet
  facet normal -0.893212 0.449636 0
    outer loop
      vertex -10.3959 4.91688 0
      vertex -10.1421 5.42106 3
      vertex -10.1421 5.42106 0
    endloop
  endfacet
  facet normal -0.893212 0.449636 0
    outer loop
      vertex -10.1421 5.42106 3
      vertex -10.3959 4.91688 0
      vertex -10.3959 4.91688 3
    endloop
  endfacet
  facet normal 0.0246258 -0.999697 0
    outer loop
      vertex 0 -11.5 0
      vertex 0.564278 -11.4861 3
      vertex 0 -11.5 3
    endloop
  endfacet
  facet normal 0.0246258 -0.999697 0
    outer loop
      vertex 0.564278 -11.4861 3
      vertex 0 -11.5 0
      vertex 0.564278 -11.4861 0
    endloop
  endfacet
  facet normal -0.218982 -0.975729 0
    outer loop
      vertex -2.79427 -11.1554 0
      vertex -2.24354 -11.279 3
      vertex -2.79427 -11.1554 3
    endloop
  endfacet
  facet normal -0.218982 -0.975729 -0
    outer loop
      vertex -2.24354 -11.279 3
      vertex -2.79427 -11.1554 0
      vertex -2.24354 -11.279 0
    endloop
  endfacet
  facet normal 0.615236 0.788343 -0
    outer loop
      vertex 7.29552 8.88962 0
      vertex 6.85054 9.23689 3
      vertex 7.29552 8.88962 3
    endloop
  endfacet
  facet normal 0.615236 0.788343 0
    outer loop
      vertex 6.85054 9.23689 3
      vertex 7.29552 8.88962 0
      vertex 6.85054 9.23689 0
    endloop
  endfacet
  facet normal -0.0246258 0.999697 0
    outer loop
      vertex 0 11.5 0
      vertex -0.564278 11.4861 3
      vertex 0 11.5 3
    endloop
  endfacet
  facet normal -0.0246258 0.999697 0
    outer loop
      vertex -0.564278 11.4861 3
      vertex 0 11.5 0
      vertex -0.564278 11.4861 0
    endloop
  endfacet
  facet normal 0.788346 0.615232 0
    outer loop
      vertex 9.12025 7 3
      vertex 9.23689 6.85054 3
      vertex 9.12025 7 2.5
    endloop
  endfacet
  facet normal 0.788341 0.615238 0
    outer loop
      vertex 9.12025 7 2.5
      vertex 8.88962 7.29552 0
      vertex 8.88962 7.29552 2.5
    endloop
  endfacet
  facet normal 0.788346 0.615232 -0
    outer loop
      vertex 9.23689 6.85054 0
      vertex 9.12025 7 2.5
      vertex 9.23689 6.85054 3
    endloop
  endfacet
  facet normal 0.788343 0.615236 -3.59288e-07
    outer loop
      vertex 9.12025 7 2.5
      vertex 9.23689 6.85054 0
      vertex 8.88962 7.29552 0
    endloop
  endfacet
  facet normal -0.914233 0.405188 0
    outer loop
      vertex -10.6246 4.40086 0
      vertex -10.3959 4.91688 3
      vertex -10.3959 4.91688 0
    endloop
  endfacet
  facet normal -0.914233 0.405188 0
    outer loop
      vertex -10.3959 4.91688 3
      vertex -10.6246 4.40086 0
      vertex -10.6246 4.40086 3
    endloop
  endfacet
  facet normal -0.534996 -0.844854 0
    outer loop
      vertex -6.38906 -9.5619 0
      vertex -5.91218 -9.86388 3
      vertex -6.38906 -9.5619 3
    endloop
  endfacet
  facet normal -0.534996 -0.844854 -0
    outer loop
      vertex -5.91218 -9.86388 3
      vertex -6.38906 -9.5619 0
      vertex -5.91218 -9.86388 0
    endloop
  endfacet
  facet normal -0.449636 -0.893212 0
    outer loop
      vertex -5.42106 -10.1421 0
      vertex -4.91688 -10.3959 3
      vertex -5.42106 -10.1421 3
    endloop
  endfacet
  facet normal -0.449636 -0.893212 -0
    outer loop
      vertex -4.91688 -10.3959 3
      vertex -5.42106 -10.1421 0
      vertex -4.91688 -10.3959 0
    endloop
  endfacet
  facet normal 0.534996 -0.844854 0
    outer loop
      vertex 5.91218 -9.86388 0
      vertex 6.38906 -9.5619 3
      vertex 5.91218 -9.86388 3
    endloop
  endfacet
  facet normal 0.534996 -0.844854 0
    outer loop
      vertex 6.38906 -9.5619 3
      vertex 5.91218 -9.86388 0
      vertex 6.38906 -9.5619 0
    endloop
  endfacet
  facet normal -0.992478 -0.122421 0
    outer loop
      vertex -11.3755 -1.6874 0
      vertex -11.4446 -1.1272 3
      vertex -11.4446 -1.1272 0
    endloop
  endfacet
  facet normal -0.992478 -0.122421 0
    outer loop
      vertex -11.4446 -1.1272 3
      vertex -11.3755 -1.6874 0
      vertex -11.3755 -1.6874 3
    endloop
  endfacet
  facet normal 0.914233 0.405188 0
    outer loop
      vertex 10.6246 4.40086 3
      vertex 10.3959 4.91688 0
      vertex 10.3959 4.91688 3
    endloop
  endfacet
  facet normal 0.914233 0.405188 0
    outer loop
      vertex 10.3959 4.91688 0
      vertex 10.6246 4.40086 3
      vertex 10.6246 4.40086 0
    endloop
  endfacet
  facet normal -0.122421 -0.992478 0
    outer loop
      vertex -1.6874 -11.3755 0
      vertex -1.1272 -11.4446 3
      vertex -1.6874 -11.3755 3
    endloop
  endfacet
  facet normal -0.122421 -0.992478 -0
    outer loop
      vertex -1.1272 -11.4446 3
      vertex -1.6874 -11.3755 0
      vertex -1.1272 -11.4446 0
    endloop
  endfacet
  facet normal -0.724247 -0.689541 0
    outer loop
      vertex -8.13173 -8.13173 0
      vertex -8.52094 -7.72293 3
      vertex -8.52094 -7.72293 0
    endloop
  endfacet
  facet normal -0.724247 -0.689541 0
    outer loop
      vertex -8.52094 -7.72293 3
      vertex -8.13173 -8.13173 0
      vertex -8.13173 -8.13173 3
    endloop
  endfacet
  facet normal 0.817586 0.575807 0
    outer loop
      vertex 9.5619 6.38906 3
      vertex 9.23689 6.85054 0
      vertex 9.23689 6.85054 3
    endloop
  endfacet
  facet normal 0.817586 0.575807 0
    outer loop
      vertex 9.23689 6.85054 0
      vertex 9.5619 6.38906 3
      vertex 9.5619 6.38906 0
    endloop
  endfacet
  facet normal 0.975729 0.218982 0
    outer loop
      vertex 11.279 2.24354 3
      vertex 11.1554 2.79427 0
      vertex 11.1554 2.79427 3
    endloop
  endfacet
  facet normal 0.975729 0.218982 0
    outer loop
      vertex 11.1554 2.79427 0
      vertex 11.279 2.24354 3
      vertex 11.279 2.24354 0
    endloop
  endfacet
  facet normal -0.999697 0.0246258 0
    outer loop
      vertex -11.5 0 0
      vertex -11.4861 0.564278 3
      vertex -11.4861 0.564278 0
    endloop
  endfacet
  facet normal -0.999697 0.0246258 0
    outer loop
      vertex -11.4861 0.564278 3
      vertex -11.5 0 0
      vertex -11.5 0 3
    endloop
  endfacet
  facet normal -0.997294 -0.0735229 0
    outer loop
      vertex -11.4446 -1.1272 0
      vertex -11.4861 -0.564278 3
      vertex -11.4861 -0.564278 0
    endloop
  endfacet
  facet normal -0.997294 -0.0735229 0
    outer loop
      vertex -11.4861 -0.564278 3
      vertex -11.4446 -1.1272 0
      vertex -11.4446 -1.1272 3
    endloop
  endfacet
  facet normal 0.999697 -0.0246258 0
    outer loop
      vertex 11.4861 -0.564278 3
      vertex 11.5 0 0
      vertex 11.5 0 3
    endloop
  endfacet
  facet normal 0.999697 -0.0246258 0
    outer loop
      vertex 11.5 0 0
      vertex 11.4861 -0.564278 3
      vertex 11.4861 -0.564278 0
    endloop
  endfacet
  facet normal 0.31359 0.949558 -0
    outer loop
      vertex 3.87423 10.8278 0
      vertex 3.33827 11.0048 3
      vertex 3.87423 10.8278 3
    endloop
  endfacet
  facet normal 0.31359 0.949558 0
    outer loop
      vertex 3.33827 11.0048 3
      vertex 3.87423 10.8278 0
      vertex 3.33827 11.0048 0
    endloop
  endfacet
  facet normal -0.534996 0.844854 0
    outer loop
      vertex -5.91218 9.86388 0
      vertex -6.38906 9.5619 3
      vertex -5.91218 9.86388 3
    endloop
  endfacet
  facet normal -0.534996 0.844854 0
    outer loop
      vertex -6.38906 9.5619 3
      vertex -5.91218 9.86388 0
      vertex -6.38906 9.5619 0
    endloop
  endfacet
  facet normal 0.975729 -0.218982 0
    outer loop
      vertex 11.1554 -2.79427 2.5
      vertex 11.279 -2.24354 0
      vertex 11.279 -2.24354 2.5
    endloop
  endfacet
  facet normal 0.975729 -0.218982 0
    outer loop
      vertex 11.279 -2.24354 0
      vertex 11.1554 -2.79427 2.5
      vertex 11.1554 -2.79427 0
    endloop
  endfacet
  facet normal 0.963785 -0.266681 0
    outer loop
      vertex 11.0984 -3 3
      vertex 11.0048 -3.33827 3
      vertex 11.0984 -3 2.5
    endloop
  endfacet
  facet normal 0.963696 -0.267004 0
    outer loop
      vertex 11.0984 -3 2.5
      vertex 11.1554 -2.79427 0
      vertex 11.1554 -2.79427 2.5
    endloop
  endfacet
  facet normal 0.963785 -0.266681 0
    outer loop
      vertex 11.0048 -3.33827 0
      vertex 11.0984 -3 2.5
      vertex 11.0048 -3.33827 3
    endloop
  endfacet
  facet normal 0.963751 -0.266803 1.77599e-05
    outer loop
      vertex 11.0984 -3 2.5
      vertex 11.0048 -3.33827 0
      vertex 11.1554 -2.79427 0
    endloop
  endfacet
  facet normal 0.949558 -0.31359 0
    outer loop
      vertex 10.8278 -3.87423 3
      vertex 11.0048 -3.33827 0
      vertex 11.0048 -3.33827 3
    endloop
  endfacet
  facet normal 0.949558 -0.31359 0
    outer loop
      vertex 11.0048 -3.33827 0
      vertex 10.8278 -3.87423 3
      vertex 10.8278 -3.87423 0
    endloop
  endfacet
  facet normal -0.653166 -0.757214 0
    outer loop
      vertex -7.72293 -8.52094 0
      vertex -7.29552 -8.88962 2.5
      vertex -7.72293 -8.52094 2.5
    endloop
  endfacet
  facet normal -0.653166 -0.757214 -0
    outer loop
      vertex -7.29552 -8.88962 2.5
      vertex -7.72293 -8.52094 0
      vertex -7.29552 -8.88962 0
    endloop
  endfacet
  facet normal 0.653166 0.757214 -0
    outer loop
      vertex 7.72293 8.52094 0
      vertex 7.29552 8.88962 3
      vertex 7.72293 8.52094 3
    endloop
  endfacet
  facet normal 0.653166 0.757214 0
    outer loop
      vertex 7.29552 8.88962 3
      vertex 7.72293 8.52094 0
      vertex 7.29552 8.88962 0
    endloop
  endfacet
  facet normal -0.870084 -0.492903 0
    outer loop
      vertex -9.86388 -5.91218 0
      vertex -10.1421 -5.42106 3
      vertex -10.1421 -5.42106 0
    endloop
  endfacet
  facet normal -0.870084 -0.492903 0
    outer loop
      vertex -10.1421 -5.42106 3
      vertex -9.86388 -5.91218 0
      vertex -9.86388 -5.91218 3
    endloop
  endfacet
  facet normal 0.844854 -0.534996 0
    outer loop
      vertex 9.5619 -6.38906 3
      vertex 9.86388 -5.91218 0
      vertex 9.86388 -5.91218 3
    endloop
  endfacet
  facet normal 0.844854 -0.534996 0
    outer loop
      vertex 9.86388 -5.91218 0
      vertex 9.5619 -6.38906 3
      vertex 9.5619 -6.38906 0
    endloop
  endfacet
  facet normal 0.359982 0.932959 -0
    outer loop
      vertex 4.40086 10.6246 0
      vertex 3.87423 10.8278 3
      vertex 4.40086 10.6246 3
    endloop
  endfacet
  facet normal 0.359982 0.932959 0
    outer loop
      vertex 3.87423 10.8278 3
      vertex 4.40086 10.6246 0
      vertex 3.87423 10.8278 0
    endloop
  endfacet
  facet normal 0.218982 -0.975729 0
    outer loop
      vertex 2.24354 -11.279 0
      vertex 2.79427 -11.1554 2.5
      vertex 2.24354 -11.279 2.5
    endloop
  endfacet
  facet normal 0.218982 -0.975729 0
    outer loop
      vertex 2.79427 -11.1554 2.5
      vertex 2.24354 -11.279 0
      vertex 2.79427 -11.1554 0
    endloop
  endfacet
  facet normal 0.267004 -0.963696 0
    outer loop
      vertex 2.79427 -11.1554 2.5
      vertex 2.79427 -11.1554 0
      vertex 3 -11.0984 2.5
    endloop
  endfacet
  facet normal 0.266681 -0.963785 0
    outer loop
      vertex 3 -11.0984 2.5
      vertex 3.33827 -11.0048 3
      vertex 3 -11.0984 3
    endloop
  endfacet
  facet normal 0.266803 -0.963751 1.77599e-05
    outer loop
      vertex 3.33827 -11.0048 0
      vertex 3 -11.0984 2.5
      vertex 2.79427 -11.1554 0
    endloop
  endfacet
  facet normal 0.266681 -0.963785 0
    outer loop
      vertex 3 -11.0984 2.5
      vertex 3.33827 -11.0048 0
      vertex 3.33827 -11.0048 3
    endloop
  endfacet
  facet normal -0.817586 0.575807 0
    outer loop
      vertex -9.5619 6.38906 0
      vertex -9.23689 6.85054 3
      vertex -9.23689 6.85054 0
    endloop
  endfacet
  facet normal -0.817586 0.575807 0
    outer loop
      vertex -9.23689 6.85054 3
      vertex -9.5619 6.38906 0
      vertex -9.5619 6.38906 3
    endloop
  endfacet
  facet normal -0.788341 0.615238 0
    outer loop
      vertex -8.88962 7.29552 0
      vertex -9.12025 7 2.5
      vertex -8.88962 7.29552 2.5
    endloop
  endfacet
  facet normal -0.788343 0.615236 -3.59288e-07
    outer loop
      vertex -9.23689 6.85054 0
      vertex -9.12025 7 2.5
      vertex -8.88962 7.29552 0
    endloop
  endfacet
  facet normal -0.788346 0.615232 0
    outer loop
      vertex -9.23689 6.85054 3
      vertex -9.12025 7 2.5
      vertex -9.23689 6.85054 0
    endloop
  endfacet
  facet normal -0.788346 0.615232 0
    outer loop
      vertex -9.12025 7 2.5
      vertex -9.23689 6.85054 3
      vertex -9.12025 7 3
    endloop
  endfacet
  facet normal 0.359982 -0.932959 0
    outer loop
      vertex 3.87423 -10.8278 0
      vertex 4.40086 -10.6246 3
      vertex 3.87423 -10.8278 3
    endloop
  endfacet
  facet normal 0.359982 -0.932959 0
    outer loop
      vertex 4.40086 -10.6246 3
      vertex 3.87423 -10.8278 0
      vertex 4.40086 -10.6246 0
    endloop
  endfacet
  facet normal 0.0246258 0.999697 -0
    outer loop
      vertex 0.564278 11.4861 0
      vertex 0 11.5 3
      vertex 0.564278 11.4861 3
    endloop
  endfacet
  facet normal 0.0246258 0.999697 0
    outer loop
      vertex 0 11.5 3
      vertex 0.564278 11.4861 0
      vertex 0 11.5 0
    endloop
  endfacet
  facet normal 0.0735229 0.997294 -0
    outer loop
      vertex 1.1272 11.4446 0
      vertex 0.564278 11.4861 3
      vertex 1.1272 11.4446 3
    endloop
  endfacet
  facet normal 0.0735229 0.997294 0
    outer loop
      vertex 0.564278 11.4861 3
      vertex 1.1272 11.4446 0
      vertex 0.564278 11.4861 0
    endloop
  endfacet
  facet normal -0.449636 0.893212 0
    outer loop
      vertex -4.91688 10.3959 0
      vertex -5.42106 10.1421 3
      vertex -4.91688 10.3959 3
    endloop
  endfacet
  facet normal -0.449636 0.893212 0
    outer loop
      vertex -5.42106 10.1421 3
      vertex -4.91688 10.3959 0
      vertex -5.42106 10.1421 0
    endloop
  endfacet
  facet normal 0.122421 0.992478 -0
    outer loop
      vertex 1.6874 11.3755 0
      vertex 1.1272 11.4446 3
      vertex 1.6874 11.3755 3
    endloop
  endfacet
  facet normal 0.122421 0.992478 0
    outer loop
      vertex 1.1272 11.4446 3
      vertex 1.6874 11.3755 0
      vertex 1.1272 11.4446 0
    endloop
  endfacet
  facet normal -0.615232 0.788346 0
    outer loop
      vertex -6.85054 9.23689 3
      vertex -7 9.12025 2.5
      vertex -7 9.12025 3
    endloop
  endfacet
  facet normal -0.615232 0.788346 0
    outer loop
      vertex -6.85054 9.23689 0
      vertex -7 9.12025 2.5
      vertex -6.85054 9.23689 3
    endloop
  endfacet
  facet normal -0.615236 0.788343 -3.59288e-07
    outer loop
      vertex -7.29552 8.88962 0
      vertex -7 9.12025 2.5
      vertex -6.85054 9.23689 0
    endloop
  endfacet
  facet normal -0.615238 0.788341 0
    outer loop
      vertex -7 9.12025 2.5
      vertex -7.29552 8.88962 0
      vertex -7.29552 8.88962 2.5
    endloop
  endfacet
  facet normal -0.122421 0.992478 0
    outer loop
      vertex -1.1272 11.4446 0
      vertex -1.6874 11.3755 3
      vertex -1.1272 11.4446 3
    endloop
  endfacet
  facet normal -0.122421 0.992478 0
    outer loop
      vertex -1.6874 11.3755 3
      vertex -1.1272 11.4446 0
      vertex -1.6874 11.3755 0
    endloop
  endfacet
  facet normal -0.757214 -0.653166 0
    outer loop
      vertex -8.52094 -7.72293 0
      vertex -8.88962 -7.29552 3
      vertex -8.88962 -7.29552 0
    endloop
  endfacet
  facet normal -0.757214 -0.653166 0
    outer loop
      vertex -8.88962 -7.29552 3
      vertex -8.52094 -7.72293 0
      vertex -8.52094 -7.72293 3
    endloop
  endfacet
  facet normal 0.963751 0.266803 0
    outer loop
      vertex 11.1554 2.79427 3
      vertex 11.0048 3.33827 0
      vertex 11.0048 3.33827 3
    endloop
  endfacet
  facet normal 0.963751 0.266803 0
    outer loop
      vertex 11.0048 3.33827 0
      vertex 11.1554 2.79427 3
      vertex 11.1554 2.79427 0
    endloop
  endfacet
  facet normal 0.985277 0.170963 0
    outer loop
      vertex 11.3755 1.6874 3
      vertex 11.279 2.24354 0
      vertex 11.279 2.24354 3
    endloop
  endfacet
  facet normal 0.985277 0.170963 0
    outer loop
      vertex 11.279 2.24354 0
      vertex 11.3755 1.6874 3
      vertex 11.3755 1.6874 0
    endloop
  endfacet
  facet normal -0.405188 0.914233 0
    outer loop
      vertex -4.40086 10.6246 0
      vertex -4.91688 10.3959 3
      vertex -4.40086 10.6246 3
    endloop
  endfacet
  facet normal -0.405188 0.914233 0
    outer loop
      vertex -4.91688 10.3959 3
      vertex -4.40086 10.6246 0
      vertex -4.91688 10.3959 0
    endloop
  endfacet
  facet normal 0.870084 -0.492903 0
    outer loop
      vertex 9.86388 -5.91218 3
      vertex 10.1421 -5.42106 0
      vertex 10.1421 -5.42106 3
    endloop
  endfacet
  facet normal 0.870084 -0.492903 0
    outer loop
      vertex 10.1421 -5.42106 0
      vertex 9.86388 -5.91218 3
      vertex 9.86388 -5.91218 0
    endloop
  endfacet
  facet normal -0.985277 0.170963 0
    outer loop
      vertex -11.3755 1.6874 0
      vertex -11.279 2.24354 3
      vertex -11.279 2.24354 0
    endloop
  endfacet
  facet normal -0.985277 0.170963 0
    outer loop
      vertex -11.279 2.24354 3
      vertex -11.3755 1.6874 0
      vertex -11.3755 1.6874 3
    endloop
  endfacet
  facet normal -0.975729 0.218982 0
    outer loop
      vertex -11.279 2.24354 0
      vertex -11.1554 2.79427 3
      vertex -11.1554 2.79427 0
    endloop
  endfacet
  facet normal -0.975729 0.218982 0
    outer loop
      vertex -11.1554 2.79427 3
      vertex -11.279 2.24354 0
      vertex -11.279 2.24354 3
    endloop
  endfacet
  facet normal -0.963751 0.266803 0
    outer loop
      vertex -11.1554 2.79427 0
      vertex -11.0048 3.33827 3
      vertex -11.0048 3.33827 0
    endloop
  endfacet
  facet normal -0.963751 0.266803 0
    outer loop
      vertex -11.0048 3.33827 3
      vertex -11.1554 2.79427 0
      vertex -11.1554 2.79427 3
    endloop
  endfacet
  facet normal 0.992478 0.122421 0
    outer loop
      vertex 11.4446 1.1272 3
      vertex 11.3755 1.6874 0
      vertex 11.3755 1.6874 3
    endloop
  endfacet
  facet normal 0.992478 0.122421 0
    outer loop
      vertex 11.3755 1.6874 0
      vertex 11.4446 1.1272 3
      vertex 11.4446 1.1272 0
    endloop
  endfacet
  facet normal 0.449636 0.893212 -0
    outer loop
      vertex 5.42106 10.1421 0
      vertex 4.91688 10.3959 3
      vertex 5.42106 10.1421 3
    endloop
  endfacet
  facet normal 0.449636 0.893212 0
    outer loop
      vertex 4.91688 10.3959 3
      vertex 5.42106 10.1421 0
      vertex 4.91688 10.3959 0
    endloop
  endfacet
  facet normal -0.170963 0.985277 0
    outer loop
      vertex -1.6874 11.3755 0
      vertex -2.24354 11.279 3
      vertex -1.6874 11.3755 3
    endloop
  endfacet
  facet normal -0.170963 0.985277 0
    outer loop
      vertex -2.24354 11.279 3
      vertex -1.6874 11.3755 0
      vertex -2.24354 11.279 0
    endloop
  endfacet
  facet normal -0.963696 -0.267004 0
    outer loop
      vertex -11.1554 -2.79427 0
      vertex -11.0984 -3 2.5
      vertex -11.1554 -2.79427 2.5
    endloop
  endfacet
  facet normal -0.963751 -0.266803 1.77599e-05
    outer loop
      vertex -11.0048 -3.33827 0
      vertex -11.0984 -3 2.5
      vertex -11.1554 -2.79427 0
    endloop
  endfacet
  facet normal -0.963785 -0.266681 -0
    outer loop
      vertex -11.0048 -3.33827 3
      vertex -11.0984 -3 2.5
      vertex -11.0048 -3.33827 0
    endloop
  endfacet
  facet normal -0.963785 -0.266681 0
    outer loop
      vertex -11.0984 -3 2.5
      vertex -11.0048 -3.33827 3
      vertex -11.0984 -3 3
    endloop
  endfacet
  facet normal -0.0735229 -0.997294 0
    outer loop
      vertex -1.1272 -11.4446 0
      vertex -0.564278 -11.4861 3
      vertex -1.1272 -11.4446 3
    endloop
  endfacet
  facet normal -0.0735229 -0.997294 -0
    outer loop
      vertex -0.564278 -11.4861 3
      vertex -1.1272 -11.4446 0
      vertex -0.564278 -11.4861 0
    endloop
  endfacet
  facet normal -0.0246258 -0.999697 0
    outer loop
      vertex -0.564278 -11.4861 0
      vertex 0 -11.5 3
      vertex -0.564278 -11.4861 3
    endloop
  endfacet
  facet normal -0.0246258 -0.999697 -0
    outer loop
      vertex 0 -11.5 3
      vertex -0.564278 -11.4861 0
      vertex 0 -11.5 0
    endloop
  endfacet
  facet normal 0.932959 0.359982 0
    outer loop
      vertex 10.8278 3.87423 3
      vertex 10.6246 4.40086 0
      vertex 10.6246 4.40086 3
    endloop
  endfacet
  facet normal 0.932959 0.359982 0
    outer loop
      vertex 10.6246 4.40086 0
      vertex 10.8278 3.87423 3
      vertex 10.8278 3.87423 0
    endloop
  endfacet
  facet normal -0.492903 -0.870084 0
    outer loop
      vertex -5.91218 -9.86388 0
      vertex -5.42106 -10.1421 3
      vertex -5.91218 -9.86388 3
    endloop
  endfacet
  facet normal -0.492903 -0.870084 -0
    outer loop
      vertex -5.42106 -10.1421 3
      vertex -5.91218 -9.86388 0
      vertex -5.42106 -10.1421 0
    endloop
  endfacet
  facet normal -0.932959 -0.359982 0
    outer loop
      vertex -10.6246 -4.40086 0
      vertex -10.8278 -3.87423 3
      vertex -10.8278 -3.87423 0
    endloop
  endfacet
  facet normal -0.932959 -0.359982 0
    outer loop
      vertex -10.8278 -3.87423 3
      vertex -10.6246 -4.40086 0
      vertex -10.6246 -4.40086 3
    endloop
  endfacet
  facet normal -0.9853 -0.170836 0
    outer loop
      vertex -11.3755 -1.6874 0
      vertex -11.3213 -2 2.5
      vertex -11.3755 -1.6874 3
    endloop
  endfacet
  facet normal -0.985277 -0.170963 -1.63784e-05
    outer loop
      vertex -11.279 -2.24354 0
      vertex -11.3213 -2 2.5
      vertex -11.3755 -1.6874 0
    endloop
  endfacet
  facet normal -0.985249 -0.171126 0
    outer loop
      vertex -11.3213 -2 2.5
      vertex -11.279 -2.24354 0
      vertex -11.279 -2.24354 2.5
    endloop
  endfacet
  facet normal -0.9853 -0.170836 0
    outer loop
      vertex -11.3755 -1.6874 3
      vertex -11.3213 -2 2.5
      vertex -11.3213 -2 3
    endloop
  endfacet
  facet normal -0.31359 -0.949558 0
    outer loop
      vertex -3.87423 -10.8278 0
      vertex -3.33827 -11.0048 3
      vertex -3.87423 -10.8278 3
    endloop
  endfacet
  facet normal -0.31359 -0.949558 -0
    outer loop
      vertex -3.33827 -11.0048 3
      vertex -3.87423 -10.8278 0
      vertex -3.33827 -11.0048 0
    endloop
  endfacet
  facet normal 0.689541 -0.724247 0
    outer loop
      vertex 7.72293 -8.52094 0
      vertex 8.13173 -8.13173 3
      vertex 7.72293 -8.52094 3
    endloop
  endfacet
  facet normal 0.689541 -0.724247 0
    outer loop
      vertex 8.13173 -8.13173 3
      vertex 7.72293 -8.52094 0
      vertex 8.13173 -8.13173 0
    endloop
  endfacet
  facet normal 0.653166 -0.757214 0
    outer loop
      vertex 7.29552 -8.88962 0
      vertex 7.72293 -8.52094 3
      vertex 7.29552 -8.88962 3
    endloop
  endfacet
  facet normal 0.653166 -0.757214 0
    outer loop
      vertex 7.72293 -8.52094 3
      vertex 7.29552 -8.88962 0
      vertex 7.72293 -8.52094 0
    endloop
  endfacet
  facet normal -0.844854 -0.534996 0
    outer loop
      vertex -9.5619 -6.38906 0
      vertex -9.86388 -5.91218 3
      vertex -9.86388 -5.91218 0
    endloop
  endfacet
  facet normal -0.844854 -0.534996 0
    outer loop
      vertex -9.86388 -5.91218 3
      vertex -9.5619 -6.38906 0
      vertex -9.5619 -6.38906 3
    endloop
  endfacet
  facet normal 0.893212 -0.449636 0
    outer loop
      vertex 10.1421 -5.42106 3
      vertex 10.3959 -4.91688 0
      vertex 10.3959 -4.91688 3
    endloop
  endfacet
  facet normal 0.893212 -0.449636 0
    outer loop
      vertex 10.3959 -4.91688 0
      vertex 10.1421 -5.42106 3
      vertex 10.1421 -5.42106 0
    endloop
  endfacet
  facet normal -0.266803 0.963751 0
    outer loop
      vertex -2.79427 11.1554 0
      vertex -3.33827 11.0048 3
      vertex -2.79427 11.1554 3
    endloop
  endfacet
  facet normal -0.266803 0.963751 0
    outer loop
      vertex -3.33827 11.0048 3
      vertex -2.79427 11.1554 0
      vertex -3.33827 11.0048 0
    endloop
  endfacet
  facet normal 0.724267 0.689519 -0
    outer loop
      vertex 8.25714 8 2.5
      vertex 8.13173 8.13173 3
      vertex 8.25714 8 3
    endloop
  endfacet
  facet normal 0.724267 0.689519 0
    outer loop
      vertex 8.13173 8.13173 3
      vertex 8.25714 8 2.5
      vertex 8.13173 8.13173 0
    endloop
  endfacet
  facet normal 0.724237 0.689551 -0
    outer loop
      vertex 8.52094 7.72293 0
      vertex 8.25714 8 2.5
      vertex 8.52094 7.72293 2.5
    endloop
  endfacet
  facet normal 0.724247 0.689541 2.1439e-06
    outer loop
      vertex 8.25714 8 2.5
      vertex 8.52094 7.72293 0
      vertex 8.13173 8.13173 0
    endloop
  endfacet
  facet normal 0.31359 -0.949558 0
    outer loop
      vertex 3.33827 -11.0048 0
      vertex 3.87423 -10.8278 3
      vertex 3.33827 -11.0048 3
    endloop
  endfacet
  facet normal 0.31359 -0.949558 0
    outer loop
      vertex 3.87423 -10.8278 3
      vertex 3.33827 -11.0048 0
      vertex 3.87423 -10.8278 0
    endloop
  endfacet
  facet normal -0.724267 0.689519 0
    outer loop
      vertex -8.13173 8.13173 0
      vertex -8.25714 8 2.5
      vertex -8.13173 8.13173 3
    endloop
  endfacet
  facet normal -0.724247 0.689541 2.1439e-06
    outer loop
      vertex -8.52094 7.72293 0
      vertex -8.25714 8 2.5
      vertex -8.13173 8.13173 0
    endloop
  endfacet
  facet normal -0.724237 0.689551 0
    outer loop
      vertex -8.25714 8 2.5
      vertex -8.52094 7.72293 0
      vertex -8.52094 7.72293 2.5
    endloop
  endfacet
  facet normal -0.724267 0.689519 0
    outer loop
      vertex -8.13173 8.13173 3
      vertex -8.25714 8 2.5
      vertex -8.25714 8 3
    endloop
  endfacet
  facet normal -0.653166 0.757214 0
    outer loop
      vertex -7.29552 8.88962 0
      vertex -7.72293 8.52094 2.5
      vertex -7.29552 8.88962 2.5
    endloop
  endfacet
  facet normal -0.653166 0.757214 0
    outer loop
      vertex -7.72293 8.52094 2.5
      vertex -7.29552 8.88962 0
      vertex -7.72293 8.52094 0
    endloop
  endfacet
  facet normal 0.844854 0.534996 0
    outer loop
      vertex 9.86388 5.91218 3
      vertex 9.5619 6.38906 0
      vertex 9.5619 6.38906 3
    endloop
  endfacet
  facet normal 0.844854 0.534996 0
    outer loop
      vertex 9.5619 6.38906 0
      vertex 9.86388 5.91218 3
      vertex 9.86388 5.91218 0
    endloop
  endfacet
  facet normal -0.575807 0.817586 0
    outer loop
      vertex -6.38906 9.5619 0
      vertex -6.85054 9.23689 3
      vertex -6.38906 9.5619 3
    endloop
  endfacet
  facet normal -0.575807 0.817586 0
    outer loop
      vertex -6.85054 9.23689 3
      vertex -6.38906 9.5619 0
      vertex -6.85054 9.23689 0
    endloop
  endfacet
  facet normal 0.575807 -0.817586 0
    outer loop
      vertex 6.38906 -9.5619 0
      vertex 6.85054 -9.23689 3
      vertex 6.38906 -9.5619 3
    endloop
  endfacet
  facet normal 0.575807 -0.817586 0
    outer loop
      vertex 6.85054 -9.23689 3
      vertex 6.38906 -9.5619 0
      vertex 6.85054 -9.23689 0
    endloop
  endfacet
  facet normal -0.689551 0.724237 0
    outer loop
      vertex -7.72293 8.52094 2.5
      vertex -7.72293 8.52094 0
      vertex -8 8.25714 2.5
    endloop
  endfacet
  facet normal -0.689519 0.724267 0
    outer loop
      vertex -8 8.25714 2.5
      vertex -8.13173 8.13173 3
      vertex -8 8.25714 3
    endloop
  endfacet
  facet normal -0.689541 0.724247 2.1439e-06
    outer loop
      vertex -8.13173 8.13173 0
      vertex -8 8.25714 2.5
      vertex -7.72293 8.52094 0
    endloop
  endfacet
  facet normal -0.689519 0.724267 0
    outer loop
      vertex -8 8.25714 2.5
      vertex -8.13173 8.13173 0
      vertex -8.13173 8.13173 3
    endloop
  endfacet
  facet normal -0.492903 0.870084 0
    outer loop
      vertex -5.42106 10.1421 0
      vertex -5.91218 9.86388 3
      vertex -5.42106 10.1421 3
    endloop
  endfacet
  facet normal -0.492903 0.870084 0
    outer loop
      vertex -5.91218 9.86388 3
      vertex -5.42106 10.1421 0
      vertex -5.91218 9.86388 0
    endloop
  endfacet
  facet normal 0.171126 0.985249 0
    outer loop
      vertex 2.24354 11.279 2.5
      vertex 2.24354 11.279 0
      vertex 2 11.3213 2.5
    endloop
  endfacet
  facet normal 0.170836 0.9853 -0
    outer loop
      vertex 2 11.3213 2.5
      vertex 1.6874 11.3755 3
      vertex 2 11.3213 3
    endloop
  endfacet
  facet normal 0.170963 0.985277 -1.63784e-05
    outer loop
      vertex 1.6874 11.3755 0
      vertex 2 11.3213 2.5
      vertex 2.24354 11.279 0
    endloop
  endfacet
  facet normal 0.170836 0.9853 0
    outer loop
      vertex 2 11.3213 2.5
      vertex 1.6874 11.3755 0
      vertex 1.6874 11.3755 3
    endloop
  endfacet
  facet normal -0.932959 0.359982 0
    outer loop
      vertex -10.8278 3.87423 0
      vertex -10.6246 4.40086 3
      vertex -10.6246 4.40086 0
    endloop
  endfacet
  facet normal -0.932959 0.359982 0
    outer loop
      vertex -10.6246 4.40086 3
      vertex -10.8278 3.87423 0
      vertex -10.8278 3.87423 3
    endloop
  endfacet
  facet normal 0.757214 0.653166 0
    outer loop
      vertex 8.88962 7.29552 2.5
      vertex 8.52094 7.72293 0
      vertex 8.52094 7.72293 2.5
    endloop
  endfacet
  facet normal 0.757214 0.653166 0
    outer loop
      vertex 8.52094 7.72293 0
      vertex 8.88962 7.29552 2.5
      vertex 8.88962 7.29552 0
    endloop
  endfacet
  facet normal 0 0 1
    outer loop
      vertex 2 -3 3
      vertex 1.6874 -11.3755 3
      vertex 2 -11.3213 3
    endloop
  endfacet
  facet normal 0 0 1
    outer loop
      vertex 2 -3 3
      vertex 1.1272 -11.4446 3
      vertex 1.6874 -11.3755 3
    endloop
  endfacet
  facet normal 0 0 1
    outer loop
      vertex 2 -3 3
      vertex 0.564278 -11.4861 3
      vertex 1.1272 -11.4446 3
    endloop
  endfacet
  facet normal 0 0 1
    outer loop
      vertex 2 -3 3
      vertex 0 -11.5 3
      vertex 0.564278 -11.4861 3
    endloop
  endfacet
  facet normal 0 0 1
    outer loop
      vertex 2 -3 3
      vertex -0.564278 -11.4861 3
      vertex 0 -11.5 3
    endloop
  endfacet
  facet normal 0 0 1
    outer loop
      vertex 2 -3 3
      vertex -1.1272 -11.4446 3
      vertex -0.564278 -11.4861 3
    endloop
  endfacet
  facet normal 0 0 1
    outer loop
      vertex 2 -3 3
      vertex -1.6874 -11.3755 3
      vertex -1.1272 -11.4446 3
    endloop
  endfacet
  facet normal 0 0 1
    outer loop
      vertex 2 -3 3
      vertex -2.24354 -11.279 3
      vertex -1.6874 -11.3755 3
    endloop
  endfacet
  facet normal 0 0 1
    outer loop
      vertex 2 -3 3
      vertex -2.79427 -11.1554 3
      vertex -2.24354 -11.279 3
    endloop
  endfacet
  facet normal 0 0 1
    outer loop
      vertex 2 -3 3
      vertex -3.33827 -11.0048 3
      vertex -2.79427 -11.1554 3
    endloop
  endfacet
  facet normal 0 0 1
    outer loop
      vertex 2 -3 3
      vertex -3.87423 -10.8278 3
      vertex -3.33827 -11.0048 3
    endloop
  endfacet
  facet normal 0 0 1
    outer loop
      vertex 2 -3 3
      vertex -4.40086 -10.6246 3
      vertex -3.87423 -10.8278 3
    endloop
  endfacet
  facet normal 0 0 1
    outer loop
      vertex 2 -3 3
      vertex -4.91688 -10.3959 3
      vertex -4.40086 -10.6246 3
    endloop
  endfacet
  facet normal -0 0 1
    outer loop
      vertex -7 -3 3
      vertex -4.91688 -10.3959 3
      vertex 2 -3 3
    endloop
  endfacet
  facet normal 0 0 1
    outer loop
      vertex -4.91688 -10.3959 3
      vertex -7 -3 3
      vertex -5.42106 -10.1421 3
    endloop
  endfacet
  facet normal 0 0 1
    outer loop
      vertex -5.42106 -10.1421 3
      vertex -7 -3 3
      vertex -5.91218 -9.86388 3
    endloop
  endfacet
  facet normal 0 0 1
    outer loop
      vertex -5.91218 -9.86388 3
      vertex -7 -3 3
      vertex -6.38906 -9.5619 3
    endloop
  endfacet
  facet normal 0 0 1
    outer loop
      vertex -6.38906 -9.5619 3
      vertex -7 -3 3
      vertex -6.85054 -9.23689 3
    endloop
  endfacet
  facet normal 0 0 1
    outer loop
      vertex -6.85054 -9.23689 3
      vertex -7 -3 3
      vertex -7 -9.12025 3
    endloop
  endfacet
  facet normal -0 0 1
    outer loop
      vertex 3 -3 3
      vertex 11.0048 -3.33827 3
      vertex 11.0984 -3 3
    endloop
  endfacet
  facet normal 0 0 1
    outer loop
      vertex 11.0048 -3.33827 3
      vertex 3 -3 3
      vertex 10.8278 -3.87423 3
    endloop
  endfacet
  facet normal 0 0 1
    outer loop
      vertex 10.8278 -3.87423 3
      vertex 3 -3 3
      vertex 10.6246 -4.40086 3
    endloop
  endfacet
  facet normal 0 0 1
    outer loop
      vertex 10.6246 -4.40086 3
      vertex 3 -3 3
      vertex 10.3959 -4.91688 3
    endloop
  endfacet
  facet normal 0 0 1
    outer loop
      vertex 10.3959 -4.91688 3
      vertex 3 -3 3
      vertex 10.1421 -5.42106 3
    endloop
  endfacet
  facet normal 0 0 1
    outer loop
      vertex 10.1421 -5.42106 3
      vertex 3 -3 3
      vertex 9.86388 -5.91218 3
    endloop
  endfacet
  facet normal 0 0 1
    outer loop
      vertex 9.86388 -5.91218 3
      vertex 3 -3 3
      vertex 9.5619 -6.38906 3
    endloop
  endfacet
  facet normal 0 0 1
    outer loop
      vertex 9.5619 -6.38906 3
      vertex 3 -3 3
      vertex 9.23689 -6.85054 3
    endloop
  endfacet
  facet normal 0 0 1
    outer loop
      vertex 9.23689 -6.85054 3
      vertex 3 -3 3
      vertex 8.88962 -7.29552 3
    endloop
  endfacet
  facet normal 0 0 1
    outer loop
      vertex 8.88962 -7.29552 3
      vertex 3 -3 3
      vertex 8.52094 -7.72293 3
    endloop
  endfacet
  facet normal 0 0 1
    outer loop
      vertex 8.52094 -7.72293 3
      vertex 3 -3 3
      vertex 8.13173 -8.13173 3
    endloop
  endfacet
  facet normal 0 0 1
    outer loop
      vertex 8.13173 -8.13173 3
      vertex 3 -3 3
      vertex 7.72293 -8.52094 3
    endloop
  endfacet
  facet normal 0 0 1
    outer loop
      vertex 7.72293 -8.52094 3
      vertex 3 -3 3
      vertex 7.29552 -8.88962 3
    endloop
  endfacet
  facet normal 0 0 1
    outer loop
      vertex 7.29552 -8.88962 3
      vertex 3 -3 3
      vertex 6.85054 -9.23689 3
    endloop
  endfacet
  facet normal 0 0 1
    outer loop
      vertex 6.85054 -9.23689 3
      vertex 3 -3 3
      vertex 6.38906 -9.5619 3
    endloop
  endfacet
  facet normal 0 0 1
    outer loop
      vertex 6.38906 -9.5619 3
      vertex 3 -3 3
      vertex 5.91218 -9.86388 3
    endloop
  endfacet
  facet normal 0 0 1
    outer loop
      vertex 5.91218 -9.86388 3
      vertex 3 -3 3
      vertex 5.42106 -10.1421 3
    endloop
  endfacet
  facet normal 0 0 1
    outer loop
      vertex 5.42106 -10.1421 3
      vertex 3 -3 3
      vertex 4.91688 -10.3959 3
    endloop
  endfacet
  facet normal 0 0 1
    outer loop
      vertex 4.91688 -10.3959 3
      vertex 3 -3 3
      vertex 4.40086 -10.6246 3
    endloop
  endfacet
  facet normal 0 0 1
    outer loop
      vertex 4.40086 -10.6246 3
      vertex 3 -3 3
      vertex 3.87423 -10.8278 3
    endloop
  endfacet
  facet normal 0 0 1
    outer loop
      vertex 3.87423 -10.8278 3
      vertex 3 -3 3
      vertex 3.33827 -11.0048 3
    endloop
  endfacet
  facet normal 0 0 1
    outer loop
      vertex 3.33827 -11.0048 3
      vertex 3 -3 3
      vertex 3 -11.0984 3
    endloop
  endfacet
  facet normal 0 0 1
    outer loop
      vertex 3 -2 3
      vertex 11.5 0 3
      vertex 11.4861 0.564278 3
    endloop
  endfacet
  facet normal 0 0 1
    outer loop
      vertex 3 -2 3
      vertex 11.4861 0.564278 3
      vertex 11.4446 1.1272 3
    endloop
  endfacet
  facet normal 0 0 1
    outer loop
      vertex 11.5 0 3
      vertex 3 -2 3
      vertex 11.4861 -0.564278 3
    endloop
  endfacet
  facet normal 0 0 1
    outer loop
      vertex 3 -2 3
      vertex 11.4446 1.1272 3
      vertex 11.3755 1.6874 3
    endloop
  endfacet
  facet normal 0 0 1
    outer loop
      vertex 11.4861 -0.564278 3
      vertex 3 -2 3
      vertex 11.4446 -1.1272 3
    endloop
  endfacet
  facet normal 0 0 1
    outer loop
      vertex 11.4446 -1.1272 3
      vertex 3 -2 3
      vertex 11.3755 -1.6874 3
    endloop
  endfacet
  facet normal 0 0 1
    outer loop
      vertex 3 -2 3
      vertex 11.3755 1.6874 3
      vertex 11.279 2.24354 3
    endloop
  endfacet
  facet normal 0 0 1
    outer loop
      vertex 3 -2 3
      vertex 11.279 2.24354 3
      vertex 11.1554 2.79427 3
    endloop
  endfacet
  facet normal 0 0 1
    outer loop
      vertex 3 -2 3
      vertex 11.1554 2.79427 3
      vertex 11.0048 3.33827 3
    endloop
  endfacet
  facet normal 0 0 1
    outer loop
      vertex 3 -2 3
      vertex 11.0048 3.33827 3
      vertex 10.8278 3.87423 3
    endloop
  endfacet
  facet normal 0 0 1
    outer loop
      vertex 3 -2 3
      vertex 10.8278 3.87423 3
      vertex 10.6246 4.40086 3
    endloop
  endfacet
  facet normal 0 0 1
    outer loop
      vertex 3 -2 3
      vertex 10.6246 4.40086 3
      vertex 10.3959 4.91688 3
    endloop
  endfacet
  facet normal 0 0 1
    outer loop
      vertex 3 7 3
      vertex 10.3959 4.91688 3
      vertex 10.1421 5.42106 3
    endloop
  endfacet
  facet normal 0 0 1
    outer loop
      vertex 3 7 3
      vertex 10.1421 5.42106 3
      vertex 9.86388 5.91218 3
    endloop
  endfacet
  facet normal 0 0 1
    outer loop
      vertex 3 7 3
      vertex 9.86388 5.91218 3
      vertex 9.5619 6.38906 3
    endloop
  endfacet
  facet normal 0 0 1
    outer loop
      vertex 3 7 3
      vertex 9.5619 6.38906 3
      vertex 9.23689 6.85054 3
    endloop
  endfacet
  facet normal -0 0 1
    outer loop
      vertex 3 7 3
      vertex 9.23689 6.85054 3
      vertex 9.12025 7 3
    endloop
  endfacet
  facet normal 0 0 1
    outer loop
      vertex 10.3959 4.91688 3
      vertex 3 7 3
      vertex 3 -2 3
    endloop
  endfacet
  facet normal 0 0 1
    outer loop
      vertex 11.3755 -1.6874 3
      vertex 3 -2 3
      vertex 11.3213 -2 3
    endloop
  endfacet
  facet normal 0 0 1
    outer loop
      vertex -9.23689 6.85054 3
      vertex -8 7 3
      vertex -9.12025 7 3
    endloop
  endfacet
  facet normal 0 0 1
    outer loop
      vertex -9.5619 6.38906 3
      vertex -8 7 3
      vertex -9.23689 6.85054 3
    endloop
  endfacet
  facet normal 0 0 1
    outer loop
      vertex -9.86388 5.91218 3
      vertex -8 7 3
      vertex -9.5619 6.38906 3
    endloop
  endfacet
  facet normal 0 0 1
    outer loop
      vertex -10.1421 5.42106 3
      vertex -8 7 3
      vertex -9.86388 5.91218 3
    endloop
  endfacet
  facet normal 0 0 1
    outer loop
      vertex -10.3959 4.91688 3
      vertex -8 7 3
      vertex -10.1421 5.42106 3
    endloop
  endfacet
  facet normal 0 0 1
    outer loop
      vertex -10.6246 4.40086 3
      vertex -8 7 3
      vertex -10.3959 4.91688 3
    endloop
  endfacet
  facet normal 0 0 1
    outer loop
      vertex -8 7 3
      vertex -10.6246 4.40086 3
      vertex -8 -2 3
    endloop
  endfacet
  facet normal -0 0 1
    outer loop
      vertex -10.8278 3.87423 3
      vertex -8 -2 3
      vertex -10.6246 4.40086 3
    endloop
  endfacet
  facet normal -0 0 1
    outer loop
      vertex -11.0048 3.33827 3
      vertex -8 -2 3
      vertex -10.8278 3.87423 3
    endloop
  endfacet
  facet normal -0 0 1
    outer loop
      vertex -11.1554 2.79427 3
      vertex -8 -2 3
      vertex -11.0048 3.33827 3
    endloop
  endfacet
  facet normal -0 0 1
    outer loop
      vertex -11.279 2.24354 3
      vertex -8 -2 3
      vertex -11.1554 2.79427 3
    endloop
  endfacet
  facet normal -0 0 1
    outer loop
      vertex -11.3755 1.6874 3
      vertex -8 -2 3
      vertex -11.279 2.24354 3
    endloop
  endfacet
  facet normal -0 0 1
    outer loop
      vertex -11.4446 1.1272 3
      vertex -8 -2 3
      vertex -11.3755 1.6874 3
    endloop
  endfacet
  facet normal 0 0 1
    outer loop
      vertex -8 -2 3
      vertex -11.3755 -1.6874 3
      vertex -11.3213 -2 3
    endloop
  endfacet
  facet normal -0 0 1
    outer loop
      vertex -11.4861 0.564278 3
      vertex -8 -2 3
      vertex -11.4446 1.1272 3
    endloop
  endfacet
  facet normal 0 0 1
    outer loop
      vertex -8 -2 3
      vertex -11.4446 -1.1272 3
      vertex -11.3755 -1.6874 3
    endloop
  endfacet
  facet normal -0 0 1
    outer loop
      vertex -11.5 0 3
      vertex -8 -2 3
      vertex -11.4861 0.564278 3
    endloop
  endfacet
  facet normal 0 0 1
    outer loop
      vertex -8 -2 3
      vertex -11.4861 -0.564278 3
      vertex -11.4446 -1.1272 3
    endloop
  endfacet
  facet normal 0 0 1
    outer loop
      vertex -8 -2 3
      vertex -11.5 0 3
      vertex -11.4861 -0.564278 3
    endloop
  endfacet
  facet normal 0 0 1
    outer loop
      vertex 1.6874 11.3755 3
      vertex 2 8 3
      vertex 2 11.3213 3
    endloop
  endfacet
  facet normal 0 0 1
    outer loop
      vertex 1.1272 11.4446 3
      vertex 2 8 3
      vertex 1.6874 11.3755 3
    endloop
  endfacet
  facet normal 0 0 1
    outer loop
      vertex 0.564278 11.4861 3
      vertex 2 8 3
      vertex 1.1272 11.4446 3
    endloop
  endfacet
  facet normal 0 0 1
    outer loop
      vertex 0 11.5 3
      vertex 2 8 3
      vertex 0.564278 11.4861 3
    endloop
  endfacet
  facet normal -0 0 1
    outer loop
      vertex -0.564278 11.4861 3
      vertex 2 8 3
      vertex 0 11.5 3
    endloop
  endfacet
  facet normal -0 0 1
    outer loop
      vertex -1.1272 11.4446 3
      vertex 2 8 3
      vertex -0.564278 11.4861 3
    endloop
  endfacet
  facet normal -0 0 1
    outer loop
      vertex -1.6874 11.3755 3
      vertex 2 8 3
      vertex -1.1272 11.4446 3
    endloop
  endfacet
  facet normal -0 0 1
    outer loop
      vertex -2.24354 11.279 3
      vertex 2 8 3
      vertex -1.6874 11.3755 3
    endloop
  endfacet
  facet normal -0 0 1
    outer loop
      vertex -2.79427 11.1554 3
      vertex 2 8 3
      vertex -2.24354 11.279 3
    endloop
  endfacet
  facet normal -0 0 1
    outer loop
      vertex -3.33827 11.0048 3
      vertex 2 8 3
      vertex -2.79427 11.1554 3
    endloop
  endfacet
  facet normal -0 0 1
    outer loop
      vertex -3.87423 10.8278 3
      vertex 2 8 3
      vertex -3.33827 11.0048 3
    endloop
  endfacet
  facet normal -0 0 1
    outer loop
      vertex -4.40086 10.6246 3
      vertex 2 8 3
      vertex -3.87423 10.8278 3
    endloop
  endfacet
  facet normal 0 0 1
    outer loop
      vertex -7 8 3
      vertex -4.40086 10.6246 3
      vertex -4.91688 10.3959 3
    endloop
  endfacet
  facet normal 0 0 1
    outer loop
      vertex -7 8 3
      vertex -4.91688 10.3959 3
      vertex -5.42106 10.1421 3
    endloop
  endfacet
  facet normal 0 0 1
    outer loop
      vertex -7 8 3
      vertex -5.42106 10.1421 3
      vertex -5.91218 9.86388 3
    endloop
  endfacet
  facet normal 0 0 1
    outer loop
      vertex -7 8 3
      vertex -5.91218 9.86388 3
      vertex -6.38906 9.5619 3
    endloop
  endfacet
  facet normal 0 0 1
    outer loop
      vertex -7 8 3
      vertex -6.38906 9.5619 3
      vertex -6.85054 9.23689 3
    endloop
  endfacet
  facet normal 0 0 1
    outer loop
      vertex -7 8 3
      vertex -6.85054 9.23689 3
      vertex -7 9.12025 3
    endloop
  endfacet
  facet normal 0 0 1
    outer loop
      vertex -4.40086 10.6246 3
      vertex -7 8 3
      vertex 2 8 3
    endloop
  endfacet
  facet normal 0 0 1
    outer loop
      vertex 3 8 3
      vertex 8.13173 8.13173 3
      vertex 7.72293 8.52094 3
    endloop
  endfacet
  facet normal 0 0 1
    outer loop
      vertex 3 8 3
      vertex 7.72293 8.52094 3
      vertex 7.29552 8.88962 3
    endloop
  endfacet
  facet normal 0 0 1
    outer loop
      vertex 3 8 3
      vertex 7.29552 8.88962 3
      vertex 6.85054 9.23689 3
    endloop
  endfacet
  facet normal 0 0 1
    outer loop
      vertex 3 8 3
      vertex 6.85054 9.23689 3
      vertex 6.38906 9.5619 3
    endloop
  endfacet
  facet normal 0 0 1
    outer loop
      vertex 3 8 3
      vertex 6.38906 9.5619 3
      vertex 5.91218 9.86388 3
    endloop
  endfacet
  facet normal 0 0 1
    outer loop
      vertex 3 8 3
      vertex 5.91218 9.86388 3
      vertex 5.42106 10.1421 3
    endloop
  endfacet
  facet normal 0 0 1
    outer loop
      vertex 3 8 3
      vertex 5.42106 10.1421 3
      vertex 4.91688 10.3959 3
    endloop
  endfacet
  facet normal 0 0 1
    outer loop
      vertex 3 8 3
      vertex 4.91688 10.3959 3
      vertex 4.40086 10.6246 3
    endloop
  endfacet
  facet normal 0 0 1
    outer loop
      vertex 3 8 3
      vertex 4.40086 10.6246 3
      vertex 3.87423 10.8278 3
    endloop
  endfacet
  facet normal 0 0 1
    outer loop
      vertex 3 8 3
      vertex 3.87423 10.8278 3
      vertex 3.33827 11.0048 3
    endloop
  endfacet
  facet normal 0 0 1
    outer loop
      vertex 3 8 3
      vertex 3.33827 11.0048 3
      vertex 3 11.0984 3
    endloop
  endfacet
  facet normal 0 0 1
    outer loop
      vertex 8.13173 8.13173 3
      vertex 3 8 3
      vertex 8.25714 8 3
    endloop
  endfacet
  facet normal 0 0 1
    outer loop
      vertex -8 -3 3
      vertex -8.13173 -8.13173 3
      vertex -8 -8.25714 3
    endloop
  endfacet
  facet normal 0 0 1
    outer loop
      vertex -8 -3 3
      vertex -8.52094 -7.72293 3
      vertex -8.13173 -8.13173 3
    endloop
  endfacet
  facet normal 0 0 1
    outer loop
      vertex -8 -3 3
      vertex -8.88962 -7.29552 3
      vertex -8.52094 -7.72293 3
    endloop
  endfacet
  facet normal 0 0 1
    outer loop
      vertex -8 -3 3
      vertex -9.23689 -6.85054 3
      vertex -8.88962 -7.29552 3
    endloop
  endfacet
  facet normal 0 0 1
    outer loop
      vertex -8 -3 3
      vertex -9.5619 -6.38906 3
      vertex -9.23689 -6.85054 3
    endloop
  endfacet
  facet normal 0 0 1
    outer loop
      vertex -8 -3 3
      vertex -9.86388 -5.91218 3
      vertex -9.5619 -6.38906 3
    endloop
  endfacet
  facet normal 0 0 1
    outer loop
      vertex -8 -3 3
      vertex -10.1421 -5.42106 3
      vertex -9.86388 -5.91218 3
    endloop
  endfacet
  facet normal 0 0 1
    outer loop
      vertex -8 -3 3
      vertex -10.3959 -4.91688 3
      vertex -10.1421 -5.42106 3
    endloop
  endfacet
  facet normal 0 0 1
    outer loop
      vertex -8 -3 3
      vertex -10.6246 -4.40086 3
      vertex -10.3959 -4.91688 3
    endloop
  endfacet
  facet normal 0 0 1
    outer loop
      vertex -8 -3 3
      vertex -10.8278 -3.87423 3
      vertex -10.6246 -4.40086 3
    endloop
  endfacet
  facet normal 0 0 1
    outer loop
      vertex -8 -3 3
      vertex -11.0048 -3.33827 3
      vertex -10.8278 -3.87423 3
    endloop
  endfacet
  facet normal 0 -0 1
    outer loop
      vertex -11.0048 -3.33827 3
      vertex -8 -3 3
      vertex -11.0984 -3 3
    endloop
  endfacet
  facet normal -0 0 1
    outer loop
      vertex -8.13173 8.13173 3
      vertex -8 8 3
      vertex -8 8.25714 3
    endloop
  endfacet
  facet normal 0 0 1
    outer loop
      vertex -8 8 3
      vertex -8.13173 8.13173 3
      vertex -8.25714 8 3
    endloop
  endfacet
  facet normal -0 0 1
    outer loop
      vertex -7 7 3
      vertex 2 -2 3
      vertex 2 7 3
    endloop
  endfacet
  facet normal 0 0 1
    outer loop
      vertex 2 -2 3
      vertex -7 7 3
      vertex -7 -2 3
    endloop
  endfacet
endsolid OpenSCAD_Model
