solid OpenSCAD_Model
  facet normal 0 0.0184204 -0.99983
    outer loop
      vertex 0 0 -1.875
      vertex 24 0.122669 -1.87274
      vertex 24 0 -1.875
    endloop
  endfacet
  facet normal 0 0.0184204 -0.99983
    outer loop
      vertex 24 0.122669 -1.87274
      vertex 0 0 -1.875
      vertex 0 0.122669 -1.87274
    endloop
  endfacet
  facet normal 0 0.0552377 -0.998473
    outer loop
      vertex 0 0.122669 -1.87274
      vertex 24 0.245043 -1.86597
      vertex 24 0.122669 -1.87274
    endloop
  endfacet
  facet normal 0 0.0552377 -0.998473
    outer loop
      vertex 24 0.245043 -1.86597
      vertex 0 0.122669 -1.87274
      vertex 0 0.245043 -1.86597
    endloop
  endfacet
  facet normal 0 0.0920668 -0.995753
    outer loop
      vertex 0 0.245043 -1.86597
      vertex 24 0.366826 -1.85471
      vertex 24 0.245043 -1.86597
    endloop
  endfacet
  facet normal 0 0.0920668 -0.995753
    outer loop
      vertex 24 0.366826 -1.85471
      vertex 0 0.245043 -1.86597
      vertex 0 0.366826 -1.85471
    endloop
  endfacet
  facet normal 0 0.129101 -0.991631
    outer loop
      vertex 0 0.366826 -1.85471
      vertex 24 0.487726 -1.83897
      vertex 24 0.366826 -1.85471
    endloop
  endfacet
  facet normal 0 0.129101 -0.991631
    outer loop
      vertex 24 0.487726 -1.83897
      vertex 0 0.366826 -1.85471
      vertex 0 0.487726 -1.83897
    endloop
  endfacet
  facet normal 0 0.16605 -0.986117
    outer loop
      vertex 0 0.487726 -1.83897
      vertex 24 0.60745 -1.81881
      vertex 24 0.487726 -1.83897
    endloop
  endfacet
  facet normal 0 0.16605 -0.986117
    outer loop
      vertex 24 0.60745 -1.81881
      vertex 0 0.487726 -1.83897
      vertex 0 0.60745 -1.81881
    endloop
  endfacet
  facet normal 0 0.203257 -0.979126
    outer loop
      vertex 0 0.60745 -1.81881
      vertex 24 0.725712 -1.79426
      vertex 24 0.60745 -1.81881
    endloop
  endfacet
  facet normal 0 0.203257 -0.979126
    outer loop
      vertex 24 0.725712 -1.79426
      vertex 0 0.60745 -1.81881
      vertex 0 0.725712 -1.79426
    endloop
  endfacet
  facet normal 0 0.240432 -0.970666
    outer loop
      vertex 0 0.725712 -1.79426
      vertex 24 0.842225 -1.7654
      vertex 24 0.725712 -1.79426
    endloop
  endfacet
  facet normal 0 0.240432 -0.970666
    outer loop
      vertex 24 0.842225 -1.7654
      vertex 0 0.725712 -1.79426
      vertex 0 0.842225 -1.7654
    endloop
  endfacet
  facet normal 0 0.27798 -0.960587
    outer loop
      vertex 0 0.842225 -1.7654
      vertex 24 0.956709 -1.73227
      vertex 24 0.842225 -1.7654
    endloop
  endfacet
  facet normal 0 0.27798 -0.960587
    outer loop
      vertex 24 0.956709 -1.73227
      vertex 0 0.842225 -1.7654
      vertex 0 0.956709 -1.73227
    endloop
  endfacet
  facet normal 0 0.315438 -0.948946
    outer loop
      vertex 0 0.956709 -1.73227
      vertex 24 1.06889 -1.69498
      vertex 24 0.956709 -1.73227
    endloop
  endfacet
  facet normal 0 0.315438 -0.948946
    outer loop
      vertex 24 1.06889 -1.69498
      vertex 0 0.956709 -1.73227
      vertex 0 1.06889 -1.69498
    endloop
  endfacet
  facet normal 0 0.353218 -0.935541
    outer loop
      vertex 0 1.06889 -1.69498
      vertex 24 1.17849 -1.6536
      vertex 24 1.06889 -1.69498
    endloop
  endfacet
  facet normal 0 0.353218 -0.935541
    outer loop
      vertex 24 1.17849 -1.6536
      vertex 0 1.06889 -1.69498
      vertex 0 1.17849 -1.6536
    endloop
  endfacet
  facet normal 0 0.391015 -0.920384
    outer loop
      vertex 0 1.17849 -1.6536
      vertex 24 1.28526 -1.60824
      vertex 24 1.17849 -1.6536
    endloop
  endfacet
  facet normal 0 0.391015 -0.920384
    outer loop
      vertex 24 1.28526 -1.60824
      vertex 0 1.17849 -1.6536
      vertex 0 1.28526 -1.60824
    endloop
  endfacet
  facet normal 0 0.428963 -0.903322
    outer loop
      vertex 0 1.28526 -1.60824
      vertex 24 1.38893 -1.55901
      vertex 24 1.28526 -1.60824
    endloop
  endfacet
  facet normal 0 0.428963 -0.903322
    outer loop
      vertex 24 1.38893 -1.55901
      vertex 0 1.28526 -1.60824
      vertex 0 1.38893 -1.55901
    endloop
  endfacet
  facet normal 0 0.467126 -0.884191
    outer loop
      vertex 0 1.38893 -1.55901
      vertex 24 1.48925 -1.50601
      vertex 24 1.38893 -1.55901
    endloop
  endfacet
  facet normal 0 0.467126 -0.884191
    outer loop
      vertex 24 1.48925 -1.50601
      vertex 0 1.38893 -1.55901
      vertex 0 1.48925 -1.50601
    endloop
  endfacet
  facet normal 0 0.505163 -0.863024
    outer loop
      vertex 0 1.48925 -1.50601
      vertex 24 1.58598 -1.44939
      vertex 24 1.48925 -1.50601
    endloop
  endfacet
  facet normal 0 0.505163 -0.863024
    outer loop
      vertex 24 1.58598 -1.44939
      vertex 0 1.48925 -1.50601
      vertex 0 1.58598 -1.44939
    endloop
  endfacet
  facet normal 0 0.543158 -0.839631
    outer loop
      vertex 0 1.58598 -1.44939
      vertex 24 1.6789 -1.38928
      vertex 24 1.58598 -1.44939
    endloop
  endfacet
  facet normal 0 0.543158 -0.839631
    outer loop
      vertex 24 1.6789 -1.38928
      vertex 0 1.58598 -1.44939
      vertex 0 1.6789 -1.38928
    endloop
  endfacet
  facet normal 0 0.581065 -0.813857
    outer loop
      vertex 0 1.6789 -1.38928
      vertex 24 1.76777 -1.32583
      vertex 24 1.6789 -1.38928
    endloop
  endfacet
  facet normal 0 0.581065 -0.813857
    outer loop
      vertex 24 1.76777 -1.32583
      vertex 0 1.6789 -1.38928
      vertex 0 1.76777 -1.32583
    endloop
  endfacet
  facet normal 0 0.618858 -0.785503
    outer loop
      vertex 0 1.76777 -1.32583
      vertex 24 1.85238 -1.25917
      vertex 24 1.76777 -1.32583
    endloop
  endfacet
  facet normal 0 0.618858 -0.785503
    outer loop
      vertex 24 1.85238 -1.25917
      vertex 0 1.76777 -1.32583
      vertex 0 1.85238 -1.25917
    endloop
  endfacet
  facet normal 0 0.656095 -0.754678
    outer loop
      vertex 0 1.85238 -1.25917
      vertex 24 1.93253 -1.18949
      vertex 24 1.85238 -1.25917
    endloop
  endfacet
  facet normal 0 0.656095 -0.754678
    outer loop
      vertex 24 1.93253 -1.18949
      vertex 0 1.85238 -1.25917
      vertex 0 1.93253 -1.18949
    endloop
  endfacet
  facet normal 0 0.692927 -0.721007
    outer loop
      vertex 0 1.93253 -1.18949
      vertex 24 2.00802 -1.11694
      vertex 24 1.93253 -1.18949
    endloop
  endfacet
  facet normal 0 0.692927 -0.721007
    outer loop
      vertex 24 2.00802 -1.11694
      vertex 0 1.93253 -1.18949
      vertex 0 2.00802 -1.11694
    endloop
  endfacet
  facet normal 0 0.729039 -0.684473
    outer loop
      vertex 24 2.00802 -1.11694
      vertex 0 2.07867 -1.04169
      vertex 24 2.07867 -1.04169
    endloop
  endfacet
  facet normal 0 0.729039 -0.684473
    outer loop
      vertex 0 2.07867 -1.04169
      vertex 24 2.00802 -1.11694
      vertex 0 2.00802 -1.11694
    endloop
  endfacet
  facet normal 0 0.764045 -0.645163
    outer loop
      vertex 24 2.07867 -1.04169
      vertex 0 2.14432 -0.963943
      vertex 24 2.14432 -0.963943
    endloop
  endfacet
  facet normal 0 0.764045 -0.645163
    outer loop
      vertex 0 2.14432 -0.963943
      vertex 24 2.07867 -1.04169
      vertex 0 2.07867 -1.04169
    endloop
  endfacet
  facet normal 0 0.797965 -0.602704
    outer loop
      vertex 24 2.14432 -0.963943
      vertex 0 2.2048 -0.883869
      vertex 24 2.2048 -0.883869
    endloop
  endfacet
  facet normal 0 0.797965 -0.602704
    outer loop
      vertex 0 2.2048 -0.883869
      vertex 24 2.14432 -0.963943
      vertex 0 2.14432 -0.963943
    endloop
  endfacet
  facet normal 0 0.830331 -0.557271
    outer loop
      vertex 24 2.2048 -0.883869
      vertex 0 2.25997 -0.801666
      vertex 24 2.25997 -0.801666
    endloop
  endfacet
  facet normal 0 0.830331 -0.557271
    outer loop
      vertex 0 2.25997 -0.801666
      vertex 24 2.2048 -0.883869
      vertex 0 2.2048 -0.883869
    endloop
  endfacet
  facet normal 0 0.860864 -0.508834
    outer loop
      vertex 24 2.25997 -0.801666
      vertex 0 2.3097 -0.717531
      vertex 24 2.3097 -0.717531
    endloop
  endfacet
  facet normal 0 0.860864 -0.508834
    outer loop
      vertex 0 2.3097 -0.717531
      vertex 24 2.25997 -0.801666
      vertex 0 2.25997 -0.801666
    endloop
  endfacet
  facet normal 0 0.88928 -0.457363
    outer loop
      vertex 24 2.3097 -0.717531
      vertex 0 2.35386 -0.631668
      vertex 24 2.35386 -0.631668
    endloop
  endfacet
  facet normal 0 0.88928 -0.457363
    outer loop
      vertex 0 2.35386 -0.631668
      vertex 24 2.3097 -0.717531
      vertex 0 2.3097 -0.717531
    endloop
  endfacet
  facet normal 0 0.915157 -0.403099
    outer loop
      vertex 24 2.35386 -0.631668
      vertex 0 2.39235 -0.544284
      vertex 24 2.39235 -0.544284
    endloop
  endfacet
  facet normal 0 0.915157 -0.403099
    outer loop
      vertex 0 2.39235 -0.544284
      vertex 24 2.35386 -0.631668
      vertex 0 2.35386 -0.631668
    endloop
  endfacet
  facet normal 0 0.938163 -0.346194
    outer loop
      vertex 24 2.39235 -0.544284
      vertex 0 2.42508 -0.455588
      vertex 24 2.42508 -0.455588
    endloop
  endfacet
  facet normal 0 0.938163 -0.346194
    outer loop
      vertex 0 2.42508 -0.455588
      vertex 24 2.39235 -0.544284
      vertex 0 2.39235 -0.544284
    endloop
  endfacet
  facet normal 0 0.957997 -0.286778
    outer loop
      vertex 24 2.42508 -0.455588
      vertex 0 2.45196 -0.365794
      vertex 24 2.45196 -0.365794
    endloop
  endfacet
  facet normal 0 0.957997 -0.286778
    outer loop
      vertex 0 2.45196 -0.365794
      vertex 24 2.42508 -0.455588
      vertex 0 2.42508 -0.455588
    endloop
  endfacet
  facet normal 0 0.974261 -0.225423
    outer loop
      vertex 24 2.45196 -0.365794
      vertex 0 2.47294 -0.27512
      vertex 24 2.47294 -0.27512
    endloop
  endfacet
  facet normal 0 0.974261 -0.225423
    outer loop
      vertex 0 2.47294 -0.27512
      vertex 24 2.45196 -0.365794
      vertex 0 2.45196 -0.365794
    endloop
  endfacet
  facet normal 0 0.986747 -0.162265
    outer loop
      vertex 24 2.47294 -0.27512
      vertex 0 2.48796 -0.183782
      vertex 24 2.48796 -0.183782
    endloop
  endfacet
  facet normal 0 0.986747 -0.162265
    outer loop
      vertex 0 2.48796 -0.183782
      vertex 24 2.47294 -0.27512
      vertex 0 2.47294 -0.27512
    endloop
  endfacet
  facet normal 0 0.995195 -0.0979146
    outer loop
      vertex 24 2.48796 -0.183782
      vertex 0 2.49699 -0.0920019
      vertex 24 2.49699 -0.0920019
    endloop
  endfacet
  facet normal 0 0.995195 -0.0979146
    outer loop
      vertex 0 2.49699 -0.0920019
      vertex 24 2.48796 -0.183782
      vertex 0 2.48796 -0.183782
    endloop
  endfacet
  facet normal 0 0.999465 -0.0326992
    outer loop
      vertex 24 2.49699 -0.0920019
      vertex 0 2.5 0
      vertex 24 2.5 0
    endloop
  endfacet
  facet normal 0 0.999465 -0.0326992
    outer loop
      vertex 0 2.5 0
      vertex 24 2.49699 -0.0920019
      vertex 0 2.49699 -0.0920019
    endloop
  endfacet
  facet normal 0 0.999465 0.0326992
    outer loop
      vertex 24 2.5 0
      vertex 0 2.49699 0.0920019
      vertex 24 2.49699 0.0920019
    endloop
  endfacet
  facet normal 0 0.999465 0.0326992
    outer loop
      vertex 0 2.49699 0.0920019
      vertex 24 2.5 0
      vertex 0 2.5 0
    endloop
  endfacet
  facet normal 0 0.995195 0.0979146
    outer loop
      vertex 24 2.49699 0.0920019
      vertex 0 2.48796 0.183782
      vertex 24 2.48796 0.183782
    endloop
  endfacet
  facet normal 0 0.995195 0.0979146
    outer loop
      vertex 0 2.48796 0.183782
      vertex 24 2.49699 0.0920019
      vertex 0 2.49699 0.0920019
    endloop
  endfacet
  facet normal 0 0.986747 0.162265
    outer loop
      vertex 24 2.48796 0.183782
      vertex 0 2.47294 0.27512
      vertex 24 2.47294 0.27512
    endloop
  endfacet
  facet normal 0 0.986747 0.162265
    outer loop
      vertex 0 2.47294 0.27512
      vertex 24 2.48796 0.183782
      vertex 0 2.48796 0.183782
    endloop
  endfacet
  facet normal 0 0.974261 0.225423
    outer loop
      vertex 24 2.47294 0.27512
      vertex 0 2.45196 0.365794
      vertex 24 2.45196 0.365794
    endloop
  endfacet
  facet normal 0 0.974261 0.225423
    outer loop
      vertex 0 2.45196 0.365794
      vertex 24 2.47294 0.27512
      vertex 0 2.47294 0.27512
    endloop
  endfacet
  facet normal 0 0.957997 0.286778
    outer loop
      vertex 24 2.45196 0.365794
      vertex 0 2.42508 0.455588
      vertex 24 2.42508 0.455588
    endloop
  endfacet
  facet normal 0 0.957997 0.286778
    outer loop
      vertex 0 2.42508 0.455588
      vertex 24 2.45196 0.365794
      vertex 0 2.45196 0.365794
    endloop
  endfacet
  facet normal 0 0.938163 0.346194
    outer loop
      vertex 24 2.42508 0.455588
      vertex 0 2.39235 0.544284
      vertex 24 2.39235 0.544284
    endloop
  endfacet
  facet normal 0 0.938163 0.346194
    outer loop
      vertex 0 2.39235 0.544284
      vertex 24 2.42508 0.455588
      vertex 0 2.42508 0.455588
    endloop
  endfacet
  facet normal 0 0.915157 0.403099
    outer loop
      vertex 24 2.39235 0.544284
      vertex 0 2.35386 0.631668
      vertex 24 2.35386 0.631668
    endloop
  endfacet
  facet normal 0 0.915157 0.403099
    outer loop
      vertex 0 2.35386 0.631668
      vertex 24 2.39235 0.544284
      vertex 0 2.39235 0.544284
    endloop
  endfacet
  facet normal 0 0.88928 0.457363
    outer loop
      vertex 24 2.35386 0.631668
      vertex 0 2.3097 0.717531
      vertex 24 2.3097 0.717531
    endloop
  endfacet
  facet normal 0 0.88928 0.457363
    outer loop
      vertex 0 2.3097 0.717531
      vertex 24 2.35386 0.631668
      vertex 0 2.35386 0.631668
    endloop
  endfacet
  facet normal 0 0.860864 0.508834
    outer loop
      vertex 24 2.3097 0.717531
      vertex 0 2.25997 0.801666
      vertex 24 2.25997 0.801666
    endloop
  endfacet
  facet normal 0 0.860864 0.508834
    outer loop
      vertex 0 2.25997 0.801666
      vertex 24 2.3097 0.717531
      vertex 0 2.3097 0.717531
    endloop
  endfacet
  facet normal 0 0.830331 0.557271
    outer loop
      vertex 24 2.25997 0.801666
      vertex 0 2.2048 0.883869
      vertex 24 2.2048 0.883869
    endloop
  endfacet
  facet normal 0 0.830331 0.557271
    outer loop
      vertex 0 2.2048 0.883869
      vertex 24 2.25997 0.801666
      vertex 0 2.25997 0.801666
    endloop
  endfacet
  facet normal 0 0.797965 0.602704
    outer loop
      vertex 24 2.2048 0.883869
      vertex 0 2.14432 0.963943
      vertex 24 2.14432 0.963943
    endloop
  endfacet
  facet normal 0 0.797965 0.602704
    outer loop
      vertex 0 2.14432 0.963943
      vertex 24 2.2048 0.883869
      vertex 0 2.2048 0.883869
    endloop
  endfacet
  facet normal 0 0.764045 0.645163
    outer loop
      vertex 24 2.14432 0.963943
      vertex 0 2.07867 1.04169
      vertex 24 2.07867 1.04169
    endloop
  endfacet
  facet normal 0 0.764045 0.645163
    outer loop
      vertex 0 2.07867 1.04169
      vertex 24 2.14432 0.963943
      vertex 0 2.14432 0.963943
    endloop
  endfacet
  facet normal 0 0.729039 0.684473
    outer loop
      vertex 24 2.07867 1.04169
      vertex 0 2.00802 1.11694
      vertex 24 2.00802 1.11694
    endloop
  endfacet
  facet normal 0 0.729039 0.684473
    outer loop
      vertex 0 2.00802 1.11694
      vertex 24 2.07867 1.04169
      vertex 0 2.07867 1.04169
    endloop
  endfacet
  facet normal -0 0.692927 0.721007
    outer loop
      vertex 0 2.00802 1.11694
      vertex 24 1.93253 1.18949
      vertex 24 2.00802 1.11694
    endloop
  endfacet
  facet normal 0 0.692927 0.721007
    outer loop
      vertex 24 1.93253 1.18949
      vertex 0 2.00802 1.11694
      vertex 0 1.93253 1.18949
    endloop
  endfacet
  facet normal -0 0.656095 0.754678
    outer loop
      vertex 0 1.93253 1.18949
      vertex 24 1.85238 1.25917
      vertex 24 1.93253 1.18949
    endloop
  endfacet
  facet normal 0 0.656095 0.754678
    outer loop
      vertex 24 1.85238 1.25917
      vertex 0 1.93253 1.18949
      vertex 0 1.85238 1.25917
    endloop
  endfacet
  facet normal -0 0.618858 0.785503
    outer loop
      vertex 0 1.85238 1.25917
      vertex 24 1.76777 1.32583
      vertex 24 1.85238 1.25917
    endloop
  endfacet
  facet normal 0 0.618858 0.785503
    outer loop
      vertex 24 1.76777 1.32583
      vertex 0 1.85238 1.25917
      vertex 0 1.76777 1.32583
    endloop
  endfacet
  facet normal -0 0.581065 0.813857
    outer loop
      vertex 0 1.76777 1.32583
      vertex 24 1.6789 1.38928
      vertex 24 1.76777 1.32583
    endloop
  endfacet
  facet normal 0 0.581065 0.813857
    outer loop
      vertex 24 1.6789 1.38928
      vertex 0 1.76777 1.32583
      vertex 0 1.6789 1.38928
    endloop
  endfacet
  facet normal -0 0.543158 0.839631
    outer loop
      vertex 0 1.6789 1.38928
      vertex 24 1.58598 1.44939
      vertex 24 1.6789 1.38928
    endloop
  endfacet
  facet normal 0 0.543158 0.839631
    outer loop
      vertex 24 1.58598 1.44939
      vertex 0 1.6789 1.38928
      vertex 0 1.58598 1.44939
    endloop
  endfacet
  facet normal -0 0.505163 0.863024
    outer loop
      vertex 0 1.58598 1.44939
      vertex 24 1.48925 1.50601
      vertex 24 1.58598 1.44939
    endloop
  endfacet
  facet normal 0 0.505163 0.863024
    outer loop
      vertex 24 1.48925 1.50601
      vertex 0 1.58598 1.44939
      vertex 0 1.48925 1.50601
    endloop
  endfacet
  facet normal -0 0.467126 0.884191
    outer loop
      vertex 0 1.48925 1.50601
      vertex 24 1.38893 1.55901
      vertex 24 1.48925 1.50601
    endloop
  endfacet
  facet normal 0 0.467126 0.884191
    outer loop
      vertex 24 1.38893 1.55901
      vertex 0 1.48925 1.50601
      vertex 0 1.38893 1.55901
    endloop
  endfacet
  facet normal -0 0.428963 0.903322
    outer loop
      vertex 0 1.38893 1.55901
      vertex 24 1.28526 1.60824
      vertex 24 1.38893 1.55901
    endloop
  endfacet
  facet normal 0 0.428963 0.903322
    outer loop
      vertex 24 1.28526 1.60824
      vertex 0 1.38893 1.55901
      vertex 0 1.28526 1.60824
    endloop
  endfacet
  facet normal -0 0.391015 0.920384
    outer loop
      vertex 0 1.28526 1.60824
      vertex 24 1.17849 1.6536
      vertex 24 1.28526 1.60824
    endloop
  endfacet
  facet normal 0 0.391015 0.920384
    outer loop
      vertex 24 1.17849 1.6536
      vertex 0 1.28526 1.60824
      vertex 0 1.17849 1.6536
    endloop
  endfacet
  facet normal -0 0.353218 0.935541
    outer loop
      vertex 0 1.17849 1.6536
      vertex 24 1.06889 1.69498
      vertex 24 1.17849 1.6536
    endloop
  endfacet
  facet normal 0 0.353218 0.935541
    outer loop
      vertex 24 1.06889 1.69498
      vertex 0 1.17849 1.6536
      vertex 0 1.06889 1.69498
    endloop
  endfacet
  facet normal -0 0.315438 0.948946
    outer loop
      vertex 0 1.06889 1.69498
      vertex 24 0.956709 1.73227
      vertex 24 1.06889 1.69498
    endloop
  endfacet
  facet normal 0 0.315438 0.948946
    outer loop
      vertex 24 0.956709 1.73227
      vertex 0 1.06889 1.69498
      vertex 0 0.956709 1.73227
    endloop
  endfacet
  facet normal -0 0.27798 0.960587
    outer loop
      vertex 0 0.956709 1.73227
      vertex 24 0.842225 1.7654
      vertex 24 0.956709 1.73227
    endloop
  endfacet
  facet normal 0 0.27798 0.960587
    outer loop
      vertex 24 0.842225 1.7654
      vertex 0 0.956709 1.73227
      vertex 0 0.842225 1.7654
    endloop
  endfacet
  facet normal -0 0.240432 0.970666
    outer loop
      vertex 0 0.842225 1.7654
      vertex 24 0.725712 1.79426
      vertex 24 0.842225 1.7654
    endloop
  endfacet
  facet normal 0 0.240432 0.970666
    outer loop
      vertex 24 0.725712 1.79426
      vertex 0 0.842225 1.7654
      vertex 0 0.725712 1.79426
    endloop
  endfacet
  facet normal -0 0.203257 0.979126
    outer loop
      vertex 0 0.725712 1.79426
      vertex 24 0.60745 1.81881
      vertex 24 0.725712 1.79426
    endloop
  endfacet
  facet normal 0 0.203257 0.979126
    outer loop
      vertex 24 0.60745 1.81881
      vertex 0 0.725712 1.79426
      vertex 0 0.60745 1.81881
    endloop
  endfacet
  facet normal -0 0.16605 0.986117
    outer loop
      vertex 0 0.60745 1.81881
      vertex 24 0.487726 1.83897
      vertex 24 0.60745 1.81881
    endloop
  endfacet
  facet normal 0 0.16605 0.986117
    outer loop
      vertex 24 0.487726 1.83897
      vertex 0 0.60745 1.81881
      vertex 0 0.487726 1.83897
    endloop
  endfacet
  facet normal -0 0.129101 0.991631
    outer loop
      vertex 0 0.487726 1.83897
      vertex 24 0.366826 1.85471
      vertex 24 0.487726 1.83897
    endloop
  endfacet
  facet normal 0 0.129101 0.991631
    outer loop
      vertex 24 0.366826 1.85471
      vertex 0 0.487726 1.83897
      vertex 0 0.366826 1.85471
    endloop
  endfacet
  facet normal -0 0.0920668 0.995753
    outer loop
      vertex 0 0.366826 1.85471
      vertex 24 0.245043 1.86597
      vertex 24 0.366826 1.85471
    endloop
  endfacet
  facet normal 0 0.0920668 0.995753
    outer loop
      vertex 24 0.245043 1.86597
      vertex 0 0.366826 1.85471
      vertex 0 0.245043 1.86597
    endloop
  endfacet
  facet normal -0 0.0552377 0.998473
    outer loop
      vertex 0 0.245043 1.86597
      vertex 24 0.122669 1.87274
      vertex 24 0.245043 1.86597
    endloop
  endfacet
  facet normal 0 0.0552377 0.998473
    outer loop
      vertex 24 0.122669 1.87274
      vertex 0 0.245043 1.86597
      vertex 0 0.122669 1.87274
    endloop
  endfacet
  facet normal -0 0.0184204 0.99983
    outer loop
      vertex 0 0.122669 1.87274
      vertex 24 0 1.875
      vertex 24 0.122669 1.87274
    endloop
  endfacet
  facet normal 0 0.0184204 0.99983
    outer loop
      vertex 24 0 1.875
      vertex 0 0.122669 1.87274
      vertex 0 0 1.875
    endloop
  endfacet
  facet normal 0 -0.0184204 0.99983
    outer loop
      vertex 0 0 1.875
      vertex 24 -0.122669 1.87274
      vertex 24 0 1.875
    endloop
  endfacet
  facet normal 0 -0.0184204 0.99983
    outer loop
      vertex 24 -0.122669 1.87274
      vertex 0 0 1.875
      vertex 0 -0.122669 1.87274
    endloop
  endfacet
  facet normal 0 -0.0552377 0.998473
    outer loop
      vertex 0 -0.122669 1.87274
      vertex 24 -0.245043 1.86597
      vertex 24 -0.122669 1.87274
    endloop
  endfacet
  facet normal 0 -0.0552377 0.998473
    outer loop
      vertex 24 -0.245043 1.86597
      vertex 0 -0.122669 1.87274
      vertex 0 -0.245043 1.86597
    endloop
  endfacet
  facet normal 0 -0.0920668 0.995753
    outer loop
      vertex 0 -0.245043 1.86597
      vertex 24 -0.366826 1.85471
      vertex 24 -0.245043 1.86597
    endloop
  endfacet
  facet normal 0 -0.0920668 0.995753
    outer loop
      vertex 24 -0.366826 1.85471
      vertex 0 -0.245043 1.86597
      vertex 0 -0.366826 1.85471
    endloop
  endfacet
  facet normal 0 -0.129101 0.991631
    outer loop
      vertex 0 -0.366826 1.85471
      vertex 24 -0.487726 1.83897
      vertex 24 -0.366826 1.85471
    endloop
  endfacet
  facet normal 0 -0.129101 0.991631
    outer loop
      vertex 24 -0.487726 1.83897
      vertex 0 -0.366826 1.85471
      vertex 0 -0.487726 1.83897
    endloop
  endfacet
  facet normal 0 -0.16605 0.986117
    outer loop
      vertex 0 -0.487726 1.83897
      vertex 24 -0.60745 1.81881
      vertex 24 -0.487726 1.83897
    endloop
  endfacet
  facet normal 0 -0.16605 0.986117
    outer loop
      vertex 24 -0.60745 1.81881
      vertex 0 -0.487726 1.83897
      vertex 0 -0.60745 1.81881
    endloop
  endfacet
  facet normal 0 -0.203257 0.979126
    outer loop
      vertex 0 -0.60745 1.81881
      vertex 24 -0.725712 1.79426
      vertex 24 -0.60745 1.81881
    endloop
  endfacet
  facet normal 0 -0.203257 0.979126
    outer loop
      vertex 24 -0.725712 1.79426
      vertex 0 -0.60745 1.81881
      vertex 0 -0.725712 1.79426
    endloop
  endfacet
  facet normal 0 -0.240432 0.970666
    outer loop
      vertex 0 -0.725712 1.79426
      vertex 24 -0.842225 1.7654
      vertex 24 -0.725712 1.79426
    endloop
  endfacet
  facet normal 0 -0.240432 0.970666
    outer loop
      vertex 24 -0.842225 1.7654
      vertex 0 -0.725712 1.79426
      vertex 0 -0.842225 1.7654
    endloop
  endfacet
  facet normal 0 -0.27798 0.960587
    outer loop
      vertex 0 -0.842225 1.7654
      vertex 24 -0.956709 1.73227
      vertex 24 -0.842225 1.7654
    endloop
  endfacet
  facet normal 0 -0.27798 0.960587
    outer loop
      vertex 24 -0.956709 1.73227
      vertex 0 -0.842225 1.7654
      vertex 0 -0.956709 1.73227
    endloop
  endfacet
  facet normal 0 -0.315438 0.948946
    outer loop
      vertex 0 -0.956709 1.73227
      vertex 24 -1.06889 1.69498
      vertex 24 -0.956709 1.73227
    endloop
  endfacet
  facet normal 0 -0.315438 0.948946
    outer loop
      vertex 24 -1.06889 1.69498
      vertex 0 -0.956709 1.73227
      vertex 0 -1.06889 1.69498
    endloop
  endfacet
  facet normal 0 -0.353218 0.935541
    outer loop
      vertex 0 -1.06889 1.69498
      vertex 24 -1.17849 1.6536
      vertex 24 -1.06889 1.69498
    endloop
  endfacet
  facet normal 0 -0.353218 0.935541
    outer loop
      vertex 24 -1.17849 1.6536
      vertex 0 -1.06889 1.69498
      vertex 0 -1.17849 1.6536
    endloop
  endfacet
  facet normal 0 -0.391015 0.920384
    outer loop
      vertex 0 -1.17849 1.6536
      vertex 24 -1.28526 1.60824
      vertex 24 -1.17849 1.6536
    endloop
  endfacet
  facet normal 0 -0.391015 0.920384
    outer loop
      vertex 24 -1.28526 1.60824
      vertex 0 -1.17849 1.6536
      vertex 0 -1.28526 1.60824
    endloop
  endfacet
  facet normal 0 -0.428963 0.903322
    outer loop
      vertex 0 -1.28526 1.60824
      vertex 24 -1.38893 1.55901
      vertex 24 -1.28526 1.60824
    endloop
  endfacet
  facet normal 0 -0.428963 0.903322
    outer loop
      vertex 24 -1.38893 1.55901
      vertex 0 -1.28526 1.60824
      vertex 0 -1.38893 1.55901
    endloop
  endfacet
  facet normal 0 -0.467126 0.884191
    outer loop
      vertex 0 -1.38893 1.55901
      vertex 24 -1.48925 1.50601
      vertex 24 -1.38893 1.55901
    endloop
  endfacet
  facet normal 0 -0.467126 0.884191
    outer loop
      vertex 24 -1.48925 1.50601
      vertex 0 -1.38893 1.55901
      vertex 0 -1.48925 1.50601
    endloop
  endfacet
  facet normal 0 -0.505163 0.863024
    outer loop
      vertex 0 -1.48925 1.50601
      vertex 24 -1.58598 1.44939
      vertex 24 -1.48925 1.50601
    endloop
  endfacet
  facet normal 0 -0.505163 0.863024
    outer loop
      vertex 24 -1.58598 1.44939
      vertex 0 -1.48925 1.50601
      vertex 0 -1.58598 1.44939
    endloop
  endfacet
  facet normal 0 -0.543158 0.839631
    outer loop
      vertex 0 -1.58598 1.44939
      vertex 24 -1.6789 1.38928
      vertex 24 -1.58598 1.44939
    endloop
  endfacet
  facet normal 0 -0.543158 0.839631
    outer loop
      vertex 24 -1.6789 1.38928
      vertex 0 -1.58598 1.44939
      vertex 0 -1.6789 1.38928
    endloop
  endfacet
  facet normal 0 -0.581065 0.813857
    outer loop
      vertex 0 -1.6789 1.38928
      vertex 24 -1.76777 1.32583
      vertex 24 -1.6789 1.38928
    endloop
  endfacet
  facet normal 0 -0.581065 0.813857
    outer loop
      vertex 24 -1.76777 1.32583
      vertex 0 -1.6789 1.38928
      vertex 0 -1.76777 1.32583
    endloop
  endfacet
  facet normal 0 -0.618858 0.785503
    outer loop
      vertex 0 -1.76777 1.32583
      vertex 24 -1.85238 1.25917
      vertex 24 -1.76777 1.32583
    endloop
  endfacet
  facet normal 0 -0.618858 0.785503
    outer loop
      vertex 24 -1.85238 1.25917
      vertex 0 -1.76777 1.32583
      vertex 0 -1.85238 1.25917
    endloop
  endfacet
  facet normal 0 -0.656095 0.754678
    outer loop
      vertex 0 -1.85238 1.25917
      vertex 24 -1.93253 1.18949
      vertex 24 -1.85238 1.25917
    endloop
  endfacet
  facet normal 0 -0.656095 0.754678
    outer loop
      vertex 24 -1.93253 1.18949
      vertex 0 -1.85238 1.25917
      vertex 0 -1.93253 1.18949
    endloop
  endfacet
  facet normal 0 -0.692927 0.721007
    outer loop
      vertex 0 -1.93253 1.18949
      vertex 24 -2.00802 1.11694
      vertex 24 -1.93253 1.18949
    endloop
  endfacet
  facet normal 0 -0.692927 0.721007
    outer loop
      vertex 24 -2.00802 1.11694
      vertex 0 -1.93253 1.18949
      vertex 0 -2.00802 1.11694
    endloop
  endfacet
  facet normal 0 -0.729039 0.684473
    outer loop
      vertex 0 -2.07867 1.04169
      vertex 24 -2.00802 1.11694
      vertex 0 -2.00802 1.11694
    endloop
  endfacet
  facet normal 0 -0.729039 0.684473
    outer loop
      vertex 24 -2.00802 1.11694
      vertex 0 -2.07867 1.04169
      vertex 24 -2.07867 1.04169
    endloop
  endfacet
  facet normal 0 -0.764045 0.645163
    outer loop
      vertex 0 -2.14432 0.963943
      vertex 24 -2.07867 1.04169
      vertex 0 -2.07867 1.04169
    endloop
  endfacet
  facet normal 0 -0.764045 0.645163
    outer loop
      vertex 24 -2.07867 1.04169
      vertex 0 -2.14432 0.963943
      vertex 24 -2.14432 0.963943
    endloop
  endfacet
  facet normal 0 -0.797965 0.602704
    outer loop
      vertex 0 -2.2048 0.883869
      vertex 24 -2.14432 0.963943
      vertex 0 -2.14432 0.963943
    endloop
  endfacet
  facet normal 0 -0.797965 0.602704
    outer loop
      vertex 24 -2.14432 0.963943
      vertex 0 -2.2048 0.883869
      vertex 24 -2.2048 0.883869
    endloop
  endfacet
  facet normal 0 -0.830331 0.557271
    outer loop
      vertex 0 -2.25997 0.801666
      vertex 24 -2.2048 0.883869
      vertex 0 -2.2048 0.883869
    endloop
  endfacet
  facet normal 0 -0.830331 0.557271
    outer loop
      vertex 24 -2.2048 0.883869
      vertex 0 -2.25997 0.801666
      vertex 24 -2.25997 0.801666
    endloop
  endfacet
  facet normal 0 -0.860864 0.508834
    outer loop
      vertex 0 -2.3097 0.717531
      vertex 24 -2.25997 0.801666
      vertex 0 -2.25997 0.801666
    endloop
  endfacet
  facet normal 0 -0.860864 0.508834
    outer loop
      vertex 24 -2.25997 0.801666
      vertex 0 -2.3097 0.717531
      vertex 24 -2.3097 0.717531
    endloop
  endfacet
  facet normal 0 -0.88928 0.457363
    outer loop
      vertex 0 -2.35386 0.631668
      vertex 24 -2.3097 0.717531
      vertex 0 -2.3097 0.717531
    endloop
  endfacet
  facet normal 0 -0.88928 0.457363
    outer loop
      vertex 24 -2.3097 0.717531
      vertex 0 -2.35386 0.631668
      vertex 24 -2.35386 0.631668
    endloop
  endfacet
  facet normal 0 -0.915157 0.403099
    outer loop
      vertex 0 -2.39235 0.544284
      vertex 24 -2.35386 0.631668
      vertex 0 -2.35386 0.631668
    endloop
  endfacet
  facet normal 0 -0.915157 0.403099
    outer loop
      vertex 24 -2.35386 0.631668
      vertex 0 -2.39235 0.544284
      vertex 24 -2.39235 0.544284
    endloop
  endfacet
  facet normal 0 -0.938163 0.346194
    outer loop
      vertex 0 -2.42508 0.455588
      vertex 24 -2.39235 0.544284
      vertex 0 -2.39235 0.544284
    endloop
  endfacet
  facet normal 0 -0.938163 0.346194
    outer loop
      vertex 24 -2.39235 0.544284
      vertex 0 -2.42508 0.455588
      vertex 24 -2.42508 0.455588
    endloop
  endfacet
  facet normal 0 -0.957997 0.286778
    outer loop
      vertex 0 -2.45196 0.365794
      vertex 24 -2.42508 0.455588
      vertex 0 -2.42508 0.455588
    endloop
  endfacet
  facet normal 0 -0.957997 0.286778
    outer loop
      vertex 24 -2.42508 0.455588
      vertex 0 -2.45196 0.365794
      vertex 24 -2.45196 0.365794
    endloop
  endfacet
  facet normal 0 -0.974261 0.225423
    outer loop
      vertex 0 -2.47294 0.27512
      vertex 24 -2.45196 0.365794
      vertex 0 -2.45196 0.365794
    endloop
  endfacet
  facet normal 0 -0.974261 0.225423
    outer loop
      vertex 24 -2.45196 0.365794
      vertex 0 -2.47294 0.27512
      vertex 24 -2.47294 0.27512
    endloop
  endfacet
  facet normal 0 -0.986747 0.162265
    outer loop
      vertex 0 -2.48796 0.183782
      vertex 24 -2.47294 0.27512
      vertex 0 -2.47294 0.27512
    endloop
  endfacet
  facet normal 0 -0.986747 0.162265
    outer loop
      vertex 24 -2.47294 0.27512
      vertex 0 -2.48796 0.183782
      vertex 24 -2.48796 0.183782
    endloop
  endfacet
  facet normal 0 -0.995195 0.0979146
    outer loop
      vertex 0 -2.49699 0.0920019
      vertex 24 -2.48796 0.183782
      vertex 0 -2.48796 0.183782
    endloop
  endfacet
  facet normal 0 -0.995195 0.0979146
    outer loop
      vertex 24 -2.48796 0.183782
      vertex 0 -2.49699 0.0920019
      vertex 24 -2.49699 0.0920019
    endloop
  endfacet
  facet normal 0 -0.999465 0.0326992
    outer loop
      vertex 0 -2.5 0
      vertex 24 -2.49699 0.0920019
      vertex 0 -2.49699 0.0920019
    endloop
  endfacet
  facet normal 0 -0.999465 0.0326992
    outer loop
      vertex 24 -2.49699 0.0920019
      vertex 0 -2.5 0
      vertex 24 -2.5 0
    endloop
  endfacet
  facet normal 0 -0.999465 -0.0326992
    outer loop
      vertex 0 -2.49699 -0.0920019
      vertex 24 -2.5 0
      vertex 0 -2.5 0
    endloop
  endfacet
  facet normal 0 -0.999465 -0.0326992
    outer loop
      vertex 24 -2.5 0
      vertex 0 -2.49699 -0.0920019
      vertex 24 -2.49699 -0.0920019
    endloop
  endfacet
  facet normal 0 -0.995195 -0.0979146
    outer loop
      vertex 0 -2.48796 -0.183782
      vertex 24 -2.49699 -0.0920019
      vertex 0 -2.49699 -0.0920019
    endloop
  endfacet
  facet normal 0 -0.995195 -0.0979146
    outer loop
      vertex 24 -2.49699 -0.0920019
      vertex 0 -2.48796 -0.183782
      vertex 24 -2.48796 -0.183782
    endloop
  endfacet
  facet normal 0 -0.986747 -0.162265
    outer loop
      vertex 0 -2.47294 -0.27512
      vertex 24 -2.48796 -0.183782
      vertex 0 -2.48796 -0.183782
    endloop
  endfacet
  facet normal 0 -0.986747 -0.162265
    outer loop
      vertex 24 -2.48796 -0.183782
      vertex 0 -2.47294 -0.27512
      vertex 24 -2.47294 -0.27512
    endloop
  endfacet
  facet normal 0 -0.974261 -0.225423
    outer loop
      vertex 0 -2.45196 -0.365794
      vertex 24 -2.47294 -0.27512
      vertex 0 -2.47294 -0.27512
    endloop
  endfacet
  facet normal 0 -0.974261 -0.225423
    outer loop
      vertex 24 -2.47294 -0.27512
      vertex 0 -2.45196 -0.365794
      vertex 24 -2.45196 -0.365794
    endloop
  endfacet
  facet normal 0 -0.957997 -0.286778
    outer loop
      vertex 0 -2.42508 -0.455588
      vertex 24 -2.45196 -0.365794
      vertex 0 -2.45196 -0.365794
    endloop
  endfacet
  facet normal 0 -0.957997 -0.286778
    outer loop
      vertex 24 -2.45196 -0.365794
      vertex 0 -2.42508 -0.455588
      vertex 24 -2.42508 -0.455588
    endloop
  endfacet
  facet normal 0 -0.938163 -0.346194
    outer loop
      vertex 0 -2.39235 -0.544284
      vertex 24 -2.42508 -0.455588
      vertex 0 -2.42508 -0.455588
    endloop
  endfacet
  facet normal 0 -0.938163 -0.346194
    outer loop
      vertex 24 -2.42508 -0.455588
      vertex 0 -2.39235 -0.544284
      vertex 24 -2.39235 -0.544284
    endloop
  endfacet
  facet normal 0 -0.915157 -0.403099
    outer loop
      vertex 0 -2.35386 -0.631668
      vertex 24 -2.39235 -0.544284
      vertex 0 -2.39235 -0.544284
    endloop
  endfacet
  facet normal 0 -0.915157 -0.403099
    outer loop
      vertex 24 -2.39235 -0.544284
      vertex 0 -2.35386 -0.631668
      vertex 24 -2.35386 -0.631668
    endloop
  endfacet
  facet normal 0 -0.88928 -0.457363
    outer loop
      vertex 0 -2.3097 -0.717531
      vertex 24 -2.35386 -0.631668
      vertex 0 -2.35386 -0.631668
    endloop
  endfacet
  facet normal 0 -0.88928 -0.457363
    outer loop
      vertex 24 -2.35386 -0.631668
      vertex 0 -2.3097 -0.717531
      vertex 24 -2.3097 -0.717531
    endloop
  endfacet
  facet normal 0 -0.860864 -0.508834
    outer loop
      vertex 0 -2.25997 -0.801666
      vertex 24 -2.3097 -0.717531
      vertex 0 -2.3097 -0.717531
    endloop
  endfacet
  facet normal 0 -0.860864 -0.508834
    outer loop
      vertex 24 -2.3097 -0.717531
      vertex 0 -2.25997 -0.801666
      vertex 24 -2.25997 -0.801666
    endloop
  endfacet
  facet normal 0 -0.830331 -0.557271
    outer loop
      vertex 0 -2.2048 -0.883869
      vertex 24 -2.25997 -0.801666
      vertex 0 -2.25997 -0.801666
    endloop
  endfacet
  facet normal 0 -0.830331 -0.557271
    outer loop
      vertex 24 -2.25997 -0.801666
      vertex 0 -2.2048 -0.883869
      vertex 24 -2.2048 -0.883869
    endloop
  endfacet
  facet normal 0 -0.797965 -0.602704
    outer loop
      vertex 0 -2.14432 -0.963943
      vertex 24 -2.2048 -0.883869
      vertex 0 -2.2048 -0.883869
    endloop
  endfacet
  facet normal 0 -0.797965 -0.602704
    outer loop
      vertex 24 -2.2048 -0.883869
      vertex 0 -2.14432 -0.963943
      vertex 24 -2.14432 -0.963943
    endloop
  endfacet
  facet normal 0 -0.764045 -0.645163
    outer loop
      vertex 0 -2.07867 -1.04169
      vertex 24 -2.14432 -0.963943
      vertex 0 -2.14432 -0.963943
    endloop
  endfacet
  facet normal 0 -0.764045 -0.645163
    outer loop
      vertex 24 -2.14432 -0.963943
      vertex 0 -2.07867 -1.04169
      vertex 24 -2.07867 -1.04169
    endloop
  endfacet
  facet normal 0 -0.729039 -0.684473
    outer loop
      vertex 0 -2.00802 -1.11694
      vertex 24 -2.07867 -1.04169
      vertex 0 -2.07867 -1.04169
    endloop
  endfacet
  facet normal 0 -0.729039 -0.684473
    outer loop
      vertex 24 -2.07867 -1.04169
      vertex 0 -2.00802 -1.11694
      vertex 24 -2.00802 -1.11694
    endloop
  endfacet
  facet normal 0 -0.692927 -0.721007
    outer loop
      vertex 0 -2.00802 -1.11694
      vertex 24 -1.93253 -1.18949
      vertex 24 -2.00802 -1.11694
    endloop
  endfacet
  facet normal -0 -0.692927 -0.721007
    outer loop
      vertex 24 -1.93253 -1.18949
      vertex 0 -2.00802 -1.11694
      vertex 0 -1.93253 -1.18949
    endloop
  endfacet
  facet normal 0 -0.656095 -0.754678
    outer loop
      vertex 0 -1.93253 -1.18949
      vertex 24 -1.85238 -1.25917
      vertex 24 -1.93253 -1.18949
    endloop
  endfacet
  facet normal -0 -0.656095 -0.754678
    outer loop
      vertex 24 -1.85238 -1.25917
      vertex 0 -1.93253 -1.18949
      vertex 0 -1.85238 -1.25917
    endloop
  endfacet
  facet normal 0 -0.618858 -0.785503
    outer loop
      vertex 0 -1.85238 -1.25917
      vertex 24 -1.76777 -1.32583
      vertex 24 -1.85238 -1.25917
    endloop
  endfacet
  facet normal -0 -0.618858 -0.785503
    outer loop
      vertex 24 -1.76777 -1.32583
      vertex 0 -1.85238 -1.25917
      vertex 0 -1.76777 -1.32583
    endloop
  endfacet
  facet normal 0 -0.581065 -0.813857
    outer loop
      vertex 0 -1.76777 -1.32583
      vertex 24 -1.6789 -1.38928
      vertex 24 -1.76777 -1.32583
    endloop
  endfacet
  facet normal -0 -0.581065 -0.813857
    outer loop
      vertex 24 -1.6789 -1.38928
      vertex 0 -1.76777 -1.32583
      vertex 0 -1.6789 -1.38928
    endloop
  endfacet
  facet normal 0 -0.543158 -0.839631
    outer loop
      vertex 0 -1.6789 -1.38928
      vertex 24 -1.58598 -1.44939
      vertex 24 -1.6789 -1.38928
    endloop
  endfacet
  facet normal -0 -0.543158 -0.839631
    outer loop
      vertex 24 -1.58598 -1.44939
      vertex 0 -1.6789 -1.38928
      vertex 0 -1.58598 -1.44939
    endloop
  endfacet
  facet normal 0 -0.505163 -0.863024
    outer loop
      vertex 0 -1.58598 -1.44939
      vertex 24 -1.48925 -1.50601
      vertex 24 -1.58598 -1.44939
    endloop
  endfacet
  facet normal -0 -0.505163 -0.863024
    outer loop
      vertex 24 -1.48925 -1.50601
      vertex 0 -1.58598 -1.44939
      vertex 0 -1.48925 -1.50601
    endloop
  endfacet
  facet normal 0 -0.467126 -0.884191
    outer loop
      vertex 0 -1.48925 -1.50601
      vertex 24 -1.38893 -1.55901
      vertex 24 -1.48925 -1.50601
    endloop
  endfacet
  facet normal -0 -0.467126 -0.884191
    outer loop
      vertex 24 -1.38893 -1.55901
      vertex 0 -1.48925 -1.50601
      vertex 0 -1.38893 -1.55901
    endloop
  endfacet
  facet normal 0 -0.428963 -0.903322
    outer loop
      vertex 0 -1.38893 -1.55901
      vertex 24 -1.28526 -1.60824
      vertex 24 -1.38893 -1.55901
    endloop
  endfacet
  facet normal -0 -0.428963 -0.903322
    outer loop
      vertex 24 -1.28526 -1.60824
      vertex 0 -1.38893 -1.55901
      vertex 0 -1.28526 -1.60824
    endloop
  endfacet
  facet normal 0 -0.391015 -0.920384
    outer loop
      vertex 0 -1.28526 -1.60824
      vertex 24 -1.17849 -1.6536
      vertex 24 -1.28526 -1.60824
    endloop
  endfacet
  facet normal -0 -0.391015 -0.920384
    outer loop
      vertex 24 -1.17849 -1.6536
      vertex 0 -1.28526 -1.60824
      vertex 0 -1.17849 -1.6536
    endloop
  endfacet
  facet normal 0 -0.353218 -0.935541
    outer loop
      vertex 0 -1.17849 -1.6536
      vertex 24 -1.06889 -1.69498
      vertex 24 -1.17849 -1.6536
    endloop
  endfacet
  facet normal -0 -0.353218 -0.935541
    outer loop
      vertex 24 -1.06889 -1.69498
      vertex 0 -1.17849 -1.6536
      vertex 0 -1.06889 -1.69498
    endloop
  endfacet
  facet normal 0 -0.315438 -0.948946
    outer loop
      vertex 0 -1.06889 -1.69498
      vertex 24 -0.956709 -1.73227
      vertex 24 -1.06889 -1.69498
    endloop
  endfacet
  facet normal -0 -0.315438 -0.948946
    outer loop
      vertex 24 -0.956709 -1.73227
      vertex 0 -1.06889 -1.69498
      vertex 0 -0.956709 -1.73227
    endloop
  endfacet
  facet normal 0 -0.27798 -0.960587
    outer loop
      vertex 0 -0.956709 -1.73227
      vertex 24 -0.842225 -1.7654
      vertex 24 -0.956709 -1.73227
    endloop
  endfacet
  facet normal -0 -0.27798 -0.960587
    outer loop
      vertex 24 -0.842225 -1.7654
      vertex 0 -0.956709 -1.73227
      vertex 0 -0.842225 -1.7654
    endloop
  endfacet
  facet normal 0 -0.240432 -0.970666
    outer loop
      vertex 0 -0.842225 -1.7654
      vertex 24 -0.725712 -1.79426
      vertex 24 -0.842225 -1.7654
    endloop
  endfacet
  facet normal -0 -0.240432 -0.970666
    outer loop
      vertex 24 -0.725712 -1.79426
      vertex 0 -0.842225 -1.7654
      vertex 0 -0.725712 -1.79426
    endloop
  endfacet
  facet normal 0 -0.203257 -0.979126
    outer loop
      vertex 0 -0.725712 -1.79426
      vertex 24 -0.60745 -1.81881
      vertex 24 -0.725712 -1.79426
    endloop
  endfacet
  facet normal -0 -0.203257 -0.979126
    outer loop
      vertex 24 -0.60745 -1.81881
      vertex 0 -0.725712 -1.79426
      vertex 0 -0.60745 -1.81881
    endloop
  endfacet
  facet normal 0 -0.16605 -0.986117
    outer loop
      vertex 0 -0.60745 -1.81881
      vertex 24 -0.487726 -1.83897
      vertex 24 -0.60745 -1.81881
    endloop
  endfacet
  facet normal -0 -0.16605 -0.986117
    outer loop
      vertex 24 -0.487726 -1.83897
      vertex 0 -0.60745 -1.81881
      vertex 0 -0.487726 -1.83897
    endloop
  endfacet
  facet normal 0 -0.129101 -0.991631
    outer loop
      vertex 0 -0.487726 -1.83897
      vertex 24 -0.366826 -1.85471
      vertex 24 -0.487726 -1.83897
    endloop
  endfacet
  facet normal -0 -0.129101 -0.991631
    outer loop
      vertex 24 -0.366826 -1.85471
      vertex 0 -0.487726 -1.83897
      vertex 0 -0.366826 -1.85471
    endloop
  endfacet
  facet normal 0 -0.0920668 -0.995753
    outer loop
      vertex 0 -0.366826 -1.85471
      vertex 24 -0.245043 -1.86597
      vertex 24 -0.366826 -1.85471
    endloop
  endfacet
  facet normal -0 -0.0920668 -0.995753
    outer loop
      vertex 24 -0.245043 -1.86597
      vertex 0 -0.366826 -1.85471
      vertex 0 -0.245043 -1.86597
    endloop
  endfacet
  facet normal 0 -0.0552377 -0.998473
    outer loop
      vertex 0 -0.245043 -1.86597
      vertex 24 -0.122669 -1.87274
      vertex 24 -0.245043 -1.86597
    endloop
  endfacet
  facet normal -0 -0.0552377 -0.998473
    outer loop
      vertex 24 -0.122669 -1.87274
      vertex 0 -0.245043 -1.86597
      vertex 0 -0.122669 -1.87274
    endloop
  endfacet
  facet normal 0 -0.0184204 -0.99983
    outer loop
      vertex 0 -0.122669 -1.87274
      vertex 24 0 -1.875
      vertex 24 -0.122669 -1.87274
    endloop
  endfacet
  facet normal -0 -0.0184204 -0.99983
    outer loop
      vertex 24 0 -1.875
      vertex 0 -0.122669 -1.87274
      vertex 0 0 -1.875
    endloop
  endfacet
  facet normal -1 0 0
    outer loop
      vertex 0 2.49699 -0.0920019
      vertex 0 2.49699 0.0920019
      vertex 0 2.5 0
    endloop
  endfacet
  facet normal -1 0 0
    outer loop
      vertex 0 2.48796 -0.183782
      vertex 0 2.49699 0.0920019
      vertex 0 2.49699 -0.0920019
    endloop
  endfacet
  facet normal -1 0 0
    outer loop
      vertex 0 2.48796 -0.183782
      vertex 0 2.48796 0.183782
      vertex 0 2.49699 0.0920019
    endloop
  endfacet
  facet normal -1 0 0
    outer loop
      vertex 0 2.47294 -0.27512
      vertex 0 2.48796 0.183782
      vertex 0 2.48796 -0.183782
    endloop
  endfacet
  facet normal -1 0 0
    outer loop
      vertex 0 2.47294 -0.27512
      vertex 0 2.47294 0.27512
      vertex 0 2.48796 0.183782
    endloop
  endfacet
  facet normal -1 0 0
    outer loop
      vertex 0 2.45196 -0.365794
      vertex 0 2.47294 0.27512
      vertex 0 2.47294 -0.27512
    endloop
  endfacet
  facet normal -1 0 0
    outer loop
      vertex 0 2.45196 -0.365794
      vertex 0 2.45196 0.365794
      vertex 0 2.47294 0.27512
    endloop
  endfacet
  facet normal -1 0 0
    outer loop
      vertex 0 2.42508 -0.455588
      vertex 0 2.45196 0.365794
      vertex 0 2.45196 -0.365794
    endloop
  endfacet
  facet normal -1 0 0
    outer loop
      vertex 0 2.42508 -0.455588
      vertex 0 2.42508 0.455588
      vertex 0 2.45196 0.365794
    endloop
  endfacet
  facet normal -1 0 0
    outer loop
      vertex 0 2.39235 -0.544284
      vertex 0 2.42508 0.455588
      vertex 0 2.42508 -0.455588
    endloop
  endfacet
  facet normal -1 0 0
    outer loop
      vertex 0 2.39235 -0.544284
      vertex 0 2.39235 0.544284
      vertex 0 2.42508 0.455588
    endloop
  endfacet
  facet normal -1 0 0
    outer loop
      vertex 0 2.35386 -0.631668
      vertex 0 2.39235 0.544284
      vertex 0 2.39235 -0.544284
    endloop
  endfacet
  facet normal -1 0 0
    outer loop
      vertex 0 2.35386 -0.631668
      vertex 0 2.35386 0.631668
      vertex 0 2.39235 0.544284
    endloop
  endfacet
  facet normal -1 0 0
    outer loop
      vertex 0 2.3097 -0.717531
      vertex 0 2.35386 0.631668
      vertex 0 2.35386 -0.631668
    endloop
  endfacet
  facet normal -1 0 0
    outer loop
      vertex 0 2.3097 -0.717531
      vertex 0 2.3097 0.717531
      vertex 0 2.35386 0.631668
    endloop
  endfacet
  facet normal -1 0 0
    outer loop
      vertex 0 2.25997 -0.801666
      vertex 0 2.3097 0.717531
      vertex 0 2.3097 -0.717531
    endloop
  endfacet
  facet normal -1 0 0
    outer loop
      vertex 0 2.25997 -0.801666
      vertex 0 2.25997 0.801666
      vertex 0 2.3097 0.717531
    endloop
  endfacet
  facet normal -1 0 0
    outer loop
      vertex 0 2.2048 -0.883869
      vertex 0 2.25997 0.801666
      vertex 0 2.25997 -0.801666
    endloop
  endfacet
  facet normal -1 0 0
    outer loop
      vertex 0 2.2048 -0.883869
      vertex 0 2.2048 0.883869
      vertex 0 2.25997 0.801666
    endloop
  endfacet
  facet normal -1 0 0
    outer loop
      vertex 0 2.14432 -0.963943
      vertex 0 2.2048 0.883869
      vertex 0 2.2048 -0.883869
    endloop
  endfacet
  facet normal -1 0 0
    outer loop
      vertex 0 2.14432 -0.963943
      vertex 0 2.14432 0.963943
      vertex 0 2.2048 0.883869
    endloop
  endfacet
  facet normal -1 0 0
    outer loop
      vertex 0 2.07867 -1.04169
      vertex 0 2.14432 0.963943
      vertex 0 2.14432 -0.963943
    endloop
  endfacet
  facet normal -1 0 0
    outer loop
      vertex 0 2.07867 -1.04169
      vertex 0 2.07867 1.04169
      vertex 0 2.14432 0.963943
    endloop
  endfacet
  facet normal -1 0 0
    outer loop
      vertex 0 2.00802 -1.11694
      vertex 0 2.07867 1.04169
      vertex 0 2.07867 -1.04169
    endloop
  endfacet
  facet normal -1 0 0
    outer loop
      vertex 0 2.00802 -1.11694
      vertex 0 2.00802 1.11694
      vertex 0 2.07867 1.04169
    endloop
  endfacet
  facet normal -1 0 0
    outer loop
      vertex 0 1.93253 -1.18949
      vertex 0 2.00802 1.11694
      vertex 0 2.00802 -1.11694
    endloop
  endfacet
  facet normal -1 0 0
    outer loop
      vertex 0 1.93253 -1.18949
      vertex 0 1.93253 1.18949
      vertex 0 2.00802 1.11694
    endloop
  endfacet
  facet normal -1 0 0
    outer loop
      vertex 0 1.85238 -1.25917
      vertex 0 1.93253 1.18949
      vertex 0 1.93253 -1.18949
    endloop
  endfacet
  facet normal -1 0 0
    outer loop
      vertex 0 1.85238 -1.25917
      vertex 0 1.85238 1.25917
      vertex 0 1.93253 1.18949
    endloop
  endfacet
  facet normal -1 0 0
    outer loop
      vertex 0 1.76777 -1.32583
      vertex 0 1.85238 1.25917
      vertex 0 1.85238 -1.25917
    endloop
  endfacet
  facet normal -1 0 0
    outer loop
      vertex 0 1.76777 -1.32583
      vertex 0 1.76777 1.32583
      vertex 0 1.85238 1.25917
    endloop
  endfacet
  facet normal -1 0 0
    outer loop
      vertex 0 1.6789 -1.38928
      vertex 0 1.76777 1.32583
      vertex 0 1.76777 -1.32583
    endloop
  endfacet
  facet normal -1 0 0
    outer loop
      vertex 0 1.6789 -1.38928
      vertex 0 1.6789 1.38928
      vertex 0 1.76777 1.32583
    endloop
  endfacet
  facet normal -1 0 0
    outer loop
      vertex 0 1.58598 -1.44939
      vertex 0 1.6789 1.38928
      vertex 0 1.6789 -1.38928
    endloop
  endfacet
  facet normal -1 0 0
    outer loop
      vertex 0 1.58598 -1.44939
      vertex 0 1.58598 1.44939
      vertex 0 1.6789 1.38928
    endloop
  endfacet
  facet normal -1 0 0
    outer loop
      vertex 0 1.48925 -1.50601
      vertex 0 1.58598 1.44939
      vertex 0 1.58598 -1.44939
    endloop
  endfacet
  facet normal -1 0 0
    outer loop
      vertex 0 1.48925 -1.50601
      vertex 0 1.48925 1.50601
      vertex 0 1.58598 1.44939
    endloop
  endfacet
  facet normal -1 0 0
    outer loop
      vertex 0 1.38893 -1.55901
      vertex 0 1.48925 1.50601
      vertex 0 1.48925 -1.50601
    endloop
  endfacet
  facet normal -1 0 0
    outer loop
      vertex 0 1.38893 -1.55901
      vertex 0 1.38893 1.55901
      vertex 0 1.48925 1.50601
    endloop
  endfacet
  facet normal -1 0 0
    outer loop
      vertex 0 1.28526 -1.60824
      vertex 0 1.38893 1.55901
      vertex 0 1.38893 -1.55901
    endloop
  endfacet
  facet normal -1 0 0
    outer loop
      vertex 0 1.28526 -1.60824
      vertex 0 1.28526 1.60824
      vertex 0 1.38893 1.55901
    endloop
  endfacet
  facet normal -1 0 0
    outer loop
      vertex 0 1.17849 -1.6536
      vertex 0 1.28526 1.60824
      vertex 0 1.28526 -1.60824
    endloop
  endfacet
  facet normal -1 0 0
    outer loop
      vertex 0 1.17849 -1.6536
      vertex 0 1.17849 1.6536
      vertex 0 1.28526 1.60824
    endloop
  endfacet
  facet normal -1 0 0
    outer loop
      vertex 0 1.06889 -1.69498
      vertex 0 1.17849 1.6536
      vertex 0 1.17849 -1.6536
    endloop
  endfacet
  facet normal -1 0 0
    outer loop
      vertex 0 1.06889 -1.69498
      vertex 0 1.06889 1.69498
      vertex 0 1.17849 1.6536
    endloop
  endfacet
  facet normal -1 0 0
    outer loop
      vertex 0 0.956709 -1.73227
      vertex 0 1.06889 1.69498
      vertex 0 1.06889 -1.69498
    endloop
  endfacet
  facet normal -1 0 0
    outer loop
      vertex 0 0.956709 -1.73227
      vertex 0 0.956709 1.73227
      vertex 0 1.06889 1.69498
    endloop
  endfacet
  facet normal -1 0 0
    outer loop
      vertex 0 0.842225 -1.7654
      vertex 0 0.956709 1.73227
      vertex 0 0.956709 -1.73227
    endloop
  endfacet
  facet normal -1 0 0
    outer loop
      vertex 0 0.842225 -1.7654
      vertex 0 0.842225 1.7654
      vertex 0 0.956709 1.73227
    endloop
  endfacet
  facet normal -1 0 0
    outer loop
      vertex 0 0.725712 -1.79426
      vertex 0 0.842225 1.7654
      vertex 0 0.842225 -1.7654
    endloop
  endfacet
  facet normal -1 0 0
    outer loop
      vertex 0 0.725712 -1.79426
      vertex 0 0.725712 1.79426
      vertex 0 0.842225 1.7654
    endloop
  endfacet
  facet normal -1 0 0
    outer loop
      vertex 0 0.60745 -1.81881
      vertex 0 0.725712 1.79426
      vertex 0 0.725712 -1.79426
    endloop
  endfacet
  facet normal -1 0 0
    outer loop
      vertex 0 0.60745 -1.81881
      vertex 0 0.60745 1.81881
      vertex 0 0.725712 1.79426
    endloop
  endfacet
  facet normal -1 0 0
    outer loop
      vertex 0 0.487726 -1.83897
      vertex 0 0.60745 1.81881
      vertex 0 0.60745 -1.81881
    endloop
  endfacet
  facet normal -1 0 0
    outer loop
      vertex 0 0.487726 -1.83897
      vertex 0 0.487726 1.83897
      vertex 0 0.60745 1.81881
    endloop
  endfacet
  facet normal -1 0 0
    outer loop
      vertex 0 0.366826 -1.85471
      vertex 0 0.487726 1.83897
      vertex 0 0.487726 -1.83897
    endloop
  endfacet
  facet normal -1 0 0
    outer loop
      vertex 0 0.366826 -1.85471
      vertex 0 0.366826 1.85471
      vertex 0 0.487726 1.83897
    endloop
  endfacet
  facet normal -1 0 0
    outer loop
      vertex 0 0.245043 -1.86597
      vertex 0 0.366826 1.85471
      vertex 0 0.366826 -1.85471
    endloop
  endfacet
  facet normal -1 0 0
    outer loop
      vertex 0 0.245043 -1.86597
      vertex 0 0.245043 1.86597
      vertex 0 0.366826 1.85471
    endloop
  endfacet
  facet normal -1 0 0
    outer loop
      vertex 0 0.122669 -1.87274
      vertex 0 0.245043 1.86597
      vertex 0 0.245043 -1.86597
    endloop
  endfacet
  facet normal -1 0 0
    outer loop
      vertex 0 0.122669 -1.87274
      vertex 0 0.122669 1.87274
      vertex 0 0.245043 1.86597
    endloop
  endfacet
  facet normal -1 0 0
    outer loop
      vertex 0 0 -1.875
      vertex 0 0.122669 1.87274
      vertex 0 0.122669 -1.87274
    endloop
  endfacet
  facet normal -1 0 0
    outer loop
      vertex 0 0 -1.875
      vertex 0 0 1.875
      vertex 0 0.122669 1.87274
    endloop
  endfacet
  facet normal -1 0 0
    outer loop
      vertex 0 -0.122669 -1.87274
      vertex 0 0 1.875
      vertex 0 0 -1.875
    endloop
  endfacet
  facet normal -1 0 0
    outer loop
      vertex 0 -0.122669 -1.87274
      vertex 0 -0.122669 1.87274
      vertex 0 0 1.875
    endloop
  endfacet
  facet normal -1 0 0
    outer loop
      vertex 0 -0.245043 -1.86597
      vertex 0 -0.122669 1.87274
      vertex 0 -0.122669 -1.87274
    endloop
  endfacet
  facet normal -1 0 0
    outer loop
      vertex 0 -0.245043 -1.86597
      vertex 0 -0.245043 1.86597
      vertex 0 -0.122669 1.87274
    endloop
  endfacet
  facet normal -1 0 0
    outer loop
      vertex 0 -0.366826 -1.85471
      vertex 0 -0.245043 1.86597
      vertex 0 -0.245043 -1.86597
    endloop
  endfacet
  facet normal -1 0 0
    outer loop
      vertex 0 -0.366826 -1.85471
      vertex 0 -0.366826 1.85471
      vertex 0 -0.245043 1.86597
    endloop
  endfacet
  facet normal -1 0 0
    outer loop
      vertex 0 -0.487726 -1.83897
      vertex 0 -0.366826 1.85471
      vertex 0 -0.366826 -1.85471
    endloop
  endfacet
  facet normal -1 0 0
    outer loop
      vertex 0 -0.487726 -1.83897
      vertex 0 -0.487726 1.83897
      vertex 0 -0.366826 1.85471
    endloop
  endfacet
  facet normal -1 0 0
    outer loop
      vertex 0 -0.60745 -1.81881
      vertex 0 -0.487726 1.83897
      vertex 0 -0.487726 -1.83897
    endloop
  endfacet
  facet normal -1 0 0
    outer loop
      vertex 0 -0.60745 -1.81881
      vertex 0 -0.60745 1.81881
      vertex 0 -0.487726 1.83897
    endloop
  endfacet
  facet normal -1 0 0
    outer loop
      vertex 0 -0.725712 -1.79426
      vertex 0 -0.60745 1.81881
      vertex 0 -0.60745 -1.81881
    endloop
  endfacet
  facet normal -1 0 0
    outer loop
      vertex 0 -0.725712 -1.79426
      vertex 0 -0.725712 1.79426
      vertex 0 -0.60745 1.81881
    endloop
  endfacet
  facet normal -1 0 0
    outer loop
      vertex 0 -0.842225 -1.7654
      vertex 0 -0.725712 1.79426
      vertex 0 -0.725712 -1.79426
    endloop
  endfacet
  facet normal -1 0 0
    outer loop
      vertex 0 -0.842225 -1.7654
      vertex 0 -0.842225 1.7654
      vertex 0 -0.725712 1.79426
    endloop
  endfacet
  facet normal -1 0 0
    outer loop
      vertex 0 -0.956709 -1.73227
      vertex 0 -0.842225 1.7654
      vertex 0 -0.842225 -1.7654
    endloop
  endfacet
  facet normal -1 0 0
    outer loop
      vertex 0 -0.956709 -1.73227
      vertex 0 -0.956709 1.73227
      vertex 0 -0.842225 1.7654
    endloop
  endfacet
  facet normal -1 0 0
    outer loop
      vertex 0 -1.06889 -1.69498
      vertex 0 -0.956709 1.73227
      vertex 0 -0.956709 -1.73227
    endloop
  endfacet
  facet normal -1 0 0
    outer loop
      vertex 0 -1.06889 -1.69498
      vertex 0 -1.06889 1.69498
      vertex 0 -0.956709 1.73227
    endloop
  endfacet
  facet normal -1 0 0
    outer loop
      vertex 0 -1.17849 -1.6536
      vertex 0 -1.06889 1.69498
      vertex 0 -1.06889 -1.69498
    endloop
  endfacet
  facet normal -1 0 0
    outer loop
      vertex 0 -1.17849 -1.6536
      vertex 0 -1.17849 1.6536
      vertex 0 -1.06889 1.69498
    endloop
  endfacet
  facet normal -1 0 0
    outer loop
      vertex 0 -1.28526 -1.60824
      vertex 0 -1.17849 1.6536
      vertex 0 -1.17849 -1.6536
    endloop
  endfacet
  facet normal -1 0 0
    outer loop
      vertex 0 -1.28526 -1.60824
      vertex 0 -1.28526 1.60824
      vertex 0 -1.17849 1.6536
    endloop
  endfacet
  facet normal -1 0 0
    outer loop
      vertex 0 -1.38893 -1.55901
      vertex 0 -1.28526 1.60824
      vertex 0 -1.28526 -1.60824
    endloop
  endfacet
  facet normal -1 0 0
    outer loop
      vertex 0 -1.38893 -1.55901
      vertex 0 -1.38893 1.55901
      vertex 0 -1.28526 1.60824
    endloop
  endfacet
  facet normal -1 0 0
    outer loop
      vertex 0 -1.48925 -1.50601
      vertex 0 -1.38893 1.55901
      vertex 0 -1.38893 -1.55901
    endloop
  endfacet
  facet normal -1 0 0
    outer loop
      vertex 0 -1.48925 -1.50601
      vertex 0 -1.48925 1.50601
      vertex 0 -1.38893 1.55901
    endloop
  endfacet
  facet normal -1 0 0
    outer loop
      vertex 0 -1.58598 -1.44939
      vertex 0 -1.48925 1.50601
      vertex 0 -1.48925 -1.50601
    endloop
  endfacet
  facet normal -1 0 0
    outer loop
      vertex 0 -1.58598 -1.44939
      vertex 0 -1.58598 1.44939
      vertex 0 -1.48925 1.50601
    endloop
  endfacet
  facet normal -1 0 0
    outer loop
      vertex 0 -1.6789 -1.38928
      vertex 0 -1.58598 1.44939
      vertex 0 -1.58598 -1.44939
    endloop
  endfacet
  facet normal -1 0 0
    outer loop
      vertex 0 -1.6789 -1.38928
      vertex 0 -1.6789 1.38928
      vertex 0 -1.58598 1.44939
    endloop
  endfacet
  facet normal -1 0 0
    outer loop
      vertex 0 -1.76777 -1.32583
      vertex 0 -1.6789 1.38928
      vertex 0 -1.6789 -1.38928
    endloop
  endfacet
  facet normal -1 0 0
    outer loop
      vertex 0 -1.76777 -1.32583
      vertex 0 -1.76777 1.32583
      vertex 0 -1.6789 1.38928
    endloop
  endfacet
  facet normal -1 0 0
    outer loop
      vertex 0 -1.85238 -1.25917
      vertex 0 -1.76777 1.32583
      vertex 0 -1.76777 -1.32583
    endloop
  endfacet
  facet normal -1 0 0
    outer loop
      vertex 0 -1.85238 -1.25917
      vertex 0 -1.85238 1.25917
      vertex 0 -1.76777 1.32583
    endloop
  endfacet
  facet normal -1 0 0
    outer loop
      vertex 0 -1.93253 -1.18949
      vertex 0 -1.85238 1.25917
      vertex 0 -1.85238 -1.25917
    endloop
  endfacet
  facet normal -1 0 0
    outer loop
      vertex 0 -1.93253 -1.18949
      vertex 0 -1.93253 1.18949
      vertex 0 -1.85238 1.25917
    endloop
  endfacet
  facet normal -1 0 0
    outer loop
      vertex 0 -2.00802 -1.11694
      vertex 0 -1.93253 1.18949
      vertex 0 -1.93253 -1.18949
    endloop
  endfacet
  facet normal -1 0 0
    outer loop
      vertex 0 -2.00802 -1.11694
      vertex 0 -2.00802 1.11694
      vertex 0 -1.93253 1.18949
    endloop
  endfacet
  facet normal -1 0 0
    outer loop
      vertex 0 -2.07867 -1.04169
      vertex 0 -2.00802 1.11694
      vertex 0 -2.00802 -1.11694
    endloop
  endfacet
  facet normal -1 0 0
    outer loop
      vertex 0 -2.07867 -1.04169
      vertex 0 -2.07867 1.04169
      vertex 0 -2.00802 1.11694
    endloop
  endfacet
  facet normal -1 0 0
    outer loop
      vertex 0 -2.14432 -0.963943
      vertex 0 -2.07867 1.04169
      vertex 0 -2.07867 -1.04169
    endloop
  endfacet
  facet normal -1 0 0
    outer loop
      vertex 0 -2.14432 -0.963943
      vertex 0 -2.14432 0.963943
      vertex 0 -2.07867 1.04169
    endloop
  endfacet
  facet normal -1 0 0
    outer loop
      vertex 0 -2.2048 -0.883869
      vertex 0 -2.14432 0.963943
      vertex 0 -2.14432 -0.963943
    endloop
  endfacet
  facet normal -1 0 0
    outer loop
      vertex 0 -2.2048 -0.883869
      vertex 0 -2.2048 0.883869
      vertex 0 -2.14432 0.963943
    endloop
  endfacet
  facet normal -1 0 0
    outer loop
      vertex 0 -2.25997 -0.801666
      vertex 0 -2.2048 0.883869
      vertex 0 -2.2048 -0.883869
    endloop
  endfacet
  facet normal -1 0 0
    outer loop
      vertex 0 -2.25997 -0.801666
      vertex 0 -2.25997 0.801666
      vertex 0 -2.2048 0.883869
    endloop
  endfacet
  facet normal -1 0 0
    outer loop
      vertex 0 -2.3097 -0.717531
      vertex 0 -2.25997 0.801666
      vertex 0 -2.25997 -0.801666
    endloop
  endfacet
  facet normal -1 0 0
    outer loop
      vertex 0 -2.3097 -0.717531
      vertex 0 -2.3097 0.717531
      vertex 0 -2.25997 0.801666
    endloop
  endfacet
  facet normal -1 0 0
    outer loop
      vertex 0 -2.35386 -0.631668
      vertex 0 -2.3097 0.717531
      vertex 0 -2.3097 -0.717531
    endloop
  endfacet
  facet normal -1 0 0
    outer loop
      vertex 0 -2.35386 -0.631668
      vertex 0 -2.35386 0.631668
      vertex 0 -2.3097 0.717531
    endloop
  endfacet
  facet normal -1 0 0
    outer loop
      vertex 0 -2.39235 -0.544284
      vertex 0 -2.35386 0.631668
      vertex 0 -2.35386 -0.631668
    endloop
  endfacet
  facet normal -1 0 0
    outer loop
      vertex 0 -2.39235 -0.544284
      vertex 0 -2.39235 0.544284
      vertex 0 -2.35386 0.631668
    endloop
  endfacet
  facet normal -1 0 0
    outer loop
      vertex 0 -2.42508 -0.455588
      vertex 0 -2.39235 0.544284
      vertex 0 -2.39235 -0.544284
    endloop
  endfacet
  facet normal -1 0 0
    outer loop
      vertex 0 -2.42508 -0.455588
      vertex 0 -2.42508 0.455588
      vertex 0 -2.39235 0.544284
    endloop
  endfacet
  facet normal -1 0 0
    outer loop
      vertex 0 -2.45196 -0.365794
      vertex 0 -2.42508 0.455588
      vertex 0 -2.42508 -0.455588
    endloop
  endfacet
  facet normal -1 0 0
    outer loop
      vertex 0 -2.45196 -0.365794
      vertex 0 -2.45196 0.365794
      vertex 0 -2.42508 0.455588
    endloop
  endfacet
  facet normal -1 0 0
    outer loop
      vertex 0 -2.47294 -0.27512
      vertex 0 -2.45196 0.365794
      vertex 0 -2.45196 -0.365794
    endloop
  endfacet
  facet normal -1 0 0
    outer loop
      vertex 0 -2.47294 -0.27512
      vertex 0 -2.47294 0.27512
      vertex 0 -2.45196 0.365794
    endloop
  endfacet
  facet normal -1 0 0
    outer loop
      vertex 0 -2.48796 -0.183782
      vertex 0 -2.47294 0.27512
      vertex 0 -2.47294 -0.27512
    endloop
  endfacet
  facet normal -1 0 0
    outer loop
      vertex 0 -2.48796 -0.183782
      vertex 0 -2.48796 0.183782
      vertex 0 -2.47294 0.27512
    endloop
  endfacet
  facet normal -1 0 0
    outer loop
      vertex 0 -2.49699 -0.0920019
      vertex 0 -2.48796 0.183782
      vertex 0 -2.48796 -0.183782
    endloop
  endfacet
  facet normal -1 0 0
    outer loop
      vertex 0 -2.49699 -0.0920019
      vertex 0 -2.49699 0.0920019
      vertex 0 -2.48796 0.183782
    endloop
  endfacet
  facet normal -1 0 -0
    outer loop
      vertex 0 -2.49699 0.0920019
      vertex 0 -2.49699 -0.0920019
      vertex 0 -2.5 0
    endloop
  endfacet
  facet normal 1 0 0
    outer loop
      vertex 24 2.49699 0.0920019
      vertex 24 2.49699 -0.0920019
      vertex 24 2.5 0
    endloop
  endfacet
  facet normal 1 0 0
    outer loop
      vertex 24 2.48796 0.183782
      vertex 24 2.49699 -0.0920019
      vertex 24 2.49699 0.0920019
    endloop
  endfacet
  facet normal 1 0 0
    outer loop
      vertex 24 2.48796 0.183782
      vertex 24 2.48796 -0.183782
      vertex 24 2.49699 -0.0920019
    endloop
  endfacet
  facet normal 1 0 0
    outer loop
      vertex 24 2.47294 0.27512
      vertex 24 2.48796 -0.183782
      vertex 24 2.48796 0.183782
    endloop
  endfacet
  facet normal 1 0 0
    outer loop
      vertex 24 2.47294 0.27512
      vertex 24 2.47294 -0.27512
      vertex 24 2.48796 -0.183782
    endloop
  endfacet
  facet normal 1 0 0
    outer loop
      vertex 24 2.45196 0.365794
      vertex 24 2.47294 -0.27512
      vertex 24 2.47294 0.27512
    endloop
  endfacet
  facet normal 1 0 0
    outer loop
      vertex 24 2.45196 0.365794
      vertex 24 2.45196 -0.365794
      vertex 24 2.47294 -0.27512
    endloop
  endfacet
  facet normal 1 0 0
    outer loop
      vertex 24 2.42508 0.455588
      vertex 24 2.45196 -0.365794
      vertex 24 2.45196 0.365794
    endloop
  endfacet
  facet normal 1 0 0
    outer loop
      vertex 24 2.42508 0.455588
      vertex 24 2.42508 -0.455588
      vertex 24 2.45196 -0.365794
    endloop
  endfacet
  facet normal 1 0 0
    outer loop
      vertex 24 2.39235 0.544284
      vertex 24 2.42508 -0.455588
      vertex 24 2.42508 0.455588
    endloop
  endfacet
  facet normal 1 0 0
    outer loop
      vertex 24 2.39235 0.544284
      vertex 24 2.39235 -0.544284
      vertex 24 2.42508 -0.455588
    endloop
  endfacet
  facet normal 1 0 0
    outer loop
      vertex 24 2.35386 0.631668
      vertex 24 2.39235 -0.544284
      vertex 24 2.39235 0.544284
    endloop
  endfacet
  facet normal 1 0 0
    outer loop
      vertex 24 2.35386 0.631668
      vertex 24 2.35386 -0.631668
      vertex 24 2.39235 -0.544284
    endloop
  endfacet
  facet normal 1 0 0
    outer loop
      vertex 24 2.3097 0.717531
      vertex 24 2.35386 -0.631668
      vertex 24 2.35386 0.631668
    endloop
  endfacet
  facet normal 1 0 0
    outer loop
      vertex 24 2.3097 0.717531
      vertex 24 2.3097 -0.717531
      vertex 24 2.35386 -0.631668
    endloop
  endfacet
  facet normal 1 0 0
    outer loop
      vertex 24 2.25997 0.801666
      vertex 24 2.3097 -0.717531
      vertex 24 2.3097 0.717531
    endloop
  endfacet
  facet normal 1 0 0
    outer loop
      vertex 24 2.25997 0.801666
      vertex 24 2.25997 -0.801666
      vertex 24 2.3097 -0.717531
    endloop
  endfacet
  facet normal 1 0 0
    outer loop
      vertex 24 2.2048 0.883869
      vertex 24 2.25997 -0.801666
      vertex 24 2.25997 0.801666
    endloop
  endfacet
  facet normal 1 0 0
    outer loop
      vertex 24 2.2048 0.883869
      vertex 24 2.2048 -0.883869
      vertex 24 2.25997 -0.801666
    endloop
  endfacet
  facet normal 1 0 0
    outer loop
      vertex 24 2.14432 0.963943
      vertex 24 2.2048 -0.883869
      vertex 24 2.2048 0.883869
    endloop
  endfacet
  facet normal 1 0 0
    outer loop
      vertex 24 2.14432 0.963943
      vertex 24 2.14432 -0.963943
      vertex 24 2.2048 -0.883869
    endloop
  endfacet
  facet normal 1 0 0
    outer loop
      vertex 24 2.07867 1.04169
      vertex 24 2.14432 -0.963943
      vertex 24 2.14432 0.963943
    endloop
  endfacet
  facet normal 1 0 0
    outer loop
      vertex 24 2.07867 1.04169
      vertex 24 2.07867 -1.04169
      vertex 24 2.14432 -0.963943
    endloop
  endfacet
  facet normal 1 0 0
    outer loop
      vertex 24 2.00802 1.11694
      vertex 24 2.07867 -1.04169
      vertex 24 2.07867 1.04169
    endloop
  endfacet
  facet normal 1 0 0
    outer loop
      vertex 24 2.00802 1.11694
      vertex 24 2.00802 -1.11694
      vertex 24 2.07867 -1.04169
    endloop
  endfacet
  facet normal 1 0 0
    outer loop
      vertex 24 1.93253 1.18949
      vertex 24 2.00802 -1.11694
      vertex 24 2.00802 1.11694
    endloop
  endfacet
  facet normal 1 0 0
    outer loop
      vertex 24 1.93253 1.18949
      vertex 24 1.93253 -1.18949
      vertex 24 2.00802 -1.11694
    endloop
  endfacet
  facet normal 1 0 0
    outer loop
      vertex 24 1.85238 1.25917
      vertex 24 1.93253 -1.18949
      vertex 24 1.93253 1.18949
    endloop
  endfacet
  facet normal 1 0 0
    outer loop
      vertex 24 1.85238 1.25917
      vertex 24 1.85238 -1.25917
      vertex 24 1.93253 -1.18949
    endloop
  endfacet
  facet normal 1 0 0
    outer loop
      vertex 24 1.76777 1.32583
      vertex 24 1.85238 -1.25917
      vertex 24 1.85238 1.25917
    endloop
  endfacet
  facet normal 1 0 0
    outer loop
      vertex 24 1.76777 1.32583
      vertex 24 1.76777 -1.32583
      vertex 24 1.85238 -1.25917
    endloop
  endfacet
  facet normal 1 0 0
    outer loop
      vertex 24 1.6789 1.38928
      vertex 24 1.76777 -1.32583
      vertex 24 1.76777 1.32583
    endloop
  endfacet
  facet normal 1 0 0
    outer loop
      vertex 24 1.6789 1.38928
      vertex 24 1.6789 -1.38928
      vertex 24 1.76777 -1.32583
    endloop
  endfacet
  facet normal 1 0 0
    outer loop
      vertex 24 1.58598 1.44939
      vertex 24 1.6789 -1.38928
      vertex 24 1.6789 1.38928
    endloop
  endfacet
  facet normal 1 0 0
    outer loop
      vertex 24 1.58598 1.44939
      vertex 24 1.58598 -1.44939
      vertex 24 1.6789 -1.38928
    endloop
  endfacet
  facet normal 1 0 0
    outer loop
      vertex 24 1.48925 1.50601
      vertex 24 1.58598 -1.44939
      vertex 24 1.58598 1.44939
    endloop
  endfacet
  facet normal 1 0 0
    outer loop
      vertex 24 1.48925 1.50601
      vertex 24 1.48925 -1.50601
      vertex 24 1.58598 -1.44939
    endloop
  endfacet
  facet normal 1 0 0
    outer loop
      vertex 24 1.38893 1.55901
      vertex 24 1.48925 -1.50601
      vertex 24 1.48925 1.50601
    endloop
  endfacet
  facet normal 1 0 0
    outer loop
      vertex 24 1.38893 1.55901
      vertex 24 1.38893 -1.55901
      vertex 24 1.48925 -1.50601
    endloop
  endfacet
  facet normal 1 0 0
    outer loop
      vertex 24 1.28526 1.60824
      vertex 24 1.38893 -1.55901
      vertex 24 1.38893 1.55901
    endloop
  endfacet
  facet normal 1 0 0
    outer loop
      vertex 24 1.28526 1.60824
      vertex 24 1.28526 -1.60824
      vertex 24 1.38893 -1.55901
    endloop
  endfacet
  facet normal 1 0 0
    outer loop
      vertex 24 1.17849 1.6536
      vertex 24 1.28526 -1.60824
      vertex 24 1.28526 1.60824
    endloop
  endfacet
  facet normal 1 0 0
    outer loop
      vertex 24 1.17849 1.6536
      vertex 24 1.17849 -1.6536
      vertex 24 1.28526 -1.60824
    endloop
  endfacet
  facet normal 1 0 0
    outer loop
      vertex 24 1.06889 1.69498
      vertex 24 1.17849 -1.6536
      vertex 24 1.17849 1.6536
    endloop
  endfacet
  facet normal 1 0 0
    outer loop
      vertex 24 1.06889 1.69498
      vertex 24 1.06889 -1.69498
      vertex 24 1.17849 -1.6536
    endloop
  endfacet
  facet normal 1 0 0
    outer loop
      vertex 24 0.956709 1.73227
      vertex 24 1.06889 -1.69498
      vertex 24 1.06889 1.69498
    endloop
  endfacet
  facet normal 1 0 0
    outer loop
      vertex 24 0.956709 1.73227
      vertex 24 0.956709 -1.73227
      vertex 24 1.06889 -1.69498
    endloop
  endfacet
  facet normal 1 0 0
    outer loop
      vertex 24 0.842225 1.7654
      vertex 24 0.956709 -1.73227
      vertex 24 0.956709 1.73227
    endloop
  endfacet
  facet normal 1 0 0
    outer loop
      vertex 24 0.842225 1.7654
      vertex 24 0.842225 -1.7654
      vertex 24 0.956709 -1.73227
    endloop
  endfacet
  facet normal 1 0 0
    outer loop
      vertex 24 0.725712 1.79426
      vertex 24 0.842225 -1.7654
      vertex 24 0.842225 1.7654
    endloop
  endfacet
  facet normal 1 0 0
    outer loop
      vertex 24 0.725712 1.79426
      vertex 24 0.725712 -1.79426
      vertex 24 0.842225 -1.7654
    endloop
  endfacet
  facet normal 1 0 0
    outer loop
      vertex 24 0.60745 1.81881
      vertex 24 0.725712 -1.79426
      vertex 24 0.725712 1.79426
    endloop
  endfacet
  facet normal 1 0 0
    outer loop
      vertex 24 0.60745 1.81881
      vertex 24 0.60745 -1.81881
      vertex 24 0.725712 -1.79426
    endloop
  endfacet
  facet normal 1 0 0
    outer loop
      vertex 24 0.487726 1.83897
      vertex 24 0.60745 -1.81881
      vertex 24 0.60745 1.81881
    endloop
  endfacet
  facet normal 1 0 0
    outer loop
      vertex 24 0.487726 1.83897
      vertex 24 0.487726 -1.83897
      vertex 24 0.60745 -1.81881
    endloop
  endfacet
  facet normal 1 0 0
    outer loop
      vertex 24 0.366826 1.85471
      vertex 24 0.487726 -1.83897
      vertex 24 0.487726 1.83897
    endloop
  endfacet
  facet normal 1 0 0
    outer loop
      vertex 24 0.366826 1.85471
      vertex 24 0.366826 -1.85471
      vertex 24 0.487726 -1.83897
    endloop
  endfacet
  facet normal 1 0 0
    outer loop
      vertex 24 0.245043 1.86597
      vertex 24 0.366826 -1.85471
      vertex 24 0.366826 1.85471
    endloop
  endfacet
  facet normal 1 0 0
    outer loop
      vertex 24 0.245043 1.86597
      vertex 24 0.245043 -1.86597
      vertex 24 0.366826 -1.85471
    endloop
  endfacet
  facet normal 1 0 0
    outer loop
      vertex 24 0.122669 1.87274
      vertex 24 0.245043 -1.86597
      vertex 24 0.245043 1.86597
    endloop
  endfacet
  facet normal 1 0 0
    outer loop
      vertex 24 0.122669 1.87274
      vertex 24 0.122669 -1.87274
      vertex 24 0.245043 -1.86597
    endloop
  endfacet
  facet normal 1 0 0
    outer loop
      vertex 24 0 1.875
      vertex 24 0.122669 -1.87274
      vertex 24 0.122669 1.87274
    endloop
  endfacet
  facet normal 1 0 0
    outer loop
      vertex 24 0 1.875
      vertex 24 0 -1.875
      vertex 24 0.122669 -1.87274
    endloop
  endfacet
  facet normal 1 -0 0
    outer loop
      vertex 24 -0.122669 1.87274
      vertex 24 0 -1.875
      vertex 24 0 1.875
    endloop
  endfacet
  facet normal 1 0 0
    outer loop
      vertex 24 -0.122669 1.87274
      vertex 24 -0.122669 -1.87274
      vertex 24 0 -1.875
    endloop
  endfacet
  facet normal 1 -0 0
    outer loop
      vertex 24 -0.245043 1.86597
      vertex 24 -0.122669 -1.87274
      vertex 24 -0.122669 1.87274
    endloop
  endfacet
  facet normal 1 0 0
    outer loop
      vertex 24 -0.245043 1.86597
      vertex 24 -0.245043 -1.86597
      vertex 24 -0.122669 -1.87274
    endloop
  endfacet
  facet normal 1 -0 0
    outer loop
      vertex 24 -0.366826 1.85471
      vertex 24 -0.245043 -1.86597
      vertex 24 -0.245043 1.86597
    endloop
  endfacet
  facet normal 1 0 0
    outer loop
      vertex 24 -0.366826 1.85471
      vertex 24 -0.366826 -1.85471
      vertex 24 -0.245043 -1.86597
    endloop
  endfacet
  facet normal 1 -0 0
    outer loop
      vertex 24 -0.487726 1.83897
      vertex 24 -0.366826 -1.85471
      vertex 24 -0.366826 1.85471
    endloop
  endfacet
  facet normal 1 0 0
    outer loop
      vertex 24 -0.487726 1.83897
      vertex 24 -0.487726 -1.83897
      vertex 24 -0.366826 -1.85471
    endloop
  endfacet
  facet normal 1 -0 0
    outer loop
      vertex 24 -0.60745 1.81881
      vertex 24 -0.487726 -1.83897
      vertex 24 -0.487726 1.83897
    endloop
  endfacet
  facet normal 1 0 0
    outer loop
      vertex 24 -0.60745 1.81881
      vertex 24 -0.60745 -1.81881
      vertex 24 -0.487726 -1.83897
    endloop
  endfacet
  facet normal 1 -0 0
    outer loop
      vertex 24 -0.725712 1.79426
      vertex 24 -0.60745 -1.81881
      vertex 24 -0.60745 1.81881
    endloop
  endfacet
  facet normal 1 0 0
    outer loop
      vertex 24 -0.725712 1.79426
      vertex 24 -0.725712 -1.79426
      vertex 24 -0.60745 -1.81881
    endloop
  endfacet
  facet normal 1 -0 0
    outer loop
      vertex 24 -0.842225 1.7654
      vertex 24 -0.725712 -1.79426
      vertex 24 -0.725712 1.79426
    endloop
  endfacet
  facet normal 1 0 0
    outer loop
      vertex 24 -0.842225 1.7654
      vertex 24 -0.842225 -1.7654
      vertex 24 -0.725712 -1.79426
    endloop
  endfacet
  facet normal 1 -0 0
    outer loop
      vertex 24 -0.956709 1.73227
      vertex 24 -0.842225 -1.7654
      vertex 24 -0.842225 1.7654
    endloop
  endfacet
  facet normal 1 0 0
    outer loop
      vertex 24 -0.956709 1.73227
      vertex 24 -0.956709 -1.73227
      vertex 24 -0.842225 -1.7654
    endloop
  endfacet
  facet normal 1 -0 0
    outer loop
      vertex 24 -1.06889 1.69498
      vertex 24 -0.956709 -1.73227
      vertex 24 -0.956709 1.73227
    endloop
  endfacet
  facet normal 1 0 0
    outer loop
      vertex 24 -1.06889 1.69498
      vertex 24 -1.06889 -1.69498
      vertex 24 -0.956709 -1.73227
    endloop
  endfacet
  facet normal 1 -0 0
    outer loop
      vertex 24 -1.17849 1.6536
      vertex 24 -1.06889 -1.69498
      vertex 24 -1.06889 1.69498
    endloop
  endfacet
  facet normal 1 0 0
    outer loop
      vertex 24 -1.17849 1.6536
      vertex 24 -1.17849 -1.6536
      vertex 24 -1.06889 -1.69498
    endloop
  endfacet
  facet normal 1 -0 0
    outer loop
      vertex 24 -1.28526 1.60824
      vertex 24 -1.17849 -1.6536
      vertex 24 -1.17849 1.6536
    endloop
  endfacet
  facet normal 1 0 0
    outer loop
      vertex 24 -1.28526 1.60824
      vertex 24 -1.28526 -1.60824
      vertex 24 -1.17849 -1.6536
    endloop
  endfacet
  facet normal 1 -0 0
    outer loop
      vertex 24 -1.38893 1.55901
      vertex 24 -1.28526 -1.60824
      vertex 24 -1.28526 1.60824
    endloop
  endfacet
  facet normal 1 0 0
    outer loop
      vertex 24 -1.38893 1.55901
      vertex 24 -1.38893 -1.55901
      vertex 24 -1.28526 -1.60824
    endloop
  endfacet
  facet normal 1 -0 0
    outer loop
      vertex 24 -1.48925 1.50601
      vertex 24 -1.38893 -1.55901
      vertex 24 -1.38893 1.55901
    endloop
  endfacet
  facet normal 1 0 0
    outer loop
      vertex 24 -1.48925 1.50601
      vertex 24 -1.48925 -1.50601
      vertex 24 -1.38893 -1.55901
    endloop
  endfacet
  facet normal 1 -0 0
    outer loop
      vertex 24 -1.58598 1.44939
      vertex 24 -1.48925 -1.50601
      vertex 24 -1.48925 1.50601
    endloop
  endfacet
  facet normal 1 0 0
    outer loop
      vertex 24 -1.58598 1.44939
      vertex 24 -1.58598 -1.44939
      vertex 24 -1.48925 -1.50601
    endloop
  endfacet
  facet normal 1 -0 0
    outer loop
      vertex 24 -1.6789 1.38928
      vertex 24 -1.58598 -1.44939
      vertex 24 -1.58598 1.44939
    endloop
  endfacet
  facet normal 1 0 0
    outer loop
      vertex 24 -1.6789 1.38928
      vertex 24 -1.6789 -1.38928
      vertex 24 -1.58598 -1.44939
    endloop
  endfacet
  facet normal 1 -0 0
    outer loop
      vertex 24 -1.76777 1.32583
      vertex 24 -1.6789 -1.38928
      vertex 24 -1.6789 1.38928
    endloop
  endfacet
  facet normal 1 0 0
    outer loop
      vertex 24 -1.76777 1.32583
      vertex 24 -1.76777 -1.32583
      vertex 24 -1.6789 -1.38928
    endloop
  endfacet
  facet normal 1 -0 0
    outer loop
      vertex 24 -1.85238 1.25917
      vertex 24 -1.76777 -1.32583
      vertex 24 -1.76777 1.32583
    endloop
  endfacet
  facet normal 1 0 0
    outer loop
      vertex 24 -1.85238 1.25917
      vertex 24 -1.85238 -1.25917
      vertex 24 -1.76777 -1.32583
    endloop
  endfacet
  facet normal 1 -0 0
    outer loop
      vertex 24 -1.93253 1.18949
      vertex 24 -1.85238 -1.25917
      vertex 24 -1.85238 1.25917
    endloop
  endfacet
  facet normal 1 0 0
    outer loop
      vertex 24 -1.93253 1.18949
      vertex 24 -1.93253 -1.18949
      vertex 24 -1.85238 -1.25917
    endloop
  endfacet
  facet normal 1 -0 0
    outer loop
      vertex 24 -2.00802 1.11694
      vertex 24 -1.93253 -1.18949
      vertex 24 -1.93253 1.18949
    endloop
  endfacet
  facet normal 1 0 0
    outer loop
      vertex 24 -2.00802 1.11694
      vertex 24 -2.00802 -1.11694
      vertex 24 -1.93253 -1.18949
    endloop
  endfacet
  facet normal 1 -0 0
    outer loop
      vertex 24 -2.07867 1.04169
      vertex 24 -2.00802 -1.11694
      vertex 24 -2.00802 1.11694
    endloop
  endfacet
  facet normal 1 0 0
    outer loop
      vertex 24 -2.07867 1.04169
      vertex 24 -2.07867 -1.04169
      vertex 24 -2.00802 -1.11694
    endloop
  endfacet
  facet normal 1 -0 0
    outer loop
      vertex 24 -2.14432 0.963943
      vertex 24 -2.07867 -1.04169
      vertex 24 -2.07867 1.04169
    endloop
  endfacet
  facet normal 1 0 0
    outer loop
      vertex 24 -2.14432 0.963943
      vertex 24 -2.14432 -0.963943
      vertex 24 -2.07867 -1.04169
    endloop
  endfacet
  facet normal 1 -0 0
    outer loop
      vertex 24 -2.2048 0.883869
      vertex 24 -2.14432 -0.963943
      vertex 24 -2.14432 0.963943
    endloop
  endfacet
  facet normal 1 0 0
    outer loop
      vertex 24 -2.2048 0.883869
      vertex 24 -2.2048 -0.883869
      vertex 24 -2.14432 -0.963943
    endloop
  endfacet
  facet normal 1 -0 0
    outer loop
      vertex 24 -2.25997 0.801666
      vertex 24 -2.2048 -0.883869
      vertex 24 -2.2048 0.883869
    endloop
  endfacet
  facet normal 1 0 0
    outer loop
      vertex 24 -2.25997 0.801666
      vertex 24 -2.25997 -0.801666
      vertex 24 -2.2048 -0.883869
    endloop
  endfacet
  facet normal 1 -0 0
    outer loop
      vertex 24 -2.3097 0.717531
      vertex 24 -2.25997 -0.801666
      vertex 24 -2.25997 0.801666
    endloop
  endfacet
  facet normal 1 0 0
    outer loop
      vertex 24 -2.3097 0.717531
      vertex 24 -2.3097 -0.717531
      vertex 24 -2.25997 -0.801666
    endloop
  endfacet
  facet normal 1 -0 0
    outer loop
      vertex 24 -2.35386 0.631668
      vertex 24 -2.3097 -0.717531
      vertex 24 -2.3097 0.717531
    endloop
  endfacet
  facet normal 1 0 0
    outer loop
      vertex 24 -2.35386 0.631668
      vertex 24 -2.35386 -0.631668
      vertex 24 -2.3097 -0.717531
    endloop
  endfacet
  facet normal 1 -0 0
    outer loop
      vertex 24 -2.39235 0.544284
      vertex 24 -2.35386 -0.631668
      vertex 24 -2.35386 0.631668
    endloop
  endfacet
  facet normal 1 0 0
    outer loop
      vertex 24 -2.39235 0.544284
      vertex 24 -2.39235 -0.544284
      vertex 24 -2.35386 -0.631668
    endloop
  endfacet
  facet normal 1 -0 0
    outer loop
      vertex 24 -2.42508 0.455588
      vertex 24 -2.39235 -0.544284
      vertex 24 -2.39235 0.544284
    endloop
  endfacet
  facet normal 1 0 0
    outer loop
      vertex 24 -2.42508 0.455588
      vertex 24 -2.42508 -0.455588
      vertex 24 -2.39235 -0.544284
    endloop
  endfacet
  facet normal 1 -0 0
    outer loop
      vertex 24 -2.45196 0.365794
      vertex 24 -2.42508 -0.455588
      vertex 24 -2.42508 0.455588
    endloop
  endfacet
  facet normal 1 0 0
    outer loop
      vertex 24 -2.45196 0.365794
      vertex 24 -2.45196 -0.365794
      vertex 24 -2.42508 -0.455588
    endloop
  endfacet
  facet normal 1 -0 0
    outer loop
      vertex 24 -2.47294 0.27512
      vertex 24 -2.45196 -0.365794
      vertex 24 -2.45196 0.365794
    endloop
  endfacet
  facet normal 1 0 0
    outer loop
      vertex 24 -2.47294 0.27512
      vertex 24 -2.47294 -0.27512
      vertex 24 -2.45196 -0.365794
    endloop
  endfacet
  facet normal 1 -0 0
    outer loop
      vertex 24 -2.48796 0.183782
      vertex 24 -2.47294 -0.27512
      vertex 24 -2.47294 0.27512
    endloop
  endfacet
  facet normal 1 0 0
    outer loop
      vertex 24 -2.48796 0.183782
      vertex 24 -2.48796 -0.183782
      vertex 24 -2.47294 -0.27512
    endloop
  endfacet
  facet normal 1 -0 0
    outer loop
      vertex 24 -2.49699 0.0920019
      vertex 24 -2.48796 -0.183782
      vertex 24 -2.48796 0.183782
    endloop
  endfacet
  facet normal 1 0 0
    outer loop
      vertex 24 -2.49699 0.0920019
      vertex 24 -2.49699 -0.0920019
      vertex 24 -2.48796 -0.183782
    endloop
  endfacet
  facet normal 1 0 -0
    outer loop
      vertex 24 -2.49699 -0.0920019
      vertex 24 -2.49699 0.0920019
      vertex 24 -2.5 0
    endloop
  endfacet
endsolid OpenSCAD_Model
