solid OpenSCAD_Model
  facet normal -0.258822 -0.965925 0
    outer loop
      vertex 26.0222 22.7646 0
      vertex 50 16.3397 5
      vertex 26.0222 22.7646 5
    endloop
  endfacet
  facet normal -0.258822 -0.965925 -0
    outer loop
      vertex 50 16.3397 5
      vertex 26.0222 22.7646 0
      vertex 50 16.3397 0
    endloop
  endfacet
  facet normal -0.25882 0.965925 0
    outer loop
      vertex 50 13.6603 0
      vertex 26.0222 7.23543 5
      vertex 50 13.6603 5
    endloop
  endfacet
  facet normal -0.25882 0.965925 0
    outer loop
      vertex 26.0222 7.23543 5
      vertex 50 13.6603 0
      vertex 26.0222 7.23543 0
    endloop
  endfacet
  facet normal 1 -0 0
    outer loop
      vertex 26.0222 7.23543 5
      vertex 26.0222 22.7646 0
      vertex 26.0222 22.7646 5
    endloop
  endfacet
  facet normal 1 0 0
    outer loop
      vertex 26.0222 22.7646 0
      vertex 26.0222 7.23543 5
      vertex 26.0222 7.23543 0
    endloop
  endfacet
  facet normal -1 0 0
    outer loop
      vertex 20 9 0
      vertex 20 21 5
      vertex 20 21 0
    endloop
  endfacet
  facet normal -1 -0 0
    outer loop
      vertex 20 21 5
      vertex 20 9 0
      vertex 20 9 5
    endloop
  endfacet
  facet normal 0.5 0.866025 -0
    outer loop
      vertex 20 9 0
      vertex 9.6077 15 5
      vertex 20 9 5
    endloop
  endfacet
  facet normal 0.5 0.866025 0
    outer loop
      vertex 9.6077 15 5
      vertex 20 9 0
      vertex 9.6077 15 0
    endloop
  endfacet
  facet normal 0.5 -0.866025 0
    outer loop
      vertex 9.6077 15 0
      vertex 20 21 5
      vertex 9.6077 15 5
    endloop
  endfacet
  facet normal 0.5 -0.866025 0
    outer loop
      vertex 20 21 5
      vertex 9.6077 15 0
      vertex 20 21 0
    endloop
  endfacet
  facet normal 1 -0 0
    outer loop
      vertex 50 16.3397 5
      vertex 50 20.0919 0
      vertex 50 20.0919 5
    endloop
  endfacet
  facet normal 1 0 0
    outer loop
      vertex 50 20.0919 0
      vertex 50 16.3397 5
      vertex 50 16.3397 0
    endloop
  endfacet
  facet normal 1 -0 0
    outer loop
      vertex 50 8.90809 5
      vertex 50 13.6603 0
      vertex 50 13.6603 5
    endloop
  endfacet
  facet normal 1 0 0
    outer loop
      vertex 50 13.6603 0
      vertex 50 8.90809 5
      vertex 50 8.90809 0
    endloop
  endfacet
  facet normal 0 0 1
    outer loop
      vertex 6 18.4641 5
      vertex 24.8092 29.2606 5
      vertex 24.8383 29.3404 5
    endloop
  endfacet
  facet normal 0 0 1
    outer loop
      vertex 24.8092 29.2606 5
      vertex 6 18.4641 5
      vertex 20 21 5
    endloop
  endfacet
  facet normal 0 0 1
    outer loop
      vertex 20 21 5
      vertex 6 18.4641 5
      vertex 9.6077 15 5
    endloop
  endfacet
  facet normal -0 0 1
    outer loop
      vertex 20 9 5
      vertex 26.0222 7.23543 5
      vertex 26.0222 22.7646 5
    endloop
  endfacet
  facet normal 0 0 1
    outer loop
      vertex 26.0222 7.23543 5
      vertex 50 8.90809 5
      vertex 50 13.6603 5
    endloop
  endfacet
  facet normal -0 0 1
    outer loop
      vertex 26.0222 7.23543 5
      vertex 25.8046 0.101693 5
      vertex 50 8.90809 5
    endloop
  endfacet
  facet normal 0 0 1
    outer loop
      vertex 50 20.0919 5
      vertex 26.0222 22.7646 5
      vertex 50 16.3397 5
    endloop
  endfacet
  facet normal 0 0 1
    outer loop
      vertex 24.8092 29.2606 5
      vertex 26.0222 22.7646 5
      vertex 50 20.0919 5
    endloop
  endfacet
  facet normal 0 0 1
    outer loop
      vertex 20 21 5
      vertex 26.0222 22.7646 5
      vertex 24.8092 29.2606 5
    endloop
  endfacet
  facet normal 0 0 1
    outer loop
      vertex 20 9 5
      vertex 26.0222 22.7646 5
      vertex 20 21 5
    endloop
  endfacet
  facet normal 0 0 1
    outer loop
      vertex 26.0222 7.23543 5
      vertex 20 9 5
      vertex 25.8046 0.101693 5
    endloop
  endfacet
  facet normal -0 0 1
    outer loop
      vertex 6 11.5359 5
      vertex 20 9 5
      vertex 9.6077 15 5
    endloop
  endfacet
  facet normal 0 0 1
    outer loop
      vertex 20 9 5
      vertex 6 11.5359 5
      vertex 25.8046 0.101693 5
    endloop
  endfacet
  facet normal 0 0 1
    outer loop
      vertex 6 11.5359 5
      vertex 9.6077 15 5
      vertex 6 18.4641 5
    endloop
  endfacet
  facet normal -0 0 -1
    outer loop
      vertex 50 8.90809 0
      vertex 26.0222 7.23543 0
      vertex 50 13.6603 0
    endloop
  endfacet
  facet normal 0 0 -1
    outer loop
      vertex 20 9 0
      vertex 26.0222 7.23543 0
      vertex 25.8046 0.101693 0
    endloop
  endfacet
  facet normal 0 0 -1
    outer loop
      vertex 25.8046 0.101693 0
      vertex 26.0222 7.23543 0
      vertex 50 8.90809 0
    endloop
  endfacet
  facet normal 0 0 -1
    outer loop
      vertex 26.0222 22.7646 0
      vertex 50 20.0919 0
      vertex 50 16.3397 0
    endloop
  endfacet
  facet normal 0 0 -1
    outer loop
      vertex 26.0222 22.7646 0
      vertex 24.8092 29.2606 0
      vertex 50 20.0919 0
    endloop
  endfacet
  facet normal 0 0 -1
    outer loop
      vertex 26.0222 7.23543 0
      vertex 20 9 0
      vertex 26.0222 22.7646 0
    endloop
  endfacet
  facet normal 0 0 -1
    outer loop
      vertex 26.0222 22.7646 0
      vertex 20 9 0
      vertex 20 21 0
    endloop
  endfacet
  facet normal 0 0 -1
    outer loop
      vertex 6 11.5359 0
      vertex 20 9 0
      vertex 25.8046 0.101693 0
    endloop
  endfacet
  facet normal 0 0 -1
    outer loop
      vertex 20 9 0
      vertex 6 11.5359 0
      vertex 9.6077 15 0
    endloop
  endfacet
  facet normal -0 0 -1
    outer loop
      vertex 26.0222 22.7646 0
      vertex 20 21 0
      vertex 24.8092 29.2606 0
    endloop
  endfacet
  facet normal 0 0 -1
    outer loop
      vertex 6 18.4641 0
      vertex 24.8092 29.2606 0
      vertex 20 21 0
    endloop
  endfacet
  facet normal 0 0 -1
    outer loop
      vertex 6 18.4641 0
      vertex 20 21 0
      vertex 9.6077 15 0
    endloop
  endfacet
  facet normal -0 0 -1
    outer loop
      vertex 24.8092 29.2606 0
      vertex 6 18.4641 0
      vertex 24.8383 29.3404 0
    endloop
  endfacet
  facet normal 0 0 -1
    outer loop
      vertex 6 18.4641 0
      vertex 9.6077 15 0
      vertex 6 11.5359 0
    endloop
  endfacet
  facet normal -0.5 0.866025 0
    outer loop
      vertex 24.8383 29.3404 0
      vertex 6 18.4641 5
      vertex 24.8383 29.3404 5
    endloop
  endfacet
  facet normal -0.5 0.866025 0
    outer loop
      vertex 6 18.4641 5
      vertex 24.8383 29.3404 0
      vertex 6 18.4641 0
    endloop
  endfacet
  facet normal -0.500001 -0.866025 0
    outer loop
      vertex 6 11.5359 0
      vertex 25.8046 0.101693 5
      vertex 6 11.5359 5
    endloop
  endfacet
  facet normal -0.500001 -0.866025 -0
    outer loop
      vertex 25.8046 0.101693 5
      vertex 6 11.5359 0
      vertex 25.8046 0.101693 0
    endloop
  endfacet
  facet normal -1 0 0
    outer loop
      vertex 6 11.5359 0
      vertex 6 18.4641 5
      vertex 6 18.4641 0
    endloop
  endfacet
  facet normal -1 -0 0
    outer loop
      vertex 6 18.4641 5
      vertex 6 11.5359 0
      vertex 6 11.5359 5
    endloop
  endfacet
  facet normal 0.34202 0.939693 -0
    outer loop
      vertex 50 20.0919 0
      vertex 24.8092 29.2606 5
      vertex 50 20.0919 5
    endloop
  endfacet
  facet normal 0.34202 0.939693 0
    outer loop
      vertex 24.8092 29.2606 5
      vertex 50 20.0919 0
      vertex 24.8092 29.2606 0
    endloop
  endfacet
  facet normal 0.939484 -0.342594 0
    outer loop
      vertex 24.8092 29.2606 5
      vertex 24.8383 29.3404 0
      vertex 24.8383 29.3404 5
    endloop
  endfacet
  facet normal 0.939484 -0.342594 0
    outer loop
      vertex 24.8383 29.3404 0
      vertex 24.8092 29.2606 5
      vertex 24.8092 29.2606 0
    endloop
  endfacet
  facet normal 0.34202 -0.939693 0
    outer loop
      vertex 25.8046 0.101693 0
      vertex 50 8.90809 5
      vertex 25.8046 0.101693 5
    endloop
  endfacet
  facet normal 0.34202 -0.939693 0
    outer loop
      vertex 50 8.90809 5
      vertex 25.8046 0.101693 0
      vertex 50 8.90809 0
    endloop
  endfacet
endsolid OpenSCAD_Model
