solid OpenSCAD_Model
  facet normal 0 0.0184 -0.999831
    outer loop
      vertex 0 0 -7.5
      vertex 150 0.490677 -7.49097
      vertex 150 0 -7.5
    endloop
  endfacet
  facet normal 0 0.0184 -0.999831
    outer loop
      vertex 150 0.490677 -7.49097
      vertex 0 0 -7.5
      vertex 0 0.490677 -7.49097
    endloop
  endfacet
  facet normal 0 0.055238 -0.998473
    outer loop
      vertex 0 0.490677 -7.49097
      vertex 150 0.980171 -7.46389
      vertex 150 0.490677 -7.49097
    endloop
  endfacet
  facet normal 0 0.055238 -0.998473
    outer loop
      vertex 150 0.980171 -7.46389
      vertex 0 0.490677 -7.49097
      vertex 0 0.980171 -7.46389
    endloop
  endfacet
  facet normal 0 0.0921282 -0.995747
    outer loop
      vertex 0 0.980171 -7.46389
      vertex 150 1.4673 -7.41882
      vertex 150 0.980171 -7.46389
    endloop
  endfacet
  facet normal 0 0.0921282 -0.995747
    outer loop
      vertex 150 1.4673 -7.41882
      vertex 0 0.980171 -7.46389
      vertex 0 1.4673 -7.41882
    endloop
  endfacet
  facet normal 0 0.12904 -0.991639
    outer loop
      vertex 0 1.4673 -7.41882
      vertex 150 1.9509 -7.35589
      vertex 150 1.4673 -7.41882
    endloop
  endfacet
  facet normal 0 0.12904 -0.991639
    outer loop
      vertex 150 1.9509 -7.35589
      vertex 0 1.4673 -7.41882
      vertex 0 1.9509 -7.35589
    endloop
  endfacet
  facet normal 0 0.166088 -0.986111
    outer loop
      vertex 0 1.9509 -7.35589
      vertex 150 2.4298 -7.27523
      vertex 150 1.9509 -7.35589
    endloop
  endfacet
  facet normal 0 0.166088 -0.986111
    outer loop
      vertex 150 2.4298 -7.27523
      vertex 0 1.9509 -7.35589
      vertex 0 2.4298 -7.27523
    endloop
  endfacet
  facet normal 0 0.203216 -0.979134
    outer loop
      vertex 0 2.4298 -7.27523
      vertex 150 2.90285 -7.17705
      vertex 150 2.4298 -7.27523
    endloop
  endfacet
  facet normal 0 0.203216 -0.979134
    outer loop
      vertex 150 2.90285 -7.17705
      vertex 0 2.4298 -7.27523
      vertex 0 2.90285 -7.17705
    endloop
  endfacet
  facet normal 0 0.240492 -0.970651
    outer loop
      vertex 0 2.90285 -7.17705
      vertex 150 3.3689 -7.06158
      vertex 150 2.90285 -7.17705
    endloop
  endfacet
  facet normal 0 0.240492 -0.970651
    outer loop
      vertex 150 3.3689 -7.06158
      vertex 0 2.90285 -7.17705
      vertex 0 3.3689 -7.06158
    endloop
  endfacet
  facet normal 0 0.277906 -0.960608
    outer loop
      vertex 0 3.3689 -7.06158
      vertex 150 3.82683 -6.9291
      vertex 150 3.3689 -7.06158
    endloop
  endfacet
  facet normal 0 0.277906 -0.960608
    outer loop
      vertex 150 3.82683 -6.9291
      vertex 0 3.3689 -7.06158
      vertex 0 3.82683 -6.9291
    endloop
  endfacet
  facet normal 0 0.315479 -0.948933
    outer loop
      vertex 0 3.82683 -6.9291
      vertex 150 4.27555 -6.77992
      vertex 150 3.82683 -6.9291
    endloop
  endfacet
  facet normal 0 0.315479 -0.948933
    outer loop
      vertex 150 4.27555 -6.77992
      vertex 0 3.82683 -6.9291
      vertex 0 4.27555 -6.77992
    endloop
  endfacet
  facet normal 0 0.353185 -0.935553
    outer loop
      vertex 0 4.27555 -6.77992
      vertex 150 4.71397 -6.61441
      vertex 150 4.27555 -6.77992
    endloop
  endfacet
  facet normal 0 0.353185 -0.935553
    outer loop
      vertex 150 4.71397 -6.61441
      vertex 0 4.27555 -6.77992
      vertex 0 4.71397 -6.61441
    endloop
  endfacet
  facet normal 0 0.391048 -0.92037
    outer loop
      vertex 0 4.71397 -6.61441
      vertex 150 5.14103 -6.43296
      vertex 150 4.71397 -6.61441
    endloop
  endfacet
  facet normal 0 0.391048 -0.92037
    outer loop
      vertex 150 5.14103 -6.43296
      vertex 0 4.71397 -6.61441
      vertex 0 5.14103 -6.43296
    endloop
  endfacet
  facet normal 0 0.429007 -0.903301
    outer loop
      vertex 0 5.14103 -6.43296
      vertex 150 5.5557 -6.23602
      vertex 150 5.14103 -6.43296
    endloop
  endfacet
  facet normal 0 0.429007 -0.903301
    outer loop
      vertex 150 5.5557 -6.23602
      vertex 0 5.14103 -6.43296
      vertex 0 5.5557 -6.23602
    endloop
  endfacet
  facet normal 0 0.467048 -0.884232
    outer loop
      vertex 0 5.5557 -6.23602
      vertex 150 5.95699 -6.02406
      vertex 150 5.5557 -6.23602
    endloop
  endfacet
  facet normal 0 0.467048 -0.884232
    outer loop
      vertex 150 5.95699 -6.02406
      vertex 0 5.5557 -6.23602
      vertex 0 5.95699 -6.02406
    endloop
  endfacet
  facet normal 0 0.505144 -0.863035
    outer loop
      vertex 0 5.95699 -6.02406
      vertex 150 6.34393 -5.79758
      vertex 150 5.95699 -6.02406
    endloop
  endfacet
  facet normal 0 0.505144 -0.863035
    outer loop
      vertex 150 6.34393 -5.79758
      vertex 0 5.95699 -6.02406
      vertex 0 6.34393 -5.79758
    endloop
  endfacet
  facet normal 0 0.543194 -0.839607
    outer loop
      vertex 0 6.34393 -5.79758
      vertex 150 6.71559 -5.55713
      vertex 150 6.34393 -5.79758
    endloop
  endfacet
  facet normal 0 0.543194 -0.839607
    outer loop
      vertex 150 6.71559 -5.55713
      vertex 0 6.34393 -5.79758
      vertex 0 6.71559 -5.55713
    endloop
  endfacet
  facet normal 0 0.58111 -0.813825
    outer loop
      vertex 0 6.71559 -5.55713
      vertex 150 7.07107 -5.3033
      vertex 150 6.71559 -5.55713
    endloop
  endfacet
  facet normal 0 0.58111 -0.813825
    outer loop
      vertex 150 7.07107 -5.3033
      vertex 0 6.71559 -5.55713
      vertex 0 7.07107 -5.3033
    endloop
  endfacet
  facet normal 0 0.618815 -0.785536
    outer loop
      vertex 0 7.07107 -5.3033
      vertex 150 7.40951 -5.03669
      vertex 150 7.07107 -5.3033
    endloop
  endfacet
  facet normal 0 0.618815 -0.785536
    outer loop
      vertex 150 7.40951 -5.03669
      vertex 0 7.07107 -5.3033
      vertex 0 7.40951 -5.03669
    endloop
  endfacet
  facet normal 0 0.656133 -0.754645
    outer loop
      vertex 0 7.40951 -5.03669
      vertex 150 7.7301 -4.75795
      vertex 150 7.40951 -5.03669
    endloop
  endfacet
  facet normal 0 0.656133 -0.754645
    outer loop
      vertex 150 7.7301 -4.75795
      vertex 0 7.40951 -5.03669
      vertex 0 7.7301 -4.75795
    endloop
  endfacet
  facet normal 0 0.692928 -0.721007
    outer loop
      vertex 0 7.7301 -4.75795
      vertex 150 8.03207 -4.46774
      vertex 150 7.7301 -4.75795
    endloop
  endfacet
  facet normal 0 0.692928 -0.721007
    outer loop
      vertex 150 8.03207 -4.46774
      vertex 0 7.7301 -4.75795
      vertex 0 8.03207 -4.46774
    endloop
  endfacet
  facet normal 0 0.728957 -0.68456
    outer loop
      vertex 150 8.03207 -4.46774
      vertex 0 8.3147 -4.16678
      vertex 150 8.3147 -4.16678
    endloop
  endfacet
  facet normal 0 0.728957 -0.68456
    outer loop
      vertex 0 8.3147 -4.16678
      vertex 150 8.03207 -4.46774
      vertex 0 8.03207 -4.46774
    endloop
  endfacet
  facet normal 0 0.764079 -0.645122
    outer loop
      vertex 150 8.3147 -4.16678
      vertex 0 8.57729 -3.85577
      vertex 150 8.57729 -3.85577
    endloop
  endfacet
  facet normal 0 0.764079 -0.645122
    outer loop
      vertex 0 8.57729 -3.85577
      vertex 150 8.3147 -4.16678
      vertex 0 8.3147 -4.16678
    endloop
  endfacet
  facet normal 0 0.797959 -0.602711
    outer loop
      vertex 150 8.57729 -3.85577
      vertex 0 8.81921 -3.53548
      vertex 150 8.81921 -3.53548
    endloop
  endfacet
  facet normal 0 0.797959 -0.602711
    outer loop
      vertex 0 8.81921 -3.53548
      vertex 150 8.57729 -3.85577
      vertex 0 8.57729 -3.85577
    endloop
  endfacet
  facet normal 0 0.830337 -0.557262
    outer loop
      vertex 150 8.81921 -3.53548
      vertex 0 9.03989 -3.20666
      vertex 150 9.03989 -3.20666
    endloop
  endfacet
  facet normal 0 0.830337 -0.557262
    outer loop
      vertex 0 9.03989 -3.20666
      vertex 150 8.81921 -3.53548
      vertex 0 8.81921 -3.53548
    endloop
  endfacet
  facet normal 0 0.860869 -0.508827
    outer loop
      vertex 150 9.03989 -3.20666
      vertex 0 9.2388 -2.87013
      vertex 150 9.2388 -2.87013
    endloop
  endfacet
  facet normal 0 0.860869 -0.508827
    outer loop
      vertex 0 9.2388 -2.87013
      vertex 150 9.03989 -3.20666
      vertex 0 9.03989 -3.20666
    endloop
  endfacet
  facet normal 0 0.889284 -0.457355
    outer loop
      vertex 150 9.2388 -2.87013
      vertex 0 9.41544 -2.52667
      vertex 150 9.41544 -2.52667
    endloop
  endfacet
  facet normal 0 0.889284 -0.457355
    outer loop
      vertex 0 9.41544 -2.52667
      vertex 150 9.2388 -2.87013
      vertex 0 9.2388 -2.87013
    endloop
  endfacet
  facet normal 0 0.915158 -0.403095
    outer loop
      vertex 150 9.41544 -2.52667
      vertex 0 9.5694 -2.17713
      vertex 150 9.5694 -2.17713
    endloop
  endfacet
  facet normal 0 0.915158 -0.403095
    outer loop
      vertex 0 9.5694 -2.17713
      vertex 150 9.41544 -2.52667
      vertex 0 9.41544 -2.52667
    endloop
  endfacet
  facet normal 0 0.93817 -0.346175
    outer loop
      vertex 150 9.5694 -2.17713
      vertex 0 9.70031 -1.82235
      vertex 150 9.70031 -1.82235
    endloop
  endfacet
  facet normal 0 0.93817 -0.346175
    outer loop
      vertex 0 9.70031 -1.82235
      vertex 150 9.5694 -2.17713
      vertex 0 9.5694 -2.17713
    endloop
  endfacet
  facet normal 0 0.957981 -0.286832
    outer loop
      vertex 150 9.70031 -1.82235
      vertex 0 9.80785 -1.46318
      vertex 150 9.80785 -1.46318
    endloop
  endfacet
  facet normal 0 0.957981 -0.286832
    outer loop
      vertex 0 9.80785 -1.46318
      vertex 150 9.70031 -1.82235
      vertex 0 9.70031 -1.82235
    endloop
  endfacet
  facet normal 0 0.974267 -0.225395
    outer loop
      vertex 150 9.80785 -1.46318
      vertex 0 9.89176 -1.10048
      vertex 150 9.89176 -1.10048
    endloop
  endfacet
  facet normal 0 0.974267 -0.225395
    outer loop
      vertex 0 9.89176 -1.10048
      vertex 150 9.80785 -1.46318
      vertex 0 9.80785 -1.46318
    endloop
  endfacet
  facet normal 0 0.986743 -0.162292
    outer loop
      vertex 150 9.89176 -1.10048
      vertex 0 9.95185 -0.735129
      vertex 150 9.95185 -0.735129
    endloop
  endfacet
  facet normal 0 0.986743 -0.162292
    outer loop
      vertex 0 9.95185 -0.735129
      vertex 150 9.89176 -1.10048
      vertex 0 9.89176 -1.10048
    endloop
  endfacet
  facet normal 0 0.9952 -0.0978607
    outer loop
      vertex 150 9.95185 -0.735129
      vertex 0 9.98795 -0.368008
      vertex 150 9.98795 -0.368008
    endloop
  endfacet
  facet normal 0 0.9952 -0.0978607
    outer loop
      vertex 0 9.98795 -0.368008
      vertex 150 9.95185 -0.735129
      vertex 0 9.95185 -0.735129
    endloop
  endfacet
  facet normal 0 0.999464 -0.0327263
    outer loop
      vertex 150 9.98795 -0.368008
      vertex 0 10 0
      vertex 150 10 0
    endloop
  endfacet
  facet normal 0 0.999464 -0.0327263
    outer loop
      vertex 0 10 0
      vertex 150 9.98795 -0.368008
      vertex 0 9.98795 -0.368008
    endloop
  endfacet
  facet normal 0 0.999464 0.0327263
    outer loop
      vertex 150 10 0
      vertex 0 9.98795 0.368008
      vertex 150 9.98795 0.368008
    endloop
  endfacet
  facet normal 0 0.999464 0.0327263
    outer loop
      vertex 0 9.98795 0.368008
      vertex 150 10 0
      vertex 0 10 0
    endloop
  endfacet
  facet normal 0 0.9952 0.0978607
    outer loop
      vertex 150 9.98795 0.368008
      vertex 0 9.95185 0.735129
      vertex 150 9.95185 0.735129
    endloop
  endfacet
  facet normal 0 0.9952 0.0978607
    outer loop
      vertex 0 9.95185 0.735129
      vertex 150 9.98795 0.368008
      vertex 0 9.98795 0.368008
    endloop
  endfacet
  facet normal 0 0.986743 0.162292
    outer loop
      vertex 150 9.95185 0.735129
      vertex 0 9.89176 1.10048
      vertex 150 9.89176 1.10048
    endloop
  endfacet
  facet normal 0 0.986743 0.162292
    outer loop
      vertex 0 9.89176 1.10048
      vertex 150 9.95185 0.735129
      vertex 0 9.95185 0.735129
    endloop
  endfacet
  facet normal 0 0.974267 0.225395
    outer loop
      vertex 150 9.89176 1.10048
      vertex 0 9.80785 1.46318
      vertex 150 9.80785 1.46318
    endloop
  endfacet
  facet normal 0 0.974267 0.225395
    outer loop
      vertex 0 9.80785 1.46318
      vertex 150 9.89176 1.10048
      vertex 0 9.89176 1.10048
    endloop
  endfacet
  facet normal 0 0.957981 0.286832
    outer loop
      vertex 150 9.80785 1.46318
      vertex 0 9.70031 1.82235
      vertex 150 9.70031 1.82235
    endloop
  endfacet
  facet normal 0 0.957981 0.286832
    outer loop
      vertex 0 9.70031 1.82235
      vertex 150 9.80785 1.46318
      vertex 0 9.80785 1.46318
    endloop
  endfacet
  facet normal 0 0.93817 0.346175
    outer loop
      vertex 150 9.70031 1.82235
      vertex 0 9.5694 2.17713
      vertex 150 9.5694 2.17713
    endloop
  endfacet
  facet normal 0 0.93817 0.346175
    outer loop
      vertex 0 9.5694 2.17713
      vertex 150 9.70031 1.82235
      vertex 0 9.70031 1.82235
    endloop
  endfacet
  facet normal 0 0.915158 0.403095
    outer loop
      vertex 150 9.5694 2.17713
      vertex 0 9.41544 2.52667
      vertex 150 9.41544 2.52667
    endloop
  endfacet
  facet normal 0 0.915158 0.403095
    outer loop
      vertex 0 9.41544 2.52667
      vertex 150 9.5694 2.17713
      vertex 0 9.5694 2.17713
    endloop
  endfacet
  facet normal 0 0.889284 0.457355
    outer loop
      vertex 150 9.41544 2.52667
      vertex 0 9.2388 2.87013
      vertex 150 9.2388 2.87013
    endloop
  endfacet
  facet normal 0 0.889284 0.457355
    outer loop
      vertex 0 9.2388 2.87013
      vertex 150 9.41544 2.52667
      vertex 0 9.41544 2.52667
    endloop
  endfacet
  facet normal 0 0.860869 0.508827
    outer loop
      vertex 150 9.2388 2.87013
      vertex 0 9.03989 3.20666
      vertex 150 9.03989 3.20666
    endloop
  endfacet
  facet normal 0 0.860869 0.508827
    outer loop
      vertex 0 9.03989 3.20666
      vertex 150 9.2388 2.87013
      vertex 0 9.2388 2.87013
    endloop
  endfacet
  facet normal 0 0.830337 0.557262
    outer loop
      vertex 150 9.03989 3.20666
      vertex 0 8.81921 3.53548
      vertex 150 8.81921 3.53548
    endloop
  endfacet
  facet normal 0 0.830337 0.557262
    outer loop
      vertex 0 8.81921 3.53548
      vertex 150 9.03989 3.20666
      vertex 0 9.03989 3.20666
    endloop
  endfacet
  facet normal 0 0.797959 0.602711
    outer loop
      vertex 150 8.81921 3.53548
      vertex 0 8.57729 3.85577
      vertex 150 8.57729 3.85577
    endloop
  endfacet
  facet normal 0 0.797959 0.602711
    outer loop
      vertex 0 8.57729 3.85577
      vertex 150 8.81921 3.53548
      vertex 0 8.81921 3.53548
    endloop
  endfacet
  facet normal 0 0.764079 0.645122
    outer loop
      vertex 150 8.57729 3.85577
      vertex 0 8.3147 4.16678
      vertex 150 8.3147 4.16678
    endloop
  endfacet
  facet normal 0 0.764079 0.645122
    outer loop
      vertex 0 8.3147 4.16678
      vertex 150 8.57729 3.85577
      vertex 0 8.57729 3.85577
    endloop
  endfacet
  facet normal 0 0.728957 0.68456
    outer loop
      vertex 150 8.3147 4.16678
      vertex 0 8.03207 4.46774
      vertex 150 8.03207 4.46774
    endloop
  endfacet
  facet normal 0 0.728957 0.68456
    outer loop
      vertex 0 8.03207 4.46774
      vertex 150 8.3147 4.16678
      vertex 0 8.3147 4.16678
    endloop
  endfacet
  facet normal -0 0.692928 0.721007
    outer loop
      vertex 0 8.03207 4.46774
      vertex 150 7.7301 4.75795
      vertex 150 8.03207 4.46774
    endloop
  endfacet
  facet normal 0 0.692928 0.721007
    outer loop
      vertex 150 7.7301 4.75795
      vertex 0 8.03207 4.46774
      vertex 0 7.7301 4.75795
    endloop
  endfacet
  facet normal -0 0.656133 0.754645
    outer loop
      vertex 0 7.7301 4.75795
      vertex 150 7.40951 5.03669
      vertex 150 7.7301 4.75795
    endloop
  endfacet
  facet normal 0 0.656133 0.754645
    outer loop
      vertex 150 7.40951 5.03669
      vertex 0 7.7301 4.75795
      vertex 0 7.40951 5.03669
    endloop
  endfacet
  facet normal -0 0.618815 0.785536
    outer loop
      vertex 0 7.40951 5.03669
      vertex 150 7.07107 5.3033
      vertex 150 7.40951 5.03669
    endloop
  endfacet
  facet normal 0 0.618815 0.785536
    outer loop
      vertex 150 7.07107 5.3033
      vertex 0 7.40951 5.03669
      vertex 0 7.07107 5.3033
    endloop
  endfacet
  facet normal -0 0.58111 0.813825
    outer loop
      vertex 0 7.07107 5.3033
      vertex 150 6.71559 5.55713
      vertex 150 7.07107 5.3033
    endloop
  endfacet
  facet normal 0 0.58111 0.813825
    outer loop
      vertex 150 6.71559 5.55713
      vertex 0 7.07107 5.3033
      vertex 0 6.71559 5.55713
    endloop
  endfacet
  facet normal -0 0.543194 0.839607
    outer loop
      vertex 0 6.71559 5.55713
      vertex 150 6.34393 5.79758
      vertex 150 6.71559 5.55713
    endloop
  endfacet
  facet normal 0 0.543194 0.839607
    outer loop
      vertex 150 6.34393 5.79758
      vertex 0 6.71559 5.55713
      vertex 0 6.34393 5.79758
    endloop
  endfacet
  facet normal -0 0.505144 0.863035
    outer loop
      vertex 0 6.34393 5.79758
      vertex 150 5.95699 6.02406
      vertex 150 6.34393 5.79758
    endloop
  endfacet
  facet normal 0 0.505144 0.863035
    outer loop
      vertex 150 5.95699 6.02406
      vertex 0 6.34393 5.79758
      vertex 0 5.95699 6.02406
    endloop
  endfacet
  facet normal -0 0.467048 0.884232
    outer loop
      vertex 0 5.95699 6.02406
      vertex 150 5.5557 6.23602
      vertex 150 5.95699 6.02406
    endloop
  endfacet
  facet normal 0 0.467048 0.884232
    outer loop
      vertex 150 5.5557 6.23602
      vertex 0 5.95699 6.02406
      vertex 0 5.5557 6.23602
    endloop
  endfacet
  facet normal -0 0.429007 0.903301
    outer loop
      vertex 0 5.5557 6.23602
      vertex 150 5.14103 6.43296
      vertex 150 5.5557 6.23602
    endloop
  endfacet
  facet normal 0 0.429007 0.903301
    outer loop
      vertex 150 5.14103 6.43296
      vertex 0 5.5557 6.23602
      vertex 0 5.14103 6.43296
    endloop
  endfacet
  facet normal -0 0.391048 0.92037
    outer loop
      vertex 0 5.14103 6.43296
      vertex 150 4.71397 6.61441
      vertex 150 5.14103 6.43296
    endloop
  endfacet
  facet normal 0 0.391048 0.92037
    outer loop
      vertex 150 4.71397 6.61441
      vertex 0 5.14103 6.43296
      vertex 0 4.71397 6.61441
    endloop
  endfacet
  facet normal -0 0.353185 0.935553
    outer loop
      vertex 0 4.71397 6.61441
      vertex 150 4.27555 6.77992
      vertex 150 4.71397 6.61441
    endloop
  endfacet
  facet normal 0 0.353185 0.935553
    outer loop
      vertex 150 4.27555 6.77992
      vertex 0 4.71397 6.61441
      vertex 0 4.27555 6.77992
    endloop
  endfacet
  facet normal -0 0.315479 0.948933
    outer loop
      vertex 0 4.27555 6.77992
      vertex 150 3.82683 6.9291
      vertex 150 4.27555 6.77992
    endloop
  endfacet
  facet normal 0 0.315479 0.948933
    outer loop
      vertex 150 3.82683 6.9291
      vertex 0 4.27555 6.77992
      vertex 0 3.82683 6.9291
    endloop
  endfacet
  facet normal -0 0.277906 0.960608
    outer loop
      vertex 0 3.82683 6.9291
      vertex 150 3.3689 7.06158
      vertex 150 3.82683 6.9291
    endloop
  endfacet
  facet normal 0 0.277906 0.960608
    outer loop
      vertex 150 3.3689 7.06158
      vertex 0 3.82683 6.9291
      vertex 0 3.3689 7.06158
    endloop
  endfacet
  facet normal -0 0.240492 0.970651
    outer loop
      vertex 0 3.3689 7.06158
      vertex 150 2.90285 7.17705
      vertex 150 3.3689 7.06158
    endloop
  endfacet
  facet normal 0 0.240492 0.970651
    outer loop
      vertex 150 2.90285 7.17705
      vertex 0 3.3689 7.06158
      vertex 0 2.90285 7.17705
    endloop
  endfacet
  facet normal -0 0.203216 0.979134
    outer loop
      vertex 0 2.90285 7.17705
      vertex 150 2.4298 7.27523
      vertex 150 2.90285 7.17705
    endloop
  endfacet
  facet normal 0 0.203216 0.979134
    outer loop
      vertex 150 2.4298 7.27523
      vertex 0 2.90285 7.17705
      vertex 0 2.4298 7.27523
    endloop
  endfacet
  facet normal -0 0.166088 0.986111
    outer loop
      vertex 0 2.4298 7.27523
      vertex 150 1.9509 7.35589
      vertex 150 2.4298 7.27523
    endloop
  endfacet
  facet normal 0 0.166088 0.986111
    outer loop
      vertex 150 1.9509 7.35589
      vertex 0 2.4298 7.27523
      vertex 0 1.9509 7.35589
    endloop
  endfacet
  facet normal -0 0.12904 0.991639
    outer loop
      vertex 0 1.9509 7.35589
      vertex 150 1.4673 7.41882
      vertex 150 1.9509 7.35589
    endloop
  endfacet
  facet normal 0 0.12904 0.991639
    outer loop
      vertex 150 1.4673 7.41882
      vertex 0 1.9509 7.35589
      vertex 0 1.4673 7.41882
    endloop
  endfacet
  facet normal -0 0.0921282 0.995747
    outer loop
      vertex 0 1.4673 7.41882
      vertex 150 0.980171 7.46389
      vertex 150 1.4673 7.41882
    endloop
  endfacet
  facet normal 0 0.0921282 0.995747
    outer loop
      vertex 150 0.980171 7.46389
      vertex 0 1.4673 7.41882
      vertex 0 0.980171 7.46389
    endloop
  endfacet
  facet normal -0 0.055238 0.998473
    outer loop
      vertex 0 0.980171 7.46389
      vertex 150 0.490677 7.49097
      vertex 150 0.980171 7.46389
    endloop
  endfacet
  facet normal 0 0.055238 0.998473
    outer loop
      vertex 150 0.490677 7.49097
      vertex 0 0.980171 7.46389
      vertex 0 0.490677 7.49097
    endloop
  endfacet
  facet normal -0 0.0184 0.999831
    outer loop
      vertex 0 0.490677 7.49097
      vertex 150 0 7.5
      vertex 150 0.490677 7.49097
    endloop
  endfacet
  facet normal 0 0.0184 0.999831
    outer loop
      vertex 150 0 7.5
      vertex 0 0.490677 7.49097
      vertex 0 0 7.5
    endloop
  endfacet
  facet normal 0 -0.0184 0.999831
    outer loop
      vertex 0 0 7.5
      vertex 150 -0.490677 7.49097
      vertex 150 0 7.5
    endloop
  endfacet
  facet normal 0 -0.0184 0.999831
    outer loop
      vertex 150 -0.490677 7.49097
      vertex 0 0 7.5
      vertex 0 -0.490677 7.49097
    endloop
  endfacet
  facet normal 0 -0.055238 0.998473
    outer loop
      vertex 0 -0.490677 7.49097
      vertex 150 -0.980171 7.46389
      vertex 150 -0.490677 7.49097
    endloop
  endfacet
  facet normal 0 -0.055238 0.998473
    outer loop
      vertex 150 -0.980171 7.46389
      vertex 0 -0.490677 7.49097
      vertex 0 -0.980171 7.46389
    endloop
  endfacet
  facet normal 0 -0.0921282 0.995747
    outer loop
      vertex 0 -0.980171 7.46389
      vertex 150 -1.4673 7.41882
      vertex 150 -0.980171 7.46389
    endloop
  endfacet
  facet normal 0 -0.0921282 0.995747
    outer loop
      vertex 150 -1.4673 7.41882
      vertex 0 -0.980171 7.46389
      vertex 0 -1.4673 7.41882
    endloop
  endfacet
  facet normal 0 -0.12904 0.991639
    outer loop
      vertex 0 -1.4673 7.41882
      vertex 150 -1.9509 7.35589
      vertex 150 -1.4673 7.41882
    endloop
  endfacet
  facet normal 0 -0.12904 0.991639
    outer loop
      vertex 150 -1.9509 7.35589
      vertex 0 -1.4673 7.41882
      vertex 0 -1.9509 7.35589
    endloop
  endfacet
  facet normal 0 -0.166088 0.986111
    outer loop
      vertex 0 -1.9509 7.35589
      vertex 150 -2.4298 7.27523
      vertex 150 -1.9509 7.35589
    endloop
  endfacet
  facet normal 0 -0.166088 0.986111
    outer loop
      vertex 150 -2.4298 7.27523
      vertex 0 -1.9509 7.35589
      vertex 0 -2.4298 7.27523
    endloop
  endfacet
  facet normal 0 -0.203216 0.979134
    outer loop
      vertex 0 -2.4298 7.27523
      vertex 150 -2.90285 7.17705
      vertex 150 -2.4298 7.27523
    endloop
  endfacet
  facet normal 0 -0.203216 0.979134
    outer loop
      vertex 150 -2.90285 7.17705
      vertex 0 -2.4298 7.27523
      vertex 0 -2.90285 7.17705
    endloop
  endfacet
  facet normal 0 -0.240492 0.970651
    outer loop
      vertex 0 -2.90285 7.17705
      vertex 150 -3.3689 7.06158
      vertex 150 -2.90285 7.17705
    endloop
  endfacet
  facet normal 0 -0.240492 0.970651
    outer loop
      vertex 150 -3.3689 7.06158
      vertex 0 -2.90285 7.17705
      vertex 0 -3.3689 7.06158
    endloop
  endfacet
  facet normal 0 -0.277906 0.960608
    outer loop
      vertex 0 -3.3689 7.06158
      vertex 150 -3.82683 6.9291
      vertex 150 -3.3689 7.06158
    endloop
  endfacet
  facet normal 0 -0.277906 0.960608
    outer loop
      vertex 150 -3.82683 6.9291
      vertex 0 -3.3689 7.06158
      vertex 0 -3.82683 6.9291
    endloop
  endfacet
  facet normal 0 -0.315479 0.948933
    outer loop
      vertex 0 -3.82683 6.9291
      vertex 150 -4.27555 6.77992
      vertex 150 -3.82683 6.9291
    endloop
  endfacet
  facet normal 0 -0.315479 0.948933
    outer loop
      vertex 150 -4.27555 6.77992
      vertex 0 -3.82683 6.9291
      vertex 0 -4.27555 6.77992
    endloop
  endfacet
  facet normal 0 -0.353185 0.935553
    outer loop
      vertex 0 -4.27555 6.77992
      vertex 150 -4.71397 6.61441
      vertex 150 -4.27555 6.77992
    endloop
  endfacet
  facet normal 0 -0.353185 0.935553
    outer loop
      vertex 150 -4.71397 6.61441
      vertex 0 -4.27555 6.77992
      vertex 0 -4.71397 6.61441
    endloop
  endfacet
  facet normal 0 -0.391048 0.92037
    outer loop
      vertex 0 -4.71397 6.61441
      vertex 150 -5.14103 6.43296
      vertex 150 -4.71397 6.61441
    endloop
  endfacet
  facet normal 0 -0.391048 0.92037
    outer loop
      vertex 150 -5.14103 6.43296
      vertex 0 -4.71397 6.61441
      vertex 0 -5.14103 6.43296
    endloop
  endfacet
  facet normal 0 -0.429007 0.903301
    outer loop
      vertex 0 -5.14103 6.43296
      vertex 150 -5.5557 6.23602
      vertex 150 -5.14103 6.43296
    endloop
  endfacet
  facet normal 0 -0.429007 0.903301
    outer loop
      vertex 150 -5.5557 6.23602
      vertex 0 -5.14103 6.43296
      vertex 0 -5.5557 6.23602
    endloop
  endfacet
  facet normal 0 -0.467048 0.884232
    outer loop
      vertex 0 -5.5557 6.23602
      vertex 150 -5.95699 6.02406
      vertex 150 -5.5557 6.23602
    endloop
  endfacet
  facet normal 0 -0.467048 0.884232
    outer loop
      vertex 150 -5.95699 6.02406
      vertex 0 -5.5557 6.23602
      vertex 0 -5.95699 6.02406
    endloop
  endfacet
  facet normal 0 -0.505144 0.863035
    outer loop
      vertex 0 -5.95699 6.02406
      vertex 150 -6.34393 5.79758
      vertex 150 -5.95699 6.02406
    endloop
  endfacet
  facet normal 0 -0.505144 0.863035
    outer loop
      vertex 150 -6.34393 5.79758
      vertex 0 -5.95699 6.02406
      vertex 0 -6.34393 5.79758
    endloop
  endfacet
  facet normal 0 -0.543194 0.839607
    outer loop
      vertex 0 -6.34393 5.79758
      vertex 150 -6.71559 5.55713
      vertex 150 -6.34393 5.79758
    endloop
  endfacet
  facet normal 0 -0.543194 0.839607
    outer loop
      vertex 150 -6.71559 5.55713
      vertex 0 -6.34393 5.79758
      vertex 0 -6.71559 5.55713
    endloop
  endfacet
  facet normal 0 -0.58111 0.813825
    outer loop
      vertex 0 -6.71559 5.55713
      vertex 150 -7.07107 5.3033
      vertex 150 -6.71559 5.55713
    endloop
  endfacet
  facet normal 0 -0.58111 0.813825
    outer loop
      vertex 150 -7.07107 5.3033
      vertex 0 -6.71559 5.55713
      vertex 0 -7.07107 5.3033
    endloop
  endfacet
  facet normal 0 -0.618815 0.785536
    outer loop
      vertex 0 -7.07107 5.3033
      vertex 150 -7.40951 5.03669
      vertex 150 -7.07107 5.3033
    endloop
  endfacet
  facet normal 0 -0.618815 0.785536
    outer loop
      vertex 150 -7.40951 5.03669
      vertex 0 -7.07107 5.3033
      vertex 0 -7.40951 5.03669
    endloop
  endfacet
  facet normal 0 -0.656133 0.754645
    outer loop
      vertex 0 -7.40951 5.03669
      vertex 150 -7.7301 4.75795
      vertex 150 -7.40951 5.03669
    endloop
  endfacet
  facet normal 0 -0.656133 0.754645
    outer loop
      vertex 150 -7.7301 4.75795
      vertex 0 -7.40951 5.03669
      vertex 0 -7.7301 4.75795
    endloop
  endfacet
  facet normal 0 -0.692928 0.721007
    outer loop
      vertex 0 -7.7301 4.75795
      vertex 150 -8.03207 4.46774
      vertex 150 -7.7301 4.75795
    endloop
  endfacet
  facet normal 0 -0.692928 0.721007
    outer loop
      vertex 150 -8.03207 4.46774
      vertex 0 -7.7301 4.75795
      vertex 0 -8.03207 4.46774
    endloop
  endfacet
  facet normal 0 -0.728957 0.68456
    outer loop
      vertex 0 -8.3147 4.16678
      vertex 150 -8.03207 4.46774
      vertex 0 -8.03207 4.46774
    endloop
  endfacet
  facet normal 0 -0.728957 0.68456
    outer loop
      vertex 150 -8.03207 4.46774
      vertex 0 -8.3147 4.16678
      vertex 150 -8.3147 4.16678
    endloop
  endfacet
  facet normal 0 -0.764079 0.645122
    outer loop
      vertex 0 -8.57729 3.85577
      vertex 150 -8.3147 4.16678
      vertex 0 -8.3147 4.16678
    endloop
  endfacet
  facet normal 0 -0.764079 0.645122
    outer loop
      vertex 150 -8.3147 4.16678
      vertex 0 -8.57729 3.85577
      vertex 150 -8.57729 3.85577
    endloop
  endfacet
  facet normal 0 -0.797959 0.602711
    outer loop
      vertex 0 -8.81921 3.53548
      vertex 150 -8.57729 3.85577
      vertex 0 -8.57729 3.85577
    endloop
  endfacet
  facet normal 0 -0.797959 0.602711
    outer loop
      vertex 150 -8.57729 3.85577
      vertex 0 -8.81921 3.53548
      vertex 150 -8.81921 3.53548
    endloop
  endfacet
  facet normal 0 -0.830337 0.557262
    outer loop
      vertex 0 -9.03989 3.20666
      vertex 150 -8.81921 3.53548
      vertex 0 -8.81921 3.53548
    endloop
  endfacet
  facet normal 0 -0.830337 0.557262
    outer loop
      vertex 150 -8.81921 3.53548
      vertex 0 -9.03989 3.20666
      vertex 150 -9.03989 3.20666
    endloop
  endfacet
  facet normal 0 -0.860869 0.508827
    outer loop
      vertex 0 -9.2388 2.87013
      vertex 150 -9.03989 3.20666
      vertex 0 -9.03989 3.20666
    endloop
  endfacet
  facet normal 0 -0.860869 0.508827
    outer loop
      vertex 150 -9.03989 3.20666
      vertex 0 -9.2388 2.87013
      vertex 150 -9.2388 2.87013
    endloop
  endfacet
  facet normal 0 -0.889284 0.457355
    outer loop
      vertex 0 -9.41544 2.52667
      vertex 150 -9.2388 2.87013
      vertex 0 -9.2388 2.87013
    endloop
  endfacet
  facet normal 0 -0.889284 0.457355
    outer loop
      vertex 150 -9.2388 2.87013
      vertex 0 -9.41544 2.52667
      vertex 150 -9.41544 2.52667
    endloop
  endfacet
  facet normal 0 -0.915158 0.403095
    outer loop
      vertex 0 -9.5694 2.17713
      vertex 150 -9.41544 2.52667
      vertex 0 -9.41544 2.52667
    endloop
  endfacet
  facet normal 0 -0.915158 0.403095
    outer loop
      vertex 150 -9.41544 2.52667
      vertex 0 -9.5694 2.17713
      vertex 150 -9.5694 2.17713
    endloop
  endfacet
  facet normal 0 -0.93817 0.346175
    outer loop
      vertex 0 -9.70031 1.82235
      vertex 150 -9.5694 2.17713
      vertex 0 -9.5694 2.17713
    endloop
  endfacet
  facet normal 0 -0.93817 0.346175
    outer loop
      vertex 150 -9.5694 2.17713
      vertex 0 -9.70031 1.82235
      vertex 150 -9.70031 1.82235
    endloop
  endfacet
  facet normal 0 -0.957981 0.286832
    outer loop
      vertex 0 -9.80785 1.46318
      vertex 150 -9.70031 1.82235
      vertex 0 -9.70031 1.82235
    endloop
  endfacet
  facet normal 0 -0.957981 0.286832
    outer loop
      vertex 150 -9.70031 1.82235
      vertex 0 -9.80785 1.46318
      vertex 150 -9.80785 1.46318
    endloop
  endfacet
  facet normal 0 -0.974267 0.225395
    outer loop
      vertex 0 -9.89176 1.10048
      vertex 150 -9.80785 1.46318
      vertex 0 -9.80785 1.46318
    endloop
  endfacet
  facet normal 0 -0.974267 0.225395
    outer loop
      vertex 150 -9.80785 1.46318
      vertex 0 -9.89176 1.10048
      vertex 150 -9.89176 1.10048
    endloop
  endfacet
  facet normal 0 -0.986743 0.162292
    outer loop
      vertex 0 -9.95185 0.735129
      vertex 150 -9.89176 1.10048
      vertex 0 -9.89176 1.10048
    endloop
  endfacet
  facet normal 0 -0.986743 0.162292
    outer loop
      vertex 150 -9.89176 1.10048
      vertex 0 -9.95185 0.735129
      vertex 150 -9.95185 0.735129
    endloop
  endfacet
  facet normal 0 -0.9952 0.0978607
    outer loop
      vertex 0 -9.98795 0.368008
      vertex 150 -9.95185 0.735129
      vertex 0 -9.95185 0.735129
    endloop
  endfacet
  facet normal 0 -0.9952 0.0978607
    outer loop
      vertex 150 -9.95185 0.735129
      vertex 0 -9.98795 0.368008
      vertex 150 -9.98795 0.368008
    endloop
  endfacet
  facet normal 0 -0.999464 0.0327263
    outer loop
      vertex 0 -10 0
      vertex 150 -9.98795 0.368008
      vertex 0 -9.98795 0.368008
    endloop
  endfacet
  facet normal 0 -0.999464 0.0327263
    outer loop
      vertex 150 -9.98795 0.368008
      vertex 0 -10 0
      vertex 150 -10 0
    endloop
  endfacet
  facet normal 0 -0.999464 -0.0327263
    outer loop
      vertex 0 -9.98795 -0.368008
      vertex 150 -10 0
      vertex 0 -10 0
    endloop
  endfacet
  facet normal 0 -0.999464 -0.0327263
    outer loop
      vertex 150 -10 0
      vertex 0 -9.98795 -0.368008
      vertex 150 -9.98795 -0.368008
    endloop
  endfacet
  facet normal 0 -0.9952 -0.0978607
    outer loop
      vertex 0 -9.95185 -0.735129
      vertex 150 -9.98795 -0.368008
      vertex 0 -9.98795 -0.368008
    endloop
  endfacet
  facet normal 0 -0.9952 -0.0978607
    outer loop
      vertex 150 -9.98795 -0.368008
      vertex 0 -9.95185 -0.735129
      vertex 150 -9.95185 -0.735129
    endloop
  endfacet
  facet normal 0 -0.986743 -0.162292
    outer loop
      vertex 0 -9.89176 -1.10048
      vertex 150 -9.95185 -0.735129
      vertex 0 -9.95185 -0.735129
    endloop
  endfacet
  facet normal 0 -0.986743 -0.162292
    outer loop
      vertex 150 -9.95185 -0.735129
      vertex 0 -9.89176 -1.10048
      vertex 150 -9.89176 -1.10048
    endloop
  endfacet
  facet normal 0 -0.974267 -0.225395
    outer loop
      vertex 0 -9.80785 -1.46318
      vertex 150 -9.89176 -1.10048
      vertex 0 -9.89176 -1.10048
    endloop
  endfacet
  facet normal 0 -0.974267 -0.225395
    outer loop
      vertex 150 -9.89176 -1.10048
      vertex 0 -9.80785 -1.46318
      vertex 150 -9.80785 -1.46318
    endloop
  endfacet
  facet normal 0 -0.957981 -0.286832
    outer loop
      vertex 0 -9.70031 -1.82235
      vertex 150 -9.80785 -1.46318
      vertex 0 -9.80785 -1.46318
    endloop
  endfacet
  facet normal 0 -0.957981 -0.286832
    outer loop
      vertex 150 -9.80785 -1.46318
      vertex 0 -9.70031 -1.82235
      vertex 150 -9.70031 -1.82235
    endloop
  endfacet
  facet normal 0 -0.93817 -0.346175
    outer loop
      vertex 0 -9.5694 -2.17713
      vertex 150 -9.70031 -1.82235
      vertex 0 -9.70031 -1.82235
    endloop
  endfacet
  facet normal 0 -0.93817 -0.346175
    outer loop
      vertex 150 -9.70031 -1.82235
      vertex 0 -9.5694 -2.17713
      vertex 150 -9.5694 -2.17713
    endloop
  endfacet
  facet normal 0 -0.915158 -0.403095
    outer loop
      vertex 0 -9.41544 -2.52667
      vertex 150 -9.5694 -2.17713
      vertex 0 -9.5694 -2.17713
    endloop
  endfacet
  facet normal 0 -0.915158 -0.403095
    outer loop
      vertex 150 -9.5694 -2.17713
      vertex 0 -9.41544 -2.52667
      vertex 150 -9.41544 -2.52667
    endloop
  endfacet
  facet normal 0 -0.889284 -0.457355
    outer loop
      vertex 0 -9.2388 -2.87013
      vertex 150 -9.41544 -2.52667
      vertex 0 -9.41544 -2.52667
    endloop
  endfacet
  facet normal 0 -0.889284 -0.457355
    outer loop
      vertex 150 -9.41544 -2.52667
      vertex 0 -9.2388 -2.87013
      vertex 150 -9.2388 -2.87013
    endloop
  endfacet
  facet normal 0 -0.860869 -0.508827
    outer loop
      vertex 0 -9.03989 -3.20666
      vertex 150 -9.2388 -2.87013
      vertex 0 -9.2388 -2.87013
    endloop
  endfacet
  facet normal 0 -0.860869 -0.508827
    outer loop
      vertex 150 -9.2388 -2.87013
      vertex 0 -9.03989 -3.20666
      vertex 150 -9.03989 -3.20666
    endloop
  endfacet
  facet normal 0 -0.830337 -0.557262
    outer loop
      vertex 0 -8.81921 -3.53548
      vertex 150 -9.03989 -3.20666
      vertex 0 -9.03989 -3.20666
    endloop
  endfacet
  facet normal 0 -0.830337 -0.557262
    outer loop
      vertex 150 -9.03989 -3.20666
      vertex 0 -8.81921 -3.53548
      vertex 150 -8.81921 -3.53548
    endloop
  endfacet
  facet normal 0 -0.797959 -0.602711
    outer loop
      vertex 0 -8.57729 -3.85577
      vertex 150 -8.81921 -3.53548
      vertex 0 -8.81921 -3.53548
    endloop
  endfacet
  facet normal 0 -0.797959 -0.602711
    outer loop
      vertex 150 -8.81921 -3.53548
      vertex 0 -8.57729 -3.85577
      vertex 150 -8.57729 -3.85577
    endloop
  endfacet
  facet normal 0 -0.764079 -0.645122
    outer loop
      vertex 0 -8.3147 -4.16678
      vertex 150 -8.57729 -3.85577
      vertex 0 -8.57729 -3.85577
    endloop
  endfacet
  facet normal 0 -0.764079 -0.645122
    outer loop
      vertex 150 -8.57729 -3.85577
      vertex 0 -8.3147 -4.16678
      vertex 150 -8.3147 -4.16678
    endloop
  endfacet
  facet normal 0 -0.728957 -0.68456
    outer loop
      vertex 0 -8.03207 -4.46774
      vertex 150 -8.3147 -4.16678
      vertex 0 -8.3147 -4.16678
    endloop
  endfacet
  facet normal 0 -0.728957 -0.68456
    outer loop
      vertex 150 -8.3147 -4.16678
      vertex 0 -8.03207 -4.46774
      vertex 150 -8.03207 -4.46774
    endloop
  endfacet
  facet normal 0 -0.692928 -0.721007
    outer loop
      vertex 0 -8.03207 -4.46774
      vertex 150 -7.7301 -4.75795
      vertex 150 -8.03207 -4.46774
    endloop
  endfacet
  facet normal -0 -0.692928 -0.721007
    outer loop
      vertex 150 -7.7301 -4.75795
      vertex 0 -8.03207 -4.46774
      vertex 0 -7.7301 -4.75795
    endloop
  endfacet
  facet normal 0 -0.656133 -0.754645
    outer loop
      vertex 0 -7.7301 -4.75795
      vertex 150 -7.40951 -5.03669
      vertex 150 -7.7301 -4.75795
    endloop
  endfacet
  facet normal -0 -0.656133 -0.754645
    outer loop
      vertex 150 -7.40951 -5.03669
      vertex 0 -7.7301 -4.75795
      vertex 0 -7.40951 -5.03669
    endloop
  endfacet
  facet normal 0 -0.618815 -0.785536
    outer loop
      vertex 0 -7.40951 -5.03669
      vertex 150 -7.07107 -5.3033
      vertex 150 -7.40951 -5.03669
    endloop
  endfacet
  facet normal -0 -0.618815 -0.785536
    outer loop
      vertex 150 -7.07107 -5.3033
      vertex 0 -7.40951 -5.03669
      vertex 0 -7.07107 -5.3033
    endloop
  endfacet
  facet normal 0 -0.58111 -0.813825
    outer loop
      vertex 0 -7.07107 -5.3033
      vertex 150 -6.71559 -5.55713
      vertex 150 -7.07107 -5.3033
    endloop
  endfacet
  facet normal -0 -0.58111 -0.813825
    outer loop
      vertex 150 -6.71559 -5.55713
      vertex 0 -7.07107 -5.3033
      vertex 0 -6.71559 -5.55713
    endloop
  endfacet
  facet normal 0 -0.543194 -0.839607
    outer loop
      vertex 0 -6.71559 -5.55713
      vertex 150 -6.34393 -5.79758
      vertex 150 -6.71559 -5.55713
    endloop
  endfacet
  facet normal -0 -0.543194 -0.839607
    outer loop
      vertex 150 -6.34393 -5.79758
      vertex 0 -6.71559 -5.55713
      vertex 0 -6.34393 -5.79758
    endloop
  endfacet
  facet normal 0 -0.505144 -0.863035
    outer loop
      vertex 0 -6.34393 -5.79758
      vertex 150 -5.95699 -6.02406
      vertex 150 -6.34393 -5.79758
    endloop
  endfacet
  facet normal -0 -0.505144 -0.863035
    outer loop
      vertex 150 -5.95699 -6.02406
      vertex 0 -6.34393 -5.79758
      vertex 0 -5.95699 -6.02406
    endloop
  endfacet
  facet normal 0 -0.467048 -0.884232
    outer loop
      vertex 0 -5.95699 -6.02406
      vertex 150 -5.5557 -6.23602
      vertex 150 -5.95699 -6.02406
    endloop
  endfacet
  facet normal -0 -0.467048 -0.884232
    outer loop
      vertex 150 -5.5557 -6.23602
      vertex 0 -5.95699 -6.02406
      vertex 0 -5.5557 -6.23602
    endloop
  endfacet
  facet normal 0 -0.429007 -0.903301
    outer loop
      vertex 0 -5.5557 -6.23602
      vertex 150 -5.14103 -6.43296
      vertex 150 -5.5557 -6.23602
    endloop
  endfacet
  facet normal -0 -0.429007 -0.903301
    outer loop
      vertex 150 -5.14103 -6.43296
      vertex 0 -5.5557 -6.23602
      vertex 0 -5.14103 -6.43296
    endloop
  endfacet
  facet normal 0 -0.391048 -0.92037
    outer loop
      vertex 0 -5.14103 -6.43296
      vertex 150 -4.71397 -6.61441
      vertex 150 -5.14103 -6.43296
    endloop
  endfacet
  facet normal -0 -0.391048 -0.92037
    outer loop
      vertex 150 -4.71397 -6.61441
      vertex 0 -5.14103 -6.43296
      vertex 0 -4.71397 -6.61441
    endloop
  endfacet
  facet normal 0 -0.353185 -0.935553
    outer loop
      vertex 0 -4.71397 -6.61441
      vertex 150 -4.27555 -6.77992
      vertex 150 -4.71397 -6.61441
    endloop
  endfacet
  facet normal -0 -0.353185 -0.935553
    outer loop
      vertex 150 -4.27555 -6.77992
      vertex 0 -4.71397 -6.61441
      vertex 0 -4.27555 -6.77992
    endloop
  endfacet
  facet normal 0 -0.315479 -0.948933
    outer loop
      vertex 0 -4.27555 -6.77992
      vertex 150 -3.82683 -6.9291
      vertex 150 -4.27555 -6.77992
    endloop
  endfacet
  facet normal -0 -0.315479 -0.948933
    outer loop
      vertex 150 -3.82683 -6.9291
      vertex 0 -4.27555 -6.77992
      vertex 0 -3.82683 -6.9291
    endloop
  endfacet
  facet normal 0 -0.277906 -0.960608
    outer loop
      vertex 0 -3.82683 -6.9291
      vertex 150 -3.3689 -7.06158
      vertex 150 -3.82683 -6.9291
    endloop
  endfacet
  facet normal -0 -0.277906 -0.960608
    outer loop
      vertex 150 -3.3689 -7.06158
      vertex 0 -3.82683 -6.9291
      vertex 0 -3.3689 -7.06158
    endloop
  endfacet
  facet normal 0 -0.240492 -0.970651
    outer loop
      vertex 0 -3.3689 -7.06158
      vertex 150 -2.90285 -7.17705
      vertex 150 -3.3689 -7.06158
    endloop
  endfacet
  facet normal -0 -0.240492 -0.970651
    outer loop
      vertex 150 -2.90285 -7.17705
      vertex 0 -3.3689 -7.06158
      vertex 0 -2.90285 -7.17705
    endloop
  endfacet
  facet normal 0 -0.203216 -0.979134
    outer loop
      vertex 0 -2.90285 -7.17705
      vertex 150 -2.4298 -7.27523
      vertex 150 -2.90285 -7.17705
    endloop
  endfacet
  facet normal -0 -0.203216 -0.979134
    outer loop
      vertex 150 -2.4298 -7.27523
      vertex 0 -2.90285 -7.17705
      vertex 0 -2.4298 -7.27523
    endloop
  endfacet
  facet normal 0 -0.166088 -0.986111
    outer loop
      vertex 0 -2.4298 -7.27523
      vertex 150 -1.9509 -7.35589
      vertex 150 -2.4298 -7.27523
    endloop
  endfacet
  facet normal -0 -0.166088 -0.986111
    outer loop
      vertex 150 -1.9509 -7.35589
      vertex 0 -2.4298 -7.27523
      vertex 0 -1.9509 -7.35589
    endloop
  endfacet
  facet normal 0 -0.12904 -0.991639
    outer loop
      vertex 0 -1.9509 -7.35589
      vertex 150 -1.4673 -7.41882
      vertex 150 -1.9509 -7.35589
    endloop
  endfacet
  facet normal -0 -0.12904 -0.991639
    outer loop
      vertex 150 -1.4673 -7.41882
      vertex 0 -1.9509 -7.35589
      vertex 0 -1.4673 -7.41882
    endloop
  endfacet
  facet normal 0 -0.0921282 -0.995747
    outer loop
      vertex 0 -1.4673 -7.41882
      vertex 150 -0.980171 -7.46389
      vertex 150 -1.4673 -7.41882
    endloop
  endfacet
  facet normal -0 -0.0921282 -0.995747
    outer loop
      vertex 150 -0.980171 -7.46389
      vertex 0 -1.4673 -7.41882
      vertex 0 -0.980171 -7.46389
    endloop
  endfacet
  facet normal 0 -0.055238 -0.998473
    outer loop
      vertex 0 -0.980171 -7.46389
      vertex 150 -0.490677 -7.49097
      vertex 150 -0.980171 -7.46389
    endloop
  endfacet
  facet normal -0 -0.055238 -0.998473
    outer loop
      vertex 150 -0.490677 -7.49097
      vertex 0 -0.980171 -7.46389
      vertex 0 -0.490677 -7.49097
    endloop
  endfacet
  facet normal 0 -0.0184 -0.999831
    outer loop
      vertex 0 -0.490677 -7.49097
      vertex 150 0 -7.5
      vertex 150 -0.490677 -7.49097
    endloop
  endfacet
  facet normal -0 -0.0184 -0.999831
    outer loop
      vertex 150 0 -7.5
      vertex 0 -0.490677 -7.49097
      vertex 0 0 -7.5
    endloop
  endfacet
  facet normal -1 0 0
    outer loop
      vertex 0 9.98795 -0.368008
      vertex 0 9.98795 0.368008
      vertex 0 10 0
    endloop
  endfacet
  facet normal -1 0 0
    outer loop
      vertex 0 9.95185 -0.735129
      vertex 0 9.98795 0.368008
      vertex 0 9.98795 -0.368008
    endloop
  endfacet
  facet normal -1 0 0
    outer loop
      vertex 0 9.95185 -0.735129
      vertex 0 9.95185 0.735129
      vertex 0 9.98795 0.368008
    endloop
  endfacet
  facet normal -1 0 0
    outer loop
      vertex 0 9.89176 -1.10048
      vertex 0 9.95185 0.735129
      vertex 0 9.95185 -0.735129
    endloop
  endfacet
  facet normal -1 0 0
    outer loop
      vertex 0 9.89176 -1.10048
      vertex 0 9.89176 1.10048
      vertex 0 9.95185 0.735129
    endloop
  endfacet
  facet normal -1 0 0
    outer loop
      vertex 0 9.80785 -1.46318
      vertex 0 9.89176 1.10048
      vertex 0 9.89176 -1.10048
    endloop
  endfacet
  facet normal -1 0 0
    outer loop
      vertex 0 9.80785 -1.46318
      vertex 0 9.80785 1.46318
      vertex 0 9.89176 1.10048
    endloop
  endfacet
  facet normal -1 0 0
    outer loop
      vertex 0 9.70031 -1.82235
      vertex 0 9.80785 1.46318
      vertex 0 9.80785 -1.46318
    endloop
  endfacet
  facet normal -1 0 0
    outer loop
      vertex 0 9.70031 -1.82235
      vertex 0 9.70031 1.82235
      vertex 0 9.80785 1.46318
    endloop
  endfacet
  facet normal -1 0 0
    outer loop
      vertex 0 9.5694 -2.17713
      vertex 0 9.70031 1.82235
      vertex 0 9.70031 -1.82235
    endloop
  endfacet
  facet normal -1 0 0
    outer loop
      vertex 0 9.5694 -2.17713
      vertex 0 9.5694 2.17713
      vertex 0 9.70031 1.82235
    endloop
  endfacet
  facet normal -1 0 0
    outer loop
      vertex 0 9.41544 -2.52667
      vertex 0 9.5694 2.17713
      vertex 0 9.5694 -2.17713
    endloop
  endfacet
  facet normal -1 0 0
    outer loop
      vertex 0 9.41544 -2.52667
      vertex 0 9.41544 2.52667
      vertex 0 9.5694 2.17713
    endloop
  endfacet
  facet normal -1 0 0
    outer loop
      vertex 0 9.2388 -2.87013
      vertex 0 9.41544 2.52667
      vertex 0 9.41544 -2.52667
    endloop
  endfacet
  facet normal -1 0 0
    outer loop
      vertex 0 9.2388 -2.87013
      vertex 0 9.2388 2.87013
      vertex 0 9.41544 2.52667
    endloop
  endfacet
  facet normal -1 0 0
    outer loop
      vertex 0 9.03989 -3.20666
      vertex 0 9.2388 2.87013
      vertex 0 9.2388 -2.87013
    endloop
  endfacet
  facet normal -1 0 0
    outer loop
      vertex 0 9.03989 -3.20666
      vertex 0 9.03989 3.20666
      vertex 0 9.2388 2.87013
    endloop
  endfacet
  facet normal -1 0 0
    outer loop
      vertex 0 8.81921 -3.53548
      vertex 0 9.03989 3.20666
      vertex 0 9.03989 -3.20666
    endloop
  endfacet
  facet normal -1 0 0
    outer loop
      vertex 0 8.81921 -3.53548
      vertex 0 8.81921 3.53548
      vertex 0 9.03989 3.20666
    endloop
  endfacet
  facet normal -1 0 0
    outer loop
      vertex 0 8.57729 -3.85577
      vertex 0 8.81921 3.53548
      vertex 0 8.81921 -3.53548
    endloop
  endfacet
  facet normal -1 0 0
    outer loop
      vertex 0 8.57729 -3.85577
      vertex 0 8.57729 3.85577
      vertex 0 8.81921 3.53548
    endloop
  endfacet
  facet normal -1 0 0
    outer loop
      vertex 0 8.3147 -4.16678
      vertex 0 8.57729 3.85577
      vertex 0 8.57729 -3.85577
    endloop
  endfacet
  facet normal -1 0 0
    outer loop
      vertex 0 8.3147 -4.16678
      vertex 0 8.3147 4.16678
      vertex 0 8.57729 3.85577
    endloop
  endfacet
  facet normal -1 0 0
    outer loop
      vertex 0 8.03207 -4.46774
      vertex 0 8.3147 4.16678
      vertex 0 8.3147 -4.16678
    endloop
  endfacet
  facet normal -1 0 0
    outer loop
      vertex 0 8.03207 -4.46774
      vertex 0 8.03207 4.46774
      vertex 0 8.3147 4.16678
    endloop
  endfacet
  facet normal -1 0 0
    outer loop
      vertex 0 7.7301 -4.75795
      vertex 0 8.03207 4.46774
      vertex 0 8.03207 -4.46774
    endloop
  endfacet
  facet normal -1 0 0
    outer loop
      vertex 0 7.7301 -4.75795
      vertex 0 7.7301 4.75795
      vertex 0 8.03207 4.46774
    endloop
  endfacet
  facet normal -1 0 0
    outer loop
      vertex 0 7.40951 -5.03669
      vertex 0 7.7301 4.75795
      vertex 0 7.7301 -4.75795
    endloop
  endfacet
  facet normal -1 0 0
    outer loop
      vertex 0 7.40951 -5.03669
      vertex 0 7.40951 5.03669
      vertex 0 7.7301 4.75795
    endloop
  endfacet
  facet normal -1 0 0
    outer loop
      vertex 0 7.07107 -5.3033
      vertex 0 7.40951 5.03669
      vertex 0 7.40951 -5.03669
    endloop
  endfacet
  facet normal -1 0 0
    outer loop
      vertex 0 7.07107 -5.3033
      vertex 0 7.07107 5.3033
      vertex 0 7.40951 5.03669
    endloop
  endfacet
  facet normal -1 0 0
    outer loop
      vertex 0 6.71559 -5.55713
      vertex 0 7.07107 5.3033
      vertex 0 7.07107 -5.3033
    endloop
  endfacet
  facet normal -1 0 0
    outer loop
      vertex 0 6.71559 -5.55713
      vertex 0 6.71559 5.55713
      vertex 0 7.07107 5.3033
    endloop
  endfacet
  facet normal -1 0 0
    outer loop
      vertex 0 6.34393 -5.79758
      vertex 0 6.71559 5.55713
      vertex 0 6.71559 -5.55713
    endloop
  endfacet
  facet normal -1 0 0
    outer loop
      vertex 0 6.34393 -5.79758
      vertex 0 6.34393 5.79758
      vertex 0 6.71559 5.55713
    endloop
  endfacet
  facet normal -1 0 0
    outer loop
      vertex 0 5.95699 -6.02406
      vertex 0 6.34393 5.79758
      vertex 0 6.34393 -5.79758
    endloop
  endfacet
  facet normal -1 0 0
    outer loop
      vertex 0 5.95699 -6.02406
      vertex 0 5.95699 6.02406
      vertex 0 6.34393 5.79758
    endloop
  endfacet
  facet normal -1 0 0
    outer loop
      vertex 0 5.5557 -6.23602
      vertex 0 5.95699 6.02406
      vertex 0 5.95699 -6.02406
    endloop
  endfacet
  facet normal -1 0 0
    outer loop
      vertex 0 5.5557 -6.23602
      vertex 0 5.5557 6.23602
      vertex 0 5.95699 6.02406
    endloop
  endfacet
  facet normal -1 0 0
    outer loop
      vertex 0 5.14103 -6.43296
      vertex 0 5.5557 6.23602
      vertex 0 5.5557 -6.23602
    endloop
  endfacet
  facet normal -1 0 0
    outer loop
      vertex 0 5.14103 -6.43296
      vertex 0 5.14103 6.43296
      vertex 0 5.5557 6.23602
    endloop
  endfacet
  facet normal -1 0 0
    outer loop
      vertex 0 4.71397 -6.61441
      vertex 0 5.14103 6.43296
      vertex 0 5.14103 -6.43296
    endloop
  endfacet
  facet normal -1 0 0
    outer loop
      vertex 0 4.71397 -6.61441
      vertex 0 4.71397 6.61441
      vertex 0 5.14103 6.43296
    endloop
  endfacet
  facet normal -1 0 0
    outer loop
      vertex 0 4.27555 -6.77992
      vertex 0 4.71397 6.61441
      vertex 0 4.71397 -6.61441
    endloop
  endfacet
  facet normal -1 0 0
    outer loop
      vertex 0 4.27555 -6.77992
      vertex 0 4.27555 6.77992
      vertex 0 4.71397 6.61441
    endloop
  endfacet
  facet normal -1 0 0
    outer loop
      vertex 0 3.82683 -6.9291
      vertex 0 4.27555 6.77992
      vertex 0 4.27555 -6.77992
    endloop
  endfacet
  facet normal -1 0 0
    outer loop
      vertex 0 3.82683 -6.9291
      vertex 0 3.82683 6.9291
      vertex 0 4.27555 6.77992
    endloop
  endfacet
  facet normal -1 0 0
    outer loop
      vertex 0 3.3689 -7.06158
      vertex 0 3.82683 6.9291
      vertex 0 3.82683 -6.9291
    endloop
  endfacet
  facet normal -1 0 0
    outer loop
      vertex 0 3.3689 -7.06158
      vertex 0 3.3689 7.06158
      vertex 0 3.82683 6.9291
    endloop
  endfacet
  facet normal -1 0 0
    outer loop
      vertex 0 2.90285 -7.17705
      vertex 0 3.3689 7.06158
      vertex 0 3.3689 -7.06158
    endloop
  endfacet
  facet normal -1 0 0
    outer loop
      vertex 0 2.90285 -7.17705
      vertex 0 2.90285 7.17705
      vertex 0 3.3689 7.06158
    endloop
  endfacet
  facet normal -1 0 0
    outer loop
      vertex 0 2.4298 -7.27523
      vertex 0 2.90285 7.17705
      vertex 0 2.90285 -7.17705
    endloop
  endfacet
  facet normal -1 0 0
    outer loop
      vertex 0 2.4298 -7.27523
      vertex 0 2.4298 7.27523
      vertex 0 2.90285 7.17705
    endloop
  endfacet
  facet normal -1 0 0
    outer loop
      vertex 0 1.9509 -7.35589
      vertex 0 2.4298 7.27523
      vertex 0 2.4298 -7.27523
    endloop
  endfacet
  facet normal -1 0 0
    outer loop
      vertex 0 1.9509 -7.35589
      vertex 0 1.9509 7.35589
      vertex 0 2.4298 7.27523
    endloop
  endfacet
  facet normal -1 0 0
    outer loop
      vertex 0 1.4673 -7.41882
      vertex 0 1.9509 7.35589
      vertex 0 1.9509 -7.35589
    endloop
  endfacet
  facet normal -1 0 0
    outer loop
      vertex 0 1.4673 -7.41882
      vertex 0 1.4673 7.41882
      vertex 0 1.9509 7.35589
    endloop
  endfacet
  facet normal -1 0 0
    outer loop
      vertex 0 0.980171 -7.46389
      vertex 0 1.4673 7.41882
      vertex 0 1.4673 -7.41882
    endloop
  endfacet
  facet normal -1 0 0
    outer loop
      vertex 0 0.980171 -7.46389
      vertex 0 0.980171 7.46389
      vertex 0 1.4673 7.41882
    endloop
  endfacet
  facet normal -1 0 0
    outer loop
      vertex 0 0.490677 -7.49097
      vertex 0 0.980171 7.46389
      vertex 0 0.980171 -7.46389
    endloop
  endfacet
  facet normal -1 0 0
    outer loop
      vertex 0 0.490677 -7.49097
      vertex 0 0.490677 7.49097
      vertex 0 0.980171 7.46389
    endloop
  endfacet
  facet normal -1 0 0
    outer loop
      vertex 0 0 -7.5
      vertex 0 0.490677 7.49097
      vertex 0 0.490677 -7.49097
    endloop
  endfacet
  facet normal -1 0 0
    outer loop
      vertex 0 0 -7.5
      vertex 0 0 7.5
      vertex 0 0.490677 7.49097
    endloop
  endfacet
  facet normal -1 0 0
    outer loop
      vertex 0 -0.490677 -7.49097
      vertex 0 0 7.5
      vertex 0 0 -7.5
    endloop
  endfacet
  facet normal -1 0 0
    outer loop
      vertex 0 -0.490677 -7.49097
      vertex 0 -0.490677 7.49097
      vertex 0 0 7.5
    endloop
  endfacet
  facet normal -1 0 0
    outer loop
      vertex 0 -0.980171 -7.46389
      vertex 0 -0.490677 7.49097
      vertex 0 -0.490677 -7.49097
    endloop
  endfacet
  facet normal -1 0 0
    outer loop
      vertex 0 -0.980171 -7.46389
      vertex 0 -0.980171 7.46389
      vertex 0 -0.490677 7.49097
    endloop
  endfacet
  facet normal -1 0 0
    outer loop
      vertex 0 -1.4673 -7.41882
      vertex 0 -0.980171 7.46389
      vertex 0 -0.980171 -7.46389
    endloop
  endfacet
  facet normal -1 0 0
    outer loop
      vertex 0 -1.4673 -7.41882
      vertex 0 -1.4673 7.41882
      vertex 0 -0.980171 7.46389
    endloop
  endfacet
  facet normal -1 0 0
    outer loop
      vertex 0 -1.9509 -7.35589
      vertex 0 -1.4673 7.41882
      vertex 0 -1.4673 -7.41882
    endloop
  endfacet
  facet normal -1 0 0
    outer loop
      vertex 0 -1.9509 -7.35589
      vertex 0 -1.9509 7.35589
      vertex 0 -1.4673 7.41882
    endloop
  endfacet
  facet normal -1 0 0
    outer loop
      vertex 0 -2.4298 -7.27523
      vertex 0 -1.9509 7.35589
      vertex 0 -1.9509 -7.35589
    endloop
  endfacet
  facet normal -1 0 0
    outer loop
      vertex 0 -2.4298 -7.27523
      vertex 0 -2.4298 7.27523
      vertex 0 -1.9509 7.35589
    endloop
  endfacet
  facet normal -1 0 0
    outer loop
      vertex 0 -2.90285 -7.17705
      vertex 0 -2.4298 7.27523
      vertex 0 -2.4298 -7.27523
    endloop
  endfacet
  facet normal -1 0 0
    outer loop
      vertex 0 -2.90285 -7.17705
      vertex 0 -2.90285 7.17705
      vertex 0 -2.4298 7.27523
    endloop
  endfacet
  facet normal -1 0 0
    outer loop
      vertex 0 -3.3689 -7.06158
      vertex 0 -2.90285 7.17705
      vertex 0 -2.90285 -7.17705
    endloop
  endfacet
  facet normal -1 0 0
    outer loop
      vertex 0 -3.3689 -7.06158
      vertex 0 -3.3689 7.06158
      vertex 0 -2.90285 7.17705
    endloop
  endfacet
  facet normal -1 0 0
    outer loop
      vertex 0 -3.82683 -6.9291
      vertex 0 -3.3689 7.06158
      vertex 0 -3.3689 -7.06158
    endloop
  endfacet
  facet normal -1 0 0
    outer loop
      vertex 0 -3.82683 -6.9291
      vertex 0 -3.82683 6.9291
      vertex 0 -3.3689 7.06158
    endloop
  endfacet
  facet normal -1 0 0
    outer loop
      vertex 0 -4.27555 -6.77992
      vertex 0 -3.82683 6.9291
      vertex 0 -3.82683 -6.9291
    endloop
  endfacet
  facet normal -1 0 0
    outer loop
      vertex 0 -4.27555 -6.77992
      vertex 0 -4.27555 6.77992
      vertex 0 -3.82683 6.9291
    endloop
  endfacet
  facet normal -1 0 0
    outer loop
      vertex 0 -4.71397 -6.61441
      vertex 0 -4.27555 6.77992
      vertex 0 -4.27555 -6.77992
    endloop
  endfacet
  facet normal -1 0 0
    outer loop
      vertex 0 -4.71397 -6.61441
      vertex 0 -4.71397 6.61441
      vertex 0 -4.27555 6.77992
    endloop
  endfacet
  facet normal -1 0 0
    outer loop
      vertex 0 -5.14103 -6.43296
      vertex 0 -4.71397 6.61441
      vertex 0 -4.71397 -6.61441
    endloop
  endfacet
  facet normal -1 0 0
    outer loop
      vertex 0 -5.14103 -6.43296
      vertex 0 -5.14103 6.43296
      vertex 0 -4.71397 6.61441
    endloop
  endfacet
  facet normal -1 0 0
    outer loop
      vertex 0 -5.5557 -6.23602
      vertex 0 -5.14103 6.43296
      vertex 0 -5.14103 -6.43296
    endloop
  endfacet
  facet normal -1 0 0
    outer loop
      vertex 0 -5.5557 -6.23602
      vertex 0 -5.5557 6.23602
      vertex 0 -5.14103 6.43296
    endloop
  endfacet
  facet normal -1 0 0
    outer loop
      vertex 0 -5.95699 -6.02406
      vertex 0 -5.5557 6.23602
      vertex 0 -5.5557 -6.23602
    endloop
  endfacet
  facet normal -1 0 0
    outer loop
      vertex 0 -5.95699 -6.02406
      vertex 0 -5.95699 6.02406
      vertex 0 -5.5557 6.23602
    endloop
  endfacet
  facet normal -1 0 0
    outer loop
      vertex 0 -6.34393 -5.79758
      vertex 0 -5.95699 6.02406
      vertex 0 -5.95699 -6.02406
    endloop
  endfacet
  facet normal -1 0 0
    outer loop
      vertex 0 -6.34393 -5.79758
      vertex 0 -6.34393 5.79758
      vertex 0 -5.95699 6.02406
    endloop
  endfacet
  facet normal -1 0 0
    outer loop
      vertex 0 -6.71559 -5.55713
      vertex 0 -6.34393 5.79758
      vertex 0 -6.34393 -5.79758
    endloop
  endfacet
  facet normal -1 0 0
    outer loop
      vertex 0 -6.71559 -5.55713
      vertex 0 -6.71559 5.55713
      vertex 0 -6.34393 5.79758
    endloop
  endfacet
  facet normal -1 0 0
    outer loop
      vertex 0 -7.07107 -5.3033
      vertex 0 -6.71559 5.55713
      vertex 0 -6.71559 -5.55713
    endloop
  endfacet
  facet normal -1 0 0
    outer loop
      vertex 0 -7.07107 -5.3033
      vertex 0 -7.07107 5.3033
      vertex 0 -6.71559 5.55713
    endloop
  endfacet
  facet normal -1 0 0
    outer loop
      vertex 0 -7.40951 -5.03669
      vertex 0 -7.07107 5.3033
      vertex 0 -7.07107 -5.3033
    endloop
  endfacet
  facet normal -1 0 0
    outer loop
      vertex 0 -7.40951 -5.03669
      vertex 0 -7.40951 5.03669
      vertex 0 -7.07107 5.3033
    endloop
  endfacet
  facet normal -1 0 0
    outer loop
      vertex 0 -7.7301 -4.75795
      vertex 0 -7.40951 5.03669
      vertex 0 -7.40951 -5.03669
    endloop
  endfacet
  facet normal -1 0 0
    outer loop
      vertex 0 -7.7301 -4.75795
      vertex 0 -7.7301 4.75795
      vertex 0 -7.40951 5.03669
    endloop
  endfacet
  facet normal -1 0 0
    outer loop
      vertex 0 -8.03207 -4.46774
      vertex 0 -7.7301 4.75795
      vertex 0 -7.7301 -4.75795
    endloop
  endfacet
  facet normal -1 0 0
    outer loop
      vertex 0 -8.03207 -4.46774
      vertex 0 -8.03207 4.46774
      vertex 0 -7.7301 4.75795
    endloop
  endfacet
  facet normal -1 0 0
    outer loop
      vertex 0 -8.3147 -4.16678
      vertex 0 -8.03207 4.46774
      vertex 0 -8.03207 -4.46774
    endloop
  endfacet
  facet normal -1 0 0
    outer loop
      vertex 0 -8.3147 -4.16678
      vertex 0 -8.3147 4.16678
      vertex 0 -8.03207 4.46774
    endloop
  endfacet
  facet normal -1 0 0
    outer loop
      vertex 0 -8.57729 -3.85577
      vertex 0 -8.3147 4.16678
      vertex 0 -8.3147 -4.16678
    endloop
  endfacet
  facet normal -1 0 0
    outer loop
      vertex 0 -8.57729 -3.85577
      vertex 0 -8.57729 3.85577
      vertex 0 -8.3147 4.16678
    endloop
  endfacet
  facet normal -1 0 0
    outer loop
      vertex 0 -8.81921 -3.53548
      vertex 0 -8.57729 3.85577
      vertex 0 -8.57729 -3.85577
    endloop
  endfacet
  facet normal -1 0 0
    outer loop
      vertex 0 -8.81921 -3.53548
      vertex 0 -8.81921 3.53548
      vertex 0 -8.57729 3.85577
    endloop
  endfacet
  facet normal -1 0 0
    outer loop
      vertex 0 -9.03989 -3.20666
      vertex 0 -8.81921 3.53548
      vertex 0 -8.81921 -3.53548
    endloop
  endfacet
  facet normal -1 0 0
    outer loop
      vertex 0 -9.03989 -3.20666
      vertex 0 -9.03989 3.20666
      vertex 0 -8.81921 3.53548
    endloop
  endfacet
  facet normal -1 0 0
    outer loop
      vertex 0 -9.2388 -2.87013
      vertex 0 -9.03989 3.20666
      vertex 0 -9.03989 -3.20666
    endloop
  endfacet
  facet normal -1 0 0
    outer loop
      vertex 0 -9.2388 -2.87013
      vertex 0 -9.2388 2.87013
      vertex 0 -9.03989 3.20666
    endloop
  endfacet
  facet normal -1 0 0
    outer loop
      vertex 0 -9.41544 -2.52667
      vertex 0 -9.2388 2.87013
      vertex 0 -9.2388 -2.87013
    endloop
  endfacet
  facet normal -1 0 0
    outer loop
      vertex 0 -9.41544 -2.52667
      vertex 0 -9.41544 2.52667
      vertex 0 -9.2388 2.87013
    endloop
  endfacet
  facet normal -1 0 0
    outer loop
      vertex 0 -9.5694 -2.17713
      vertex 0 -9.41544 2.52667
      vertex 0 -9.41544 -2.52667
    endloop
  endfacet
  facet normal -1 0 0
    outer loop
      vertex 0 -9.5694 -2.17713
      vertex 0 -9.5694 2.17713
      vertex 0 -9.41544 2.52667
    endloop
  endfacet
  facet normal -1 0 0
    outer loop
      vertex 0 -9.70031 -1.82235
      vertex 0 -9.5694 2.17713
      vertex 0 -9.5694 -2.17713
    endloop
  endfacet
  facet normal -1 0 0
    outer loop
      vertex 0 -9.70031 -1.82235
      vertex 0 -9.70031 1.82235
      vertex 0 -9.5694 2.17713
    endloop
  endfacet
  facet normal -1 0 0
    outer loop
      vertex 0 -9.80785 -1.46318
      vertex 0 -9.70031 1.82235
      vertex 0 -9.70031 -1.82235
    endloop
  endfacet
  facet normal -1 0 0
    outer loop
      vertex 0 -9.80785 -1.46318
      vertex 0 -9.80785 1.46318
      vertex 0 -9.70031 1.82235
    endloop
  endfacet
  facet normal -1 0 0
    outer loop
      vertex 0 -9.89176 -1.10048
      vertex 0 -9.80785 1.46318
      vertex 0 -9.80785 -1.46318
    endloop
  endfacet
  facet normal -1 0 0
    outer loop
      vertex 0 -9.89176 -1.10048
      vertex 0 -9.89176 1.10048
      vertex 0 -9.80785 1.46318
    endloop
  endfacet
  facet normal -1 0 0
    outer loop
      vertex 0 -9.95185 -0.735129
      vertex 0 -9.89176 1.10048
      vertex 0 -9.89176 -1.10048
    endloop
  endfacet
  facet normal -1 0 0
    outer loop
      vertex 0 -9.95185 -0.735129
      vertex 0 -9.95185 0.735129
      vertex 0 -9.89176 1.10048
    endloop
  endfacet
  facet normal -1 0 0
    outer loop
      vertex 0 -9.98795 -0.368008
      vertex 0 -9.95185 0.735129
      vertex 0 -9.95185 -0.735129
    endloop
  endfacet
  facet normal -1 0 0
    outer loop
      vertex 0 -9.98795 -0.368008
      vertex 0 -9.98795 0.368008
      vertex 0 -9.95185 0.735129
    endloop
  endfacet
  facet normal -1 0 -0
    outer loop
      vertex 0 -9.98795 0.368008
      vertex 0 -9.98795 -0.368008
      vertex 0 -10 0
    endloop
  endfacet
  facet normal 1 0 0
    outer loop
      vertex 150 9.98795 0.368008
      vertex 150 9.98795 -0.368008
      vertex 150 10 0
    endloop
  endfacet
  facet normal 1 0 0
    outer loop
      vertex 150 9.95185 0.735129
      vertex 150 9.98795 -0.368008
      vertex 150 9.98795 0.368008
    endloop
  endfacet
  facet normal 1 0 0
    outer loop
      vertex 150 9.95185 0.735129
      vertex 150 9.95185 -0.735129
      vertex 150 9.98795 -0.368008
    endloop
  endfacet
  facet normal 1 0 0
    outer loop
      vertex 150 9.89176 1.10048
      vertex 150 9.95185 -0.735129
      vertex 150 9.95185 0.735129
    endloop
  endfacet
  facet normal 1 0 0
    outer loop
      vertex 150 9.89176 1.10048
      vertex 150 9.89176 -1.10048
      vertex 150 9.95185 -0.735129
    endloop
  endfacet
  facet normal 1 0 0
    outer loop
      vertex 150 9.80785 1.46318
      vertex 150 9.89176 -1.10048
      vertex 150 9.89176 1.10048
    endloop
  endfacet
  facet normal 1 0 0
    outer loop
      vertex 150 9.80785 1.46318
      vertex 150 9.80785 -1.46318
      vertex 150 9.89176 -1.10048
    endloop
  endfacet
  facet normal 1 0 0
    outer loop
      vertex 150 9.70031 1.82235
      vertex 150 9.80785 -1.46318
      vertex 150 9.80785 1.46318
    endloop
  endfacet
  facet normal 1 0 0
    outer loop
      vertex 150 9.70031 1.82235
      vertex 150 9.70031 -1.82235
      vertex 150 9.80785 -1.46318
    endloop
  endfacet
  facet normal 1 0 0
    outer loop
      vertex 150 9.5694 2.17713
      vertex 150 9.70031 -1.82235
      vertex 150 9.70031 1.82235
    endloop
  endfacet
  facet normal 1 0 0
    outer loop
      vertex 150 9.5694 2.17713
      vertex 150 9.5694 -2.17713
      vertex 150 9.70031 -1.82235
    endloop
  endfacet
  facet normal 1 0 0
    outer loop
      vertex 150 9.41544 2.52667
      vertex 150 9.5694 -2.17713
      vertex 150 9.5694 2.17713
    endloop
  endfacet
  facet normal 1 0 0
    outer loop
      vertex 150 9.41544 2.52667
      vertex 150 9.41544 -2.52667
      vertex 150 9.5694 -2.17713
    endloop
  endfacet
  facet normal 1 0 0
    outer loop
      vertex 150 9.2388 2.87013
      vertex 150 9.41544 -2.52667
      vertex 150 9.41544 2.52667
    endloop
  endfacet
  facet normal 1 0 0
    outer loop
      vertex 150 9.2388 2.87013
      vertex 150 9.2388 -2.87013
      vertex 150 9.41544 -2.52667
    endloop
  endfacet
  facet normal 1 0 0
    outer loop
      vertex 150 9.03989 3.20666
      vertex 150 9.2388 -2.87013
      vertex 150 9.2388 2.87013
    endloop
  endfacet
  facet normal 1 0 0
    outer loop
      vertex 150 9.03989 3.20666
      vertex 150 9.03989 -3.20666
      vertex 150 9.2388 -2.87013
    endloop
  endfacet
  facet normal 1 0 0
    outer loop
      vertex 150 8.81921 3.53548
      vertex 150 9.03989 -3.20666
      vertex 150 9.03989 3.20666
    endloop
  endfacet
  facet normal 1 0 0
    outer loop
      vertex 150 8.81921 3.53548
      vertex 150 8.81921 -3.53548
      vertex 150 9.03989 -3.20666
    endloop
  endfacet
  facet normal 1 0 0
    outer loop
      vertex 150 8.57729 3.85577
      vertex 150 8.81921 -3.53548
      vertex 150 8.81921 3.53548
    endloop
  endfacet
  facet normal 1 0 0
    outer loop
      vertex 150 8.57729 3.85577
      vertex 150 8.57729 -3.85577
      vertex 150 8.81921 -3.53548
    endloop
  endfacet
  facet normal 1 0 0
    outer loop
      vertex 150 8.3147 4.16678
      vertex 150 8.57729 -3.85577
      vertex 150 8.57729 3.85577
    endloop
  endfacet
  facet normal 1 0 0
    outer loop
      vertex 150 8.3147 4.16678
      vertex 150 8.3147 -4.16678
      vertex 150 8.57729 -3.85577
    endloop
  endfacet
  facet normal 1 0 0
    outer loop
      vertex 150 8.03207 4.46774
      vertex 150 8.3147 -4.16678
      vertex 150 8.3147 4.16678
    endloop
  endfacet
  facet normal 1 0 0
    outer loop
      vertex 150 8.03207 4.46774
      vertex 150 8.03207 -4.46774
      vertex 150 8.3147 -4.16678
    endloop
  endfacet
  facet normal 1 0 0
    outer loop
      vertex 150 7.7301 4.75795
      vertex 150 8.03207 -4.46774
      vertex 150 8.03207 4.46774
    endloop
  endfacet
  facet normal 1 0 0
    outer loop
      vertex 150 7.7301 4.75795
      vertex 150 7.7301 -4.75795
      vertex 150 8.03207 -4.46774
    endloop
  endfacet
  facet normal 1 0 0
    outer loop
      vertex 150 7.40951 5.03669
      vertex 150 7.7301 -4.75795
      vertex 150 7.7301 4.75795
    endloop
  endfacet
  facet normal 1 0 0
    outer loop
      vertex 150 7.40951 5.03669
      vertex 150 7.40951 -5.03669
      vertex 150 7.7301 -4.75795
    endloop
  endfacet
  facet normal 1 0 0
    outer loop
      vertex 150 7.07107 5.3033
      vertex 150 7.40951 -5.03669
      vertex 150 7.40951 5.03669
    endloop
  endfacet
  facet normal 1 0 0
    outer loop
      vertex 150 7.07107 5.3033
      vertex 150 7.07107 -5.3033
      vertex 150 7.40951 -5.03669
    endloop
  endfacet
  facet normal 1 0 0
    outer loop
      vertex 150 6.71559 5.55713
      vertex 150 7.07107 -5.3033
      vertex 150 7.07107 5.3033
    endloop
  endfacet
  facet normal 1 0 0
    outer loop
      vertex 150 6.71559 5.55713
      vertex 150 6.71559 -5.55713
      vertex 150 7.07107 -5.3033
    endloop
  endfacet
  facet normal 1 0 0
    outer loop
      vertex 150 6.34393 5.79758
      vertex 150 6.71559 -5.55713
      vertex 150 6.71559 5.55713
    endloop
  endfacet
  facet normal 1 0 0
    outer loop
      vertex 150 6.34393 5.79758
      vertex 150 6.34393 -5.79758
      vertex 150 6.71559 -5.55713
    endloop
  endfacet
  facet normal 1 0 0
    outer loop
      vertex 150 5.95699 6.02406
      vertex 150 6.34393 -5.79758
      vertex 150 6.34393 5.79758
    endloop
  endfacet
  facet normal 1 0 0
    outer loop
      vertex 150 5.95699 6.02406
      vertex 150 5.95699 -6.02406
      vertex 150 6.34393 -5.79758
    endloop
  endfacet
  facet normal 1 0 0
    outer loop
      vertex 150 5.5557 6.23602
      vertex 150 5.95699 -6.02406
      vertex 150 5.95699 6.02406
    endloop
  endfacet
  facet normal 1 0 0
    outer loop
      vertex 150 5.5557 6.23602
      vertex 150 5.5557 -6.23602
      vertex 150 5.95699 -6.02406
    endloop
  endfacet
  facet normal 1 0 0
    outer loop
      vertex 150 5.14103 6.43296
      vertex 150 5.5557 -6.23602
      vertex 150 5.5557 6.23602
    endloop
  endfacet
  facet normal 1 0 0
    outer loop
      vertex 150 5.14103 6.43296
      vertex 150 5.14103 -6.43296
      vertex 150 5.5557 -6.23602
    endloop
  endfacet
  facet normal 1 0 0
    outer loop
      vertex 150 4.71397 6.61441
      vertex 150 5.14103 -6.43296
      vertex 150 5.14103 6.43296
    endloop
  endfacet
  facet normal 1 0 0
    outer loop
      vertex 150 4.71397 6.61441
      vertex 150 4.71397 -6.61441
      vertex 150 5.14103 -6.43296
    endloop
  endfacet
  facet normal 1 0 0
    outer loop
      vertex 150 4.27555 6.77992
      vertex 150 4.71397 -6.61441
      vertex 150 4.71397 6.61441
    endloop
  endfacet
  facet normal 1 0 0
    outer loop
      vertex 150 4.27555 6.77992
      vertex 150 4.27555 -6.77992
      vertex 150 4.71397 -6.61441
    endloop
  endfacet
  facet normal 1 0 0
    outer loop
      vertex 150 3.82683 6.9291
      vertex 150 4.27555 -6.77992
      vertex 150 4.27555 6.77992
    endloop
  endfacet
  facet normal 1 0 0
    outer loop
      vertex 150 3.82683 6.9291
      vertex 150 3.82683 -6.9291
      vertex 150 4.27555 -6.77992
    endloop
  endfacet
  facet normal 1 0 0
    outer loop
      vertex 150 3.3689 7.06158
      vertex 150 3.82683 -6.9291
      vertex 150 3.82683 6.9291
    endloop
  endfacet
  facet normal 1 0 0
    outer loop
      vertex 150 3.3689 7.06158
      vertex 150 3.3689 -7.06158
      vertex 150 3.82683 -6.9291
    endloop
  endfacet
  facet normal 1 0 0
    outer loop
      vertex 150 2.90285 7.17705
      vertex 150 3.3689 -7.06158
      vertex 150 3.3689 7.06158
    endloop
  endfacet
  facet normal 1 0 0
    outer loop
      vertex 150 2.90285 7.17705
      vertex 150 2.90285 -7.17705
      vertex 150 3.3689 -7.06158
    endloop
  endfacet
  facet normal 1 0 0
    outer loop
      vertex 150 2.4298 7.27523
      vertex 150 2.90285 -7.17705
      vertex 150 2.90285 7.17705
    endloop
  endfacet
  facet normal 1 0 0
    outer loop
      vertex 150 2.4298 7.27523
      vertex 150 2.4298 -7.27523
      vertex 150 2.90285 -7.17705
    endloop
  endfacet
  facet normal 1 0 0
    outer loop
      vertex 150 1.9509 7.35589
      vertex 150 2.4298 -7.27523
      vertex 150 2.4298 7.27523
    endloop
  endfacet
  facet normal 1 0 0
    outer loop
      vertex 150 1.9509 7.35589
      vertex 150 1.9509 -7.35589
      vertex 150 2.4298 -7.27523
    endloop
  endfacet
  facet normal 1 0 0
    outer loop
      vertex 150 1.4673 7.41882
      vertex 150 1.9509 -7.35589
      vertex 150 1.9509 7.35589
    endloop
  endfacet
  facet normal 1 0 0
    outer loop
      vertex 150 1.4673 7.41882
      vertex 150 1.4673 -7.41882
      vertex 150 1.9509 -7.35589
    endloop
  endfacet
  facet normal 1 0 0
    outer loop
      vertex 150 0.980171 7.46389
      vertex 150 1.4673 -7.41882
      vertex 150 1.4673 7.41882
    endloop
  endfacet
  facet normal 1 0 0
    outer loop
      vertex 150 0.980171 7.46389
      vertex 150 0.980171 -7.46389
      vertex 150 1.4673 -7.41882
    endloop
  endfacet
  facet normal 1 0 0
    outer loop
      vertex 150 0.490677 7.49097
      vertex 150 0.980171 -7.46389
      vertex 150 0.980171 7.46389
    endloop
  endfacet
  facet normal 1 0 0
    outer loop
      vertex 150 0.490677 7.49097
      vertex 150 0.490677 -7.49097
      vertex 150 0.980171 -7.46389
    endloop
  endfacet
  facet normal 1 0 0
    outer loop
      vertex 150 0 7.5
      vertex 150 0.490677 -7.49097
      vertex 150 0.490677 7.49097
    endloop
  endfacet
  facet normal 1 0 0
    outer loop
      vertex 150 0 7.5
      vertex 150 0 -7.5
      vertex 150 0.490677 -7.49097
    endloop
  endfacet
  facet normal 1 -0 0
    outer loop
      vertex 150 -0.490677 7.49097
      vertex 150 0 -7.5
      vertex 150 0 7.5
    endloop
  endfacet
  facet normal 1 0 0
    outer loop
      vertex 150 -0.490677 7.49097
      vertex 150 -0.490677 -7.49097
      vertex 150 0 -7.5
    endloop
  endfacet
  facet normal 1 -0 0
    outer loop
      vertex 150 -0.980171 7.46389
      vertex 150 -0.490677 -7.49097
      vertex 150 -0.490677 7.49097
    endloop
  endfacet
  facet normal 1 0 0
    outer loop
      vertex 150 -0.980171 7.46389
      vertex 150 -0.980171 -7.46389
      vertex 150 -0.490677 -7.49097
    endloop
  endfacet
  facet normal 1 -0 0
    outer loop
      vertex 150 -1.4673 7.41882
      vertex 150 -0.980171 -7.46389
      vertex 150 -0.980171 7.46389
    endloop
  endfacet
  facet normal 1 0 0
    outer loop
      vertex 150 -1.4673 7.41882
      vertex 150 -1.4673 -7.41882
      vertex 150 -0.980171 -7.46389
    endloop
  endfacet
  facet normal 1 -0 0
    outer loop
      vertex 150 -1.9509 7.35589
      vertex 150 -1.4673 -7.41882
      vertex 150 -1.4673 7.41882
    endloop
  endfacet
  facet normal 1 0 0
    outer loop
      vertex 150 -1.9509 7.35589
      vertex 150 -1.9509 -7.35589
      vertex 150 -1.4673 -7.41882
    endloop
  endfacet
  facet normal 1 -0 0
    outer loop
      vertex 150 -2.4298 7.27523
      vertex 150 -1.9509 -7.35589
      vertex 150 -1.9509 7.35589
    endloop
  endfacet
  facet normal 1 0 0
    outer loop
      vertex 150 -2.4298 7.27523
      vertex 150 -2.4298 -7.27523
      vertex 150 -1.9509 -7.35589
    endloop
  endfacet
  facet normal 1 -0 0
    outer loop
      vertex 150 -2.90285 7.17705
      vertex 150 -2.4298 -7.27523
      vertex 150 -2.4298 7.27523
    endloop
  endfacet
  facet normal 1 0 0
    outer loop
      vertex 150 -2.90285 7.17705
      vertex 150 -2.90285 -7.17705
      vertex 150 -2.4298 -7.27523
    endloop
  endfacet
  facet normal 1 -0 0
    outer loop
      vertex 150 -3.3689 7.06158
      vertex 150 -2.90285 -7.17705
      vertex 150 -2.90285 7.17705
    endloop
  endfacet
  facet normal 1 0 0
    outer loop
      vertex 150 -3.3689 7.06158
      vertex 150 -3.3689 -7.06158
      vertex 150 -2.90285 -7.17705
    endloop
  endfacet
  facet normal 1 -0 0
    outer loop
      vertex 150 -3.82683 6.9291
      vertex 150 -3.3689 -7.06158
      vertex 150 -3.3689 7.06158
    endloop
  endfacet
  facet normal 1 0 0
    outer loop
      vertex 150 -3.82683 6.9291
      vertex 150 -3.82683 -6.9291
      vertex 150 -3.3689 -7.06158
    endloop
  endfacet
  facet normal 1 -0 0
    outer loop
      vertex 150 -4.27555 6.77992
      vertex 150 -3.82683 -6.9291
      vertex 150 -3.82683 6.9291
    endloop
  endfacet
  facet normal 1 0 0
    outer loop
      vertex 150 -4.27555 6.77992
      vertex 150 -4.27555 -6.77992
      vertex 150 -3.82683 -6.9291
    endloop
  endfacet
  facet normal 1 -0 0
    outer loop
      vertex 150 -4.71397 6.61441
      vertex 150 -4.27555 -6.77992
      vertex 150 -4.27555 6.77992
    endloop
  endfacet
  facet normal 1 0 0
    outer loop
      vertex 150 -4.71397 6.61441
      vertex 150 -4.71397 -6.61441
      vertex 150 -4.27555 -6.77992
    endloop
  endfacet
  facet normal 1 -0 0
    outer loop
      vertex 150 -5.14103 6.43296
      vertex 150 -4.71397 -6.61441
      vertex 150 -4.71397 6.61441
    endloop
  endfacet
  facet normal 1 0 0
    outer loop
      vertex 150 -5.14103 6.43296
      vertex 150 -5.14103 -6.43296
      vertex 150 -4.71397 -6.61441
    endloop
  endfacet
  facet normal 1 -0 0
    outer loop
      vertex 150 -5.5557 6.23602
      vertex 150 -5.14103 -6.43296
      vertex 150 -5.14103 6.43296
    endloop
  endfacet
  facet normal 1 0 0
    outer loop
      vertex 150 -5.5557 6.23602
      vertex 150 -5.5557 -6.23602
      vertex 150 -5.14103 -6.43296
    endloop
  endfacet
  facet normal 1 -0 0
    outer loop
      vertex 150 -5.95699 6.02406
      vertex 150 -5.5557 -6.23602
      vertex 150 -5.5557 6.23602
    endloop
  endfacet
  facet normal 1 0 0
    outer loop
      vertex 150 -5.95699 6.02406
      vertex 150 -5.95699 -6.02406
      vertex 150 -5.5557 -6.23602
    endloop
  endfacet
  facet normal 1 -0 0
    outer loop
      vertex 150 -6.34393 5.79758
      vertex 150 -5.95699 -6.02406
      vertex 150 -5.95699 6.02406
    endloop
  endfacet
  facet normal 1 0 0
    outer loop
      vertex 150 -6.34393 5.79758
      vertex 150 -6.34393 -5.79758
      vertex 150 -5.95699 -6.02406
    endloop
  endfacet
  facet normal 1 -0 0
    outer loop
      vertex 150 -6.71559 5.55713
      vertex 150 -6.34393 -5.79758
      vertex 150 -6.34393 5.79758
    endloop
  endfacet
  facet normal 1 0 0
    outer loop
      vertex 150 -6.71559 5.55713
      vertex 150 -6.71559 -5.55713
      vertex 150 -6.34393 -5.79758
    endloop
  endfacet
  facet normal 1 -0 0
    outer loop
      vertex 150 -7.07107 5.3033
      vertex 150 -6.71559 -5.55713
      vertex 150 -6.71559 5.55713
    endloop
  endfacet
  facet normal 1 0 0
    outer loop
      vertex 150 -7.07107 5.3033
      vertex 150 -7.07107 -5.3033
      vertex 150 -6.71559 -5.55713
    endloop
  endfacet
  facet normal 1 -0 0
    outer loop
      vertex 150 -7.40951 5.03669
      vertex 150 -7.07107 -5.3033
      vertex 150 -7.07107 5.3033
    endloop
  endfacet
  facet normal 1 0 0
    outer loop
      vertex 150 -7.40951 5.03669
      vertex 150 -7.40951 -5.03669
      vertex 150 -7.07107 -5.3033
    endloop
  endfacet
  facet normal 1 -0 0
    outer loop
      vertex 150 -7.7301 4.75795
      vertex 150 -7.40951 -5.03669
      vertex 150 -7.40951 5.03669
    endloop
  endfacet
  facet normal 1 0 0
    outer loop
      vertex 150 -7.7301 4.75795
      vertex 150 -7.7301 -4.75795
      vertex 150 -7.40951 -5.03669
    endloop
  endfacet
  facet normal 1 -0 0
    outer loop
      vertex 150 -8.03207 4.46774
      vertex 150 -7.7301 -4.75795
      vertex 150 -7.7301 4.75795
    endloop
  endfacet
  facet normal 1 0 0
    outer loop
      vertex 150 -8.03207 4.46774
      vertex 150 -8.03207 -4.46774
      vertex 150 -7.7301 -4.75795
    endloop
  endfacet
  facet normal 1 -0 0
    outer loop
      vertex 150 -8.3147 4.16678
      vertex 150 -8.03207 -4.46774
      vertex 150 -8.03207 4.46774
    endloop
  endfacet
  facet normal 1 0 0
    outer loop
      vertex 150 -8.3147 4.16678
      vertex 150 -8.3147 -4.16678
      vertex 150 -8.03207 -4.46774
    endloop
  endfacet
  facet normal 1 -0 0
    outer loop
      vertex 150 -8.57729 3.85577
      vertex 150 -8.3147 -4.16678
      vertex 150 -8.3147 4.16678
    endloop
  endfacet
  facet normal 1 0 0
    outer loop
      vertex 150 -8.57729 3.85577
      vertex 150 -8.57729 -3.85577
      vertex 150 -8.3147 -4.16678
    endloop
  endfacet
  facet normal 1 -0 0
    outer loop
      vertex 150 -8.81921 3.53548
      vertex 150 -8.57729 -3.85577
      vertex 150 -8.57729 3.85577
    endloop
  endfacet
  facet normal 1 0 0
    outer loop
      vertex 150 -8.81921 3.53548
      vertex 150 -8.81921 -3.53548
      vertex 150 -8.57729 -3.85577
    endloop
  endfacet
  facet normal 1 -0 0
    outer loop
      vertex 150 -9.03989 3.20666
      vertex 150 -8.81921 -3.53548
      vertex 150 -8.81921 3.53548
    endloop
  endfacet
  facet normal 1 0 0
    outer loop
      vertex 150 -9.03989 3.20666
      vertex 150 -9.03989 -3.20666
      vertex 150 -8.81921 -3.53548
    endloop
  endfacet
  facet normal 1 -0 0
    outer loop
      vertex 150 -9.2388 2.87013
      vertex 150 -9.03989 -3.20666
      vertex 150 -9.03989 3.20666
    endloop
  endfacet
  facet normal 1 0 0
    outer loop
      vertex 150 -9.2388 2.87013
      vertex 150 -9.2388 -2.87013
      vertex 150 -9.03989 -3.20666
    endloop
  endfacet
  facet normal 1 -0 0
    outer loop
      vertex 150 -9.41544 2.52667
      vertex 150 -9.2388 -2.87013
      vertex 150 -9.2388 2.87013
    endloop
  endfacet
  facet normal 1 0 0
    outer loop
      vertex 150 -9.41544 2.52667
      vertex 150 -9.41544 -2.52667
      vertex 150 -9.2388 -2.87013
    endloop
  endfacet
  facet normal 1 -0 0
    outer loop
      vertex 150 -9.5694 2.17713
      vertex 150 -9.41544 -2.52667
      vertex 150 -9.41544 2.52667
    endloop
  endfacet
  facet normal 1 0 0
    outer loop
      vertex 150 -9.5694 2.17713
      vertex 150 -9.5694 -2.17713
      vertex 150 -9.41544 -2.52667
    endloop
  endfacet
  facet normal 1 -0 0
    outer loop
      vertex 150 -9.70031 1.82235
      vertex 150 -9.5694 -2.17713
      vertex 150 -9.5694 2.17713
    endloop
  endfacet
  facet normal 1 0 0
    outer loop
      vertex 150 -9.70031 1.82235
      vertex 150 -9.70031 -1.82235
      vertex 150 -9.5694 -2.17713
    endloop
  endfacet
  facet normal 1 -0 0
    outer loop
      vertex 150 -9.80785 1.46318
      vertex 150 -9.70031 -1.82235
      vertex 150 -9.70031 1.82235
    endloop
  endfacet
  facet normal 1 0 0
    outer loop
      vertex 150 -9.80785 1.46318
      vertex 150 -9.80785 -1.46318
      vertex 150 -9.70031 -1.82235
    endloop
  endfacet
  facet normal 1 -0 0
    outer loop
      vertex 150 -9.89176 1.10048
      vertex 150 -9.80785 -1.46318
      vertex 150 -9.80785 1.46318
    endloop
  endfacet
  facet normal 1 0 0
    outer loop
      vertex 150 -9.89176 1.10048
      vertex 150 -9.89176 -1.10048
      vertex 150 -9.80785 -1.46318
    endloop
  endfacet
  facet normal 1 -0 0
    outer loop
      vertex 150 -9.95185 0.735129
      vertex 150 -9.89176 -1.10048
      vertex 150 -9.89176 1.10048
    endloop
  endfacet
  facet normal 1 0 0
    outer loop
      vertex 150 -9.95185 0.735129
      vertex 150 -9.95185 -0.735129
      vertex 150 -9.89176 -1.10048
    endloop
  endfacet
  facet normal 1 -0 0
    outer loop
      vertex 150 -9.98795 0.368008
      vertex 150 -9.95185 -0.735129
      vertex 150 -9.95185 0.735129
    endloop
  endfacet
  facet normal 1 0 0
    outer loop
      vertex 150 -9.98795 0.368008
      vertex 150 -9.98795 -0.368008
      vertex 150 -9.95185 -0.735129
    endloop
  endfacet
  facet normal 1 0 -0
    outer loop
      vertex 150 -9.98795 -0.368008
      vertex 150 -9.98795 0.368008
      vertex 150 -10 0
    endloop
  endfacet
endsolid OpenSCAD_Model
