solid OpenSCAD_Model
  facet normal 0 0 -1
    outer loop
      vertex -3 -0.606217 -0.0499992
      vertex 3 0.606217 -0.0499992
      vertex 3 -0.606217 -0.0499992
    endloop
  endfacet
  facet normal -0 0 -1
    outer loop
      vertex 3 0.606217 -0.0499992
      vertex -3 -0.606217 -0.0499992
      vertex -3 0.606217 -0.0499992
    endloop
  endfacet
  facet normal 1 0 0
    outer loop
      vertex 3 0.606217 2.05
      vertex 3 0.606217 -0.0499992
      vertex 3 1.21243 1
    endloop
  endfacet
  facet normal 1 -0 0
    outer loop
      vertex 3 -0.606217 2.05
      vertex 3 0.606217 -0.0499992
      vertex 3 0.606217 2.05
    endloop
  endfacet
  facet normal 1 0 0
    outer loop
      vertex 3 -0.606217 2.05
      vertex 3 -0.606217 -0.0499992
      vertex 3 0.606217 -0.0499992
    endloop
  endfacet
  facet normal 1 0 -0
    outer loop
      vertex 3 -0.606217 -0.0499992
      vertex 3 -0.606217 2.05
      vertex 3 -1.21243 1
    endloop
  endfacet
  facet normal -1 0 0
    outer loop
      vertex -3 0.606217 -0.0499992
      vertex -3 0.606217 2.05
      vertex -3 1.21243 1
    endloop
  endfacet
  facet normal -1 0 0
    outer loop
      vertex -3 -0.606217 -0.0499992
      vertex -3 0.606217 2.05
      vertex -3 0.606217 -0.0499992
    endloop
  endfacet
  facet normal -1 0 0
    outer loop
      vertex -3 -0.606217 -0.0499992
      vertex -3 -0.606217 2.05
      vertex -3 0.606217 2.05
    endloop
  endfacet
  facet normal -1 0 -0
    outer loop
      vertex -3 -0.606217 2.05
      vertex -3 -0.606217 -0.0499992
      vertex -3 -1.21243 1
    endloop
  endfacet
  facet normal -0 0 1
    outer loop
      vertex -3 0.606217 2.05
      vertex 3 -0.606217 2.05
      vertex 3 0.606217 2.05
    endloop
  endfacet
  facet normal 0 0 1
    outer loop
      vertex 3 -0.606217 2.05
      vertex -3 0.606217 2.05
      vertex -3 -0.606217 2.05
    endloop
  endfacet
  facet normal 0 -0.866027 0.499997
    outer loop
      vertex -3 -1.21243 1
      vertex 3 -0.606217 2.05
      vertex -3 -0.606217 2.05
    endloop
  endfacet
  facet normal 0 -0.866027 0.499997
    outer loop
      vertex 3 -0.606217 2.05
      vertex -3 -1.21243 1
      vertex 3 -1.21243 1
    endloop
  endfacet
  facet normal 0 0.866027 -0.499997
    outer loop
      vertex 3 0.606217 -0.0499992
      vertex -3 1.21243 1
      vertex 3 1.21243 1
    endloop
  endfacet
  facet normal 0 0.866027 -0.499997
    outer loop
      vertex -3 1.21243 1
      vertex 3 0.606217 -0.0499992
      vertex -3 0.606217 -0.0499992
    endloop
  endfacet
  facet normal 0 -0.866027 -0.499997
    outer loop
      vertex -3 -0.606217 -0.0499992
      vertex 3 -1.21243 1
      vertex -3 -1.21243 1
    endloop
  endfacet
  facet normal 0 -0.866027 -0.499997
    outer loop
      vertex 3 -1.21243 1
      vertex -3 -0.606217 -0.0499992
      vertex 3 -0.606217 -0.0499992
    endloop
  endfacet
  facet normal 0 0.866027 0.499997
    outer loop
      vertex 3 1.21243 1
      vertex -3 0.606217 2.05
      vertex 3 0.606217 2.05
    endloop
  endfacet
  facet normal 0 0.866027 0.499997
    outer loop
      vertex -3 0.606217 2.05
      vertex 3 1.21243 1
      vertex -3 1.21243 1
    endloop
  endfacet
endsolid OpenSCAD_Model
