solid OpenSCAD_Model
  facet normal 0 0 -1
    outer loop
      vertex -3 -0.57735 0
      vertex 3 0.57735 0
      vertex 3 -0.57735 0
    endloop
  endfacet
  facet normal -0 0 -1
    outer loop
      vertex 3 0.57735 0
      vertex -3 -0.57735 0
      vertex -3 0.57735 0
    endloop
  endfacet
  facet normal 1 0 0
    outer loop
      vertex 3 0.57735 2
      vertex 3 0.57735 0
      vertex 3 1.1547 1
    endloop
  endfacet
  facet normal 1 -0 0
    outer loop
      vertex 3 -0.57735 2
      vertex 3 0.57735 0
      vertex 3 0.57735 2
    endloop
  endfacet
  facet normal 1 0 0
    outer loop
      vertex 3 -0.57735 2
      vertex 3 -0.57735 0
      vertex 3 0.57735 0
    endloop
  endfacet
  facet normal 1 0 -0
    outer loop
      vertex 3 -0.57735 0
      vertex 3 -0.57735 2
      vertex 3 -1.1547 1
    endloop
  endfacet
  facet normal -1 0 0
    outer loop
      vertex -3 0.57735 0
      vertex -3 0.57735 2
      vertex -3 1.1547 1
    endloop
  endfacet
  facet normal -1 0 0
    outer loop
      vertex -3 -0.57735 0
      vertex -3 0.57735 2
      vertex -3 0.57735 0
    endloop
  endfacet
  facet normal -1 0 0
    outer loop
      vertex -3 -0.57735 0
      vertex -3 -0.57735 2
      vertex -3 0.57735 2
    endloop
  endfacet
  facet normal -1 0 -0
    outer loop
      vertex -3 -0.57735 2
      vertex -3 -0.57735 0
      vertex -3 -1.1547 1
    endloop
  endfacet
  facet normal -0 0 1
    outer loop
      vertex -3 0.57735 2
      vertex 3 -0.57735 2
      vertex 3 0.57735 2
    endloop
  endfacet
  facet normal 0 0 1
    outer loop
      vertex 3 -0.57735 2
      vertex -3 0.57735 2
      vertex -3 -0.57735 2
    endloop
  endfacet
  facet normal 0 0.866026 -0.5
    outer loop
      vertex 3 0.57735 0
      vertex -3 1.1547 1
      vertex 3 1.1547 1
    endloop
  endfacet
  facet normal 0 0.866026 -0.5
    outer loop
      vertex -3 1.1547 1
      vertex 3 0.57735 0
      vertex -3 0.57735 0
    endloop
  endfacet
  facet normal 0 -0.866026 0.5
    outer loop
      vertex -3 -1.1547 1
      vertex 3 -0.57735 2
      vertex -3 -0.57735 2
    endloop
  endfacet
  facet normal 0 -0.866026 0.5
    outer loop
      vertex 3 -0.57735 2
      vertex -3 -1.1547 1
      vertex 3 -1.1547 1
    endloop
  endfacet
  facet normal 0 0.866026 0.5
    outer loop
      vertex 3 1.1547 1
      vertex -3 0.57735 2
      vertex 3 0.57735 2
    endloop
  endfacet
  facet normal 0 0.866026 0.5
    outer loop
      vertex -3 0.57735 2
      vertex 3 1.1547 1
      vertex -3 1.1547 1
    endloop
  endfacet
  facet normal 0 -0.866026 -0.5
    outer loop
      vertex -3 -0.57735 0
      vertex 3 -1.1547 1
      vertex -3 -1.1547 1
    endloop
  endfacet
  facet normal 0 -0.866026 -0.5
    outer loop
      vertex 3 -1.1547 1
      vertex -3 -0.57735 0
      vertex 3 -0.57735 0
    endloop
  endfacet
endsolid OpenSCAD_Model
