solid OpenSCAD_Model
  facet normal 0.678598 0.281084 -0.678598
    outer loop
      vertex 0.363549 6 -0.877686
      vertex 0.620617 6.62062 -0.363549
      vertex 0.877686 6 -0.363549
    endloop
  endfacet
  facet normal -0.678599 -0.281085 0.678598
    outer loop
      vertex -0.257068 -0.257068 0.877686
      vertex -0.363549 0 0.877686
      vertex -0.620617 -0.620617 0.363549
    endloop
  endfacet
  facet normal 0.281086 0.678596 -0.6786
    outer loop
      vertex 0.620617 6.62062 -0.363549
      vertex 0 6.36355 -0.877686
      vertex 0 6.87769 -0.363549
    endloop
  endfacet
  facet normal 1 0 0
    outer loop
      vertex 0.877686 0 -0.363549
      vertex 0.877686 6 0.363549
      vertex 0.877686 0 0.363549
    endloop
  endfacet
  facet normal 0 0 1
    outer loop
      vertex 0.363549 6 0.877686
      vertex -0.257068 6.25707 0.877686
      vertex 0.363549 0 0.877686
    endloop
  endfacet
  facet normal -0.678598 0.281084 0.678598
    outer loop
      vertex -0.620617 6.62062 0.363549
      vertex -0.877686 6 0.363549
      vertex -0.363549 6 0.877686
    endloop
  endfacet
  facet normal 0.92388 0.382683 0
    outer loop
      vertex 0.877686 6 0.363549
      vertex 0.620617 6.62062 -0.363549
      vertex 0.620617 6.62062 0.363549
    endloop
  endfacet
  facet normal -0.707107 0 0.707107
    outer loop
      vertex -0.877686 6 0.363549
      vertex -0.877686 0 0.363549
      vertex -0.363549 6 0.877686
    endloop
  endfacet
  facet normal -0.281082 0.6786 -0.678598
    outer loop
      vertex -0.620617 6.62062 -0.363549
      vertex 0 6.36355 -0.877686
      vertex -0.257068 6.25707 -0.877686
    endloop
  endfacet
  facet normal 1 0 -0
    outer loop
      vertex 0.877686 6 -0.363549
      vertex 0.877686 6 0.363549
      vertex 0.877686 0 -0.363549
    endloop
  endfacet
  facet normal -0.281085 -0.678599 0.678598
    outer loop
      vertex -0.620617 -0.620617 0.363549
      vertex 0 -0.363549 0.877686
      vertex -0.257068 -0.257068 0.877686
    endloop
  endfacet
  facet normal 0.678599 -0.281085 -0.678598
    outer loop
      vertex 0.620617 -0.620617 -0.363549
      vertex 0.257068 -0.257068 -0.877686
      vertex 0.363549 0 -0.877686
    endloop
  endfacet
  facet normal 0.678598 0.281084 0.678598
    outer loop
      vertex 0.620617 6.62062 0.363549
      vertex 0.363549 6 0.877686
      vertex 0.877686 6 0.363549
    endloop
  endfacet
  facet normal 0.92388 0.382683 -0
    outer loop
      vertex 0.877686 6 -0.363549
      vertex 0.620617 6.62062 -0.363549
      vertex 0.877686 6 0.363549
    endloop
  endfacet
  facet normal 0.281085 -0.678599 -0.678598
    outer loop
      vertex 0 -0.363549 -0.877686
      vertex 0.257068 -0.257068 -0.877686
      vertex 0.620617 -0.620617 -0.363549
    endloop
  endfacet
  facet normal 0.678598 -0.281086 0.678598
    outer loop
      vertex 0.363549 0 0.877686
      vertex 0.620617 -0.620617 0.363549
      vertex 0.877686 0 0.363549
    endloop
  endfacet
  facet normal 0.6786 0.281083 0.678597
    outer loop
      vertex 0.620617 6.62062 0.363549
      vertex 0.257068 6.25707 0.877686
      vertex 0.363549 6 0.877686
    endloop
  endfacet
  facet normal 0.923879 -0.382685 0
    outer loop
      vertex 0.620617 -0.620617 0.363549
      vertex 0.620617 -0.620617 -0.363549
      vertex 0.877686 0 0.363549
    endloop
  endfacet
  facet normal -0.382685 -0.923879 -0
    outer loop
      vertex 0 -0.877686 0.363549
      vertex -0.620617 -0.620617 -0.363549
      vertex 0 -0.877686 -0.363549
    endloop
  endfacet
  facet normal 0 0 1
    outer loop
      vertex 0 -0.363549 0.877686
      vertex -0.257068 6.25707 0.877686
      vertex -0.257068 -0.257068 0.877686
    endloop
  endfacet
  facet normal 0.382685 -0.923879 0
    outer loop
      vertex 0 -0.877686 0.363549
      vertex 0.620617 -0.620617 -0.363549
      vertex 0.620617 -0.620617 0.363549
    endloop
  endfacet
  facet normal -0.281086 -0.678598 -0.678598
    outer loop
      vertex 0 -0.877686 -0.363549
      vertex -0.620617 -0.620617 -0.363549
      vertex 0 -0.363549 -0.877686
    endloop
  endfacet
  facet normal 0.678598 -0.281086 -0.678598
    outer loop
      vertex 0.877686 0 -0.363549
      vertex 0.620617 -0.620617 -0.363549
      vertex 0.363549 0 -0.877686
    endloop
  endfacet
  facet normal 0.923879 -0.382685 0
    outer loop
      vertex 0.877686 0 0.363549
      vertex 0.620617 -0.620617 -0.363549
      vertex 0.877686 0 -0.363549
    endloop
  endfacet
  facet normal 0.707107 0 -0.707107
    outer loop
      vertex 0.877686 0 -0.363549
      vertex 0.363549 6 -0.877686
      vertex 0.877686 6 -0.363549
    endloop
  endfacet
  facet normal 0.707107 0 -0.707107
    outer loop
      vertex 0.363549 0 -0.877686
      vertex 0.363549 6 -0.877686
      vertex 0.877686 0 -0.363549
    endloop
  endfacet
  facet normal 0.707107 0 0.707107
    outer loop
      vertex 0.877686 0 0.363549
      vertex 0.363549 6 0.877686
      vertex 0.363549 0 0.877686
    endloop
  endfacet
  facet normal 0.707107 0 0.707107
    outer loop
      vertex 0.877686 6 0.363549
      vertex 0.363549 6 0.877686
      vertex 0.877686 0 0.363549
    endloop
  endfacet
  facet normal -0.92388 0.382683 0
    outer loop
      vertex -0.620617 6.62062 0.363549
      vertex -0.620617 6.62062 -0.363549
      vertex -0.877686 6 0.363549
    endloop
  endfacet
  facet normal -1 0 0
    outer loop
      vertex -0.877686 0 -0.363549
      vertex -0.877686 0 0.363549
      vertex -0.877686 6 -0.363549
    endloop
  endfacet
  facet normal -0.6786 0.281083 0.678597
    outer loop
      vertex -0.363549 6 0.877686
      vertex -0.257068 6.25707 0.877686
      vertex -0.620617 6.62062 0.363549
    endloop
  endfacet
  facet normal 0.382686 0.923878 -0
    outer loop
      vertex 0.620617 6.62062 -0.363549
      vertex 0 6.87769 0.363549
      vertex 0.620617 6.62062 0.363549
    endloop
  endfacet
  facet normal -0.678598 -0.281086 -0.678598
    outer loop
      vertex -0.363549 0 -0.877686
      vertex -0.620617 -0.620617 -0.363549
      vertex -0.877686 0 -0.363549
    endloop
  endfacet
  facet normal -0.92388 0.382683 0
    outer loop
      vertex -0.877686 6 0.363549
      vertex -0.620617 6.62062 -0.363549
      vertex -0.877686 6 -0.363549
    endloop
  endfacet
  facet normal 0.281086 -0.678598 0.678598
    outer loop
      vertex 0 -0.363549 0.877686
      vertex 0 -0.877686 0.363549
      vertex 0.620617 -0.620617 0.363549
    endloop
  endfacet
  facet normal -0.281086 -0.678598 0.678598
    outer loop
      vertex -0.620617 -0.620617 0.363549
      vertex 0 -0.877686 0.363549
      vertex 0 -0.363549 0.877686
    endloop
  endfacet
  facet normal 0.281085 -0.678599 0.678598
    outer loop
      vertex 0.620617 -0.620617 0.363549
      vertex 0.257068 -0.257068 0.877686
      vertex 0 -0.363549 0.877686
    endloop
  endfacet
  facet normal 0.678599 -0.281085 0.678598
    outer loop
      vertex 0.363549 0 0.877686
      vertex 0.257068 -0.257068 0.877686
      vertex 0.620617 -0.620617 0.363549
    endloop
  endfacet
  facet normal 0.382685 -0.923879 0
    outer loop
      vertex 0 -0.877686 -0.363549
      vertex 0.620617 -0.620617 -0.363549
      vertex 0 -0.877686 0.363549
    endloop
  endfacet
  facet normal -0.382686 0.923878 0
    outer loop
      vertex -0.620617 6.62062 0.363549
      vertex 0 6.87769 0.363549
      vertex -0.620617 6.62062 -0.363549
    endloop
  endfacet
  facet normal -0.281082 0.6786 0.678598
    outer loop
      vertex -0.620617 6.62062 0.363549
      vertex -0.257068 6.25707 0.877686
      vertex 0 6.36355 0.877686
    endloop
  endfacet
  facet normal 0 0 1
    outer loop
      vertex 0 6.36355 0.877686
      vertex -0.257068 6.25707 0.877686
      vertex 0.257068 6.25707 0.877686
    endloop
  endfacet
  facet normal -0.678598 0.281084 -0.678598
    outer loop
      vertex -0.877686 6 -0.363549
      vertex -0.620617 6.62062 -0.363549
      vertex -0.363549 6 -0.877686
    endloop
  endfacet
  facet normal 0.382686 0.923878 -0
    outer loop
      vertex 0 6.87769 -0.363549
      vertex 0 6.87769 0.363549
      vertex 0.620617 6.62062 -0.363549
    endloop
  endfacet
  facet normal -0.707107 0 -0.707107
    outer loop
      vertex -0.363549 0 -0.877686
      vertex -0.877686 6 -0.363549
      vertex -0.363549 6 -0.877686
    endloop
  endfacet
  facet normal -0.707107 0 -0.707107
    outer loop
      vertex -0.877686 0 -0.363549
      vertex -0.877686 6 -0.363549
      vertex -0.363549 0 -0.877686
    endloop
  endfacet
  facet normal 0.281086 -0.678598 -0.678598
    outer loop
      vertex 0 -0.877686 -0.363549
      vertex 0 -0.363549 -0.877686
      vertex 0.620617 -0.620617 -0.363549
    endloop
  endfacet
  facet normal 0 0 -1
    outer loop
      vertex -0.363549 6 -0.877686
      vertex 0.257068 6.25707 -0.877686
      vertex -0.363549 0 -0.877686
    endloop
  endfacet
  facet normal 0 0 1
    outer loop
      vertex 0.257068 6.25707 0.877686
      vertex -0.257068 6.25707 0.877686
      vertex 0.363549 6 0.877686
    endloop
  endfacet
  facet normal 0.281082 0.6786 0.678598
    outer loop
      vertex 0 6.36355 0.877686
      vertex 0.257068 6.25707 0.877686
      vertex 0.620617 6.62062 0.363549
    endloop
  endfacet
  facet normal 0 -0 -1
    outer loop
      vertex -0.257068 6.25707 -0.877686
      vertex 0.257068 6.25707 -0.877686
      vertex -0.363549 6 -0.877686
    endloop
  endfacet
  facet normal -0.382686 0.923878 0
    outer loop
      vertex -0.620617 6.62062 -0.363549
      vertex 0 6.87769 0.363549
      vertex 0 6.87769 -0.363549
    endloop
  endfacet
  facet normal -0.678599 -0.281085 -0.678598
    outer loop
      vertex -0.363549 0 -0.877686
      vertex -0.257068 -0.257068 -0.877686
      vertex -0.620617 -0.620617 -0.363549
    endloop
  endfacet
  facet normal -0.281086 0.678596 -0.6786
    outer loop
      vertex 0 6.87769 -0.363549
      vertex 0 6.36355 -0.877686
      vertex -0.620617 6.62062 -0.363549
    endloop
  endfacet
  facet normal -1 0 0
    outer loop
      vertex -0.877686 6 -0.363549
      vertex -0.877686 0 0.363549
      vertex -0.877686 6 0.363549
    endloop
  endfacet
  facet normal -0.923879 -0.382685 -0
    outer loop
      vertex -0.620617 -0.620617 0.363549
      vertex -0.877686 0 0.363549
      vertex -0.620617 -0.620617 -0.363549
    endloop
  endfacet
  facet normal -0.281085 -0.678599 -0.678598
    outer loop
      vertex -0.620617 -0.620617 -0.363549
      vertex -0.257068 -0.257068 -0.877686
      vertex 0 -0.363549 -0.877686
    endloop
  endfacet
  facet normal -0.6786 0.281083 -0.678597
    outer loop
      vertex -0.363549 6 -0.877686
      vertex -0.620617 6.62062 -0.363549
      vertex -0.257068 6.25707 -0.877686
    endloop
  endfacet
  facet normal -0.382685 -0.923879 -0
    outer loop
      vertex -0.620617 -0.620617 0.363549
      vertex -0.620617 -0.620617 -0.363549
      vertex 0 -0.877686 0.363549
    endloop
  endfacet
  facet normal -0.923879 -0.382685 0
    outer loop
      vertex -0.620617 -0.620617 -0.363549
      vertex -0.877686 0 0.363549
      vertex -0.877686 0 -0.363549
    endloop
  endfacet
  facet normal 0 -0 -1
    outer loop
      vertex 0 6.36355 -0.877686
      vertex 0.257068 6.25707 -0.877686
      vertex -0.257068 6.25707 -0.877686
    endloop
  endfacet
  facet normal 0.281082 0.6786 -0.678598
    outer loop
      vertex 0.620617 6.62062 -0.363549
      vertex 0.257068 6.25707 -0.877686
      vertex 0 6.36355 -0.877686
    endloop
  endfacet
  facet normal 0 0 1
    outer loop
      vertex -0.363549 0 0.877686
      vertex -0.257068 6.25707 0.877686
      vertex -0.363549 6 0.877686
    endloop
  endfacet
  facet normal 0 -0 1
    outer loop
      vertex -0.257068 -0.257068 0.877686
      vertex -0.257068 6.25707 0.877686
      vertex -0.363549 0 0.877686
    endloop
  endfacet
  facet normal -0.281086 0.678596 0.6786
    outer loop
      vertex 0 6.36355 0.877686
      vertex 0 6.87769 0.363549
      vertex -0.620617 6.62062 0.363549
    endloop
  endfacet
  facet normal 0.281086 0.678596 0.6786
    outer loop
      vertex 0.620617 6.62062 0.363549
      vertex 0 6.87769 0.363549
      vertex 0 6.36355 0.877686
    endloop
  endfacet
  facet normal 0 0 1
    outer loop
      vertex 0.257068 -0.257068 0.877686
      vertex -0.257068 6.25707 0.877686
      vertex 0 -0.363549 0.877686
    endloop
  endfacet
  facet normal 0 0 1
    outer loop
      vertex 0.363549 0 0.877686
      vertex -0.257068 6.25707 0.877686
      vertex 0.257068 -0.257068 0.877686
    endloop
  endfacet
  facet normal 0 0 -1
    outer loop
      vertex 0.257068 -0.257068 -0.877686
      vertex 0.257068 6.25707 -0.877686
      vertex 0.363549 0 -0.877686
    endloop
  endfacet
  facet normal 0 0 -1
    outer loop
      vertex -0.363549 0 -0.877686
      vertex 0.257068 6.25707 -0.877686
      vertex -0.257068 -0.257068 -0.877686
    endloop
  endfacet
  facet normal -0.678598 -0.281086 0.678598
    outer loop
      vertex -0.363549 0 0.877686
      vertex -0.877686 0 0.363549
      vertex -0.620617 -0.620617 0.363549
    endloop
  endfacet
  facet normal -0.707107 0 0.707107
    outer loop
      vertex -0.363549 6 0.877686
      vertex -0.877686 0 0.363549
      vertex -0.363549 0 0.877686
    endloop
  endfacet
  facet normal 0 0 -1
    outer loop
      vertex 0 -0.363549 -0.877686
      vertex 0.257068 6.25707 -0.877686
      vertex 0.257068 -0.257068 -0.877686
    endloop
  endfacet
  facet normal 0 0 -1
    outer loop
      vertex -0.257068 -0.257068 -0.877686
      vertex 0.257068 6.25707 -0.877686
      vertex 0 -0.363549 -0.877686
    endloop
  endfacet
  facet normal 0.6786 0.281083 -0.678597
    outer loop
      vertex 0.363549 6 -0.877686
      vertex 0.257068 6.25707 -0.877686
      vertex 0.620617 6.62062 -0.363549
    endloop
  endfacet
  facet normal 0 0 -1
    outer loop
      vertex 0.363549 0 -0.877686
      vertex 0.257068 6.25707 -0.877686
      vertex 0.363549 6 -0.877686
    endloop
  endfacet
endsolid OpenSCAD_Model
