solid OpenSCAD_Model
  facet normal 0.382686 0.923878 0
    outer loop
      vertex 0 6.83149 0.344415
      vertex 0.587953 6.58795 -0.344415
      vertex 0 6.83149 -0.344415
    endloop
  endfacet
  facet normal -0.678598 -0.281085 0.678598
    outer loop
      vertex -0.243538 -0.243538 0.831492
      vertex -0.344415 0 0.831492
      vertex -0.587953 -0.587953 0.344415
    endloop
  endfacet
  facet normal 0 0 1
    outer loop
      vertex 0.344415 0 0.831492
      vertex -0.344415 6 0.831492
      vertex 0.243538 -0.243538 0.831492
    endloop
  endfacet
  facet normal 1 0 0
    outer loop
      vertex 0.831492 0 -0.344415
      vertex 0.831492 6 0.344415
      vertex 0.831492 0 0.344415
    endloop
  endfacet
  facet normal 0 0 1
    outer loop
      vertex 0.344415 6 0.831492
      vertex -0.344415 6 0.831492
      vertex 0.344415 0 0.831492
    endloop
  endfacet
  facet normal -0.923878 0.382686 0
    outer loop
      vertex -0.831492 6 -0.344415
      vertex -0.587953 6.58795 0.344415
      vertex -0.587953 6.58795 -0.344415
    endloop
  endfacet
  facet normal -0.281088 0.678601 0.678595
    outer loop
      vertex 0 6.83149 0.344415
      vertex -0.587953 6.58795 0.344415
      vertex -0.243538 6.24354 0.831492
    endloop
  endfacet
  facet normal -0.678599 0.281087 0.678597
    outer loop
      vertex -0.243538 6.24354 0.831492
      vertex -0.587953 6.58795 0.344415
      vertex -0.831492 6 0.344415
    endloop
  endfacet
  facet normal 0 0 -1
    outer loop
      vertex 0 6.34442 -0.831492
      vertex -0.243538 -0.243538 -0.831492
      vertex -0.243538 6.24354 -0.831492
    endloop
  endfacet
  facet normal 1 0 -0
    outer loop
      vertex 0.831492 6 -0.344415
      vertex 0.831492 6 0.344415
      vertex 0.831492 0 -0.344415
    endloop
  endfacet
  facet normal -0.382685 -0.923879 -0
    outer loop
      vertex -0.587953 -0.587953 0.344415
      vertex -0.587953 -0.587953 -0.344415
      vertex 0 -0.831492 0.344415
    endloop
  endfacet
  facet normal -0.678599 0.281087 -0.678597
    outer loop
      vertex -0.587953 6.58795 -0.344415
      vertex -0.243538 6.24354 -0.831492
      vertex -0.831492 6 -0.344415
    endloop
  endfacet
  facet normal -0.678599 0.281083 -0.678599
    outer loop
      vertex -0.831492 6 -0.344415
      vertex -0.243538 6.24354 -0.831492
      vertex -0.344415 6 -0.831492
    endloop
  endfacet
  facet normal -0.707107 0 -0.707107
    outer loop
      vertex -0.344415 0 -0.831492
      vertex -0.831492 6 -0.344415
      vertex -0.344415 6 -0.831492
    endloop
  endfacet
  facet normal -0.281085 -0.678598 -0.678598
    outer loop
      vertex -0.587953 -0.587953 -0.344415
      vertex -0.243538 -0.243538 -0.831492
      vertex 0 -0.344415 -0.831492
    endloop
  endfacet
  facet normal 0.678598 -0.281086 0.678598
    outer loop
      vertex 0.344415 0 0.831492
      vertex 0.587953 -0.587953 0.344415
      vertex 0.831492 0 0.344415
    endloop
  endfacet
  facet normal 0 0 1
    outer loop
      vertex 0.243538 6.24354 0.831492
      vertex -0.344415 6 0.831492
      vertex 0.344415 6 0.831492
    endloop
  endfacet
  facet normal 0.678598 -0.281086 -0.678598
    outer loop
      vertex 0.831492 0 -0.344415
      vertex 0.587953 -0.587953 -0.344415
      vertex 0.344415 0 -0.831492
    endloop
  endfacet
  facet normal 0.923879 -0.382685 0
    outer loop
      vertex 0.831492 0 0.344415
      vertex 0.587953 -0.587953 -0.344415
      vertex 0.831492 0 -0.344415
    endloop
  endfacet
  facet normal 0.678598 -0.281085 0.678598
    outer loop
      vertex 0.344415 0 0.831492
      vertex 0.243538 -0.243538 0.831492
      vertex 0.587953 -0.587953 0.344415
    endloop
  endfacet
  facet normal 0.281095 0.678601 0.678591
    outer loop
      vertex 0 6.83149 0.344415
      vertex 0 6.34442 0.831492
      vertex 0.243538 6.24354 0.831492
    endloop
  endfacet
  facet normal -0.382685 -0.923879 -0
    outer loop
      vertex 0 -0.831492 0.344415
      vertex -0.587953 -0.587953 -0.344415
      vertex 0 -0.831492 -0.344415
    endloop
  endfacet
  facet normal 0.382685 -0.923879 0
    outer loop
      vertex 0 -0.831492 -0.344415
      vertex 0.587953 -0.587953 -0.344415
      vertex 0 -0.831492 0.344415
    endloop
  endfacet
  facet normal -0 0 -1
    outer loop
      vertex 0.344415 0 -0.831492
      vertex -0.243538 -0.243538 -0.831492
      vertex 0.344415 6 -0.831492
    endloop
  endfacet
  facet normal 0.707107 0 -0.707107
    outer loop
      vertex 0.831492 0 -0.344415
      vertex 0.344415 6 -0.831492
      vertex 0.831492 6 -0.344415
    endloop
  endfacet
  facet normal 0.707107 0 -0.707107
    outer loop
      vertex 0.344415 0 -0.831492
      vertex 0.344415 6 -0.831492
      vertex 0.831492 0 -0.344415
    endloop
  endfacet
  facet normal 0.678599 0.281087 0.678597
    outer loop
      vertex 0.587953 6.58795 0.344415
      vertex 0.243538 6.24354 0.831492
      vertex 0.831492 6 0.344415
    endloop
  endfacet
  facet normal 0.281088 0.678601 0.678595
    outer loop
      vertex 0.587953 6.58795 0.344415
      vertex 0 6.83149 0.344415
      vertex 0.243538 6.24354 0.831492
    endloop
  endfacet
  facet normal -0.923878 0.382686 0
    outer loop
      vertex -0.831492 6 0.344415
      vertex -0.587953 6.58795 0.344415
      vertex -0.831492 6 -0.344415
    endloop
  endfacet
  facet normal 0.281086 -0.678598 -0.678598
    outer loop
      vertex 0 -0.831492 -0.344415
      vertex 0 -0.344415 -0.831492
      vertex 0.587953 -0.587953 -0.344415
    endloop
  endfacet
  facet normal 0.281086 -0.678598 0.678598
    outer loop
      vertex 0.587953 -0.587953 0.344415
      vertex 0 -0.344415 0.831492
      vertex 0 -0.831492 0.344415
    endloop
  endfacet
  facet normal -0 0 1
    outer loop
      vertex -0.243538 6.24354 0.831492
      vertex -0.344415 6 0.831492
      vertex 0 6.34442 0.831492
    endloop
  endfacet
  facet normal -0.707107 0 -0.707107
    outer loop
      vertex -0.831492 0 -0.344415
      vertex -0.831492 6 -0.344415
      vertex -0.344415 0 -0.831492
    endloop
  endfacet
  facet normal -0.281086 -0.678598 -0.678598
    outer loop
      vertex 0 -0.831492 -0.344415
      vertex -0.587953 -0.587953 -0.344415
      vertex 0 -0.344415 -0.831492
    endloop
  endfacet
  facet normal -1 0 0
    outer loop
      vertex -0.831492 0 -0.344415
      vertex -0.831492 0 0.344415
      vertex -0.831492 6 -0.344415
    endloop
  endfacet
  facet normal -1 0 0
    outer loop
      vertex -0.831492 6 -0.344415
      vertex -0.831492 0 0.344415
      vertex -0.831492 6 0.344415
    endloop
  endfacet
  facet normal -0.281085 -0.678598 0.678598
    outer loop
      vertex -0.587953 -0.587953 0.344415
      vertex 0 -0.344415 0.831492
      vertex -0.243538 -0.243538 0.831492
    endloop
  endfacet
  facet normal -0.281086 -0.678598 0.678598
    outer loop
      vertex 0 -0.831492 0.344415
      vertex 0 -0.344415 0.831492
      vertex -0.587953 -0.587953 0.344415
    endloop
  endfacet
  facet normal 0.923879 -0.382685 0
    outer loop
      vertex 0.587953 -0.587953 0.344415
      vertex 0.587953 -0.587953 -0.344415
      vertex 0.831492 0 0.344415
    endloop
  endfacet
  facet normal 0.382685 -0.923879 0
    outer loop
      vertex 0 -0.831492 0.344415
      vertex 0.587953 -0.587953 -0.344415
      vertex 0.587953 -0.587953 0.344415
    endloop
  endfacet
  facet normal 0.281085 -0.678598 0.678598
    outer loop
      vertex 0.243538 -0.243538 0.831492
      vertex 0 -0.344415 0.831492
      vertex 0.587953 -0.587953 0.344415
    endloop
  endfacet
  facet normal 0.678599 0.281083 0.678599
    outer loop
      vertex 0.243538 6.24354 0.831492
      vertex 0.344415 6 0.831492
      vertex 0.831492 6 0.344415
    endloop
  endfacet
  facet normal 0 0 -1
    outer loop
      vertex 0.243538 -0.243538 -0.831492
      vertex -0.243538 -0.243538 -0.831492
      vertex 0.344415 0 -0.831492
    endloop
  endfacet
  facet normal 0.678598 -0.281085 -0.678598
    outer loop
      vertex 0.587953 -0.587953 -0.344415
      vertex 0.243538 -0.243538 -0.831492
      vertex 0.344415 0 -0.831492
    endloop
  endfacet
  facet normal 0 0 1
    outer loop
      vertex 0 -0.344415 0.831492
      vertex -0.344415 6 0.831492
      vertex -0.243538 -0.243538 0.831492
    endloop
  endfacet
  facet normal 0 0 1
    outer loop
      vertex -0.243538 -0.243538 0.831492
      vertex -0.344415 6 0.831492
      vertex -0.344415 0 0.831492
    endloop
  endfacet
  facet normal 0.281085 -0.678598 -0.678598
    outer loop
      vertex 0 -0.344415 -0.831492
      vertex 0.243538 -0.243538 -0.831492
      vertex 0.587953 -0.587953 -0.344415
    endloop
  endfacet
  facet normal 0.923878 0.382686 -0
    outer loop
      vertex 0.831492 6 -0.344415
      vertex 0.587953 6.58795 -0.344415
      vertex 0.831492 6 0.344415
    endloop
  endfacet
  facet normal -0.678598 -0.281085 -0.678598
    outer loop
      vertex -0.344415 0 -0.831492
      vertex -0.243538 -0.243538 -0.831492
      vertex -0.587953 -0.587953 -0.344415
    endloop
  endfacet
  facet normal 0.281088 0.678601 -0.678595
    outer loop
      vertex 0 6.83149 -0.344415
      vertex 0.587953 6.58795 -0.344415
      vertex 0.243538 6.24354 -0.831492
    endloop
  endfacet
  facet normal 0 0 1
    outer loop
      vertex 0 6.34442 0.831492
      vertex -0.344415 6 0.831492
      vertex 0.243538 6.24354 0.831492
    endloop
  endfacet
  facet normal -0.678599 0.281083 0.678599
    outer loop
      vertex -0.831492 6 0.344415
      vertex -0.344415 6 0.831492
      vertex -0.243538 6.24354 0.831492
    endloop
  endfacet
  facet normal 0.707107 0 0.707107
    outer loop
      vertex 0.831492 0 0.344415
      vertex 0.344415 6 0.831492
      vertex 0.344415 0 0.831492
    endloop
  endfacet
  facet normal 0.707107 0 0.707107
    outer loop
      vertex 0.831492 6 0.344415
      vertex 0.344415 6 0.831492
      vertex 0.831492 0 0.344415
    endloop
  endfacet
  facet normal 0.281095 0.678601 -0.678591
    outer loop
      vertex 0 6.34442 -0.831492
      vertex 0 6.83149 -0.344415
      vertex 0.243538 6.24354 -0.831492
    endloop
  endfacet
  facet normal 0 0 -1
    outer loop
      vertex 0 -0.344415 -0.831492
      vertex -0.243538 -0.243538 -0.831492
      vertex 0.243538 -0.243538 -0.831492
    endloop
  endfacet
  facet normal 0.678599 0.281087 -0.678597
    outer loop
      vertex 0.243538 6.24354 -0.831492
      vertex 0.587953 6.58795 -0.344415
      vertex 0.831492 6 -0.344415
    endloop
  endfacet
  facet normal 0.678599 0.281083 -0.678599
    outer loop
      vertex 0.344415 6 -0.831492
      vertex 0.243538 6.24354 -0.831492
      vertex 0.831492 6 -0.344415
    endloop
  endfacet
  facet normal -0.281095 0.678601 0.678591
    outer loop
      vertex -0.243538 6.24354 0.831492
      vertex 0 6.34442 0.831492
      vertex 0 6.83149 0.344415
    endloop
  endfacet
  facet normal 0 0 1
    outer loop
      vertex 0.243538 -0.243538 0.831492
      vertex -0.344415 6 0.831492
      vertex 0 -0.344415 0.831492
    endloop
  endfacet
  facet normal 0 0 -1
    outer loop
      vertex -0.344415 6 -0.831492
      vertex -0.243538 -0.243538 -0.831492
      vertex -0.344415 0 -0.831492
    endloop
  endfacet
  facet normal 0 -0 -1
    outer loop
      vertex -0.243538 6.24354 -0.831492
      vertex -0.243538 -0.243538 -0.831492
      vertex -0.344415 6 -0.831492
    endloop
  endfacet
  facet normal -0.923879 -0.382685 0
    outer loop
      vertex -0.587953 -0.587953 -0.344415
      vertex -0.831492 0 0.344415
      vertex -0.831492 0 -0.344415
    endloop
  endfacet
  facet normal -0.678598 -0.281086 -0.678598
    outer loop
      vertex -0.344415 0 -0.831492
      vertex -0.587953 -0.587953 -0.344415
      vertex -0.831492 0 -0.344415
    endloop
  endfacet
  facet normal -0.281095 0.678601 -0.678591
    outer loop
      vertex -0.243538 6.24354 -0.831492
      vertex 0 6.83149 -0.344415
      vertex 0 6.34442 -0.831492
    endloop
  endfacet
  facet normal -0.281088 0.678601 -0.678595
    outer loop
      vertex -0.587953 6.58795 -0.344415
      vertex 0 6.83149 -0.344415
      vertex -0.243538 6.24354 -0.831492
    endloop
  endfacet
  facet normal -0.923879 -0.382685 -0
    outer loop
      vertex -0.587953 -0.587953 0.344415
      vertex -0.831492 0 0.344415
      vertex -0.587953 -0.587953 -0.344415
    endloop
  endfacet
  facet normal -0.678598 -0.281086 0.678598
    outer loop
      vertex -0.344415 0 0.831492
      vertex -0.831492 0 0.344415
      vertex -0.587953 -0.587953 0.344415
    endloop
  endfacet
  facet normal -0.707107 0 0.707107
    outer loop
      vertex -0.831492 0 0.344415
      vertex -0.344415 6 0.831492
      vertex -0.831492 6 0.344415
    endloop
  endfacet
  facet normal -0.707107 0 0.707107
    outer loop
      vertex -0.344415 0 0.831492
      vertex -0.344415 6 0.831492
      vertex -0.831492 0 0.344415
    endloop
  endfacet
  facet normal -0.382686 0.923878 0
    outer loop
      vertex 0 6.83149 -0.344415
      vertex -0.587953 6.58795 0.344415
      vertex 0 6.83149 0.344415
    endloop
  endfacet
  facet normal -0.382686 0.923878 0
    outer loop
      vertex -0.587953 6.58795 -0.344415
      vertex -0.587953 6.58795 0.344415
      vertex 0 6.83149 -0.344415
    endloop
  endfacet
  facet normal -0 0 -1
    outer loop
      vertex 0.243538 6.24354 -0.831492
      vertex -0.243538 -0.243538 -0.831492
      vertex 0 6.34442 -0.831492
    endloop
  endfacet
  facet normal -0 0 -1
    outer loop
      vertex 0.344415 6 -0.831492
      vertex -0.243538 -0.243538 -0.831492
      vertex 0.243538 6.24354 -0.831492
    endloop
  endfacet
  facet normal 0.382686 0.923878 0
    outer loop
      vertex 0.587953 6.58795 0.344415
      vertex 0.587953 6.58795 -0.344415
      vertex 0 6.83149 0.344415
    endloop
  endfacet
  facet normal 0.923878 0.382686 0
    outer loop
      vertex 0.831492 6 0.344415
      vertex 0.587953 6.58795 -0.344415
      vertex 0.587953 6.58795 0.344415
    endloop
  endfacet
endsolid OpenSCAD_Model
