solid OpenSCAD_Model
  facet normal 0 1 -0
    outer loop
      vertex 0.401818 0.970074 0
      vertex -0.401818 0.970074 20
      vertex 0.401818 0.970074 20
    endloop
  endfacet
  facet normal 0 1 0
    outer loop
      vertex -0.401818 0.970074 20
      vertex 0.401818 0.970074 0
      vertex -0.401818 0.970074 0
    endloop
  endfacet
  facet normal -0.707107 0.707107 0
    outer loop
      vertex -0.970074 0.401818 0
      vertex -0.401818 0.970074 20
      vertex -0.401818 0.970074 0
    endloop
  endfacet
  facet normal -0.707107 0.707107 0
    outer loop
      vertex -0.401818 0.970074 20
      vertex -0.970074 0.401818 0
      vertex -0.970074 0.401818 20
    endloop
  endfacet
  facet normal -1 0 0
    outer loop
      vertex -0.970074 -0.401818 0
      vertex -0.970074 0.401818 20
      vertex -0.970074 0.401818 0
    endloop
  endfacet
  facet normal -1 -0 0
    outer loop
      vertex -0.970074 0.401818 20
      vertex -0.970074 -0.401818 0
      vertex -0.970074 -0.401818 20
    endloop
  endfacet
  facet normal -0.707107 -0.707107 0
    outer loop
      vertex -0.401818 -0.970074 0
      vertex -0.970074 -0.401818 20
      vertex -0.970074 -0.401818 0
    endloop
  endfacet
  facet normal -0.707107 -0.707107 0
    outer loop
      vertex -0.970074 -0.401818 20
      vertex -0.401818 -0.970074 0
      vertex -0.401818 -0.970074 20
    endloop
  endfacet
  facet normal 0 -1 0
    outer loop
      vertex -0.401818 -0.970074 0
      vertex 0.401818 -0.970074 20
      vertex -0.401818 -0.970074 20
    endloop
  endfacet
  facet normal 0 -1 -0
    outer loop
      vertex 0.401818 -0.970074 20
      vertex -0.401818 -0.970074 0
      vertex 0.401818 -0.970074 0
    endloop
  endfacet
  facet normal 0.707107 -0.707107 0
    outer loop
      vertex 0.401818 -0.970074 20
      vertex 0.970074 -0.401818 0
      vertex 0.970074 -0.401818 20
    endloop
  endfacet
  facet normal 0.707107 -0.707107 0
    outer loop
      vertex 0.970074 -0.401818 0
      vertex 0.401818 -0.970074 20
      vertex 0.401818 -0.970074 0
    endloop
  endfacet
  facet normal 1 -0 0
    outer loop
      vertex 0.970074 -0.401818 20
      vertex 0.970074 0.401818 0
      vertex 0.970074 0.401818 20
    endloop
  endfacet
  facet normal 1 0 0
    outer loop
      vertex 0.970074 0.401818 0
      vertex 0.970074 -0.401818 20
      vertex 0.970074 -0.401818 0
    endloop
  endfacet
  facet normal 0.707107 0.707107 0
    outer loop
      vertex 0.970074 0.401818 20
      vertex 0.401818 0.970074 0
      vertex 0.401818 0.970074 20
    endloop
  endfacet
  facet normal 0.707107 0.707107 0
    outer loop
      vertex 0.401818 0.970074 0
      vertex 0.970074 0.401818 20
      vertex 0.970074 0.401818 0
    endloop
  endfacet
  facet normal 0 0 -1
    outer loop
      vertex 0.401818 -0.970074 0
      vertex 0.970074 0.401818 0
      vertex 0.970074 -0.401818 0
    endloop
  endfacet
  facet normal 0 0 -1
    outer loop
      vertex 0.401818 -0.970074 0
      vertex 0.401818 0.970074 0
      vertex 0.970074 0.401818 0
    endloop
  endfacet
  facet normal 0 0 -1
    outer loop
      vertex -0.401818 -0.970074 0
      vertex 0.401818 0.970074 0
      vertex 0.401818 -0.970074 0
    endloop
  endfacet
  facet normal 0 0 -1
    outer loop
      vertex -0.401818 -0.970074 0
      vertex -0.401818 0.970074 0
      vertex 0.401818 0.970074 0
    endloop
  endfacet
  facet normal 0 0 -1
    outer loop
      vertex -0.970074 -0.401818 0
      vertex -0.401818 0.970074 0
      vertex -0.401818 -0.970074 0
    endloop
  endfacet
  facet normal 0 0 -1
    outer loop
      vertex -0.401818 0.970074 0
      vertex -0.970074 -0.401818 0
      vertex -0.970074 0.401818 0
    endloop
  endfacet
  facet normal 0 0 1
    outer loop
      vertex 0.401818 0.970074 20
      vertex 0.970074 -0.401818 20
      vertex 0.970074 0.401818 20
    endloop
  endfacet
  facet normal 0 0 1
    outer loop
      vertex 0.401818 0.970074 20
      vertex 0.401818 -0.970074 20
      vertex 0.970074 -0.401818 20
    endloop
  endfacet
  facet normal -0 0 1
    outer loop
      vertex -0.401818 0.970074 20
      vertex 0.401818 -0.970074 20
      vertex 0.401818 0.970074 20
    endloop
  endfacet
  facet normal 0 0 1
    outer loop
      vertex -0.401818 0.970074 20
      vertex -0.401818 -0.970074 20
      vertex 0.401818 -0.970074 20
    endloop
  endfacet
  facet normal -0 0 1
    outer loop
      vertex -0.970074 0.401818 20
      vertex -0.401818 -0.970074 20
      vertex -0.401818 0.970074 20
    endloop
  endfacet
  facet normal 0 0 1
    outer loop
      vertex -0.401818 -0.970074 20
      vertex -0.970074 0.401818 20
      vertex -0.970074 -0.401818 20
    endloop
  endfacet
endsolid OpenSCAD_Model
