solid OpenSCAD_Model
  facet normal 0 1 -0
    outer loop
      vertex 20 0.970074 -0.401818
      vertex 0 0.970074 0.401818
      vertex 20 0.970074 0.401818
    endloop
  endfacet
  facet normal 0 1 0
    outer loop
      vertex 0 0.970074 0.401818
      vertex 20 0.970074 -0.401818
      vertex 0 0.970074 -0.401818
    endloop
  endfacet
  facet normal 0 0.707107 0.707107
    outer loop
      vertex 20 0.970074 0.401818
      vertex 0 0.401818 0.970074
      vertex 20 0.401818 0.970074
    endloop
  endfacet
  facet normal 0 0.707107 0.707107
    outer loop
      vertex 0 0.401818 0.970074
      vertex 20 0.970074 0.401818
      vertex 0 0.970074 0.401818
    endloop
  endfacet
  facet normal -0 0 1
    outer loop
      vertex 0 0.401818 0.970074
      vertex 20 -0.401818 0.970074
      vertex 20 0.401818 0.970074
    endloop
  endfacet
  facet normal 0 0 1
    outer loop
      vertex 20 -0.401818 0.970074
      vertex 0 0.401818 0.970074
      vertex 0 -0.401818 0.970074
    endloop
  endfacet
  facet normal 0 -0.707107 0.707107
    outer loop
      vertex 0 -0.970074 0.401818
      vertex 20 -0.401818 0.970074
      vertex 0 -0.401818 0.970074
    endloop
  endfacet
  facet normal 0 -0.707107 0.707107
    outer loop
      vertex 20 -0.401818 0.970074
      vertex 0 -0.970074 0.401818
      vertex 20 -0.970074 0.401818
    endloop
  endfacet
  facet normal 0 -1 0
    outer loop
      vertex 0 -0.970074 -0.401818
      vertex 20 -0.970074 0.401818
      vertex 0 -0.970074 0.401818
    endloop
  endfacet
  facet normal 0 -1 -0
    outer loop
      vertex 20 -0.970074 0.401818
      vertex 0 -0.970074 -0.401818
      vertex 20 -0.970074 -0.401818
    endloop
  endfacet
  facet normal 0 -0.707107 -0.707107
    outer loop
      vertex 0 -0.401818 -0.970074
      vertex 20 -0.970074 -0.401818
      vertex 0 -0.970074 -0.401818
    endloop
  endfacet
  facet normal 0 -0.707107 -0.707107
    outer loop
      vertex 20 -0.970074 -0.401818
      vertex 0 -0.401818 -0.970074
      vertex 20 -0.401818 -0.970074
    endloop
  endfacet
  facet normal 0 0 -1
    outer loop
      vertex 0 -0.401818 -0.970074
      vertex 20 0.401818 -0.970074
      vertex 20 -0.401818 -0.970074
    endloop
  endfacet
  facet normal -0 0 -1
    outer loop
      vertex 20 0.401818 -0.970074
      vertex 0 -0.401818 -0.970074
      vertex 0 0.401818 -0.970074
    endloop
  endfacet
  facet normal 0 0.707107 -0.707107
    outer loop
      vertex 20 0.401818 -0.970074
      vertex 0 0.970074 -0.401818
      vertex 20 0.970074 -0.401818
    endloop
  endfacet
  facet normal 0 0.707107 -0.707107
    outer loop
      vertex 0 0.970074 -0.401818
      vertex 20 0.401818 -0.970074
      vertex 0 0.401818 -0.970074
    endloop
  endfacet
  facet normal -1 0 0
    outer loop
      vertex 0 0.401818 -0.970074
      vertex 0 0.970074 0.401818
      vertex 0 0.970074 -0.401818
    endloop
  endfacet
  facet normal -1 0 0
    outer loop
      vertex 0 0.401818 -0.970074
      vertex 0 0.401818 0.970074
      vertex 0 0.970074 0.401818
    endloop
  endfacet
  facet normal -1 0 0
    outer loop
      vertex 0 -0.401818 -0.970074
      vertex 0 0.401818 0.970074
      vertex 0 0.401818 -0.970074
    endloop
  endfacet
  facet normal -1 0 0
    outer loop
      vertex 0 -0.401818 -0.970074
      vertex 0 -0.401818 0.970074
      vertex 0 0.401818 0.970074
    endloop
  endfacet
  facet normal -1 0 0
    outer loop
      vertex 0 -0.970074 -0.401818
      vertex 0 -0.401818 0.970074
      vertex 0 -0.401818 -0.970074
    endloop
  endfacet
  facet normal -1 0 0
    outer loop
      vertex 0 -0.401818 0.970074
      vertex 0 -0.970074 -0.401818
      vertex 0 -0.970074 0.401818
    endloop
  endfacet
  facet normal 1 0 0
    outer loop
      vertex 20 0.401818 0.970074
      vertex 20 0.970074 -0.401818
      vertex 20 0.970074 0.401818
    endloop
  endfacet
  facet normal 1 0 0
    outer loop
      vertex 20 0.401818 0.970074
      vertex 20 0.401818 -0.970074
      vertex 20 0.970074 -0.401818
    endloop
  endfacet
  facet normal 1 -0 0
    outer loop
      vertex 20 -0.401818 0.970074
      vertex 20 0.401818 -0.970074
      vertex 20 0.401818 0.970074
    endloop
  endfacet
  facet normal 1 0 0
    outer loop
      vertex 20 -0.401818 0.970074
      vertex 20 -0.401818 -0.970074
      vertex 20 0.401818 -0.970074
    endloop
  endfacet
  facet normal 1 -0 0
    outer loop
      vertex 20 -0.970074 0.401818
      vertex 20 -0.401818 -0.970074
      vertex 20 -0.401818 0.970074
    endloop
  endfacet
  facet normal 1 0 0
    outer loop
      vertex 20 -0.401818 -0.970074
      vertex 20 -0.970074 0.401818
      vertex 20 -0.970074 -0.401818
    endloop
  endfacet
endsolid OpenSCAD_Model
