solid OpenSCAD_Model
  facet normal 0 0 1
    outer loop
      vertex 0.440086 4.5 1.06246
      vertex 0.311188 4.81119 1.06246
      vertex 0.440086 0 1.06246
    endloop
  endfacet
  facet normal -0.382681 -0.92388 -0
    outer loop
      vertex -0.751274 -0.751274 0.440086
      vertex -0.751274 -0.751274 -0.440086
      vertex 0 -1.06246 0.440086
    endloop
  endfacet
  facet normal -0.281084 -0.678598 0.678599
    outer loop
      vertex -0.751274 -0.751274 0.440086
      vertex 0 -0.440086 1.06246
      vertex -0.311188 -0.311188 1.06246
    endloop
  endfacet
  facet normal -1 0 0
    outer loop
      vertex -1.06246 0 -0.440086
      vertex -1.06246 0 0.440086
      vertex -1.06246 4.5 -0.440086
    endloop
  endfacet
  facet normal 0.678599 0.281085 -0.678598
    outer loop
      vertex 0.311188 4.81119 -1.06246
      vertex 0.751274 5.25127 -0.440086
      vertex 1.06246 4.5 -0.440086
    endloop
  endfacet
  facet normal -0.678598 -0.281084 0.678599
    outer loop
      vertex -0.311188 -0.311188 1.06246
      vertex -0.440086 0 1.06246
      vertex -0.751274 -0.751274 0.440086
    endloop
  endfacet
  facet normal -0.92388 -0.382681 0
    outer loop
      vertex -1.06246 0 -0.440086
      vertex -0.751274 -0.751274 -0.440086
      vertex -1.06246 0 0.440086
    endloop
  endfacet
  facet normal -1 0 0
    outer loop
      vertex -1.06246 4.5 -0.440086
      vertex -1.06246 0 0.440086
      vertex -1.06246 4.5 0.440086
    endloop
  endfacet
  facet normal 0.678599 -0.281083 -0.678599
    outer loop
      vertex 1.06246 0 -0.440086
      vertex 0.751274 -0.751274 -0.440086
      vertex 0.440086 0 -1.06246
    endloop
  endfacet
  facet normal 0.678599 0.281085 0.678598
    outer loop
      vertex 0.751274 5.25127 0.440086
      vertex 0.311188 4.81119 1.06246
      vertex 1.06246 4.5 0.440086
    endloop
  endfacet
  facet normal 0 0 -1
    outer loop
      vertex 0.311188 -0.311188 -1.06246
      vertex 0 4.94009 -1.06246
      vertex 0.440086 0 -1.06246
    endloop
  endfacet
  facet normal 1 -0 0
    outer loop
      vertex 1.06246 0 0.440086
      vertex 1.06246 4.5 -0.440086
      vertex 1.06246 4.5 0.440086
    endloop
  endfacet
  facet normal 0.281083 -0.678599 -0.678599
    outer loop
      vertex 0 -1.06246 -0.440086
      vertex 0 -0.440086 -1.06246
      vertex 0.751274 -0.751274 -0.440086
    endloop
  endfacet
  facet normal -0.382686 0.923879 0
    outer loop
      vertex -0.751274 5.25127 0.440086
      vertex 0 5.56246 -0.440086
      vertex -0.751274 5.25127 -0.440086
    endloop
  endfacet
  facet normal 0.707107 0 -0.707107
    outer loop
      vertex 0.440086 0 -1.06246
      vertex 0.440086 4.5 -1.06246
      vertex 1.06246 0 -0.440086
    endloop
  endfacet
  facet normal 0.678599 -0.281083 0.678599
    outer loop
      vertex 0.440086 0 1.06246
      vertex 0.751274 -0.751274 0.440086
      vertex 1.06246 0 0.440086
    endloop
  endfacet
  facet normal 0.382681 -0.92388 0
    outer loop
      vertex 0 -1.06246 -0.440086
      vertex 0.751274 -0.751274 -0.440086
      vertex 0 -1.06246 0.440086
    endloop
  endfacet
  facet normal 1 0 0
    outer loop
      vertex 1.06246 0 -0.440086
      vertex 1.06246 4.5 -0.440086
      vertex 1.06246 0 0.440086
    endloop
  endfacet
  facet normal 0.281084 -0.678598 0.678599
    outer loop
      vertex 0.751274 -0.751274 0.440086
      vertex 0.311188 -0.311188 1.06246
      vertex 0 -0.440086 1.06246
    endloop
  endfacet
  facet normal 0 -0 1
    outer loop
      vertex -0.311188 -0.311188 1.06246
      vertex 0.311188 4.81119 1.06246
      vertex -0.440086 0 1.06246
    endloop
  endfacet
  facet normal -0.281084 -0.678598 -0.678599
    outer loop
      vertex 0 -0.440086 -1.06246
      vertex -0.751274 -0.751274 -0.440086
      vertex -0.311188 -0.311188 -1.06246
    endloop
  endfacet
  facet normal 0.707107 0 0.707107
    outer loop
      vertex 1.06246 0 0.440086
      vertex 0.440086 4.5 1.06246
      vertex 0.440086 0 1.06246
    endloop
  endfacet
  facet normal 0.92388 -0.382681 0
    outer loop
      vertex 1.06246 0 0.440086
      vertex 0.751274 -0.751274 -0.440086
      vertex 1.06246 0 -0.440086
    endloop
  endfacet
  facet normal 0 -0 1
    outer loop
      vertex 0.311188 -0.311188 1.06246
      vertex 0.311188 4.81119 1.06246
      vertex 0 -0.440086 1.06246
    endloop
  endfacet
  facet normal 0.678598 -0.281084 0.678599
    outer loop
      vertex 0.440086 0 1.06246
      vertex 0.311188 -0.311188 1.06246
      vertex 0.751274 -0.751274 0.440086
    endloop
  endfacet
  facet normal 0.707107 0 0.707107
    outer loop
      vertex 1.06246 4.5 0.440086
      vertex 0.440086 4.5 1.06246
      vertex 1.06246 0 0.440086
    endloop
  endfacet
  facet normal 0.281083 -0.678599 0.678599
    outer loop
      vertex 0 -0.440086 1.06246
      vertex 0 -1.06246 0.440086
      vertex 0.751274 -0.751274 0.440086
    endloop
  endfacet
  facet normal -0.281083 -0.678599 0.678599
    outer loop
      vertex -0.751274 -0.751274 0.440086
      vertex 0 -1.06246 0.440086
      vertex 0 -0.440086 1.06246
    endloop
  endfacet
  facet normal 0.678599 0.281082 0.678599
    outer loop
      vertex 1.06246 4.5 0.440086
      vertex 0.311188 4.81119 1.06246
      vertex 0.440086 4.5 1.06246
    endloop
  endfacet
  facet normal 0.281088 0.678599 0.678596
    outer loop
      vertex 0 4.94009 1.06246
      vertex 0.311188 4.81119 1.06246
      vertex 0.751274 5.25127 0.440086
    endloop
  endfacet
  facet normal 0.707107 0 -0.707107
    outer loop
      vertex 1.06246 0 -0.440086
      vertex 0.440086 4.5 -1.06246
      vertex 1.06246 4.5 -0.440086
    endloop
  endfacet
  facet normal 0.678599 0.281082 -0.678599
    outer loop
      vertex 0.440086 4.5 -1.06246
      vertex 0.311188 4.81119 -1.06246
      vertex 1.06246 4.5 -0.440086
    endloop
  endfacet
  facet normal 0.92388 -0.382681 0
    outer loop
      vertex 0.751274 -0.751274 0.440086
      vertex 0.751274 -0.751274 -0.440086
      vertex 1.06246 0 0.440086
    endloop
  endfacet
  facet normal 0.382681 -0.92388 0
    outer loop
      vertex 0 -1.06246 0.440086
      vertex 0.751274 -0.751274 -0.440086
      vertex 0.751274 -0.751274 0.440086
    endloop
  endfacet
  facet normal 0 0 -1
    outer loop
      vertex -0.440086 0 -1.06246
      vertex 0 4.94009 -1.06246
      vertex -0.311188 -0.311188 -1.06246
    endloop
  endfacet
  facet normal 0 0 1
    outer loop
      vertex 0.440086 0 1.06246
      vertex 0.311188 4.81119 1.06246
      vertex 0.311188 -0.311188 1.06246
    endloop
  endfacet
  facet normal -0.678599 0.281085 0.678598
    outer loop
      vertex -0.311188 4.81119 1.06246
      vertex -0.751274 5.25127 0.440086
      vertex -1.06246 4.5 0.440086
    endloop
  endfacet
  facet normal -0.281088 0.678599 0.678596
    outer loop
      vertex 0 4.94009 1.06246
      vertex -0.751274 5.25127 0.440086
      vertex -0.311188 4.81119 1.06246
    endloop
  endfacet
  facet normal -0.678599 0.281082 -0.678599
    outer loop
      vertex -0.311188 4.81119 -1.06246
      vertex -0.440086 4.5 -1.06246
      vertex -1.06246 4.5 -0.440086
    endloop
  endfacet
  facet normal -0.92388 -0.382681 0
    outer loop
      vertex -1.06246 0 0.440086
      vertex -0.751274 -0.751274 -0.440086
      vertex -0.751274 -0.751274 0.440086
    endloop
  endfacet
  facet normal 0 -0 -1
    outer loop
      vertex -0.311188 4.81119 -1.06246
      vertex 0 4.94009 -1.06246
      vertex -0.440086 4.5 -1.06246
    endloop
  endfacet
  facet normal -0.678599 -0.281083 0.678599
    outer loop
      vertex -0.440086 0 1.06246
      vertex -1.06246 0 0.440086
      vertex -0.751274 -0.751274 0.440086
    endloop
  endfacet
  facet normal -0.707107 0 0.707107
    outer loop
      vertex -1.06246 0 0.440086
      vertex -0.440086 4.5 1.06246
      vertex -1.06246 4.5 0.440086
    endloop
  endfacet
  facet normal -0.707107 0 0.707107
    outer loop
      vertex -0.440086 0 1.06246
      vertex -0.440086 4.5 1.06246
      vertex -1.06246 0 0.440086
    endloop
  endfacet
  facet normal 0 -0 1
    outer loop
      vertex 0 -0.440086 1.06246
      vertex 0.311188 4.81119 1.06246
      vertex -0.311188 -0.311188 1.06246
    endloop
  endfacet
  facet normal 0.382686 0.923879 0
    outer loop
      vertex 0.751274 5.25127 0.440086
      vertex 0.751274 5.25127 -0.440086
      vertex 0 5.56246 0.440086
    endloop
  endfacet
  facet normal -0.92388 0.382683 0
    outer loop
      vertex -1.06246 4.5 0.440086
      vertex -0.751274 5.25127 0.440086
      vertex -1.06246 4.5 -0.440086
    endloop
  endfacet
  facet normal 0 0 -1
    outer loop
      vertex 0.440086 4.5 -1.06246
      vertex 0 4.94009 -1.06246
      vertex 0.311188 4.81119 -1.06246
    endloop
  endfacet
  facet normal -0.678598 -0.281084 -0.678599
    outer loop
      vertex -0.751274 -0.751274 -0.440086
      vertex -0.440086 0 -1.06246
      vertex -0.311188 -0.311188 -1.06246
    endloop
  endfacet
  facet normal 0.281084 -0.678598 -0.678599
    outer loop
      vertex 0 -0.440086 -1.06246
      vertex 0.311188 -0.311188 -1.06246
      vertex 0.751274 -0.751274 -0.440086
    endloop
  endfacet
  facet normal -0.281083 -0.678599 -0.678599
    outer loop
      vertex 0 -1.06246 -0.440086
      vertex -0.751274 -0.751274 -0.440086
      vertex 0 -0.440086 -1.06246
    endloop
  endfacet
  facet normal -0.382681 -0.92388 -0
    outer loop
      vertex 0 -1.06246 0.440086
      vertex -0.751274 -0.751274 -0.440086
      vertex 0 -1.06246 -0.440086
    endloop
  endfacet
  facet normal -0.678599 -0.281083 -0.678599
    outer loop
      vertex -1.06246 0 -0.440086
      vertex -0.440086 0 -1.06246
      vertex -0.751274 -0.751274 -0.440086
    endloop
  endfacet
  facet normal -0.281088 0.678599 -0.678596
    outer loop
      vertex -0.751274 5.25127 -0.440086
      vertex 0 4.94009 -1.06246
      vertex -0.311188 4.81119 -1.06246
    endloop
  endfacet
  facet normal -0.678599 0.281082 0.678599
    outer loop
      vertex -0.440086 4.5 1.06246
      vertex -0.311188 4.81119 1.06246
      vertex -1.06246 4.5 0.440086
    endloop
  endfacet
  facet normal 0 0 1
    outer loop
      vertex -0.311188 4.81119 1.06246
      vertex 0.311188 4.81119 1.06246
      vertex 0 4.94009 1.06246
    endloop
  endfacet
  facet normal 0 0 1
    outer loop
      vertex -0.440086 4.5 1.06246
      vertex 0.311188 4.81119 1.06246
      vertex -0.311188 4.81119 1.06246
    endloop
  endfacet
  facet normal 0 0 1
    outer loop
      vertex -0.440086 0 1.06246
      vertex 0.311188 4.81119 1.06246
      vertex -0.440086 4.5 1.06246
    endloop
  endfacet
  facet normal -0.281087 0.6786 -0.678596
    outer loop
      vertex -0.751274 5.25127 -0.440086
      vertex 0 5.56246 -0.440086
      vertex 0 4.94009 -1.06246
    endloop
  endfacet
  facet normal 0.678598 -0.281084 -0.678599
    outer loop
      vertex 0.751274 -0.751274 -0.440086
      vertex 0.311188 -0.311188 -1.06246
      vertex 0.440086 0 -1.06246
    endloop
  endfacet
  facet normal 0 0 -1
    outer loop
      vertex 0.440086 0 -1.06246
      vertex 0 4.94009 -1.06246
      vertex 0.440086 4.5 -1.06246
    endloop
  endfacet
  facet normal -0.678599 0.281085 -0.678598
    outer loop
      vertex -1.06246 4.5 -0.440086
      vertex -0.751274 5.25127 -0.440086
      vertex -0.311188 4.81119 -1.06246
    endloop
  endfacet
  facet normal 0 0 -1
    outer loop
      vertex -0.440086 4.5 -1.06246
      vertex 0 4.94009 -1.06246
      vertex -0.440086 0 -1.06246
    endloop
  endfacet
  facet normal -0.382686 0.923879 0
    outer loop
      vertex 0 5.56246 0.440086
      vertex 0 5.56246 -0.440086
      vertex -0.751274 5.25127 0.440086
    endloop
  endfacet
  facet normal -0.707107 0 -0.707107
    outer loop
      vertex -1.06246 0 -0.440086
      vertex -0.440086 4.5 -1.06246
      vertex -0.440086 0 -1.06246
    endloop
  endfacet
  facet normal -0.707107 -0 -0.707107
    outer loop
      vertex -1.06246 4.5 -0.440086
      vertex -0.440086 4.5 -1.06246
      vertex -1.06246 0 -0.440086
    endloop
  endfacet
  facet normal 0.281088 0.678599 -0.678596
    outer loop
      vertex 0 4.94009 -1.06246
      vertex 0.751274 5.25127 -0.440086
      vertex 0.311188 4.81119 -1.06246
    endloop
  endfacet
  facet normal -0.92388 0.382683 0
    outer loop
      vertex -1.06246 4.5 -0.440086
      vertex -0.751274 5.25127 0.440086
      vertex -0.751274 5.25127 -0.440086
    endloop
  endfacet
  facet normal 0 0 -1
    outer loop
      vertex 0 -0.440086 -1.06246
      vertex 0 4.94009 -1.06246
      vertex 0.311188 -0.311188 -1.06246
    endloop
  endfacet
  facet normal 0 0 -1
    outer loop
      vertex -0.311188 -0.311188 -1.06246
      vertex 0 4.94009 -1.06246
      vertex 0 -0.440086 -1.06246
    endloop
  endfacet
  facet normal -0.281087 0.6786 0.678596
    outer loop
      vertex 0 4.94009 1.06246
      vertex 0 5.56246 0.440086
      vertex -0.751274 5.25127 0.440086
    endloop
  endfacet
  facet normal 0.281087 0.6786 0.678596
    outer loop
      vertex 0.751274 5.25127 0.440086
      vertex 0 5.56246 0.440086
      vertex 0 4.94009 1.06246
    endloop
  endfacet
  facet normal 0.382686 0.923879 0
    outer loop
      vertex 0 5.56246 0.440086
      vertex 0.751274 5.25127 -0.440086
      vertex 0 5.56246 -0.440086
    endloop
  endfacet
  facet normal 0.281087 0.6786 -0.678596
    outer loop
      vertex 0 5.56246 -0.440086
      vertex 0.751274 5.25127 -0.440086
      vertex 0 4.94009 -1.06246
    endloop
  endfacet
  facet normal 0.92388 0.382683 0
    outer loop
      vertex 1.06246 4.5 0.440086
      vertex 0.751274 5.25127 -0.440086
      vertex 0.751274 5.25127 0.440086
    endloop
  endfacet
  facet normal 0.92388 0.382683 -0
    outer loop
      vertex 1.06246 4.5 -0.440086
      vertex 0.751274 5.25127 -0.440086
      vertex 1.06246 4.5 0.440086
    endloop
  endfacet
endsolid OpenSCAD_Model
