solid OpenSCAD_Model
  facet normal 0.707107 0 0.707107
    outer loop
      vertex 0.757581 4.5 0.3138
      vertex 0.3138 4.5 0.757581
      vertex 0.757581 0 0.3138
    endloop
  endfacet
  facet normal 0.707107 0 0.707107
    outer loop
      vertex 0.757581 0 0.3138
      vertex 0.3138 4.5 0.757581
      vertex 0.3138 0 0.757581
    endloop
  endfacet
  facet normal -0.382683 -0.92388 -0
    outer loop
      vertex -0.535691 -0.535691 0.3138
      vertex -0.535691 -0.535691 -0.3138
      vertex 0 -0.757581 0.3138
    endloop
  endfacet
  facet normal 0.92388 -0.382683 0
    outer loop
      vertex 0.535691 -0.535691 0.3138
      vertex 0.535691 -0.535691 -0.3138
      vertex 0.757581 0 0.3138
    endloop
  endfacet
  facet normal 0 0 1
    outer loop
      vertex -0.3138 4.5 0.757581
      vertex 0.22189 4.72189 0.757581
      vertex -0.22189 4.72189 0.757581
    endloop
  endfacet
  facet normal 0 0 1
    outer loop
      vertex 0.3138 0 0.757581
      vertex 0.22189 4.72189 0.757581
      vertex 0.22189 -0.22189 0.757581
    endloop
  endfacet
  facet normal 0.678598 0.281085 0.678598
    outer loop
      vertex 0.757581 4.5 0.3138
      vertex 0.22189 4.72189 0.757581
      vertex 0.3138 4.5 0.757581
    endloop
  endfacet
  facet normal -0.678598 0.281085 0.678599
    outer loop
      vertex -0.22189 4.72189 0.757581
      vertex -0.535691 5.03569 0.3138
      vertex -0.757581 4.5 0.3138
    endloop
  endfacet
  facet normal 1 -0 0
    outer loop
      vertex 0.757581 0 0.3138
      vertex 0.757581 4.5 -0.3138
      vertex 0.757581 4.5 0.3138
    endloop
  endfacet
  facet normal 0 0 1
    outer loop
      vertex -0.22189 4.72189 0.757581
      vertex 0.22189 4.72189 0.757581
      vertex 0 4.8138 0.757581
    endloop
  endfacet
  facet normal -0.707107 0 0.707107
    outer loop
      vertex -0.3138 0 0.757581
      vertex -0.3138 4.5 0.757581
      vertex -0.757581 0 0.3138
    endloop
  endfacet
  facet normal -0.707107 0 0.707107
    outer loop
      vertex -0.757581 0 0.3138
      vertex -0.3138 4.5 0.757581
      vertex -0.757581 4.5 0.3138
    endloop
  endfacet
  facet normal 0.707107 0 -0.707107
    outer loop
      vertex 0.757581 0 -0.3138
      vertex 0.3138 4.5 -0.757581
      vertex 0.757581 4.5 -0.3138
    endloop
  endfacet
  facet normal 1 0 0
    outer loop
      vertex 0.757581 0 -0.3138
      vertex 0.757581 4.5 -0.3138
      vertex 0.757581 0 0.3138
    endloop
  endfacet
  facet normal -0.92388 -0.382683 -0
    outer loop
      vertex -0.535691 -0.535691 0.3138
      vertex -0.757581 0 0.3138
      vertex -0.535691 -0.535691 -0.3138
    endloop
  endfacet
  facet normal -0.382683 -0.92388 -0
    outer loop
      vertex 0 -0.757581 0.3138
      vertex -0.535691 -0.535691 -0.3138
      vertex 0 -0.757581 -0.3138
    endloop
  endfacet
  facet normal 0.281084 0.678599 -0.678598
    outer loop
      vertex 0.535691 5.03569 -0.3138
      vertex 0 4.8138 -0.757581
      vertex 0 5.25758 -0.3138
    endloop
  endfacet
  facet normal 0 0 1
    outer loop
      vertex 0.3138 4.5 0.757581
      vertex 0.22189 4.72189 0.757581
      vertex 0.3138 0 0.757581
    endloop
  endfacet
  facet normal 0.281084 0.678599 0.678598
    outer loop
      vertex 0 4.8138 0.757581
      vertex 0.535691 5.03569 0.3138
      vertex 0 5.25758 0.3138
    endloop
  endfacet
  facet normal 0.281085 0.678598 -0.678598
    outer loop
      vertex 0.22189 4.72189 -0.757581
      vertex 0 4.8138 -0.757581
      vertex 0.535691 5.03569 -0.3138
    endloop
  endfacet
  facet normal -0.281084 -0.678598 0.678599
    outer loop
      vertex -0.535691 -0.535691 0.3138
      vertex 0 -0.757581 0.3138
      vertex -0.22189 -0.22189 0.757581
    endloop
  endfacet
  facet normal -0.707107 0 -0.707107
    outer loop
      vertex -0.757581 0 -0.3138
      vertex -0.757581 4.5 -0.3138
      vertex -0.3138 0 -0.757581
    endloop
  endfacet
  facet normal -0.678598 -0.281084 0.678599
    outer loop
      vertex -0.22189 -0.22189 0.757581
      vertex -0.757581 0 0.3138
      vertex -0.535691 -0.535691 0.3138
    endloop
  endfacet
  facet normal -0.678598 0.281085 0.678598
    outer loop
      vertex -0.757581 4.5 0.3138
      vertex -0.3138 4.5 0.757581
      vertex -0.22189 4.72189 0.757581
    endloop
  endfacet
  facet normal 0.678598 -0.281084 0.678599
    outer loop
      vertex 0.757581 0 0.3138
      vertex 0.22189 -0.22189 0.757581
      vertex 0.535691 -0.535691 0.3138
    endloop
  endfacet
  facet normal 0.678598 -0.281085 0.678598
    outer loop
      vertex 0.3138 0 0.757581
      vertex 0.22189 -0.22189 0.757581
      vertex 0.757581 0 0.3138
    endloop
  endfacet
  facet normal 0.678598 0.281085 -0.678598
    outer loop
      vertex 0.3138 4.5 -0.757581
      vertex 0.22189 4.72189 -0.757581
      vertex 0.757581 4.5 -0.3138
    endloop
  endfacet
  facet normal 0.382683 0.92388 0
    outer loop
      vertex 0.535691 5.03569 0.3138
      vertex 0 5.25758 -0.3138
      vertex 0 5.25758 0.3138
    endloop
  endfacet
  facet normal -0.92388 -0.382683 0
    outer loop
      vertex -0.535691 -0.535691 -0.3138
      vertex -0.757581 0 0.3138
      vertex -0.757581 0 -0.3138
    endloop
  endfacet
  facet normal -0.281085 0.678598 0.678598
    outer loop
      vertex -0.22189 4.72189 0.757581
      vertex 0 4.8138 0.757581
      vertex -0.535691 5.03569 0.3138
    endloop
  endfacet
  facet normal 0.707107 0 -0.707107
    outer loop
      vertex 0.3138 0 -0.757581
      vertex 0.3138 4.5 -0.757581
      vertex 0.757581 0 -0.3138
    endloop
  endfacet
  facet normal 0.678598 -0.281085 -0.678598
    outer loop
      vertex 0.757581 0 -0.3138
      vertex 0.22189 -0.22189 -0.757581
      vertex 0.3138 0 -0.757581
    endloop
  endfacet
  facet normal 0.92388 0.382683 -0
    outer loop
      vertex 0.757581 4.5 -0.3138
      vertex 0.535691 5.03569 0.3138
      vertex 0.757581 4.5 0.3138
    endloop
  endfacet
  facet normal -0.678598 -0.281085 -0.678598
    outer loop
      vertex -0.3138 0 -0.757581
      vertex -0.22189 -0.22189 -0.757581
      vertex -0.757581 0 -0.3138
    endloop
  endfacet
  facet normal 0.678598 0.281085 -0.678599
    outer loop
      vertex 0.757581 4.5 -0.3138
      vertex 0.22189 4.72189 -0.757581
      vertex 0.535691 5.03569 -0.3138
    endloop
  endfacet
  facet normal 0.382683 0.92388 -0
    outer loop
      vertex 0.535691 5.03569 -0.3138
      vertex 0 5.25758 -0.3138
      vertex 0.535691 5.03569 0.3138
    endloop
  endfacet
  facet normal 0.92388 -0.382683 0
    outer loop
      vertex 0.757581 0 0.3138
      vertex 0.535691 -0.535691 -0.3138
      vertex 0.757581 0 -0.3138
    endloop
  endfacet
  facet normal 0.281084 -0.678598 0.678599
    outer loop
      vertex 0.22189 -0.22189 0.757581
      vertex 0 -0.757581 0.3138
      vertex 0.535691 -0.535691 0.3138
    endloop
  endfacet
  facet normal -0.281084 -0.678598 -0.678599
    outer loop
      vertex -0.535691 -0.535691 -0.3138
      vertex -0.22189 -0.22189 -0.757581
      vertex 0 -0.757581 -0.3138
    endloop
  endfacet
  facet normal -0.678598 -0.281084 -0.678599
    outer loop
      vertex -0.757581 0 -0.3138
      vertex -0.22189 -0.22189 -0.757581
      vertex -0.535691 -0.535691 -0.3138
    endloop
  endfacet
  facet normal 0.382683 -0.92388 0
    outer loop
      vertex 0 -0.757581 0.3138
      vertex 0.535691 -0.535691 -0.3138
      vertex 0.535691 -0.535691 0.3138
    endloop
  endfacet
  facet normal 0.382683 -0.92388 0
    outer loop
      vertex 0 -0.757581 -0.3138
      vertex 0.535691 -0.535691 -0.3138
      vertex 0 -0.757581 0.3138
    endloop
  endfacet
  facet normal 0 0 -1
    outer loop
      vertex 0.3138 0 -0.757581
      vertex -0.22189 4.72189 -0.757581
      vertex 0.3138 4.5 -0.757581
    endloop
  endfacet
  facet normal -0.92388 0.382683 0
    outer loop
      vertex -0.535691 5.03569 0.3138
      vertex -0.757581 4.5 -0.3138
      vertex -0.757581 4.5 0.3138
    endloop
  endfacet
  facet normal -0.678598 -0.281085 0.678598
    outer loop
      vertex -0.3138 0 0.757581
      vertex -0.757581 0 0.3138
      vertex -0.22189 -0.22189 0.757581
    endloop
  endfacet
  facet normal -0.281084 0.678599 0.678598
    outer loop
      vertex -0.535691 5.03569 0.3138
      vertex 0 4.8138 0.757581
      vertex 0 5.25758 0.3138
    endloop
  endfacet
  facet normal 0 0 1
    outer loop
      vertex -0.3138 0 0.757581
      vertex 0.22189 4.72189 0.757581
      vertex -0.3138 4.5 0.757581
    endloop
  endfacet
  facet normal 0 -0 1
    outer loop
      vertex -0.22189 -0.22189 0.757581
      vertex 0.22189 4.72189 0.757581
      vertex -0.3138 0 0.757581
    endloop
  endfacet
  facet normal 0.281085 -0.678598 -0.678598
    outer loop
      vertex 0 -0.3138 -0.757581
      vertex 0.22189 -0.22189 -0.757581
      vertex 0 -0.757581 -0.3138
    endloop
  endfacet
  facet normal -0.678598 0.281085 -0.678599
    outer loop
      vertex -0.535691 5.03569 -0.3138
      vertex -0.22189 4.72189 -0.757581
      vertex -0.757581 4.5 -0.3138
    endloop
  endfacet
  facet normal -0.92388 0.382683 0
    outer loop
      vertex -0.535691 5.03569 -0.3138
      vertex -0.757581 4.5 -0.3138
      vertex -0.535691 5.03569 0.3138
    endloop
  endfacet
  facet normal 0 0 -1
    outer loop
      vertex 0 -0.3138 -0.757581
      vertex -0.22189 4.72189 -0.757581
      vertex 0.22189 -0.22189 -0.757581
    endloop
  endfacet
  facet normal 0.678598 0.281085 0.678599
    outer loop
      vertex 0.535691 5.03569 0.3138
      vertex 0.22189 4.72189 0.757581
      vertex 0.757581 4.5 0.3138
    endloop
  endfacet
  facet normal 0.281085 0.678598 0.678598
    outer loop
      vertex 0 4.8138 0.757581
      vertex 0.22189 4.72189 0.757581
      vertex 0.535691 5.03569 0.3138
    endloop
  endfacet
  facet normal -0.707107 0 -0.707107
    outer loop
      vertex -0.3138 0 -0.757581
      vertex -0.757581 4.5 -0.3138
      vertex -0.3138 4.5 -0.757581
    endloop
  endfacet
  facet normal -0.678598 0.281085 -0.678598
    outer loop
      vertex -0.757581 4.5 -0.3138
      vertex -0.22189 4.72189 -0.757581
      vertex -0.3138 4.5 -0.757581
    endloop
  endfacet
  facet normal -0.281085 -0.678598 0.678598
    outer loop
      vertex 0 -0.757581 0.3138
      vertex 0 -0.3138 0.757581
      vertex -0.22189 -0.22189 0.757581
    endloop
  endfacet
  facet normal 0.281085 -0.678598 0.678598
    outer loop
      vertex 0.22189 -0.22189 0.757581
      vertex 0 -0.3138 0.757581
      vertex 0 -0.757581 0.3138
    endloop
  endfacet
  facet normal -0.281084 0.678599 -0.678598
    outer loop
      vertex 0 5.25758 -0.3138
      vertex 0 4.8138 -0.757581
      vertex -0.535691 5.03569 -0.3138
    endloop
  endfacet
  facet normal -0.281085 -0.678598 -0.678598
    outer loop
      vertex 0 -0.757581 -0.3138
      vertex -0.22189 -0.22189 -0.757581
      vertex 0 -0.3138 -0.757581
    endloop
  endfacet
  facet normal 0.678598 -0.281084 -0.678599
    outer loop
      vertex 0.535691 -0.535691 -0.3138
      vertex 0.22189 -0.22189 -0.757581
      vertex 0.757581 0 -0.3138
    endloop
  endfacet
  facet normal 0.281084 -0.678598 -0.678599
    outer loop
      vertex 0 -0.757581 -0.3138
      vertex 0.22189 -0.22189 -0.757581
      vertex 0.535691 -0.535691 -0.3138
    endloop
  endfacet
  facet normal 0.92388 0.382683 -0
    outer loop
      vertex 0.535691 5.03569 -0.3138
      vertex 0.535691 5.03569 0.3138
      vertex 0.757581 4.5 -0.3138
    endloop
  endfacet
  facet normal 0 0 -1
    outer loop
      vertex -0.3138 4.5 -0.757581
      vertex -0.22189 4.72189 -0.757581
      vertex -0.3138 0 -0.757581
    endloop
  endfacet
  facet normal 0 0 -1
    outer loop
      vertex 0.3138 4.5 -0.757581
      vertex -0.22189 4.72189 -0.757581
      vertex 0.22189 4.72189 -0.757581
    endloop
  endfacet
  facet normal 0 0 -1
    outer loop
      vertex 0.22189 -0.22189 -0.757581
      vertex -0.22189 4.72189 -0.757581
      vertex 0.3138 0 -0.757581
    endloop
  endfacet
  facet normal 0 -0 1
    outer loop
      vertex 0 -0.3138 0.757581
      vertex 0.22189 4.72189 0.757581
      vertex -0.22189 -0.22189 0.757581
    endloop
  endfacet
  facet normal 0 -0 1
    outer loop
      vertex 0.22189 -0.22189 0.757581
      vertex 0.22189 4.72189 0.757581
      vertex 0 -0.3138 0.757581
    endloop
  endfacet
  facet normal -0.382683 0.92388 0
    outer loop
      vertex -0.535691 5.03569 0.3138
      vertex 0 5.25758 -0.3138
      vertex -0.535691 5.03569 -0.3138
    endloop
  endfacet
  facet normal -0.382683 0.92388 0
    outer loop
      vertex 0 5.25758 0.3138
      vertex 0 5.25758 -0.3138
      vertex -0.535691 5.03569 0.3138
    endloop
  endfacet
  facet normal -1 0 0
    outer loop
      vertex -0.757581 0 0.3138
      vertex -0.757581 4.5 -0.3138
      vertex -0.757581 0 -0.3138
    endloop
  endfacet
  facet normal -1 -0 -0
    outer loop
      vertex -0.757581 4.5 0.3138
      vertex -0.757581 4.5 -0.3138
      vertex -0.757581 0 0.3138
    endloop
  endfacet
  facet normal 0 0 -1
    outer loop
      vertex 0.22189 4.72189 -0.757581
      vertex -0.22189 4.72189 -0.757581
      vertex 0 4.8138 -0.757581
    endloop
  endfacet
  facet normal -0.281085 0.678598 -0.678598
    outer loop
      vertex 0 4.8138 -0.757581
      vertex -0.22189 4.72189 -0.757581
      vertex -0.535691 5.03569 -0.3138
    endloop
  endfacet
  facet normal 0 0 -1
    outer loop
      vertex -0.22189 -0.22189 -0.757581
      vertex -0.22189 4.72189 -0.757581
      vertex 0 -0.3138 -0.757581
    endloop
  endfacet
  facet normal 0 0 -1
    outer loop
      vertex -0.3138 0 -0.757581
      vertex -0.22189 4.72189 -0.757581
      vertex -0.22189 -0.22189 -0.757581
    endloop
  endfacet
endsolid OpenSCAD_Model
