solid OpenSCAD_Model
  facet normal 1 0 -0
    outer loop
      vertex 0.803775 4.5 -0.332935
      vertex 0.803775 4.5 0.332935
      vertex 0.803775 0 -0.332935
    endloop
  endfacet
  facet normal 0.382683 0.92388 0
    outer loop
      vertex 0.568355 5.06836 0.332935
      vertex 0.568355 5.06836 -0.332935
      vertex 0 5.30378 0.332935
    endloop
  endfacet
  facet normal -0.382683 -0.92388 -0
    outer loop
      vertex -0.568355 -0.568355 0.332935
      vertex -0.568355 -0.568355 -0.332935
      vertex 0 -0.803775 0.332935
    endloop
  endfacet
  facet normal 0.92388 -0.382683 0
    outer loop
      vertex 0.568355 -0.568355 0.332935
      vertex 0.568355 -0.568355 -0.332935
      vertex 0.803775 0 0.332935
    endloop
  endfacet
  facet normal 0.678598 -0.281087 0.678598
    outer loop
      vertex 0.332935 0 0.803775
      vertex 0.23542 -0.23542 0.803775
      vertex 0.803775 0 0.332935
    endloop
  endfacet
  facet normal -0.281084 -0.678598 0.678599
    outer loop
      vertex -0.568355 -0.568355 0.332935
      vertex 0 -0.803775 0.332935
      vertex -0.23542 -0.23542 0.803775
    endloop
  endfacet
  facet normal 0.707107 0 -0.707107
    outer loop
      vertex 0.803775 0 -0.332935
      vertex 0.332935 4.5 -0.803775
      vertex 0.803775 4.5 -0.332935
    endloop
  endfacet
  facet normal -0.281071 0.678594 -0.678608
    outer loop
      vertex -0.23542 4.73542 -0.803775
      vertex 0 5.30378 -0.332935
      vertex 0 4.83293 -0.803775
    endloop
  endfacet
  facet normal 0.281083 0.678594 -0.678603
    outer loop
      vertex 0.568355 5.06836 -0.332935
      vertex 0.23542 4.73542 -0.803775
      vertex 0 5.30378 -0.332935
    endloop
  endfacet
  facet normal 0.281087 -0.678598 0.678598
    outer loop
      vertex 0.23542 -0.23542 0.803775
      vertex 0 -0.332935 0.803775
      vertex 0 -0.803775 0.332935
    endloop
  endfacet
  facet normal 0.678598 0.281081 0.6786
    outer loop
      vertex 0.568355 5.06836 0.332935
      vertex 0.23542 4.73542 0.803775
      vertex 0.803775 4.5 0.332935
    endloop
  endfacet
  facet normal 0 0 1
    outer loop
      vertex 0.23542 -0.23542 0.803775
      vertex -0.332935 4.5 0.803775
      vertex 0 -0.332935 0.803775
    endloop
  endfacet
  facet normal 0 0 -1
    outer loop
      vertex 0 -0.332935 -0.803775
      vertex 0.23542 4.73542 -0.803775
      vertex 0.23542 -0.23542 -0.803775
    endloop
  endfacet
  facet normal 0.707107 -0 0.707107
    outer loop
      vertex 0.803775 0 0.332935
      vertex 0.803775 4.5 0.332935
      vertex 0.332935 0 0.803775
    endloop
  endfacet
  facet normal -1 0 0
    outer loop
      vertex -0.803775 0 -0.332935
      vertex -0.803775 0 0.332935
      vertex -0.803775 4.5 -0.332935
    endloop
  endfacet
  facet normal -0.382683 -0.92388 -0
    outer loop
      vertex 0 -0.803775 0.332935
      vertex -0.568355 -0.568355 -0.332935
      vertex 0 -0.803775 -0.332935
    endloop
  endfacet
  facet normal -1 0 0
    outer loop
      vertex -0.803775 4.5 -0.332935
      vertex -0.803775 0 0.332935
      vertex -0.803775 4.5 0.332935
    endloop
  endfacet
  facet normal -0.923881 0.38268 0
    outer loop
      vertex -0.803775 4.5 -0.332935
      vertex -0.803775 4.5 0.332935
      vertex -0.568355 5.06836 -0.332935
    endloop
  endfacet
  facet normal 1 0 0
    outer loop
      vertex 0.803775 0 -0.332935
      vertex 0.803775 4.5 0.332935
      vertex 0.803775 0 0.332935
    endloop
  endfacet
  facet normal 0 0 1
    outer loop
      vertex -0.23542 -0.23542 0.803775
      vertex -0.332935 4.5 0.803775
      vertex -0.332935 0 0.803775
    endloop
  endfacet
  facet normal 0.678598 0.281087 0.678598
    outer loop
      vertex 0.803775 4.5 0.332935
      vertex 0.23542 4.73542 0.803775
      vertex 0.332935 4.5 0.803775
    endloop
  endfacet
  facet normal 0 -0 -1
    outer loop
      vertex -0.23542 4.73542 -0.803775
      vertex 0.23542 4.73542 -0.803775
      vertex -0.332935 4.5 -0.803775
    endloop
  endfacet
  facet normal -0.707107 0 -0.707107
    outer loop
      vertex -0.803775 0 -0.332935
      vertex -0.803775 4.5 -0.332935
      vertex -0.332935 0 -0.803775
    endloop
  endfacet
  facet normal -0.923881 0.38268 0
    outer loop
      vertex -0.568355 5.06836 -0.332935
      vertex -0.803775 4.5 0.332935
      vertex -0.568355 5.06836 0.332935
    endloop
  endfacet
  facet normal -0.92388 -0.382683 -0
    outer loop
      vertex -0.568355 -0.568355 0.332935
      vertex -0.803775 0 0.332935
      vertex -0.568355 -0.568355 -0.332935
    endloop
  endfacet
  facet normal 0.678598 -0.281084 0.678599
    outer loop
      vertex 0.803775 0 0.332935
      vertex 0.23542 -0.23542 0.803775
      vertex 0.568355 -0.568355 0.332935
    endloop
  endfacet
  facet normal 0 0 1
    outer loop
      vertex 0 4.83293 0.803775
      vertex -0.332935 4.5 0.803775
      vertex 0.23542 4.73542 0.803775
    endloop
  endfacet
  facet normal 0.281071 0.678594 0.678608
    outer loop
      vertex 0 5.30378 0.332935
      vertex 0 4.83293 0.803775
      vertex 0.23542 4.73542 0.803775
    endloop
  endfacet
  facet normal -0.382683 0.92388 0
    outer loop
      vertex 0 5.30378 0.332935
      vertex 0 5.30378 -0.332935
      vertex -0.568355 5.06836 0.332935
    endloop
  endfacet
  facet normal 0.281071 0.678594 -0.678608
    outer loop
      vertex 0 5.30378 -0.332935
      vertex 0.23542 4.73542 -0.803775
      vertex 0 4.83293 -0.803775
    endloop
  endfacet
  facet normal -0.678598 0.281087 -0.678598
    outer loop
      vertex -0.803775 4.5 -0.332935
      vertex -0.23542 4.73542 -0.803775
      vertex -0.332935 4.5 -0.803775
    endloop
  endfacet
  facet normal 0.678598 -0.281087 -0.678598
    outer loop
      vertex 0.803775 0 -0.332935
      vertex 0.23542 -0.23542 -0.803775
      vertex 0.332935 0 -0.803775
    endloop
  endfacet
  facet normal -0.281083 0.678594 0.678603
    outer loop
      vertex 0 5.30378 0.332935
      vertex -0.568355 5.06836 0.332935
      vertex -0.23542 4.73542 0.803775
    endloop
  endfacet
  facet normal -0.678598 0.281081 0.6786
    outer loop
      vertex -0.568355 5.06836 0.332935
      vertex -0.803775 4.5 0.332935
      vertex -0.23542 4.73542 0.803775
    endloop
  endfacet
  facet normal 0.707107 0 -0.707107
    outer loop
      vertex 0.332935 0 -0.803775
      vertex 0.332935 4.5 -0.803775
      vertex 0.803775 0 -0.332935
    endloop
  endfacet
  facet normal 0.923881 0.38268 0
    outer loop
      vertex 0.803775 4.5 0.332935
      vertex 0.568355 5.06836 -0.332935
      vertex 0.568355 5.06836 0.332935
    endloop
  endfacet
  facet normal 0 0 1
    outer loop
      vertex 0.332935 4.5 0.803775
      vertex -0.332935 4.5 0.803775
      vertex 0.332935 0 0.803775
    endloop
  endfacet
  facet normal 0.707107 -0 0.707107
    outer loop
      vertex 0.332935 0 0.803775
      vertex 0.803775 4.5 0.332935
      vertex 0.332935 4.5 0.803775
    endloop
  endfacet
  facet normal -0 0 1
    outer loop
      vertex -0.23542 4.73542 0.803775
      vertex -0.332935 4.5 0.803775
      vertex 0 4.83293 0.803775
    endloop
  endfacet
  facet normal -0.281087 -0.678598 0.678598
    outer loop
      vertex 0 -0.803775 0.332935
      vertex 0 -0.332935 0.803775
      vertex -0.23542 -0.23542 0.803775
    endloop
  endfacet
  facet normal 0.281083 0.678594 0.678603
    outer loop
      vertex 0.568355 5.06836 0.332935
      vertex 0 5.30378 0.332935
      vertex 0.23542 4.73542 0.803775
    endloop
  endfacet
  facet normal 0.382683 0.92388 0
    outer loop
      vertex 0 5.30378 0.332935
      vertex 0.568355 5.06836 -0.332935
      vertex 0 5.30378 -0.332935
    endloop
  endfacet
  facet normal -0.678598 0.281081 -0.6786
    outer loop
      vertex -0.568355 5.06836 -0.332935
      vertex -0.23542 4.73542 -0.803775
      vertex -0.803775 4.5 -0.332935
    endloop
  endfacet
  facet normal -0.707107 0 -0.707107
    outer loop
      vertex -0.332935 0 -0.803775
      vertex -0.803775 4.5 -0.332935
      vertex -0.332935 4.5 -0.803775
    endloop
  endfacet
  facet normal 0.92388 -0.382683 0
    outer loop
      vertex 0.803775 0 0.332935
      vertex 0.568355 -0.568355 -0.332935
      vertex 0.803775 0 -0.332935
    endloop
  endfacet
  facet normal 0.281084 -0.678598 0.678599
    outer loop
      vertex 0.23542 -0.23542 0.803775
      vertex 0 -0.803775 0.332935
      vertex 0.568355 -0.568355 0.332935
    endloop
  endfacet
  facet normal -0.281084 -0.678598 -0.678599
    outer loop
      vertex -0.568355 -0.568355 -0.332935
      vertex -0.23542 -0.23542 -0.803775
      vertex 0 -0.803775 -0.332935
    endloop
  endfacet
  facet normal -0.678598 -0.281084 -0.678599
    outer loop
      vertex -0.803775 0 -0.332935
      vertex -0.23542 -0.23542 -0.803775
      vertex -0.568355 -0.568355 -0.332935
    endloop
  endfacet
  facet normal 0.382683 -0.92388 0
    outer loop
      vertex 0 -0.803775 0.332935
      vertex 0.568355 -0.568355 -0.332935
      vertex 0.568355 -0.568355 0.332935
    endloop
  endfacet
  facet normal 0.382683 -0.92388 0
    outer loop
      vertex 0 -0.803775 -0.332935
      vertex 0.568355 -0.568355 -0.332935
      vertex 0 -0.803775 0.332935
    endloop
  endfacet
  facet normal 0.281087 -0.678598 -0.678598
    outer loop
      vertex 0 -0.332935 -0.803775
      vertex 0.23542 -0.23542 -0.803775
      vertex 0 -0.803775 -0.332935
    endloop
  endfacet
  facet normal 0.678598 0.281087 -0.678598
    outer loop
      vertex 0.332935 4.5 -0.803775
      vertex 0.23542 4.73542 -0.803775
      vertex 0.803775 4.5 -0.332935
    endloop
  endfacet
  facet normal 0 0 -1
    outer loop
      vertex -0.332935 4.5 -0.803775
      vertex 0.23542 4.73542 -0.803775
      vertex -0.332935 0 -0.803775
    endloop
  endfacet
  facet normal -0.678598 -0.281087 -0.678598
    outer loop
      vertex -0.332935 0 -0.803775
      vertex -0.23542 -0.23542 -0.803775
      vertex -0.803775 0 -0.332935
    endloop
  endfacet
  facet normal -0.281071 0.678594 0.678608
    outer loop
      vertex -0.23542 4.73542 0.803775
      vertex 0 4.83293 0.803775
      vertex 0 5.30378 0.332935
    endloop
  endfacet
  facet normal 0 0 1
    outer loop
      vertex 0.23542 4.73542 0.803775
      vertex -0.332935 4.5 0.803775
      vertex 0.332935 4.5 0.803775
    endloop
  endfacet
  facet normal 0 0 1
    outer loop
      vertex 0.332935 0 0.803775
      vertex -0.332935 4.5 0.803775
      vertex 0.23542 -0.23542 0.803775
    endloop
  endfacet
  facet normal 0 0 1
    outer loop
      vertex 0 -0.332935 0.803775
      vertex -0.332935 4.5 0.803775
      vertex -0.23542 -0.23542 0.803775
    endloop
  endfacet
  facet normal 0.678598 0.281081 -0.6786
    outer loop
      vertex 0.803775 4.5 -0.332935
      vertex 0.23542 4.73542 -0.803775
      vertex 0.568355 5.06836 -0.332935
    endloop
  endfacet
  facet normal -0.281087 -0.678598 -0.678598
    outer loop
      vertex 0 -0.803775 -0.332935
      vertex -0.23542 -0.23542 -0.803775
      vertex 0 -0.332935 -0.803775
    endloop
  endfacet
  facet normal 0.678598 -0.281084 -0.678599
    outer loop
      vertex 0.568355 -0.568355 -0.332935
      vertex 0.23542 -0.23542 -0.803775
      vertex 0.803775 0 -0.332935
    endloop
  endfacet
  facet normal 0.281084 -0.678598 -0.678599
    outer loop
      vertex 0 -0.803775 -0.332935
      vertex 0.23542 -0.23542 -0.803775
      vertex 0.568355 -0.568355 -0.332935
    endloop
  endfacet
  facet normal 0 0 -1
    outer loop
      vertex 0.332935 0 -0.803775
      vertex 0.23542 4.73542 -0.803775
      vertex 0.332935 4.5 -0.803775
    endloop
  endfacet
  facet normal 0 0 -1
    outer loop
      vertex 0.23542 -0.23542 -0.803775
      vertex 0.23542 4.73542 -0.803775
      vertex 0.332935 0 -0.803775
    endloop
  endfacet
  facet normal -0.281083 0.678594 -0.678603
    outer loop
      vertex -0.568355 5.06836 -0.332935
      vertex 0 5.30378 -0.332935
      vertex -0.23542 4.73542 -0.803775
    endloop
  endfacet
  facet normal -0.382683 0.92388 0
    outer loop
      vertex -0.568355 5.06836 0.332935
      vertex 0 5.30378 -0.332935
      vertex -0.568355 5.06836 -0.332935
    endloop
  endfacet
  facet normal -0.707107 0 0.707107
    outer loop
      vertex -0.332935 4.5 0.803775
      vertex -0.803775 0 0.332935
      vertex -0.332935 0 0.803775
    endloop
  endfacet
  facet normal -0.707107 0 0.707107
    outer loop
      vertex -0.803775 4.5 0.332935
      vertex -0.803775 0 0.332935
      vertex -0.332935 4.5 0.803775
    endloop
  endfacet
  facet normal 0.923881 0.38268 -0
    outer loop
      vertex 0.803775 4.5 -0.332935
      vertex 0.568355 5.06836 -0.332935
      vertex 0.803775 4.5 0.332935
    endloop
  endfacet
  facet normal 0 -0 -1
    outer loop
      vertex 0 4.83293 -0.803775
      vertex 0.23542 4.73542 -0.803775
      vertex -0.23542 4.73542 -0.803775
    endloop
  endfacet
  facet normal -0.678598 0.281087 0.678598
    outer loop
      vertex -0.803775 4.5 0.332935
      vertex -0.332935 4.5 0.803775
      vertex -0.23542 4.73542 0.803775
    endloop
  endfacet
  facet normal -0.92388 -0.382683 0
    outer loop
      vertex -0.568355 -0.568355 -0.332935
      vertex -0.803775 0 0.332935
      vertex -0.803775 0 -0.332935
    endloop
  endfacet
  facet normal -0.678598 -0.281084 0.678599
    outer loop
      vertex -0.23542 -0.23542 0.803775
      vertex -0.803775 0 0.332935
      vertex -0.568355 -0.568355 0.332935
    endloop
  endfacet
  facet normal -0.678598 -0.281087 0.678598
    outer loop
      vertex -0.332935 0 0.803775
      vertex -0.803775 0 0.332935
      vertex -0.23542 -0.23542 0.803775
    endloop
  endfacet
  facet normal 0 0 -1
    outer loop
      vertex -0.23542 -0.23542 -0.803775
      vertex 0.23542 4.73542 -0.803775
      vertex 0 -0.332935 -0.803775
    endloop
  endfacet
  facet normal 0 0 -1
    outer loop
      vertex -0.332935 0 -0.803775
      vertex 0.23542 4.73542 -0.803775
      vertex -0.23542 -0.23542 -0.803775
    endloop
  endfacet
endsolid OpenSCAD_Model
