solid OpenSCAD_Model
  facet normal 0.707107 0 0.707107
    outer loop
      vertex 1.01627 0 0.420952
      vertex 0.420952 4.5 1.01627
      vertex 0.420952 0 1.01627
    endloop
  endfacet
  facet normal 0 0 1
    outer loop
      vertex -0.420952 0 1.01627
      vertex 0.297658 4.79766 1.01627
      vertex -0.420952 4.5 1.01627
    endloop
  endfacet
  facet normal -0.678598 0.281086 -0.678598
    outer loop
      vertex -1.01627 4.5 -0.420952
      vertex -0.71861 5.21861 -0.420952
      vertex -0.420952 4.5 -1.01627
    endloop
  endfacet
  facet normal 0.923879 0.382686 -0
    outer loop
      vertex 1.01627 4.5 -0.420952
      vertex 0.71861 5.21861 -0.420952
      vertex 1.01627 4.5 0.420952
    endloop
  endfacet
  facet normal 0.281076 0.678599 0.678601
    outer loop
      vertex 0 4.92095 1.01627
      vertex 0.297658 4.79766 1.01627
      vertex 0 5.51627 0.420952
    endloop
  endfacet
  facet normal 0 -0 -1
    outer loop
      vertex -0.297658 4.79766 -1.01627
      vertex 0 4.92095 -1.01627
      vertex -0.420952 4.5 -1.01627
    endloop
  endfacet
  facet normal 0 0 1
    outer loop
      vertex 0.420952 4.5 1.01627
      vertex 0.297658 4.79766 1.01627
      vertex 0.420952 0 1.01627
    endloop
  endfacet
  facet normal -0.923879 0.382686 0
    outer loop
      vertex -1.01627 4.5 -0.420952
      vertex -0.71861 5.21861 0.420952
      vertex -0.71861 5.21861 -0.420952
    endloop
  endfacet
  facet normal 0.923879 -0.382686 0
    outer loop
      vertex 0.71861 -0.71861 0.420952
      vertex 0.71861 -0.71861 -0.420952
      vertex 1.01627 0 0.420952
    endloop
  endfacet
  facet normal 0.678601 0.281084 -0.678596
    outer loop
      vertex 0.297658 4.79766 -1.01627
      vertex 0.71861 5.21861 -0.420952
      vertex 0.420952 4.5 -1.01627
    endloop
  endfacet
  facet normal -0.281085 -0.678599 0.678597
    outer loop
      vertex -0.71861 -0.71861 0.420952
      vertex 0 -0.420952 1.01627
      vertex -0.297658 -0.297658 1.01627
    endloop
  endfacet
  facet normal -0.707107 -0 -0.707107
    outer loop
      vertex -1.01627 4.5 -0.420952
      vertex -0.420952 4.5 -1.01627
      vertex -1.01627 0 -0.420952
    endloop
  endfacet
  facet normal 0.707107 0 0.707107
    outer loop
      vertex 1.01627 4.5 0.420952
      vertex 0.420952 4.5 1.01627
      vertex 1.01627 0 0.420952
    endloop
  endfacet
  facet normal 0.923879 -0.382686 0
    outer loop
      vertex 1.01627 0 0.420952
      vertex 0.71861 -0.71861 -0.420952
      vertex 1.01627 0 -0.420952
    endloop
  endfacet
  facet normal 0.281085 -0.678599 -0.678597
    outer loop
      vertex 0 -0.420952 -1.01627
      vertex 0.297658 -0.297658 -1.01627
      vertex 0.71861 -0.71861 -0.420952
    endloop
  endfacet
  facet normal 0.678598 -0.281086 0.678598
    outer loop
      vertex 0.420952 0 1.01627
      vertex 0.71861 -0.71861 0.420952
      vertex 1.01627 0 0.420952
    endloop
  endfacet
  facet normal 0.678598 -0.281086 -0.678598
    outer loop
      vertex 1.01627 0 -0.420952
      vertex 0.71861 -0.71861 -0.420952
      vertex 0.420952 0 -1.01627
    endloop
  endfacet
  facet normal 1 -0 0
    outer loop
      vertex 1.01627 0 0.420952
      vertex 1.01627 4.5 -0.420952
      vertex 1.01627 4.5 0.420952
    endloop
  endfacet
  facet normal -0.382686 -0.923879 -0
    outer loop
      vertex 0 -1.01627 0.420952
      vertex -0.71861 -0.71861 -0.420952
      vertex 0 -1.01627 -0.420952
    endloop
  endfacet
  facet normal 0.281087 0.678599 0.678596
    outer loop
      vertex 0 5.51627 0.420952
      vertex 0.297658 4.79766 1.01627
      vertex 0.71861 5.21861 0.420952
    endloop
  endfacet
  facet normal 0.382686 -0.923879 0
    outer loop
      vertex 0 -1.01627 0.420952
      vertex 0.71861 -0.71861 -0.420952
      vertex 0.71861 -0.71861 0.420952
    endloop
  endfacet
  facet normal -0.281086 -0.678598 -0.678598
    outer loop
      vertex 0 -1.01627 -0.420952
      vertex -0.71861 -0.71861 -0.420952
      vertex 0 -0.420952 -1.01627
    endloop
  endfacet
  facet normal -0.382686 -0.923879 -0
    outer loop
      vertex -0.71861 -0.71861 0.420952
      vertex -0.71861 -0.71861 -0.420952
      vertex 0 -1.01627 0.420952
    endloop
  endfacet
  facet normal -0.678599 -0.281085 0.678597
    outer loop
      vertex -0.297658 -0.297658 1.01627
      vertex -0.420952 0 1.01627
      vertex -0.71861 -0.71861 0.420952
    endloop
  endfacet
  facet normal 0.382686 0.923879 0
    outer loop
      vertex 0.71861 5.21861 0.420952
      vertex 0 5.51627 -0.420952
      vertex 0 5.51627 0.420952
    endloop
  endfacet
  facet normal 0.678598 0.281086 -0.678598
    outer loop
      vertex 0.420952 4.5 -1.01627
      vertex 0.71861 5.21861 -0.420952
      vertex 1.01627 4.5 -0.420952
    endloop
  endfacet
  facet normal -0.281087 0.678599 0.678596
    outer loop
      vertex 0 5.51627 0.420952
      vertex -0.71861 5.21861 0.420952
      vertex -0.297658 4.79766 1.01627
    endloop
  endfacet
  facet normal -1 0 0
    outer loop
      vertex -1.01627 0 -0.420952
      vertex -1.01627 4.5 0.420952
      vertex -1.01627 4.5 -0.420952
    endloop
  endfacet
  facet normal -0.678598 -0.281086 -0.678598
    outer loop
      vertex -0.420952 0 -1.01627
      vertex -0.71861 -0.71861 -0.420952
      vertex -1.01627 0 -0.420952
    endloop
  endfacet
  facet normal -0.678599 -0.281085 -0.678597
    outer loop
      vertex -0.420952 0 -1.01627
      vertex -0.297658 -0.297658 -1.01627
      vertex -0.71861 -0.71861 -0.420952
    endloop
  endfacet
  facet normal 0.281086 -0.678598 0.678598
    outer loop
      vertex 0 -0.420952 1.01627
      vertex 0 -1.01627 0.420952
      vertex 0.71861 -0.71861 0.420952
    endloop
  endfacet
  facet normal -0.281086 -0.678598 0.678598
    outer loop
      vertex -0.71861 -0.71861 0.420952
      vertex 0 -1.01627 0.420952
      vertex 0 -0.420952 1.01627
    endloop
  endfacet
  facet normal 0.281085 -0.678599 0.678597
    outer loop
      vertex 0.71861 -0.71861 0.420952
      vertex 0.297658 -0.297658 1.01627
      vertex 0 -0.420952 1.01627
    endloop
  endfacet
  facet normal 0.678599 -0.281085 0.678597
    outer loop
      vertex 0.420952 0 1.01627
      vertex 0.297658 -0.297658 1.01627
      vertex 0.71861 -0.71861 0.420952
    endloop
  endfacet
  facet normal 1 0 0
    outer loop
      vertex 1.01627 0 -0.420952
      vertex 1.01627 4.5 -0.420952
      vertex 1.01627 0 0.420952
    endloop
  endfacet
  facet normal -0.281087 0.678599 -0.678596
    outer loop
      vertex -0.71861 5.21861 -0.420952
      vertex 0 5.51627 -0.420952
      vertex -0.297658 4.79766 -1.01627
    endloop
  endfacet
  facet normal 0.382686 -0.923879 0
    outer loop
      vertex 0 -1.01627 -0.420952
      vertex 0.71861 -0.71861 -0.420952
      vertex 0 -1.01627 0.420952
    endloop
  endfacet
  facet normal -0.678601 0.281084 -0.678596
    outer loop
      vertex -0.71861 5.21861 -0.420952
      vertex -0.297658 4.79766 -1.01627
      vertex -0.420952 4.5 -1.01627
    endloop
  endfacet
  facet normal 0.678599 -0.281085 -0.678597
    outer loop
      vertex 0.71861 -0.71861 -0.420952
      vertex 0.297658 -0.297658 -1.01627
      vertex 0.420952 0 -1.01627
    endloop
  endfacet
  facet normal -0.281076 0.678599 0.678601
    outer loop
      vertex 0 5.51627 0.420952
      vertex -0.297658 4.79766 1.01627
      vertex 0 4.92095 1.01627
    endloop
  endfacet
  facet normal -0.678598 -0.281086 0.678598
    outer loop
      vertex -0.420952 0 1.01627
      vertex -1.01627 0 0.420952
      vertex -0.71861 -0.71861 0.420952
    endloop
  endfacet
  facet normal -1 0 0
    outer loop
      vertex -1.01627 0 0.420952
      vertex -1.01627 4.5 0.420952
      vertex -1.01627 0 -0.420952
    endloop
  endfacet
  facet normal 0.281076 0.678599 -0.678601
    outer loop
      vertex 0.297658 4.79766 -1.01627
      vertex 0 4.92095 -1.01627
      vertex 0 5.51627 -0.420952
    endloop
  endfacet
  facet normal -0.707107 0 -0.707107
    outer loop
      vertex -1.01627 0 -0.420952
      vertex -0.420952 4.5 -1.01627
      vertex -0.420952 0 -1.01627
    endloop
  endfacet
  facet normal 0.281086 -0.678598 -0.678598
    outer loop
      vertex 0 -1.01627 -0.420952
      vertex 0 -0.420952 -1.01627
      vertex 0.71861 -0.71861 -0.420952
    endloop
  endfacet
  facet normal -0.281076 0.678599 -0.678601
    outer loop
      vertex 0 5.51627 -0.420952
      vertex 0 4.92095 -1.01627
      vertex -0.297658 4.79766 -1.01627
    endloop
  endfacet
  facet normal 0.707107 0 -0.707107
    outer loop
      vertex 1.01627 0 -0.420952
      vertex 0.420952 4.5 -1.01627
      vertex 1.01627 4.5 -0.420952
    endloop
  endfacet
  facet normal 0.707107 0 -0.707107
    outer loop
      vertex 0.420952 0 -1.01627
      vertex 0.420952 4.5 -1.01627
      vertex 1.01627 0 -0.420952
    endloop
  endfacet
  facet normal 0 -0 1
    outer loop
      vertex 0 -0.420952 1.01627
      vertex 0.297658 4.79766 1.01627
      vertex -0.297658 -0.297658 1.01627
    endloop
  endfacet
  facet normal 0 -0 1
    outer loop
      vertex -0.297658 -0.297658 1.01627
      vertex 0.297658 4.79766 1.01627
      vertex -0.420952 0 1.01627
    endloop
  endfacet
  facet normal 0.678601 0.281084 0.678596
    outer loop
      vertex 0.71861 5.21861 0.420952
      vertex 0.297658 4.79766 1.01627
      vertex 0.420952 4.5 1.01627
    endloop
  endfacet
  facet normal 0.678598 0.281086 0.678598
    outer loop
      vertex 1.01627 4.5 0.420952
      vertex 0.71861 5.21861 0.420952
      vertex 0.420952 4.5 1.01627
    endloop
  endfacet
  facet normal -0.707107 0 0.707107
    outer loop
      vertex -0.420952 0 1.01627
      vertex -1.01627 4.5 0.420952
      vertex -1.01627 0 0.420952
    endloop
  endfacet
  facet normal -0.707107 0 0.707107
    outer loop
      vertex -0.420952 4.5 1.01627
      vertex -1.01627 4.5 0.420952
      vertex -0.420952 0 1.01627
    endloop
  endfacet
  facet normal -0.678601 0.281084 0.678596
    outer loop
      vertex -0.297658 4.79766 1.01627
      vertex -0.71861 5.21861 0.420952
      vertex -0.420952 4.5 1.01627
    endloop
  endfacet
  facet normal -0.382686 0.923879 0
    outer loop
      vertex -0.71861 5.21861 0.420952
      vertex 0 5.51627 -0.420952
      vertex -0.71861 5.21861 -0.420952
    endloop
  endfacet
  facet normal -0.923879 -0.382686 0
    outer loop
      vertex -1.01627 0 0.420952
      vertex -0.71861 -0.71861 -0.420952
      vertex -0.71861 -0.71861 0.420952
    endloop
  endfacet
  facet normal -0.923879 -0.382686 0
    outer loop
      vertex -1.01627 0 -0.420952
      vertex -0.71861 -0.71861 -0.420952
      vertex -1.01627 0 0.420952
    endloop
  endfacet
  facet normal -0.281085 -0.678599 -0.678597
    outer loop
      vertex -0.71861 -0.71861 -0.420952
      vertex -0.297658 -0.297658 -1.01627
      vertex 0 -0.420952 -1.01627
    endloop
  endfacet
  facet normal 0 0 -1
    outer loop
      vertex 0.297658 -0.297658 -1.01627
      vertex 0 4.92095 -1.01627
      vertex 0.420952 0 -1.01627
    endloop
  endfacet
  facet normal 0 0 1
    outer loop
      vertex -0.420952 4.5 1.01627
      vertex 0.297658 4.79766 1.01627
      vertex -0.297658 4.79766 1.01627
    endloop
  endfacet
  facet normal 0 0 1
    outer loop
      vertex -0.297658 4.79766 1.01627
      vertex 0.297658 4.79766 1.01627
      vertex 0 4.92095 1.01627
    endloop
  endfacet
  facet normal -0.382686 0.923879 0
    outer loop
      vertex 0 5.51627 0.420952
      vertex 0 5.51627 -0.420952
      vertex -0.71861 5.21861 0.420952
    endloop
  endfacet
  facet normal 0.923879 0.382686 0
    outer loop
      vertex 1.01627 4.5 0.420952
      vertex 0.71861 5.21861 -0.420952
      vertex 0.71861 5.21861 0.420952
    endloop
  endfacet
  facet normal 0 -0 1
    outer loop
      vertex 0.297658 -0.297658 1.01627
      vertex 0.297658 4.79766 1.01627
      vertex 0 -0.420952 1.01627
    endloop
  endfacet
  facet normal 0 0 1
    outer loop
      vertex 0.420952 0 1.01627
      vertex 0.297658 4.79766 1.01627
      vertex 0.297658 -0.297658 1.01627
    endloop
  endfacet
  facet normal 0 0 -1
    outer loop
      vertex 0 -0.420952 -1.01627
      vertex 0 4.92095 -1.01627
      vertex 0.297658 -0.297658 -1.01627
    endloop
  endfacet
  facet normal 0 0 -1
    outer loop
      vertex -0.420952 0 -1.01627
      vertex 0 4.92095 -1.01627
      vertex -0.297658 -0.297658 -1.01627
    endloop
  endfacet
  facet normal -0.923879 0.382686 0
    outer loop
      vertex -1.01627 4.5 0.420952
      vertex -0.71861 5.21861 0.420952
      vertex -1.01627 4.5 -0.420952
    endloop
  endfacet
  facet normal -0.678598 0.281086 0.678598
    outer loop
      vertex -0.420952 4.5 1.01627
      vertex -0.71861 5.21861 0.420952
      vertex -1.01627 4.5 0.420952
    endloop
  endfacet
  facet normal 0 0 -1
    outer loop
      vertex -0.297658 -0.297658 -1.01627
      vertex 0 4.92095 -1.01627
      vertex 0 -0.420952 -1.01627
    endloop
  endfacet
  facet normal 0 0 -1
    outer loop
      vertex -0.420952 4.5 -1.01627
      vertex 0 4.92095 -1.01627
      vertex -0.420952 0 -1.01627
    endloop
  endfacet
  facet normal 0.382686 0.923879 -0
    outer loop
      vertex 0.71861 5.21861 -0.420952
      vertex 0 5.51627 -0.420952
      vertex 0.71861 5.21861 0.420952
    endloop
  endfacet
  facet normal 0.281087 0.678599 -0.678596
    outer loop
      vertex 0.297658 4.79766 -1.01627
      vertex 0 5.51627 -0.420952
      vertex 0.71861 5.21861 -0.420952
    endloop
  endfacet
  facet normal 0 0 -1
    outer loop
      vertex 0.420952 4.5 -1.01627
      vertex 0 4.92095 -1.01627
      vertex 0.297658 4.79766 -1.01627
    endloop
  endfacet
  facet normal 0 0 -1
    outer loop
      vertex 0.420952 0 -1.01627
      vertex 0 4.92095 -1.01627
      vertex 0.420952 4.5 -1.01627
    endloop
  endfacet
endsolid OpenSCAD_Model
