solid OpenSCAD_Model
  facet normal 0.707107 0 0.707107
    outer loop
      vertex 0.849969 4.5 0.352069
      vertex 0.352069 4.5 0.849969
      vertex 0.849969 0 0.352069
    endloop
  endfacet
  facet normal 0.707107 0 0.707107
    outer loop
      vertex 0.849969 0 0.352069
      vertex 0.352069 4.5 0.849969
      vertex 0.352069 0 0.849969
    endloop
  endfacet
  facet normal -0.382683 -0.92388 -0
    outer loop
      vertex -0.601019 -0.601019 0.352069
      vertex -0.601019 -0.601019 -0.352069
      vertex 0 -0.849969 0.352069
    endloop
  endfacet
  facet normal 0.92388 -0.382683 0
    outer loop
      vertex 0.601019 -0.601019 0.352069
      vertex 0.601019 -0.601019 -0.352069
      vertex 0.849969 0 0.352069
    endloop
  endfacet
  facet normal 0 -0 1
    outer loop
      vertex -0.24895 -0.24895 0.849969
      vertex 0 4.85207 0.849969
      vertex -0.352069 0 0.849969
    endloop
  endfacet
  facet normal 0.678598 0.281086 0.678598
    outer loop
      vertex 0.849969 4.5 0.352069
      vertex 0.24895 4.74895 0.849969
      vertex 0.352069 4.5 0.849969
    endloop
  endfacet
  facet normal 0.281088 0.678598 0.678598
    outer loop
      vertex 0 5.34997 0.352069
      vertex 0 4.85207 0.849969
      vertex 0.24895 4.74895 0.849969
    endloop
  endfacet
  facet normal -0.678598 0.281084 0.678599
    outer loop
      vertex -0.24895 4.74895 0.849969
      vertex -0.601019 5.10102 0.352069
      vertex -0.849969 4.5 0.352069
    endloop
  endfacet
  facet normal 1 -0 0
    outer loop
      vertex 0.849969 0 0.352069
      vertex 0.849969 4.5 -0.352069
      vertex 0.849969 4.5 0.352069
    endloop
  endfacet
  facet normal 0 0 1
    outer loop
      vertex 0.24895 4.74895 0.849969
      vertex 0 4.85207 0.849969
      vertex 0.352069 4.5 0.849969
    endloop
  endfacet
  facet normal -0.707107 0 0.707107
    outer loop
      vertex -0.352069 0 0.849969
      vertex -0.352069 4.5 0.849969
      vertex -0.849969 0 0.352069
    endloop
  endfacet
  facet normal -0.707107 0 0.707107
    outer loop
      vertex -0.849969 0 0.352069
      vertex -0.352069 4.5 0.849969
      vertex -0.849969 4.5 0.352069
    endloop
  endfacet
  facet normal 0.707107 0 -0.707107
    outer loop
      vertex 0.849969 0 -0.352069
      vertex 0.352069 4.5 -0.849969
      vertex 0.849969 4.5 -0.352069
    endloop
  endfacet
  facet normal 1 0 0
    outer loop
      vertex 0.849969 0 -0.352069
      vertex 0.849969 4.5 -0.352069
      vertex 0.849969 0 0.352069
    endloop
  endfacet
  facet normal -0.92388 -0.382683 -0
    outer loop
      vertex -0.601019 -0.601019 0.352069
      vertex -0.849969 0 0.352069
      vertex -0.601019 -0.601019 -0.352069
    endloop
  endfacet
  facet normal -0.382683 -0.92388 -0
    outer loop
      vertex 0 -0.849969 0.352069
      vertex -0.601019 -0.601019 -0.352069
      vertex 0 -0.849969 -0.352069
    endloop
  endfacet
  facet normal -0.92388 0.382683 0
    outer loop
      vertex -0.601019 5.10102 -0.352069
      vertex -0.849969 4.5 -0.352069
      vertex -0.601019 5.10102 0.352069
    endloop
  endfacet
  facet normal 0.678598 0.281084 0.678599
    outer loop
      vertex 0.849969 4.5 0.352069
      vertex 0.601019 5.10102 0.352069
      vertex 0.24895 4.74895 0.849969
    endloop
  endfacet
  facet normal -0.281084 0.678597 0.6786
    outer loop
      vertex 0 5.34997 0.352069
      vertex -0.601019 5.10102 0.352069
      vertex -0.24895 4.74895 0.849969
    endloop
  endfacet
  facet normal -0.707107 0 -0.707107
    outer loop
      vertex -0.352069 0 -0.849969
      vertex -0.849969 4.5 -0.352069
      vertex -0.352069 4.5 -0.849969
    endloop
  endfacet
  facet normal -0.281084 -0.678598 0.678599
    outer loop
      vertex -0.601019 -0.601019 0.352069
      vertex 0 -0.849969 0.352069
      vertex -0.24895 -0.24895 0.849969
    endloop
  endfacet
  facet normal -0.707107 0 -0.707107
    outer loop
      vertex -0.849969 0 -0.352069
      vertex -0.849969 4.5 -0.352069
      vertex -0.352069 0 -0.849969
    endloop
  endfacet
  facet normal -0.678598 -0.281084 0.678599
    outer loop
      vertex -0.24895 -0.24895 0.849969
      vertex -0.849969 0 0.352069
      vertex -0.601019 -0.601019 0.352069
    endloop
  endfacet
  facet normal -0.678598 0.281086 0.678598
    outer loop
      vertex -0.849969 4.5 0.352069
      vertex -0.352069 4.5 0.849969
      vertex -0.24895 4.74895 0.849969
    endloop
  endfacet
  facet normal 0.678598 -0.281084 0.678599
    outer loop
      vertex 0.849969 0 0.352069
      vertex 0.24895 -0.24895 0.849969
      vertex 0.601019 -0.601019 0.352069
    endloop
  endfacet
  facet normal 0.678598 -0.281086 0.678598
    outer loop
      vertex 0.352069 0 0.849969
      vertex 0.24895 -0.24895 0.849969
      vertex 0.849969 0 0.352069
    endloop
  endfacet
  facet normal 0 -0 -1
    outer loop
      vertex -0.24895 4.74895 -0.849969
      vertex 0 4.85207 -0.849969
      vertex -0.352069 4.5 -0.849969
    endloop
  endfacet
  facet normal -0.281088 0.678598 -0.678598
    outer loop
      vertex 0 5.34997 -0.352069
      vertex 0 4.85207 -0.849969
      vertex -0.24895 4.74895 -0.849969
    endloop
  endfacet
  facet normal -0.92388 -0.382683 0
    outer loop
      vertex -0.601019 -0.601019 -0.352069
      vertex -0.849969 0 0.352069
      vertex -0.849969 0 -0.352069
    endloop
  endfacet
  facet normal 0 0 1
    outer loop
      vertex 0.352069 0 0.849969
      vertex 0 4.85207 0.849969
      vertex 0.24895 -0.24895 0.849969
    endloop
  endfacet
  facet normal 0.707107 0 -0.707107
    outer loop
      vertex 0.352069 0 -0.849969
      vertex 0.352069 4.5 -0.849969
      vertex 0.849969 0 -0.352069
    endloop
  endfacet
  facet normal 0.678598 -0.281086 -0.678598
    outer loop
      vertex 0.849969 0 -0.352069
      vertex 0.24895 -0.24895 -0.849969
      vertex 0.352069 0 -0.849969
    endloop
  endfacet
  facet normal 0.92388 0.382683 -0
    outer loop
      vertex 0.849969 4.5 -0.352069
      vertex 0.601019 5.10102 0.352069
      vertex 0.849969 4.5 0.352069
    endloop
  endfacet
  facet normal -0.678598 -0.281086 -0.678598
    outer loop
      vertex -0.352069 0 -0.849969
      vertex -0.24895 -0.24895 -0.849969
      vertex -0.849969 0 -0.352069
    endloop
  endfacet
  facet normal 0.382683 0.92388 -0
    outer loop
      vertex 0.601019 5.10102 -0.352069
      vertex 0 5.34997 -0.352069
      vertex 0.601019 5.10102 0.352069
    endloop
  endfacet
  facet normal 0 0 -1
    outer loop
      vertex -0.352069 4.5 -0.849969
      vertex 0 4.85207 -0.849969
      vertex -0.352069 0 -0.849969
    endloop
  endfacet
  facet normal 0.92388 -0.382683 0
    outer loop
      vertex 0.849969 0 0.352069
      vertex 0.601019 -0.601019 -0.352069
      vertex 0.849969 0 -0.352069
    endloop
  endfacet
  facet normal 0.281084 -0.678598 0.678599
    outer loop
      vertex 0.24895 -0.24895 0.849969
      vertex 0 -0.849969 0.352069
      vertex 0.601019 -0.601019 0.352069
    endloop
  endfacet
  facet normal -0.281084 -0.678598 -0.678599
    outer loop
      vertex -0.601019 -0.601019 -0.352069
      vertex -0.24895 -0.24895 -0.849969
      vertex 0 -0.849969 -0.352069
    endloop
  endfacet
  facet normal -0.678598 -0.281084 -0.678599
    outer loop
      vertex -0.849969 0 -0.352069
      vertex -0.24895 -0.24895 -0.849969
      vertex -0.601019 -0.601019 -0.352069
    endloop
  endfacet
  facet normal 0.382683 -0.92388 0
    outer loop
      vertex 0 -0.849969 0.352069
      vertex 0.601019 -0.601019 -0.352069
      vertex 0.601019 -0.601019 0.352069
    endloop
  endfacet
  facet normal 0.382683 -0.92388 0
    outer loop
      vertex 0 -0.849969 -0.352069
      vertex 0.601019 -0.601019 -0.352069
      vertex 0 -0.849969 0.352069
    endloop
  endfacet
  facet normal 0 0 -1
    outer loop
      vertex 0.352069 0 -0.849969
      vertex 0 4.85207 -0.849969
      vertex 0.352069 4.5 -0.849969
    endloop
  endfacet
  facet normal -0.92388 0.382683 0
    outer loop
      vertex -0.601019 5.10102 0.352069
      vertex -0.849969 4.5 -0.352069
      vertex -0.849969 4.5 0.352069
    endloop
  endfacet
  facet normal -0.678598 -0.281086 0.678598
    outer loop
      vertex -0.352069 0 0.849969
      vertex -0.849969 0 0.352069
      vertex -0.24895 -0.24895 0.849969
    endloop
  endfacet
  facet normal 0.281084 0.678597 0.6786
    outer loop
      vertex 0.24895 4.74895 0.849969
      vertex 0.601019 5.10102 0.352069
      vertex 0 5.34997 0.352069
    endloop
  endfacet
  facet normal -0.281088 0.678598 0.678598
    outer loop
      vertex -0.24895 4.74895 0.849969
      vertex 0 4.85207 0.849969
      vertex 0 5.34997 0.352069
    endloop
  endfacet
  facet normal 0 0 1
    outer loop
      vertex -0.352069 0 0.849969
      vertex 0 4.85207 0.849969
      vertex -0.352069 4.5 0.849969
    endloop
  endfacet
  facet normal 0.281086 -0.678598 -0.678598
    outer loop
      vertex 0 -0.352069 -0.849969
      vertex 0.24895 -0.24895 -0.849969
      vertex 0 -0.849969 -0.352069
    endloop
  endfacet
  facet normal 0.382683 0.92388 0
    outer loop
      vertex 0.601019 5.10102 0.352069
      vertex 0 5.34997 -0.352069
      vertex 0 5.34997 0.352069
    endloop
  endfacet
  facet normal -0.678598 0.281086 -0.678598
    outer loop
      vertex -0.352069 4.5 -0.849969
      vertex -0.849969 4.5 -0.352069
      vertex -0.24895 4.74895 -0.849969
    endloop
  endfacet
  facet normal 0.678598 0.281084 -0.678599
    outer loop
      vertex 0.849969 4.5 -0.352069
      vertex 0.24895 4.74895 -0.849969
      vertex 0.601019 5.10102 -0.352069
    endloop
  endfacet
  facet normal 0 0 1
    outer loop
      vertex 0.352069 4.5 0.849969
      vertex 0 4.85207 0.849969
      vertex 0.352069 0 0.849969
    endloop
  endfacet
  facet normal 0 0 1
    outer loop
      vertex -0.352069 4.5 0.849969
      vertex 0 4.85207 0.849969
      vertex -0.24895 4.74895 0.849969
    endloop
  endfacet
  facet normal 0.281084 0.678597 -0.6786
    outer loop
      vertex 0.24895 4.74895 -0.849969
      vertex 0 5.34997 -0.352069
      vertex 0.601019 5.10102 -0.352069
    endloop
  endfacet
  facet normal 0.678598 0.281086 -0.678598
    outer loop
      vertex 0.352069 4.5 -0.849969
      vertex 0.24895 4.74895 -0.849969
      vertex 0.849969 4.5 -0.352069
    endloop
  endfacet
  facet normal -0.281086 -0.678598 0.678598
    outer loop
      vertex 0 -0.849969 0.352069
      vertex 0 -0.352069 0.849969
      vertex -0.24895 -0.24895 0.849969
    endloop
  endfacet
  facet normal 0.281086 -0.678598 0.678598
    outer loop
      vertex 0.24895 -0.24895 0.849969
      vertex 0 -0.352069 0.849969
      vertex 0 -0.849969 0.352069
    endloop
  endfacet
  facet normal -0.678598 0.281084 -0.678599
    outer loop
      vertex -0.24895 4.74895 -0.849969
      vertex -0.849969 4.5 -0.352069
      vertex -0.601019 5.10102 -0.352069
    endloop
  endfacet
  facet normal -0.281086 -0.678598 -0.678598
    outer loop
      vertex 0 -0.849969 -0.352069
      vertex -0.24895 -0.24895 -0.849969
      vertex 0 -0.352069 -0.849969
    endloop
  endfacet
  facet normal 0.678598 -0.281084 -0.678599
    outer loop
      vertex 0.601019 -0.601019 -0.352069
      vertex 0.24895 -0.24895 -0.849969
      vertex 0.849969 0 -0.352069
    endloop
  endfacet
  facet normal 0.281084 -0.678598 -0.678599
    outer loop
      vertex 0 -0.849969 -0.352069
      vertex 0.24895 -0.24895 -0.849969
      vertex 0.601019 -0.601019 -0.352069
    endloop
  endfacet
  facet normal 0.92388 0.382683 -0
    outer loop
      vertex 0.601019 5.10102 -0.352069
      vertex 0.601019 5.10102 0.352069
      vertex 0.849969 4.5 -0.352069
    endloop
  endfacet
  facet normal -0.281084 0.678597 -0.6786
    outer loop
      vertex 0 5.34997 -0.352069
      vertex -0.24895 4.74895 -0.849969
      vertex -0.601019 5.10102 -0.352069
    endloop
  endfacet
  facet normal 0 -0 1
    outer loop
      vertex 0 -0.352069 0.849969
      vertex 0 4.85207 0.849969
      vertex -0.24895 -0.24895 0.849969
    endloop
  endfacet
  facet normal 0 0 1
    outer loop
      vertex 0.24895 -0.24895 0.849969
      vertex 0 4.85207 0.849969
      vertex 0 -0.352069 0.849969
    endloop
  endfacet
  facet normal 0.281088 0.678598 -0.678598
    outer loop
      vertex 0.24895 4.74895 -0.849969
      vertex 0 4.85207 -0.849969
      vertex 0 5.34997 -0.352069
    endloop
  endfacet
  facet normal 0 0 -1
    outer loop
      vertex 0.352069 4.5 -0.849969
      vertex 0 4.85207 -0.849969
      vertex 0.24895 4.74895 -0.849969
    endloop
  endfacet
  facet normal -0.382683 0.92388 0
    outer loop
      vertex -0.601019 5.10102 0.352069
      vertex 0 5.34997 -0.352069
      vertex -0.601019 5.10102 -0.352069
    endloop
  endfacet
  facet normal -0.382683 0.92388 0
    outer loop
      vertex 0 5.34997 0.352069
      vertex 0 5.34997 -0.352069
      vertex -0.601019 5.10102 0.352069
    endloop
  endfacet
  facet normal 0 0 -1
    outer loop
      vertex 0.24895 -0.24895 -0.849969
      vertex 0 4.85207 -0.849969
      vertex 0.352069 0 -0.849969
    endloop
  endfacet
  facet normal 0 0 -1
    outer loop
      vertex 0 -0.352069 -0.849969
      vertex 0 4.85207 -0.849969
      vertex 0.24895 -0.24895 -0.849969
    endloop
  endfacet
  facet normal 0 0 -1
    outer loop
      vertex -0.24895 -0.24895 -0.849969
      vertex 0 4.85207 -0.849969
      vertex 0 -0.352069 -0.849969
    endloop
  endfacet
  facet normal 0 0 -1
    outer loop
      vertex -0.352069 0 -0.849969
      vertex 0 4.85207 -0.849969
      vertex -0.24895 -0.24895 -0.849969
    endloop
  endfacet
  facet normal -1 0 0
    outer loop
      vertex -0.849969 0 0.352069
      vertex -0.849969 4.5 -0.352069
      vertex -0.849969 0 -0.352069
    endloop
  endfacet
  facet normal -1 -0 -0
    outer loop
      vertex -0.849969 4.5 0.352069
      vertex -0.849969 4.5 -0.352069
      vertex -0.849969 0 0.352069
    endloop
  endfacet
endsolid OpenSCAD_Model
