solid OpenSCAD_Model
  facet normal -0.774596 0.447215 -0.447213
    outer loop
      vertex -0.65 5.12583 1.1
      vertex -0.65 4 -0.025833
      vertex -1.3 4 1.1
    endloop
  endfacet
  facet normal -0.774597 -0.447215 -0.447213
    outer loop
      vertex -0.65 -1.12583 1.1
      vertex -1.3 0 1.1
      vertex -0.325 -0.562917 -0.025833
    endloop
  endfacet
  facet normal 0.866025 -0 0.500001
    outer loop
      vertex 1.3 0 1.1
      vertex 1.3 4 1.1
      vertex 0.65 0 2.22583
    endloop
  endfacet
  facet normal 0.774599 0.447212 0.447212
    outer loop
      vertex 0.325 4.56292 2.22583
      vertex 0.65 4 2.22583
      vertex 0.65 5.12583 1.1
    endloop
  endfacet
  facet normal -0.774599 0.447212 -0.447211
    outer loop
      vertex -0.65 5.12583 1.1
      vertex -0.325 4.56292 -0.025833
      vertex -0.65 4 -0.025833
    endloop
  endfacet
  facet normal 0 0 -1
    outer loop
      vertex 0.325 -0.562917 -0.025833
      vertex -0.325 4.56292 -0.025833
      vertex 0.65 0 -0.025833
    endloop
  endfacet
  facet normal 0 0.894429 0.44721
    outer loop
      vertex 0.65 5.12583 1.1
      vertex -0.325 4.56292 2.22583
      vertex 0.325 4.56292 2.22583
    endloop
  endfacet
  facet normal 0 -0 1
    outer loop
      vertex -0.325 -0.562917 2.22583
      vertex -0.325 4.56292 2.22583
      vertex -0.65 0 2.22583
    endloop
  endfacet
  facet normal 0 -0.894428 -0.447211
    outer loop
      vertex -0.65 -1.12583 1.1
      vertex 0.325 -0.562917 -0.025833
      vertex 0.65 -1.12583 1.1
    endloop
  endfacet
  facet normal 0 -0.894428 0.447212
    outer loop
      vertex -0.65 -1.12583 1.1
      vertex 0.325 -0.562917 2.22583
      vertex -0.325 -0.562917 2.22583
    endloop
  endfacet
  facet normal -0.866025 0 0.500001
    outer loop
      vertex -0.65 0 2.22583
      vertex -0.65 4 2.22583
      vertex -1.3 0 1.1
    endloop
  endfacet
  facet normal -0.774596 0.447214 0.447214
    outer loop
      vertex -1.3 4 1.1
      vertex -0.65 4 2.22583
      vertex -0.65 5.12583 1.1
    endloop
  endfacet
  facet normal 0.774597 -0.447215 -0.447213
    outer loop
      vertex 0.65 -1.12583 1.1
      vertex 0.325 -0.562917 -0.025833
      vertex 1.3 0 1.1
    endloop
  endfacet
  facet normal 0 0 1
    outer loop
      vertex 0.325 4.56292 2.22583
      vertex -0.325 4.56292 2.22583
      vertex 0.65 4 2.22583
    endloop
  endfacet
  facet normal 0 -0.894428 0.447212
    outer loop
      vertex 0.65 -1.12583 1.1
      vertex 0.325 -0.562917 2.22583
      vertex -0.65 -1.12583 1.1
    endloop
  endfacet
  facet normal 0.774597 -0.447213 -0.447214
    outer loop
      vertex 1.3 0 1.1
      vertex 0.325 -0.562917 -0.025833
      vertex 0.65 0 -0.025833
    endloop
  endfacet
  facet normal 0 -0.894428 -0.447211
    outer loop
      vertex -0.325 -0.562917 -0.025833
      vertex 0.325 -0.562917 -0.025833
      vertex -0.65 -1.12583 1.1
    endloop
  endfacet
  facet normal -0 0.894429 0.44721
    outer loop
      vertex -0.65 5.12583 1.1
      vertex -0.325 4.56292 2.22583
      vertex 0.65 5.12583 1.1
    endloop
  endfacet
  facet normal -0.774597 -0.447213 -0.447214
    outer loop
      vertex -0.325 -0.562917 -0.025833
      vertex -1.3 0 1.1
      vertex -0.65 0 -0.025833
    endloop
  endfacet
  facet normal -0.866025 0 0.500001
    outer loop
      vertex -1.3 0 1.1
      vertex -0.65 4 2.22583
      vertex -1.3 4 1.1
    endloop
  endfacet
  facet normal 0.774596 0.447214 0.447214
    outer loop
      vertex 0.65 4 2.22583
      vertex 1.3 4 1.1
      vertex 0.65 5.12583 1.1
    endloop
  endfacet
  facet normal 0.866025 -0 0.500001
    outer loop
      vertex 0.65 0 2.22583
      vertex 1.3 4 1.1
      vertex 0.65 4 2.22583
    endloop
  endfacet
  facet normal 0.774596 -0.447214 0.447214
    outer loop
      vertex 1.3 0 1.1
      vertex 0.325 -0.562917 2.22583
      vertex 0.65 -1.12583 1.1
    endloop
  endfacet
  facet normal 0.774596 -0.447213 0.447215
    outer loop
      vertex 0.65 0 2.22583
      vertex 0.325 -0.562917 2.22583
      vertex 1.3 0 1.1
    endloop
  endfacet
  facet normal 0.774596 0.447215 -0.447213
    outer loop
      vertex 1.3 4 1.1
      vertex 0.65 4 -0.025833
      vertex 0.65 5.12583 1.1
    endloop
  endfacet
  facet normal 0 0 1
    outer loop
      vertex 0.65 4 2.22583
      vertex -0.325 4.56292 2.22583
      vertex 0.65 0 2.22583
    endloop
  endfacet
  facet normal -0.866025 -0 -0.5
    outer loop
      vertex -1.3 4 1.1
      vertex -0.65 4 -0.025833
      vertex -1.3 0 1.1
    endloop
  endfacet
  facet normal 0 0 -1
    outer loop
      vertex -0.325 -0.562917 -0.025833
      vertex -0.325 4.56292 -0.025833
      vertex 0.325 -0.562917 -0.025833
    endloop
  endfacet
  facet normal -0.774599 0.447212 0.447212
    outer loop
      vertex -0.65 4 2.22583
      vertex -0.325 4.56292 2.22583
      vertex -0.65 5.12583 1.1
    endloop
  endfacet
  facet normal 0 0 1
    outer loop
      vertex -0.65 0 2.22583
      vertex -0.325 4.56292 2.22583
      vertex -0.65 4 2.22583
    endloop
  endfacet
  facet normal 0.866025 0 -0.5
    outer loop
      vertex 1.3 0 1.1
      vertex 0.65 4 -0.025833
      vertex 1.3 4 1.1
    endloop
  endfacet
  facet normal 0.866025 0 -0.5
    outer loop
      vertex 0.65 0 -0.025833
      vertex 0.65 4 -0.025833
      vertex 1.3 0 1.1
    endloop
  endfacet
  facet normal -0.866025 0 -0.5
    outer loop
      vertex -1.3 0 1.1
      vertex -0.65 4 -0.025833
      vertex -0.65 0 -0.025833
    endloop
  endfacet
  facet normal 0 0.894429 -0.447209
    outer loop
      vertex 0.65 5.12583 1.1
      vertex -0.325 4.56292 -0.025833
      vertex -0.65 5.12583 1.1
    endloop
  endfacet
  facet normal -0.774596 -0.447214 0.447214
    outer loop
      vertex -0.325 -0.562917 2.22583
      vertex -1.3 0 1.1
      vertex -0.65 -1.12583 1.1
    endloop
  endfacet
  facet normal -0.774596 -0.447213 0.447215
    outer loop
      vertex -0.65 0 2.22583
      vertex -1.3 0 1.1
      vertex -0.325 -0.562917 2.22583
    endloop
  endfacet
  facet normal 0 0 -1
    outer loop
      vertex -0.65 4 -0.025833
      vertex -0.325 4.56292 -0.025833
      vertex -0.65 0 -0.025833
    endloop
  endfacet
  facet normal 0 0 -1
    outer loop
      vertex -0.65 0 -0.025833
      vertex -0.325 4.56292 -0.025833
      vertex -0.325 -0.562917 -0.025833
    endloop
  endfacet
  facet normal 0 0 1
    outer loop
      vertex 0.325 -0.562917 2.22583
      vertex -0.325 4.56292 2.22583
      vertex -0.325 -0.562917 2.22583
    endloop
  endfacet
  facet normal 0 0 1
    outer loop
      vertex 0.65 0 2.22583
      vertex -0.325 4.56292 2.22583
      vertex 0.325 -0.562917 2.22583
    endloop
  endfacet
  facet normal 0.774599 0.447212 -0.447211
    outer loop
      vertex 0.65 4 -0.025833
      vertex 0.325 4.56292 -0.025833
      vertex 0.65 5.12583 1.1
    endloop
  endfacet
  facet normal 0 0.894429 -0.447209
    outer loop
      vertex 0.325 4.56292 -0.025833
      vertex -0.325 4.56292 -0.025833
      vertex 0.65 5.12583 1.1
    endloop
  endfacet
  facet normal 0 0 -1
    outer loop
      vertex 0.65 4 -0.025833
      vertex -0.325 4.56292 -0.025833
      vertex 0.325 4.56292 -0.025833
    endloop
  endfacet
  facet normal 0 0 -1
    outer loop
      vertex 0.65 0 -0.025833
      vertex -0.325 4.56292 -0.025833
      vertex 0.65 4 -0.025833
    endloop
  endfacet
endsolid OpenSCAD_Model
