solid OpenSCAD_Model
  facet normal 0.222525 0.974927 -0
    outer loop
      vertex 1.24698 1.56366 4
      vertex -0.445042 1.94986 5
      vertex 1.24698 1.56366 5
    endloop
  endfacet
  facet normal 0.222525 0.974927 0
    outer loop
      vertex -0.445042 1.94986 5
      vertex 1.24698 1.56366 4
      vertex -0.445042 1.94986 4
    endloop
  endfacet
  facet normal 0.900969 0.433884 0
    outer loop
      vertex 2 0 5
      vertex 1.24698 1.56366 4
      vertex 1.24698 1.56366 5
    endloop
  endfacet
  facet normal 0.900969 0.433884 0
    outer loop
      vertex 1.24698 1.56366 4
      vertex 2 0 5
      vertex 2 0 4
    endloop
  endfacet
  facet normal 0.900969 -0.433884 0
    outer loop
      vertex 1.24698 -1.56366 5
      vertex 2 0 4
      vertex 2 0 5
    endloop
  endfacet
  facet normal 0.900969 -0.433884 0
    outer loop
      vertex 2 0 4
      vertex 1.24698 -1.56366 5
      vertex 1.24698 -1.56366 4
    endloop
  endfacet
  facet normal -0 0 1
    outer loop
      vertex 0.903989 0.427555 5
      vertex 2 0 5
      vertex 1.24698 1.56366 5
    endloop
  endfacet
  facet normal 0 0 1
    outer loop
      vertex 0.998795 -0.0490675 5
      vertex 2 0 5
      vertex 1 0 5
    endloop
  endfacet
  facet normal 0 0 1
    outer loop
      vertex 2 0 5
      vertex 0.998795 0.0490675 5
      vertex 1 0 5
    endloop
  endfacet
  facet normal 0 0 1
    outer loop
      vertex 2 0 5
      vertex 0.995184 0.0980167 5
      vertex 0.998795 0.0490675 5
    endloop
  endfacet
  facet normal 0 0 1
    outer loop
      vertex 2 0 5
      vertex 0.989176 0.14673 5
      vertex 0.995184 0.0980167 5
    endloop
  endfacet
  facet normal 0 0 1
    outer loop
      vertex 2 0 5
      vertex 0.980784 0.19509 5
      vertex 0.989176 0.14673 5
    endloop
  endfacet
  facet normal 0 0 1
    outer loop
      vertex 2 0 5
      vertex 0.970031 0.24298 5
      vertex 0.980784 0.19509 5
    endloop
  endfacet
  facet normal 0 0 1
    outer loop
      vertex 2 0 5
      vertex 0.95694 0.290284 5
      vertex 0.970031 0.24298 5
    endloop
  endfacet
  facet normal 0 0 1
    outer loop
      vertex 2 0 5
      vertex 0.941544 0.336889 5
      vertex 0.95694 0.290284 5
    endloop
  endfacet
  facet normal 0 0 1
    outer loop
      vertex 2 0 5
      vertex 0.923879 0.382683 5
      vertex 0.941544 0.336889 5
    endloop
  endfacet
  facet normal 0 0 1
    outer loop
      vertex 2 0 5
      vertex 0.903989 0.427555 5
      vertex 0.923879 0.382683 5
    endloop
  endfacet
  facet normal 0 0 1
    outer loop
      vertex 1.24698 1.56366 5
      vertex 0.881921 0.471396 5
      vertex 0.903989 0.427555 5
    endloop
  endfacet
  facet normal 0 0 1
    outer loop
      vertex 1.24698 1.56366 5
      vertex 0.857728 0.514102 5
      vertex 0.881921 0.471396 5
    endloop
  endfacet
  facet normal 0 0 1
    outer loop
      vertex 1.24698 1.56366 5
      vertex 0.83147 0.55557 5
      vertex 0.857728 0.514102 5
    endloop
  endfacet
  facet normal 0 0 1
    outer loop
      vertex 1.24698 1.56366 5
      vertex 0.803207 0.595698 5
      vertex 0.83147 0.55557 5
    endloop
  endfacet
  facet normal 0 0 1
    outer loop
      vertex 1.24698 1.56366 5
      vertex 0.77301 0.634393 5
      vertex 0.803207 0.595698 5
    endloop
  endfacet
  facet normal 0 0 1
    outer loop
      vertex 1.24698 1.56366 5
      vertex 0.740951 0.671558 5
      vertex 0.77301 0.634393 5
    endloop
  endfacet
  facet normal 0 0 1
    outer loop
      vertex 1.24698 1.56366 5
      vertex 0.707107 0.707107 5
      vertex 0.740951 0.671558 5
    endloop
  endfacet
  facet normal 0 0 1
    outer loop
      vertex 1.24698 1.56366 5
      vertex 0.671558 0.740951 5
      vertex 0.707107 0.707107 5
    endloop
  endfacet
  facet normal 0 0 1
    outer loop
      vertex 1.24698 1.56366 5
      vertex 0.634393 0.77301 5
      vertex 0.671558 0.740951 5
    endloop
  endfacet
  facet normal 0 0 1
    outer loop
      vertex 1.24698 1.56366 5
      vertex 0.595698 0.803207 5
      vertex 0.634393 0.77301 5
    endloop
  endfacet
  facet normal 0 0 1
    outer loop
      vertex 1.24698 1.56366 5
      vertex 0.55557 0.83147 5
      vertex 0.595698 0.803207 5
    endloop
  endfacet
  facet normal 0 0 1
    outer loop
      vertex 1.24698 1.56366 5
      vertex 0.514102 0.857728 5
      vertex 0.55557 0.83147 5
    endloop
  endfacet
  facet normal 0 0 1
    outer loop
      vertex 1.24698 1.56366 5
      vertex 0.471396 0.881921 5
      vertex 0.514102 0.857728 5
    endloop
  endfacet
  facet normal 0 0 1
    outer loop
      vertex 1.24698 1.56366 5
      vertex 0.427555 0.903989 5
      vertex 0.471396 0.881921 5
    endloop
  endfacet
  facet normal 0 0 1
    outer loop
      vertex 1.24698 1.56366 5
      vertex 0.382683 0.923879 5
      vertex 0.427555 0.903989 5
    endloop
  endfacet
  facet normal 0 0 1
    outer loop
      vertex 1.24698 1.56366 5
      vertex 0.336889 0.941544 5
      vertex 0.382683 0.923879 5
    endloop
  endfacet
  facet normal 0 0 1
    outer loop
      vertex 1.24698 1.56366 5
      vertex 0.290284 0.95694 5
      vertex 0.336889 0.941544 5
    endloop
  endfacet
  facet normal 0 0 1
    outer loop
      vertex 1.24698 1.56366 5
      vertex 0.24298 0.970031 5
      vertex 0.290284 0.95694 5
    endloop
  endfacet
  facet normal 0 0 1
    outer loop
      vertex 1.24698 1.56366 5
      vertex 0.19509 0.980784 5
      vertex 0.24298 0.970031 5
    endloop
  endfacet
  facet normal 0 0 1
    outer loop
      vertex -0.445042 1.94986 5
      vertex 0.19509 0.980784 5
      vertex 1.24698 1.56366 5
    endloop
  endfacet
  facet normal 0 0 1
    outer loop
      vertex 0.19509 0.980784 5
      vertex -0.445042 1.94986 5
      vertex 0.14673 0.989176 5
    endloop
  endfacet
  facet normal 0 0 1
    outer loop
      vertex 0.14673 0.989176 5
      vertex -0.445042 1.94986 5
      vertex 0.0980167 0.995184 5
    endloop
  endfacet
  facet normal 0 0 1
    outer loop
      vertex 0.0980167 0.995184 5
      vertex -0.445042 1.94986 5
      vertex 0.0490675 0.998795 5
    endloop
  endfacet
  facet normal 0 0 1
    outer loop
      vertex 0.0490675 0.998795 5
      vertex -0.445042 1.94986 5
      vertex 0 1 5
    endloop
  endfacet
  facet normal 0 0 1
    outer loop
      vertex 0 1 5
      vertex -0.445042 1.94986 5
      vertex -0.0490675 0.998795 5
    endloop
  endfacet
  facet normal 0 0 1
    outer loop
      vertex -0.0490675 0.998795 5
      vertex -0.445042 1.94986 5
      vertex -0.0980167 0.995184 5
    endloop
  endfacet
  facet normal 0 0 1
    outer loop
      vertex -0.0980167 0.995184 5
      vertex -0.445042 1.94986 5
      vertex -0.14673 0.989176 5
    endloop
  endfacet
  facet normal 0 0 1
    outer loop
      vertex -0.14673 0.989176 5
      vertex -0.445042 1.94986 5
      vertex -0.19509 0.980784 5
    endloop
  endfacet
  facet normal 0 0 1
    outer loop
      vertex -0.19509 0.980784 5
      vertex -0.445042 1.94986 5
      vertex -0.24298 0.970031 5
    endloop
  endfacet
  facet normal 0 0 1
    outer loop
      vertex -0.24298 0.970031 5
      vertex -0.445042 1.94986 5
      vertex -0.290284 0.95694 5
    endloop
  endfacet
  facet normal 0 0 1
    outer loop
      vertex -0.290284 0.95694 5
      vertex -0.445042 1.94986 5
      vertex -0.336889 0.941544 5
    endloop
  endfacet
  facet normal 0 0 1
    outer loop
      vertex -0.336889 0.941544 5
      vertex -0.445042 1.94986 5
      vertex -0.382683 0.923879 5
    endloop
  endfacet
  facet normal 0 0 1
    outer loop
      vertex -0.445042 1.94986 5
      vertex -0.427555 0.903989 5
      vertex -0.382683 0.923879 5
    endloop
  endfacet
  facet normal 0 0 1
    outer loop
      vertex -0.445042 1.94986 5
      vertex -0.471396 0.881921 5
      vertex -0.427555 0.903989 5
    endloop
  endfacet
  facet normal 0 0 1
    outer loop
      vertex -0.445042 1.94986 5
      vertex -0.514102 0.857728 5
      vertex -0.471396 0.881921 5
    endloop
  endfacet
  facet normal 0 0 1
    outer loop
      vertex -0.445042 1.94986 5
      vertex -0.55557 0.83147 5
      vertex -0.514102 0.857728 5
    endloop
  endfacet
  facet normal 0 0 1
    outer loop
      vertex -0.445042 1.94986 5
      vertex -0.595698 0.803207 5
      vertex -0.55557 0.83147 5
    endloop
  endfacet
  facet normal 0 0 1
    outer loop
      vertex -0.445042 1.94986 5
      vertex -0.634393 0.77301 5
      vertex -0.595698 0.803207 5
    endloop
  endfacet
  facet normal -0 0 1
    outer loop
      vertex -1.80194 0.867767 5
      vertex -0.634393 0.77301 5
      vertex -0.445042 1.94986 5
    endloop
  endfacet
  facet normal 0 0 1
    outer loop
      vertex -0.634393 0.77301 5
      vertex -1.80194 0.867767 5
      vertex -0.671558 0.740951 5
    endloop
  endfacet
  facet normal 0 0 1
    outer loop
      vertex -0.671558 0.740951 5
      vertex -1.80194 0.867767 5
      vertex -0.707107 0.707107 5
    endloop
  endfacet
  facet normal 0 0 1
    outer loop
      vertex -0.707107 0.707107 5
      vertex -1.80194 0.867767 5
      vertex -0.740951 0.671558 5
    endloop
  endfacet
  facet normal 0 0 1
    outer loop
      vertex -0.740951 0.671558 5
      vertex -1.80194 0.867767 5
      vertex -0.77301 0.634393 5
    endloop
  endfacet
  facet normal 0 0 1
    outer loop
      vertex -0.77301 0.634393 5
      vertex -1.80194 0.867767 5
      vertex -0.803207 0.595698 5
    endloop
  endfacet
  facet normal 0 0 1
    outer loop
      vertex -0.803207 0.595698 5
      vertex -1.80194 0.867767 5
      vertex -0.83147 0.55557 5
    endloop
  endfacet
  facet normal 0 0 1
    outer loop
      vertex -0.83147 0.55557 5
      vertex -1.80194 0.867767 5
      vertex -0.857728 0.514102 5
    endloop
  endfacet
  facet normal 0 0 1
    outer loop
      vertex -0.857728 0.514102 5
      vertex -1.80194 0.867767 5
      vertex -0.881921 0.471396 5
    endloop
  endfacet
  facet normal 0 0 1
    outer loop
      vertex -0.881921 0.471396 5
      vertex -1.80194 0.867767 5
      vertex -0.903989 0.427555 5
    endloop
  endfacet
  facet normal 0 0 1
    outer loop
      vertex -0.903989 0.427555 5
      vertex -1.80194 0.867767 5
      vertex -0.923879 0.382683 5
    endloop
  endfacet
  facet normal 0 0 1
    outer loop
      vertex -0.923879 0.382683 5
      vertex -1.80194 0.867767 5
      vertex -0.941544 0.336889 5
    endloop
  endfacet
  facet normal 0 0 1
    outer loop
      vertex -0.998795 0.0490675 5
      vertex -1.80194 0.867767 5
      vertex -1 0 5
    endloop
  endfacet
  facet normal 0 0 1
    outer loop
      vertex -0.995184 0.0980167 5
      vertex -1.80194 0.867767 5
      vertex -0.998795 0.0490675 5
    endloop
  endfacet
  facet normal 0 0 1
    outer loop
      vertex -0.989176 0.14673 5
      vertex -1.80194 0.867767 5
      vertex -0.995184 0.0980167 5
    endloop
  endfacet
  facet normal 0 0 1
    outer loop
      vertex -0.980784 0.19509 5
      vertex -1.80194 0.867767 5
      vertex -0.989176 0.14673 5
    endloop
  endfacet
  facet normal 0 0 1
    outer loop
      vertex -0.970031 0.24298 5
      vertex -1.80194 0.867767 5
      vertex -0.980784 0.19509 5
    endloop
  endfacet
  facet normal 0 0 1
    outer loop
      vertex -0.95694 0.290284 5
      vertex -1.80194 0.867767 5
      vertex -0.970031 0.24298 5
    endloop
  endfacet
  facet normal 0 0 1
    outer loop
      vertex -0.941544 0.336889 5
      vertex -1.80194 0.867767 5
      vertex -0.95694 0.290284 5
    endloop
  endfacet
  facet normal 0 0 1
    outer loop
      vertex 0.995184 -0.0980167 5
      vertex 2 0 5
      vertex 0.998795 -0.0490675 5
    endloop
  endfacet
  facet normal 0 0 1
    outer loop
      vertex 0.989176 -0.14673 5
      vertex 2 0 5
      vertex 0.995184 -0.0980167 5
    endloop
  endfacet
  facet normal 0 0 1
    outer loop
      vertex 0.980784 -0.19509 5
      vertex 2 0 5
      vertex 0.989176 -0.14673 5
    endloop
  endfacet
  facet normal 0 0 1
    outer loop
      vertex 0.970031 -0.24298 5
      vertex 2 0 5
      vertex 0.980784 -0.19509 5
    endloop
  endfacet
  facet normal 0 0 1
    outer loop
      vertex 0.95694 -0.290284 5
      vertex 2 0 5
      vertex 0.970031 -0.24298 5
    endloop
  endfacet
  facet normal 0 0 1
    outer loop
      vertex 0.941544 -0.336889 5
      vertex 2 0 5
      vertex 0.95694 -0.290284 5
    endloop
  endfacet
  facet normal 0 0 1
    outer loop
      vertex 0.923879 -0.382683 5
      vertex 2 0 5
      vertex 0.941544 -0.336889 5
    endloop
  endfacet
  facet normal 0 0 1
    outer loop
      vertex 0.903989 -0.427555 5
      vertex 2 0 5
      vertex 0.923879 -0.382683 5
    endloop
  endfacet
  facet normal 0 0 1
    outer loop
      vertex 2 0 5
      vertex 0.903989 -0.427555 5
      vertex 1.24698 -1.56366 5
    endloop
  endfacet
  facet normal -0 0 1
    outer loop
      vertex 0.881921 -0.471396 5
      vertex 1.24698 -1.56366 5
      vertex 0.903989 -0.427555 5
    endloop
  endfacet
  facet normal -0 0 1
    outer loop
      vertex 0.857728 -0.514102 5
      vertex 1.24698 -1.56366 5
      vertex 0.881921 -0.471396 5
    endloop
  endfacet
  facet normal -0 0 1
    outer loop
      vertex 0.83147 -0.55557 5
      vertex 1.24698 -1.56366 5
      vertex 0.857728 -0.514102 5
    endloop
  endfacet
  facet normal -0 0 1
    outer loop
      vertex 0.803207 -0.595698 5
      vertex 1.24698 -1.56366 5
      vertex 0.83147 -0.55557 5
    endloop
  endfacet
  facet normal -0 0 1
    outer loop
      vertex 0.77301 -0.634393 5
      vertex 1.24698 -1.56366 5
      vertex 0.803207 -0.595698 5
    endloop
  endfacet
  facet normal -0 0 1
    outer loop
      vertex 0.740951 -0.671558 5
      vertex 1.24698 -1.56366 5
      vertex 0.77301 -0.634393 5
    endloop
  endfacet
  facet normal -0 0 1
    outer loop
      vertex 0.707107 -0.707107 5
      vertex 1.24698 -1.56366 5
      vertex 0.740951 -0.671558 5
    endloop
  endfacet
  facet normal -0 0 1
    outer loop
      vertex 0.671558 -0.740951 5
      vertex 1.24698 -1.56366 5
      vertex 0.707107 -0.707107 5
    endloop
  endfacet
  facet normal -0 0 1
    outer loop
      vertex 0.634393 -0.77301 5
      vertex 1.24698 -1.56366 5
      vertex 0.671558 -0.740951 5
    endloop
  endfacet
  facet normal -0 0 1
    outer loop
      vertex 0.595698 -0.803207 5
      vertex 1.24698 -1.56366 5
      vertex 0.634393 -0.77301 5
    endloop
  endfacet
  facet normal -0 0 1
    outer loop
      vertex 0.55557 -0.83147 5
      vertex 1.24698 -1.56366 5
      vertex 0.595698 -0.803207 5
    endloop
  endfacet
  facet normal -0 0 1
    outer loop
      vertex 0.514102 -0.857728 5
      vertex 1.24698 -1.56366 5
      vertex 0.55557 -0.83147 5
    endloop
  endfacet
  facet normal -0 0 1
    outer loop
      vertex 0.471396 -0.881921 5
      vertex 1.24698 -1.56366 5
      vertex 0.514102 -0.857728 5
    endloop
  endfacet
  facet normal -0 0 1
    outer loop
      vertex 0.427555 -0.903989 5
      vertex 1.24698 -1.56366 5
      vertex 0.471396 -0.881921 5
    endloop
  endfacet
  facet normal -0 0 1
    outer loop
      vertex 0.382683 -0.923879 5
      vertex 1.24698 -1.56366 5
      vertex 0.427555 -0.903989 5
    endloop
  endfacet
  facet normal -0 0 1
    outer loop
      vertex 0.336889 -0.941544 5
      vertex 1.24698 -1.56366 5
      vertex 0.382683 -0.923879 5
    endloop
  endfacet
  facet normal -0 0 1
    outer loop
      vertex 0.290284 -0.95694 5
      vertex 1.24698 -1.56366 5
      vertex 0.336889 -0.941544 5
    endloop
  endfacet
  facet normal -0 0 1
    outer loop
      vertex 0.24298 -0.970031 5
      vertex 1.24698 -1.56366 5
      vertex 0.290284 -0.95694 5
    endloop
  endfacet
  facet normal -0 0 1
    outer loop
      vertex 0.19509 -0.980784 5
      vertex 1.24698 -1.56366 5
      vertex 0.24298 -0.970031 5
    endloop
  endfacet
  facet normal 0 0 1
    outer loop
      vertex -0.445042 -1.94986 5
      vertex 0.19509 -0.980784 5
      vertex 0.14673 -0.989176 5
    endloop
  endfacet
  facet normal 0 0 1
    outer loop
      vertex -0.445042 -1.94986 5
      vertex 0.14673 -0.989176 5
      vertex 0.0980167 -0.995184 5
    endloop
  endfacet
  facet normal 0 0 1
    outer loop
      vertex -0.445042 -1.94986 5
      vertex 0.0980167 -0.995184 5
      vertex 0.0490675 -0.998795 5
    endloop
  endfacet
  facet normal 0 0 1
    outer loop
      vertex -0.445042 -1.94986 5
      vertex 0.0490675 -0.998795 5
      vertex 0 -1 5
    endloop
  endfacet
  facet normal 0 0 1
    outer loop
      vertex -0.445042 -1.94986 5
      vertex 0 -1 5
      vertex -0.0490675 -0.998795 5
    endloop
  endfacet
  facet normal 0 0 1
    outer loop
      vertex -0.445042 -1.94986 5
      vertex -0.0490675 -0.998795 5
      vertex -0.0980167 -0.995184 5
    endloop
  endfacet
  facet normal 0 0 1
    outer loop
      vertex -0.445042 -1.94986 5
      vertex -0.0980167 -0.995184 5
      vertex -0.14673 -0.989176 5
    endloop
  endfacet
  facet normal 0 0 1
    outer loop
      vertex -0.445042 -1.94986 5
      vertex -0.14673 -0.989176 5
      vertex -0.19509 -0.980784 5
    endloop
  endfacet
  facet normal 0 0 1
    outer loop
      vertex -0.445042 -1.94986 5
      vertex -0.19509 -0.980784 5
      vertex -0.24298 -0.970031 5
    endloop
  endfacet
  facet normal 0 0 1
    outer loop
      vertex -0.445042 -1.94986 5
      vertex -0.24298 -0.970031 5
      vertex -0.290284 -0.95694 5
    endloop
  endfacet
  facet normal 0 0 1
    outer loop
      vertex -0.445042 -1.94986 5
      vertex -0.290284 -0.95694 5
      vertex -0.336889 -0.941544 5
    endloop
  endfacet
  facet normal 0 0 1
    outer loop
      vertex -0.445042 -1.94986 5
      vertex -0.336889 -0.941544 5
      vertex -0.382683 -0.923879 5
    endloop
  endfacet
  facet normal 0 0 1
    outer loop
      vertex 0.19509 -0.980784 5
      vertex -0.445042 -1.94986 5
      vertex 1.24698 -1.56366 5
    endloop
  endfacet
  facet normal 0 0 1
    outer loop
      vertex -0.427555 -0.903989 5
      vertex -0.445042 -1.94986 5
      vertex -0.382683 -0.923879 5
    endloop
  endfacet
  facet normal 0 0 1
    outer loop
      vertex -0.471396 -0.881921 5
      vertex -0.445042 -1.94986 5
      vertex -0.427555 -0.903989 5
    endloop
  endfacet
  facet normal 0 0 1
    outer loop
      vertex -0.514102 -0.857728 5
      vertex -0.445042 -1.94986 5
      vertex -0.471396 -0.881921 5
    endloop
  endfacet
  facet normal 0 0 1
    outer loop
      vertex -0.55557 -0.83147 5
      vertex -0.445042 -1.94986 5
      vertex -0.514102 -0.857728 5
    endloop
  endfacet
  facet normal 0 0 1
    outer loop
      vertex -0.595698 -0.803207 5
      vertex -0.445042 -1.94986 5
      vertex -0.55557 -0.83147 5
    endloop
  endfacet
  facet normal 0 0 1
    outer loop
      vertex -0.634393 -0.77301 5
      vertex -0.445042 -1.94986 5
      vertex -0.595698 -0.803207 5
    endloop
  endfacet
  facet normal 0 0 1
    outer loop
      vertex -1.80194 -0.867767 5
      vertex -0.634393 -0.77301 5
      vertex -0.671558 -0.740951 5
    endloop
  endfacet
  facet normal 0 0 1
    outer loop
      vertex -1.80194 -0.867767 5
      vertex -0.671558 -0.740951 5
      vertex -0.707107 -0.707107 5
    endloop
  endfacet
  facet normal 0 0 1
    outer loop
      vertex -1.80194 -0.867767 5
      vertex -0.707107 -0.707107 5
      vertex -0.740951 -0.671558 5
    endloop
  endfacet
  facet normal 0 0 1
    outer loop
      vertex -1.80194 -0.867767 5
      vertex -0.740951 -0.671558 5
      vertex -0.77301 -0.634393 5
    endloop
  endfacet
  facet normal 0 0 1
    outer loop
      vertex -1.80194 -0.867767 5
      vertex -0.77301 -0.634393 5
      vertex -0.803207 -0.595698 5
    endloop
  endfacet
  facet normal 0 0 1
    outer loop
      vertex -1.80194 -0.867767 5
      vertex -0.803207 -0.595698 5
      vertex -0.83147 -0.55557 5
    endloop
  endfacet
  facet normal 0 0 1
    outer loop
      vertex -1.80194 -0.867767 5
      vertex -0.83147 -0.55557 5
      vertex -0.857728 -0.514102 5
    endloop
  endfacet
  facet normal 0 0 1
    outer loop
      vertex -1.80194 -0.867767 5
      vertex -0.857728 -0.514102 5
      vertex -0.881921 -0.471396 5
    endloop
  endfacet
  facet normal 0 0 1
    outer loop
      vertex -1.80194 -0.867767 5
      vertex -0.881921 -0.471396 5
      vertex -0.903989 -0.427555 5
    endloop
  endfacet
  facet normal 0 0 1
    outer loop
      vertex -1.80194 -0.867767 5
      vertex -0.903989 -0.427555 5
      vertex -0.923879 -0.382683 5
    endloop
  endfacet
  facet normal 0 0 1
    outer loop
      vertex -1.80194 -0.867767 5
      vertex -0.923879 -0.382683 5
      vertex -0.941544 -0.336889 5
    endloop
  endfacet
  facet normal 0 0 1
    outer loop
      vertex -1.80194 -0.867767 5
      vertex -0.941544 -0.336889 5
      vertex -0.95694 -0.290284 5
    endloop
  endfacet
  facet normal 0 0 1
    outer loop
      vertex -1.80194 -0.867767 5
      vertex -1 0 5
      vertex -1.80194 0.867767 5
    endloop
  endfacet
  facet normal 0 0 1
    outer loop
      vertex -1 0 5
      vertex -1.80194 -0.867767 5
      vertex -0.998795 -0.0490675 5
    endloop
  endfacet
  facet normal 0 0 1
    outer loop
      vertex -0.998795 -0.0490675 5
      vertex -1.80194 -0.867767 5
      vertex -0.995184 -0.0980167 5
    endloop
  endfacet
  facet normal 0 0 1
    outer loop
      vertex -0.995184 -0.0980167 5
      vertex -1.80194 -0.867767 5
      vertex -0.989176 -0.14673 5
    endloop
  endfacet
  facet normal 0 0 1
    outer loop
      vertex -0.989176 -0.14673 5
      vertex -1.80194 -0.867767 5
      vertex -0.980784 -0.19509 5
    endloop
  endfacet
  facet normal 0 0 1
    outer loop
      vertex -0.980784 -0.19509 5
      vertex -1.80194 -0.867767 5
      vertex -0.970031 -0.24298 5
    endloop
  endfacet
  facet normal 0 0 1
    outer loop
      vertex -0.970031 -0.24298 5
      vertex -1.80194 -0.867767 5
      vertex -0.95694 -0.290284 5
    endloop
  endfacet
  facet normal 0 0 1
    outer loop
      vertex -0.634393 -0.77301 5
      vertex -1.80194 -0.867767 5
      vertex -0.445042 -1.94986 5
    endloop
  endfacet
  facet normal -0.623491 -0.781831 0
    outer loop
      vertex -1.80194 -0.867767 4
      vertex -0.445042 -1.94986 5
      vertex -1.80194 -0.867767 5
    endloop
  endfacet
  facet normal -0.623491 -0.781831 -0
    outer loop
      vertex -0.445042 -1.94986 5
      vertex -1.80194 -0.867767 4
      vertex -0.445042 -1.94986 4
    endloop
  endfacet
  facet normal 0.222525 -0.974927 0
    outer loop
      vertex -0.445042 -1.94986 4
      vertex 1.24698 -1.56366 5
      vertex -0.445042 -1.94986 5
    endloop
  endfacet
  facet normal 0.222525 -0.974927 0
    outer loop
      vertex 1.24698 -1.56366 5
      vertex -0.445042 -1.94986 4
      vertex 1.24698 -1.56366 4
    endloop
  endfacet
  facet normal 0 0 1
    outer loop
      vertex 0.998795 0.0490675 4
      vertex 0.998795 -0.0490675 4
      vertex 1 0 4
    endloop
  endfacet
  facet normal 0 0 1
    outer loop
      vertex 0.995184 0.0980167 4
      vertex 0.998795 -0.0490675 4
      vertex 0.998795 0.0490675 4
    endloop
  endfacet
  facet normal 0 0 1
    outer loop
      vertex 0.995184 0.0980167 4
      vertex 0.995184 -0.0980167 4
      vertex 0.998795 -0.0490675 4
    endloop
  endfacet
  facet normal 0 0 1
    outer loop
      vertex 0.989176 0.14673 4
      vertex 0.995184 -0.0980167 4
      vertex 0.995184 0.0980167 4
    endloop
  endfacet
  facet normal 0 0 1
    outer loop
      vertex 0.989176 0.14673 4
      vertex 0.989176 -0.14673 4
      vertex 0.995184 -0.0980167 4
    endloop
  endfacet
  facet normal 0 0 1
    outer loop
      vertex 0.980784 0.19509 4
      vertex 0.989176 -0.14673 4
      vertex 0.989176 0.14673 4
    endloop
  endfacet
  facet normal 0 0 1
    outer loop
      vertex 0.980784 0.19509 4
      vertex 0.980784 -0.19509 4
      vertex 0.989176 -0.14673 4
    endloop
  endfacet
  facet normal 0 0 1
    outer loop
      vertex 0.970031 0.24298 4
      vertex 0.980784 -0.19509 4
      vertex 0.980784 0.19509 4
    endloop
  endfacet
  facet normal 0 0 1
    outer loop
      vertex 0.970031 0.24298 4
      vertex 0.970031 -0.24298 4
      vertex 0.980784 -0.19509 4
    endloop
  endfacet
  facet normal 0 0 1
    outer loop
      vertex 0.95694 0.290284 4
      vertex 0.970031 -0.24298 4
      vertex 0.970031 0.24298 4
    endloop
  endfacet
  facet normal 0 0 1
    outer loop
      vertex 0.95694 0.290284 4
      vertex 0.95694 -0.290284 4
      vertex 0.970031 -0.24298 4
    endloop
  endfacet
  facet normal 0 0 1
    outer loop
      vertex 0.941544 0.336889 4
      vertex 0.95694 -0.290284 4
      vertex 0.95694 0.290284 4
    endloop
  endfacet
  facet normal 0 0 1
    outer loop
      vertex 0.941544 0.336889 4
      vertex 0.941544 -0.336889 4
      vertex 0.95694 -0.290284 4
    endloop
  endfacet
  facet normal 0 0 1
    outer loop
      vertex 0.923879 0.382683 4
      vertex 0.941544 -0.336889 4
      vertex 0.941544 0.336889 4
    endloop
  endfacet
  facet normal 0 0 1
    outer loop
      vertex 0.923879 0.382683 4
      vertex 0.923879 -0.382683 4
      vertex 0.941544 -0.336889 4
    endloop
  endfacet
  facet normal 0 0 1
    outer loop
      vertex 0.903989 0.427555 4
      vertex 0.923879 -0.382683 4
      vertex 0.923879 0.382683 4
    endloop
  endfacet
  facet normal 0 0 1
    outer loop
      vertex 0.903989 0.427555 4
      vertex 0.903989 -0.427555 4
      vertex 0.923879 -0.382683 4
    endloop
  endfacet
  facet normal 0 0 1
    outer loop
      vertex 0.881921 0.471396 4
      vertex 0.903989 -0.427555 4
      vertex 0.903989 0.427555 4
    endloop
  endfacet
  facet normal 0 0 1
    outer loop
      vertex 0.881921 0.471396 4
      vertex 0.881921 -0.471396 4
      vertex 0.903989 -0.427555 4
    endloop
  endfacet
  facet normal 0 0 1
    outer loop
      vertex 0.857728 0.514102 4
      vertex 0.881921 -0.471396 4
      vertex 0.881921 0.471396 4
    endloop
  endfacet
  facet normal 0 0 1
    outer loop
      vertex 0.857728 0.514102 4
      vertex 0.857728 -0.514102 4
      vertex 0.881921 -0.471396 4
    endloop
  endfacet
  facet normal 0 0 1
    outer loop
      vertex 0.83147 0.55557 4
      vertex 0.857728 -0.514102 4
      vertex 0.857728 0.514102 4
    endloop
  endfacet
  facet normal 0 0 1
    outer loop
      vertex 0.83147 0.55557 4
      vertex 0.83147 -0.55557 4
      vertex 0.857728 -0.514102 4
    endloop
  endfacet
  facet normal 0 0 1
    outer loop
      vertex 0.803207 0.595698 4
      vertex 0.83147 -0.55557 4
      vertex 0.83147 0.55557 4
    endloop
  endfacet
  facet normal 0 0 1
    outer loop
      vertex 0.803207 0.595698 4
      vertex 0.803207 -0.595698 4
      vertex 0.83147 -0.55557 4
    endloop
  endfacet
  facet normal 0 0 1
    outer loop
      vertex 0.77301 0.634393 4
      vertex 0.803207 -0.595698 4
      vertex 0.803207 0.595698 4
    endloop
  endfacet
  facet normal 0 0 1
    outer loop
      vertex 0.77301 0.634393 4
      vertex 0.77301 -0.634393 4
      vertex 0.803207 -0.595698 4
    endloop
  endfacet
  facet normal 0 0 1
    outer loop
      vertex 0.740951 0.671558 4
      vertex 0.77301 -0.634393 4
      vertex 0.77301 0.634393 4
    endloop
  endfacet
  facet normal 0 0 1
    outer loop
      vertex 0.740951 0.671558 4
      vertex 0.740951 -0.671558 4
      vertex 0.77301 -0.634393 4
    endloop
  endfacet
  facet normal 0 0 1
    outer loop
      vertex 0.707107 0.707107 4
      vertex 0.740951 -0.671558 4
      vertex 0.740951 0.671558 4
    endloop
  endfacet
  facet normal 0 0 1
    outer loop
      vertex 0.707107 0.707107 4
      vertex 0.707107 -0.707107 4
      vertex 0.740951 -0.671558 4
    endloop
  endfacet
  facet normal 0 0 1
    outer loop
      vertex 0.671558 0.740951 4
      vertex 0.707107 -0.707107 4
      vertex 0.707107 0.707107 4
    endloop
  endfacet
  facet normal 0 0 1
    outer loop
      vertex 0.671558 0.740951 4
      vertex 0.671558 -0.740951 4
      vertex 0.707107 -0.707107 4
    endloop
  endfacet
  facet normal 0 0 1
    outer loop
      vertex 0.634393 0.77301 4
      vertex 0.671558 -0.740951 4
      vertex 0.671558 0.740951 4
    endloop
  endfacet
  facet normal 0 0 1
    outer loop
      vertex 0.634393 0.77301 4
      vertex 0.634393 -0.77301 4
      vertex 0.671558 -0.740951 4
    endloop
  endfacet
  facet normal 0 0 1
    outer loop
      vertex 0.595698 0.803207 4
      vertex 0.634393 -0.77301 4
      vertex 0.634393 0.77301 4
    endloop
  endfacet
  facet normal 0 0 1
    outer loop
      vertex 0.595698 0.803207 4
      vertex 0.595698 -0.803207 4
      vertex 0.634393 -0.77301 4
    endloop
  endfacet
  facet normal 0 0 1
    outer loop
      vertex 0.55557 0.83147 4
      vertex 0.595698 -0.803207 4
      vertex 0.595698 0.803207 4
    endloop
  endfacet
  facet normal 0 0 1
    outer loop
      vertex 0.55557 0.83147 4
      vertex 0.55557 -0.83147 4
      vertex 0.595698 -0.803207 4
    endloop
  endfacet
  facet normal 0 0 1
    outer loop
      vertex 0.514102 0.857728 4
      vertex 0.55557 -0.83147 4
      vertex 0.55557 0.83147 4
    endloop
  endfacet
  facet normal 0 0 1
    outer loop
      vertex 0.514102 0.857728 4
      vertex 0.514102 -0.857728 4
      vertex 0.55557 -0.83147 4
    endloop
  endfacet
  facet normal 0 0 1
    outer loop
      vertex 0.471396 0.881921 4
      vertex 0.514102 -0.857728 4
      vertex 0.514102 0.857728 4
    endloop
  endfacet
  facet normal 0 0 1
    outer loop
      vertex 0.471396 0.881921 4
      vertex 0.471396 -0.881921 4
      vertex 0.514102 -0.857728 4
    endloop
  endfacet
  facet normal 0 0 1
    outer loop
      vertex 0.427555 0.903989 4
      vertex 0.471396 -0.881921 4
      vertex 0.471396 0.881921 4
    endloop
  endfacet
  facet normal 0 0 1
    outer loop
      vertex 0.427555 0.903989 4
      vertex 0.427555 -0.903989 4
      vertex 0.471396 -0.881921 4
    endloop
  endfacet
  facet normal 0 0 1
    outer loop
      vertex 0.382683 0.923879 4
      vertex 0.427555 -0.903989 4
      vertex 0.427555 0.903989 4
    endloop
  endfacet
  facet normal 0 0 1
    outer loop
      vertex 0.382683 0.923879 4
      vertex 0.382683 -0.923879 4
      vertex 0.427555 -0.903989 4
    endloop
  endfacet
  facet normal 0 0 1
    outer loop
      vertex 0.336889 0.941544 4
      vertex 0.382683 -0.923879 4
      vertex 0.382683 0.923879 4
    endloop
  endfacet
  facet normal 0 0 1
    outer loop
      vertex 0.336889 0.941544 4
      vertex 0.336889 -0.941544 4
      vertex 0.382683 -0.923879 4
    endloop
  endfacet
  facet normal 0 0 1
    outer loop
      vertex 0.290284 0.95694 4
      vertex 0.336889 -0.941544 4
      vertex 0.336889 0.941544 4
    endloop
  endfacet
  facet normal 0 0 1
    outer loop
      vertex 0.290284 0.95694 4
      vertex 0.290284 -0.95694 4
      vertex 0.336889 -0.941544 4
    endloop
  endfacet
  facet normal 0 0 1
    outer loop
      vertex 0.24298 0.970031 4
      vertex 0.290284 -0.95694 4
      vertex 0.290284 0.95694 4
    endloop
  endfacet
  facet normal 0 0 1
    outer loop
      vertex 0.24298 0.970031 4
      vertex 0.24298 -0.970031 4
      vertex 0.290284 -0.95694 4
    endloop
  endfacet
  facet normal 0 0 1
    outer loop
      vertex 0.19509 0.980784 4
      vertex 0.24298 -0.970031 4
      vertex 0.24298 0.970031 4
    endloop
  endfacet
  facet normal 0 0 1
    outer loop
      vertex 0.19509 0.980784 4
      vertex 0.19509 -0.980784 4
      vertex 0.24298 -0.970031 4
    endloop
  endfacet
  facet normal 0 0 1
    outer loop
      vertex 0.14673 0.989176 4
      vertex 0.19509 -0.980784 4
      vertex 0.19509 0.980784 4
    endloop
  endfacet
  facet normal 0 0 1
    outer loop
      vertex 0.14673 0.989176 4
      vertex 0.14673 -0.989176 4
      vertex 0.19509 -0.980784 4
    endloop
  endfacet
  facet normal 0 0 1
    outer loop
      vertex 0.0980167 0.995184 4
      vertex 0.14673 -0.989176 4
      vertex 0.14673 0.989176 4
    endloop
  endfacet
  facet normal 0 0 1
    outer loop
      vertex 0.0980167 0.995184 4
      vertex 0.0980167 -0.995184 4
      vertex 0.14673 -0.989176 4
    endloop
  endfacet
  facet normal 0 0 1
    outer loop
      vertex 0.0490675 0.998795 4
      vertex 0.0980167 -0.995184 4
      vertex 0.0980167 0.995184 4
    endloop
  endfacet
  facet normal 0 0 1
    outer loop
      vertex 0.0490675 0.998795 4
      vertex 0.0490675 -0.998795 4
      vertex 0.0980167 -0.995184 4
    endloop
  endfacet
  facet normal 0 0 1
    outer loop
      vertex 0 1 4
      vertex 0.0490675 -0.998795 4
      vertex 0.0490675 0.998795 4
    endloop
  endfacet
  facet normal 0 0 1
    outer loop
      vertex 0 1 4
      vertex 0 -1 4
      vertex 0.0490675 -0.998795 4
    endloop
  endfacet
  facet normal -0 0 1
    outer loop
      vertex -0.0490675 0.998795 4
      vertex 0 -1 4
      vertex 0 1 4
    endloop
  endfacet
  facet normal 0 0 1
    outer loop
      vertex -0.0490675 0.998795 4
      vertex -0.0490675 -0.998795 4
      vertex 0 -1 4
    endloop
  endfacet
  facet normal -0 0 1
    outer loop
      vertex -0.0980167 0.995184 4
      vertex -0.0490675 -0.998795 4
      vertex -0.0490675 0.998795 4
    endloop
  endfacet
  facet normal 0 0 1
    outer loop
      vertex -0.0980167 0.995184 4
      vertex -0.0980167 -0.995184 4
      vertex -0.0490675 -0.998795 4
    endloop
  endfacet
  facet normal -0 0 1
    outer loop
      vertex -0.14673 0.989176 4
      vertex -0.0980167 -0.995184 4
      vertex -0.0980167 0.995184 4
    endloop
  endfacet
  facet normal 0 0 1
    outer loop
      vertex -0.14673 0.989176 4
      vertex -0.14673 -0.989176 4
      vertex -0.0980167 -0.995184 4
    endloop
  endfacet
  facet normal -0 0 1
    outer loop
      vertex -0.19509 0.980784 4
      vertex -0.14673 -0.989176 4
      vertex -0.14673 0.989176 4
    endloop
  endfacet
  facet normal 0 0 1
    outer loop
      vertex -0.19509 0.980784 4
      vertex -0.19509 -0.980784 4
      vertex -0.14673 -0.989176 4
    endloop
  endfacet
  facet normal -0 0 1
    outer loop
      vertex -0.24298 0.970031 4
      vertex -0.19509 -0.980784 4
      vertex -0.19509 0.980784 4
    endloop
  endfacet
  facet normal 0 0 1
    outer loop
      vertex -0.24298 0.970031 4
      vertex -0.24298 -0.970031 4
      vertex -0.19509 -0.980784 4
    endloop
  endfacet
  facet normal -0 0 1
    outer loop
      vertex -0.290284 0.95694 4
      vertex -0.24298 -0.970031 4
      vertex -0.24298 0.970031 4
    endloop
  endfacet
  facet normal 0 0 1
    outer loop
      vertex -0.290284 0.95694 4
      vertex -0.290284 -0.95694 4
      vertex -0.24298 -0.970031 4
    endloop
  endfacet
  facet normal -0 0 1
    outer loop
      vertex -0.336889 0.941544 4
      vertex -0.290284 -0.95694 4
      vertex -0.290284 0.95694 4
    endloop
  endfacet
  facet normal 0 0 1
    outer loop
      vertex -0.336889 0.941544 4
      vertex -0.336889 -0.941544 4
      vertex -0.290284 -0.95694 4
    endloop
  endfacet
  facet normal -0 0 1
    outer loop
      vertex -0.382683 0.923879 4
      vertex -0.336889 -0.941544 4
      vertex -0.336889 0.941544 4
    endloop
  endfacet
  facet normal 0 0 1
    outer loop
      vertex -0.382683 0.923879 4
      vertex -0.382683 -0.923879 4
      vertex -0.336889 -0.941544 4
    endloop
  endfacet
  facet normal -0 0 1
    outer loop
      vertex -0.427555 0.903989 4
      vertex -0.382683 -0.923879 4
      vertex -0.382683 0.923879 4
    endloop
  endfacet
  facet normal 0 0 1
    outer loop
      vertex -0.427555 0.903989 4
      vertex -0.427555 -0.903989 4
      vertex -0.382683 -0.923879 4
    endloop
  endfacet
  facet normal -0 0 1
    outer loop
      vertex -0.471396 0.881921 4
      vertex -0.427555 -0.903989 4
      vertex -0.427555 0.903989 4
    endloop
  endfacet
  facet normal 0 0 1
    outer loop
      vertex -0.471396 0.881921 4
      vertex -0.471396 -0.881921 4
      vertex -0.427555 -0.903989 4
    endloop
  endfacet
  facet normal -0 0 1
    outer loop
      vertex -0.514102 0.857728 4
      vertex -0.471396 -0.881921 4
      vertex -0.471396 0.881921 4
    endloop
  endfacet
  facet normal 0 0 1
    outer loop
      vertex -0.514102 0.857728 4
      vertex -0.514102 -0.857728 4
      vertex -0.471396 -0.881921 4
    endloop
  endfacet
  facet normal -0 0 1
    outer loop
      vertex -0.55557 0.83147 4
      vertex -0.514102 -0.857728 4
      vertex -0.514102 0.857728 4
    endloop
  endfacet
  facet normal 0 0 1
    outer loop
      vertex -0.55557 0.83147 4
      vertex -0.55557 -0.83147 4
      vertex -0.514102 -0.857728 4
    endloop
  endfacet
  facet normal -0 0 1
    outer loop
      vertex -0.595698 0.803207 4
      vertex -0.55557 -0.83147 4
      vertex -0.55557 0.83147 4
    endloop
  endfacet
  facet normal 0 0 1
    outer loop
      vertex -0.595698 0.803207 4
      vertex -0.595698 -0.803207 4
      vertex -0.55557 -0.83147 4
    endloop
  endfacet
  facet normal -0 0 1
    outer loop
      vertex -0.634393 0.77301 4
      vertex -0.595698 -0.803207 4
      vertex -0.595698 0.803207 4
    endloop
  endfacet
  facet normal 0 0 1
    outer loop
      vertex -0.634393 0.77301 4
      vertex -0.634393 -0.77301 4
      vertex -0.595698 -0.803207 4
    endloop
  endfacet
  facet normal -0 0 1
    outer loop
      vertex -0.671558 0.740951 4
      vertex -0.634393 -0.77301 4
      vertex -0.634393 0.77301 4
    endloop
  endfacet
  facet normal 0 0 1
    outer loop
      vertex -0.671558 0.740951 4
      vertex -0.671558 -0.740951 4
      vertex -0.634393 -0.77301 4
    endloop
  endfacet
  facet normal -0 0 1
    outer loop
      vertex -0.707107 0.707107 4
      vertex -0.671558 -0.740951 4
      vertex -0.671558 0.740951 4
    endloop
  endfacet
  facet normal 0 0 1
    outer loop
      vertex -0.707107 0.707107 4
      vertex -0.707107 -0.707107 4
      vertex -0.671558 -0.740951 4
    endloop
  endfacet
  facet normal -0 0 1
    outer loop
      vertex -0.740951 0.671558 4
      vertex -0.707107 -0.707107 4
      vertex -0.707107 0.707107 4
    endloop
  endfacet
  facet normal 0 0 1
    outer loop
      vertex -0.740951 0.671558 4
      vertex -0.740951 -0.671558 4
      vertex -0.707107 -0.707107 4
    endloop
  endfacet
  facet normal -0 0 1
    outer loop
      vertex -0.77301 0.634393 4
      vertex -0.740951 -0.671558 4
      vertex -0.740951 0.671558 4
    endloop
  endfacet
  facet normal 0 0 1
    outer loop
      vertex -0.77301 0.634393 4
      vertex -0.77301 -0.634393 4
      vertex -0.740951 -0.671558 4
    endloop
  endfacet
  facet normal -0 0 1
    outer loop
      vertex -0.803207 0.595698 4
      vertex -0.77301 -0.634393 4
      vertex -0.77301 0.634393 4
    endloop
  endfacet
  facet normal 0 0 1
    outer loop
      vertex -0.803207 0.595698 4
      vertex -0.803207 -0.595698 4
      vertex -0.77301 -0.634393 4
    endloop
  endfacet
  facet normal -0 0 1
    outer loop
      vertex -0.83147 0.55557 4
      vertex -0.803207 -0.595698 4
      vertex -0.803207 0.595698 4
    endloop
  endfacet
  facet normal 0 0 1
    outer loop
      vertex -0.83147 0.55557 4
      vertex -0.83147 -0.55557 4
      vertex -0.803207 -0.595698 4
    endloop
  endfacet
  facet normal -0 0 1
    outer loop
      vertex -0.857728 0.514102 4
      vertex -0.83147 -0.55557 4
      vertex -0.83147 0.55557 4
    endloop
  endfacet
  facet normal 0 0 1
    outer loop
      vertex -0.857728 0.514102 4
      vertex -0.857728 -0.514102 4
      vertex -0.83147 -0.55557 4
    endloop
  endfacet
  facet normal -0 0 1
    outer loop
      vertex -0.881921 0.471396 4
      vertex -0.857728 -0.514102 4
      vertex -0.857728 0.514102 4
    endloop
  endfacet
  facet normal 0 0 1
    outer loop
      vertex -0.881921 0.471396 4
      vertex -0.881921 -0.471396 4
      vertex -0.857728 -0.514102 4
    endloop
  endfacet
  facet normal -0 0 1
    outer loop
      vertex -0.903989 0.427555 4
      vertex -0.881921 -0.471396 4
      vertex -0.881921 0.471396 4
    endloop
  endfacet
  facet normal 0 0 1
    outer loop
      vertex -0.903989 0.427555 4
      vertex -0.903989 -0.427555 4
      vertex -0.881921 -0.471396 4
    endloop
  endfacet
  facet normal -0 0 1
    outer loop
      vertex -0.923879 0.382683 4
      vertex -0.903989 -0.427555 4
      vertex -0.903989 0.427555 4
    endloop
  endfacet
  facet normal 0 0 1
    outer loop
      vertex -0.923879 0.382683 4
      vertex -0.923879 -0.382683 4
      vertex -0.903989 -0.427555 4
    endloop
  endfacet
  facet normal -0 0 1
    outer loop
      vertex -0.941544 0.336889 4
      vertex -0.923879 -0.382683 4
      vertex -0.923879 0.382683 4
    endloop
  endfacet
  facet normal 0 0 1
    outer loop
      vertex -0.941544 0.336889 4
      vertex -0.941544 -0.336889 4
      vertex -0.923879 -0.382683 4
    endloop
  endfacet
  facet normal -0 0 1
    outer loop
      vertex -0.95694 0.290284 4
      vertex -0.941544 -0.336889 4
      vertex -0.941544 0.336889 4
    endloop
  endfacet
  facet normal 0 0 1
    outer loop
      vertex -0.95694 0.290284 4
      vertex -0.95694 -0.290284 4
      vertex -0.941544 -0.336889 4
    endloop
  endfacet
  facet normal -0 0 1
    outer loop
      vertex -0.970031 0.24298 4
      vertex -0.95694 -0.290284 4
      vertex -0.95694 0.290284 4
    endloop
  endfacet
  facet normal 0 0 1
    outer loop
      vertex -0.970031 0.24298 4
      vertex -0.970031 -0.24298 4
      vertex -0.95694 -0.290284 4
    endloop
  endfacet
  facet normal -0 0 1
    outer loop
      vertex -0.980784 0.19509 4
      vertex -0.970031 -0.24298 4
      vertex -0.970031 0.24298 4
    endloop
  endfacet
  facet normal 0 0 1
    outer loop
      vertex -0.980784 0.19509 4
      vertex -0.980784 -0.19509 4
      vertex -0.970031 -0.24298 4
    endloop
  endfacet
  facet normal -0 0 1
    outer loop
      vertex -0.989176 0.14673 4
      vertex -0.980784 -0.19509 4
      vertex -0.980784 0.19509 4
    endloop
  endfacet
  facet normal 0 0 1
    outer loop
      vertex -0.989176 0.14673 4
      vertex -0.989176 -0.14673 4
      vertex -0.980784 -0.19509 4
    endloop
  endfacet
  facet normal -0 0 1
    outer loop
      vertex -0.995184 0.0980167 4
      vertex -0.989176 -0.14673 4
      vertex -0.989176 0.14673 4
    endloop
  endfacet
  facet normal 0 0 1
    outer loop
      vertex -0.995184 0.0980167 4
      vertex -0.995184 -0.0980167 4
      vertex -0.989176 -0.14673 4
    endloop
  endfacet
  facet normal -0 0 1
    outer loop
      vertex -0.998795 0.0490675 4
      vertex -0.995184 -0.0980167 4
      vertex -0.995184 0.0980167 4
    endloop
  endfacet
  facet normal 0 0 1
    outer loop
      vertex -0.998795 0.0490675 4
      vertex -0.998795 -0.0490675 4
      vertex -0.995184 -0.0980167 4
    endloop
  endfacet
  facet normal 0 -0 1
    outer loop
      vertex -0.998795 -0.0490675 4
      vertex -0.998795 0.0490675 4
      vertex -1 0 4
    endloop
  endfacet
  facet normal -0 0 1
    outer loop
      vertex 1.24698 1.56366 4
      vertex 5 0 4
      vertex 2.5 4.33013 4
    endloop
  endfacet
  facet normal 0 0 1
    outer loop
      vertex 1.24698 -1.56366 4
      vertex 5 0 4
      vertex 2 0 4
    endloop
  endfacet
  facet normal 0 0 1
    outer loop
      vertex 5 0 4
      vertex 1.24698 1.56366 4
      vertex 2 0 4
    endloop
  endfacet
  facet normal 0 0 1
    outer loop
      vertex 2.5 4.33013 4
      vertex -0.445042 1.94986 4
      vertex 1.24698 1.56366 4
    endloop
  endfacet
  facet normal -0 0 1
    outer loop
      vertex -2.5 4.33013 4
      vertex -0.445042 1.94986 4
      vertex 2.5 4.33013 4
    endloop
  endfacet
  facet normal 0 0 1
    outer loop
      vertex -5 0 4
      vertex -1.80194 0.867767 4
      vertex -2.5 4.33013 4
    endloop
  endfacet
  facet normal 0 0 1
    outer loop
      vertex -0.445042 1.94986 4
      vertex -2.5 4.33013 4
      vertex -1.80194 0.867767 4
    endloop
  endfacet
  facet normal 0 0 1
    outer loop
      vertex 5 0 4
      vertex 1.24698 -1.56366 4
      vertex 2.5 -4.33013 4
    endloop
  endfacet
  facet normal -0 0 1
    outer loop
      vertex -0.445042 -1.94986 4
      vertex 2.5 -4.33013 4
      vertex 1.24698 -1.56366 4
    endloop
  endfacet
  facet normal 0 0 1
    outer loop
      vertex -2.5 -4.33013 4
      vertex -0.445042 -1.94986 4
      vertex -1.80194 -0.867767 4
    endloop
  endfacet
  facet normal 0 0 1
    outer loop
      vertex -0.445042 -1.94986 4
      vertex -2.5 -4.33013 4
      vertex 2.5 -4.33013 4
    endloop
  endfacet
  facet normal 0 0 1
    outer loop
      vertex -1.80194 0.867767 4
      vertex -5 0 4
      vertex -1.80194 -0.867767 4
    endloop
  endfacet
  facet normal 0 0 1
    outer loop
      vertex -1.80194 -0.867767 4
      vertex -5 0 4
      vertex -2.5 -4.33013 4
    endloop
  endfacet
  facet normal -1 0 0
    outer loop
      vertex -1.80194 -0.867767 4
      vertex -1.80194 0.867767 5
      vertex -1.80194 0.867767 4
    endloop
  endfacet
  facet normal -1 -0 0
    outer loop
      vertex -1.80194 0.867767 5
      vertex -1.80194 -0.867767 4
      vertex -1.80194 -0.867767 5
    endloop
  endfacet
  facet normal -0.623491 0.781831 0
    outer loop
      vertex -0.445042 1.94986 4
      vertex -1.80194 0.867767 5
      vertex -0.445042 1.94986 5
    endloop
  endfacet
  facet normal -0.623491 0.781831 0
    outer loop
      vertex -1.80194 0.867767 5
      vertex -0.445042 1.94986 4
      vertex -1.80194 0.867767 4
    endloop
  endfacet
  facet normal 0.0735704 0.99729 -0
    outer loop
      vertex -0.0490675 -0.998795 4
      vertex -0.0980167 -0.995184 5
      vertex -0.0490675 -0.998795 5
    endloop
  endfacet
  facet normal 0.0735704 0.99729 0
    outer loop
      vertex -0.0980167 -0.995184 5
      vertex -0.0490675 -0.998795 4
      vertex -0.0980167 -0.995184 4
    endloop
  endfacet
  facet normal -0.313678 -0.949529 0
    outer loop
      vertex 0.290284 0.95694 4
      vertex 0.336889 0.941544 5
      vertex 0.290284 0.95694 5
    endloop
  endfacet
  facet normal -0.313678 -0.949529 -0
    outer loop
      vertex 0.336889 0.941544 5
      vertex 0.290284 0.95694 4
      vertex 0.336889 0.941544 4
    endloop
  endfacet
  facet normal -0.963775 0.266717 0
    outer loop
      vertex 0.95694 -0.290284 4
      vertex 0.970031 -0.24298 5
      vertex 0.970031 -0.24298 4
    endloop
  endfacet
  facet normal -0.963775 0.266717 0
    outer loop
      vertex 0.970031 -0.24298 5
      vertex 0.95694 -0.290284 4
      vertex 0.95694 -0.290284 5
    endloop
  endfacet
  facet normal 0.313678 -0.949529 0
    outer loop
      vertex -0.336889 0.941544 4
      vertex -0.290284 0.95694 5
      vertex -0.336889 0.941544 5
    endloop
  endfacet
  facet normal 0.313678 -0.949529 0
    outer loop
      vertex -0.290284 0.95694 5
      vertex -0.336889 0.941544 4
      vertex -0.290284 0.95694 4
    endloop
  endfacet
  facet normal -0.975707 0.219081 0
    outer loop
      vertex 0.970031 -0.24298 4
      vertex 0.980784 -0.19509 5
      vertex 0.980784 -0.19509 4
    endloop
  endfacet
  facet normal -0.975707 0.219081 0
    outer loop
      vertex 0.980784 -0.19509 5
      vertex 0.970031 -0.24298 4
      vertex 0.970031 -0.24298 5
    endloop
  endfacet
  facet normal 0.122406 0.99248 -0
    outer loop
      vertex -0.0980167 -0.995184 4
      vertex -0.14673 -0.989176 5
      vertex -0.0980167 -0.995184 5
    endloop
  endfacet
  facet normal 0.122406 0.99248 0
    outer loop
      vertex -0.14673 -0.989176 5
      vertex -0.0980167 -0.995184 4
      vertex -0.14673 -0.989176 4
    endloop
  endfacet
  facet normal -0.615221 -0.788355 0
    outer loop
      vertex 0.595698 0.803207 4
      vertex 0.634393 0.77301 5
      vertex 0.595698 0.803207 5
    endloop
  endfacet
  facet normal -0.615221 -0.788355 -0
    outer loop
      vertex 0.634393 0.77301 5
      vertex 0.595698 0.803207 4
      vertex 0.634393 0.77301 4
    endloop
  endfacet
  facet normal -0.575831 -0.817569 0
    outer loop
      vertex 0.55557 0.83147 4
      vertex 0.595698 0.803207 5
      vertex 0.55557 0.83147 5
    endloop
  endfacet
  facet normal -0.575831 -0.817569 -0
    outer loop
      vertex 0.595698 0.803207 5
      vertex 0.55557 0.83147 4
      vertex 0.595698 0.803207 4
    endloop
  endfacet
  facet normal 0.534978 -0.844866 0
    outer loop
      vertex -0.55557 0.83147 4
      vertex -0.514102 0.857728 5
      vertex -0.55557 0.83147 5
    endloop
  endfacet
  facet normal 0.534978 -0.844866 0
    outer loop
      vertex -0.514102 0.857728 5
      vertex -0.55557 0.83147 4
      vertex -0.514102 0.857728 4
    endloop
  endfacet
  facet normal -0.405235 0.914213 0
    outer loop
      vertex 0.427555 -0.903989 4
      vertex 0.382683 -0.923879 5
      vertex 0.427555 -0.903989 5
    endloop
  endfacet
  facet normal -0.405235 0.914213 0
    outer loop
      vertex 0.382683 -0.923879 5
      vertex 0.427555 -0.903989 4
      vertex 0.382683 -0.923879 4
    endloop
  endfacet
  facet normal 0.266717 0.963775 -0
    outer loop
      vertex -0.24298 -0.970031 4
      vertex -0.290284 -0.95694 5
      vertex -0.24298 -0.970031 5
    endloop
  endfacet
  facet normal 0.266717 0.963775 0
    outer loop
      vertex -0.290284 -0.95694 5
      vertex -0.24298 -0.970031 4
      vertex -0.290284 -0.95694 4
    endloop
  endfacet
  facet normal 0.492904 -0.870084 0
    outer loop
      vertex -0.514102 0.857728 4
      vertex -0.471396 0.881921 5
      vertex -0.514102 0.857728 5
    endloop
  endfacet
  facet normal 0.492904 -0.870084 0
    outer loop
      vertex -0.471396 0.881921 5
      vertex -0.514102 0.857728 4
      vertex -0.471396 0.881921 4
    endloop
  endfacet
  facet normal -0.653176 -0.757206 0
    outer loop
      vertex 0.634393 0.77301 4
      vertex 0.671558 0.740951 5
      vertex 0.634393 0.77301 5
    endloop
  endfacet
  facet normal -0.653176 -0.757206 -0
    outer loop
      vertex 0.671558 0.740951 5
      vertex 0.634393 0.77301 4
      vertex 0.671558 0.740951 4
    endloop
  endfacet
  facet normal -0.99248 0.122406 0
    outer loop
      vertex 0.989176 -0.14673 4
      vertex 0.995184 -0.0980167 5
      vertex 0.995184 -0.0980167 4
    endloop
  endfacet
  facet normal -0.99248 0.122406 0
    outer loop
      vertex 0.995184 -0.0980167 5
      vertex 0.989176 -0.14673 4
      vertex 0.989176 -0.14673 5
    endloop
  endfacet
  facet normal -0.975707 -0.219081 0
    outer loop
      vertex 0.980784 0.19509 4
      vertex 0.970031 0.24298 5
      vertex 0.970031 0.24298 4
    endloop
  endfacet
  facet normal -0.975707 -0.219081 0
    outer loop
      vertex 0.970031 0.24298 5
      vertex 0.980784 0.19509 4
      vertex 0.980784 0.19509 5
    endloop
  endfacet
  facet normal 0.689525 0.724262 -0
    outer loop
      vertex -0.671558 -0.740951 4
      vertex -0.707107 -0.707107 5
      vertex -0.671558 -0.740951 5
    endloop
  endfacet
  facet normal 0.689525 0.724262 0
    outer loop
      vertex -0.707107 -0.707107 5
      vertex -0.671558 -0.740951 4
      vertex -0.707107 -0.707107 4
    endloop
  endfacet
  facet normal 0.963775 -0.266717 0
    outer loop
      vertex -0.970031 0.24298 5
      vertex -0.95694 0.290284 4
      vertex -0.95694 0.290284 5
    endloop
  endfacet
  facet normal 0.963775 -0.266717 0
    outer loop
      vertex -0.95694 0.290284 4
      vertex -0.970031 0.24298 5
      vertex -0.970031 0.24298 4
    endloop
  endfacet
  facet normal 0.492904 0.870084 -0
    outer loop
      vertex -0.471396 -0.881921 4
      vertex -0.514102 -0.857728 5
      vertex -0.471396 -0.881921 5
    endloop
  endfacet
  facet normal 0.492904 0.870084 0
    outer loop
      vertex -0.514102 -0.857728 5
      vertex -0.471396 -0.881921 4
      vertex -0.514102 -0.857728 4
    endloop
  endfacet
  facet normal 0.985275 0.170977 0
    outer loop
      vertex -0.980784 -0.19509 5
      vertex -0.989176 -0.14673 4
      vertex -0.989176 -0.14673 5
    endloop
  endfacet
  facet normal 0.985275 0.170977 0
    outer loop
      vertex -0.989176 -0.14673 4
      vertex -0.980784 -0.19509 5
      vertex -0.980784 -0.19509 4
    endloop
  endfacet
  facet normal -0.534978 -0.844866 0
    outer loop
      vertex 0.514102 0.857728 4
      vertex 0.55557 0.83147 5
      vertex 0.514102 0.857728 5
    endloop
  endfacet
  facet normal -0.534978 -0.844866 -0
    outer loop
      vertex 0.55557 0.83147 5
      vertex 0.514102 0.857728 4
      vertex 0.55557 0.83147 4
    endloop
  endfacet
  facet normal 0.99729 -0.0735704 0
    outer loop
      vertex -0.998795 0.0490675 5
      vertex -0.995184 0.0980167 4
      vertex -0.995184 0.0980167 5
    endloop
  endfacet
  facet normal 0.99729 -0.0735704 0
    outer loop
      vertex -0.995184 0.0980167 4
      vertex -0.998795 0.0490675 5
      vertex -0.998795 0.0490675 4
    endloop
  endfacet
  facet normal 0.844866 -0.534978 0
    outer loop
      vertex -0.857728 0.514102 5
      vertex -0.83147 0.55557 4
      vertex -0.83147 0.55557 5
    endloop
  endfacet
  facet normal 0.844866 -0.534978 0
    outer loop
      vertex -0.83147 0.55557 4
      vertex -0.857728 0.514102 5
      vertex -0.857728 0.514102 4
    endloop
  endfacet
  facet normal 0.575831 0.817569 -0
    outer loop
      vertex -0.55557 -0.83147 4
      vertex -0.595698 -0.803207 5
      vertex -0.55557 -0.83147 5
    endloop
  endfacet
  facet normal 0.575831 0.817569 0
    outer loop
      vertex -0.595698 -0.803207 5
      vertex -0.55557 -0.83147 4
      vertex -0.595698 -0.803207 4
    endloop
  endfacet
  facet normal 0.3599 -0.932991 0
    outer loop
      vertex -0.382683 0.923879 4
      vertex -0.336889 0.941544 5
      vertex -0.382683 0.923879 5
    endloop
  endfacet
  facet normal 0.3599 -0.932991 0
    outer loop
      vertex -0.336889 0.941544 5
      vertex -0.382683 0.923879 4
      vertex -0.336889 0.941544 4
    endloop
  endfacet
  facet normal -0.932991 0.3599 0
    outer loop
      vertex 0.923879 -0.382683 4
      vertex 0.941544 -0.336889 5
      vertex 0.941544 -0.336889 4
    endloop
  endfacet
  facet normal -0.932991 0.3599 0
    outer loop
      vertex 0.941544 -0.336889 5
      vertex 0.923879 -0.382683 4
      vertex 0.923879 -0.382683 5
    endloop
  endfacet
  facet normal -0.999699 0.0245506 0
    outer loop
      vertex 0.998795 -0.0490675 4
      vertex 1 0 5
      vertex 1 0 4
    endloop
  endfacet
  facet normal -0.999699 0.0245506 0
    outer loop
      vertex 1 0 5
      vertex 0.998795 -0.0490675 4
      vertex 0.998795 -0.0490675 5
    endloop
  endfacet
  facet normal -0.999699 -0.0245506 0
    outer loop
      vertex 1 0 4
      vertex 0.998795 0.0490675 5
      vertex 0.998795 0.0490675 4
    endloop
  endfacet
  facet normal -0.999699 -0.0245506 0
    outer loop
      vertex 0.998795 0.0490675 5
      vertex 1 0 4
      vertex 1 0 5
    endloop
  endfacet
  facet normal -0.266717 0.963775 0
    outer loop
      vertex 0.290284 -0.95694 4
      vertex 0.24298 -0.970031 5
      vertex 0.290284 -0.95694 5
    endloop
  endfacet
  facet normal -0.266717 0.963775 0
    outer loop
      vertex 0.24298 -0.970031 5
      vertex 0.290284 -0.95694 4
      vertex 0.24298 -0.970031 4
    endloop
  endfacet
  facet normal 0.870084 -0.492904 0
    outer loop
      vertex -0.881921 0.471396 5
      vertex -0.857728 0.514102 4
      vertex -0.857728 0.514102 5
    endloop
  endfacet
  facet normal 0.870084 -0.492904 0
    outer loop
      vertex -0.857728 0.514102 4
      vertex -0.881921 0.471396 5
      vertex -0.881921 0.471396 4
    endloop
  endfacet
  facet normal -0.99729 0.0735704 0
    outer loop
      vertex 0.995184 -0.0980167 4
      vertex 0.998795 -0.0490675 5
      vertex 0.998795 -0.0490675 4
    endloop
  endfacet
  facet normal -0.99729 0.0735704 0
    outer loop
      vertex 0.998795 -0.0490675 5
      vertex 0.995184 -0.0980167 4
      vertex 0.995184 -0.0980167 5
    endloop
  endfacet
  facet normal -0.963775 -0.266717 0
    outer loop
      vertex 0.970031 0.24298 4
      vertex 0.95694 0.290284 5
      vertex 0.95694 0.290284 4
    endloop
  endfacet
  facet normal -0.963775 -0.266717 0
    outer loop
      vertex 0.95694 0.290284 5
      vertex 0.970031 0.24298 4
      vertex 0.970031 0.24298 5
    endloop
  endfacet
  facet normal -0.99729 -0.0735704 0
    outer loop
      vertex 0.998795 0.0490675 4
      vertex 0.995184 0.0980167 5
      vertex 0.995184 0.0980167 4
    endloop
  endfacet
  facet normal -0.99729 -0.0735704 0
    outer loop
      vertex 0.995184 0.0980167 5
      vertex 0.998795 0.0490675 4
      vertex 0.998795 0.0490675 5
    endloop
  endfacet
  facet normal -0.122406 0.99248 0
    outer loop
      vertex 0.14673 -0.989176 4
      vertex 0.0980167 -0.995184 5
      vertex 0.14673 -0.989176 5
    endloop
  endfacet
  facet normal -0.122406 0.99248 0
    outer loop
      vertex 0.0980167 -0.995184 5
      vertex 0.14673 -0.989176 4
      vertex 0.0980167 -0.995184 4
    endloop
  endfacet
  facet normal -0.757206 -0.653176 0
    outer loop
      vertex 0.77301 0.634393 4
      vertex 0.740951 0.671558 5
      vertex 0.740951 0.671558 4
    endloop
  endfacet
  facet normal -0.757206 -0.653176 0
    outer loop
      vertex 0.740951 0.671558 5
      vertex 0.77301 0.634393 4
      vertex 0.77301 0.634393 5
    endloop
  endfacet
  facet normal 0.932991 -0.3599 0
    outer loop
      vertex -0.941544 0.336889 5
      vertex -0.923879 0.382683 4
      vertex -0.923879 0.382683 5
    endloop
  endfacet
  facet normal 0.932991 -0.3599 0
    outer loop
      vertex -0.923879 0.382683 4
      vertex -0.941544 0.336889 5
      vertex -0.941544 0.336889 4
    endloop
  endfacet
  facet normal 0.949529 0.313678 0
    outer loop
      vertex -0.941544 -0.336889 5
      vertex -0.95694 -0.290284 4
      vertex -0.95694 -0.290284 5
    endloop
  endfacet
  facet normal 0.949529 0.313678 0
    outer loop
      vertex -0.95694 -0.290284 4
      vertex -0.941544 -0.336889 5
      vertex -0.941544 -0.336889 4
    endloop
  endfacet
  facet normal -0.99248 -0.122406 0
    outer loop
      vertex 0.995184 0.0980167 4
      vertex 0.989176 0.14673 5
      vertex 0.989176 0.14673 4
    endloop
  endfacet
  facet normal -0.99248 -0.122406 0
    outer loop
      vertex 0.989176 0.14673 5
      vertex 0.995184 0.0980167 4
      vertex 0.995184 0.0980167 5
    endloop
  endfacet
  facet normal -0.844866 0.534978 0
    outer loop
      vertex 0.83147 -0.55557 4
      vertex 0.857728 -0.514102 5
      vertex 0.857728 -0.514102 4
    endloop
  endfacet
  facet normal -0.844866 0.534978 0
    outer loop
      vertex 0.857728 -0.514102 5
      vertex 0.83147 -0.55557 4
      vertex 0.83147 -0.55557 5
    endloop
  endfacet
  facet normal 0.405235 -0.914213 0
    outer loop
      vertex -0.427555 0.903989 4
      vertex -0.382683 0.923879 5
      vertex -0.427555 0.903989 5
    endloop
  endfacet
  facet normal 0.405235 -0.914213 0
    outer loop
      vertex -0.382683 0.923879 5
      vertex -0.427555 0.903989 4
      vertex -0.382683 0.923879 4
    endloop
  endfacet
  facet normal -0.985275 -0.170977 0
    outer loop
      vertex 0.989176 0.14673 4
      vertex 0.980784 0.19509 5
      vertex 0.980784 0.19509 4
    endloop
  endfacet
  facet normal -0.985275 -0.170977 0
    outer loop
      vertex 0.980784 0.19509 5
      vertex 0.989176 0.14673 4
      vertex 0.989176 0.14673 5
    endloop
  endfacet
  facet normal -0.893222 -0.449616 0
    outer loop
      vertex 0.903989 0.427555 4
      vertex 0.881921 0.471396 5
      vertex 0.881921 0.471396 4
    endloop
  endfacet
  facet normal -0.893222 -0.449616 0
    outer loop
      vertex 0.881921 0.471396 5
      vertex 0.903989 0.427555 4
      vertex 0.903989 0.427555 5
    endloop
  endfacet
  facet normal 0.817569 -0.575831 0
    outer loop
      vertex -0.83147 0.55557 5
      vertex -0.803207 0.595698 4
      vertex -0.803207 0.595698 5
    endloop
  endfacet
  facet normal 0.817569 -0.575831 0
    outer loop
      vertex -0.803207 0.595698 4
      vertex -0.83147 0.55557 5
      vertex -0.83147 0.55557 4
    endloop
  endfacet
  facet normal -0.757206 0.653176 0
    outer loop
      vertex 0.740951 -0.671558 4
      vertex 0.77301 -0.634393 5
      vertex 0.77301 -0.634393 4
    endloop
  endfacet
  facet normal -0.757206 0.653176 0
    outer loop
      vertex 0.77301 -0.634393 5
      vertex 0.740951 -0.671558 4
      vertex 0.740951 -0.671558 5
    endloop
  endfacet
  facet normal 0.534978 0.844866 -0
    outer loop
      vertex -0.514102 -0.857728 4
      vertex -0.55557 -0.83147 5
      vertex -0.514102 -0.857728 5
    endloop
  endfacet
  facet normal 0.534978 0.844866 0
    outer loop
      vertex -0.55557 -0.83147 5
      vertex -0.514102 -0.857728 4
      vertex -0.55557 -0.83147 4
    endloop
  endfacet
  facet normal -0.0735704 0.99729 0
    outer loop
      vertex 0.0980167 -0.995184 4
      vertex 0.0490675 -0.998795 5
      vertex 0.0980167 -0.995184 5
    endloop
  endfacet
  facet normal -0.0735704 0.99729 0
    outer loop
      vertex 0.0490675 -0.998795 5
      vertex 0.0980167 -0.995184 4
      vertex 0.0490675 -0.998795 4
    endloop
  endfacet
  facet normal 0.788355 0.615221 0
    outer loop
      vertex -0.77301 -0.634393 5
      vertex -0.803207 -0.595698 4
      vertex -0.803207 -0.595698 5
    endloop
  endfacet
  facet normal 0.788355 0.615221 0
    outer loop
      vertex -0.803207 -0.595698 4
      vertex -0.77301 -0.634393 5
      vertex -0.77301 -0.634393 4
    endloop
  endfacet
  facet normal 0.99248 -0.122406 0
    outer loop
      vertex -0.995184 0.0980167 5
      vertex -0.989176 0.14673 4
      vertex -0.989176 0.14673 5
    endloop
  endfacet
  facet normal 0.99248 -0.122406 0
    outer loop
      vertex -0.989176 0.14673 4
      vertex -0.995184 0.0980167 5
      vertex -0.995184 0.0980167 4
    endloop
  endfacet
  facet normal -0.870084 -0.492904 0
    outer loop
      vertex 0.881921 0.471396 4
      vertex 0.857728 0.514102 5
      vertex 0.857728 0.514102 4
    endloop
  endfacet
  facet normal -0.870084 -0.492904 0
    outer loop
      vertex 0.857728 0.514102 5
      vertex 0.881921 0.471396 4
      vertex 0.881921 0.471396 5
    endloop
  endfacet
  facet normal -0.449616 -0.893222 0
    outer loop
      vertex 0.427555 0.903989 4
      vertex 0.471396 0.881921 5
      vertex 0.427555 0.903989 5
    endloop
  endfacet
  facet normal -0.449616 -0.893222 -0
    outer loop
      vertex 0.471396 0.881921 5
      vertex 0.427555 0.903989 4
      vertex 0.471396 0.881921 4
    endloop
  endfacet
  facet normal -0.653176 0.757206 0
    outer loop
      vertex 0.671558 -0.740951 4
      vertex 0.634393 -0.77301 5
      vertex 0.671558 -0.740951 5
    endloop
  endfacet
  facet normal -0.653176 0.757206 0
    outer loop
      vertex 0.634393 -0.77301 5
      vertex 0.671558 -0.740951 4
      vertex 0.634393 -0.77301 4
    endloop
  endfacet
  facet normal -0.313678 0.949529 0
    outer loop
      vertex 0.336889 -0.941544 4
      vertex 0.290284 -0.95694 5
      vertex 0.336889 -0.941544 5
    endloop
  endfacet
  facet normal -0.313678 0.949529 0
    outer loop
      vertex 0.290284 -0.95694 5
      vertex 0.336889 -0.941544 4
      vertex 0.290284 -0.95694 4
    endloop
  endfacet
  facet normal -0.122406 -0.99248 0
    outer loop
      vertex 0.0980167 0.995184 4
      vertex 0.14673 0.989176 5
      vertex 0.0980167 0.995184 5
    endloop
  endfacet
  facet normal -0.122406 -0.99248 -0
    outer loop
      vertex 0.14673 0.989176 5
      vertex 0.0980167 0.995184 4
      vertex 0.14673 0.989176 4
    endloop
  endfacet
  facet normal 0.999699 0.0245506 0
    outer loop
      vertex -0.998795 -0.0490675 5
      vertex -1 0 4
      vertex -1 0 5
    endloop
  endfacet
  facet normal 0.999699 0.0245506 0
    outer loop
      vertex -1 0 4
      vertex -0.998795 -0.0490675 5
      vertex -0.998795 -0.0490675 4
    endloop
  endfacet
  facet normal -0.870084 0.492904 0
    outer loop
      vertex 0.857728 -0.514102 4
      vertex 0.881921 -0.471396 5
      vertex 0.881921 -0.471396 4
    endloop
  endfacet
  facet normal -0.870084 0.492904 0
    outer loop
      vertex 0.881921 -0.471396 5
      vertex 0.857728 -0.514102 4
      vertex 0.857728 -0.514102 5
    endloop
  endfacet
  facet normal 0.0735704 -0.99729 0
    outer loop
      vertex -0.0980167 0.995184 4
      vertex -0.0490675 0.998795 5
      vertex -0.0980167 0.995184 5
    endloop
  endfacet
  facet normal 0.0735704 -0.99729 0
    outer loop
      vertex -0.0490675 0.998795 5
      vertex -0.0980167 0.995184 4
      vertex -0.0490675 0.998795 4
    endloop
  endfacet
  facet normal -0.724262 -0.689525 0
    outer loop
      vertex 0.740951 0.671558 4
      vertex 0.707107 0.707107 5
      vertex 0.707107 0.707107 4
    endloop
  endfacet
  facet normal -0.724262 -0.689525 0
    outer loop
      vertex 0.707107 0.707107 5
      vertex 0.740951 0.671558 4
      vertex 0.740951 0.671558 5
    endloop
  endfacet
  facet normal 0.122406 -0.99248 0
    outer loop
      vertex -0.14673 0.989176 4
      vertex -0.0980167 0.995184 5
      vertex -0.14673 0.989176 5
    endloop
  endfacet
  facet normal 0.122406 -0.99248 0
    outer loop
      vertex -0.0980167 0.995184 5
      vertex -0.14673 0.989176 4
      vertex -0.0980167 0.995184 4
    endloop
  endfacet
  facet normal -0.3599 -0.932991 0
    outer loop
      vertex 0.336889 0.941544 4
      vertex 0.382683 0.923879 5
      vertex 0.336889 0.941544 5
    endloop
  endfacet
  facet normal -0.3599 -0.932991 -0
    outer loop
      vertex 0.382683 0.923879 5
      vertex 0.336889 0.941544 4
      vertex 0.382683 0.923879 4
    endloop
  endfacet
  facet normal -0.0245506 0.999699 0
    outer loop
      vertex 0.0490675 -0.998795 4
      vertex 0 -1 5
      vertex 0.0490675 -0.998795 5
    endloop
  endfacet
  facet normal -0.0245506 0.999699 0
    outer loop
      vertex 0 -1 5
      vertex 0.0490675 -0.998795 4
      vertex 0 -1 4
    endloop
  endfacet
  facet normal -0.449616 0.893222 0
    outer loop
      vertex 0.471396 -0.881921 4
      vertex 0.427555 -0.903989 5
      vertex 0.471396 -0.881921 5
    endloop
  endfacet
  facet normal -0.449616 0.893222 0
    outer loop
      vertex 0.427555 -0.903989 5
      vertex 0.471396 -0.881921 4
      vertex 0.427555 -0.903989 4
    endloop
  endfacet
  facet normal -0.219081 -0.975707 0
    outer loop
      vertex 0.19509 0.980784 4
      vertex 0.24298 0.970031 5
      vertex 0.19509 0.980784 5
    endloop
  endfacet
  facet normal -0.219081 -0.975707 -0
    outer loop
      vertex 0.24298 0.970031 5
      vertex 0.19509 0.980784 4
      vertex 0.24298 0.970031 4
    endloop
  endfacet
  facet normal -0.170977 0.985275 0
    outer loop
      vertex 0.19509 -0.980784 4
      vertex 0.14673 -0.989176 5
      vertex 0.19509 -0.980784 5
    endloop
  endfacet
  facet normal -0.170977 0.985275 0
    outer loop
      vertex 0.14673 -0.989176 5
      vertex 0.19509 -0.980784 4
      vertex 0.14673 -0.989176 4
    endloop
  endfacet
  facet normal 0.170977 0.985275 -0
    outer loop
      vertex -0.14673 -0.989176 4
      vertex -0.19509 -0.980784 5
      vertex -0.14673 -0.989176 5
    endloop
  endfacet
  facet normal 0.170977 0.985275 0
    outer loop
      vertex -0.19509 -0.980784 5
      vertex -0.14673 -0.989176 4
      vertex -0.19509 -0.980784 4
    endloop
  endfacet
  facet normal 0.999699 -0.0245506 0
    outer loop
      vertex -1 0 5
      vertex -0.998795 0.0490675 4
      vertex -0.998795 0.0490675 5
    endloop
  endfacet
  facet normal 0.999699 -0.0245506 0
    outer loop
      vertex -0.998795 0.0490675 4
      vertex -1 0 5
      vertex -1 0 4
    endloop
  endfacet
  facet normal -0.817569 0.575831 0
    outer loop
      vertex 0.803207 -0.595698 4
      vertex 0.83147 -0.55557 5
      vertex 0.83147 -0.55557 4
    endloop
  endfacet
  facet normal -0.817569 0.575831 0
    outer loop
      vertex 0.83147 -0.55557 5
      vertex 0.803207 -0.595698 4
      vertex 0.803207 -0.595698 5
    endloop
  endfacet
  facet normal 0.689525 -0.724262 0
    outer loop
      vertex -0.707107 0.707107 4
      vertex -0.671558 0.740951 5
      vertex -0.707107 0.707107 5
    endloop
  endfacet
  facet normal 0.689525 -0.724262 0
    outer loop
      vertex -0.671558 0.740951 5
      vertex -0.707107 0.707107 4
      vertex -0.671558 0.740951 4
    endloop
  endfacet
  facet normal -0.788355 -0.615221 0
    outer loop
      vertex 0.803207 0.595698 4
      vertex 0.77301 0.634393 5
      vertex 0.77301 0.634393 4
    endloop
  endfacet
  facet normal -0.788355 -0.615221 0
    outer loop
      vertex 0.77301 0.634393 5
      vertex 0.803207 0.595698 4
      vertex 0.803207 0.595698 5
    endloop
  endfacet
  facet normal -0.844866 -0.534978 0
    outer loop
      vertex 0.857728 0.514102 4
      vertex 0.83147 0.55557 5
      vertex 0.83147 0.55557 4
    endloop
  endfacet
  facet normal -0.844866 -0.534978 0
    outer loop
      vertex 0.83147 0.55557 5
      vertex 0.857728 0.514102 4
      vertex 0.857728 0.514102 5
    endloop
  endfacet
  facet normal 0.449616 0.893222 -0
    outer loop
      vertex -0.427555 -0.903989 4
      vertex -0.471396 -0.881921 5
      vertex -0.427555 -0.903989 5
    endloop
  endfacet
  facet normal 0.449616 0.893222 0
    outer loop
      vertex -0.471396 -0.881921 5
      vertex -0.427555 -0.903989 4
      vertex -0.471396 -0.881921 4
    endloop
  endfacet
  facet normal -0.689525 0.724262 0
    outer loop
      vertex 0.707107 -0.707107 4
      vertex 0.671558 -0.740951 5
      vertex 0.707107 -0.707107 5
    endloop
  endfacet
  facet normal -0.689525 0.724262 0
    outer loop
      vertex 0.671558 -0.740951 5
      vertex 0.707107 -0.707107 4
      vertex 0.671558 -0.740951 4
    endloop
  endfacet
  facet normal -0.914213 0.405235 0
    outer loop
      vertex 0.903989 -0.427555 4
      vertex 0.923879 -0.382683 5
      vertex 0.923879 -0.382683 4
    endloop
  endfacet
  facet normal -0.914213 0.405235 0
    outer loop
      vertex 0.923879 -0.382683 5
      vertex 0.903989 -0.427555 4
      vertex 0.903989 -0.427555 5
    endloop
  endfacet
  facet normal -0.492904 -0.870084 0
    outer loop
      vertex 0.471396 0.881921 4
      vertex 0.514102 0.857728 5
      vertex 0.471396 0.881921 5
    endloop
  endfacet
  facet normal -0.492904 -0.870084 -0
    outer loop
      vertex 0.514102 0.857728 5
      vertex 0.471396 0.881921 4
      vertex 0.514102 0.857728 4
    endloop
  endfacet
  facet normal -0.949529 -0.313678 0
    outer loop
      vertex 0.95694 0.290284 4
      vertex 0.941544 0.336889 5
      vertex 0.941544 0.336889 4
    endloop
  endfacet
  facet normal -0.949529 -0.313678 0
    outer loop
      vertex 0.941544 0.336889 5
      vertex 0.95694 0.290284 4
      vertex 0.95694 0.290284 5
    endloop
  endfacet
  facet normal 0.0245506 -0.999699 0
    outer loop
      vertex -0.0490675 0.998795 4
      vertex 0 1 5
      vertex -0.0490675 0.998795 5
    endloop
  endfacet
  facet normal 0.0245506 -0.999699 0
    outer loop
      vertex 0 1 5
      vertex -0.0490675 0.998795 4
      vertex 0 1 4
    endloop
  endfacet
  facet normal -0.405235 -0.914213 0
    outer loop
      vertex 0.382683 0.923879 4
      vertex 0.427555 0.903989 5
      vertex 0.382683 0.923879 5
    endloop
  endfacet
  facet normal -0.405235 -0.914213 -0
    outer loop
      vertex 0.427555 0.903989 5
      vertex 0.382683 0.923879 4
      vertex 0.427555 0.903989 4
    endloop
  endfacet
  facet normal 0.653176 -0.757206 0
    outer loop
      vertex -0.671558 0.740951 4
      vertex -0.634393 0.77301 5
      vertex -0.671558 0.740951 5
    endloop
  endfacet
  facet normal 0.653176 -0.757206 0
    outer loop
      vertex -0.634393 0.77301 5
      vertex -0.671558 0.740951 4
      vertex -0.634393 0.77301 4
    endloop
  endfacet
  facet normal -0.689525 -0.724262 0
    outer loop
      vertex 0.671558 0.740951 4
      vertex 0.707107 0.707107 5
      vertex 0.671558 0.740951 5
    endloop
  endfacet
  facet normal -0.689525 -0.724262 -0
    outer loop
      vertex 0.707107 0.707107 5
      vertex 0.671558 0.740951 4
      vertex 0.707107 0.707107 4
    endloop
  endfacet
  facet normal 0.219081 -0.975707 0
    outer loop
      vertex -0.24298 0.970031 4
      vertex -0.19509 0.980784 5
      vertex -0.24298 0.970031 5
    endloop
  endfacet
  facet normal 0.219081 -0.975707 0
    outer loop
      vertex -0.19509 0.980784 5
      vertex -0.24298 0.970031 4
      vertex -0.19509 0.980784 4
    endloop
  endfacet
  facet normal -0.914213 -0.405235 0
    outer loop
      vertex 0.923879 0.382683 4
      vertex 0.903989 0.427555 5
      vertex 0.903989 0.427555 4
    endloop
  endfacet
  facet normal -0.914213 -0.405235 0
    outer loop
      vertex 0.903989 0.427555 5
      vertex 0.923879 0.382683 4
      vertex 0.923879 0.382683 5
    endloop
  endfacet
  facet normal 0.817569 0.575831 0
    outer loop
      vertex -0.803207 -0.595698 5
      vertex -0.83147 -0.55557 4
      vertex -0.83147 -0.55557 5
    endloop
  endfacet
  facet normal 0.817569 0.575831 0
    outer loop
      vertex -0.83147 -0.55557 4
      vertex -0.803207 -0.595698 5
      vertex -0.803207 -0.595698 4
    endloop
  endfacet
  facet normal 0.757206 -0.653176 0
    outer loop
      vertex -0.77301 0.634393 5
      vertex -0.740951 0.671558 4
      vertex -0.740951 0.671558 5
    endloop
  endfacet
  facet normal 0.757206 -0.653176 0
    outer loop
      vertex -0.740951 0.671558 4
      vertex -0.77301 0.634393 5
      vertex -0.77301 0.634393 4
    endloop
  endfacet
  facet normal 0.975707 -0.219081 0
    outer loop
      vertex -0.980784 0.19509 5
      vertex -0.970031 0.24298 4
      vertex -0.970031 0.24298 5
    endloop
  endfacet
  facet normal 0.975707 -0.219081 0
    outer loop
      vertex -0.970031 0.24298 4
      vertex -0.980784 0.19509 5
      vertex -0.980784 0.19509 4
    endloop
  endfacet
  facet normal 0.170977 -0.985275 0
    outer loop
      vertex -0.19509 0.980784 4
      vertex -0.14673 0.989176 5
      vertex -0.19509 0.980784 5
    endloop
  endfacet
  facet normal 0.170977 -0.985275 0
    outer loop
      vertex -0.14673 0.989176 5
      vertex -0.19509 0.980784 4
      vertex -0.14673 0.989176 4
    endloop
  endfacet
  facet normal 0.99729 0.0735704 0
    outer loop
      vertex -0.995184 -0.0980167 5
      vertex -0.998795 -0.0490675 4
      vertex -0.998795 -0.0490675 5
    endloop
  endfacet
  facet normal 0.99729 0.0735704 0
    outer loop
      vertex -0.998795 -0.0490675 4
      vertex -0.995184 -0.0980167 5
      vertex -0.995184 -0.0980167 4
    endloop
  endfacet
  facet normal 0.99248 0.122406 0
    outer loop
      vertex -0.989176 -0.14673 5
      vertex -0.995184 -0.0980167 4
      vertex -0.995184 -0.0980167 5
    endloop
  endfacet
  facet normal 0.99248 0.122406 0
    outer loop
      vertex -0.995184 -0.0980167 4
      vertex -0.989176 -0.14673 5
      vertex -0.989176 -0.14673 4
    endloop
  endfacet
  facet normal -0.534978 0.844866 0
    outer loop
      vertex 0.55557 -0.83147 4
      vertex 0.514102 -0.857728 5
      vertex 0.55557 -0.83147 5
    endloop
  endfacet
  facet normal -0.534978 0.844866 0
    outer loop
      vertex 0.514102 -0.857728 5
      vertex 0.55557 -0.83147 4
      vertex 0.514102 -0.857728 4
    endloop
  endfacet
  facet normal 0.757206 0.653176 0
    outer loop
      vertex -0.740951 -0.671558 5
      vertex -0.77301 -0.634393 4
      vertex -0.77301 -0.634393 5
    endloop
  endfacet
  facet normal 0.757206 0.653176 0
    outer loop
      vertex -0.77301 -0.634393 4
      vertex -0.740951 -0.671558 5
      vertex -0.740951 -0.671558 4
    endloop
  endfacet
  facet normal 0.724262 0.689525 0
    outer loop
      vertex -0.707107 -0.707107 5
      vertex -0.740951 -0.671558 4
      vertex -0.740951 -0.671558 5
    endloop
  endfacet
  facet normal 0.724262 0.689525 0
    outer loop
      vertex -0.740951 -0.671558 4
      vertex -0.707107 -0.707107 5
      vertex -0.707107 -0.707107 4
    endloop
  endfacet
  facet normal 0.932991 0.3599 0
    outer loop
      vertex -0.923879 -0.382683 5
      vertex -0.941544 -0.336889 4
      vertex -0.941544 -0.336889 5
    endloop
  endfacet
  facet normal 0.932991 0.3599 0
    outer loop
      vertex -0.941544 -0.336889 4
      vertex -0.923879 -0.382683 5
      vertex -0.923879 -0.382683 4
    endloop
  endfacet
  facet normal 0.893222 -0.449616 0
    outer loop
      vertex -0.903989 0.427555 5
      vertex -0.881921 0.471396 4
      vertex -0.881921 0.471396 5
    endloop
  endfacet
  facet normal 0.893222 -0.449616 0
    outer loop
      vertex -0.881921 0.471396 4
      vertex -0.903989 0.427555 5
      vertex -0.903989 0.427555 4
    endloop
  endfacet
  facet normal 0.870084 0.492904 0
    outer loop
      vertex -0.857728 -0.514102 5
      vertex -0.881921 -0.471396 4
      vertex -0.881921 -0.471396 5
    endloop
  endfacet
  facet normal 0.870084 0.492904 0
    outer loop
      vertex -0.881921 -0.471396 4
      vertex -0.857728 -0.514102 5
      vertex -0.857728 -0.514102 4
    endloop
  endfacet
  facet normal 0.449616 -0.893222 0
    outer loop
      vertex -0.471396 0.881921 4
      vertex -0.427555 0.903989 5
      vertex -0.471396 0.881921 5
    endloop
  endfacet
  facet normal 0.449616 -0.893222 0
    outer loop
      vertex -0.427555 0.903989 5
      vertex -0.471396 0.881921 4
      vertex -0.427555 0.903989 4
    endloop
  endfacet
  facet normal -0.893222 0.449616 0
    outer loop
      vertex 0.881921 -0.471396 4
      vertex 0.903989 -0.427555 5
      vertex 0.903989 -0.427555 4
    endloop
  endfacet
  facet normal -0.893222 0.449616 0
    outer loop
      vertex 0.903989 -0.427555 5
      vertex 0.881921 -0.471396 4
      vertex 0.881921 -0.471396 5
    endloop
  endfacet
  facet normal -0.788355 0.615221 0
    outer loop
      vertex 0.77301 -0.634393 4
      vertex 0.803207 -0.595698 5
      vertex 0.803207 -0.595698 4
    endloop
  endfacet
  facet normal -0.788355 0.615221 0
    outer loop
      vertex 0.803207 -0.595698 5
      vertex 0.77301 -0.634393 4
      vertex 0.77301 -0.634393 5
    endloop
  endfacet
  facet normal 0.788355 -0.615221 0
    outer loop
      vertex -0.803207 0.595698 5
      vertex -0.77301 0.634393 4
      vertex -0.77301 0.634393 5
    endloop
  endfacet
  facet normal 0.788355 -0.615221 0
    outer loop
      vertex -0.77301 0.634393 4
      vertex -0.803207 0.595698 5
      vertex -0.803207 0.595698 4
    endloop
  endfacet
  facet normal 0.949529 -0.313678 0
    outer loop
      vertex -0.95694 0.290284 5
      vertex -0.941544 0.336889 4
      vertex -0.941544 0.336889 5
    endloop
  endfacet
  facet normal 0.949529 -0.313678 0
    outer loop
      vertex -0.941544 0.336889 4
      vertex -0.95694 0.290284 5
      vertex -0.95694 0.290284 4
    endloop
  endfacet
  facet normal 0.914213 -0.405235 0
    outer loop
      vertex -0.923879 0.382683 5
      vertex -0.903989 0.427555 4
      vertex -0.903989 0.427555 5
    endloop
  endfacet
  facet normal 0.914213 -0.405235 0
    outer loop
      vertex -0.903989 0.427555 4
      vertex -0.923879 0.382683 5
      vertex -0.923879 0.382683 4
    endloop
  endfacet
  facet normal 0.724262 -0.689525 0
    outer loop
      vertex -0.740951 0.671558 5
      vertex -0.707107 0.707107 4
      vertex -0.707107 0.707107 5
    endloop
  endfacet
  facet normal 0.724262 -0.689525 0
    outer loop
      vertex -0.707107 0.707107 4
      vertex -0.740951 0.671558 5
      vertex -0.740951 0.671558 4
    endloop
  endfacet
  facet normal -0.492904 0.870084 0
    outer loop
      vertex 0.514102 -0.857728 4
      vertex 0.471396 -0.881921 5
      vertex 0.514102 -0.857728 5
    endloop
  endfacet
  facet normal -0.492904 0.870084 0
    outer loop
      vertex 0.471396 -0.881921 5
      vertex 0.514102 -0.857728 4
      vertex 0.471396 -0.881921 4
    endloop
  endfacet
  facet normal 0.914213 0.405235 0
    outer loop
      vertex -0.903989 -0.427555 5
      vertex -0.923879 -0.382683 4
      vertex -0.923879 -0.382683 5
    endloop
  endfacet
  facet normal 0.914213 0.405235 0
    outer loop
      vertex -0.923879 -0.382683 4
      vertex -0.903989 -0.427555 5
      vertex -0.903989 -0.427555 4
    endloop
  endfacet
  facet normal -0.949529 0.313678 0
    outer loop
      vertex 0.941544 -0.336889 4
      vertex 0.95694 -0.290284 5
      vertex 0.95694 -0.290284 4
    endloop
  endfacet
  facet normal -0.949529 0.313678 0
    outer loop
      vertex 0.95694 -0.290284 5
      vertex 0.941544 -0.336889 4
      vertex 0.941544 -0.336889 5
    endloop
  endfacet
  facet normal 0.985275 -0.170977 0
    outer loop
      vertex -0.989176 0.14673 5
      vertex -0.980784 0.19509 4
      vertex -0.980784 0.19509 5
    endloop
  endfacet
  facet normal 0.985275 -0.170977 0
    outer loop
      vertex -0.980784 0.19509 4
      vertex -0.989176 0.14673 5
      vertex -0.989176 0.14673 4
    endloop
  endfacet
  facet normal -0.219081 0.975707 0
    outer loop
      vertex 0.24298 -0.970031 4
      vertex 0.19509 -0.980784 5
      vertex 0.24298 -0.970031 5
    endloop
  endfacet
  facet normal -0.219081 0.975707 0
    outer loop
      vertex 0.19509 -0.980784 5
      vertex 0.24298 -0.970031 4
      vertex 0.19509 -0.980784 4
    endloop
  endfacet
  facet normal -0.0735704 -0.99729 0
    outer loop
      vertex 0.0490675 0.998795 4
      vertex 0.0980167 0.995184 5
      vertex 0.0490675 0.998795 5
    endloop
  endfacet
  facet normal -0.0735704 -0.99729 -0
    outer loop
      vertex 0.0980167 0.995184 5
      vertex 0.0490675 0.998795 4
      vertex 0.0980167 0.995184 4
    endloop
  endfacet
  facet normal -0.932991 -0.3599 0
    outer loop
      vertex 0.941544 0.336889 4
      vertex 0.923879 0.382683 5
      vertex 0.923879 0.382683 4
    endloop
  endfacet
  facet normal -0.932991 -0.3599 0
    outer loop
      vertex 0.923879 0.382683 5
      vertex 0.941544 0.336889 4
      vertex 0.941544 0.336889 5
    endloop
  endfacet
  facet normal -0.170977 -0.985275 0
    outer loop
      vertex 0.14673 0.989176 4
      vertex 0.19509 0.980784 5
      vertex 0.14673 0.989176 5
    endloop
  endfacet
  facet normal -0.170977 -0.985275 -0
    outer loop
      vertex 0.19509 0.980784 5
      vertex 0.14673 0.989176 4
      vertex 0.19509 0.980784 4
    endloop
  endfacet
  facet normal 0.653176 0.757206 -0
    outer loop
      vertex -0.634393 -0.77301 4
      vertex -0.671558 -0.740951 5
      vertex -0.634393 -0.77301 5
    endloop
  endfacet
  facet normal 0.653176 0.757206 0
    outer loop
      vertex -0.671558 -0.740951 5
      vertex -0.634393 -0.77301 4
      vertex -0.671558 -0.740951 4
    endloop
  endfacet
  facet normal -0.817569 -0.575831 0
    outer loop
      vertex 0.83147 0.55557 4
      vertex 0.803207 0.595698 5
      vertex 0.803207 0.595698 4
    endloop
  endfacet
  facet normal -0.817569 -0.575831 0
    outer loop
      vertex 0.803207 0.595698 5
      vertex 0.83147 0.55557 4
      vertex 0.83147 0.55557 5
    endloop
  endfacet
  facet normal -0.615221 0.788355 0
    outer loop
      vertex 0.634393 -0.77301 4
      vertex 0.595698 -0.803207 5
      vertex 0.634393 -0.77301 5
    endloop
  endfacet
  facet normal -0.615221 0.788355 0
    outer loop
      vertex 0.595698 -0.803207 5
      vertex 0.634393 -0.77301 4
      vertex 0.595698 -0.803207 4
    endloop
  endfacet
  facet normal -0.0245506 -0.999699 0
    outer loop
      vertex 0 1 4
      vertex 0.0490675 0.998795 5
      vertex 0 1 5
    endloop
  endfacet
  facet normal -0.0245506 -0.999699 -0
    outer loop
      vertex 0.0490675 0.998795 5
      vertex 0 1 4
      vertex 0.0490675 0.998795 4
    endloop
  endfacet
  facet normal 0.0245506 0.999699 -0
    outer loop
      vertex 0 -1 4
      vertex -0.0490675 -0.998795 5
      vertex 0 -1 5
    endloop
  endfacet
  facet normal 0.0245506 0.999699 0
    outer loop
      vertex -0.0490675 -0.998795 5
      vertex 0 -1 4
      vertex -0.0490675 -0.998795 4
    endloop
  endfacet
  facet normal -0.266717 -0.963775 0
    outer loop
      vertex 0.24298 0.970031 4
      vertex 0.290284 0.95694 5
      vertex 0.24298 0.970031 5
    endloop
  endfacet
  facet normal -0.266717 -0.963775 -0
    outer loop
      vertex 0.290284 0.95694 5
      vertex 0.24298 0.970031 4
      vertex 0.290284 0.95694 4
    endloop
  endfacet
  facet normal -0.724262 0.689525 0
    outer loop
      vertex 0.707107 -0.707107 4
      vertex 0.740951 -0.671558 5
      vertex 0.740951 -0.671558 4
    endloop
  endfacet
  facet normal -0.724262 0.689525 0
    outer loop
      vertex 0.740951 -0.671558 5
      vertex 0.707107 -0.707107 4
      vertex 0.707107 -0.707107 5
    endloop
  endfacet
  facet normal 0.313678 0.949529 -0
    outer loop
      vertex -0.290284 -0.95694 4
      vertex -0.336889 -0.941544 5
      vertex -0.290284 -0.95694 5
    endloop
  endfacet
  facet normal 0.313678 0.949529 0
    outer loop
      vertex -0.336889 -0.941544 5
      vertex -0.290284 -0.95694 4
      vertex -0.336889 -0.941544 4
    endloop
  endfacet
  facet normal 0.219081 0.975707 -0
    outer loop
      vertex -0.19509 -0.980784 4
      vertex -0.24298 -0.970031 5
      vertex -0.19509 -0.980784 5
    endloop
  endfacet
  facet normal 0.219081 0.975707 0
    outer loop
      vertex -0.24298 -0.970031 5
      vertex -0.19509 -0.980784 4
      vertex -0.24298 -0.970031 4
    endloop
  endfacet
  facet normal -0.985275 0.170977 0
    outer loop
      vertex 0.980784 -0.19509 4
      vertex 0.989176 -0.14673 5
      vertex 0.989176 -0.14673 4
    endloop
  endfacet
  facet normal -0.985275 0.170977 0
    outer loop
      vertex 0.989176 -0.14673 5
      vertex 0.980784 -0.19509 4
      vertex 0.980784 -0.19509 5
    endloop
  endfacet
  facet normal 0.844866 0.534978 0
    outer loop
      vertex -0.83147 -0.55557 5
      vertex -0.857728 -0.514102 4
      vertex -0.857728 -0.514102 5
    endloop
  endfacet
  facet normal 0.844866 0.534978 0
    outer loop
      vertex -0.857728 -0.514102 4
      vertex -0.83147 -0.55557 5
      vertex -0.83147 -0.55557 4
    endloop
  endfacet
  facet normal 0.615221 -0.788355 0
    outer loop
      vertex -0.634393 0.77301 4
      vertex -0.595698 0.803207 5
      vertex -0.634393 0.77301 5
    endloop
  endfacet
  facet normal 0.615221 -0.788355 0
    outer loop
      vertex -0.595698 0.803207 5
      vertex -0.634393 0.77301 4
      vertex -0.595698 0.803207 4
    endloop
  endfacet
  facet normal 0.575831 -0.817569 0
    outer loop
      vertex -0.595698 0.803207 4
      vertex -0.55557 0.83147 5
      vertex -0.595698 0.803207 5
    endloop
  endfacet
  facet normal 0.575831 -0.817569 0
    outer loop
      vertex -0.55557 0.83147 5
      vertex -0.595698 0.803207 4
      vertex -0.55557 0.83147 4
    endloop
  endfacet
  facet normal 0.266717 -0.963775 0
    outer loop
      vertex -0.290284 0.95694 4
      vertex -0.24298 0.970031 5
      vertex -0.290284 0.95694 5
    endloop
  endfacet
  facet normal 0.266717 -0.963775 0
    outer loop
      vertex -0.24298 0.970031 5
      vertex -0.290284 0.95694 4
      vertex -0.24298 0.970031 4
    endloop
  endfacet
  facet normal 0.3599 0.932991 -0
    outer loop
      vertex -0.336889 -0.941544 4
      vertex -0.382683 -0.923879 5
      vertex -0.336889 -0.941544 5
    endloop
  endfacet
  facet normal 0.3599 0.932991 0
    outer loop
      vertex -0.382683 -0.923879 5
      vertex -0.336889 -0.941544 4
      vertex -0.382683 -0.923879 4
    endloop
  endfacet
  facet normal -0.3599 0.932991 0
    outer loop
      vertex 0.382683 -0.923879 4
      vertex 0.336889 -0.941544 5
      vertex 0.382683 -0.923879 5
    endloop
  endfacet
  facet normal -0.3599 0.932991 0
    outer loop
      vertex 0.336889 -0.941544 5
      vertex 0.382683 -0.923879 4
      vertex 0.336889 -0.941544 4
    endloop
  endfacet
  facet normal 0.963775 0.266717 0
    outer loop
      vertex -0.95694 -0.290284 5
      vertex -0.970031 -0.24298 4
      vertex -0.970031 -0.24298 5
    endloop
  endfacet
  facet normal 0.963775 0.266717 0
    outer loop
      vertex -0.970031 -0.24298 4
      vertex -0.95694 -0.290284 5
      vertex -0.95694 -0.290284 4
    endloop
  endfacet
  facet normal 0.975707 0.219081 0
    outer loop
      vertex -0.970031 -0.24298 5
      vertex -0.980784 -0.19509 4
      vertex -0.980784 -0.19509 5
    endloop
  endfacet
  facet normal 0.975707 0.219081 0
    outer loop
      vertex -0.980784 -0.19509 4
      vertex -0.970031 -0.24298 5
      vertex -0.970031 -0.24298 4
    endloop
  endfacet
  facet normal 0.615221 0.788355 -0
    outer loop
      vertex -0.595698 -0.803207 4
      vertex -0.634393 -0.77301 5
      vertex -0.595698 -0.803207 5
    endloop
  endfacet
  facet normal 0.615221 0.788355 0
    outer loop
      vertex -0.634393 -0.77301 5
      vertex -0.595698 -0.803207 4
      vertex -0.634393 -0.77301 4
    endloop
  endfacet
  facet normal 0.893222 0.449616 0
    outer loop
      vertex -0.881921 -0.471396 5
      vertex -0.903989 -0.427555 4
      vertex -0.903989 -0.427555 5
    endloop
  endfacet
  facet normal 0.893222 0.449616 0
    outer loop
      vertex -0.903989 -0.427555 4
      vertex -0.881921 -0.471396 5
      vertex -0.881921 -0.471396 4
    endloop
  endfacet
  facet normal -0.575831 0.817569 0
    outer loop
      vertex 0.595698 -0.803207 4
      vertex 0.55557 -0.83147 5
      vertex 0.595698 -0.803207 5
    endloop
  endfacet
  facet normal -0.575831 0.817569 0
    outer loop
      vertex 0.55557 -0.83147 5
      vertex 0.595698 -0.803207 4
      vertex 0.55557 -0.83147 4
    endloop
  endfacet
  facet normal 0.405235 0.914213 -0
    outer loop
      vertex -0.382683 -0.923879 4
      vertex -0.427555 -0.903989 5
      vertex -0.382683 -0.923879 5
    endloop
  endfacet
  facet normal 0.405235 0.914213 0
    outer loop
      vertex -0.427555 -0.903989 5
      vertex -0.382683 -0.923879 4
      vertex -0.427555 -0.903989 4
    endloop
  endfacet
  facet normal 0 -1 0
    outer loop
      vertex -2.5 -4.33013 0
      vertex 2.5 -4.33013 4
      vertex -2.5 -4.33013 4
    endloop
  endfacet
  facet normal 0 -1 -0
    outer loop
      vertex 2.5 -4.33013 4
      vertex -2.5 -4.33013 0
      vertex 2.5 -4.33013 0
    endloop
  endfacet
  facet normal 0.866026 -0.5 0
    outer loop
      vertex 2.5 -4.33013 4
      vertex 5 0 0
      vertex 5 0 4
    endloop
  endfacet
  facet normal 0.866026 -0.5 0
    outer loop
      vertex 5 0 0
      vertex 2.5 -4.33013 4
      vertex 2.5 -4.33013 0
    endloop
  endfacet
  facet normal 0 1 -0
    outer loop
      vertex 2.5 4.33013 0
      vertex -2.5 4.33013 4
      vertex 2.5 4.33013 4
    endloop
  endfacet
  facet normal 0 1 0
    outer loop
      vertex -2.5 4.33013 4
      vertex 2.5 4.33013 0
      vertex -2.5 4.33013 0
    endloop
  endfacet
  facet normal 0.866026 0.5 0
    outer loop
      vertex 5 0 4
      vertex 2.5 4.33013 0
      vertex 2.5 4.33013 4
    endloop
  endfacet
  facet normal 0.866026 0.5 0
    outer loop
      vertex 2.5 4.33013 0
      vertex 5 0 4
      vertex 5 0 0
    endloop
  endfacet
  facet normal -0.866026 0.5 0
    outer loop
      vertex -5 0 0
      vertex -2.5 4.33013 4
      vertex -2.5 4.33013 0
    endloop
  endfacet
  facet normal -0.866026 0.5 0
    outer loop
      vertex -2.5 4.33013 4
      vertex -5 0 0
      vertex -5 0 4
    endloop
  endfacet
  facet normal -0.866026 -0.5 0
    outer loop
      vertex -2.5 -4.33013 0
      vertex -5 0 4
      vertex -5 0 0
    endloop
  endfacet
  facet normal -0.866026 -0.5 0
    outer loop
      vertex -5 0 4
      vertex -2.5 -4.33013 0
      vertex -2.5 -4.33013 4
    endloop
  endfacet
  facet normal 0 0 -1
    outer loop
      vertex 2.5 -4.33013 0
      vertex 2.5 4.33013 0
      vertex 5 0 0
    endloop
  endfacet
  facet normal 0 0 -1
    outer loop
      vertex -2.5 -4.33013 0
      vertex 2.5 4.33013 0
      vertex 2.5 -4.33013 0
    endloop
  endfacet
  facet normal 0 0 -1
    outer loop
      vertex -2.5 -4.33013 0
      vertex -2.5 4.33013 0
      vertex 2.5 4.33013 0
    endloop
  endfacet
  facet normal 0 -0 -1
    outer loop
      vertex -2.5 4.33013 0
      vertex -2.5 -4.33013 0
      vertex -5 0 0
    endloop
  endfacet
endsolid OpenSCAD_Model
