solid OpenSCAD_Model
  facet normal 0 0.974927 -0.222526
    outer loop
      vertex 6 1.84828 0.95
      vertex 4 1.94986 1.39504
      vertex 6 1.94986 1.39504
    endloop
  endfacet
  facet normal 0 0.974927 -0.222526
    outer loop
      vertex 4 1.94986 1.39504
      vertex 6 1.84828 0.95
      vertex 4 1.84828 0.95
    endloop
  endfacet
  facet normal 0 0.781831 0.62349
    outer loop
      vertex 6 1.94986 1.39504
      vertex 4 0.867767 2.75194
      vertex 6 0.867767 2.75194
    endloop
  endfacet
  facet normal 0 0.781831 0.62349
    outer loop
      vertex 4 0.867767 2.75194
      vertex 6 1.94986 1.39504
      vertex 4 1.94986 1.39504
    endloop
  endfacet
  facet normal -1 0 0
    outer loop
      vertex 6 -2.80017 -0.05
      vertex 6 -1.13176 0.58227
      vertex 6 -0.261512 -0.05
    endloop
  endfacet
  facet normal -1 0 0
    outer loop
      vertex 6 -2.85317 0.0229494
      vertex 6 -1.84828 0.95
      vertex 6 -2.80017 -0.05
    endloop
  endfacet
  facet normal -1 -0 0
    outer loop
      vertex 6 -1.13176 0.58227
      vertex 6 -2.80017 -0.05
      vertex 6 -1.84828 0.95
    endloop
  endfacet
  facet normal -1 -0 0
    outer loop
      vertex 6 -1.01227 0.95
      vertex 6 -1.13176 0.58227
      vertex 6 -1.84828 0.95
    endloop
  endfacet
  facet normal -1 0 0
    outer loop
      vertex 6 2.85317 1.87705
      vertex 6 1.84828 0.95
      vertex 6 1.94986 1.39504
    endloop
  endfacet
  facet normal -1 0 0
    outer loop
      vertex 6 2.80017 -0.05
      vertex 6 1.13176 0.58227
      vertex 6 1.84828 0.95
    endloop
  endfacet
  facet normal -1 0 -0
    outer loop
      vertex 6 1.13176 0.58227
      vertex 6 2.80017 -0.05
      vertex 6 0.261512 -0.05
    endloop
  endfacet
  facet normal -1 0 0
    outer loop
      vertex 6 1.84828 0.95
      vertex 6 2.85317 0.0229494
      vertex 6 2.80017 -0.05
    endloop
  endfacet
  facet normal -1 0 0
    outer loop
      vertex 6 1.84828 0.95
      vertex 6 2.85317 1.87705
      vertex 6 2.85317 0.0229494
    endloop
  endfacet
  facet normal -1 0 0
    outer loop
      vertex 6 1.94986 1.39504
      vertex 6 1.76336 3.37705
      vertex 6 2.85317 1.87705
    endloop
  endfacet
  facet normal -1 0 0
    outer loop
      vertex 6 0.867767 2.75194
      vertex 6 1.76336 3.37705
      vertex 6 1.94986 1.39504
    endloop
  endfacet
  facet normal -1 0 0
    outer loop
      vertex 6 0.867767 2.75194
      vertex 6 0 3.95
      vertex 6 1.76336 3.37705
    endloop
  endfacet
  facet normal -1 0 0
    outer loop
      vertex 6 -0.867767 2.75194
      vertex 6 0 3.95
      vertex 6 0.867767 2.75194
    endloop
  endfacet
  facet normal -1 0 0
    outer loop
      vertex 6 -0.867767 2.75194
      vertex 6 -1.76336 3.37705
      vertex 6 0 3.95
    endloop
  endfacet
  facet normal -1 0 0
    outer loop
      vertex 6 -1.94986 1.39504
      vertex 6 -1.76336 3.37705
      vertex 6 -0.867767 2.75194
    endloop
  endfacet
  facet normal -1 0 0
    outer loop
      vertex 6 -2.85317 1.87705
      vertex 6 -1.84828 0.95
      vertex 6 -2.85317 0.0229494
    endloop
  endfacet
  facet normal -1 0 0
    outer loop
      vertex 6 -1.84828 0.95
      vertex 6 -2.85317 1.87705
      vertex 6 -1.94986 1.39504
    endloop
  endfacet
  facet normal -1 0 0
    outer loop
      vertex 6 -1.94986 1.39504
      vertex 6 -2.85317 1.87705
      vertex 6 -1.76336 3.37705
    endloop
  endfacet
  facet normal -1 -0 0
    outer loop
      vertex 6 1.84828 0.95
      vertex 6 1.13176 0.58227
      vertex 6 1.01227 0.95
    endloop
  endfacet
  facet normal 0 -0.781831 0.62349
    outer loop
      vertex 4 -1.94986 1.39504
      vertex 6 -0.867767 2.75194
      vertex 4 -0.867767 2.75194
    endloop
  endfacet
  facet normal 0 -0.781831 0.62349
    outer loop
      vertex 6 -0.867767 2.75194
      vertex 4 -1.94986 1.39504
      vertex 6 -1.94986 1.39504
    endloop
  endfacet
  facet normal 0 -0.974927 -0.222526
    outer loop
      vertex 4 -1.84828 0.95
      vertex 6 -1.94986 1.39504
      vertex 4 -1.94986 1.39504
    endloop
  endfacet
  facet normal 0 -0.974927 -0.222526
    outer loop
      vertex 6 -1.94986 1.39504
      vertex 4 -1.84828 0.95
      vertex 6 -1.84828 0.95
    endloop
  endfacet
  facet normal -1 0 0
    outer loop
      vertex 4 1.01227 0.95
      vertex 4 1.94986 1.39504
      vertex 4 1.84828 0.95
    endloop
  endfacet
  facet normal -1 0 0
    outer loop
      vertex 4 0.699464 1.91273
      vertex 4 1.94986 1.39504
      vertex 4 1.01227 0.95
    endloop
  endfacet
  facet normal -1 0 0
    outer loop
      vertex 4 1.94986 1.39504
      vertex 4 0.699464 1.91273
      vertex 4 0.867767 2.75194
    endloop
  endfacet
  facet normal -1 0 0
    outer loop
      vertex 4 -0.699464 1.91273
      vertex 4 0.867767 2.75194
      vertex 4 0.699464 1.91273
    endloop
  endfacet
  facet normal -1 0 0
    outer loop
      vertex 4 -0.699464 1.91273
      vertex 4 -0.867767 2.75194
      vertex 4 0.867767 2.75194
    endloop
  endfacet
  facet normal -1 0 0
    outer loop
      vertex 4 -1.94986 1.39504
      vertex 4 -0.699464 1.91273
      vertex 4 -1.01227 0.95
    endloop
  endfacet
  facet normal -1 0 0
    outer loop
      vertex 4 -1.94986 1.39504
      vertex 4 -1.01227 0.95
      vertex 4 -1.84828 0.95
    endloop
  endfacet
  facet normal -1 -0 0
    outer loop
      vertex 4 -0.699464 1.91273
      vertex 4 -1.94986 1.39504
      vertex 4 -0.867767 2.75194
    endloop
  endfacet
  facet normal -0 0 1
    outer loop
      vertex 4 0.867767 2.75194
      vertex 6 -0.867767 2.75194
      vertex 6 0.867767 2.75194
    endloop
  endfacet
  facet normal 0 0 1
    outer loop
      vertex 6 -0.867767 2.75194
      vertex 4 0.867767 2.75194
      vertex 4 -0.867767 2.75194
    endloop
  endfacet
  facet normal 0 0 -1
    outer loop
      vertex 4 1.01227 0.95
      vertex 6 1.84828 0.95
      vertex 6 1.01227 0.95
    endloop
  endfacet
  facet normal -0 0 -1
    outer loop
      vertex 6 1.84828 0.95
      vertex 4 1.01227 0.95
      vertex 4 1.84828 0.95
    endloop
  endfacet
  facet normal 0 0 -1
    outer loop
      vertex 4 -1.84828 0.95
      vertex 6 -1.01227 0.95
      vertex 6 -1.84828 0.95
    endloop
  endfacet
  facet normal -0 0 -1
    outer loop
      vertex 6 -1.01227 0.95
      vertex 4 -1.84828 0.95
      vertex 4 -1.01227 0.95
    endloop
  endfacet
  facet normal 0 -0.309017 0.951057
    outer loop
      vertex 6 0 3.95
      vertex 10 -1.76336 3.37705
      vertex 10 0 3.95
    endloop
  endfacet
  facet normal 0 -0.309017 0.951057
    outer loop
      vertex 10 -1.76336 3.37705
      vertex 6 0 3.95
      vertex 6 -1.76336 3.37705
    endloop
  endfacet
  facet normal 0 0.809021 -0.587779
    outer loop
      vertex 10 2.80017 -0.05
      vertex 6 2.85317 0.0229494
      vertex 10 2.85317 0.0229494
    endloop
  endfacet
  facet normal 0 0.809021 -0.587779
    outer loop
      vertex 6 2.85317 0.0229494
      vertex 10 2.80017 -0.05
      vertex 6 2.80017 -0.05
    endloop
  endfacet
  facet normal 0 1 -0
    outer loop
      vertex 10 2.85317 0.0229494
      vertex 6 2.85317 1.87705
      vertex 10 2.85317 1.87705
    endloop
  endfacet
  facet normal 0 1 0
    outer loop
      vertex 6 2.85317 1.87705
      vertex 10 2.85317 0.0229494
      vertex 6 2.85317 0.0229494
    endloop
  endfacet
  facet normal 0 -0.809021 -0.587779
    outer loop
      vertex 6 -2.80017 -0.05
      vertex 10 -2.85317 0.0229494
      vertex 6 -2.85317 0.0229494
    endloop
  endfacet
  facet normal 0 -0.809021 -0.587779
    outer loop
      vertex 10 -2.85317 0.0229494
      vertex 6 -2.80017 -0.05
      vertex 10 -2.80017 -0.05
    endloop
  endfacet
  facet normal 1 0 0
    outer loop
      vertex 10 0.261512 -0.05
      vertex 10 2.85317 0.0229494
      vertex 10 2.85317 1.87705
    endloop
  endfacet
  facet normal 1 0 0
    outer loop
      vertex 10 0.261512 -0.05
      vertex 10 2.85317 1.87705
      vertex 10 1.76336 3.37705
    endloop
  endfacet
  facet normal 1 0 0
    outer loop
      vertex 10 2.85317 0.0229494
      vertex 10 0.261512 -0.05
      vertex 10 2.80017 -0.05
    endloop
  endfacet
  facet normal 1 0 0
    outer loop
      vertex 10 0 3.95
      vertex 10 0.261512 -0.05
      vertex 10 1.76336 3.37705
    endloop
  endfacet
  facet normal 1 0 0
    outer loop
      vertex 10 -0.261512 -0.05
      vertex 10 0.261512 -0.05
      vertex 10 0 3.95
    endloop
  endfacet
  facet normal 1 0 0
    outer loop
      vertex 10 0.261512 -0.05
      vertex 10 -0.261512 -0.05
      vertex 10 0 -0.24
    endloop
  endfacet
  facet normal 1 -0 0
    outer loop
      vertex 10 -1.76336 3.37705
      vertex 10 -0.261512 -0.05
      vertex 10 0 3.95
    endloop
  endfacet
  facet normal 1 -0 0
    outer loop
      vertex 10 -2.85317 1.87705
      vertex 10 -0.261512 -0.05
      vertex 10 -1.76336 3.37705
    endloop
  endfacet
  facet normal 1 -0 0
    outer loop
      vertex 10 -2.85317 0.0229494
      vertex 10 -0.261512 -0.05
      vertex 10 -2.85317 1.87705
    endloop
  endfacet
  facet normal 1 0 0
    outer loop
      vertex 10 -0.261512 -0.05
      vertex 10 -2.85317 0.0229494
      vertex 10 -2.80017 -0.05
    endloop
  endfacet
  facet normal 0 -0.809018 0.587784
    outer loop
      vertex 6 -2.85317 1.87705
      vertex 10 -1.76336 3.37705
      vertex 6 -1.76336 3.37705
    endloop
  endfacet
  facet normal 0 -0.809018 0.587784
    outer loop
      vertex 10 -1.76336 3.37705
      vertex 6 -2.85317 1.87705
      vertex 10 -2.85317 1.87705
    endloop
  endfacet
  facet normal 0 0.809018 0.587784
    outer loop
      vertex 10 2.85317 1.87705
      vertex 6 1.76336 3.37705
      vertex 10 1.76336 3.37705
    endloop
  endfacet
  facet normal 0 0.809018 0.587784
    outer loop
      vertex 6 1.76336 3.37705
      vertex 10 2.85317 1.87705
      vertex 6 2.85317 1.87705
    endloop
  endfacet
  facet normal 0 -1 0
    outer loop
      vertex 6 -2.85317 0.0229494
      vertex 10 -2.85317 1.87705
      vertex 6 -2.85317 1.87705
    endloop
  endfacet
  facet normal 0 -1 -0
    outer loop
      vertex 10 -2.85317 1.87705
      vertex 6 -2.85317 0.0229494
      vertex 10 -2.85317 0.0229494
    endloop
  endfacet
  facet normal -0 0.309017 0.951057
    outer loop
      vertex 6 1.76336 3.37705
      vertex 10 0 3.95
      vertex 10 1.76336 3.37705
    endloop
  endfacet
  facet normal 0 0.309017 0.951057
    outer loop
      vertex 10 0 3.95
      vertex 6 1.76336 3.37705
      vertex 6 0 3.95
    endloop
  endfacet
  facet normal 0 0 -1
    outer loop
      vertex 6 0.261512 -0.05
      vertex 10 2.80017 -0.05
      vertex 10 0.261512 -0.05
    endloop
  endfacet
  facet normal -0 0 -1
    outer loop
      vertex 10 2.80017 -0.05
      vertex 6 0.261512 -0.05
      vertex 6 2.80017 -0.05
    endloop
  endfacet
  facet normal 0 0 -1
    outer loop
      vertex 6 -2.80017 -0.05
      vertex 10 -0.261512 -0.05
      vertex 10 -2.80017 -0.05
    endloop
  endfacet
  facet normal -0 0 -1
    outer loop
      vertex 10 -0.261512 -0.05
      vertex 6 -2.80017 -0.05
      vertex 6 -0.261512 -0.05
    endloop
  endfacet
  facet normal 0 -0.951057 0.309015
    outer loop
      vertex 0 -1.04616 0.610082
      vertex 2 -0.646564 1.83992
      vertex 0 -0.646564 1.83992
    endloop
  endfacet
  facet normal 0 -0.951057 0.309015
    outer loop
      vertex 2 -0.646564 1.83992
      vertex 0 -1.04616 0.610082
      vertex 2 -1.04616 0.610082
    endloop
  endfacet
  facet normal 0 0.951057 0.309015
    outer loop
      vertex 2 1.04616 0.610082
      vertex 0 0.646564 1.83992
      vertex 2 0.646564 1.83992
    endloop
  endfacet
  facet normal 0 0.951057 0.309015
    outer loop
      vertex 0 0.646564 1.83992
      vertex 2 1.04616 0.610082
      vertex 0 1.04616 0.610082
    endloop
  endfacet
  facet normal 0 0.587786 -0.809017
    outer loop
      vertex 0 0 -0.149999
      vertex 2 1.04616 0.610082
      vertex 2 0 -0.149999
    endloop
  endfacet
  facet normal 0 0.587786 -0.809017
    outer loop
      vertex 2 1.04616 0.610082
      vertex 0 0 -0.149999
      vertex 0 1.04616 0.610082
    endloop
  endfacet
  facet normal -0 0 1
    outer loop
      vertex 0 0.646564 1.83992
      vertex 2 -0.646564 1.83992
      vertex 2 0.646564 1.83992
    endloop
  endfacet
  facet normal 0 0 1
    outer loop
      vertex 2 -0.646564 1.83992
      vertex 0 0.646564 1.83992
      vertex 0 -0.646564 1.83992
    endloop
  endfacet
  facet normal -1 0 0
    outer loop
      vertex 2 0 -0.24
      vertex 2 1.04616 0.610082
      vertex 2 1.13176 0.58227
    endloop
  endfacet
  facet normal -1 0 0
    outer loop
      vertex 2 0 -0.24
      vertex 2 0 -0.149999
      vertex 2 1.04616 0.610082
    endloop
  endfacet
  facet normal -1 0 0
    outer loop
      vertex 2 0 -0.24
      vertex 2 -1.04616 0.610082
      vertex 2 0 -0.149999
    endloop
  endfacet
  facet normal -1 0 -0
    outer loop
      vertex 2 -1.04616 0.610082
      vertex 2 0 -0.24
      vertex 2 -1.13176 0.58227
    endloop
  endfacet
  facet normal -1 0 0
    outer loop
      vertex 2 1.04616 0.610082
      vertex 2 0.699464 1.91273
      vertex 2 1.13176 0.58227
    endloop
  endfacet
  facet normal -1 0 0
    outer loop
      vertex 2 0.646564 1.83992
      vertex 2 0.699464 1.91273
      vertex 2 1.04616 0.610082
    endloop
  endfacet
  facet normal -1 0 0
    outer loop
      vertex 2 -0.646564 1.83992
      vertex 2 0.699464 1.91273
      vertex 2 0.646564 1.83992
    endloop
  endfacet
  facet normal -1 0 0
    outer loop
      vertex 2 -0.646564 1.83992
      vertex 2 -0.699464 1.91273
      vertex 2 0.699464 1.91273
    endloop
  endfacet
  facet normal -1 0 0
    outer loop
      vertex 2 -1.04616 0.610082
      vertex 2 -0.699464 1.91273
      vertex 2 -0.646564 1.83992
    endloop
  endfacet
  facet normal -1 0 0
    outer loop
      vertex 2 -0.699464 1.91273
      vertex 2 -1.04616 0.610082
      vertex 2 -1.13176 0.58227
    endloop
  endfacet
  facet normal 0 -0.587786 -0.809017
    outer loop
      vertex 0 -1.04616 0.610082
      vertex 2 0 -0.149999
      vertex 2 -1.04616 0.610082
    endloop
  endfacet
  facet normal -0 -0.587786 -0.809017
    outer loop
      vertex 2 0 -0.149999
      vertex 0 -1.04616 0.610082
      vertex 0 0 -0.149999
    endloop
  endfacet
  facet normal -1 0 0
    outer loop
      vertex 0 0 -0.149999
      vertex 0 0.646564 1.83992
      vertex 0 1.04616 0.610082
    endloop
  endfacet
  facet normal -1 0 0
    outer loop
      vertex 0 0 -0.149999
      vertex 0 -0.646564 1.83992
      vertex 0 0.646564 1.83992
    endloop
  endfacet
  facet normal -1 0 -0
    outer loop
      vertex 0 -0.646564 1.83992
      vertex 0 0 -0.149999
      vertex 0 -1.04616 0.610082
    endloop
  endfacet
  facet normal 0 -0.951058 0.309013
    outer loop
      vertex 2 -0.699464 1.91273
      vertex 4 -1.01227 0.95
      vertex 4 -0.699464 1.91273
    endloop
  endfacet
  facet normal 3.02278e-06 -0.951056 0.309019
    outer loop
      vertex 2 -1.13176 0.58227
      vertex 4 -1.01227 0.95
      vertex 2 -0.699464 1.91273
    endloop
  endfacet
  facet normal 0 -0.951051 0.309034
    outer loop
      vertex 6 -1.13176 0.58227
      vertex 4 -1.01227 0.95
      vertex 2 -1.13176 0.58227
    endloop
  endfacet
  facet normal 0 -0.951051 0.309034
    outer loop
      vertex 4 -1.01227 0.95
      vertex 6 -1.13176 0.58227
      vertex 6 -1.01227 0.95
    endloop
  endfacet
  facet normal 0 0.951051 0.309034
    outer loop
      vertex 6 1.01227 0.95
      vertex 6 1.13176 0.58227
      vertex 4 1.01227 0.95
    endloop
  endfacet
  facet normal 0 0.951058 0.309013
    outer loop
      vertex 4 1.01227 0.95
      vertex 2 0.699464 1.91273
      vertex 4 0.699464 1.91273
    endloop
  endfacet
  facet normal 3.02278e-06 0.951056 0.309019
    outer loop
      vertex 4 1.01227 0.95
      vertex 2 1.13176 0.58227
      vertex 2 0.699464 1.91273
    endloop
  endfacet
  facet normal -0 0.951051 0.309034
    outer loop
      vertex 2 1.13176 0.58227
      vertex 4 1.01227 0.95
      vertex 6 1.13176 0.58227
    endloop
  endfacet
  facet normal 0 0.587786 -0.809016
    outer loop
      vertex 10 0 -0.24
      vertex 6 0.261512 -0.05
      vertex 10 0.261512 -0.05
    endloop
  endfacet
  facet normal 0 0.587786 -0.809016
    outer loop
      vertex 2 0 -0.24
      vertex 6 0.261512 -0.05
      vertex 10 0 -0.24
    endloop
  endfacet
  facet normal 1.65798e-07 0.587784 -0.809018
    outer loop
      vertex 2 1.13176 0.58227
      vertex 6 0.261512 -0.05
      vertex 2 0 -0.24
    endloop
  endfacet
  facet normal 0 0.587784 -0.809018
    outer loop
      vertex 6 0.261512 -0.05
      vertex 2 1.13176 0.58227
      vertex 6 1.13176 0.58227
    endloop
  endfacet
  facet normal -0 0 1
    outer loop
      vertex 2 0.699464 1.91273
      vertex 4 -0.699464 1.91273
      vertex 4 0.699464 1.91273
    endloop
  endfacet
  facet normal 0 0 1
    outer loop
      vertex 4 -0.699464 1.91273
      vertex 2 0.699464 1.91273
      vertex 2 -0.699464 1.91273
    endloop
  endfacet
  facet normal -0 -0.587784 -0.809018
    outer loop
      vertex 6 -1.13176 0.58227
      vertex 2 -1.13176 0.58227
      vertex 6 -0.261512 -0.05
    endloop
  endfacet
  facet normal 0 -0.587786 -0.809016
    outer loop
      vertex 6 -0.261512 -0.05
      vertex 10 0 -0.24
      vertex 10 -0.261512 -0.05
    endloop
  endfacet
  facet normal 0 -0.587786 -0.809016
    outer loop
      vertex 6 -0.261512 -0.05
      vertex 2 0 -0.24
      vertex 10 0 -0.24
    endloop
  endfacet
  facet normal 1.65798e-07 -0.587784 -0.809018
    outer loop
      vertex 2 0 -0.24
      vertex 6 -0.261512 -0.05
      vertex 2 -1.13176 0.58227
    endloop
  endfacet
endsolid OpenSCAD_Model
