solid OpenSCAD_Model
  facet normal 0 0 -1
    outer loop
      vertex -3.5 -0.519615 3.8147e-07
      vertex 3.5 0.519615 3.8147e-07
      vertex 3.5 -0.519615 3.8147e-07
    endloop
  endfacet
  facet normal -0 0 -1
    outer loop
      vertex 3.5 0.519615 3.8147e-07
      vertex -3.5 -0.519615 3.8147e-07
      vertex -3.5 0.519615 3.8147e-07
    endloop
  endfacet
  facet normal 1 0 0
    outer loop
      vertex 3.5 0.519615 1.8
      vertex 3.5 0.519615 3.8147e-07
      vertex 3.5 1.03923 0.9
    endloop
  endfacet
  facet normal 1 -0 0
    outer loop
      vertex 3.5 -0.519615 1.8
      vertex 3.5 0.519615 3.8147e-07
      vertex 3.5 0.519615 1.8
    endloop
  endfacet
  facet normal 1 0 0
    outer loop
      vertex 3.5 -0.519615 1.8
      vertex 3.5 -0.519615 3.8147e-07
      vertex 3.5 0.519615 3.8147e-07
    endloop
  endfacet
  facet normal 1 0 -0
    outer loop
      vertex 3.5 -0.519615 3.8147e-07
      vertex 3.5 -0.519615 1.8
      vertex 3.5 -1.03923 0.9
    endloop
  endfacet
  facet normal -1 0 0
    outer loop
      vertex -3.5 0.519615 3.8147e-07
      vertex -3.5 0.519615 1.8
      vertex -3.5 1.03923 0.9
    endloop
  endfacet
  facet normal -1 0 0
    outer loop
      vertex -3.5 -0.519615 3.8147e-07
      vertex -3.5 0.519615 1.8
      vertex -3.5 0.519615 3.8147e-07
    endloop
  endfacet
  facet normal -1 0 0
    outer loop
      vertex -3.5 -0.519615 3.8147e-07
      vertex -3.5 -0.519615 1.8
      vertex -3.5 0.519615 1.8
    endloop
  endfacet
  facet normal -1 0 -0
    outer loop
      vertex -3.5 -0.519615 1.8
      vertex -3.5 -0.519615 3.8147e-07
      vertex -3.5 -1.03923 0.9
    endloop
  endfacet
  facet normal -0 0 1
    outer loop
      vertex -3.5 0.519615 1.8
      vertex 3.5 -0.519615 1.8
      vertex 3.5 0.519615 1.8
    endloop
  endfacet
  facet normal 0 0 1
    outer loop
      vertex 3.5 -0.519615 1.8
      vertex -3.5 0.519615 1.8
      vertex -3.5 -0.519615 1.8
    endloop
  endfacet
  facet normal 0 0.866025 -0.5
    outer loop
      vertex 3.5 0.519615 3.8147e-07
      vertex -3.5 1.03923 0.9
      vertex 3.5 1.03923 0.9
    endloop
  endfacet
  facet normal 0 0.866025 -0.5
    outer loop
      vertex -3.5 1.03923 0.9
      vertex 3.5 0.519615 3.8147e-07
      vertex -3.5 0.519615 3.8147e-07
    endloop
  endfacet
  facet normal 0 -0.866026 0.5
    outer loop
      vertex -3.5 -1.03923 0.9
      vertex 3.5 -0.519615 1.8
      vertex -3.5 -0.519615 1.8
    endloop
  endfacet
  facet normal 0 -0.866026 0.5
    outer loop
      vertex 3.5 -0.519615 1.8
      vertex -3.5 -1.03923 0.9
      vertex 3.5 -1.03923 0.9
    endloop
  endfacet
  facet normal 0 -0.866025 -0.5
    outer loop
      vertex -3.5 -0.519615 3.8147e-07
      vertex 3.5 -1.03923 0.9
      vertex -3.5 -1.03923 0.9
    endloop
  endfacet
  facet normal 0 -0.866025 -0.5
    outer loop
      vertex 3.5 -1.03923 0.9
      vertex -3.5 -0.519615 3.8147e-07
      vertex 3.5 -0.519615 3.8147e-07
    endloop
  endfacet
  facet normal 0 0.866026 0.5
    outer loop
      vertex 3.5 1.03923 0.9
      vertex -3.5 0.519615 1.8
      vertex 3.5 0.519615 1.8
    endloop
  endfacet
  facet normal 0 0.866026 0.5
    outer loop
      vertex -3.5 0.519615 1.8
      vertex 3.5 1.03923 0.9
      vertex -3.5 1.03923 0.9
    endloop
  endfacet
endsolid OpenSCAD_Model
