solid OpenSCAD_Model
  facet normal -0.309019 -0.951056 0
    outer loop
      vertex -0.970819 -0.705342 2
      vertex 0.37082 -1.14127 4
      vertex -0.970819 -0.705342 4
    endloop
  endfacet
  facet normal -0.309019 -0.951056 -0
    outer loop
      vertex 0.37082 -1.14127 4
      vertex -0.970819 -0.705342 2
      vertex 0.37082 -1.14127 2
    endloop
  endfacet
  facet normal -0.309019 0.951056 0
    outer loop
      vertex 0.37082 1.14127 2
      vertex -0.970819 0.705342 4
      vertex 0.37082 1.14127 4
    endloop
  endfacet
  facet normal -0.309019 0.951056 0
    outer loop
      vertex -0.970819 0.705342 4
      vertex 0.37082 1.14127 2
      vertex -0.970819 0.705342 2
    endloop
  endfacet
  facet normal 0.809017 0.587785 0
    outer loop
      vertex 1.2 0 4
      vertex 0.37082 1.14127 2
      vertex 0.37082 1.14127 4
    endloop
  endfacet
  facet normal 0.809017 0.587785 0
    outer loop
      vertex 0.37082 1.14127 2
      vertex 1.2 0 4
      vertex 1.2 0 2
    endloop
  endfacet
  facet normal -1 0 0
    outer loop
      vertex -0.970819 -0.705342 2
      vertex -0.970819 0.705342 4
      vertex -0.970819 0.705342 2
    endloop
  endfacet
  facet normal -1 -0 0
    outer loop
      vertex -0.970819 0.705342 4
      vertex -0.970819 -0.705342 2
      vertex -0.970819 -0.705342 4
    endloop
  endfacet
  facet normal 0 0 1
    outer loop
      vertex 0.37082 1.14127 4
      vertex 0.37082 -1.14127 4
      vertex 1.2 0 4
    endloop
  endfacet
  facet normal -0 0 1
    outer loop
      vertex -0.970819 0.705342 4
      vertex 0.37082 -1.14127 4
      vertex 0.37082 1.14127 4
    endloop
  endfacet
  facet normal 0 0 1
    outer loop
      vertex 0.37082 -1.14127 4
      vertex -0.970819 0.705342 4
      vertex -0.970819 -0.705342 4
    endloop
  endfacet
  facet normal 0.809017 -0.587785 0
    outer loop
      vertex 0.37082 -1.14127 4
      vertex 1.2 0 2
      vertex 1.2 0 4
    endloop
  endfacet
  facet normal 0.809017 -0.587785 0
    outer loop
      vertex 1.2 0 2
      vertex 0.37082 -1.14127 4
      vertex 0.37082 -1.14127 2
    endloop
  endfacet
  facet normal 0 0 -1
    outer loop
      vertex 1.24698 -1.56366 0
      vertex 1.24698 1.56366 0
      vertex 2 0 0
    endloop
  endfacet
  facet normal 0 0 -1
    outer loop
      vertex -0.445042 -1.94986 0
      vertex 1.24698 1.56366 0
      vertex 1.24698 -1.56366 0
    endloop
  endfacet
  facet normal 0 0 -1
    outer loop
      vertex -0.445042 -1.94986 0
      vertex -0.445042 1.94986 0
      vertex 1.24698 1.56366 0
    endloop
  endfacet
  facet normal 0 0 -1
    outer loop
      vertex -1.80194 -0.867767 0
      vertex -0.445042 1.94986 0
      vertex -0.445042 -1.94986 0
    endloop
  endfacet
  facet normal 0 0 -1
    outer loop
      vertex -0.445042 1.94986 0
      vertex -1.80194 -0.867767 0
      vertex -1.80194 0.867767 0
    endloop
  endfacet
  facet normal 0.222525 0.974927 -0
    outer loop
      vertex 1.24698 1.56366 0
      vertex -0.445042 1.94986 2
      vertex 1.24698 1.56366 2
    endloop
  endfacet
  facet normal 0.222525 0.974927 0
    outer loop
      vertex -0.445042 1.94986 2
      vertex 1.24698 1.56366 0
      vertex -0.445042 1.94986 0
    endloop
  endfacet
  facet normal 0.900969 0.433884 0
    outer loop
      vertex 2 0 2
      vertex 1.24698 1.56366 0
      vertex 1.24698 1.56366 2
    endloop
  endfacet
  facet normal 0.900969 0.433884 0
    outer loop
      vertex 1.24698 1.56366 0
      vertex 2 0 2
      vertex 2 0 0
    endloop
  endfacet
  facet normal 0.900969 -0.433884 0
    outer loop
      vertex 1.24698 -1.56366 2
      vertex 2 0 0
      vertex 2 0 2
    endloop
  endfacet
  facet normal 0.900969 -0.433884 0
    outer loop
      vertex 2 0 0
      vertex 1.24698 -1.56366 2
      vertex 1.24698 -1.56366 0
    endloop
  endfacet
  facet normal -0.623491 0.781831 0
    outer loop
      vertex -0.445042 1.94986 0
      vertex -1.80194 0.867767 2
      vertex -0.445042 1.94986 2
    endloop
  endfacet
  facet normal -0.623491 0.781831 0
    outer loop
      vertex -1.80194 0.867767 2
      vertex -0.445042 1.94986 0
      vertex -1.80194 0.867767 0
    endloop
  endfacet
  facet normal 0 0 1
    outer loop
      vertex 1.2 0 2
      vertex 2 0 2
      vertex 1.24698 1.56366 2
    endloop
  endfacet
  facet normal 0 0 1
    outer loop
      vertex 2 0 2
      vertex 1.2 0 2
      vertex 1.24698 -1.56366 2
    endloop
  endfacet
  facet normal 0 0 1
    outer loop
      vertex 1.24698 1.56366 2
      vertex 0.37082 1.14127 2
      vertex 1.2 0 2
    endloop
  endfacet
  facet normal 0 0 1
    outer loop
      vertex -0.445042 1.94986 2
      vertex 0.37082 1.14127 2
      vertex 1.24698 1.56366 2
    endloop
  endfacet
  facet normal 0 0 1
    outer loop
      vertex -0.445042 1.94986 2
      vertex -0.970819 0.705342 2
      vertex 0.37082 1.14127 2
    endloop
  endfacet
  facet normal 0 0 1
    outer loop
      vertex -0.970819 0.705342 2
      vertex -1.80194 0.867767 2
      vertex -0.970819 -0.705342 2
    endloop
  endfacet
  facet normal -0 0 1
    outer loop
      vertex -1.80194 0.867767 2
      vertex -0.970819 0.705342 2
      vertex -0.445042 1.94986 2
    endloop
  endfacet
  facet normal -0 0 1
    outer loop
      vertex 0.37082 -1.14127 2
      vertex 1.24698 -1.56366 2
      vertex 1.2 0 2
    endloop
  endfacet
  facet normal 0 0 1
    outer loop
      vertex 0.37082 -1.14127 2
      vertex -0.445042 -1.94986 2
      vertex 1.24698 -1.56366 2
    endloop
  endfacet
  facet normal 0 0 1
    outer loop
      vertex -0.970819 -0.705342 2
      vertex -0.445042 -1.94986 2
      vertex 0.37082 -1.14127 2
    endloop
  endfacet
  facet normal 0 0 1
    outer loop
      vertex -1.80194 -0.867767 2
      vertex -0.970819 -0.705342 2
      vertex -1.80194 0.867767 2
    endloop
  endfacet
  facet normal 0 0 1
    outer loop
      vertex -0.970819 -0.705342 2
      vertex -1.80194 -0.867767 2
      vertex -0.445042 -1.94986 2
    endloop
  endfacet
  facet normal -0.623491 -0.781831 0
    outer loop
      vertex -1.80194 -0.867767 0
      vertex -0.445042 -1.94986 2
      vertex -1.80194 -0.867767 2
    endloop
  endfacet
  facet normal -0.623491 -0.781831 -0
    outer loop
      vertex -0.445042 -1.94986 2
      vertex -1.80194 -0.867767 0
      vertex -0.445042 -1.94986 0
    endloop
  endfacet
  facet normal 0.222525 -0.974927 0
    outer loop
      vertex -0.445042 -1.94986 0
      vertex 1.24698 -1.56366 2
      vertex -0.445042 -1.94986 2
    endloop
  endfacet
  facet normal 0.222525 -0.974927 0
    outer loop
      vertex 1.24698 -1.56366 2
      vertex -0.445042 -1.94986 0
      vertex 1.24698 -1.56366 0
    endloop
  endfacet
  facet normal -1 0 0
    outer loop
      vertex -1.80194 -0.867767 0
      vertex -1.80194 0.867767 2
      vertex -1.80194 0.867767 0
    endloop
  endfacet
  facet normal -1 -0 0
    outer loop
      vertex -1.80194 0.867767 2
      vertex -1.80194 -0.867767 0
      vertex -1.80194 -0.867767 2
    endloop
  endfacet
endsolid OpenSCAD_Model
