solid OpenSCAD_Model
  facet normal -0.309014 -0.951058 0
    outer loop
      vertex -0.930369 -0.675953 4
      vertex 0.355369 -1.09371 7
      vertex -0.930369 -0.675953 7
    endloop
  endfacet
  facet normal -0.309014 -0.951058 -0
    outer loop
      vertex 0.355369 -1.09371 7
      vertex -0.930369 -0.675953 4
      vertex 0.355369 -1.09371 4
    endloop
  endfacet
  facet normal -0.309014 0.951058 0
    outer loop
      vertex 0.355369 1.09371 4
      vertex -0.930369 0.675953 7
      vertex 0.355369 1.09371 7
    endloop
  endfacet
  facet normal -0.309014 0.951058 0
    outer loop
      vertex -0.930369 0.675953 7
      vertex 0.355369 1.09371 4
      vertex -0.930369 0.675953 4
    endloop
  endfacet
  facet normal 0.809016 0.587787 0
    outer loop
      vertex 1.15 0 7
      vertex 0.355369 1.09371 4
      vertex 0.355369 1.09371 7
    endloop
  endfacet
  facet normal 0.809016 0.587787 0
    outer loop
      vertex 0.355369 1.09371 4
      vertex 1.15 0 7
      vertex 1.15 0 4
    endloop
  endfacet
  facet normal -1 0 0
    outer loop
      vertex -0.930369 -0.675953 4
      vertex -0.930369 0.675953 7
      vertex -0.930369 0.675953 4
    endloop
  endfacet
  facet normal -1 -0 0
    outer loop
      vertex -0.930369 0.675953 7
      vertex -0.930369 -0.675953 4
      vertex -0.930369 -0.675953 7
    endloop
  endfacet
  facet normal 0 0 1
    outer loop
      vertex 0.355369 1.09371 7
      vertex 0.355369 -1.09371 7
      vertex 1.15 0 7
    endloop
  endfacet
  facet normal -0 0 1
    outer loop
      vertex -0.930369 0.675953 7
      vertex 0.355369 -1.09371 7
      vertex 0.355369 1.09371 7
    endloop
  endfacet
  facet normal 0 0 1
    outer loop
      vertex 0.355369 -1.09371 7
      vertex -0.930369 0.675953 7
      vertex -0.930369 -0.675953 7
    endloop
  endfacet
  facet normal 0.809016 -0.587787 0
    outer loop
      vertex 0.355369 -1.09371 7
      vertex 1.15 0 4
      vertex 1.15 0 7
    endloop
  endfacet
  facet normal 0.809016 -0.587787 0
    outer loop
      vertex 1.15 0 4
      vertex 0.355369 -1.09371 7
      vertex 0.355369 -1.09371 4
    endloop
  endfacet
  facet normal 0 0 -1
    outer loop
      vertex 0.355369 -1.09371 4
      vertex 0.5 0 4
      vertex 1.15 0 4
    endloop
  endfacet
  facet normal 0 0 -1
    outer loop
      vertex 0.355369 -1.09371 4
      vertex 0.154508 -0.475528 4
      vertex 0.5 0 4
    endloop
  endfacet
  facet normal 0 0 -1
    outer loop
      vertex 0.355369 -1.09371 4
      vertex -0.404508 -0.293892 4
      vertex 0.154508 -0.475528 4
    endloop
  endfacet
  facet normal -0 0 -1
    outer loop
      vertex -0.404508 -0.293892 4
      vertex -0.930369 -0.675953 4
      vertex -0.404508 0.293892 4
    endloop
  endfacet
  facet normal 0 0 -1
    outer loop
      vertex -0.930369 -0.675953 4
      vertex -0.404508 -0.293892 4
      vertex 0.355369 -1.09371 4
    endloop
  endfacet
  facet normal 0 0 -1
    outer loop
      vertex 0.5 0 4
      vertex 0.355369 1.09371 4
      vertex 1.15 0 4
    endloop
  endfacet
  facet normal 0 0 -1
    outer loop
      vertex 0.154508 0.475528 4
      vertex 0.355369 1.09371 4
      vertex 0.5 0 4
    endloop
  endfacet
  facet normal 0 0 -1
    outer loop
      vertex -0.404508 0.293892 4
      vertex 0.355369 1.09371 4
      vertex 0.154508 0.475528 4
    endloop
  endfacet
  facet normal 0 0 -1
    outer loop
      vertex -0.404508 0.293892 4
      vertex -0.930369 0.675953 4
      vertex 0.355369 1.09371 4
    endloop
  endfacet
  facet normal 0 0 -1
    outer loop
      vertex -0.930369 0.675953 4
      vertex -0.404508 0.293892 4
      vertex -0.930369 -0.675953 4
    endloop
  endfacet
  facet normal -0.309018 -0.951056 0
    outer loop
      vertex -0.404508 -0.293892 1
      vertex 0.154508 -0.475528 4
      vertex -0.404508 -0.293892 4
    endloop
  endfacet
  facet normal -0.309018 -0.951056 -0
    outer loop
      vertex 0.154508 -0.475528 4
      vertex -0.404508 -0.293892 1
      vertex 0.154508 -0.475528 1
    endloop
  endfacet
  facet normal -0.309018 0.951056 0
    outer loop
      vertex 0.154508 0.475528 1
      vertex -0.404508 0.293892 4
      vertex 0.154508 0.475528 4
    endloop
  endfacet
  facet normal -0.309018 0.951056 0
    outer loop
      vertex -0.404508 0.293892 4
      vertex 0.154508 0.475528 1
      vertex -0.404508 0.293892 1
    endloop
  endfacet
  facet normal 0.809016 0.587786 0
    outer loop
      vertex 0.5 0 4
      vertex 0.154508 0.475528 1
      vertex 0.154508 0.475528 4
    endloop
  endfacet
  facet normal 0.809016 0.587786 0
    outer loop
      vertex 0.154508 0.475528 1
      vertex 0.5 0 4
      vertex 0.5 0 1
    endloop
  endfacet
  facet normal -1 0 0
    outer loop
      vertex -0.404508 -0.293892 1
      vertex -0.404508 0.293892 4
      vertex -0.404508 0.293892 1
    endloop
  endfacet
  facet normal -1 -0 0
    outer loop
      vertex -0.404508 0.293892 4
      vertex -0.404508 -0.293892 1
      vertex -0.404508 -0.293892 4
    endloop
  endfacet
  facet normal 0.809016 -0.587786 0
    outer loop
      vertex 0.154508 -0.475528 4
      vertex 0.5 0 1
      vertex 0.5 0 4
    endloop
  endfacet
  facet normal 0.809016 -0.587786 0
    outer loop
      vertex 0.5 0 1
      vertex 0.154508 -0.475528 4
      vertex 0.154508 -0.475528 1
    endloop
  endfacet
  facet normal 0 0 -1
    outer loop
      vertex 1.24698 -1.56366 0
      vertex 1.24698 1.56366 0
      vertex 2 0 0
    endloop
  endfacet
  facet normal 0 0 -1
    outer loop
      vertex -0.445042 -1.94986 0
      vertex 1.24698 1.56366 0
      vertex 1.24698 -1.56366 0
    endloop
  endfacet
  facet normal 0 0 -1
    outer loop
      vertex -0.445042 -1.94986 0
      vertex -0.445042 1.94986 0
      vertex 1.24698 1.56366 0
    endloop
  endfacet
  facet normal 0 0 -1
    outer loop
      vertex -1.80194 -0.867767 0
      vertex -0.445042 1.94986 0
      vertex -0.445042 -1.94986 0
    endloop
  endfacet
  facet normal 0 0 -1
    outer loop
      vertex -0.445042 1.94986 0
      vertex -1.80194 -0.867767 0
      vertex -1.80194 0.867767 0
    endloop
  endfacet
  facet normal 0.222525 0.974927 -0
    outer loop
      vertex 1.24698 1.56366 0
      vertex -0.445042 1.94986 1
      vertex 1.24698 1.56366 1
    endloop
  endfacet
  facet normal 0.222525 0.974927 0
    outer loop
      vertex -0.445042 1.94986 1
      vertex 1.24698 1.56366 0
      vertex -0.445042 1.94986 0
    endloop
  endfacet
  facet normal 0.900969 0.433884 0
    outer loop
      vertex 2 0 1
      vertex 1.24698 1.56366 0
      vertex 1.24698 1.56366 1
    endloop
  endfacet
  facet normal 0.900969 0.433884 0
    outer loop
      vertex 1.24698 1.56366 0
      vertex 2 0 1
      vertex 2 0 0
    endloop
  endfacet
  facet normal 0.900969 -0.433884 0
    outer loop
      vertex 1.24698 -1.56366 1
      vertex 2 0 0
      vertex 2 0 1
    endloop
  endfacet
  facet normal 0.900969 -0.433884 0
    outer loop
      vertex 2 0 0
      vertex 1.24698 -1.56366 1
      vertex 1.24698 -1.56366 0
    endloop
  endfacet
  facet normal 0 0 1
    outer loop
      vertex 0.5 0 1
      vertex 2 0 1
      vertex 1.24698 1.56366 1
    endloop
  endfacet
  facet normal 0 0 1
    outer loop
      vertex 2 0 1
      vertex 0.5 0 1
      vertex 1.24698 -1.56366 1
    endloop
  endfacet
  facet normal 0 0 1
    outer loop
      vertex 1.24698 1.56366 1
      vertex 0.154508 0.475528 1
      vertex 0.5 0 1
    endloop
  endfacet
  facet normal 0 0 1
    outer loop
      vertex -0.445042 1.94986 1
      vertex 0.154508 0.475528 1
      vertex 1.24698 1.56366 1
    endloop
  endfacet
  facet normal -0 0 1
    outer loop
      vertex -1.80194 0.867767 1
      vertex -0.404508 0.293892 1
      vertex -0.445042 1.94986 1
    endloop
  endfacet
  facet normal 0 0 1
    outer loop
      vertex 0.154508 0.475528 1
      vertex -0.445042 1.94986 1
      vertex -0.404508 0.293892 1
    endloop
  endfacet
  facet normal -0 0 1
    outer loop
      vertex 0.154508 -0.475528 1
      vertex 1.24698 -1.56366 1
      vertex 0.5 0 1
    endloop
  endfacet
  facet normal 0 0 1
    outer loop
      vertex -0.445042 -1.94986 1
      vertex 0.154508 -0.475528 1
      vertex -0.404508 -0.293892 1
    endloop
  endfacet
  facet normal 0 0 1
    outer loop
      vertex 0.154508 -0.475528 1
      vertex -0.445042 -1.94986 1
      vertex 1.24698 -1.56366 1
    endloop
  endfacet
  facet normal 0 0 1
    outer loop
      vertex -0.404508 0.293892 1
      vertex -1.80194 0.867767 1
      vertex -0.404508 -0.293892 1
    endloop
  endfacet
  facet normal 0 0 1
    outer loop
      vertex -1.80194 -0.867767 1
      vertex -0.404508 -0.293892 1
      vertex -1.80194 0.867767 1
    endloop
  endfacet
  facet normal 0 0 1
    outer loop
      vertex -0.404508 -0.293892 1
      vertex -1.80194 -0.867767 1
      vertex -0.445042 -1.94986 1
    endloop
  endfacet
  facet normal -0.623491 -0.781831 0
    outer loop
      vertex -1.80194 -0.867767 0
      vertex -0.445042 -1.94986 1
      vertex -1.80194 -0.867767 1
    endloop
  endfacet
  facet normal -0.623491 -0.781831 -0
    outer loop
      vertex -0.445042 -1.94986 1
      vertex -1.80194 -0.867767 0
      vertex -0.445042 -1.94986 0
    endloop
  endfacet
  facet normal 0.222525 -0.974927 0
    outer loop
      vertex -0.445042 -1.94986 0
      vertex 1.24698 -1.56366 1
      vertex -0.445042 -1.94986 1
    endloop
  endfacet
  facet normal 0.222525 -0.974927 0
    outer loop
      vertex 1.24698 -1.56366 1
      vertex -0.445042 -1.94986 0
      vertex 1.24698 -1.56366 0
    endloop
  endfacet
  facet normal -1 0 0
    outer loop
      vertex -1.80194 -0.867767 0
      vertex -1.80194 0.867767 1
      vertex -1.80194 0.867767 0
    endloop
  endfacet
  facet normal -1 -0 0
    outer loop
      vertex -1.80194 0.867767 1
      vertex -1.80194 -0.867767 0
      vertex -1.80194 -0.867767 1
    endloop
  endfacet
  facet normal -0.623491 0.781831 0
    outer loop
      vertex -0.445042 1.94986 0
      vertex -1.80194 0.867767 1
      vertex -0.445042 1.94986 1
    endloop
  endfacet
  facet normal -0.623491 0.781831 0
    outer loop
      vertex -1.80194 0.867767 1
      vertex -0.445042 1.94986 0
      vertex -1.80194 0.867767 0
    endloop
  endfacet
endsolid OpenSCAD_Model
