solid OpenSCAD_Model
  facet normal -0.309017 -0.951056 0
    outer loop
      vertex -0.48541 -0.352671 9.4
      vertex 0.18541 -0.570634 10.3
      vertex -0.48541 -0.352671 10.3
    endloop
  endfacet
  facet normal -0.309017 -0.951056 -0
    outer loop
      vertex 0.18541 -0.570634 10.3
      vertex -0.48541 -0.352671 9.4
      vertex 0.18541 -0.570634 9.4
    endloop
  endfacet
  facet normal -0.309017 0.951056 0
    outer loop
      vertex 0.18541 0.570634 9.4
      vertex -0.48541 0.352671 10.3
      vertex 0.18541 0.570634 10.3
    endloop
  endfacet
  facet normal -0.309017 0.951056 0
    outer loop
      vertex -0.48541 0.352671 10.3
      vertex 0.18541 0.570634 9.4
      vertex -0.48541 0.352671 9.4
    endloop
  endfacet
  facet normal 0.809018 0.587784 0
    outer loop
      vertex 0.599999 0 10.3
      vertex 0.18541 0.570634 9.4
      vertex 0.18541 0.570634 10.3
    endloop
  endfacet
  facet normal 0.809018 0.587784 0
    outer loop
      vertex 0.18541 0.570634 9.4
      vertex 0.599999 0 10.3
      vertex 0.599999 0 9.4
    endloop
  endfacet
  facet normal -1 0 0
    outer loop
      vertex -0.48541 -0.352671 9.4
      vertex -0.48541 0.352671 10.3
      vertex -0.48541 0.352671 9.4
    endloop
  endfacet
  facet normal -1 -0 0
    outer loop
      vertex -0.48541 0.352671 10.3
      vertex -0.48541 -0.352671 9.4
      vertex -0.48541 -0.352671 10.3
    endloop
  endfacet
  facet normal 0 0 1
    outer loop
      vertex 0.18541 0.570634 10.3
      vertex 0.18541 -0.570634 10.3
      vertex 0.599999 0 10.3
    endloop
  endfacet
  facet normal -0 0 1
    outer loop
      vertex -0.48541 0.352671 10.3
      vertex 0.18541 -0.570634 10.3
      vertex 0.18541 0.570634 10.3
    endloop
  endfacet
  facet normal 0 0 1
    outer loop
      vertex 0.18541 -0.570634 10.3
      vertex -0.48541 0.352671 10.3
      vertex -0.48541 -0.352671 10.3
    endloop
  endfacet
  facet normal 0.809018 -0.587784 0
    outer loop
      vertex 0.18541 -0.570634 10.3
      vertex 0.599999 0 9.4
      vertex 0.599999 0 10.3
    endloop
  endfacet
  facet normal 0.809018 -0.587784 0
    outer loop
      vertex 0.599999 0 9.4
      vertex 0.18541 -0.570634 10.3
      vertex 0.18541 -0.570634 9.4
    endloop
  endfacet
  facet normal 0 0 -1
    outer loop
      vertex 1.24698 -1.56366 0
      vertex 1.24698 1.56366 0
      vertex 2 0 0
    endloop
  endfacet
  facet normal 0 0 -1
    outer loop
      vertex -0.445042 -1.94986 0
      vertex 1.24698 1.56366 0
      vertex 1.24698 -1.56366 0
    endloop
  endfacet
  facet normal 0 0 -1
    outer loop
      vertex -0.445042 -1.94986 0
      vertex -0.445042 1.94986 0
      vertex 1.24698 1.56366 0
    endloop
  endfacet
  facet normal 0 0 -1
    outer loop
      vertex -1.80194 -0.867767 0
      vertex -0.445042 1.94986 0
      vertex -0.445042 -1.94986 0
    endloop
  endfacet
  facet normal 0 0 -1
    outer loop
      vertex -0.445042 1.94986 0
      vertex -1.80194 -0.867767 0
      vertex -1.80194 0.867767 0
    endloop
  endfacet
  facet normal -0.309019 -0.951056 0
    outer loop
      vertex -0.970819 -0.705342 7
      vertex 0.37082 -1.14127 9.4
      vertex -0.970819 -0.705342 9.4
    endloop
  endfacet
  facet normal -0.309019 -0.951056 -0
    outer loop
      vertex 0.37082 -1.14127 9.4
      vertex -0.970819 -0.705342 7
      vertex 0.37082 -1.14127 7
    endloop
  endfacet
  facet normal -0.309019 0.951056 0
    outer loop
      vertex 0.37082 1.14127 7
      vertex -0.970819 0.705342 9.4
      vertex 0.37082 1.14127 9.4
    endloop
  endfacet
  facet normal -0.309019 0.951056 0
    outer loop
      vertex -0.970819 0.705342 9.4
      vertex 0.37082 1.14127 7
      vertex -0.970819 0.705342 7
    endloop
  endfacet
  facet normal 0.809017 0.587785 0
    outer loop
      vertex 1.2 0 9.4
      vertex 0.37082 1.14127 7
      vertex 0.37082 1.14127 9.4
    endloop
  endfacet
  facet normal 0.809017 0.587785 0
    outer loop
      vertex 0.37082 1.14127 7
      vertex 1.2 0 9.4
      vertex 1.2 0 7
    endloop
  endfacet
  facet normal -1 0 0
    outer loop
      vertex -0.970819 -0.705342 7
      vertex -0.970819 0.705342 9.4
      vertex -0.970819 0.705342 7
    endloop
  endfacet
  facet normal -1 -0 0
    outer loop
      vertex -0.970819 0.705342 9.4
      vertex -0.970819 -0.705342 7
      vertex -0.970819 -0.705342 9.4
    endloop
  endfacet
  facet normal 0 0 1
    outer loop
      vertex 0.37082 1.14127 9.4
      vertex 0.599999 0 9.4
      vertex 1.2 0 9.4
    endloop
  endfacet
  facet normal 0 0 1
    outer loop
      vertex 0.37082 1.14127 9.4
      vertex 0.18541 0.570634 9.4
      vertex 0.599999 0 9.4
    endloop
  endfacet
  facet normal 0 0 1
    outer loop
      vertex 0.37082 1.14127 9.4
      vertex -0.48541 0.352671 9.4
      vertex 0.18541 0.570634 9.4
    endloop
  endfacet
  facet normal 0 0 1
    outer loop
      vertex -0.48541 0.352671 9.4
      vertex -0.970819 0.705342 9.4
      vertex -0.48541 -0.352671 9.4
    endloop
  endfacet
  facet normal -0 0 1
    outer loop
      vertex -0.970819 0.705342 9.4
      vertex -0.48541 0.352671 9.4
      vertex 0.37082 1.14127 9.4
    endloop
  endfacet
  facet normal -0 0 1
    outer loop
      vertex 0.599999 0 9.4
      vertex 0.37082 -1.14127 9.4
      vertex 1.2 0 9.4
    endloop
  endfacet
  facet normal -0 0 1
    outer loop
      vertex 0.18541 -0.570634 9.4
      vertex 0.37082 -1.14127 9.4
      vertex 0.599999 0 9.4
    endloop
  endfacet
  facet normal 0 0 1
    outer loop
      vertex -0.48541 -0.352671 9.4
      vertex 0.37082 -1.14127 9.4
      vertex 0.18541 -0.570634 9.4
    endloop
  endfacet
  facet normal 0 0 1
    outer loop
      vertex -0.48541 -0.352671 9.4
      vertex -0.970819 -0.705342 9.4
      vertex 0.37082 -1.14127 9.4
    endloop
  endfacet
  facet normal 0 0 1
    outer loop
      vertex -0.970819 -0.705342 9.4
      vertex -0.48541 -0.352671 9.4
      vertex -0.970819 0.705342 9.4
    endloop
  endfacet
  facet normal 0.809017 -0.587785 0
    outer loop
      vertex 0.37082 -1.14127 9.4
      vertex 1.2 0 7
      vertex 1.2 0 9.4
    endloop
  endfacet
  facet normal 0.809017 -0.587785 0
    outer loop
      vertex 1.2 0 7
      vertex 0.37082 -1.14127 9.4
      vertex 0.37082 -1.14127 7
    endloop
  endfacet
  facet normal 0 -1 0
    outer loop
      vertex -0.799999 -1.38564 4
      vertex 0.799999 -1.38564 7
      vertex -0.799999 -1.38564 7
    endloop
  endfacet
  facet normal 0 -1 -0
    outer loop
      vertex 0.799999 -1.38564 7
      vertex -0.799999 -1.38564 4
      vertex 0.799999 -1.38564 4
    endloop
  endfacet
  facet normal 0.866025 -0.500001 0
    outer loop
      vertex 0.799999 -1.38564 7
      vertex 1.6 0 4
      vertex 1.6 0 7
    endloop
  endfacet
  facet normal 0.866025 -0.500001 0
    outer loop
      vertex 1.6 0 4
      vertex 0.799999 -1.38564 7
      vertex 0.799999 -1.38564 4
    endloop
  endfacet
  facet normal 0 1 -0
    outer loop
      vertex 0.799999 1.38564 4
      vertex -0.799999 1.38564 7
      vertex 0.799999 1.38564 7
    endloop
  endfacet
  facet normal 0 1 0
    outer loop
      vertex -0.799999 1.38564 7
      vertex 0.799999 1.38564 4
      vertex -0.799999 1.38564 4
    endloop
  endfacet
  facet normal 0.866025 0.500001 0
    outer loop
      vertex 1.6 0 7
      vertex 0.799999 1.38564 4
      vertex 0.799999 1.38564 7
    endloop
  endfacet
  facet normal 0.866025 0.500001 0
    outer loop
      vertex 0.799999 1.38564 4
      vertex 1.6 0 7
      vertex 1.6 0 4
    endloop
  endfacet
  facet normal -0.866025 0.500001 0
    outer loop
      vertex -1.6 0 4
      vertex -0.799999 1.38564 7
      vertex -0.799999 1.38564 4
    endloop
  endfacet
  facet normal -0.866025 0.500001 0
    outer loop
      vertex -0.799999 1.38564 7
      vertex -1.6 0 4
      vertex -1.6 0 7
    endloop
  endfacet
  facet normal -0.866025 -0.500001 0
    outer loop
      vertex -0.799999 -1.38564 4
      vertex -1.6 0 7
      vertex -1.6 0 4
    endloop
  endfacet
  facet normal -0.866025 -0.500001 0
    outer loop
      vertex -1.6 0 7
      vertex -0.799999 -1.38564 4
      vertex -0.799999 -1.38564 7
    endloop
  endfacet
  facet normal 0 0 1
    outer loop
      vertex 0.799999 1.38564 7
      vertex 1.2 0 7
      vertex 1.6 0 7
    endloop
  endfacet
  facet normal 0 0 1
    outer loop
      vertex 0.799999 1.38564 7
      vertex 0.37082 1.14127 7
      vertex 1.2 0 7
    endloop
  endfacet
  facet normal -0 0 1
    outer loop
      vertex -0.799999 1.38564 7
      vertex 0.37082 1.14127 7
      vertex 0.799999 1.38564 7
    endloop
  endfacet
  facet normal 0 0 1
    outer loop
      vertex -0.799999 1.38564 7
      vertex -0.970819 0.705342 7
      vertex 0.37082 1.14127 7
    endloop
  endfacet
  facet normal 0 0 1
    outer loop
      vertex -0.970819 0.705342 7
      vertex -1.6 0 7
      vertex -0.970819 -0.705342 7
    endloop
  endfacet
  facet normal 0 0 1
    outer loop
      vertex -1.6 0 7
      vertex -0.970819 0.705342 7
      vertex -0.799999 1.38564 7
    endloop
  endfacet
  facet normal -0 0 1
    outer loop
      vertex 1.2 0 7
      vertex 0.799999 -1.38564 7
      vertex 1.6 0 7
    endloop
  endfacet
  facet normal -0 0 1
    outer loop
      vertex 0.37082 -1.14127 7
      vertex 0.799999 -1.38564 7
      vertex 1.2 0 7
    endloop
  endfacet
  facet normal 0 0 1
    outer loop
      vertex 0.37082 -1.14127 7
      vertex -0.799999 -1.38564 7
      vertex 0.799999 -1.38564 7
    endloop
  endfacet
  facet normal 0 0 1
    outer loop
      vertex -0.970819 -0.705342 7
      vertex -0.799999 -1.38564 7
      vertex 0.37082 -1.14127 7
    endloop
  endfacet
  facet normal 0 0 1
    outer loop
      vertex -0.799999 -1.38564 7
      vertex -0.970819 -0.705342 7
      vertex -1.6 0 7
    endloop
  endfacet
  facet normal 0.222525 0.974927 -0
    outer loop
      vertex 1.24698 1.56366 0
      vertex -0.445042 1.94986 4
      vertex 1.24698 1.56366 4
    endloop
  endfacet
  facet normal 0.222525 0.974927 0
    outer loop
      vertex -0.445042 1.94986 4
      vertex 1.24698 1.56366 0
      vertex -0.445042 1.94986 0
    endloop
  endfacet
  facet normal 0.900969 0.433884 0
    outer loop
      vertex 2 0 4
      vertex 1.24698 1.56366 0
      vertex 1.24698 1.56366 4
    endloop
  endfacet
  facet normal 0.900969 0.433884 0
    outer loop
      vertex 1.24698 1.56366 0
      vertex 2 0 4
      vertex 2 0 0
    endloop
  endfacet
  facet normal 0.900969 -0.433884 0
    outer loop
      vertex 1.24698 -1.56366 4
      vertex 2 0 0
      vertex 2 0 4
    endloop
  endfacet
  facet normal 0.900969 -0.433884 0
    outer loop
      vertex 2 0 0
      vertex 1.24698 -1.56366 4
      vertex 1.24698 -1.56366 0
    endloop
  endfacet
  facet normal 0 0 1
    outer loop
      vertex 1.24698 1.56366 4
      vertex 1.6 0 4
      vertex 2 0 4
    endloop
  endfacet
  facet normal 0 0 1
    outer loop
      vertex 1.24698 1.56366 4
      vertex 0.799999 1.38564 4
      vertex 1.6 0 4
    endloop
  endfacet
  facet normal 0 0 1
    outer loop
      vertex -0.445042 1.94986 4
      vertex 0.799999 1.38564 4
      vertex 1.24698 1.56366 4
    endloop
  endfacet
  facet normal 0 0 1
    outer loop
      vertex -0.445042 1.94986 4
      vertex -0.799999 1.38564 4
      vertex 0.799999 1.38564 4
    endloop
  endfacet
  facet normal 0 0 1
    outer loop
      vertex -0.799999 1.38564 4
      vertex -1.80194 0.867767 4
      vertex -1.6 0 4
    endloop
  endfacet
  facet normal 0 0 1
    outer loop
      vertex -1.80194 0.867767 4
      vertex -0.799999 1.38564 4
      vertex -0.445042 1.94986 4
    endloop
  endfacet
  facet normal -0 0 1
    outer loop
      vertex 1.6 0 4
      vertex 1.24698 -1.56366 4
      vertex 2 0 4
    endloop
  endfacet
  facet normal -0 0 1
    outer loop
      vertex 0.799999 -1.38564 4
      vertex 1.24698 -1.56366 4
      vertex 1.6 0 4
    endloop
  endfacet
  facet normal 0 0 1
    outer loop
      vertex 0.799999 -1.38564 4
      vertex -0.445042 -1.94986 4
      vertex 1.24698 -1.56366 4
    endloop
  endfacet
  facet normal -0 0 1
    outer loop
      vertex -0.799999 -1.38564 4
      vertex -0.445042 -1.94986 4
      vertex 0.799999 -1.38564 4
    endloop
  endfacet
  facet normal 0 0 1
    outer loop
      vertex -0.799999 -1.38564 4
      vertex -1.80194 -0.867767 4
      vertex -0.445042 -1.94986 4
    endloop
  endfacet
  facet normal 0 0 1
    outer loop
      vertex -1.6 0 4
      vertex -1.80194 -0.867767 4
      vertex -0.799999 -1.38564 4
    endloop
  endfacet
  facet normal 0 0 1
    outer loop
      vertex -1.80194 -0.867767 4
      vertex -1.6 0 4
      vertex -1.80194 0.867767 4
    endloop
  endfacet
  facet normal -0.623491 -0.781831 0
    outer loop
      vertex -1.80194 -0.867767 0
      vertex -0.445042 -1.94986 4
      vertex -1.80194 -0.867767 4
    endloop
  endfacet
  facet normal -0.623491 -0.781831 -0
    outer loop
      vertex -0.445042 -1.94986 4
      vertex -1.80194 -0.867767 0
      vertex -0.445042 -1.94986 0
    endloop
  endfacet
  facet normal 0.222525 -0.974927 0
    outer loop
      vertex -0.445042 -1.94986 0
      vertex 1.24698 -1.56366 4
      vertex -0.445042 -1.94986 4
    endloop
  endfacet
  facet normal 0.222525 -0.974927 0
    outer loop
      vertex 1.24698 -1.56366 4
      vertex -0.445042 -1.94986 0
      vertex 1.24698 -1.56366 0
    endloop
  endfacet
  facet normal -1 0 0
    outer loop
      vertex -1.80194 -0.867767 0
      vertex -1.80194 0.867767 4
      vertex -1.80194 0.867767 0
    endloop
  endfacet
  facet normal -1 -0 0
    outer loop
      vertex -1.80194 0.867767 4
      vertex -1.80194 -0.867767 0
      vertex -1.80194 -0.867767 4
    endloop
  endfacet
  facet normal -0.623491 0.781831 0
    outer loop
      vertex -0.445042 1.94986 0
      vertex -1.80194 0.867767 4
      vertex -0.445042 1.94986 4
    endloop
  endfacet
  facet normal -0.623491 0.781831 0
    outer loop
      vertex -1.80194 0.867767 4
      vertex -0.445042 1.94986 0
      vertex -1.80194 0.867767 0
    endloop
  endfacet
endsolid OpenSCAD_Model
